<svg width="24" height="24" viewBox="0 0 24 24" fill="none" xmlns="http://www.w3.org/2000/svg">
<path d="M16.9231 8.95652H14.5242L13.3447 7.29022C13.2815 7.20099 13.1959 7.12783 13.0956 7.07721C12.9952 7.02658 12.8831 7.00006 12.7692 7H7.23077C7.11691 7.00006 7.00482 7.02658 6.90444 7.07721C6.80406 7.12783 6.71848 7.20099 6.65529 7.29022L5.4749 8.95652H3.07692C2.52609 8.95652 1.99782 9.16265 1.60832 9.52957C1.21882 9.89649 1 10.3941 1 10.913V20.0435C1 20.5624 1.21882 21.06 1.60832 21.4269C1.99782 21.7939 2.52609 22 3.07692 22H16.9231C17.4739 22 18.0022 21.7939 18.3917 21.4269C18.7812 21.06 19 20.5624 19 20.0435V10.913C19 10.3941 18.7812 9.89649 18.3917 9.52957C18.0022 9.16265 17.4739 8.95652 16.9231 8.95652ZM17.6154 20.0435C17.6154 20.2164 17.5424 20.3823 17.4126 20.5046C17.2828 20.6269 17.1067 20.6957 16.9231 20.6957H3.07692C2.89331 20.6957 2.71722 20.6269 2.58739 20.5046C2.45755 20.3823 2.38462 20.2164 2.38462 20.0435V10.913C2.38462 10.7401 2.45755 10.5742 2.58739 10.4519C2.71722 10.3296 2.89331 10.2609 3.07692 10.2609H5.84615C5.96016 10.2609 6.07242 10.2345 6.17297 10.1839C6.27351 10.1332 6.35923 10.06 6.4225 9.97065L7.60115 8.30435H12.398L13.5775 9.97065C13.6408 10.06 13.7265 10.1332 13.827 10.1839C13.9276 10.2345 14.0398 10.2609 14.1538 10.2609H16.9231C17.1067 10.2609 17.2828 10.3296 17.4126 10.4519C17.5424 10.5742 17.6154 10.7401 17.6154 10.913V20.0435ZM10 11.5652C9.24691 11.5652 8.51073 11.7756 7.88456 12.1697C7.25839 12.5639 6.77035 13.1241 6.48215 13.7795C6.19396 14.4349 6.11855 15.1562 6.26547 15.852C6.41239 16.5478 6.77504 17.1869 7.30755 17.6885C7.84007 18.1902 8.51854 18.5318 9.25716 18.6702C9.99578 18.8086 10.7614 18.7376 11.4571 18.4661C12.1529 18.1946 12.7476 17.7349 13.166 17.145C13.5844 16.5551 13.8077 15.8616 13.8077 15.1522C13.8065 14.2012 13.405 13.2895 12.6912 12.617C11.9773 11.9446 11.0095 11.5663 10 11.5652ZM10 17.4348C9.52076 17.4348 9.05228 17.3009 8.65381 17.0501C8.25534 16.7993 7.94477 16.4428 7.76137 16.0257C7.57797 15.6086 7.52999 15.1496 7.62348 14.7069C7.71698 14.2641 7.94775 13.8574 8.28663 13.5381C8.6255 13.2189 9.05725 13.0015 9.52728 12.9134C9.99731 12.8253 10.4845 12.8706 10.9273 13.0433C11.37 13.2161 11.7485 13.5087 12.0147 13.884C12.281 14.2594 12.4231 14.7007 12.4231 15.1522C12.4231 15.7576 12.1678 16.3382 11.7134 16.7662C11.259 17.1943 10.6426 17.4348 10 17.4348Z" fill="white"/>
<g clip-path="url(#clip0_5864_970)">
<path d="M23.0328 5.28284C23.1079 5.20783 23.15 5.10609 23.15 5C23.15 4.89391 23.1079 4.79217 23.0328 4.71716C22.9578 4.64214 22.8561 4.6 22.75 4.6H20.4V2.25C20.4 2.14391 20.3579 2.04217 20.2828 1.96716C20.2078 1.89214 20.1061 1.85 20 1.85C19.8939 1.85 19.7922 1.89214 19.7172 1.96716C19.6421 2.04217 19.6 2.14391 19.6 2.25V4.6H17.25C17.1439 4.6 17.0422 4.64214 16.9672 4.71716C16.8921 4.79217 16.85 4.89391 16.85 5C16.85 5.10609 16.8921 5.20783 16.9672 5.28284C17.0422 5.35786 17.1439 5.4 17.25 5.4H19.6V7.75C19.6 7.85609 19.6421 7.95783 19.7172 8.03284C19.7922 8.10786 19.8939 8.15 20 8.15C20.1061 8.15 20.2078 8.10786 20.2828 8.03284C20.3579 7.95783 20.4 7.85609 20.4 7.75V5.4H22.75C22.8561 5.4 22.9578 5.35786 23.0328 5.28284Z" fill="white" stroke="white" stroke-width="0.3"/>
</g>
<defs>
<clipPath id="clip0_5864_970">
<rect width="8" height="8" fill="white" transform="translate(16 1)"/>
</clipPath>
</defs>
</svg>
