<svg width="13" height="12" viewBox="0 0 13 12" fill="none" xmlns="http://www.w3.org/2000/svg">
<path d="M6.11328 1.125C5.1491 1.125 4.20657 1.41091 3.40488 1.94659C2.60319 2.48226 1.97835 3.24363 1.60937 4.13442C1.24039 5.02521 1.14385 6.00541 1.33196 6.95106C1.52006 7.89672 1.98436 8.76536 2.66614 9.44714C3.34792 10.1289 4.21656 10.5932 5.16222 10.7813C6.10787 10.9694 7.08807 10.8729 7.97886 10.5039C8.86965 10.1349 9.63102 9.51009 10.1667 8.7084C10.7024 7.90671 10.9883 6.96418 10.9883 6C10.9869 4.70749 10.4729 3.46831 9.55892 2.55436C8.64498 1.64042 7.40579 1.12636 6.11328 1.125ZM6.11328 10.125C5.29743 10.125 4.49991 9.88307 3.82156 9.42981C3.1432 8.97655 2.61449 8.33231 2.30228 7.57857C1.99007 6.82482 1.90838 5.99542 2.06754 5.19525C2.22671 4.39508 2.61958 3.66008 3.19647 3.08318C3.77336 2.50629 4.50836 2.11342 5.30854 1.95426C6.10871 1.7951 6.93811 1.87679 7.69185 2.189C8.4456 2.50121 9.08983 3.02992 9.54309 3.70827C9.99636 4.38662 10.2383 5.18415 10.2383 6C10.237 7.09364 9.80205 8.14213 9.02873 8.91544C8.25541 9.68876 7.20692 10.1238 6.11328 10.125ZM9.11328 6C9.11328 6.09946 9.07377 6.19484 9.00345 6.26516C8.93312 6.33549 8.83774 6.375 8.73828 6.375H6.11328C6.01383 6.375 5.91844 6.33549 5.84812 6.26516C5.77779 6.19484 5.73828 6.09946 5.73828 6V3.375C5.73828 3.27554 5.77779 3.18016 5.84812 3.10983C5.91844 3.03951 6.01383 3 6.11328 3C6.21274 3 6.30812 3.03951 6.37845 3.10983C6.44877 3.18016 6.48828 3.27554 6.48828 3.375V5.625H8.73828C8.83774 5.625 8.93312 5.66451 9.00345 5.73483C9.07377 5.80516 9.11328 5.90054 9.11328 6Z" fill="white"/>
</svg>
