<svg width="20" height="20" viewBox="0 0 20 20" fill="none" xmlns="http://www.w3.org/2000/svg">
<path d="M12.8177 11C12.8177 11.1416 12.7614 11.2775 12.6613 11.3776C12.5611 11.4778 12.4253 11.5341 12.2836 11.5341H6.409C6.26736 11.5341 6.13152 11.4778 6.03136 11.3776C5.9312 11.2775 5.87494 11.1416 5.87494 11C5.87494 10.8584 5.9312 10.7225 6.03136 10.6224C6.13152 10.5222 6.26736 10.4659 6.409 10.4659H12.2836C12.4253 10.4659 12.5611 10.5222 12.6613 10.6224C12.7614 10.7225 12.8177 10.8584 12.8177 11ZM6.409 7.26159H12.2836C12.4253 7.26159 12.5611 7.20532 12.6613 7.10517C12.7614 7.00501 12.8177 6.86917 12.8177 6.72753C12.8177 6.58589 12.7614 6.45005 12.6613 6.3499C12.5611 6.24974 12.4253 6.19347 12.2836 6.19347H6.409C6.26736 6.19347 6.13152 6.24974 6.03136 6.3499C5.9312 6.45005 5.87494 6.58589 5.87494 6.72753C5.87494 6.86917 5.9312 7.00501 6.03136 7.10517C6.13152 7.20532 6.26736 7.26159 6.409 7.26159ZM12.2836 14.7384H6.409C6.26736 14.7384 6.13152 14.7947 6.03136 14.8948C5.9312 14.995 5.87494 15.1308 5.87494 15.2725C5.87494 15.4141 5.9312 15.5499 6.03136 15.6501C6.13152 15.7503 6.26736 15.8065 6.409 15.8065H12.2836C12.4253 15.8065 12.5611 15.7503 12.6613 15.6501C12.7614 15.5499 12.8177 15.4141 12.8177 15.2725C12.8177 15.1308 12.7614 14.995 12.6613 14.8948C12.5611 14.7947 12.4253 14.7384 12.2836 14.7384ZM3.36086 5.28157L1.60247 7.04062L0.912201 6.34969C0.81199 6.24948 0.676075 6.19318 0.534355 6.19318C0.392635 6.19318 0.25672 6.24948 0.156509 6.34969C0.0562979 6.4499 1.05589e-09 6.58581 0 6.72753C-1.0559e-09 6.86925 0.0562979 7.00517 0.156509 7.10538L1.22463 8.1735C1.27423 8.22315 1.33313 8.26254 1.39796 8.28942C1.46279 8.31629 1.53229 8.33013 1.60247 8.33013C1.67266 8.33013 1.74215 8.31629 1.80698 8.28942C1.87182 8.26254 1.93072 8.22315 1.98032 8.1735L4.11655 6.03726C4.21676 5.93705 4.27306 5.80114 4.27306 5.65942C4.27306 5.5177 4.21676 5.38178 4.11655 5.28157C4.01634 5.18136 3.88042 5.12506 3.7387 5.12506C3.59699 5.12506 3.46107 5.18136 3.36086 5.28157ZM3.36086 9.55404L1.60247 11.3131L0.912201 10.6222C0.81199 10.5219 0.676075 10.4656 0.534355 10.4656C0.392635 10.4656 0.25672 10.5219 0.156509 10.6222C0.0562979 10.7224 0 10.8583 0 11C0 11.0702 0.0138215 11.1397 0.0406754 11.2045C0.0675292 11.2693 0.10689 11.3282 0.156509 11.3778L1.22463 12.446C1.27423 12.4956 1.33313 12.535 1.39796 12.5619C1.46279 12.5888 1.53229 12.6026 1.60247 12.6026C1.67266 12.6026 1.74215 12.5888 1.80698 12.5619C1.87182 12.535 1.93072 12.4956 1.98032 12.446L4.11655 10.3097C4.21676 10.2095 4.27306 10.0736 4.27306 9.93188C4.27306 9.79016 4.21676 9.65425 4.11655 9.55404C4.01634 9.45383 3.88042 9.39753 3.7387 9.39753C3.59699 9.39753 3.46107 9.45383 3.36086 9.55404ZM3.36086 13.8265L1.60247 15.5856L0.912201 14.8946C0.862582 14.845 0.803675 14.8056 0.738844 14.7788C0.674013 14.7519 0.604528 14.7381 0.534355 14.7381C0.464183 14.7381 0.394697 14.7519 0.329866 14.7788C0.265035 14.8056 0.206128 14.845 0.156509 14.8946C0.10689 14.9442 0.0675292 15.0031 0.0406754 15.068C0.0138215 15.1328 0 15.2023 0 15.2725C0 15.3426 0.0138215 15.4121 0.0406754 15.477C0.0675292 15.5418 0.10689 15.6007 0.156509 15.6503L1.22463 16.7184C1.27423 16.7681 1.33313 16.8075 1.39796 16.8344C1.46279 16.8612 1.53229 16.8751 1.60247 16.8751C1.67266 16.8751 1.74215 16.8612 1.80698 16.8344C1.87182 16.8075 1.93072 16.7681 1.98032 16.7184L4.11655 14.5822C4.21676 14.482 4.27306 14.3461 4.27306 14.2044C4.27306 14.0626 4.21676 13.9267 4.11655 13.8265C4.01634 13.7263 3.88042 13.67 3.7387 13.67C3.59699 13.67 3.46107 13.7263 3.36086 13.8265Z" fill="black"/>
<path d="M16.2375 4.9375C16.2375 4.80633 16.1312 4.7 16 4.7C15.8688 4.7 15.7625 4.80633 15.7625 4.9375V6.7625H13.9375C13.8063 6.7625 13.7 6.86883 13.7 7C13.7 7.13117 13.8063 7.2375 13.9375 7.2375H15.7625V9.0625C15.7625 9.19367 15.8688 9.3 16 9.3C16.1312 9.3 16.2375 9.19367 16.2375 9.0625V7.2375H18.0625C18.1937 7.2375 18.3 7.13117 18.3 7C18.3 6.86883 18.1937 6.7625 18.0625 6.7625H16.2375V4.9375Z" fill="black" stroke="black" stroke-width="0.1" stroke-linecap="round" stroke-linejoin="round"/>
</svg>
