<svg width="20" height="20" viewBox="0 0 20 20" fill="none" xmlns="http://www.w3.org/2000/svg">
<path d="M17.5 9.99998C17.5 10.1657 17.4341 10.3247 17.3169 10.4419C17.1997 10.5591 17.0408 10.625 16.875 10.625H10C9.83424 10.625 9.67527 10.5591 9.55805 10.4419C9.44084 10.3247 9.375 10.1657 9.375 9.99998C9.375 9.83422 9.44084 9.67525 9.55805 9.55804C9.67527 9.44083 9.83424 9.37498 10 9.37498H16.875C17.0408 9.37498 17.1997 9.44083 17.3169 9.55804C17.4341 9.67525 17.5 9.83422 17.5 9.99998ZM10 5.62498H16.875C17.0408 5.62498 17.1997 5.55913 17.3169 5.44192C17.4341 5.32471 17.5 5.16574 17.5 4.99998C17.5 4.83422 17.4341 4.67525 17.3169 4.55804C17.1997 4.44083 17.0408 4.37498 16.875 4.37498H10C9.83424 4.37498 9.67527 4.44083 9.55805 4.55804C9.44084 4.67525 9.375 4.83422 9.375 4.99998C9.375 5.16574 9.44084 5.32471 9.55805 5.44192C9.67527 5.55913 9.83424 5.62498 10 5.62498ZM16.875 14.375H10C9.83424 14.375 9.67527 14.4408 9.55805 14.558C9.44084 14.6752 9.375 14.8342 9.375 15C9.375 15.1657 9.44084 15.3247 9.55805 15.4419C9.67527 15.5591 9.83424 15.625 10 15.625H16.875C17.0408 15.625 17.1997 15.5591 17.3169 15.4419C17.4341 15.3247 17.5 15.1657 17.5 15C17.5 14.8342 17.4341 14.6752 17.3169 14.558C17.1997 14.4408 17.0408 14.375 16.875 14.375ZM6.43281 3.30779L4.375 5.36639L3.56718 4.55779C3.44991 4.44052 3.29085 4.37463 3.125 4.37463C2.95914 4.37463 2.80008 4.44052 2.68281 4.55779C2.56553 4.67507 2.49965 4.83413 2.49965 4.99998C2.49965 5.16583 2.56553 5.32489 2.68281 5.44217L3.93281 6.69217C3.99085 6.75028 4.05979 6.79638 4.13566 6.82783C4.21153 6.85928 4.29286 6.87547 4.375 6.87547C4.45713 6.87547 4.53846 6.85928 4.61433 6.82783C4.69021 6.79638 4.75914 6.75028 4.81718 6.69217L7.31718 4.19217C7.43446 4.07489 7.50034 3.91583 7.50034 3.74998C7.50034 3.58413 7.43446 3.42507 7.31718 3.30779C7.19991 3.19052 7.04085 3.12463 6.875 3.12463C6.70914 3.12463 6.55008 3.19052 6.43281 3.30779ZM6.43281 8.30779L4.375 10.3664L3.56718 9.55779C3.44991 9.44052 3.29085 9.37463 3.125 9.37463C2.95914 9.37463 2.80008 9.44052 2.68281 9.55779C2.56553 9.67507 2.49965 9.83413 2.49965 9.99998C2.49965 10.0821 2.51582 10.1634 2.54725 10.2393C2.57868 10.3152 2.62474 10.3841 2.68281 10.4422L3.93281 11.6922C3.99085 11.7503 4.05979 11.7964 4.13566 11.8278C4.21153 11.8593 4.29286 11.8755 4.375 11.8755C4.45713 11.8755 4.53846 11.8593 4.61433 11.8278C4.69021 11.7964 4.75914 11.7503 4.81718 11.6922L7.31718 9.19217C7.43446 9.07489 7.50034 8.91583 7.50034 8.74998C7.50034 8.58413 7.43446 8.42507 7.31718 8.30779C7.19991 8.19052 7.04085 8.12463 6.875 8.12463C6.70914 8.12463 6.55008 8.19052 6.43281 8.30779ZM6.43281 13.3078L4.375 15.3664L3.56718 14.5578C3.50912 14.4997 3.44018 14.4537 3.36431 14.4222C3.28844 14.3908 3.20712 14.3746 3.125 14.3746C3.04287 14.3746 2.96156 14.3908 2.88569 14.4222C2.80982 14.4537 2.74088 14.4997 2.68281 14.5578C2.62474 14.6159 2.57868 14.6848 2.54725 14.7607C2.51582 14.8365 2.49965 14.9179 2.49965 15C2.49965 15.0821 2.51582 15.1634 2.54725 15.2393C2.57868 15.3152 2.62474 15.3841 2.68281 15.4422L3.93281 16.6922C3.99085 16.7503 4.05979 16.7964 4.13566 16.8278C4.21153 16.8593 4.29286 16.8755 4.375 16.8755C4.45713 16.8755 4.53846 16.8593 4.61433 16.8278C4.69021 16.7964 4.75914 16.7503 4.81718 16.6922L7.31718 14.1922C7.43446 14.0749 7.50034 13.9158 7.50034 13.75C7.50034 13.5841 7.43446 13.4251 7.31718 13.3078C7.19991 13.1905 7.04085 13.1246 6.875 13.1246C6.70914 13.1246 6.55008 13.1905 6.43281 13.3078Z" fill="black"/>
</svg>
