<svg height="512" viewBox="0 0 96 96" width="512" xmlns="http://www.w3.org/2000/svg"><g id="Layer_4"><g><path fill="#667085" d="m22.204 68.577h22.669l18.806 17.625c.684.641 1.505.928 2.309.928 1.755 0 3.431-1.369 3.431-3.416v-15.137h4.377c7.845 0 14.204-6.36 14.204-14.204v-31.3c0-7.845-6.359-14.204-14.204-14.204h-51.592c-7.845 0-14.204 6.359-14.204 14.204v31.301c0 7.844 6.359 14.203 14.204 14.203zm-8.522-45.504c0-4.699 3.823-8.522 8.522-8.522h51.592c4.699 0 8.522 3.823 8.522 8.522v31.301c0 4.699-3.823 8.522-8.522 8.522h-10.058v15.575l-16.619-15.575h-24.915c-4.699 0-8.522-3.823-8.522-8.522z"/><path fill="#667085" d="m37.267 45.386c.555.555 1.282.832 2.009.832s1.454-.277 2.009-.832c1.109-1.109 1.109-2.908 0-4.017l-4.23-4.23h20.05c3.245 0 5.885 2.64 5.885 5.885s-2.64 5.885-5.885 5.885h-6.31c-1.569 0-2.841 1.272-2.841 2.841s1.272 2.841 2.841 2.841h6.31c6.378 0 11.567-5.189 11.567-11.567s-5.189-11.567-11.567-11.567h-20.216l4.62-4.621c1.109-1.109 1.109-2.908 0-4.017-1.109-1.11-2.908-1.11-4.017 0l-9.292 9.293c-.562.562-.872 1.309-.872 2.104s.31 1.542.872 2.104z"/></g></g></svg>