<svg clip-rule="evenodd" fill-rule="evenodd" height="512" stroke-linejoin="round" stroke-miterlimit="2" viewBox="0 0 64 64" width="512" xmlns="http://www.w3.org/2000/svg"><g id="Exp-1.-O"><path d="m61.5 24.153v13.171s.056 12.99-3.63 19.202c-.093.143-.25.229-.419.229-3.827.003-26.546.003-32.898.003-.175 0-.337-.091-.428-.241-.09-.149-.096-.335-.015-.49.004-.007.007-.015.01-.022 2.259-4.894 3.021-12.398 3.266-16.235.018-.276-.192-.513-.467-.531s-.513.192-.531.467c-.239 3.747-.965 11.074-3.167 15.861-.24.473-.22 1.024.049 1.468.272.449.758.723 1.282.723 6.353 0 29.073 0 32.899-.003.513 0 .99-.263 1.265-.697.002-.003.005-.007.007-.011 3.793-6.376 3.777-19.726 3.777-19.726v-13.168c0-.276-.224-.5-.5-.5s-.5.224-.5.5z" fill="#738bab"/><path d="m26.5 9.677v.669c0 .036.004.071.011.105.012.059.033.108.06.151l.007.013c.089.139.245.231.422.231 0 0 .5-.041.5-.509v-.66c0-.276.224-.5.5-.5h19.607c.276 0 .5-.224.5-.5s-.224-.5-.5-.5c0 0-15.482 0-19.607 0-.828 0-1.5.672-1.5 1.5z" fill="#738bab"/><path d="m61.816 21.835c.198.078.423.022.562-.138.139-.161.161-.391.056-.576-2.821-4.931-6.686-9.21-11.582-12.845-.167-.124-.393-.132-.568-.02-.174.112-.262.321-.219.524.737 3.521 1.099 7.084.742 10.727-.049.459.12.918.457 1.239.338.321.805.467 1.265.394 3.207-.495 6.335-.471 9.287.695z" fill="#2d74ff"/><path d="m20.744 13.884c4.016-1.362 8.638-.443 11.837 2.756 3.759 3.759 4.37 9.482 1.832 13.879-.07.122-.086.267-.044.401l1.575 4.993c.021.068.003.141-.047.191 0 0-.134.134-.134.134-.039.038-.096.052-.148.036 0 0-5.018-1.583-5.018-1.583-.134-.042-.279-.026-.4.044-4.397 2.538-10.12 1.928-13.879-1.831-4.488-4.488-4.488-11.776 0-16.264.195-.195.195-.512 0-.707-.196-.195-.512-.195-.708 0-4.878 4.878-4.878 12.799 0 17.678 4.032 4.031 10.141 4.731 14.894 2.099 0 0 4.81 1.518 4.81 1.518.408.128.854.019 1.156-.283l.134-.134c.314-.314.427-.776.293-1.198l-1.509-4.787c2.631-4.752 1.931-10.862-2.1-14.893-3.477-3.477-8.5-4.476-12.865-2.996-.261.088-.402.373-.313.634s.373.402.634.313z" fill="#738bab"/><g fill="#2d74ff"><path d="m22.333 21.335c-.022-.953.335-1.649.888-2.057.868-.64 2.164-.613 2.868.18.303.341.478.823.483 1.433.012 1.463-.675 2.318-1.346 3.203-.904 1.193-1.807 2.419-1.919 4.467-.03.551.393 1.022.944 1.052s1.023-.393 1.053-.944c.085-1.555.829-2.461 1.516-3.367.92-1.213 1.768-2.423 1.752-4.427-.01-1.178-.403-2.087-.987-2.745-1.365-1.536-3.87-1.702-5.551-.462-1.008.744-1.741 1.976-1.7 3.714.013.552.471.99 1.023.976.552-.013.989-.471.976-1.023z"/><circle cx="24.212" cy="32.097" r="1.23"/><path d="m12.217 8.364 4 5.032c.344.432.973.504 1.405.161s.504-.973.161-1.405l-4-5.032c-.344-.432-.973-.504-1.405-.161-.432.344-.504.973-.161 1.405z"/><path d="m1.502 10.867 10.452 6c.478.275 1.09.11 1.365-.369s.109-1.09-.37-1.365l-10.451-6c-.479-.275-1.09-.11-1.365.369s-.11 1.09.369 1.365z"/><path d="m3 22h7c.552 0 1-.448 1-1s-.448-1-1-1h-7c-.552 0-1 .448-1 1s.448 1 1 1z"/></g></g></svg>