<svg width="32" height="32" viewBox="0 0 32 32" fill="none" xmlns="http://www.w3.org/2000/svg">
<path d="M30.9536 4.98657C30.9393 4.74193 30.8357 4.51105 30.6624 4.33776C30.4892 4.16448 30.2583 4.06086 30.0136 4.04657C23.5436 3.67157 18.3486 5.63907 16.1161 9.32407C14.6411 11.7603 14.6436 14.7191 16.0961 17.5416C15.2694 18.5258 14.6652 19.6771 14.3249 20.9166L12.2911 18.8753C13.2686 16.8341 13.2311 14.7066 12.1661 12.9391C10.5161 10.2153 6.70738 8.75532 1.97862 9.03282C1.73398 9.04711 1.5031 9.15073 1.32982 9.32401C1.15653 9.4973 1.05291 9.72818 1.03862 9.97282C0.759874 14.7016 2.22112 18.5103 4.94488 20.1603C5.84371 20.7095 6.87656 21.0001 7.92988 21.0003C8.95225 20.9877 9.95872 20.7455 10.8749 20.2916L13.9999 23.4166V27.0003C13.9999 27.2655 14.1052 27.5199 14.2928 27.7074C14.4803 27.895 14.7347 28.0003 14.9999 28.0003C15.2651 28.0003 15.5194 27.895 15.707 27.7074C15.8945 27.5199 15.9999 27.2655 15.9999 27.0003V23.3141C15.9954 21.7232 16.5368 20.1789 17.5336 18.9391C18.8198 19.6112 20.2463 19.971 21.6974 19.9891C23.1003 19.9936 24.4773 19.6103 25.6761 18.8816C29.3611 16.6516 31.3336 11.4566 30.9536 4.98657ZM5.97613 18.4503C4.05863 17.2891 2.97362 14.5403 2.99987 11.0003C6.53988 10.9703 9.28862 12.0591 10.4499 13.9766C11.0561 14.9766 11.1549 16.1428 10.7574 17.3441L7.70613 14.2928C7.51706 14.1132 7.26531 14.0145 7.00455 14.0179C6.74379 14.0212 6.49465 14.1263 6.31025 14.3107C6.12585 14.4951 6.02077 14.7442 6.01744 15.005C6.0141 15.2658 6.11276 15.5175 6.29238 15.7066L9.34363 18.7578C8.14237 19.1553 6.97738 19.0566 5.97613 18.4503ZM24.6399 17.1728C22.9649 18.1866 20.9961 18.2641 18.9961 17.4228L25.7074 10.7103C25.887 10.5213 25.9857 10.2695 25.9823 10.0087C25.979 9.74799 25.8739 9.49884 25.6895 9.31444C25.5051 9.13004 25.256 9.02497 24.9952 9.02163C24.7344 9.01829 24.4827 9.11695 24.2936 9.29657L17.5811 16.0003C16.7361 14.0003 16.8124 12.0303 17.8311 10.3566C19.5736 7.48157 23.7061 5.87907 28.9974 6.00282C29.1174 11.2928 27.5174 15.4303 24.6399 17.1728Z" fill="#1075FF"/>
</svg>
