<svg width="32" height="32" viewBox="0 0 32 32" fill="none" xmlns="http://www.w3.org/2000/svg">
<g clip-path="url(#clip0_6111_2700)">
<path d="M31.5771 24.2358C26.832 24.2358 22.1745 26.1823 18.7992 29.5761C18.5777 29.7986 18.5789 30.1585 18.8013 30.3795C18.9123 30.4898 19.0568 30.5448 19.202 30.5448C19.3479 30.5448 19.4936 30.4891 19.6049 30.3775C22.7686 27.1966 27.1322 25.3721 31.5771 25.3721C31.8909 25.3721 32.1453 25.1179 32.1453 24.804C32.1453 24.4904 31.8909 24.2358 31.5771 24.2358Z" fill="#8347FF"/>
<path d="M19.7276 23.7097C19.5518 23.4496 19.1987 23.3812 18.9387 23.5569C16.5091 25.1981 14.4573 27.2515 12.8397 29.6601C12.6648 29.9206 12.7341 30.2737 12.9946 30.4486C13.0921 30.5139 13.2019 30.5452 13.3109 30.5452C13.4938 30.5452 13.6736 30.4569 13.7832 30.2937C15.3186 28.007 17.267 26.0572 19.5748 24.4985C19.8347 24.3229 19.9031 23.9697 19.7276 23.7097Z" fill="#8347FF"/>
<path d="M31.5761 19.6616C29.0359 19.6616 26.5217 20.0957 24.1034 20.9514C23.8075 21.0559 23.6526 21.3806 23.7573 21.6765C23.8398 21.9098 24.059 22.0554 24.2929 22.0554C24.3557 22.0554 24.4197 22.0447 24.4826 22.0225C26.7787 21.21 29.1653 20.7981 31.5761 20.7981C31.89 20.7981 32.1442 20.5437 32.1442 20.2299C32.1442 19.916 31.89 19.6616 31.5761 19.6616Z" fill="#8347FF"/>
<path d="M11.1954 26.6464C14.9335 21.7728 20.3444 18.3888 26.3153 17.1206L26.3184 17.1199C28.0343 16.7557 29.7958 16.566 31.5774 16.566C31.891 16.566 32.1456 16.3113 32.1456 15.9977C32.1456 15.684 31.891 15.4296 31.5774 15.4296C29.9619 15.4296 28.3526 15.5774 26.7705 15.8667V14.6402C28.8241 12.9016 29.9514 10.6236 29.9514 8.1977C29.9514 5.68949 28.7465 3.3393 26.5583 1.57993C26.3504 1.41281 26.0541 1.41281 25.8461 1.57993C23.6582 3.3393 22.4529 5.68949 22.4529 8.1977C22.4529 10.6236 23.5805 12.9016 25.6339 14.6402V16.099C24.5543 16.3446 23.4903 16.6578 22.4486 17.035V13.7082C22.4486 13.5519 22.3855 13.4105 22.2835 13.3078L19.1017 10.1069C18.9949 9.99968 18.8499 9.93931 18.6986 9.93931H12.2024C12.0513 9.93931 11.9061 9.99968 11.7996 10.1069L8.61776 13.3076C8.51566 13.4103 8.45242 13.5519 8.45242 13.7084V15.8782C8.05646 15.8056 7.65873 15.7416 7.25923 15.687V13.6616C8.81219 12.3257 9.66424 10.5834 9.66424 8.72726C9.66424 6.78812 8.73473 4.97305 7.04705 3.61584C6.83909 3.44872 6.54301 3.44872 6.33505 3.61584C4.64737 4.97282 3.71786 6.78812 3.71786 8.72726C3.71786 10.5832 4.56992 12.3255 6.12286 13.6613V15.5563C5.29434 15.4789 4.46027 15.4389 3.62286 15.4389C3.30904 15.4389 3.05469 15.6933 3.05469 16.007C3.05469 16.3209 3.30904 16.5753 3.62286 16.5753C8.16611 16.5753 12.6099 17.7774 16.5274 20.0578C15.5889 20.6958 14.6924 21.3923 13.8437 22.1423C10.6697 20.5253 7.14293 19.6719 3.62286 19.6719C3.30926 19.6719 3.05469 19.9262 3.05469 20.24C3.05469 20.5539 3.30926 20.8082 3.62286 20.8082C6.82577 20.8082 10.0351 21.5531 12.9508 22.9676C12.087 23.8031 11.2796 24.6972 10.5345 25.6422C8.32435 24.7154 6.00147 24.2457 3.62286 24.2457C3.30926 24.2457 3.05469 24.5001 3.05469 24.8139C3.05469 25.1278 3.30926 25.3822 3.62286 25.3822C5.75355 25.3822 7.83674 25.7861 9.8267 26.5814C9.43408 27.127 9.06099 27.6875 8.71009 28.2627L7.84429 29.6812C7.68071 29.9488 7.76549 30.2987 8.03316 30.462C8.12571 30.5186 8.22781 30.5455 8.32878 30.5455C8.52011 30.5455 8.70721 30.4485 8.81418 30.2731L9.68 28.8546C10.1314 28.115 10.6193 27.4031 11.1393 26.7198C11.1597 26.6971 11.1788 26.6729 11.1954 26.6464ZM23.5895 8.1977C23.5895 6.17821 24.5136 4.26525 26.2023 2.76624C27.891 4.26525 28.8151 6.17821 28.8151 8.1977C28.8151 9.97727 28.0969 11.6745 26.7705 13.0783V8.72726C26.7705 8.41343 26.5162 8.15909 26.2023 8.15909C25.8884 8.15909 25.6342 8.41343 25.6342 8.72726V13.0783C24.3076 11.6745 23.5895 9.97727 23.5895 8.1977ZM4.85422 8.72726C4.85422 7.27795 5.50298 5.90144 6.69105 4.8077C7.87912 5.90122 8.52788 7.27795 8.52788 8.72726C8.52788 9.92511 8.0842 11.0735 7.25923 12.0536V8.27272C7.25923 7.95888 7.00488 7.70454 6.69105 7.70454C6.37744 7.70454 6.12286 7.95888 6.12286 8.27272V12.0536C5.2979 11.0735 4.85422 9.92511 4.85422 8.72726ZM20.5145 13.14H15.6206L13.5685 11.0757H18.4624L20.5145 13.14ZM12.2024 11.3134L14.0184 13.14H10.3867L12.2024 11.3134ZM9.58878 14.2764H14.816V17.8896C14.5526 17.7685 14.2876 17.6512 14.0206 17.5388V15.6304C14.0206 15.3168 13.7662 15.0623 13.4524 15.0623H10.9524C10.6388 15.0623 10.3842 15.3168 10.3842 15.6304V16.3061C10.1201 16.2373 9.85511 16.172 9.58878 16.1112V14.2764ZM12.8842 17.0904C12.4337 16.9244 11.9791 16.7704 11.5206 16.629V16.1986H12.8842V17.0904ZM15.9524 18.4456V14.2764H21.3124V17.476C20.3392 17.8792 19.3881 18.3395 18.4662 18.8571C18.1715 19.0224 17.8803 19.1942 17.5924 19.3705C17.0553 19.0424 16.5084 18.7339 15.9524 18.4456Z" fill="#8347FF"/>
<path d="M26.2021 7.13636C26.3515 7.13636 26.4981 7.07555 26.6037 6.96969C26.7094 6.86403 26.7702 6.71756 26.7702 6.56817C26.7702 6.41859 26.7096 6.2721 26.6037 6.16646C26.4981 6.0606 26.3515 6 26.2021 6C26.0527 6 25.9059 6.0606 25.8005 6.16646C25.6946 6.2721 25.6338 6.41859 25.6338 6.56817C25.6338 6.71756 25.6946 6.86403 25.8005 6.96969C25.9059 7.07533 26.0527 7.13636 26.2021 7.13636Z" fill="#8347FF"/>
<path d="M21.2689 22.2084C21.1636 22.314 21.1025 22.4605 21.1025 22.6099C21.1025 22.76 21.1633 22.906 21.2689 23.0116C21.3748 23.1175 21.5213 23.178 21.6707 23.178C21.8204 23.178 21.9668 23.1175 22.0724 23.0116C22.178 22.906 22.239 22.76 22.239 22.6099C22.239 22.4605 22.178 22.314 22.0724 22.2084C21.9668 22.1025 21.8204 22.0417 21.6707 22.0417C21.5213 22.0417 21.3748 22.1025 21.2689 22.2084Z" fill="#8347FF"/>
<mask id="mask0_6111_2700" style="mask-type:luminance" maskUnits="userSpaceOnUse" x="1" y="0" width="33" height="32">
<path d="M33.5996 0H1.59961V32H33.5996V0Z" fill="white"/>
<path d="M31.5771 24.2358C26.832 24.2358 22.1745 26.1823 18.7992 29.5761C18.5777 29.7986 18.5789 30.1585 18.8013 30.3795C18.9123 30.4898 19.0568 30.5448 19.202 30.5448C19.3479 30.5448 19.4936 30.4891 19.6049 30.3775C22.7686 27.1966 27.1322 25.3721 31.5771 25.3721C31.8909 25.3721 32.1453 25.1179 32.1453 24.804C32.1453 24.4904 31.8909 24.2358 31.5771 24.2358Z" fill="black"/>
<path d="M19.7276 23.7097C19.5518 23.4496 19.1987 23.3812 18.9387 23.5569C16.5091 25.1981 14.4573 27.2515 12.8397 29.6601C12.6648 29.9206 12.7341 30.2737 12.9946 30.4486C13.0921 30.5139 13.2019 30.5452 13.3109 30.5452C13.4938 30.5452 13.6736 30.4569 13.7832 30.2937C15.3186 28.007 17.267 26.0572 19.5748 24.4985C19.8347 24.3229 19.9031 23.9697 19.7276 23.7097Z" fill="black"/>
<path d="M31.5761 19.6616C29.0359 19.6616 26.5217 20.0957 24.1034 20.9514C23.8075 21.0559 23.6526 21.3806 23.7573 21.6765C23.8398 21.9098 24.059 22.0554 24.2929 22.0554C24.3557 22.0554 24.4197 22.0447 24.4826 22.0225C26.7787 21.21 29.1653 20.7981 31.5761 20.7981C31.89 20.7981 32.1442 20.5437 32.1442 20.2299C32.1442 19.916 31.89 19.6616 31.5761 19.6616Z" fill="black"/>
<path d="M11.1954 26.6464C14.9335 21.7728 20.3444 18.3888 26.3153 17.1206L26.3184 17.1199C28.0343 16.7557 29.7958 16.566 31.5774 16.566C31.891 16.566 32.1456 16.3113 32.1456 15.9977C32.1456 15.684 31.891 15.4296 31.5774 15.4296C29.9619 15.4296 28.3526 15.5774 26.7705 15.8667V14.6402C28.8241 12.9016 29.9514 10.6236 29.9514 8.1977C29.9514 5.68949 28.7465 3.3393 26.5583 1.57993C26.3504 1.41281 26.0541 1.41281 25.8461 1.57993C23.6582 3.3393 22.4529 5.68949 22.4529 8.1977C22.4529 10.6236 23.5805 12.9016 25.6339 14.6402V16.099C24.5543 16.3446 23.4903 16.6578 22.4486 17.035V13.7082C22.4486 13.5519 22.3855 13.4105 22.2835 13.3078L19.1017 10.1069C18.9949 9.99968 18.8499 9.93931 18.6986 9.93931H12.2024C12.0513 9.93931 11.9061 9.99968 11.7996 10.1069L8.61776 13.3076C8.51566 13.4103 8.45242 13.5519 8.45242 13.7084V15.8782C8.05646 15.8056 7.65873 15.7416 7.25923 15.687V13.6616C8.81219 12.3257 9.66424 10.5834 9.66424 8.72726C9.66424 6.78812 8.73473 4.97305 7.04705 3.61584C6.83909 3.44872 6.54301 3.44872 6.33505 3.61584C4.64737 4.97282 3.71786 6.78812 3.71786 8.72726C3.71786 10.5832 4.56992 12.3255 6.12286 13.6613V15.5563C5.29434 15.4789 4.46027 15.4389 3.62286 15.4389C3.30904 15.4389 3.05469 15.6933 3.05469 16.007C3.05469 16.3209 3.30904 16.5753 3.62286 16.5753C8.16611 16.5753 12.6099 17.7774 16.5274 20.0578C15.5889 20.6958 14.6924 21.3923 13.8437 22.1423C10.6697 20.5253 7.14293 19.6719 3.62286 19.6719C3.30926 19.6719 3.05469 19.9262 3.05469 20.24C3.05469 20.5539 3.30926 20.8082 3.62286 20.8082C6.82577 20.8082 10.0351 21.5531 12.9508 22.9676C12.087 23.8031 11.2796 24.6972 10.5345 25.6422C8.32435 24.7154 6.00147 24.2457 3.62286 24.2457C3.30926 24.2457 3.05469 24.5001 3.05469 24.8139C3.05469 25.1278 3.30926 25.3822 3.62286 25.3822C5.75355 25.3822 7.83674 25.7861 9.8267 26.5814C9.43408 27.127 9.06099 27.6875 8.71009 28.2627L7.84429 29.6812C7.68071 29.9488 7.76549 30.2987 8.03316 30.462C8.12571 30.5186 8.22781 30.5455 8.32878 30.5455C8.52011 30.5455 8.70721 30.4485 8.81418 30.2731L9.68 28.8546C10.1314 28.115 10.6193 27.4031 11.1393 26.7198C11.1597 26.6971 11.1788 26.6729 11.1954 26.6464ZM23.5895 8.1977C23.5895 6.17821 24.5136 4.26525 26.2023 2.76624C27.891 4.26525 28.8151 6.17821 28.8151 8.1977C28.8151 9.97727 28.0969 11.6745 26.7705 13.0783V8.72726C26.7705 8.41343 26.5162 8.15909 26.2023 8.15909C25.8884 8.15909 25.6342 8.41343 25.6342 8.72726V13.0783C24.3076 11.6745 23.5895 9.97727 23.5895 8.1977ZM4.85422 8.72726C4.85422 7.27795 5.50298 5.90144 6.69105 4.8077C7.87912 5.90122 8.52788 7.27795 8.52788 8.72726C8.52788 9.92511 8.0842 11.0735 7.25923 12.0536V8.27272C7.25923 7.95888 7.00488 7.70454 6.69105 7.70454C6.37744 7.70454 6.12286 7.95888 6.12286 8.27272V12.0536C5.2979 11.0735 4.85422 9.92511 4.85422 8.72726ZM20.5145 13.14H15.6206L13.5685 11.0757H18.4624L20.5145 13.14ZM12.2024 11.3134L14.0184 13.14H10.3867L12.2024 11.3134ZM9.58878 14.2764H14.816V17.8896C14.5526 17.7685 14.2876 17.6512 14.0206 17.5388V15.6304C14.0206 15.3168 13.7662 15.0623 13.4524 15.0623H10.9524C10.6388 15.0623 10.3842 15.3168 10.3842 15.6304V16.3061C10.1201 16.2373 9.85511 16.172 9.58878 16.1112V14.2764ZM12.8842 17.0904C12.4337 16.9244 11.9791 16.7704 11.5206 16.629V16.1986H12.8842V17.0904ZM15.9524 18.4456V14.2764H21.3124V17.476C20.3392 17.8792 19.3881 18.3395 18.4662 18.8571C18.1715 19.0224 17.8803 19.1942 17.5924 19.3705C17.0553 19.0424 16.5084 18.7339 15.9524 18.4456Z" fill="black"/>
<path d="M26.2021 7.13636C26.3515 7.13636 26.4981 7.07555 26.6037 6.96969C26.7094 6.86403 26.7702 6.71756 26.7702 6.56817C26.7702 6.41859 26.7096 6.2721 26.6037 6.16646C26.4981 6.0606 26.3515 6 26.2021 6C26.0527 6 25.9059 6.0606 25.8005 6.16646C25.6946 6.2721 25.6338 6.41859 25.6338 6.56817C25.6338 6.71756 25.6946 6.86403 25.8005 6.96969C25.9059 7.07533 26.0527 7.13636 26.2021 7.13636Z" fill="black"/>
<path d="M21.2689 22.2084C21.1636 22.314 21.1025 22.4605 21.1025 22.6099C21.1025 22.76 21.1633 22.906 21.2689 23.0116C21.3748 23.1175 21.5213 23.178 21.6707 23.178C21.8204 23.178 21.9668 23.1175 22.0724 23.0116C22.178 22.906 22.239 22.76 22.239 22.6099C22.239 22.4605 22.178 22.314 22.0724 22.2084C21.9668 22.1025 21.8204 22.0417 21.6707 22.0417C21.5213 22.0417 21.3748 22.1025 21.2689 22.2084Z" fill="black"/>
</mask>
<g mask="url(#mask0_6111_2700)">
<path d="M31.5771 24.2358C26.832 24.2358 22.1745 26.1823 18.7992 29.5761C18.5777 29.7986 18.5789 30.1585 18.8013 30.3796C18.9123 30.4898 19.0568 30.5448 19.202 30.5448C19.3479 30.5448 19.4936 30.4891 19.6049 30.3775C22.7686 27.1966 27.1322 25.3721 31.5771 25.3721C31.8909 25.3721 32.1453 25.1179 32.1453 24.804C32.1453 24.4904 31.8909 24.2358 31.5771 24.2358Z" stroke="#8347FF" stroke-width="0.290909"/>
</g>
<mask id="mask1_6111_2700" style="mask-type:luminance" maskUnits="userSpaceOnUse" x="1" y="0" width="33" height="32">
<path d="M33.5996 0H1.59961V32H33.5996V0Z" fill="white"/>
<path d="M31.5771 24.2358C26.832 24.2358 22.1745 26.1823 18.7992 29.5761C18.5777 29.7986 18.5789 30.1585 18.8013 30.3795C18.9123 30.4898 19.0568 30.5448 19.202 30.5448C19.3479 30.5448 19.4936 30.4891 19.6049 30.3775C22.7686 27.1966 27.1322 25.3721 31.5771 25.3721C31.8909 25.3721 32.1453 25.1179 32.1453 24.804C32.1453 24.4904 31.8909 24.2358 31.5771 24.2358Z" fill="black"/>
<path d="M19.7276 23.7097C19.5518 23.4496 19.1987 23.3812 18.9387 23.5569C16.5091 25.1981 14.4573 27.2515 12.8397 29.6601C12.6648 29.9206 12.7341 30.2737 12.9946 30.4486C13.0921 30.5139 13.2019 30.5452 13.3109 30.5452C13.4938 30.5452 13.6736 30.4569 13.7832 30.2937C15.3186 28.007 17.267 26.0572 19.5748 24.4985C19.8347 24.3229 19.9031 23.9697 19.7276 23.7097Z" fill="black"/>
<path d="M31.5761 19.6616C29.0359 19.6616 26.5217 20.0957 24.1034 20.9514C23.8075 21.0559 23.6526 21.3806 23.7573 21.6765C23.8398 21.9098 24.059 22.0554 24.2929 22.0554C24.3557 22.0554 24.4197 22.0447 24.4826 22.0225C26.7787 21.21 29.1653 20.7981 31.5761 20.7981C31.89 20.7981 32.1442 20.5437 32.1442 20.2299C32.1442 19.916 31.89 19.6616 31.5761 19.6616Z" fill="black"/>
<path d="M11.1954 26.6464C14.9335 21.7728 20.3444 18.3888 26.3153 17.1206L26.3184 17.1199C28.0343 16.7557 29.7958 16.566 31.5774 16.566C31.891 16.566 32.1456 16.3113 32.1456 15.9977C32.1456 15.684 31.891 15.4296 31.5774 15.4296C29.9619 15.4296 28.3526 15.5774 26.7705 15.8667V14.6402C28.8241 12.9016 29.9514 10.6236 29.9514 8.1977C29.9514 5.68949 28.7465 3.3393 26.5583 1.57993C26.3504 1.41281 26.0541 1.41281 25.8461 1.57993C23.6582 3.3393 22.4529 5.68949 22.4529 8.1977C22.4529 10.6236 23.5805 12.9016 25.6339 14.6402V16.099C24.5543 16.3446 23.4903 16.6578 22.4486 17.035V13.7082C22.4486 13.5519 22.3855 13.4105 22.2835 13.3078L19.1017 10.1069C18.9949 9.99968 18.8499 9.93931 18.6986 9.93931H12.2024C12.0513 9.93931 11.9061 9.99968 11.7996 10.1069L8.61776 13.3076C8.51566 13.4103 8.45242 13.5519 8.45242 13.7084V15.8782C8.05646 15.8056 7.65873 15.7416 7.25923 15.687V13.6616C8.81219 12.3257 9.66424 10.5834 9.66424 8.72726C9.66424 6.78812 8.73473 4.97305 7.04705 3.61584C6.83909 3.44872 6.54301 3.44872 6.33505 3.61584C4.64737 4.97282 3.71786 6.78812 3.71786 8.72726C3.71786 10.5832 4.56992 12.3255 6.12286 13.6613V15.5563C5.29434 15.4789 4.46027 15.4389 3.62286 15.4389C3.30904 15.4389 3.05469 15.6933 3.05469 16.007C3.05469 16.3209 3.30904 16.5753 3.62286 16.5753C8.16611 16.5753 12.6099 17.7774 16.5274 20.0578C15.5889 20.6958 14.6924 21.3923 13.8437 22.1423C10.6697 20.5253 7.14293 19.6719 3.62286 19.6719C3.30926 19.6719 3.05469 19.9262 3.05469 20.24C3.05469 20.5539 3.30926 20.8082 3.62286 20.8082C6.82577 20.8082 10.0351 21.5531 12.9508 22.9676C12.087 23.8031 11.2796 24.6972 10.5345 25.6422C8.32435 24.7154 6.00147 24.2457 3.62286 24.2457C3.30926 24.2457 3.05469 24.5001 3.05469 24.8139C3.05469 25.1278 3.30926 25.3822 3.62286 25.3822C5.75355 25.3822 7.83674 25.7861 9.8267 26.5814C9.43408 27.127 9.06099 27.6875 8.71009 28.2627L7.84429 29.6812C7.68071 29.9488 7.76549 30.2987 8.03316 30.462C8.12571 30.5186 8.22781 30.5455 8.32878 30.5455C8.52011 30.5455 8.70721 30.4485 8.81418 30.2731L9.68 28.8546C10.1314 28.115 10.6193 27.4031 11.1393 26.7198C11.1597 26.6971 11.1788 26.6729 11.1954 26.6464ZM23.5895 8.1977C23.5895 6.17821 24.5136 4.26525 26.2023 2.76624C27.891 4.26525 28.8151 6.17821 28.8151 8.1977C28.8151 9.97727 28.0969 11.6745 26.7705 13.0783V8.72726C26.7705 8.41343 26.5162 8.15909 26.2023 8.15909C25.8884 8.15909 25.6342 8.41343 25.6342 8.72726V13.0783C24.3076 11.6745 23.5895 9.97727 23.5895 8.1977ZM4.85422 8.72726C4.85422 7.27795 5.50298 5.90144 6.69105 4.8077C7.87912 5.90122 8.52788 7.27795 8.52788 8.72726C8.52788 9.92511 8.0842 11.0735 7.25923 12.0536V8.27272C7.25923 7.95888 7.00488 7.70454 6.69105 7.70454C6.37744 7.70454 6.12286 7.95888 6.12286 8.27272V12.0536C5.2979 11.0735 4.85422 9.92511 4.85422 8.72726ZM20.5145 13.14H15.6206L13.5685 11.0757H18.4624L20.5145 13.14ZM12.2024 11.3134L14.0184 13.14H10.3867L12.2024 11.3134ZM9.58878 14.2764H14.816V17.8896C14.5526 17.7685 14.2876 17.6512 14.0206 17.5388V15.6304C14.0206 15.3168 13.7662 15.0623 13.4524 15.0623H10.9524C10.6388 15.0623 10.3842 15.3168 10.3842 15.6304V16.3061C10.1201 16.2373 9.85511 16.172 9.58878 16.1112V14.2764ZM12.8842 17.0904C12.4337 16.9244 11.9791 16.7704 11.5206 16.629V16.1986H12.8842V17.0904ZM15.9524 18.4456V14.2764H21.3124V17.476C20.3392 17.8792 19.3881 18.3395 18.4662 18.8571C18.1715 19.0224 17.8803 19.1942 17.5924 19.3705C17.0553 19.0424 16.5084 18.7339 15.9524 18.4456Z" fill="black"/>
<path d="M26.2021 7.13636C26.3515 7.13636 26.4981 7.07555 26.6037 6.96969C26.7094 6.86403 26.7702 6.71756 26.7702 6.56817C26.7702 6.41859 26.7096 6.2721 26.6037 6.16646C26.4981 6.0606 26.3515 6 26.2021 6C26.0527 6 25.9059 6.0606 25.8005 6.16646C25.6946 6.2721 25.6338 6.41859 25.6338 6.56817C25.6338 6.71756 25.6946 6.86403 25.8005 6.96969C25.9059 7.07533 26.0527 7.13636 26.2021 7.13636Z" fill="black"/>
<path d="M21.2689 22.2084C21.1636 22.314 21.1025 22.4605 21.1025 22.6099C21.1025 22.76 21.1633 22.906 21.2689 23.0116C21.3748 23.1175 21.5213 23.178 21.6707 23.178C21.8204 23.178 21.9668 23.1175 22.0724 23.0116C22.178 22.906 22.239 22.76 22.239 22.6099C22.239 22.4605 22.178 22.314 22.0724 22.2084C21.9668 22.1025 21.8204 22.0417 21.6707 22.0417C21.5213 22.0417 21.3748 22.1025 21.2689 22.2084Z" fill="black"/>
</mask>
<g mask="url(#mask1_6111_2700)">
<path d="M19.7276 23.7097C19.5518 23.4496 19.1987 23.3812 18.9388 23.5569C16.5091 25.1981 14.4573 27.2515 12.8397 29.6601C12.6648 29.9206 12.7341 30.2737 12.9946 30.4486C13.0921 30.5139 13.2019 30.5452 13.3109 30.5452C13.4938 30.5452 13.6736 30.4569 13.7832 30.2937C15.3186 28.007 17.267 26.0572 19.5748 24.4985C19.8347 24.3229 19.9031 23.9697 19.7276 23.7097Z" stroke="#8347FF" stroke-width="0.290909"/>
</g>
<mask id="mask2_6111_2700" style="mask-type:luminance" maskUnits="userSpaceOnUse" x="1" y="0" width="33" height="32">
<path d="M33.5996 0H1.59961V32H33.5996V0Z" fill="white"/>
<path d="M31.5771 24.2358C26.832 24.2358 22.1745 26.1823 18.7992 29.5761C18.5777 29.7986 18.5789 30.1585 18.8013 30.3795C18.9123 30.4898 19.0568 30.5448 19.202 30.5448C19.3479 30.5448 19.4936 30.4891 19.6049 30.3775C22.7686 27.1966 27.1322 25.3721 31.5771 25.3721C31.8909 25.3721 32.1453 25.1179 32.1453 24.804C32.1453 24.4904 31.8909 24.2358 31.5771 24.2358Z" fill="black"/>
<path d="M19.7276 23.7097C19.5518 23.4496 19.1987 23.3812 18.9387 23.5569C16.5091 25.1981 14.4573 27.2515 12.8397 29.6601C12.6648 29.9206 12.7341 30.2737 12.9946 30.4486C13.0921 30.5139 13.2019 30.5452 13.3109 30.5452C13.4938 30.5452 13.6736 30.4569 13.7832 30.2937C15.3186 28.007 17.267 26.0572 19.5748 24.4985C19.8347 24.3229 19.9031 23.9697 19.7276 23.7097Z" fill="black"/>
<path d="M31.5761 19.6616C29.0359 19.6616 26.5217 20.0957 24.1034 20.9514C23.8075 21.0559 23.6526 21.3806 23.7573 21.6765C23.8398 21.9098 24.059 22.0554 24.2929 22.0554C24.3557 22.0554 24.4197 22.0447 24.4826 22.0225C26.7787 21.21 29.1653 20.7981 31.5761 20.7981C31.89 20.7981 32.1442 20.5437 32.1442 20.2299C32.1442 19.916 31.89 19.6616 31.5761 19.6616Z" fill="black"/>
<path d="M11.1954 26.6464C14.9335 21.7728 20.3444 18.3888 26.3153 17.1206L26.3184 17.1199C28.0343 16.7557 29.7958 16.566 31.5774 16.566C31.891 16.566 32.1456 16.3113 32.1456 15.9977C32.1456 15.684 31.891 15.4296 31.5774 15.4296C29.9619 15.4296 28.3526 15.5774 26.7705 15.8667V14.6402C28.8241 12.9016 29.9514 10.6236 29.9514 8.1977C29.9514 5.68949 28.7465 3.3393 26.5583 1.57993C26.3504 1.41281 26.0541 1.41281 25.8461 1.57993C23.6582 3.3393 22.4529 5.68949 22.4529 8.1977C22.4529 10.6236 23.5805 12.9016 25.6339 14.6402V16.099C24.5543 16.3446 23.4903 16.6578 22.4486 17.035V13.7082C22.4486 13.5519 22.3855 13.4105 22.2835 13.3078L19.1017 10.1069C18.9949 9.99968 18.8499 9.93931 18.6986 9.93931H12.2024C12.0513 9.93931 11.9061 9.99968 11.7996 10.1069L8.61776 13.3076C8.51566 13.4103 8.45242 13.5519 8.45242 13.7084V15.8782C8.05646 15.8056 7.65873 15.7416 7.25923 15.687V13.6616C8.81219 12.3257 9.66424 10.5834 9.66424 8.72726C9.66424 6.78812 8.73473 4.97305 7.04705 3.61584C6.83909 3.44872 6.54301 3.44872 6.33505 3.61584C4.64737 4.97282 3.71786 6.78812 3.71786 8.72726C3.71786 10.5832 4.56992 12.3255 6.12286 13.6613V15.5563C5.29434 15.4789 4.46027 15.4389 3.62286 15.4389C3.30904 15.4389 3.05469 15.6933 3.05469 16.007C3.05469 16.3209 3.30904 16.5753 3.62286 16.5753C8.16611 16.5753 12.6099 17.7774 16.5274 20.0578C15.5889 20.6958 14.6924 21.3923 13.8437 22.1423C10.6697 20.5253 7.14293 19.6719 3.62286 19.6719C3.30926 19.6719 3.05469 19.9262 3.05469 20.24C3.05469 20.5539 3.30926 20.8082 3.62286 20.8082C6.82577 20.8082 10.0351 21.5531 12.9508 22.9676C12.087 23.8031 11.2796 24.6972 10.5345 25.6422C8.32435 24.7154 6.00147 24.2457 3.62286 24.2457C3.30926 24.2457 3.05469 24.5001 3.05469 24.8139C3.05469 25.1278 3.30926 25.3822 3.62286 25.3822C5.75355 25.3822 7.83674 25.7861 9.8267 26.5814C9.43408 27.127 9.06099 27.6875 8.71009 28.2627L7.84429 29.6812C7.68071 29.9488 7.76549 30.2987 8.03316 30.462C8.12571 30.5186 8.22781 30.5455 8.32878 30.5455C8.52011 30.5455 8.70721 30.4485 8.81418 30.2731L9.68 28.8546C10.1314 28.115 10.6193 27.4031 11.1393 26.7198C11.1597 26.6971 11.1788 26.6729 11.1954 26.6464ZM23.5895 8.1977C23.5895 6.17821 24.5136 4.26525 26.2023 2.76624C27.891 4.26525 28.8151 6.17821 28.8151 8.1977C28.8151 9.97727 28.0969 11.6745 26.7705 13.0783V8.72726C26.7705 8.41343 26.5162 8.15909 26.2023 8.15909C25.8884 8.15909 25.6342 8.41343 25.6342 8.72726V13.0783C24.3076 11.6745 23.5895 9.97727 23.5895 8.1977ZM4.85422 8.72726C4.85422 7.27795 5.50298 5.90144 6.69105 4.8077C7.87912 5.90122 8.52788 7.27795 8.52788 8.72726C8.52788 9.92511 8.0842 11.0735 7.25923 12.0536V8.27272C7.25923 7.95888 7.00488 7.70454 6.69105 7.70454C6.37744 7.70454 6.12286 7.95888 6.12286 8.27272V12.0536C5.2979 11.0735 4.85422 9.92511 4.85422 8.72726ZM20.5145 13.14H15.6206L13.5685 11.0757H18.4624L20.5145 13.14ZM12.2024 11.3134L14.0184 13.14H10.3867L12.2024 11.3134ZM9.58878 14.2764H14.816V17.8896C14.5526 17.7685 14.2876 17.6512 14.0206 17.5388V15.6304C14.0206 15.3168 13.7662 15.0623 13.4524 15.0623H10.9524C10.6388 15.0623 10.3842 15.3168 10.3842 15.6304V16.3061C10.1201 16.2373 9.85511 16.172 9.58878 16.1112V14.2764ZM12.8842 17.0904C12.4337 16.9244 11.9791 16.7704 11.5206 16.629V16.1986H12.8842V17.0904ZM15.9524 18.4456V14.2764H21.3124V17.476C20.3392 17.8792 19.3881 18.3395 18.4662 18.8571C18.1715 19.0224 17.8803 19.1942 17.5924 19.3705C17.0553 19.0424 16.5084 18.7339 15.9524 18.4456Z" fill="black"/>
<path d="M26.2021 7.13636C26.3515 7.13636 26.4981 7.07555 26.6037 6.96969C26.7094 6.86403 26.7702 6.71756 26.7702 6.56817C26.7702 6.41859 26.7096 6.2721 26.6037 6.16646C26.4981 6.0606 26.3515 6 26.2021 6C26.0527 6 25.9059 6.0606 25.8005 6.16646C25.6946 6.2721 25.6338 6.41859 25.6338 6.56817C25.6338 6.71756 25.6946 6.86403 25.8005 6.96969C25.9059 7.07533 26.0527 7.13636 26.2021 7.13636Z" fill="black"/>
<path d="M21.2689 22.2084C21.1636 22.314 21.1025 22.4605 21.1025 22.6099C21.1025 22.76 21.1633 22.906 21.2689 23.0116C21.3748 23.1175 21.5213 23.178 21.6707 23.178C21.8204 23.178 21.9668 23.1175 22.0724 23.0116C22.178 22.906 22.239 22.76 22.239 22.6099C22.239 22.4605 22.178 22.314 22.0724 22.2084C21.9668 22.1025 21.8204 22.0417 21.6707 22.0417C21.5213 22.0417 21.3748 22.1025 21.2689 22.2084Z" fill="black"/>
</mask>
<g mask="url(#mask2_6111_2700)">
<path d="M31.5761 19.6616C29.0359 19.6616 26.5217 20.0957 24.1034 20.9514C23.8075 21.0559 23.6526 21.3806 23.7573 21.6765C23.8398 21.9098 24.059 22.0554 24.2929 22.0554C24.3557 22.0554 24.4197 22.0447 24.4826 22.0225C26.7787 21.21 29.1653 20.7981 31.5761 20.7981C31.89 20.7981 32.1442 20.5437 32.1442 20.2299C32.1442 19.916 31.89 19.6616 31.5761 19.6616Z" stroke="#8347FF" stroke-width="0.290909"/>
</g>
<mask id="mask3_6111_2700" style="mask-type:luminance" maskUnits="userSpaceOnUse" x="1" y="0" width="33" height="32">
<path d="M33.5996 0H1.59961V32H33.5996V0Z" fill="white"/>
<path d="M31.5771 24.2358C26.832 24.2358 22.1745 26.1823 18.7992 29.5761C18.5777 29.7986 18.5789 30.1585 18.8013 30.3795C18.9123 30.4898 19.0568 30.5448 19.202 30.5448C19.3479 30.5448 19.4936 30.4891 19.6049 30.3775C22.7686 27.1966 27.1322 25.3721 31.5771 25.3721C31.8909 25.3721 32.1453 25.1179 32.1453 24.804C32.1453 24.4904 31.8909 24.2358 31.5771 24.2358Z" fill="black"/>
<path d="M19.7276 23.7097C19.5518 23.4496 19.1987 23.3812 18.9387 23.5569C16.5091 25.1981 14.4573 27.2515 12.8397 29.6601C12.6648 29.9206 12.7341 30.2737 12.9946 30.4486C13.0921 30.5139 13.2019 30.5452 13.3109 30.5452C13.4938 30.5452 13.6736 30.4569 13.7832 30.2937C15.3186 28.007 17.267 26.0572 19.5748 24.4985C19.8347 24.3229 19.9031 23.9697 19.7276 23.7097Z" fill="black"/>
<path d="M31.5761 19.6616C29.0359 19.6616 26.5217 20.0957 24.1034 20.9514C23.8075 21.0559 23.6526 21.3806 23.7573 21.6765C23.8398 21.9098 24.059 22.0554 24.2929 22.0554C24.3557 22.0554 24.4197 22.0447 24.4826 22.0225C26.7787 21.21 29.1653 20.7981 31.5761 20.7981C31.89 20.7981 32.1442 20.5437 32.1442 20.2299C32.1442 19.916 31.89 19.6616 31.5761 19.6616Z" fill="black"/>
<path d="M11.1954 26.6464C14.9335 21.7728 20.3444 18.3888 26.3153 17.1206L26.3184 17.1199C28.0343 16.7557 29.7958 16.566 31.5774 16.566C31.891 16.566 32.1456 16.3113 32.1456 15.9977C32.1456 15.684 31.891 15.4296 31.5774 15.4296C29.9619 15.4296 28.3526 15.5774 26.7705 15.8667V14.6402C28.8241 12.9016 29.9514 10.6236 29.9514 8.1977C29.9514 5.68949 28.7465 3.3393 26.5583 1.57993C26.3504 1.41281 26.0541 1.41281 25.8461 1.57993C23.6582 3.3393 22.4529 5.68949 22.4529 8.1977C22.4529 10.6236 23.5805 12.9016 25.6339 14.6402V16.099C24.5543 16.3446 23.4903 16.6578 22.4486 17.035V13.7082C22.4486 13.5519 22.3855 13.4105 22.2835 13.3078L19.1017 10.1069C18.9949 9.99968 18.8499 9.93931 18.6986 9.93931H12.2024C12.0513 9.93931 11.9061 9.99968 11.7996 10.1069L8.61776 13.3076C8.51566 13.4103 8.45242 13.5519 8.45242 13.7084V15.8782C8.05646 15.8056 7.65873 15.7416 7.25923 15.687V13.6616C8.81219 12.3257 9.66424 10.5834 9.66424 8.72726C9.66424 6.78812 8.73473 4.97305 7.04705 3.61584C6.83909 3.44872 6.54301 3.44872 6.33505 3.61584C4.64737 4.97282 3.71786 6.78812 3.71786 8.72726C3.71786 10.5832 4.56992 12.3255 6.12286 13.6613V15.5563C5.29434 15.4789 4.46027 15.4389 3.62286 15.4389C3.30904 15.4389 3.05469 15.6933 3.05469 16.007C3.05469 16.3209 3.30904 16.5753 3.62286 16.5753C8.16611 16.5753 12.6099 17.7774 16.5274 20.0578C15.5889 20.6958 14.6924 21.3923 13.8437 22.1423C10.6697 20.5253 7.14293 19.6719 3.62286 19.6719C3.30926 19.6719 3.05469 19.9262 3.05469 20.24C3.05469 20.5539 3.30926 20.8082 3.62286 20.8082C6.82577 20.8082 10.0351 21.5531 12.9508 22.9676C12.087 23.8031 11.2796 24.6972 10.5345 25.6422C8.32435 24.7154 6.00147 24.2457 3.62286 24.2457C3.30926 24.2457 3.05469 24.5001 3.05469 24.8139C3.05469 25.1278 3.30926 25.3822 3.62286 25.3822C5.75355 25.3822 7.83674 25.7861 9.8267 26.5814C9.43408 27.127 9.06099 27.6875 8.71009 28.2627L7.84429 29.6812C7.68071 29.9488 7.76549 30.2987 8.03316 30.462C8.12571 30.5186 8.22781 30.5455 8.32878 30.5455C8.52011 30.5455 8.70721 30.4485 8.81418 30.2731L9.68 28.8546C10.1314 28.115 10.6193 27.4031 11.1393 26.7198C11.1597 26.6971 11.1788 26.6729 11.1954 26.6464ZM23.5895 8.1977C23.5895 6.17821 24.5136 4.26525 26.2023 2.76624C27.891 4.26525 28.8151 6.17821 28.8151 8.1977C28.8151 9.97727 28.0969 11.6745 26.7705 13.0783V8.72726C26.7705 8.41343 26.5162 8.15909 26.2023 8.15909C25.8884 8.15909 25.6342 8.41343 25.6342 8.72726V13.0783C24.3076 11.6745 23.5895 9.97727 23.5895 8.1977ZM4.85422 8.72726C4.85422 7.27795 5.50298 5.90144 6.69105 4.8077C7.87912 5.90122 8.52788 7.27795 8.52788 8.72726C8.52788 9.92511 8.0842 11.0735 7.25923 12.0536V8.27272C7.25923 7.95888 7.00488 7.70454 6.69105 7.70454C6.37744 7.70454 6.12286 7.95888 6.12286 8.27272V12.0536C5.2979 11.0735 4.85422 9.92511 4.85422 8.72726ZM20.5145 13.14H15.6206L13.5685 11.0757H18.4624L20.5145 13.14ZM12.2024 11.3134L14.0184 13.14H10.3867L12.2024 11.3134ZM9.58878 14.2764H14.816V17.8896C14.5526 17.7685 14.2876 17.6512 14.0206 17.5388V15.6304C14.0206 15.3168 13.7662 15.0623 13.4524 15.0623H10.9524C10.6388 15.0623 10.3842 15.3168 10.3842 15.6304V16.3061C10.1201 16.2373 9.85511 16.172 9.58878 16.1112V14.2764ZM12.8842 17.0904C12.4337 16.9244 11.9791 16.7704 11.5206 16.629V16.1986H12.8842V17.0904ZM15.9524 18.4456V14.2764H21.3124V17.476C20.3392 17.8792 19.3881 18.3395 18.4662 18.8571C18.1715 19.0224 17.8803 19.1942 17.5924 19.3705C17.0553 19.0424 16.5084 18.7339 15.9524 18.4456Z" fill="black"/>
<path d="M26.2021 7.13636C26.3515 7.13636 26.4981 7.07555 26.6037 6.96969C26.7094 6.86403 26.7702 6.71756 26.7702 6.56817C26.7702 6.41859 26.7096 6.2721 26.6037 6.16646C26.4981 6.0606 26.3515 6 26.2021 6C26.0527 6 25.9059 6.0606 25.8005 6.16646C25.6946 6.2721 25.6338 6.41859 25.6338 6.56817C25.6338 6.71756 25.6946 6.86403 25.8005 6.96969C25.9059 7.07533 26.0527 7.13636 26.2021 7.13636Z" fill="black"/>
<path d="M21.2689 22.2084C21.1636 22.314 21.1025 22.4605 21.1025 22.6099C21.1025 22.76 21.1633 22.906 21.2689 23.0116C21.3748 23.1175 21.5213 23.178 21.6707 23.178C21.8204 23.178 21.9668 23.1175 22.0724 23.0116C22.178 22.906 22.239 22.76 22.239 22.6099C22.239 22.4605 22.178 22.314 22.0724 22.2084C21.9668 22.1025 21.8204 22.0417 21.6707 22.0417C21.5213 22.0417 21.3748 22.1025 21.2689 22.2084Z" fill="black"/>
</mask>
<g mask="url(#mask3_6111_2700)">
<path d="M11.1954 26.6464C14.9335 21.7728 20.3444 18.3888 26.3153 17.1206L26.3184 17.1199C28.0343 16.7557 29.7958 16.566 31.5774 16.566C31.891 16.566 32.1456 16.3113 32.1456 15.9977C32.1456 15.684 31.891 15.4296 31.5774 15.4296C29.9619 15.4296 28.3526 15.5774 26.7705 15.8667V14.6402C28.8241 12.9016 29.9514 10.6236 29.9514 8.1977C29.9514 5.68949 28.7465 3.3393 26.5583 1.57993C26.3504 1.41281 26.0541 1.41281 25.8461 1.57993C23.6582 3.3393 22.4529 5.68949 22.4529 8.1977C22.4529 10.6236 23.5805 12.9016 25.6339 14.6402V16.099C24.5543 16.3446 23.4903 16.6578 22.4486 17.035V13.7082C22.4486 13.5519 22.3855 13.4105 22.2835 13.3078L19.1017 10.1069C18.9949 9.99968 18.8499 9.9393 18.6986 9.9393H12.2024C12.0513 9.9393 11.9061 9.99968 11.7996 10.1069L8.61776 13.3076C8.51566 13.4103 8.45242 13.5519 8.45242 13.7084V15.8782C8.05646 15.8056 7.65873 15.7416 7.25923 15.687V13.6616C8.81219 12.3257 9.66424 10.5834 9.66424 8.72726C9.66424 6.78812 8.73473 4.97305 7.04705 3.61584C6.83909 3.44872 6.54301 3.44872 6.33505 3.61584C4.64737 4.97282 3.71786 6.78812 3.71786 8.72726C3.71786 10.5832 4.56992 12.3255 6.12286 13.6613V15.5563C5.29434 15.4789 4.46027 15.4389 3.62286 15.4389C3.30904 15.4389 3.05469 15.6933 3.05469 16.007C3.05469 16.3209 3.30904 16.5753 3.62286 16.5753C8.16611 16.5753 12.6099 17.7774 16.5274 20.0578C15.5889 20.6958 14.6924 21.3923 13.8437 22.1423C10.6697 20.5253 7.14293 19.6719 3.62286 19.6719C3.30926 19.6719 3.05469 19.9262 3.05469 20.24C3.05469 20.5539 3.30926 20.8082 3.62286 20.8082C6.82577 20.8082 10.0351 21.5531 12.9508 22.9676C12.087 23.8031 11.2796 24.6972 10.5345 25.6422C8.32435 24.7154 6.00147 24.2457 3.62286 24.2457C3.30926 24.2457 3.05469 24.5001 3.05469 24.8139C3.05469 25.1278 3.30926 25.3822 3.62286 25.3822C5.75355 25.3822 7.83674 25.7861 9.8267 26.5814C9.43408 27.127 9.06099 27.6875 8.71009 28.2627L7.84429 29.6812C7.68071 29.9488 7.76549 30.2987 8.03316 30.462C8.12571 30.5186 8.22781 30.5455 8.32878 30.5455C8.52011 30.5455 8.70721 30.4485 8.81418 30.2731L9.68 28.8546C10.1314 28.115 10.6193 27.4031 11.1393 26.7198C11.1597 26.6971 11.1788 26.6729 11.1954 26.6464ZM23.5895 8.1977C23.5895 6.17821 24.5136 4.26525 26.2023 2.76624C27.891 4.26525 28.8151 6.17821 28.8151 8.1977C28.8151 9.97727 28.0969 11.6745 26.7705 13.0783V8.72726C26.7705 8.41343 26.5162 8.15909 26.2023 8.15909C25.8884 8.15909 25.6342 8.41343 25.6342 8.72726V13.0783C24.3076 11.6745 23.5895 9.97727 23.5895 8.1977ZM4.85422 8.72726C4.85422 7.27795 5.50298 5.90144 6.69105 4.8077C7.87912 5.90122 8.52788 7.27795 8.52788 8.72726C8.52788 9.92511 8.0842 11.0735 7.25923 12.0536V8.27272C7.25923 7.95888 7.00488 7.70454 6.69105 7.70454C6.37744 7.70454 6.12286 7.95888 6.12286 8.27272V12.0536C5.2979 11.0735 4.85422 9.92511 4.85422 8.72726ZM20.5145 13.14H15.6206L13.5685 11.0757H18.4624L20.5145 13.14ZM12.2024 11.3134L14.0184 13.14H10.3867L12.2024 11.3134ZM9.58878 14.2764H14.816V17.8896C14.5526 17.7685 14.2876 17.6512 14.0206 17.5388V15.6304C14.0206 15.3168 13.7662 15.0623 13.4524 15.0623H10.9524C10.6388 15.0623 10.3842 15.3168 10.3842 15.6304V16.3061C10.1201 16.2373 9.85511 16.172 9.58878 16.1112V14.2764ZM12.8842 17.0904C12.4337 16.9244 11.9791 16.7704 11.5206 16.629V16.1986H12.8842V17.0904ZM15.9524 18.4456V14.2764H21.3124V17.476C20.3392 17.8792 19.3881 18.3395 18.4662 18.8571C18.1715 19.0224 17.8803 19.1942 17.5924 19.3705C17.0553 19.0424 16.5084 18.7339 15.9524 18.4456Z" stroke="#8347FF" stroke-width="0.290909"/>
</g>
<mask id="mask4_6111_2700" style="mask-type:luminance" maskUnits="userSpaceOnUse" x="1" y="0" width="33" height="32">
<path d="M33.5996 0H1.59961V32H33.5996V0Z" fill="white"/>
<path d="M31.5771 24.2358C26.832 24.2358 22.1745 26.1823 18.7992 29.5761C18.5777 29.7986 18.5789 30.1585 18.8013 30.3795C18.9123 30.4898 19.0568 30.5448 19.202 30.5448C19.3479 30.5448 19.4936 30.4891 19.6049 30.3775C22.7686 27.1966 27.1322 25.3721 31.5771 25.3721C31.8909 25.3721 32.1453 25.1179 32.1453 24.804C32.1453 24.4904 31.8909 24.2358 31.5771 24.2358Z" fill="black"/>
<path d="M19.7276 23.7097C19.5518 23.4496 19.1987 23.3812 18.9387 23.5569C16.5091 25.1981 14.4573 27.2515 12.8397 29.6601C12.6648 29.9206 12.7341 30.2737 12.9946 30.4486C13.0921 30.5139 13.2019 30.5452 13.3109 30.5452C13.4938 30.5452 13.6736 30.4569 13.7832 30.2937C15.3186 28.007 17.267 26.0572 19.5748 24.4985C19.8347 24.3229 19.9031 23.9697 19.7276 23.7097Z" fill="black"/>
<path d="M31.5761 19.6616C29.0359 19.6616 26.5217 20.0957 24.1034 20.9514C23.8075 21.0559 23.6526 21.3806 23.7573 21.6765C23.8398 21.9098 24.059 22.0554 24.2929 22.0554C24.3557 22.0554 24.4197 22.0447 24.4826 22.0225C26.7787 21.21 29.1653 20.7981 31.5761 20.7981C31.89 20.7981 32.1442 20.5437 32.1442 20.2299C32.1442 19.916 31.89 19.6616 31.5761 19.6616Z" fill="black"/>
<path d="M11.1954 26.6464C14.9335 21.7728 20.3444 18.3888 26.3153 17.1206L26.3184 17.1199C28.0343 16.7557 29.7958 16.566 31.5774 16.566C31.891 16.566 32.1456 16.3113 32.1456 15.9977C32.1456 15.684 31.891 15.4296 31.5774 15.4296C29.9619 15.4296 28.3526 15.5774 26.7705 15.8667V14.6402C28.8241 12.9016 29.9514 10.6236 29.9514 8.1977C29.9514 5.68949 28.7465 3.3393 26.5583 1.57993C26.3504 1.41281 26.0541 1.41281 25.8461 1.57993C23.6582 3.3393 22.4529 5.68949 22.4529 8.1977C22.4529 10.6236 23.5805 12.9016 25.6339 14.6402V16.099C24.5543 16.3446 23.4903 16.6578 22.4486 17.035V13.7082C22.4486 13.5519 22.3855 13.4105 22.2835 13.3078L19.1017 10.1069C18.9949 9.99968 18.8499 9.93931 18.6986 9.93931H12.2024C12.0513 9.93931 11.9061 9.99968 11.7996 10.1069L8.61776 13.3076C8.51566 13.4103 8.45242 13.5519 8.45242 13.7084V15.8782C8.05646 15.8056 7.65873 15.7416 7.25923 15.687V13.6616C8.81219 12.3257 9.66424 10.5834 9.66424 8.72726C9.66424 6.78812 8.73473 4.97305 7.04705 3.61584C6.83909 3.44872 6.54301 3.44872 6.33505 3.61584C4.64737 4.97282 3.71786 6.78812 3.71786 8.72726C3.71786 10.5832 4.56992 12.3255 6.12286 13.6613V15.5563C5.29434 15.4789 4.46027 15.4389 3.62286 15.4389C3.30904 15.4389 3.05469 15.6933 3.05469 16.007C3.05469 16.3209 3.30904 16.5753 3.62286 16.5753C8.16611 16.5753 12.6099 17.7774 16.5274 20.0578C15.5889 20.6958 14.6924 21.3923 13.8437 22.1423C10.6697 20.5253 7.14293 19.6719 3.62286 19.6719C3.30926 19.6719 3.05469 19.9262 3.05469 20.24C3.05469 20.5539 3.30926 20.8082 3.62286 20.8082C6.82577 20.8082 10.0351 21.5531 12.9508 22.9676C12.087 23.8031 11.2796 24.6972 10.5345 25.6422C8.32435 24.7154 6.00147 24.2457 3.62286 24.2457C3.30926 24.2457 3.05469 24.5001 3.05469 24.8139C3.05469 25.1278 3.30926 25.3822 3.62286 25.3822C5.75355 25.3822 7.83674 25.7861 9.8267 26.5814C9.43408 27.127 9.06099 27.6875 8.71009 28.2627L7.84429 29.6812C7.68071 29.9488 7.76549 30.2987 8.03316 30.462C8.12571 30.5186 8.22781 30.5455 8.32878 30.5455C8.52011 30.5455 8.70721 30.4485 8.81418 30.2731L9.68 28.8546C10.1314 28.115 10.6193 27.4031 11.1393 26.7198C11.1597 26.6971 11.1788 26.6729 11.1954 26.6464ZM23.5895 8.1977C23.5895 6.17821 24.5136 4.26525 26.2023 2.76624C27.891 4.26525 28.8151 6.17821 28.8151 8.1977C28.8151 9.97727 28.0969 11.6745 26.7705 13.0783V8.72726C26.7705 8.41343 26.5162 8.15909 26.2023 8.15909C25.8884 8.15909 25.6342 8.41343 25.6342 8.72726V13.0783C24.3076 11.6745 23.5895 9.97727 23.5895 8.1977ZM4.85422 8.72726C4.85422 7.27795 5.50298 5.90144 6.69105 4.8077C7.87912 5.90122 8.52788 7.27795 8.52788 8.72726C8.52788 9.92511 8.0842 11.0735 7.25923 12.0536V8.27272C7.25923 7.95888 7.00488 7.70454 6.69105 7.70454C6.37744 7.70454 6.12286 7.95888 6.12286 8.27272V12.0536C5.2979 11.0735 4.85422 9.92511 4.85422 8.72726ZM20.5145 13.14H15.6206L13.5685 11.0757H18.4624L20.5145 13.14ZM12.2024 11.3134L14.0184 13.14H10.3867L12.2024 11.3134ZM9.58878 14.2764H14.816V17.8896C14.5526 17.7685 14.2876 17.6512 14.0206 17.5388V15.6304C14.0206 15.3168 13.7662 15.0623 13.4524 15.0623H10.9524C10.6388 15.0623 10.3842 15.3168 10.3842 15.6304V16.3061C10.1201 16.2373 9.85511 16.172 9.58878 16.1112V14.2764ZM12.8842 17.0904C12.4337 16.9244 11.9791 16.7704 11.5206 16.629V16.1986H12.8842V17.0904ZM15.9524 18.4456V14.2764H21.3124V17.476C20.3392 17.8792 19.3881 18.3395 18.4662 18.8571C18.1715 19.0224 17.8803 19.1942 17.5924 19.3705C17.0553 19.0424 16.5084 18.7339 15.9524 18.4456Z" fill="black"/>
<path d="M26.2021 7.13636C26.3515 7.13636 26.4981 7.07555 26.6037 6.96969C26.7094 6.86403 26.7702 6.71756 26.7702 6.56817C26.7702 6.41859 26.7096 6.2721 26.6037 6.16646C26.4981 6.0606 26.3515 6 26.2021 6C26.0527 6 25.9059 6.0606 25.8005 6.16646C25.6946 6.2721 25.6338 6.41859 25.6338 6.56817C25.6338 6.71756 25.6946 6.86403 25.8005 6.96969C25.9059 7.07533 26.0527 7.13636 26.2021 7.13636Z" fill="black"/>
<path d="M21.2689 22.2084C21.1636 22.314 21.1025 22.4605 21.1025 22.6099C21.1025 22.76 21.1633 22.906 21.2689 23.0116C21.3748 23.1175 21.5213 23.178 21.6707 23.178C21.8204 23.178 21.9668 23.1175 22.0724 23.0116C22.178 22.906 22.239 22.76 22.239 22.6099C22.239 22.4605 22.178 22.314 22.0724 22.2084C21.9668 22.1025 21.8204 22.0417 21.6707 22.0417C21.5213 22.0417 21.3748 22.1025 21.2689 22.2084Z" fill="black"/>
</mask>
<g mask="url(#mask4_6111_2700)">
<path d="M26.2021 7.13636C26.3515 7.13636 26.4981 7.07555 26.6037 6.96969C26.7094 6.86403 26.7702 6.71756 26.7702 6.56817C26.7702 6.41859 26.7096 6.2721 26.6037 6.16646C26.4981 6.0606 26.3515 6 26.2021 6C26.0527 6 25.9059 6.0606 25.8005 6.16646C25.6946 6.2721 25.6338 6.41859 25.6338 6.56817C25.6338 6.71756 25.6946 6.86403 25.8005 6.96969C25.9059 7.07533 26.0527 7.13636 26.2021 7.13636Z" stroke="#8347FF" stroke-width="0.290909"/>
</g>
<mask id="mask5_6111_2700" style="mask-type:luminance" maskUnits="userSpaceOnUse" x="1" y="0" width="33" height="32">
<path d="M33.5996 0H1.59961V32H33.5996V0Z" fill="white"/>
<path d="M31.5771 24.2358C26.832 24.2358 22.1745 26.1823 18.7992 29.5761C18.5777 29.7986 18.5789 30.1585 18.8013 30.3795C18.9123 30.4898 19.0568 30.5448 19.202 30.5448C19.3479 30.5448 19.4936 30.4891 19.6049 30.3775C22.7686 27.1966 27.1322 25.3721 31.5771 25.3721C31.8909 25.3721 32.1453 25.1179 32.1453 24.804C32.1453 24.4904 31.8909 24.2358 31.5771 24.2358Z" fill="black"/>
<path d="M19.7276 23.7097C19.5518 23.4496 19.1987 23.3812 18.9387 23.5569C16.5091 25.1981 14.4573 27.2515 12.8397 29.6601C12.6648 29.9206 12.7341 30.2737 12.9946 30.4486C13.0921 30.5139 13.2019 30.5452 13.3109 30.5452C13.4938 30.5452 13.6736 30.4569 13.7832 30.2937C15.3186 28.007 17.267 26.0572 19.5748 24.4985C19.8347 24.3229 19.9031 23.9697 19.7276 23.7097Z" fill="black"/>
<path d="M31.5761 19.6616C29.0359 19.6616 26.5217 20.0957 24.1034 20.9514C23.8075 21.0559 23.6526 21.3806 23.7573 21.6765C23.8398 21.9098 24.059 22.0554 24.2929 22.0554C24.3557 22.0554 24.4197 22.0447 24.4826 22.0225C26.7787 21.21 29.1653 20.7981 31.5761 20.7981C31.89 20.7981 32.1442 20.5437 32.1442 20.2299C32.1442 19.916 31.89 19.6616 31.5761 19.6616Z" fill="black"/>
<path d="M11.1954 26.6464C14.9335 21.7728 20.3444 18.3888 26.3153 17.1206L26.3184 17.1199C28.0343 16.7557 29.7958 16.566 31.5774 16.566C31.891 16.566 32.1456 16.3113 32.1456 15.9977C32.1456 15.684 31.891 15.4296 31.5774 15.4296C29.9619 15.4296 28.3526 15.5774 26.7705 15.8667V14.6402C28.8241 12.9016 29.9514 10.6236 29.9514 8.1977C29.9514 5.68949 28.7465 3.3393 26.5583 1.57993C26.3504 1.41281 26.0541 1.41281 25.8461 1.57993C23.6582 3.3393 22.4529 5.68949 22.4529 8.1977C22.4529 10.6236 23.5805 12.9016 25.6339 14.6402V16.099C24.5543 16.3446 23.4903 16.6578 22.4486 17.035V13.7082C22.4486 13.5519 22.3855 13.4105 22.2835 13.3078L19.1017 10.1069C18.9949 9.99968 18.8499 9.93931 18.6986 9.93931H12.2024C12.0513 9.93931 11.9061 9.99968 11.7996 10.1069L8.61776 13.3076C8.51566 13.4103 8.45242 13.5519 8.45242 13.7084V15.8782C8.05646 15.8056 7.65873 15.7416 7.25923 15.687V13.6616C8.81219 12.3257 9.66424 10.5834 9.66424 8.72726C9.66424 6.78812 8.73473 4.97305 7.04705 3.61584C6.83909 3.44872 6.54301 3.44872 6.33505 3.61584C4.64737 4.97282 3.71786 6.78812 3.71786 8.72726C3.71786 10.5832 4.56992 12.3255 6.12286 13.6613V15.5563C5.29434 15.4789 4.46027 15.4389 3.62286 15.4389C3.30904 15.4389 3.05469 15.6933 3.05469 16.007C3.05469 16.3209 3.30904 16.5753 3.62286 16.5753C8.16611 16.5753 12.6099 17.7774 16.5274 20.0578C15.5889 20.6958 14.6924 21.3923 13.8437 22.1423C10.6697 20.5253 7.14293 19.6719 3.62286 19.6719C3.30926 19.6719 3.05469 19.9262 3.05469 20.24C3.05469 20.5539 3.30926 20.8082 3.62286 20.8082C6.82577 20.8082 10.0351 21.5531 12.9508 22.9676C12.087 23.8031 11.2796 24.6972 10.5345 25.6422C8.32435 24.7154 6.00147 24.2457 3.62286 24.2457C3.30926 24.2457 3.05469 24.5001 3.05469 24.8139C3.05469 25.1278 3.30926 25.3822 3.62286 25.3822C5.75355 25.3822 7.83674 25.7861 9.8267 26.5814C9.43408 27.127 9.06099 27.6875 8.71009 28.2627L7.84429 29.6812C7.68071 29.9488 7.76549 30.2987 8.03316 30.462C8.12571 30.5186 8.22781 30.5455 8.32878 30.5455C8.52011 30.5455 8.70721 30.4485 8.81418 30.2731L9.68 28.8546C10.1314 28.115 10.6193 27.4031 11.1393 26.7198C11.1597 26.6971 11.1788 26.6729 11.1954 26.6464ZM23.5895 8.1977C23.5895 6.17821 24.5136 4.26525 26.2023 2.76624C27.891 4.26525 28.8151 6.17821 28.8151 8.1977C28.8151 9.97727 28.0969 11.6745 26.7705 13.0783V8.72726C26.7705 8.41343 26.5162 8.15909 26.2023 8.15909C25.8884 8.15909 25.6342 8.41343 25.6342 8.72726V13.0783C24.3076 11.6745 23.5895 9.97727 23.5895 8.1977ZM4.85422 8.72726C4.85422 7.27795 5.50298 5.90144 6.69105 4.8077C7.87912 5.90122 8.52788 7.27795 8.52788 8.72726C8.52788 9.92511 8.0842 11.0735 7.25923 12.0536V8.27272C7.25923 7.95888 7.00488 7.70454 6.69105 7.70454C6.37744 7.70454 6.12286 7.95888 6.12286 8.27272V12.0536C5.2979 11.0735 4.85422 9.92511 4.85422 8.72726ZM20.5145 13.14H15.6206L13.5685 11.0757H18.4624L20.5145 13.14ZM12.2024 11.3134L14.0184 13.14H10.3867L12.2024 11.3134ZM9.58878 14.2764H14.816V17.8896C14.5526 17.7685 14.2876 17.6512 14.0206 17.5388V15.6304C14.0206 15.3168 13.7662 15.0623 13.4524 15.0623H10.9524C10.6388 15.0623 10.3842 15.3168 10.3842 15.6304V16.3061C10.1201 16.2373 9.85511 16.172 9.58878 16.1112V14.2764ZM12.8842 17.0904C12.4337 16.9244 11.9791 16.7704 11.5206 16.629V16.1986H12.8842V17.0904ZM15.9524 18.4456V14.2764H21.3124V17.476C20.3392 17.8792 19.3881 18.3395 18.4662 18.8571C18.1715 19.0224 17.8803 19.1942 17.5924 19.3705C17.0553 19.0424 16.5084 18.7339 15.9524 18.4456Z" fill="black"/>
<path d="M26.2021 7.13636C26.3515 7.13636 26.4981 7.07555 26.6037 6.96969C26.7094 6.86403 26.7702 6.71756 26.7702 6.56817C26.7702 6.41859 26.7096 6.2721 26.6037 6.16646C26.4981 6.0606 26.3515 6 26.2021 6C26.0527 6 25.9059 6.0606 25.8005 6.16646C25.6946 6.2721 25.6338 6.41859 25.6338 6.56817C25.6338 6.71756 25.6946 6.86403 25.8005 6.96969C25.9059 7.07533 26.0527 7.13636 26.2021 7.13636Z" fill="black"/>
<path d="M21.2689 22.2084C21.1636 22.314 21.1025 22.4605 21.1025 22.6099C21.1025 22.76 21.1633 22.906 21.2689 23.0116C21.3748 23.1175 21.5213 23.178 21.6707 23.178C21.8204 23.178 21.9668 23.1175 22.0724 23.0116C22.178 22.906 22.239 22.76 22.239 22.6099C22.239 22.4605 22.178 22.314 22.0724 22.2084C21.9668 22.1025 21.8204 22.0417 21.6707 22.0417C21.5213 22.0417 21.3748 22.1025 21.2689 22.2084Z" fill="black"/>
</mask>
<g mask="url(#mask5_6111_2700)">
<path d="M21.2689 22.2084C21.1636 22.314 21.1025 22.4605 21.1025 22.6099C21.1025 22.76 21.1633 22.906 21.2689 23.0116C21.3748 23.1175 21.5213 23.178 21.6707 23.178C21.8204 23.178 21.9668 23.1175 22.0724 23.0116C22.178 22.906 22.239 22.76 22.239 22.6099C22.239 22.4605 22.178 22.314 22.0724 22.2084C21.9668 22.1025 21.8204 22.0417 21.6707 22.0417C21.5213 22.0417 21.3748 22.1025 21.2689 22.2084Z" stroke="#8347FF" stroke-width="0.290909"/>
</g>
</g>
<defs>
<clipPath id="clip0_6111_2700">
<rect width="32" height="32" fill="white"/>
</clipPath>
</defs>
</svg>
