<svg width="20" height="20" viewBox="0 0 20 20" fill="none" xmlns="http://www.w3.org/2000/svg">
<path fill-rule="evenodd" clip-rule="evenodd" d="M17 1.75C17.1036 1.75 17.1875 1.83395 17.1875 1.9375V3.8125H19.0625C19.1661 3.8125 19.25 3.89645 19.25 4C19.25 4.10355 19.1661 4.1875 19.0625 4.1875H17.1875V6.0625C17.1875 6.16605 17.1036 6.25 17 6.25C16.8964 6.25 16.8125 6.16605 16.8125 6.0625V4.1875H14.9375C14.8339 4.1875 14.75 4.10355 14.75 4C14.75 3.89645 14.8339 3.8125 14.9375 3.8125H16.8125V1.9375C16.8125 1.83395 16.8964 1.75 17 1.75Z" fill="#fff" stroke="#fff" stroke-width="0.3" stroke-linecap="round" stroke-linejoin="round"/>
<g clip-path="url(#clip0_6377_3205)">
<path d="M14.9883 14.1179C12.6157 14.1179 10.287 15.0912 8.59933 16.788C8.48857 16.8993 8.48915 17.0792 8.60035 17.1898C8.65584 17.2449 8.72813 17.2724 8.80071 17.2724C8.87366 17.2724 8.94653 17.2445 9.00217 17.1888C10.584 15.5983 12.7658 14.6861 14.9883 14.6861C15.1451 14.6861 15.2723 14.5589 15.2723 14.402C15.2723 14.2452 15.1451 14.1179 14.9883 14.1179Z" fill="#fff"/>
<path d="M9.06348 13.8548C8.97563 13.7248 8.79905 13.6906 8.66908 13.7785C7.45425 14.5991 6.42833 15.6257 5.61956 16.83C5.53211 16.9603 5.56674 17.1369 5.69702 17.2243C5.74574 17.2569 5.80067 17.2726 5.85515 17.2726C5.94659 17.2726 6.03649 17.2284 6.09131 17.1468C6.85902 16.0035 7.83323 15.0286 8.98712 14.2492C9.11708 14.1615 9.15126 13.9849 9.06348 13.8548Z" fill="#fff"/>
<path d="M14.9882 11.8308C13.7181 11.8308 12.461 12.0478 11.2519 12.4757C11.104 12.528 11.0265 12.6903 11.0789 12.8382C11.1201 12.9549 11.2297 13.0277 11.3466 13.0277C11.3781 13.0277 11.4101 13.0224 11.4415 13.0112C12.5896 12.605 13.7829 12.399 14.9882 12.399C15.1452 12.399 15.2723 12.2718 15.2723 12.115C15.2723 11.958 15.1452 11.8308 14.9882 11.8308Z" fill="#fff"/>
<path d="M4.79792 15.3232C6.66692 12.8864 9.37241 11.1944 12.3579 10.5603L12.3594 10.56C13.2174 10.3778 14.0981 10.283 14.9889 10.283C15.1457 10.283 15.273 10.1557 15.273 9.99886C15.273 9.84199 15.1457 9.71479 14.9889 9.71479C14.1811 9.71479 13.3765 9.78868 12.5854 9.93333V9.3201C13.6123 8.45081 14.1759 7.31178 14.1759 6.09885C14.1759 4.84474 13.5734 3.66965 12.4793 2.78996C12.3754 2.7064 12.2272 2.7064 12.1232 2.78996C11.0293 3.66965 10.4267 4.84474 10.4267 6.09885C10.4267 7.31178 10.9904 8.45081 12.0171 9.3201V10.0495C11.4774 10.1723 10.9454 10.3289 10.4245 10.5175V8.85409C10.4245 8.77597 10.3929 8.70527 10.3419 8.65389L8.75103 7.05344C8.69765 6.99984 8.62514 6.96965 8.5495 6.96965H5.3014C5.22583 6.96965 5.15326 6.99984 5.09998 7.05344L3.50907 8.65378C3.45803 8.70516 3.4264 8.77596 3.4264 8.8542V9.93908C3.22843 9.90279 3.02956 9.87079 2.82981 9.84351V8.83078C3.60629 8.16284 4.03232 7.2917 4.03232 6.36363C4.03232 5.39406 3.56756 4.48653 2.72372 3.80792C2.61974 3.72436 2.4717 3.72436 2.36772 3.80792C1.52388 4.48641 1.05912 5.39406 1.05912 6.36363C1.05912 7.29159 1.48515 8.16273 2.26163 8.83067V9.77813C1.84736 9.73944 1.43033 9.71944 1.01163 9.71944C0.854717 9.71944 0.727539 9.84664 0.727539 10.0035C0.727539 10.1605 0.854717 10.2877 1.01163 10.2877C3.28325 10.2877 5.50515 10.8887 7.4639 12.0289C6.99462 12.3479 6.5464 12.6962 6.12205 13.0712C4.53502 12.2626 2.77166 11.836 1.01163 11.836C0.854826 11.836 0.727539 11.9631 0.727539 12.12C0.727539 12.277 0.854826 12.4041 1.01163 12.4041C2.61308 12.4041 4.21775 12.7765 5.6756 13.4838C5.24369 13.9016 4.83998 14.3486 4.46744 14.8211C3.36237 14.3577 2.20093 14.1229 1.01163 14.1229C0.854826 14.1229 0.727539 14.2501 0.727539 14.4069C0.727539 14.5639 0.854826 14.6911 1.01163 14.6911C2.07697 14.6911 3.11856 14.893 4.11355 15.2907C3.91723 15.5635 3.73069 15.8437 3.55524 16.1314L3.12234 16.8406C3.04055 16.9744 3.08294 17.1493 3.21678 17.231C3.26305 17.2593 3.3141 17.2728 3.36459 17.2728C3.46025 17.2728 3.5538 17.2242 3.60728 17.1365L4.04019 16.4273C4.26591 16.0575 4.50983 15.7016 4.76984 15.3599C4.78005 15.3485 4.7896 15.3365 4.79792 15.3232ZM10.995 6.09885C10.995 5.08911 11.457 4.13263 12.3014 3.38312C13.1457 4.13263 13.6078 5.08911 13.6078 6.09885C13.6078 6.98863 13.2486 7.83725 12.5854 8.53914V6.36363C12.5854 6.20671 12.4583 6.07954 12.3014 6.07954C12.1444 6.07954 12.0173 6.20671 12.0173 6.36363V8.53914C11.354 7.83725 10.995 6.98863 10.995 6.09885ZM1.62731 6.36363C1.62731 5.63898 1.95168 4.95072 2.54572 4.40385C3.13976 4.95061 3.46414 5.63898 3.46414 6.36363C3.46414 6.96255 3.2423 7.53673 2.82981 8.02679V6.13636C2.82981 5.97944 2.70264 5.85227 2.54572 5.85227C2.38891 5.85227 2.26163 5.97944 2.26163 6.13636V8.02679C1.84915 7.53673 1.62731 6.96255 1.62731 6.36363ZM9.45743 8.56999H7.0105L5.98444 7.53783H8.43139L9.45743 8.56999ZM5.3014 7.65669L6.20938 8.56999H4.39353L5.3014 7.65669ZM3.99459 9.13818H6.60822V10.9448C6.47649 10.8842 6.34399 10.8256 6.21049 10.7694V9.81522C6.21049 9.65842 6.08331 9.53115 5.9264 9.53115H4.6764C4.5196 9.53115 4.39231 9.65842 4.39231 9.81522V10.153C4.26025 10.1186 4.12775 10.086 3.99459 10.0556V9.13818ZM5.64231 10.5452C5.41704 10.4622 5.18976 10.3852 4.96049 10.3145V10.0993H5.64231V10.5452ZM7.1764 11.2228V9.13818H9.85641V10.738C9.36979 10.9396 8.89423 11.1698 8.43328 11.4285C8.28594 11.5112 8.14034 11.5971 7.99641 11.6853C7.72783 11.5212 7.45437 11.3669 7.1764 11.2228Z" fill="#fff"/>
<path d="M12.3007 5.56818C12.3754 5.56818 12.4487 5.53777 12.5015 5.48484C12.5544 5.43201 12.5848 5.35878 12.5848 5.28409C12.5848 5.20929 12.5545 5.13605 12.5015 5.08323C12.4487 5.0303 12.3754 5 12.3007 5C12.2261 5 12.1527 5.0303 12.0999 5.08323C12.047 5.13605 12.0166 5.20929 12.0166 5.28409C12.0166 5.35878 12.047 5.43201 12.0999 5.48484C12.1527 5.53767 12.2261 5.56818 12.3007 5.56818Z" fill="#fff"/>
<path d="M9.83418 13.1043C9.78152 13.1571 9.75098 13.2304 9.75098 13.3051C9.75098 13.3801 9.78138 13.4531 9.83418 13.5059C9.88712 13.5589 9.96036 13.5891 10.035 13.5891C10.1099 13.5891 10.1831 13.5589 10.2359 13.5059C10.2887 13.4531 10.3192 13.3801 10.3192 13.3051C10.3192 13.2304 10.2887 13.1571 10.2359 13.1043C10.1831 13.0514 10.1099 13.021 10.035 13.021C9.96036 13.021 9.88712 13.0514 9.83418 13.1043Z" fill="#fff"/>
<mask id="mask0_6377_3205" style="mask-type:luminance" maskUnits="userSpaceOnUse" x="0" y="2" width="16" height="16">
<path d="M16 2H0V18H16V2Z" fill="#fff"/>
<path d="M14.9883 14.1179C12.6157 14.1179 10.287 15.0912 8.59933 16.788C8.48857 16.8993 8.48915 17.0792 8.60035 17.1898C8.65584 17.2449 8.72813 17.2724 8.80071 17.2724C8.87366 17.2724 8.94653 17.2445 9.00217 17.1888C10.584 15.5983 12.7658 14.6861 14.9883 14.6861C15.1451 14.6861 15.2723 14.5589 15.2723 14.402C15.2723 14.2452 15.1451 14.1179 14.9883 14.1179Z" fill="#fff"/>
<path d="M9.06348 13.8548C8.97563 13.7248 8.79905 13.6906 8.66908 13.7785C7.45425 14.5991 6.42833 15.6257 5.61956 16.83C5.53211 16.9603 5.56674 17.1369 5.69702 17.2243C5.74574 17.2569 5.80067 17.2726 5.85515 17.2726C5.94659 17.2726 6.03649 17.2284 6.09131 17.1468C6.85902 16.0035 7.83323 15.0286 8.98712 14.2492C9.11708 14.1615 9.15126 13.9849 9.06348 13.8548Z" fill="#fff"/>
<path d="M14.9882 11.8308C13.7181 11.8308 12.461 12.0478 11.2519 12.4757C11.104 12.528 11.0265 12.6903 11.0789 12.8382C11.1201 12.9549 11.2297 13.0277 11.3466 13.0277C11.3781 13.0277 11.4101 13.0224 11.4415 13.0112C12.5896 12.605 13.7829 12.399 14.9882 12.399C15.1452 12.399 15.2723 12.2718 15.2723 12.115C15.2723 11.958 15.1452 11.8308 14.9882 11.8308Z" fill="#fff"/>
<path d="M4.79792 15.3232C6.66692 12.8864 9.37241 11.1944 12.3579 10.5603L12.3594 10.56C13.2174 10.3778 14.0981 10.283 14.9889 10.283C15.1457 10.283 15.273 10.1557 15.273 9.99886C15.273 9.84199 15.1457 9.71479 14.9889 9.71479C14.1811 9.71479 13.3765 9.78868 12.5854 9.93333V9.3201C13.6123 8.45081 14.1759 7.31178 14.1759 6.09885C14.1759 4.84474 13.5734 3.66965 12.4793 2.78996C12.3754 2.7064 12.2272 2.7064 12.1232 2.78996C11.0293 3.66965 10.4267 4.84474 10.4267 6.09885C10.4267 7.31178 10.9904 8.45081 12.0171 9.3201V10.0495C11.4774 10.1723 10.9454 10.3289 10.4245 10.5175V8.85409C10.4245 8.77597 10.3929 8.70527 10.3419 8.65389L8.75103 7.05344C8.69765 6.99984 8.62514 6.96965 8.5495 6.96965H5.3014C5.22583 6.96965 5.15326 6.99984 5.09998 7.05344L3.50907 8.65378C3.45803 8.70516 3.4264 8.77596 3.4264 8.8542V9.93908C3.22843 9.90279 3.02956 9.87079 2.82981 9.84351V8.83078C3.60629 8.16284 4.03232 7.2917 4.03232 6.36363C4.03232 5.39406 3.56756 4.48653 2.72372 3.80792C2.61974 3.72436 2.4717 3.72436 2.36772 3.80792C1.52388 4.48641 1.05912 5.39406 1.05912 6.36363C1.05912 7.29159 1.48515 8.16273 2.26163 8.83067V9.77813C1.84736 9.73944 1.43033 9.71944 1.01163 9.71944C0.854717 9.71944 0.727539 9.84664 0.727539 10.0035C0.727539 10.1605 0.854717 10.2877 1.01163 10.2877C3.28325 10.2877 5.50515 10.8887 7.4639 12.0289C6.99462 12.3479 6.5464 12.6962 6.12205 13.0712C4.53502 12.2626 2.77166 11.836 1.01163 11.836C0.854826 11.836 0.727539 11.9631 0.727539 12.12C0.727539 12.277 0.854826 12.4041 1.01163 12.4041C2.61308 12.4041 4.21775 12.7765 5.6756 13.4838C5.24369 13.9016 4.83998 14.3486 4.46744 14.8211C3.36237 14.3577 2.20093 14.1229 1.01163 14.1229C0.854826 14.1229 0.727539 14.2501 0.727539 14.4069C0.727539 14.5639 0.854826 14.6911 1.01163 14.6911C2.07697 14.6911 3.11856 14.893 4.11355 15.2907C3.91723 15.5635 3.73069 15.8437 3.55524 16.1314L3.12234 16.8406C3.04055 16.9744 3.08294 17.1493 3.21678 17.231C3.26305 17.2593 3.3141 17.2728 3.36459 17.2728C3.46025 17.2728 3.5538 17.2242 3.60728 17.1365L4.04019 16.4273C4.26591 16.0575 4.50983 15.7016 4.76984 15.3599C4.78005 15.3485 4.7896 15.3365 4.79792 15.3232ZM10.995 6.09885C10.995 5.08911 11.457 4.13263 12.3014 3.38312C13.1457 4.13263 13.6078 5.08911 13.6078 6.09885C13.6078 6.98863 13.2486 7.83725 12.5854 8.53914V6.36363C12.5854 6.20671 12.4583 6.07954 12.3014 6.07954C12.1444 6.07954 12.0173 6.20671 12.0173 6.36363V8.53914C11.354 7.83725 10.995 6.98863 10.995 6.09885ZM1.62731 6.36363C1.62731 5.63898 1.95168 4.95072 2.54572 4.40385C3.13976 4.95061 3.46414 5.63898 3.46414 6.36363C3.46414 6.96255 3.2423 7.53673 2.82981 8.02679V6.13636C2.82981 5.97944 2.70264 5.85227 2.54572 5.85227C2.38891 5.85227 2.26163 5.97944 2.26163 6.13636V8.02679C1.84915 7.53673 1.62731 6.96255 1.62731 6.36363ZM9.45743 8.56999H7.0105L5.98444 7.53783H8.43139L9.45743 8.56999ZM5.3014 7.65669L6.20938 8.56999H4.39353L5.3014 7.65669ZM3.99459 9.13818H6.60822V10.9448C6.47649 10.8842 6.34399 10.8256 6.21049 10.7694V9.81522C6.21049 9.65842 6.08331 9.53115 5.9264 9.53115H4.6764C4.5196 9.53115 4.39231 9.65842 4.39231 9.81522V10.153C4.26025 10.1186 4.12775 10.086 3.99459 10.0556V9.13818ZM5.64231 10.5452C5.41704 10.4622 5.18976 10.3852 4.96049 10.3145V10.0993H5.64231V10.5452ZM7.1764 11.2228V9.13818H9.85641V10.738C9.36979 10.9396 8.89423 11.1698 8.43328 11.4285C8.28594 11.5112 8.14034 11.5971 7.99641 11.6853C7.72783 11.5212 7.45437 11.3669 7.1764 11.2228Z" fill="#fff"/>
<path d="M12.3007 5.56818C12.3754 5.56818 12.4487 5.53777 12.5015 5.48484C12.5544 5.43201 12.5848 5.35878 12.5848 5.28409C12.5848 5.20929 12.5545 5.13605 12.5015 5.08323C12.4487 5.0303 12.3754 5 12.3007 5C12.2261 5 12.1527 5.0303 12.0999 5.08323C12.047 5.13605 12.0166 5.20929 12.0166 5.28409C12.0166 5.35878 12.047 5.43201 12.0999 5.48484C12.1527 5.53767 12.2261 5.56818 12.3007 5.56818Z" fill="#fff"/>
<path d="M9.83418 13.1043C9.78152 13.1571 9.75098 13.2304 9.75098 13.3051C9.75098 13.3801 9.78138 13.4531 9.83418 13.5059C9.88712 13.5589 9.96036 13.5891 10.035 13.5891C10.1099 13.5891 10.1831 13.5589 10.2359 13.5059C10.2887 13.4531 10.3192 13.3801 10.3192 13.3051C10.3192 13.2304 10.2887 13.1571 10.2359 13.1043C10.1831 13.0514 10.1099 13.021 10.035 13.021C9.96036 13.021 9.88712 13.0514 9.83418 13.1043Z" fill="#fff"/>
</mask>
<g mask="url(#mask0_6377_3205)">
<path d="M14.9883 14.1179C12.6157 14.1179 10.287 15.0912 8.59933 16.788C8.48857 16.8993 8.48915 17.0792 8.60035 17.1898C8.65584 17.2449 8.72813 17.2724 8.80071 17.2724C8.87366 17.2724 8.94653 17.2445 9.00217 17.1888C10.584 15.5983 12.7658 14.6861 14.9883 14.6861C15.1451 14.6861 15.2723 14.5589 15.2723 14.402C15.2723 14.2452 15.1451 14.1179 14.9883 14.1179Z" stroke="#fff" stroke-width="0.181818"/>
</g>
<mask id="mask1_6377_3205" style="mask-type:luminance" maskUnits="userSpaceOnUse" x="0" y="2" width="16" height="16">
<path d="M16 2H0V18H16V2Z" fill="white"/>
<path d="M14.9883 14.1179C12.6157 14.1179 10.287 15.0912 8.59933 16.788C8.48857 16.8993 8.48915 17.0792 8.60035 17.1898C8.65584 17.2449 8.72813 17.2724 8.80071 17.2724C8.87366 17.2724 8.94653 17.2445 9.00217 17.1888C10.584 15.5983 12.7658 14.6861 14.9883 14.6861C15.1451 14.6861 15.2723 14.5589 15.2723 14.402C15.2723 14.2452 15.1451 14.1179 14.9883 14.1179Z" fill="#fff"/>
<path d="M9.06348 13.8548C8.97563 13.7248 8.79905 13.6906 8.66908 13.7785C7.45425 14.5991 6.42833 15.6257 5.61956 16.83C5.53211 16.9603 5.56674 17.1369 5.69702 17.2243C5.74574 17.2569 5.80067 17.2726 5.85515 17.2726C5.94659 17.2726 6.03649 17.2284 6.09131 17.1468C6.85902 16.0035 7.83323 15.0286 8.98712 14.2492C9.11708 14.1615 9.15126 13.9849 9.06348 13.8548Z" fill="#fff"/>
<path d="M14.9882 11.8308C13.7181 11.8308 12.461 12.0478 11.2519 12.4757C11.104 12.528 11.0265 12.6903 11.0789 12.8382C11.1201 12.9549 11.2297 13.0277 11.3466 13.0277C11.3781 13.0277 11.4101 13.0224 11.4415 13.0112C12.5896 12.605 13.7829 12.399 14.9882 12.399C15.1452 12.399 15.2723 12.2718 15.2723 12.115C15.2723 11.958 15.1452 11.8308 14.9882 11.8308Z" fill="#fff"/>
<path d="M4.79792 15.3232C6.66692 12.8864 9.37241 11.1944 12.3579 10.5603L12.3594 10.56C13.2174 10.3778 14.0981 10.283 14.9889 10.283C15.1457 10.283 15.273 10.1557 15.273 9.99886C15.273 9.84199 15.1457 9.71479 14.9889 9.71479C14.1811 9.71479 13.3765 9.78868 12.5854 9.93333V9.3201C13.6123 8.45081 14.1759 7.31178 14.1759 6.09885C14.1759 4.84474 13.5734 3.66965 12.4793 2.78996C12.3754 2.7064 12.2272 2.7064 12.1232 2.78996C11.0293 3.66965 10.4267 4.84474 10.4267 6.09885C10.4267 7.31178 10.9904 8.45081 12.0171 9.3201V10.0495C11.4774 10.1723 10.9454 10.3289 10.4245 10.5175V8.85409C10.4245 8.77597 10.3929 8.70527 10.3419 8.65389L8.75103 7.05344C8.69765 6.99984 8.62514 6.96965 8.5495 6.96965H5.3014C5.22583 6.96965 5.15326 6.99984 5.09998 7.05344L3.50907 8.65378C3.45803 8.70516 3.4264 8.77596 3.4264 8.8542V9.93908C3.22843 9.90279 3.02956 9.87079 2.82981 9.84351V8.83078C3.60629 8.16284 4.03232 7.2917 4.03232 6.36363C4.03232 5.39406 3.56756 4.48653 2.72372 3.80792C2.61974 3.72436 2.4717 3.72436 2.36772 3.80792C1.52388 4.48641 1.05912 5.39406 1.05912 6.36363C1.05912 7.29159 1.48515 8.16273 2.26163 8.83067V9.77813C1.84736 9.73944 1.43033 9.71944 1.01163 9.71944C0.854717 9.71944 0.727539 9.84664 0.727539 10.0035C0.727539 10.1605 0.854717 10.2877 1.01163 10.2877C3.28325 10.2877 5.50515 10.8887 7.4639 12.0289C6.99462 12.3479 6.5464 12.6962 6.12205 13.0712C4.53502 12.2626 2.77166 11.836 1.01163 11.836C0.854826 11.836 0.727539 11.9631 0.727539 12.12C0.727539 12.277 0.854826 12.4041 1.01163 12.4041C2.61308 12.4041 4.21775 12.7765 5.6756 13.4838C5.24369 13.9016 4.83998 14.3486 4.46744 14.8211C3.36237 14.3577 2.20093 14.1229 1.01163 14.1229C0.854826 14.1229 0.727539 14.2501 0.727539 14.4069C0.727539 14.5639 0.854826 14.6911 1.01163 14.6911C2.07697 14.6911 3.11856 14.893 4.11355 15.2907C3.91723 15.5635 3.73069 15.8437 3.55524 16.1314L3.12234 16.8406C3.04055 16.9744 3.08294 17.1493 3.21678 17.231C3.26305 17.2593 3.3141 17.2728 3.36459 17.2728C3.46025 17.2728 3.5538 17.2242 3.60728 17.1365L4.04019 16.4273C4.26591 16.0575 4.50983 15.7016 4.76984 15.3599C4.78005 15.3485 4.7896 15.3365 4.79792 15.3232ZM10.995 6.09885C10.995 5.08911 11.457 4.13263 12.3014 3.38312C13.1457 4.13263 13.6078 5.08911 13.6078 6.09885C13.6078 6.98863 13.2486 7.83725 12.5854 8.53914V6.36363C12.5854 6.20671 12.4583 6.07954 12.3014 6.07954C12.1444 6.07954 12.0173 6.20671 12.0173 6.36363V8.53914C11.354 7.83725 10.995 6.98863 10.995 6.09885ZM1.62731 6.36363C1.62731 5.63898 1.95168 4.95072 2.54572 4.40385C3.13976 4.95061 3.46414 5.63898 3.46414 6.36363C3.46414 6.96255 3.2423 7.53673 2.82981 8.02679V6.13636C2.82981 5.97944 2.70264 5.85227 2.54572 5.85227C2.38891 5.85227 2.26163 5.97944 2.26163 6.13636V8.02679C1.84915 7.53673 1.62731 6.96255 1.62731 6.36363ZM9.45743 8.56999H7.0105L5.98444 7.53783H8.43139L9.45743 8.56999ZM5.3014 7.65669L6.20938 8.56999H4.39353L5.3014 7.65669ZM3.99459 9.13818H6.60822V10.9448C6.47649 10.8842 6.34399 10.8256 6.21049 10.7694V9.81522C6.21049 9.65842 6.08331 9.53115 5.9264 9.53115H4.6764C4.5196 9.53115 4.39231 9.65842 4.39231 9.81522V10.153C4.26025 10.1186 4.12775 10.086 3.99459 10.0556V9.13818ZM5.64231 10.5452C5.41704 10.4622 5.18976 10.3852 4.96049 10.3145V10.0993H5.64231V10.5452ZM7.1764 11.2228V9.13818H9.85641V10.738C9.36979 10.9396 8.89423 11.1698 8.43328 11.4285C8.28594 11.5112 8.14034 11.5971 7.99641 11.6853C7.72783 11.5212 7.45437 11.3669 7.1764 11.2228Z" fill="#fff"/>
<path d="M12.3007 5.56818C12.3754 5.56818 12.4487 5.53777 12.5015 5.48484C12.5544 5.43201 12.5848 5.35878 12.5848 5.28409C12.5848 5.20929 12.5545 5.13605 12.5015 5.08323C12.4487 5.0303 12.3754 5 12.3007 5C12.2261 5 12.1527 5.0303 12.0999 5.08323C12.047 5.13605 12.0166 5.20929 12.0166 5.28409C12.0166 5.35878 12.047 5.43201 12.0999 5.48484C12.1527 5.53767 12.2261 5.56818 12.3007 5.56818Z" fill="#fff"/>
<path d="M9.83418 13.1043C9.78152 13.1571 9.75098 13.2304 9.75098 13.3051C9.75098 13.3801 9.78138 13.4531 9.83418 13.5059C9.88712 13.5589 9.96036 13.5891 10.035 13.5891C10.1099 13.5891 10.1831 13.5589 10.2359 13.5059C10.2887 13.4531 10.3192 13.3801 10.3192 13.3051C10.3192 13.2304 10.2887 13.1571 10.2359 13.1043C10.1831 13.0514 10.1099 13.021 10.035 13.021C9.96036 13.021 9.88712 13.0514 9.83418 13.1043Z" fill="#fff"/>
</mask>
<g mask="url(#mask1_6377_3205)">
<path d="M9.06348 13.8548C8.97563 13.7248 8.79905 13.6906 8.66908 13.7785C7.45425 14.5991 6.42833 15.6257 5.61956 16.83C5.53211 16.9603 5.56674 17.1369 5.69702 17.2243C5.74574 17.2569 5.80067 17.2726 5.85515 17.2726C5.94659 17.2726 6.03649 17.2284 6.09131 17.1468C6.85902 16.0035 7.83323 15.0286 8.98712 14.2492C9.11708 14.1615 9.15126 13.9849 9.06348 13.8548Z" stroke="#fff" stroke-width="0.181818"/>
</g>
<mask id="mask2_6377_3205" style="mask-type:luminance" maskUnits="userSpaceOnUse" x="0" y="2" width="16" height="16">
<path d="M16 2H0V18H16V2Z" fill="white"/>
<path d="M14.9883 14.1179C12.6157 14.1179 10.287 15.0912 8.59933 16.788C8.48857 16.8993 8.48915 17.0792 8.60035 17.1898C8.65584 17.2449 8.72813 17.2724 8.80071 17.2724C8.87366 17.2724 8.94653 17.2445 9.00217 17.1888C10.584 15.5983 12.7658 14.6861 14.9883 14.6861C15.1451 14.6861 15.2723 14.5589 15.2723 14.402C15.2723 14.2452 15.1451 14.1179 14.9883 14.1179Z" fill="#fff"/>
<path d="M9.06348 13.8548C8.97563 13.7248 8.79905 13.6906 8.66908 13.7785C7.45425 14.5991 6.42833 15.6257 5.61956 16.83C5.53211 16.9603 5.56674 17.1369 5.69702 17.2243C5.74574 17.2569 5.80067 17.2726 5.85515 17.2726C5.94659 17.2726 6.03649 17.2284 6.09131 17.1468C6.85902 16.0035 7.83323 15.0286 8.98712 14.2492C9.11708 14.1615 9.15126 13.9849 9.06348 13.8548Z" fill="#fff"/>
<path d="M14.9882 11.8308C13.7181 11.8308 12.461 12.0478 11.2519 12.4757C11.104 12.528 11.0265 12.6903 11.0789 12.8382C11.1201 12.9549 11.2297 13.0277 11.3466 13.0277C11.3781 13.0277 11.4101 13.0224 11.4415 13.0112C12.5896 12.605 13.7829 12.399 14.9882 12.399C15.1452 12.399 15.2723 12.2718 15.2723 12.115C15.2723 11.958 15.1452 11.8308 14.9882 11.8308Z" fill="#fff"/>
<path d="M4.79792 15.3232C6.66692 12.8864 9.37241 11.1944 12.3579 10.5603L12.3594 10.56C13.2174 10.3778 14.0981 10.283 14.9889 10.283C15.1457 10.283 15.273 10.1557 15.273 9.99886C15.273 9.84199 15.1457 9.71479 14.9889 9.71479C14.1811 9.71479 13.3765 9.78868 12.5854 9.93333V9.3201C13.6123 8.45081 14.1759 7.31178 14.1759 6.09885C14.1759 4.84474 13.5734 3.66965 12.4793 2.78996C12.3754 2.7064 12.2272 2.7064 12.1232 2.78996C11.0293 3.66965 10.4267 4.84474 10.4267 6.09885C10.4267 7.31178 10.9904 8.45081 12.0171 9.3201V10.0495C11.4774 10.1723 10.9454 10.3289 10.4245 10.5175V8.85409C10.4245 8.77597 10.3929 8.70527 10.3419 8.65389L8.75103 7.05344C8.69765 6.99984 8.62514 6.96965 8.5495 6.96965H5.3014C5.22583 6.96965 5.15326 6.99984 5.09998 7.05344L3.50907 8.65378C3.45803 8.70516 3.4264 8.77596 3.4264 8.8542V9.93908C3.22843 9.90279 3.02956 9.87079 2.82981 9.84351V8.83078C3.60629 8.16284 4.03232 7.2917 4.03232 6.36363C4.03232 5.39406 3.56756 4.48653 2.72372 3.80792C2.61974 3.72436 2.4717 3.72436 2.36772 3.80792C1.52388 4.48641 1.05912 5.39406 1.05912 6.36363C1.05912 7.29159 1.48515 8.16273 2.26163 8.83067V9.77813C1.84736 9.73944 1.43033 9.71944 1.01163 9.71944C0.854717 9.71944 0.727539 9.84664 0.727539 10.0035C0.727539 10.1605 0.854717 10.2877 1.01163 10.2877C3.28325 10.2877 5.50515 10.8887 7.4639 12.0289C6.99462 12.3479 6.5464 12.6962 6.12205 13.0712C4.53502 12.2626 2.77166 11.836 1.01163 11.836C0.854826 11.836 0.727539 11.9631 0.727539 12.12C0.727539 12.277 0.854826 12.4041 1.01163 12.4041C2.61308 12.4041 4.21775 12.7765 5.6756 13.4838C5.24369 13.9016 4.83998 14.3486 4.46744 14.8211C3.36237 14.3577 2.20093 14.1229 1.01163 14.1229C0.854826 14.1229 0.727539 14.2501 0.727539 14.4069C0.727539 14.5639 0.854826 14.6911 1.01163 14.6911C2.07697 14.6911 3.11856 14.893 4.11355 15.2907C3.91723 15.5635 3.73069 15.8437 3.55524 16.1314L3.12234 16.8406C3.04055 16.9744 3.08294 17.1493 3.21678 17.231C3.26305 17.2593 3.3141 17.2728 3.36459 17.2728C3.46025 17.2728 3.5538 17.2242 3.60728 17.1365L4.04019 16.4273C4.26591 16.0575 4.50983 15.7016 4.76984 15.3599C4.78005 15.3485 4.7896 15.3365 4.79792 15.3232ZM10.995 6.09885C10.995 5.08911 11.457 4.13263 12.3014 3.38312C13.1457 4.13263 13.6078 5.08911 13.6078 6.09885C13.6078 6.98863 13.2486 7.83725 12.5854 8.53914V6.36363C12.5854 6.20671 12.4583 6.07954 12.3014 6.07954C12.1444 6.07954 12.0173 6.20671 12.0173 6.36363V8.53914C11.354 7.83725 10.995 6.98863 10.995 6.09885ZM1.62731 6.36363C1.62731 5.63898 1.95168 4.95072 2.54572 4.40385C3.13976 4.95061 3.46414 5.63898 3.46414 6.36363C3.46414 6.96255 3.2423 7.53673 2.82981 8.02679V6.13636C2.82981 5.97944 2.70264 5.85227 2.54572 5.85227C2.38891 5.85227 2.26163 5.97944 2.26163 6.13636V8.02679C1.84915 7.53673 1.62731 6.96255 1.62731 6.36363ZM9.45743 8.56999H7.0105L5.98444 7.53783H8.43139L9.45743 8.56999ZM5.3014 7.65669L6.20938 8.56999H4.39353L5.3014 7.65669ZM3.99459 9.13818H6.60822V10.9448C6.47649 10.8842 6.34399 10.8256 6.21049 10.7694V9.81522C6.21049 9.65842 6.08331 9.53115 5.9264 9.53115H4.6764C4.5196 9.53115 4.39231 9.65842 4.39231 9.81522V10.153C4.26025 10.1186 4.12775 10.086 3.99459 10.0556V9.13818ZM5.64231 10.5452C5.41704 10.4622 5.18976 10.3852 4.96049 10.3145V10.0993H5.64231V10.5452ZM7.1764 11.2228V9.13818H9.85641V10.738C9.36979 10.9396 8.89423 11.1698 8.43328 11.4285C8.28594 11.5112 8.14034 11.5971 7.99641 11.6853C7.72783 11.5212 7.45437 11.3669 7.1764 11.2228Z" fill="#fff"/>
<path d="M12.3007 5.56818C12.3754 5.56818 12.4487 5.53777 12.5015 5.48484C12.5544 5.43201 12.5848 5.35878 12.5848 5.28409C12.5848 5.20929 12.5545 5.13605 12.5015 5.08323C12.4487 5.0303 12.3754 5 12.3007 5C12.2261 5 12.1527 5.0303 12.0999 5.08323C12.047 5.13605 12.0166 5.20929 12.0166 5.28409C12.0166 5.35878 12.047 5.43201 12.0999 5.48484C12.1527 5.53767 12.2261 5.56818 12.3007 5.56818Z" fill="#fff"/>
<path d="M9.83418 13.1043C9.78152 13.1571 9.75098 13.2304 9.75098 13.3051C9.75098 13.3801 9.78138 13.4531 9.83418 13.5059C9.88712 13.5589 9.96036 13.5891 10.035 13.5891C10.1099 13.5891 10.1831 13.5589 10.2359 13.5059C10.2887 13.4531 10.3192 13.3801 10.3192 13.3051C10.3192 13.2304 10.2887 13.1571 10.2359 13.1043C10.1831 13.0514 10.1099 13.021 10.035 13.021C9.96036 13.021 9.88712 13.0514 9.83418 13.1043Z" fill="#fff"/>
</mask>
<g mask="url(#mask2_6377_3205)">
<path d="M14.9882 11.8308C13.7181 11.8308 12.461 12.0478 11.2519 12.4757C11.104 12.528 11.0265 12.6903 11.0789 12.8382C11.1201 12.9549 11.2297 13.0277 11.3466 13.0277C11.3781 13.0277 11.4101 13.0224 11.4415 13.0112C12.5896 12.605 13.7829 12.399 14.9882 12.399C15.1452 12.399 15.2723 12.2718 15.2723 12.115C15.2723 11.958 15.1452 11.8308 14.9882 11.8308Z" stroke="#fff" stroke-width="0.181818"/>
</g>
<mask id="mask3_6377_3205" style="mask-type:luminance" maskUnits="userSpaceOnUse" x="0" y="2" width="16" height="16">
<path d="M16 2H0V18H16V2Z" fill="white"/>
<path d="M14.9883 14.1179C12.6157 14.1179 10.287 15.0912 8.59933 16.788C8.48857 16.8993 8.48915 17.0792 8.60035 17.1898C8.65584 17.2449 8.72813 17.2724 8.80071 17.2724C8.87366 17.2724 8.94653 17.2445 9.00217 17.1888C10.584 15.5983 12.7658 14.6861 14.9883 14.6861C15.1451 14.6861 15.2723 14.5589 15.2723 14.402C15.2723 14.2452 15.1451 14.1179 14.9883 14.1179Z" fill="#fff"/>
<path d="M9.06348 13.8548C8.97563 13.7248 8.79905 13.6906 8.66908 13.7785C7.45425 14.5991 6.42833 15.6257 5.61956 16.83C5.53211 16.9603 5.56674 17.1369 5.69702 17.2243C5.74574 17.2569 5.80067 17.2726 5.85515 17.2726C5.94659 17.2726 6.03649 17.2284 6.09131 17.1468C6.85902 16.0035 7.83323 15.0286 8.98712 14.2492C9.11708 14.1615 9.15126 13.9849 9.06348 13.8548Z" fill="#fff"/>
<path d="M14.9882 11.8308C13.7181 11.8308 12.461 12.0478 11.2519 12.4757C11.104 12.528 11.0265 12.6903 11.0789 12.8382C11.1201 12.9549 11.2297 13.0277 11.3466 13.0277C11.3781 13.0277 11.4101 13.0224 11.4415 13.0112C12.5896 12.605 13.7829 12.399 14.9882 12.399C15.1452 12.399 15.2723 12.2718 15.2723 12.115C15.2723 11.958 15.1452 11.8308 14.9882 11.8308Z" fill="#fff"/>
<path d="M4.79792 15.3232C6.66692 12.8864 9.37241 11.1944 12.3579 10.5603L12.3594 10.56C13.2174 10.3778 14.0981 10.283 14.9889 10.283C15.1457 10.283 15.273 10.1557 15.273 9.99886C15.273 9.84199 15.1457 9.71479 14.9889 9.71479C14.1811 9.71479 13.3765 9.78868 12.5854 9.93333V9.3201C13.6123 8.45081 14.1759 7.31178 14.1759 6.09885C14.1759 4.84474 13.5734 3.66965 12.4793 2.78996C12.3754 2.7064 12.2272 2.7064 12.1232 2.78996C11.0293 3.66965 10.4267 4.84474 10.4267 6.09885C10.4267 7.31178 10.9904 8.45081 12.0171 9.3201V10.0495C11.4774 10.1723 10.9454 10.3289 10.4245 10.5175V8.85409C10.4245 8.77597 10.3929 8.70527 10.3419 8.65389L8.75103 7.05344C8.69765 6.99984 8.62514 6.96965 8.5495 6.96965H5.3014C5.22583 6.96965 5.15326 6.99984 5.09998 7.05344L3.50907 8.65378C3.45803 8.70516 3.4264 8.77596 3.4264 8.8542V9.93908C3.22843 9.90279 3.02956 9.87079 2.82981 9.84351V8.83078C3.60629 8.16284 4.03232 7.2917 4.03232 6.36363C4.03232 5.39406 3.56756 4.48653 2.72372 3.80792C2.61974 3.72436 2.4717 3.72436 2.36772 3.80792C1.52388 4.48641 1.05912 5.39406 1.05912 6.36363C1.05912 7.29159 1.48515 8.16273 2.26163 8.83067V9.77813C1.84736 9.73944 1.43033 9.71944 1.01163 9.71944C0.854717 9.71944 0.727539 9.84664 0.727539 10.0035C0.727539 10.1605 0.854717 10.2877 1.01163 10.2877C3.28325 10.2877 5.50515 10.8887 7.4639 12.0289C6.99462 12.3479 6.5464 12.6962 6.12205 13.0712C4.53502 12.2626 2.77166 11.836 1.01163 11.836C0.854826 11.836 0.727539 11.9631 0.727539 12.12C0.727539 12.277 0.854826 12.4041 1.01163 12.4041C2.61308 12.4041 4.21775 12.7765 5.6756 13.4838C5.24369 13.9016 4.83998 14.3486 4.46744 14.8211C3.36237 14.3577 2.20093 14.1229 1.01163 14.1229C0.854826 14.1229 0.727539 14.2501 0.727539 14.4069C0.727539 14.5639 0.854826 14.6911 1.01163 14.6911C2.07697 14.6911 3.11856 14.893 4.11355 15.2907C3.91723 15.5635 3.73069 15.8437 3.55524 16.1314L3.12234 16.8406C3.04055 16.9744 3.08294 17.1493 3.21678 17.231C3.26305 17.2593 3.3141 17.2728 3.36459 17.2728C3.46025 17.2728 3.5538 17.2242 3.60728 17.1365L4.04019 16.4273C4.26591 16.0575 4.50983 15.7016 4.76984 15.3599C4.78005 15.3485 4.7896 15.3365 4.79792 15.3232ZM10.995 6.09885C10.995 5.08911 11.457 4.13263 12.3014 3.38312C13.1457 4.13263 13.6078 5.08911 13.6078 6.09885C13.6078 6.98863 13.2486 7.83725 12.5854 8.53914V6.36363C12.5854 6.20671 12.4583 6.07954 12.3014 6.07954C12.1444 6.07954 12.0173 6.20671 12.0173 6.36363V8.53914C11.354 7.83725 10.995 6.98863 10.995 6.09885ZM1.62731 6.36363C1.62731 5.63898 1.95168 4.95072 2.54572 4.40385C3.13976 4.95061 3.46414 5.63898 3.46414 6.36363C3.46414 6.96255 3.2423 7.53673 2.82981 8.02679V6.13636C2.82981 5.97944 2.70264 5.85227 2.54572 5.85227C2.38891 5.85227 2.26163 5.97944 2.26163 6.13636V8.02679C1.84915 7.53673 1.62731 6.96255 1.62731 6.36363ZM9.45743 8.56999H7.0105L5.98444 7.53783H8.43139L9.45743 8.56999ZM5.3014 7.65669L6.20938 8.56999H4.39353L5.3014 7.65669ZM3.99459 9.13818H6.60822V10.9448C6.47649 10.8842 6.34399 10.8256 6.21049 10.7694V9.81522C6.21049 9.65842 6.08331 9.53115 5.9264 9.53115H4.6764C4.5196 9.53115 4.39231 9.65842 4.39231 9.81522V10.153C4.26025 10.1186 4.12775 10.086 3.99459 10.0556V9.13818ZM5.64231 10.5452C5.41704 10.4622 5.18976 10.3852 4.96049 10.3145V10.0993H5.64231V10.5452ZM7.1764 11.2228V9.13818H9.85641V10.738C9.36979 10.9396 8.89423 11.1698 8.43328 11.4285C8.28594 11.5112 8.14034 11.5971 7.99641 11.6853C7.72783 11.5212 7.45437 11.3669 7.1764 11.2228Z" fill="#fff"/>
<path d="M12.3007 5.56818C12.3754 5.56818 12.4487 5.53777 12.5015 5.48484C12.5544 5.43201 12.5848 5.35878 12.5848 5.28409C12.5848 5.20929 12.5545 5.13605 12.5015 5.08323C12.4487 5.0303 12.3754 5 12.3007 5C12.2261 5 12.1527 5.0303 12.0999 5.08323C12.047 5.13605 12.0166 5.20929 12.0166 5.28409C12.0166 5.35878 12.047 5.43201 12.0999 5.48484C12.1527 5.53767 12.2261 5.56818 12.3007 5.56818Z" fill="#fff"/>
<path d="M9.83418 13.1043C9.78152 13.1571 9.75098 13.2304 9.75098 13.3051C9.75098 13.3801 9.78138 13.4531 9.83418 13.5059C9.88712 13.5589 9.96036 13.5891 10.035 13.5891C10.1099 13.5891 10.1831 13.5589 10.2359 13.5059C10.2887 13.4531 10.3192 13.3801 10.3192 13.3051C10.3192 13.2304 10.2887 13.1571 10.2359 13.1043C10.1831 13.0514 10.1099 13.021 10.035 13.021C9.96036 13.021 9.88712 13.0514 9.83418 13.1043Z" fill="#fff"/>
</mask>
<g mask="url(#mask3_6377_3205)">
<path d="M4.79792 15.3232C6.66692 12.8864 9.37241 11.1944 12.3579 10.5603L12.3594 10.56C13.2174 10.3778 14.0981 10.283 14.9889 10.283C15.1457 10.283 15.273 10.1557 15.273 9.99886C15.273 9.84199 15.1457 9.71479 14.9889 9.71479C14.1811 9.71479 13.3765 9.78868 12.5854 9.93333V9.3201C13.6123 8.45081 14.1759 7.31178 14.1759 6.09885C14.1759 4.84474 13.5734 3.66965 12.4793 2.78996C12.3754 2.7064 12.2272 2.7064 12.1232 2.78996C11.0293 3.66965 10.4267 4.84474 10.4267 6.09885C10.4267 7.31178 10.9904 8.45081 12.0171 9.3201V10.0495C11.4774 10.1723 10.9454 10.3289 10.4245 10.5175V8.85409C10.4245 8.77597 10.3929 8.70527 10.3419 8.65389L8.75103 7.05344C8.69765 6.99984 8.62514 6.96965 8.5495 6.96965H5.3014C5.22583 6.96965 5.15326 6.99984 5.09998 7.05344L3.50907 8.65378C3.45803 8.70516 3.4264 8.77596 3.4264 8.8542V9.93908C3.22843 9.90279 3.02956 9.87079 2.82981 9.84351V8.83078C3.60629 8.16284 4.03232 7.2917 4.03232 6.36363C4.03232 5.39406 3.56756 4.48653 2.72372 3.80792C2.61974 3.72436 2.4717 3.72436 2.36772 3.80792C1.52388 4.48641 1.05912 5.39406 1.05912 6.36363C1.05912 7.29159 1.48515 8.16273 2.26163 8.83067V9.77813C1.84736 9.73944 1.43033 9.71944 1.01163 9.71944C0.854717 9.71944 0.727539 9.84664 0.727539 10.0035C0.727539 10.1605 0.854717 10.2877 1.01163 10.2877C3.28325 10.2877 5.50515 10.8887 7.4639 12.0289C6.99462 12.3479 6.5464 12.6962 6.12205 13.0712C4.53502 12.2626 2.77166 11.836 1.01163 11.836C0.854826 11.836 0.727539 11.9631 0.727539 12.12C0.727539 12.277 0.854826 12.4041 1.01163 12.4041C2.61308 12.4041 4.21775 12.7765 5.6756 13.4838C5.24369 13.9016 4.83998 14.3486 4.46744 14.8211C3.36237 14.3577 2.20093 14.1229 1.01163 14.1229C0.854826 14.1229 0.727539 14.2501 0.727539 14.4069C0.727539 14.5639 0.854826 14.6911 1.01163 14.6911C2.07697 14.6911 3.11856 14.893 4.11355 15.2907C3.91723 15.5635 3.73069 15.8437 3.55524 16.1314L3.12234 16.8406C3.04055 16.9744 3.08294 17.1493 3.21678 17.231C3.26305 17.2593 3.3141 17.2728 3.36459 17.2728C3.46025 17.2728 3.5538 17.2242 3.60728 17.1365L4.04019 16.4273C4.26591 16.0575 4.50983 15.7016 4.76984 15.3599C4.78005 15.3485 4.7896 15.3365 4.79792 15.3232ZM10.995 6.09885C10.995 5.08911 11.457 4.13263 12.3014 3.38312C13.1457 4.13263 13.6078 5.08911 13.6078 6.09885C13.6078 6.98863 13.2486 7.83725 12.5854 8.53914V6.36363C12.5854 6.20671 12.4583 6.07954 12.3014 6.07954C12.1444 6.07954 12.0173 6.20671 12.0173 6.36363V8.53914C11.354 7.83725 10.995 6.98863 10.995 6.09885ZM1.62731 6.36363C1.62731 5.63898 1.95168 4.95072 2.54572 4.40385C3.13976 4.95061 3.46414 5.63898 3.46414 6.36363C3.46414 6.96255 3.2423 7.53673 2.82981 8.02679V6.13636C2.82981 5.97944 2.70264 5.85227 2.54572 5.85227C2.38891 5.85227 2.26163 5.97944 2.26163 6.13636V8.02679C1.84915 7.53673 1.62731 6.96255 1.62731 6.36363ZM9.45743 8.56999H7.0105L5.98444 7.53783H8.43139L9.45743 8.56999ZM5.3014 7.65669L6.20938 8.56999H4.39353L5.3014 7.65669ZM3.99459 9.13818H6.60822V10.9448C6.47649 10.8842 6.34399 10.8256 6.21049 10.7694V9.81522C6.21049 9.65842 6.08331 9.53115 5.9264 9.53115H4.6764C4.5196 9.53115 4.39231 9.65842 4.39231 9.81522V10.153C4.26025 10.1186 4.12775 10.086 3.99459 10.0556V9.13818ZM5.64231 10.5452C5.41704 10.4622 5.18976 10.3852 4.96049 10.3145V10.0993H5.64231V10.5452ZM7.1764 11.2228V9.13818H9.85641V10.738C9.36979 10.9396 8.89423 11.1698 8.43328 11.4285C8.28594 11.5112 8.14034 11.5971 7.99641 11.6853C7.72783 11.5212 7.45437 11.3669 7.1764 11.2228Z" stroke="#fff" stroke-width="0.181818"/>
</g>
<mask id="mask4_6377_3205" style="mask-type:luminance" maskUnits="userSpaceOnUse" x="0" y="2" width="16" height="16">
<path d="M16 2H0V18H16V2Z" fill="white"/>
<path d="M14.9883 14.1179C12.6157 14.1179 10.287 15.0912 8.59933 16.788C8.48857 16.8993 8.48915 17.0792 8.60035 17.1898C8.65584 17.2449 8.72813 17.2724 8.80071 17.2724C8.87366 17.2724 8.94653 17.2445 9.00217 17.1888C10.584 15.5983 12.7658 14.6861 14.9883 14.6861C15.1451 14.6861 15.2723 14.5589 15.2723 14.402C15.2723 14.2452 15.1451 14.1179 14.9883 14.1179Z" fill="#fff"/>
<path d="M9.06348 13.8548C8.97563 13.7248 8.79905 13.6906 8.66908 13.7785C7.45425 14.5991 6.42833 15.6257 5.61956 16.83C5.53211 16.9603 5.56674 17.1369 5.69702 17.2243C5.74574 17.2569 5.80067 17.2726 5.85515 17.2726C5.94659 17.2726 6.03649 17.2284 6.09131 17.1468C6.85902 16.0035 7.83323 15.0286 8.98712 14.2492C9.11708 14.1615 9.15126 13.9849 9.06348 13.8548Z" fill="#fff"/>
<path d="M14.9882 11.8308C13.7181 11.8308 12.461 12.0478 11.2519 12.4757C11.104 12.528 11.0265 12.6903 11.0789 12.8382C11.1201 12.9549 11.2297 13.0277 11.3466 13.0277C11.3781 13.0277 11.4101 13.0224 11.4415 13.0112C12.5896 12.605 13.7829 12.399 14.9882 12.399C15.1452 12.399 15.2723 12.2718 15.2723 12.115C15.2723 11.958 15.1452 11.8308 14.9882 11.8308Z" fill="#fff"/>
<path d="M4.79792 15.3232C6.66692 12.8864 9.37241 11.1944 12.3579 10.5603L12.3594 10.56C13.2174 10.3778 14.0981 10.283 14.9889 10.283C15.1457 10.283 15.273 10.1557 15.273 9.99886C15.273 9.84199 15.1457 9.71479 14.9889 9.71479C14.1811 9.71479 13.3765 9.78868 12.5854 9.93333V9.3201C13.6123 8.45081 14.1759 7.31178 14.1759 6.09885C14.1759 4.84474 13.5734 3.66965 12.4793 2.78996C12.3754 2.7064 12.2272 2.7064 12.1232 2.78996C11.0293 3.66965 10.4267 4.84474 10.4267 6.09885C10.4267 7.31178 10.9904 8.45081 12.0171 9.3201V10.0495C11.4774 10.1723 10.9454 10.3289 10.4245 10.5175V8.85409C10.4245 8.77597 10.3929 8.70527 10.3419 8.65389L8.75103 7.05344C8.69765 6.99984 8.62514 6.96965 8.5495 6.96965H5.3014C5.22583 6.96965 5.15326 6.99984 5.09998 7.05344L3.50907 8.65378C3.45803 8.70516 3.4264 8.77596 3.4264 8.8542V9.93908C3.22843 9.90279 3.02956 9.87079 2.82981 9.84351V8.83078C3.60629 8.16284 4.03232 7.2917 4.03232 6.36363C4.03232 5.39406 3.56756 4.48653 2.72372 3.80792C2.61974 3.72436 2.4717 3.72436 2.36772 3.80792C1.52388 4.48641 1.05912 5.39406 1.05912 6.36363C1.05912 7.29159 1.48515 8.16273 2.26163 8.83067V9.77813C1.84736 9.73944 1.43033 9.71944 1.01163 9.71944C0.854717 9.71944 0.727539 9.84664 0.727539 10.0035C0.727539 10.1605 0.854717 10.2877 1.01163 10.2877C3.28325 10.2877 5.50515 10.8887 7.4639 12.0289C6.99462 12.3479 6.5464 12.6962 6.12205 13.0712C4.53502 12.2626 2.77166 11.836 1.01163 11.836C0.854826 11.836 0.727539 11.9631 0.727539 12.12C0.727539 12.277 0.854826 12.4041 1.01163 12.4041C2.61308 12.4041 4.21775 12.7765 5.6756 13.4838C5.24369 13.9016 4.83998 14.3486 4.46744 14.8211C3.36237 14.3577 2.20093 14.1229 1.01163 14.1229C0.854826 14.1229 0.727539 14.2501 0.727539 14.4069C0.727539 14.5639 0.854826 14.6911 1.01163 14.6911C2.07697 14.6911 3.11856 14.893 4.11355 15.2907C3.91723 15.5635 3.73069 15.8437 3.55524 16.1314L3.12234 16.8406C3.04055 16.9744 3.08294 17.1493 3.21678 17.231C3.26305 17.2593 3.3141 17.2728 3.36459 17.2728C3.46025 17.2728 3.5538 17.2242 3.60728 17.1365L4.04019 16.4273C4.26591 16.0575 4.50983 15.7016 4.76984 15.3599C4.78005 15.3485 4.7896 15.3365 4.79792 15.3232ZM10.995 6.09885C10.995 5.08911 11.457 4.13263 12.3014 3.38312C13.1457 4.13263 13.6078 5.08911 13.6078 6.09885C13.6078 6.98863 13.2486 7.83725 12.5854 8.53914V6.36363C12.5854 6.20671 12.4583 6.07954 12.3014 6.07954C12.1444 6.07954 12.0173 6.20671 12.0173 6.36363V8.53914C11.354 7.83725 10.995 6.98863 10.995 6.09885ZM1.62731 6.36363C1.62731 5.63898 1.95168 4.95072 2.54572 4.40385C3.13976 4.95061 3.46414 5.63898 3.46414 6.36363C3.46414 6.96255 3.2423 7.53673 2.82981 8.02679V6.13636C2.82981 5.97944 2.70264 5.85227 2.54572 5.85227C2.38891 5.85227 2.26163 5.97944 2.26163 6.13636V8.02679C1.84915 7.53673 1.62731 6.96255 1.62731 6.36363ZM9.45743 8.56999H7.0105L5.98444 7.53783H8.43139L9.45743 8.56999ZM5.3014 7.65669L6.20938 8.56999H4.39353L5.3014 7.65669ZM3.99459 9.13818H6.60822V10.9448C6.47649 10.8842 6.34399 10.8256 6.21049 10.7694V9.81522C6.21049 9.65842 6.08331 9.53115 5.9264 9.53115H4.6764C4.5196 9.53115 4.39231 9.65842 4.39231 9.81522V10.153C4.26025 10.1186 4.12775 10.086 3.99459 10.0556V9.13818ZM5.64231 10.5452C5.41704 10.4622 5.18976 10.3852 4.96049 10.3145V10.0993H5.64231V10.5452ZM7.1764 11.2228V9.13818H9.85641V10.738C9.36979 10.9396 8.89423 11.1698 8.43328 11.4285C8.28594 11.5112 8.14034 11.5971 7.99641 11.6853C7.72783 11.5212 7.45437 11.3669 7.1764 11.2228Z" fill="#fff"/>
<path d="M12.3007 5.56818C12.3754 5.56818 12.4487 5.53777 12.5015 5.48484C12.5544 5.43201 12.5848 5.35878 12.5848 5.28409C12.5848 5.20929 12.5545 5.13605 12.5015 5.08323C12.4487 5.0303 12.3754 5 12.3007 5C12.2261 5 12.1527 5.0303 12.0999 5.08323C12.047 5.13605 12.0166 5.20929 12.0166 5.28409C12.0166 5.35878 12.047 5.43201 12.0999 5.48484C12.1527 5.53767 12.2261 5.56818 12.3007 5.56818Z" fill="#fff"/>
<path d="M9.83418 13.1043C9.78152 13.1571 9.75098 13.2304 9.75098 13.3051C9.75098 13.3801 9.78138 13.4531 9.83418 13.5059C9.88712 13.5589 9.96036 13.5891 10.035 13.5891C10.1099 13.5891 10.1831 13.5589 10.2359 13.5059C10.2887 13.4531 10.3192 13.3801 10.3192 13.3051C10.3192 13.2304 10.2887 13.1571 10.2359 13.1043C10.1831 13.0514 10.1099 13.021 10.035 13.021C9.96036 13.021 9.88712 13.0514 9.83418 13.1043Z" fill="#fff"/>
</mask>
<g mask="url(#mask4_6377_3205)">
<path d="M12.3007 5.56818C12.3754 5.56818 12.4487 5.53777 12.5015 5.48484C12.5544 5.43201 12.5848 5.35878 12.5848 5.28409C12.5848 5.20929 12.5545 5.13605 12.5015 5.08323C12.4487 5.0303 12.3754 5 12.3007 5C12.2261 5 12.1527 5.0303 12.0999 5.08323C12.047 5.13605 12.0166 5.20929 12.0166 5.28409C12.0166 5.35878 12.047 5.43201 12.0999 5.48484C12.1527 5.53767 12.2261 5.56818 12.3007 5.56818Z" stroke="#fff" stroke-width="0.181818"/>
</g>
<mask id="mask5_6377_3205" style="mask-type:luminance" maskUnits="userSpaceOnUse" x="0" y="2" width="16" height="16">
<path d="M16 2H0V18H16V2Z" fill="white"/>
<path d="M14.9883 14.1179C12.6157 14.1179 10.287 15.0912 8.59933 16.788C8.48857 16.8993 8.48915 17.0792 8.60035 17.1898C8.65584 17.2449 8.72813 17.2724 8.80071 17.2724C8.87366 17.2724 8.94653 17.2445 9.00217 17.1888C10.584 15.5983 12.7658 14.6861 14.9883 14.6861C15.1451 14.6861 15.2723 14.5589 15.2723 14.402C15.2723 14.2452 15.1451 14.1179 14.9883 14.1179Z" fill="#fff"/>
<path d="M9.06348 13.8548C8.97563 13.7248 8.79905 13.6906 8.66908 13.7785C7.45425 14.5991 6.42833 15.6257 5.61956 16.83C5.53211 16.9603 5.56674 17.1369 5.69702 17.2243C5.74574 17.2569 5.80067 17.2726 5.85515 17.2726C5.94659 17.2726 6.03649 17.2284 6.09131 17.1468C6.85902 16.0035 7.83323 15.0286 8.98712 14.2492C9.11708 14.1615 9.15126 13.9849 9.06348 13.8548Z" fill="#fff"/>
<path d="M14.9882 11.8308C13.7181 11.8308 12.461 12.0478 11.2519 12.4757C11.104 12.528 11.0265 12.6903 11.0789 12.8382C11.1201 12.9549 11.2297 13.0277 11.3466 13.0277C11.3781 13.0277 11.4101 13.0224 11.4415 13.0112C12.5896 12.605 13.7829 12.399 14.9882 12.399C15.1452 12.399 15.2723 12.2718 15.2723 12.115C15.2723 11.958 15.1452 11.8308 14.9882 11.8308Z" fill="#fff"/>
<path d="M4.79792 15.3232C6.66692 12.8864 9.37241 11.1944 12.3579 10.5603L12.3594 10.56C13.2174 10.3778 14.0981 10.283 14.9889 10.283C15.1457 10.283 15.273 10.1557 15.273 9.99886C15.273 9.84199 15.1457 9.71479 14.9889 9.71479C14.1811 9.71479 13.3765 9.78868 12.5854 9.93333V9.3201C13.6123 8.45081 14.1759 7.31178 14.1759 6.09885C14.1759 4.84474 13.5734 3.66965 12.4793 2.78996C12.3754 2.7064 12.2272 2.7064 12.1232 2.78996C11.0293 3.66965 10.4267 4.84474 10.4267 6.09885C10.4267 7.31178 10.9904 8.45081 12.0171 9.3201V10.0495C11.4774 10.1723 10.9454 10.3289 10.4245 10.5175V8.85409C10.4245 8.77597 10.3929 8.70527 10.3419 8.65389L8.75103 7.05344C8.69765 6.99984 8.62514 6.96965 8.5495 6.96965H5.3014C5.22583 6.96965 5.15326 6.99984 5.09998 7.05344L3.50907 8.65378C3.45803 8.70516 3.4264 8.77596 3.4264 8.8542V9.93908C3.22843 9.90279 3.02956 9.87079 2.82981 9.84351V8.83078C3.60629 8.16284 4.03232 7.2917 4.03232 6.36363C4.03232 5.39406 3.56756 4.48653 2.72372 3.80792C2.61974 3.72436 2.4717 3.72436 2.36772 3.80792C1.52388 4.48641 1.05912 5.39406 1.05912 6.36363C1.05912 7.29159 1.48515 8.16273 2.26163 8.83067V9.77813C1.84736 9.73944 1.43033 9.71944 1.01163 9.71944C0.854717 9.71944 0.727539 9.84664 0.727539 10.0035C0.727539 10.1605 0.854717 10.2877 1.01163 10.2877C3.28325 10.2877 5.50515 10.8887 7.4639 12.0289C6.99462 12.3479 6.5464 12.6962 6.12205 13.0712C4.53502 12.2626 2.77166 11.836 1.01163 11.836C0.854826 11.836 0.727539 11.9631 0.727539 12.12C0.727539 12.277 0.854826 12.4041 1.01163 12.4041C2.61308 12.4041 4.21775 12.7765 5.6756 13.4838C5.24369 13.9016 4.83998 14.3486 4.46744 14.8211C3.36237 14.3577 2.20093 14.1229 1.01163 14.1229C0.854826 14.1229 0.727539 14.2501 0.727539 14.4069C0.727539 14.5639 0.854826 14.6911 1.01163 14.6911C2.07697 14.6911 3.11856 14.893 4.11355 15.2907C3.91723 15.5635 3.73069 15.8437 3.55524 16.1314L3.12234 16.8406C3.04055 16.9744 3.08294 17.1493 3.21678 17.231C3.26305 17.2593 3.3141 17.2728 3.36459 17.2728C3.46025 17.2728 3.5538 17.2242 3.60728 17.1365L4.04019 16.4273C4.26591 16.0575 4.50983 15.7016 4.76984 15.3599C4.78005 15.3485 4.7896 15.3365 4.79792 15.3232ZM10.995 6.09885C10.995 5.08911 11.457 4.13263 12.3014 3.38312C13.1457 4.13263 13.6078 5.08911 13.6078 6.09885C13.6078 6.98863 13.2486 7.83725 12.5854 8.53914V6.36363C12.5854 6.20671 12.4583 6.07954 12.3014 6.07954C12.1444 6.07954 12.0173 6.20671 12.0173 6.36363V8.53914C11.354 7.83725 10.995 6.98863 10.995 6.09885ZM1.62731 6.36363C1.62731 5.63898 1.95168 4.95072 2.54572 4.40385C3.13976 4.95061 3.46414 5.63898 3.46414 6.36363C3.46414 6.96255 3.2423 7.53673 2.82981 8.02679V6.13636C2.82981 5.97944 2.70264 5.85227 2.54572 5.85227C2.38891 5.85227 2.26163 5.97944 2.26163 6.13636V8.02679C1.84915 7.53673 1.62731 6.96255 1.62731 6.36363ZM9.45743 8.56999H7.0105L5.98444 7.53783H8.43139L9.45743 8.56999ZM5.3014 7.65669L6.20938 8.56999H4.39353L5.3014 7.65669ZM3.99459 9.13818H6.60822V10.9448C6.47649 10.8842 6.34399 10.8256 6.21049 10.7694V9.81522C6.21049 9.65842 6.08331 9.53115 5.9264 9.53115H4.6764C4.5196 9.53115 4.39231 9.65842 4.39231 9.81522V10.153C4.26025 10.1186 4.12775 10.086 3.99459 10.0556V9.13818ZM5.64231 10.5452C5.41704 10.4622 5.18976 10.3852 4.96049 10.3145V10.0993H5.64231V10.5452ZM7.1764 11.2228V9.13818H9.85641V10.738C9.36979 10.9396 8.89423 11.1698 8.43328 11.4285C8.28594 11.5112 8.14034 11.5971 7.99641 11.6853C7.72783 11.5212 7.45437 11.3669 7.1764 11.2228Z" fill="#fff"/>
<path d="M12.3007 5.56818C12.3754 5.56818 12.4487 5.53777 12.5015 5.48484C12.5544 5.43201 12.5848 5.35878 12.5848 5.28409C12.5848 5.20929 12.5545 5.13605 12.5015 5.08323C12.4487 5.0303 12.3754 5 12.3007 5C12.2261 5 12.1527 5.0303 12.0999 5.08323C12.047 5.13605 12.0166 5.20929 12.0166 5.28409C12.0166 5.35878 12.047 5.43201 12.0999 5.48484C12.1527 5.53767 12.2261 5.56818 12.3007 5.56818Z" fill="#fff"/>
<path d="M9.83418 13.1043C9.78152 13.1571 9.75098 13.2304 9.75098 13.3051C9.75098 13.3801 9.78138 13.4531 9.83418 13.5059C9.88712 13.5589 9.96036 13.5891 10.035 13.5891C10.1099 13.5891 10.1831 13.5589 10.2359 13.5059C10.2887 13.4531 10.3192 13.3801 10.3192 13.3051C10.3192 13.2304 10.2887 13.1571 10.2359 13.1043C10.1831 13.0514 10.1099 13.021 10.035 13.021C9.96036 13.021 9.88712 13.0514 9.83418 13.1043Z" fill="#fff"/>
</mask>
<g mask="url(#mask5_6377_3205)">
<path d="M9.83418 13.1043C9.78152 13.1571 9.75098 13.2304 9.75098 13.3051C9.75098 13.3801 9.78138 13.4531 9.83418 13.5059C9.88712 13.5589 9.96036 13.5891 10.035 13.5891C10.1099 13.5891 10.1831 13.5589 10.2359 13.5059C10.2887 13.4531 10.3192 13.3801 10.3192 13.3051C10.3192 13.2304 10.2887 13.1571 10.2359 13.1043C10.1831 13.0514 10.1099 13.021 10.035 13.021C9.96036 13.021 9.88712 13.0514 9.83418 13.1043Z" stroke="#fff" stroke-width="0.181818"/>
</g>
</g>
<defs>
<clipPath id="clip0_6377_3205">
<rect width="16" height="16" fill="white" transform="translate(0 2)"/>
</clipPath>
</defs>
</svg>
