<svg width="16" height="17" viewBox="0 0 16 17" fill="none" xmlns="http://www.w3.org/2000/svg">
<path d="M13 2.50024H11.5V2.00024C11.5 1.86764 11.4473 1.74046 11.3536 1.64669C11.2598 1.55292 11.1326 1.50024 11 1.50024C10.8674 1.50024 10.7402 1.55292 10.6464 1.64669C10.5527 1.74046 10.5 1.86764 10.5 2.00024V2.50024H5.5V2.00024C5.5 1.86764 5.44732 1.74046 5.35355 1.64669C5.25979 1.55292 5.13261 1.50024 5 1.50024C4.86739 1.50024 4.74021 1.55292 4.64645 1.64669C4.55268 1.74046 4.5 1.86764 4.5 2.00024V2.50024H3C2.73478 2.50024 2.48043 2.6056 2.29289 2.79314C2.10536 2.98067 2 3.23503 2 3.50024V13.5002C2 13.7655 2.10536 14.0198 2.29289 14.2074C2.48043 14.3949 2.73478 14.5002 3 14.5002H13C13.2652 14.5002 13.5196 14.3949 13.7071 14.2074C13.8946 14.0198 14 13.7655 14 13.5002V3.50024C14 3.23503 13.8946 2.98067 13.7071 2.79314C13.5196 2.6056 13.2652 2.50024 13 2.50024ZM4.5 3.50024V4.00024C4.5 4.13285 4.55268 4.26003 4.64645 4.3538C4.74021 4.44757 4.86739 4.50024 5 4.50024C5.13261 4.50024 5.25979 4.44757 5.35355 4.3538C5.44732 4.26003 5.5 4.13285 5.5 4.00024V3.50024H10.5V4.00024C10.5 4.13285 10.5527 4.26003 10.6464 4.3538C10.7402 4.44757 10.8674 4.50024 11 4.50024C11.1326 4.50024 11.2598 4.44757 11.3536 4.3538C11.4473 4.26003 11.5 4.13285 11.5 4.00024V3.50024H13V5.50024H3V3.50024H4.5ZM13 13.5002H3V6.50024H13V13.5002Z" fill="black"/>
</svg>
