<svg width="33" height="32" viewBox="0 0 33 32" fill="none" xmlns="http://www.w3.org/2000/svg">
<path d="M16.4147 13.5982C15.9294 13.0363 14.3798 12.4488 13.3368 12.1814C12.7226 10.3539 15.6997 6.34189 16.0705 5.7062C16.1186 5.64337 16.1806 5.59247 16.2515 5.55743C16.3224 5.52239 16.4005 5.50416 16.4796 5.50416C16.5587 5.50415 16.6368 5.52237 16.7077 5.55739C16.7787 5.59242 16.8406 5.64332 16.8887 5.70614C17.2587 6.33346 20.238 10.3602 19.6225 12.1814C18.5828 12.4509 17.0249 13.0383 16.5445 13.5982C16.481 13.676 16.4771 13.6688 16.4147 13.5982ZM10.3735 13.244C10.5575 14.2743 10.8108 15.291 11.1318 16.2871C11.2424 16.3059 11.4765 16.3517 11.7903 16.4168C13.0766 16.702 14.7615 17.0916 15.8959 17.7986C16.274 17.3308 16.4793 16.7471 16.4775 16.1456C16.4757 15.5442 16.2668 14.9617 15.8859 14.4962C15.1272 13.4432 11.7319 12.8189 10.9522 12.6653C10.8731 12.6514 10.7918 12.6567 10.7152 12.6809C10.6386 12.705 10.569 12.7473 10.5122 12.8041C10.4554 12.8608 10.4132 12.9305 10.389 13.0071C10.3649 13.0837 10.3596 13.1649 10.3735 13.244ZM16.4796 26.444C16.6118 26.4436 16.7385 26.3909 16.832 26.2974C16.9254 26.2039 16.9781 26.0773 16.9785 25.9451V22.2834C17.2004 22.5901 17.4861 22.8451 17.816 23.0309C18.1458 23.2167 18.512 23.3289 18.8893 23.3597C19.2667 23.3905 19.6462 23.3392 20.0018 23.2094C20.3575 23.0796 20.6808 22.8743 20.9495 22.6077C21.8424 21.7147 22.471 18.4871 22.5858 17.8485C22.6006 17.7687 22.5956 17.6865 22.5713 17.6091C22.5469 17.5317 22.5039 17.4615 22.4461 17.4046C22.1006 17.1216 21.8638 17.3302 21.3685 17.3945C19.6604 17.8095 16.58 18.2525 16.4747 20.5773C16.4025 18.2507 13.2712 17.8057 11.5908 17.3946C11.0948 17.3295 10.8584 17.1217 10.5133 17.4045C10.4554 17.4614 10.4124 17.5317 10.3881 17.6091C10.3637 17.6865 10.3587 17.7687 10.3736 17.8485C10.4335 18.1678 10.618 19.1356 10.9024 20.1333C11.1817 21.131 11.5609 22.1637 12.0098 22.6077C12.2786 22.8743 12.6019 23.0796 12.9575 23.2094C13.3132 23.3392 13.6927 23.3905 14.07 23.3597C14.4473 23.3289 14.8135 23.2167 15.1434 23.0309C15.4732 22.8451 15.7589 22.5901 15.9808 22.2834V25.9451C15.9812 26.0773 16.0339 26.2039 16.1273 26.2974C16.2208 26.3909 16.3474 26.4436 16.4796 26.444ZM22.446 12.8C22.3893 12.7436 22.3197 12.7019 22.2432 12.6784C22.1667 12.6549 22.0856 12.6505 22.007 12.6654C21.0024 12.8455 20.0108 13.0921 19.0388 13.4037C18.3866 13.5772 17.777 13.8828 17.2478 14.3016C16.7918 14.7595 16.5208 15.3695 16.4868 16.0148C16.4527 16.6602 16.658 17.2953 17.0633 17.7987C18.392 16.9962 20.3393 16.5744 21.8225 16.2921C22.147 15.2949 22.402 14.2765 22.5857 13.244C22.6009 13.1642 22.5961 13.0819 22.5717 13.0045C22.5474 12.927 22.5042 12.8567 22.446 12.8ZM27.035 6.8246L27.8064 6.91985C27.9366 6.93385 28.0671 6.89608 28.1698 6.81469C28.2724 6.7333 28.3389 6.61482 28.355 6.48481C28.371 6.35481 28.3353 6.2237 28.2555 6.1198C28.1758 6.01589 28.0583 5.94752 27.9286 5.92943L26.0189 5.69389C25.8877 5.67859 25.7558 5.71556 25.6517 5.79679C25.5476 5.87803 25.4796 5.99699 25.4626 6.12794L25.2268 8.03767C25.2133 8.16768 25.2513 8.29779 25.3327 8.40007C25.4141 8.50234 25.5323 8.5686 25.662 8.58462C25.7917 8.60063 25.9226 8.56511 26.0264 8.4857C26.1302 8.40629 26.1987 8.28932 26.2172 8.15993L26.2988 7.49864C33.534 15.7854 27.494 28.9803 16.4794 28.9382C13.9452 28.9406 11.4662 28.198 9.35063 26.8028C9.24009 26.7329 9.10656 26.7092 8.97876 26.7368C8.85095 26.7644 8.73908 26.8411 8.6672 26.9503C8.59533 27.0595 8.5692 27.1926 8.59443 27.3209C8.61966 27.4492 8.69424 27.5624 8.80212 27.6363C22.3964 36.3295 37.4106 19.1422 27.035 6.8246ZM7.2097 23.3031C7.14438 23.2971 7.07851 23.3041 7.01591 23.3237C6.9533 23.3433 6.89521 23.3751 6.84499 23.4173C6.79477 23.4595 6.75342 23.5113 6.72333 23.5696C6.69324 23.6279 6.67501 23.6916 6.6697 23.7569L6.61532 24.3848C-2.9048 12.9197 11.0425 -2.91487 23.6087 5.13308C23.7193 5.20298 23.8529 5.22668 23.9807 5.19908C24.1086 5.17148 24.2205 5.09478 24.2924 4.9855C24.3642 4.87622 24.3903 4.74308 24.3651 4.61475C24.3398 4.48642 24.2651 4.37314 24.1571 4.29931C21.8786 2.79689 19.2089 1.9972 16.4796 1.99962C4.70131 1.95385 -1.83046 15.991 5.7838 24.948L5.07663 24.849C4.94669 24.8329 4.81564 24.8685 4.71175 24.9482C4.60786 25.0279 4.53945 25.1452 4.5213 25.2749C4.50314 25.4045 4.53669 25.5361 4.6147 25.6413C4.69271 25.7464 4.80893 25.8167 4.93829 25.8369L6.93957 26.1173C7.00656 26.1262 7.07466 26.1215 7.13979 26.1035C7.20493 26.0855 7.26575 26.0545 7.31861 26.0124C7.37147 25.9703 7.41529 25.9179 7.44743 25.8585C7.47957 25.799 7.49937 25.7337 7.50564 25.6664L7.66347 23.8432C7.66918 23.7779 7.66196 23.7122 7.64223 23.6497C7.62251 23.5872 7.59066 23.5293 7.54852 23.4791C7.50638 23.429 7.45476 23.3876 7.39662 23.3574C7.33849 23.3272 7.27497 23.3088 7.2097 23.3031Z" fill="white"/>
</svg>
