<svg width="20" height="20" viewBox="0 0 20 20" fill="none" xmlns="http://www.w3.org/2000/svg">
<g clip-path="url(#clip0_6074_2304)">
<path d="M18.7361 15.1475C15.7703 15.1475 12.8594 16.364 10.7499 18.4851C10.6114 18.6242 10.6122 18.8491 10.7512 18.9873C10.8205 19.0562 10.9109 19.0906 11.0016 19.0906C11.0928 19.0906 11.1839 19.0557 11.2534 18.986C13.2307 16.9979 15.958 15.8576 18.7361 15.8576C18.9322 15.8576 19.0912 15.6987 19.0912 15.5026C19.0912 15.3066 18.9322 15.1475 18.7361 15.1475Z" fill="#151515"/>
<path d="M11.3301 14.8185C11.2203 14.6559 10.9995 14.6132 10.8371 14.723C9.31854 15.7488 8.03615 17.0321 7.02519 18.5375C6.91588 18.7003 6.95916 18.921 7.122 19.0303C7.1829 19.0711 7.25157 19.0907 7.31968 19.0907C7.43398 19.0907 7.54634 19.0355 7.61487 18.9335C8.5745 17.5043 9.79227 16.2857 11.2346 15.3115C11.3971 15.2018 11.4398 14.981 11.3301 14.8185Z" fill="#151515"/>
<path d="M18.7353 12.2886C17.1477 12.2886 15.5763 12.5598 14.0649 13.0947C13.8799 13.16 13.7831 13.3629 13.8486 13.5478C13.9001 13.6937 14.0371 13.7847 14.1833 13.7847C14.2226 13.7847 14.2626 13.778 14.3019 13.7641C15.7369 13.2563 17.2286 12.9988 18.7353 12.9988C18.9315 12.9988 19.0904 12.8398 19.0904 12.6438C19.0904 12.4476 18.9315 12.2886 18.7353 12.2886Z" fill="#151515"/>
<path d="M5.99715 16.6541C8.33341 13.6081 11.7153 11.4931 15.4471 10.7005L15.449 10.7C16.5215 10.4724 17.6224 10.3538 18.7359 10.3538C18.9319 10.3538 19.091 10.1946 19.091 9.99864C19.091 9.80254 18.9319 9.64354 18.7359 9.64354C17.7262 9.64354 16.7204 9.73591 15.7315 9.91673V9.15018C17.0151 8.06357 17.7196 6.63979 17.7196 5.12363C17.7196 3.55599 16.9665 2.08713 15.5989 0.987517C15.469 0.883067 15.2838 0.883067 15.1538 0.987517C13.7864 2.08713 13.0331 3.55599 13.0331 5.12363C13.0331 6.63979 13.7378 8.06357 15.0212 9.15018V10.0619C14.3465 10.2155 13.6815 10.4112 13.0304 10.6469V8.56767C13.0304 8.47002 12.9909 8.38165 12.9272 8.31743L10.9385 6.31686C10.8718 6.24986 10.7812 6.21213 10.6866 6.21213H6.62651C6.53204 6.21213 6.44133 6.24986 6.37473 6.31686L4.3861 8.31729C4.32229 8.38152 4.28276 8.47002 4.28276 8.56781V9.92391C4.03529 9.87854 3.78671 9.83854 3.53702 9.80445V8.53854C4.50762 7.70361 5.04015 6.61468 5.04015 5.4546C5.04015 4.24264 4.45921 3.10822 3.40441 2.25996C3.27443 2.15551 3.08938 2.15551 2.95941 2.25996C1.90461 3.10807 1.32366 4.24264 1.32366 5.4546C1.32366 6.61454 1.8562 7.70347 2.82679 8.5384V9.72273C2.30896 9.67436 1.78767 9.64936 1.26429 9.64936C1.06815 9.64936 0.90918 9.80836 0.90918 10.0045C0.90918 10.2006 1.06815 10.3596 1.26429 10.3596C4.10382 10.3596 6.88119 11.1109 9.32963 12.5362C8.74303 12.9349 8.18276 13.3703 7.65232 13.839C5.66853 12.8284 3.46433 12.295 1.26429 12.295C1.06829 12.295 0.90918 12.4539 0.90918 12.6501C0.90918 12.8463 1.06829 13.0052 1.26429 13.0052C3.26611 13.0052 5.27194 13.4707 7.09426 14.3548C6.55437 14.877 6.04973 15.4358 5.58405 16.0265C4.20272 15.4472 2.75092 15.1536 1.26429 15.1536C1.06829 15.1536 0.90918 15.3126 0.90918 15.5087C0.90918 15.7049 1.06829 15.8639 1.26429 15.8639C2.59597 15.8639 3.89796 16.1164 5.14169 16.6135C4.8963 16.9545 4.66312 17.3047 4.44381 17.6643L3.90268 18.5508C3.80044 18.7181 3.85343 18.9367 4.02073 19.0388C4.07857 19.0742 4.14238 19.091 4.20549 19.091C4.32507 19.091 4.44201 19.0304 4.50886 18.9207L5.05 18.0342C5.33214 17.5719 5.63704 17.127 5.96205 16.6999C5.97482 16.6857 5.98675 16.6706 5.99715 16.6541ZM13.7435 5.12363C13.7435 3.86144 14.321 2.66584 15.3765 1.72896C16.4319 2.66584 17.0095 3.86144 17.0095 5.12363C17.0095 6.23585 16.5605 7.29662 15.7315 8.17399V5.4546C15.7315 5.25845 15.5726 5.09949 15.3765 5.09949C15.1803 5.09949 15.0214 5.25845 15.0214 5.4546V8.17399C14.1923 7.29662 13.7435 6.23585 13.7435 5.12363ZM2.03389 5.4546C2.03389 4.54878 2.43936 3.68846 3.18191 3.00487C3.92445 3.68833 4.32992 4.54878 4.32992 5.4546C4.32992 6.20325 4.05262 6.92097 3.53702 7.53355V5.17051C3.53702 4.97436 3.37805 4.8154 3.18191 4.8154C2.9859 4.8154 2.82679 4.97436 2.82679 5.17051V7.53355C2.31119 6.92097 2.03389 6.20325 2.03389 5.4546ZM11.8215 8.21255H8.76288L7.48031 6.92235H10.539L11.8215 8.21255ZM6.62651 7.07093L7.76148 8.21255H5.49167L6.62651 7.07093ZM4.99299 8.92278H8.26002V11.1811C8.09537 11.1054 7.92974 11.0321 7.76287 10.9618V9.76909C7.76287 9.57309 7.6039 9.414 7.40775 9.414H5.84526C5.64925 9.414 5.49014 9.57309 5.49014 9.76909V10.1914C5.32507 10.1484 5.15944 10.1075 4.99299 10.0695V8.92278ZM7.05264 10.6815C6.77105 10.5778 6.48696 10.4815 6.20037 10.3932V10.1242H7.05264V10.6815ZM8.97025 11.5285V8.92278H12.3203V10.9225C11.712 11.1745 11.1175 11.4623 10.5414 11.7857C10.3572 11.8891 10.1752 11.9965 9.99527 12.1066C9.65954 11.9015 9.31773 11.7087 8.97025 11.5285Z" fill="#151515"/>
<path d="M15.3767 4.46023C15.47 4.46023 15.5617 4.42222 15.6277 4.35605C15.6938 4.29002 15.7318 4.19847 15.7318 4.10511C15.7318 4.01162 15.6938 3.92006 15.6277 3.85404C15.5617 3.78787 15.47 3.75 15.3767 3.75C15.2833 3.75 15.1916 3.78787 15.1257 3.85404C15.0595 3.92006 15.0215 4.01162 15.0215 4.10511C15.0215 4.19847 15.0595 4.29002 15.1257 4.35605C15.1916 4.42208 15.2833 4.46023 15.3767 4.46023Z" fill="#151515"/>
<path d="M12.2935 13.8803C12.2276 13.9463 12.1895 14.0379 12.1895 14.1312C12.1895 14.225 12.2275 14.3163 12.2935 14.3823C12.3596 14.4485 12.4512 14.4863 12.5445 14.4863C12.6381 14.4863 12.7296 14.4485 12.7956 14.3823C12.8616 14.3163 12.8997 14.225 12.8997 14.1312C12.8997 14.0379 12.8616 13.9463 12.7956 13.8803C12.7296 13.8141 12.6381 13.7761 12.5445 13.7761C12.4512 13.7761 12.3596 13.8141 12.2935 13.8803Z" fill="#151515"/>
<mask id="mask0_6074_2304" style="mask-type:luminance" maskUnits="userSpaceOnUse" x="0" y="0" width="20" height="20">
<path d="M20 0H0V20H20V0Z" fill="white"/>
<path d="M18.7361 15.1475C15.7703 15.1475 12.8594 16.364 10.7499 18.4851C10.6114 18.6242 10.6122 18.8491 10.7512 18.9873C10.8205 19.0562 10.9109 19.0906 11.0016 19.0906C11.0928 19.0906 11.1839 19.0557 11.2534 18.986C13.2307 16.9979 15.958 15.8576 18.7361 15.8576C18.9322 15.8576 19.0912 15.6987 19.0912 15.5026C19.0912 15.3066 18.9322 15.1475 18.7361 15.1475Z" fill="black"/>
<path d="M11.3301 14.8185C11.2203 14.6559 10.9995 14.6132 10.8371 14.723C9.31854 15.7488 8.03615 17.0321 7.02519 18.5375C6.91588 18.7003 6.95916 18.921 7.122 19.0303C7.1829 19.0711 7.25157 19.0907 7.31968 19.0907C7.43398 19.0907 7.54634 19.0355 7.61487 18.9335C8.5745 17.5043 9.79227 16.2857 11.2346 15.3115C11.3971 15.2018 11.4398 14.981 11.3301 14.8185Z" fill="black"/>
<path d="M18.7353 12.2886C17.1477 12.2886 15.5763 12.5598 14.0649 13.0947C13.8799 13.16 13.7831 13.3629 13.8486 13.5478C13.9001 13.6937 14.0371 13.7847 14.1833 13.7847C14.2226 13.7847 14.2626 13.778 14.3019 13.7641C15.7369 13.2563 17.2286 12.9988 18.7353 12.9988C18.9315 12.9988 19.0904 12.8398 19.0904 12.6438C19.0904 12.4476 18.9315 12.2886 18.7353 12.2886Z" fill="black"/>
<path d="M5.99715 16.6541C8.33341 13.6081 11.7153 11.4931 15.4471 10.7005L15.449 10.7C16.5215 10.4724 17.6224 10.3538 18.7359 10.3538C18.9319 10.3538 19.091 10.1946 19.091 9.99864C19.091 9.80254 18.9319 9.64354 18.7359 9.64354C17.7262 9.64354 16.7204 9.73591 15.7315 9.91673V9.15018C17.0151 8.06357 17.7196 6.63979 17.7196 5.12363C17.7196 3.55599 16.9665 2.08713 15.5989 0.987517C15.469 0.883067 15.2838 0.883067 15.1538 0.987517C13.7864 2.08713 13.0331 3.55599 13.0331 5.12363C13.0331 6.63979 13.7378 8.06357 15.0212 9.15018V10.0619C14.3465 10.2155 13.6815 10.4112 13.0304 10.6469V8.56767C13.0304 8.47002 12.9909 8.38165 12.9272 8.31743L10.9385 6.31686C10.8718 6.24986 10.7812 6.21213 10.6866 6.21213H6.62651C6.53204 6.21213 6.44133 6.24986 6.37473 6.31686L4.3861 8.31729C4.32229 8.38152 4.28276 8.47002 4.28276 8.56781V9.92391C4.03529 9.87854 3.78671 9.83854 3.53702 9.80445V8.53854C4.50762 7.70361 5.04015 6.61468 5.04015 5.4546C5.04015 4.24264 4.45921 3.10822 3.40441 2.25996C3.27443 2.15551 3.08938 2.15551 2.95941 2.25996C1.90461 3.10807 1.32366 4.24264 1.32366 5.4546C1.32366 6.61454 1.8562 7.70347 2.82679 8.5384V9.72273C2.30896 9.67436 1.78767 9.64936 1.26429 9.64936C1.06815 9.64936 0.90918 9.80836 0.90918 10.0045C0.90918 10.2006 1.06815 10.3596 1.26429 10.3596C4.10382 10.3596 6.88119 11.1109 9.32963 12.5362C8.74303 12.9349 8.18276 13.3703 7.65232 13.839C5.66853 12.8284 3.46433 12.295 1.26429 12.295C1.06829 12.295 0.90918 12.4539 0.90918 12.6501C0.90918 12.8463 1.06829 13.0052 1.26429 13.0052C3.26611 13.0052 5.27194 13.4707 7.09426 14.3548C6.55437 14.877 6.04973 15.4358 5.58405 16.0265C4.20272 15.4472 2.75092 15.1536 1.26429 15.1536C1.06829 15.1536 0.90918 15.3126 0.90918 15.5087C0.90918 15.7049 1.06829 15.8639 1.26429 15.8639C2.59597 15.8639 3.89796 16.1164 5.14169 16.6135C4.8963 16.9545 4.66312 17.3047 4.44381 17.6643L3.90268 18.5508C3.80044 18.7181 3.85343 18.9367 4.02073 19.0388C4.07857 19.0742 4.14238 19.091 4.20549 19.091C4.32507 19.091 4.44201 19.0304 4.50886 18.9207L5.05 18.0342C5.33214 17.5719 5.63704 17.127 5.96205 16.6999C5.97482 16.6857 5.98675 16.6706 5.99715 16.6541ZM13.7435 5.12363C13.7435 3.86144 14.321 2.66584 15.3765 1.72896C16.4319 2.66584 17.0095 3.86144 17.0095 5.12363C17.0095 6.23585 16.5605 7.29662 15.7315 8.17399V5.4546C15.7315 5.25845 15.5726 5.09949 15.3765 5.09949C15.1803 5.09949 15.0214 5.25845 15.0214 5.4546V8.17399C14.1923 7.29662 13.7435 6.23585 13.7435 5.12363ZM2.03389 5.4546C2.03389 4.54878 2.43936 3.68846 3.18191 3.00487C3.92445 3.68833 4.32992 4.54878 4.32992 5.4546C4.32992 6.20325 4.05262 6.92097 3.53702 7.53355V5.17051C3.53702 4.97436 3.37805 4.8154 3.18191 4.8154C2.9859 4.8154 2.82679 4.97436 2.82679 5.17051V7.53355C2.31119 6.92097 2.03389 6.20325 2.03389 5.4546ZM11.8215 8.21255H8.76288L7.48031 6.92235H10.539L11.8215 8.21255ZM6.62651 7.07093L7.76148 8.21255H5.49167L6.62651 7.07093ZM4.99299 8.92278H8.26002V11.1811C8.09537 11.1054 7.92974 11.0321 7.76287 10.9618V9.76909C7.76287 9.57309 7.6039 9.414 7.40775 9.414H5.84526C5.64925 9.414 5.49014 9.57309 5.49014 9.76909V10.1914C5.32507 10.1484 5.15944 10.1075 4.99299 10.0695V8.92278ZM7.05264 10.6815C6.77105 10.5778 6.48696 10.4815 6.20037 10.3932V10.1242H7.05264V10.6815ZM8.97025 11.5285V8.92278H12.3203V10.9225C11.712 11.1745 11.1175 11.4623 10.5414 11.7857C10.3572 11.8891 10.1752 11.9965 9.99527 12.1066C9.65954 11.9015 9.31773 11.7087 8.97025 11.5285Z" fill="black"/>
<path d="M15.3767 4.46023C15.47 4.46023 15.5617 4.42222 15.6277 4.35605C15.6938 4.29002 15.7318 4.19847 15.7318 4.10511C15.7318 4.01162 15.6938 3.92006 15.6277 3.85404C15.5617 3.78787 15.47 3.75 15.3767 3.75C15.2833 3.75 15.1916 3.78787 15.1257 3.85404C15.0595 3.92006 15.0215 4.01162 15.0215 4.10511C15.0215 4.19847 15.0595 4.29002 15.1257 4.35605C15.1916 4.42208 15.2833 4.46023 15.3767 4.46023Z" fill="black"/>
<path d="M12.2935 13.8803C12.2276 13.9463 12.1895 14.0379 12.1895 14.1312C12.1895 14.225 12.2275 14.3163 12.2935 14.3823C12.3596 14.4485 12.4512 14.4863 12.5445 14.4863C12.6381 14.4863 12.7296 14.4485 12.7956 14.3823C12.8616 14.3163 12.8997 14.225 12.8997 14.1312C12.8997 14.0379 12.8616 13.9463 12.7956 13.8803C12.7296 13.8141 12.6381 13.7761 12.5445 13.7761C12.4512 13.7761 12.3596 13.8141 12.2935 13.8803Z" fill="black"/>
</mask>
<g mask="url(#mask0_6074_2304)">
<path d="M18.7361 15.1475C15.7703 15.1475 12.8594 16.364 10.7499 18.4851C10.6114 18.6242 10.6122 18.8491 10.7512 18.9873C10.8205 19.0562 10.9109 19.0906 11.0016 19.0906C11.0928 19.0906 11.1839 19.0557 11.2534 18.986C13.2307 16.9979 15.958 15.8576 18.7361 15.8576C18.9322 15.8576 19.0912 15.6987 19.0912 15.5026C19.0912 15.3066 18.9322 15.1475 18.7361 15.1475Z" stroke="#151515" stroke-width="0.181818"/>
</g>
<mask id="mask1_6074_2304" style="mask-type:luminance" maskUnits="userSpaceOnUse" x="0" y="0" width="20" height="20">
<path d="M20 0H0V20H20V0Z" fill="white"/>
<path d="M18.7361 15.1475C15.7703 15.1475 12.8594 16.364 10.7499 18.4851C10.6114 18.6242 10.6122 18.8491 10.7512 18.9873C10.8205 19.0562 10.9109 19.0906 11.0016 19.0906C11.0928 19.0906 11.1839 19.0557 11.2534 18.986C13.2307 16.9979 15.958 15.8576 18.7361 15.8576C18.9322 15.8576 19.0912 15.6987 19.0912 15.5026C19.0912 15.3066 18.9322 15.1475 18.7361 15.1475Z" fill="black"/>
<path d="M11.3301 14.8185C11.2203 14.6559 10.9995 14.6132 10.8371 14.723C9.31854 15.7488 8.03615 17.0321 7.02519 18.5375C6.91588 18.7003 6.95916 18.921 7.122 19.0303C7.1829 19.0711 7.25157 19.0907 7.31968 19.0907C7.43398 19.0907 7.54634 19.0355 7.61487 18.9335C8.5745 17.5043 9.79227 16.2857 11.2346 15.3115C11.3971 15.2018 11.4398 14.981 11.3301 14.8185Z" fill="black"/>
<path d="M18.7353 12.2886C17.1477 12.2886 15.5763 12.5598 14.0649 13.0947C13.8799 13.16 13.7831 13.3629 13.8486 13.5478C13.9001 13.6937 14.0371 13.7847 14.1833 13.7847C14.2226 13.7847 14.2626 13.778 14.3019 13.7641C15.7369 13.2563 17.2286 12.9988 18.7353 12.9988C18.9315 12.9988 19.0904 12.8398 19.0904 12.6438C19.0904 12.4476 18.9315 12.2886 18.7353 12.2886Z" fill="black"/>
<path d="M5.99715 16.6541C8.33341 13.6081 11.7153 11.4931 15.4471 10.7005L15.449 10.7C16.5215 10.4724 17.6224 10.3538 18.7359 10.3538C18.9319 10.3538 19.091 10.1946 19.091 9.99864C19.091 9.80254 18.9319 9.64354 18.7359 9.64354C17.7262 9.64354 16.7204 9.73591 15.7315 9.91673V9.15018C17.0151 8.06357 17.7196 6.63979 17.7196 5.12363C17.7196 3.55599 16.9665 2.08713 15.5989 0.987517C15.469 0.883067 15.2838 0.883067 15.1538 0.987517C13.7864 2.08713 13.0331 3.55599 13.0331 5.12363C13.0331 6.63979 13.7378 8.06357 15.0212 9.15018V10.0619C14.3465 10.2155 13.6815 10.4112 13.0304 10.6469V8.56767C13.0304 8.47002 12.9909 8.38165 12.9272 8.31743L10.9385 6.31686C10.8718 6.24986 10.7812 6.21213 10.6866 6.21213H6.62651C6.53204 6.21213 6.44133 6.24986 6.37473 6.31686L4.3861 8.31729C4.32229 8.38152 4.28276 8.47002 4.28276 8.56781V9.92391C4.03529 9.87854 3.78671 9.83854 3.53702 9.80445V8.53854C4.50762 7.70361 5.04015 6.61468 5.04015 5.4546C5.04015 4.24264 4.45921 3.10822 3.40441 2.25996C3.27443 2.15551 3.08938 2.15551 2.95941 2.25996C1.90461 3.10807 1.32366 4.24264 1.32366 5.4546C1.32366 6.61454 1.8562 7.70347 2.82679 8.5384V9.72273C2.30896 9.67436 1.78767 9.64936 1.26429 9.64936C1.06815 9.64936 0.90918 9.80836 0.90918 10.0045C0.90918 10.2006 1.06815 10.3596 1.26429 10.3596C4.10382 10.3596 6.88119 11.1109 9.32963 12.5362C8.74303 12.9349 8.18276 13.3703 7.65232 13.839C5.66853 12.8284 3.46433 12.295 1.26429 12.295C1.06829 12.295 0.90918 12.4539 0.90918 12.6501C0.90918 12.8463 1.06829 13.0052 1.26429 13.0052C3.26611 13.0052 5.27194 13.4707 7.09426 14.3548C6.55437 14.877 6.04973 15.4358 5.58405 16.0265C4.20272 15.4472 2.75092 15.1536 1.26429 15.1536C1.06829 15.1536 0.90918 15.3126 0.90918 15.5087C0.90918 15.7049 1.06829 15.8639 1.26429 15.8639C2.59597 15.8639 3.89796 16.1164 5.14169 16.6135C4.8963 16.9545 4.66312 17.3047 4.44381 17.6643L3.90268 18.5508C3.80044 18.7181 3.85343 18.9367 4.02073 19.0388C4.07857 19.0742 4.14238 19.091 4.20549 19.091C4.32507 19.091 4.44201 19.0304 4.50886 18.9207L5.05 18.0342C5.33214 17.5719 5.63704 17.127 5.96205 16.6999C5.97482 16.6857 5.98675 16.6706 5.99715 16.6541ZM13.7435 5.12363C13.7435 3.86144 14.321 2.66584 15.3765 1.72896C16.4319 2.66584 17.0095 3.86144 17.0095 5.12363C17.0095 6.23585 16.5605 7.29662 15.7315 8.17399V5.4546C15.7315 5.25845 15.5726 5.09949 15.3765 5.09949C15.1803 5.09949 15.0214 5.25845 15.0214 5.4546V8.17399C14.1923 7.29662 13.7435 6.23585 13.7435 5.12363ZM2.03389 5.4546C2.03389 4.54878 2.43936 3.68846 3.18191 3.00487C3.92445 3.68833 4.32992 4.54878 4.32992 5.4546C4.32992 6.20325 4.05262 6.92097 3.53702 7.53355V5.17051C3.53702 4.97436 3.37805 4.8154 3.18191 4.8154C2.9859 4.8154 2.82679 4.97436 2.82679 5.17051V7.53355C2.31119 6.92097 2.03389 6.20325 2.03389 5.4546ZM11.8215 8.21255H8.76288L7.48031 6.92235H10.539L11.8215 8.21255ZM6.62651 7.07093L7.76148 8.21255H5.49167L6.62651 7.07093ZM4.99299 8.92278H8.26002V11.1811C8.09537 11.1054 7.92974 11.0321 7.76287 10.9618V9.76909C7.76287 9.57309 7.6039 9.414 7.40775 9.414H5.84526C5.64925 9.414 5.49014 9.57309 5.49014 9.76909V10.1914C5.32507 10.1484 5.15944 10.1075 4.99299 10.0695V8.92278ZM7.05264 10.6815C6.77105 10.5778 6.48696 10.4815 6.20037 10.3932V10.1242H7.05264V10.6815ZM8.97025 11.5285V8.92278H12.3203V10.9225C11.712 11.1745 11.1175 11.4623 10.5414 11.7857C10.3572 11.8891 10.1752 11.9965 9.99527 12.1066C9.65954 11.9015 9.31773 11.7087 8.97025 11.5285Z" fill="black"/>
<path d="M15.3767 4.46023C15.47 4.46023 15.5617 4.42222 15.6277 4.35605C15.6938 4.29002 15.7318 4.19847 15.7318 4.10511C15.7318 4.01162 15.6938 3.92006 15.6277 3.85404C15.5617 3.78787 15.47 3.75 15.3767 3.75C15.2833 3.75 15.1916 3.78787 15.1257 3.85404C15.0595 3.92006 15.0215 4.01162 15.0215 4.10511C15.0215 4.19847 15.0595 4.29002 15.1257 4.35605C15.1916 4.42208 15.2833 4.46023 15.3767 4.46023Z" fill="black"/>
<path d="M12.2935 13.8803C12.2276 13.9463 12.1895 14.0379 12.1895 14.1312C12.1895 14.225 12.2275 14.3163 12.2935 14.3823C12.3596 14.4485 12.4512 14.4863 12.5445 14.4863C12.6381 14.4863 12.7296 14.4485 12.7956 14.3823C12.8616 14.3163 12.8997 14.225 12.8997 14.1312C12.8997 14.0379 12.8616 13.9463 12.7956 13.8803C12.7296 13.8141 12.6381 13.7761 12.5445 13.7761C12.4512 13.7761 12.3596 13.8141 12.2935 13.8803Z" fill="black"/>
</mask>
<g mask="url(#mask1_6074_2304)">
<path d="M11.3301 14.8185C11.2203 14.6559 10.9995 14.6132 10.8371 14.723C9.31854 15.7488 8.03615 17.0321 7.02519 18.5375C6.91588 18.7003 6.95916 18.921 7.122 19.0303C7.1829 19.0711 7.25157 19.0907 7.31968 19.0907C7.43398 19.0907 7.54634 19.0355 7.61487 18.9335C8.5745 17.5043 9.79227 16.2857 11.2346 15.3115C11.3971 15.2018 11.4398 14.981 11.3301 14.8185Z" stroke="#151515" stroke-width="0.181818"/>
</g>
<mask id="mask2_6074_2304" style="mask-type:luminance" maskUnits="userSpaceOnUse" x="0" y="0" width="20" height="20">
<path d="M20 0H0V20H20V0Z" fill="white"/>
<path d="M18.7361 15.1475C15.7703 15.1475 12.8594 16.364 10.7499 18.4851C10.6114 18.6242 10.6122 18.8491 10.7512 18.9873C10.8205 19.0562 10.9109 19.0906 11.0016 19.0906C11.0928 19.0906 11.1839 19.0557 11.2534 18.986C13.2307 16.9979 15.958 15.8576 18.7361 15.8576C18.9322 15.8576 19.0912 15.6987 19.0912 15.5026C19.0912 15.3066 18.9322 15.1475 18.7361 15.1475Z" fill="black"/>
<path d="M11.3301 14.8185C11.2203 14.6559 10.9995 14.6132 10.8371 14.723C9.31854 15.7488 8.03615 17.0321 7.02519 18.5375C6.91588 18.7003 6.95916 18.921 7.122 19.0303C7.1829 19.0711 7.25157 19.0907 7.31968 19.0907C7.43398 19.0907 7.54634 19.0355 7.61487 18.9335C8.5745 17.5043 9.79227 16.2857 11.2346 15.3115C11.3971 15.2018 11.4398 14.981 11.3301 14.8185Z" fill="black"/>
<path d="M18.7353 12.2886C17.1477 12.2886 15.5763 12.5598 14.0649 13.0947C13.8799 13.16 13.7831 13.3629 13.8486 13.5478C13.9001 13.6937 14.0371 13.7847 14.1833 13.7847C14.2226 13.7847 14.2626 13.778 14.3019 13.7641C15.7369 13.2563 17.2286 12.9988 18.7353 12.9988C18.9315 12.9988 19.0904 12.8398 19.0904 12.6438C19.0904 12.4476 18.9315 12.2886 18.7353 12.2886Z" fill="black"/>
<path d="M5.99715 16.6541C8.33341 13.6081 11.7153 11.4931 15.4471 10.7005L15.449 10.7C16.5215 10.4724 17.6224 10.3538 18.7359 10.3538C18.9319 10.3538 19.091 10.1946 19.091 9.99864C19.091 9.80254 18.9319 9.64354 18.7359 9.64354C17.7262 9.64354 16.7204 9.73591 15.7315 9.91673V9.15018C17.0151 8.06357 17.7196 6.63979 17.7196 5.12363C17.7196 3.55599 16.9665 2.08713 15.5989 0.987517C15.469 0.883067 15.2838 0.883067 15.1538 0.987517C13.7864 2.08713 13.0331 3.55599 13.0331 5.12363C13.0331 6.63979 13.7378 8.06357 15.0212 9.15018V10.0619C14.3465 10.2155 13.6815 10.4112 13.0304 10.6469V8.56767C13.0304 8.47002 12.9909 8.38165 12.9272 8.31743L10.9385 6.31686C10.8718 6.24986 10.7812 6.21213 10.6866 6.21213H6.62651C6.53204 6.21213 6.44133 6.24986 6.37473 6.31686L4.3861 8.31729C4.32229 8.38152 4.28276 8.47002 4.28276 8.56781V9.92391C4.03529 9.87854 3.78671 9.83854 3.53702 9.80445V8.53854C4.50762 7.70361 5.04015 6.61468 5.04015 5.4546C5.04015 4.24264 4.45921 3.10822 3.40441 2.25996C3.27443 2.15551 3.08938 2.15551 2.95941 2.25996C1.90461 3.10807 1.32366 4.24264 1.32366 5.4546C1.32366 6.61454 1.8562 7.70347 2.82679 8.5384V9.72273C2.30896 9.67436 1.78767 9.64936 1.26429 9.64936C1.06815 9.64936 0.90918 9.80836 0.90918 10.0045C0.90918 10.2006 1.06815 10.3596 1.26429 10.3596C4.10382 10.3596 6.88119 11.1109 9.32963 12.5362C8.74303 12.9349 8.18276 13.3703 7.65232 13.839C5.66853 12.8284 3.46433 12.295 1.26429 12.295C1.06829 12.295 0.90918 12.4539 0.90918 12.6501C0.90918 12.8463 1.06829 13.0052 1.26429 13.0052C3.26611 13.0052 5.27194 13.4707 7.09426 14.3548C6.55437 14.877 6.04973 15.4358 5.58405 16.0265C4.20272 15.4472 2.75092 15.1536 1.26429 15.1536C1.06829 15.1536 0.90918 15.3126 0.90918 15.5087C0.90918 15.7049 1.06829 15.8639 1.26429 15.8639C2.59597 15.8639 3.89796 16.1164 5.14169 16.6135C4.8963 16.9545 4.66312 17.3047 4.44381 17.6643L3.90268 18.5508C3.80044 18.7181 3.85343 18.9367 4.02073 19.0388C4.07857 19.0742 4.14238 19.091 4.20549 19.091C4.32507 19.091 4.44201 19.0304 4.50886 18.9207L5.05 18.0342C5.33214 17.5719 5.63704 17.127 5.96205 16.6999C5.97482 16.6857 5.98675 16.6706 5.99715 16.6541ZM13.7435 5.12363C13.7435 3.86144 14.321 2.66584 15.3765 1.72896C16.4319 2.66584 17.0095 3.86144 17.0095 5.12363C17.0095 6.23585 16.5605 7.29662 15.7315 8.17399V5.4546C15.7315 5.25845 15.5726 5.09949 15.3765 5.09949C15.1803 5.09949 15.0214 5.25845 15.0214 5.4546V8.17399C14.1923 7.29662 13.7435 6.23585 13.7435 5.12363ZM2.03389 5.4546C2.03389 4.54878 2.43936 3.68846 3.18191 3.00487C3.92445 3.68833 4.32992 4.54878 4.32992 5.4546C4.32992 6.20325 4.05262 6.92097 3.53702 7.53355V5.17051C3.53702 4.97436 3.37805 4.8154 3.18191 4.8154C2.9859 4.8154 2.82679 4.97436 2.82679 5.17051V7.53355C2.31119 6.92097 2.03389 6.20325 2.03389 5.4546ZM11.8215 8.21255H8.76288L7.48031 6.92235H10.539L11.8215 8.21255ZM6.62651 7.07093L7.76148 8.21255H5.49167L6.62651 7.07093ZM4.99299 8.92278H8.26002V11.1811C8.09537 11.1054 7.92974 11.0321 7.76287 10.9618V9.76909C7.76287 9.57309 7.6039 9.414 7.40775 9.414H5.84526C5.64925 9.414 5.49014 9.57309 5.49014 9.76909V10.1914C5.32507 10.1484 5.15944 10.1075 4.99299 10.0695V8.92278ZM7.05264 10.6815C6.77105 10.5778 6.48696 10.4815 6.20037 10.3932V10.1242H7.05264V10.6815ZM8.97025 11.5285V8.92278H12.3203V10.9225C11.712 11.1745 11.1175 11.4623 10.5414 11.7857C10.3572 11.8891 10.1752 11.9965 9.99527 12.1066C9.65954 11.9015 9.31773 11.7087 8.97025 11.5285Z" fill="black"/>
<path d="M15.3767 4.46023C15.47 4.46023 15.5617 4.42222 15.6277 4.35605C15.6938 4.29002 15.7318 4.19847 15.7318 4.10511C15.7318 4.01162 15.6938 3.92006 15.6277 3.85404C15.5617 3.78787 15.47 3.75 15.3767 3.75C15.2833 3.75 15.1916 3.78787 15.1257 3.85404C15.0595 3.92006 15.0215 4.01162 15.0215 4.10511C15.0215 4.19847 15.0595 4.29002 15.1257 4.35605C15.1916 4.42208 15.2833 4.46023 15.3767 4.46023Z" fill="black"/>
<path d="M12.2935 13.8803C12.2276 13.9463 12.1895 14.0379 12.1895 14.1312C12.1895 14.225 12.2275 14.3163 12.2935 14.3823C12.3596 14.4485 12.4512 14.4863 12.5445 14.4863C12.6381 14.4863 12.7296 14.4485 12.7956 14.3823C12.8616 14.3163 12.8997 14.225 12.8997 14.1312C12.8997 14.0379 12.8616 13.9463 12.7956 13.8803C12.7296 13.8141 12.6381 13.7761 12.5445 13.7761C12.4512 13.7761 12.3596 13.8141 12.2935 13.8803Z" fill="black"/>
</mask>
<g mask="url(#mask2_6074_2304)">
<path d="M18.7353 12.2886C17.1477 12.2886 15.5763 12.5598 14.0649 13.0947C13.8799 13.16 13.7831 13.3629 13.8486 13.5478C13.9001 13.6937 14.0371 13.7847 14.1833 13.7847C14.2226 13.7847 14.2626 13.778 14.3019 13.7641C15.7369 13.2563 17.2286 12.9988 18.7353 12.9988C18.9315 12.9988 19.0904 12.8398 19.0904 12.6438C19.0904 12.4476 18.9315 12.2886 18.7353 12.2886Z" stroke="#151515" stroke-width="0.181818"/>
</g>
<mask id="mask3_6074_2304" style="mask-type:luminance" maskUnits="userSpaceOnUse" x="0" y="0" width="20" height="20">
<path d="M20 0H0V20H20V0Z" fill="white"/>
<path d="M18.7361 15.1475C15.7703 15.1475 12.8594 16.364 10.7499 18.4851C10.6114 18.6242 10.6122 18.8491 10.7512 18.9873C10.8205 19.0562 10.9109 19.0906 11.0016 19.0906C11.0928 19.0906 11.1839 19.0557 11.2534 18.986C13.2307 16.9979 15.958 15.8576 18.7361 15.8576C18.9322 15.8576 19.0912 15.6987 19.0912 15.5026C19.0912 15.3066 18.9322 15.1475 18.7361 15.1475Z" fill="black"/>
<path d="M11.3301 14.8185C11.2203 14.6559 10.9995 14.6132 10.8371 14.723C9.31854 15.7488 8.03615 17.0321 7.02519 18.5375C6.91588 18.7003 6.95916 18.921 7.122 19.0303C7.1829 19.0711 7.25157 19.0907 7.31968 19.0907C7.43398 19.0907 7.54634 19.0355 7.61487 18.9335C8.5745 17.5043 9.79227 16.2857 11.2346 15.3115C11.3971 15.2018 11.4398 14.981 11.3301 14.8185Z" fill="black"/>
<path d="M18.7353 12.2886C17.1477 12.2886 15.5763 12.5598 14.0649 13.0947C13.8799 13.16 13.7831 13.3629 13.8486 13.5478C13.9001 13.6937 14.0371 13.7847 14.1833 13.7847C14.2226 13.7847 14.2626 13.778 14.3019 13.7641C15.7369 13.2563 17.2286 12.9988 18.7353 12.9988C18.9315 12.9988 19.0904 12.8398 19.0904 12.6438C19.0904 12.4476 18.9315 12.2886 18.7353 12.2886Z" fill="black"/>
<path d="M5.99715 16.6541C8.33341 13.6081 11.7153 11.4931 15.4471 10.7005L15.449 10.7C16.5215 10.4724 17.6224 10.3538 18.7359 10.3538C18.9319 10.3538 19.091 10.1946 19.091 9.99864C19.091 9.80254 18.9319 9.64354 18.7359 9.64354C17.7262 9.64354 16.7204 9.73591 15.7315 9.91673V9.15018C17.0151 8.06357 17.7196 6.63979 17.7196 5.12363C17.7196 3.55599 16.9665 2.08713 15.5989 0.987517C15.469 0.883067 15.2838 0.883067 15.1538 0.987517C13.7864 2.08713 13.0331 3.55599 13.0331 5.12363C13.0331 6.63979 13.7378 8.06357 15.0212 9.15018V10.0619C14.3465 10.2155 13.6815 10.4112 13.0304 10.6469V8.56767C13.0304 8.47002 12.9909 8.38165 12.9272 8.31743L10.9385 6.31686C10.8718 6.24986 10.7812 6.21213 10.6866 6.21213H6.62651C6.53204 6.21213 6.44133 6.24986 6.37473 6.31686L4.3861 8.31729C4.32229 8.38152 4.28276 8.47002 4.28276 8.56781V9.92391C4.03529 9.87854 3.78671 9.83854 3.53702 9.80445V8.53854C4.50762 7.70361 5.04015 6.61468 5.04015 5.4546C5.04015 4.24264 4.45921 3.10822 3.40441 2.25996C3.27443 2.15551 3.08938 2.15551 2.95941 2.25996C1.90461 3.10807 1.32366 4.24264 1.32366 5.4546C1.32366 6.61454 1.8562 7.70347 2.82679 8.5384V9.72273C2.30896 9.67436 1.78767 9.64936 1.26429 9.64936C1.06815 9.64936 0.90918 9.80836 0.90918 10.0045C0.90918 10.2006 1.06815 10.3596 1.26429 10.3596C4.10382 10.3596 6.88119 11.1109 9.32963 12.5362C8.74303 12.9349 8.18276 13.3703 7.65232 13.839C5.66853 12.8284 3.46433 12.295 1.26429 12.295C1.06829 12.295 0.90918 12.4539 0.90918 12.6501C0.90918 12.8463 1.06829 13.0052 1.26429 13.0052C3.26611 13.0052 5.27194 13.4707 7.09426 14.3548C6.55437 14.877 6.04973 15.4358 5.58405 16.0265C4.20272 15.4472 2.75092 15.1536 1.26429 15.1536C1.06829 15.1536 0.90918 15.3126 0.90918 15.5087C0.90918 15.7049 1.06829 15.8639 1.26429 15.8639C2.59597 15.8639 3.89796 16.1164 5.14169 16.6135C4.8963 16.9545 4.66312 17.3047 4.44381 17.6643L3.90268 18.5508C3.80044 18.7181 3.85343 18.9367 4.02073 19.0388C4.07857 19.0742 4.14238 19.091 4.20549 19.091C4.32507 19.091 4.44201 19.0304 4.50886 18.9207L5.05 18.0342C5.33214 17.5719 5.63704 17.127 5.96205 16.6999C5.97482 16.6857 5.98675 16.6706 5.99715 16.6541ZM13.7435 5.12363C13.7435 3.86144 14.321 2.66584 15.3765 1.72896C16.4319 2.66584 17.0095 3.86144 17.0095 5.12363C17.0095 6.23585 16.5605 7.29662 15.7315 8.17399V5.4546C15.7315 5.25845 15.5726 5.09949 15.3765 5.09949C15.1803 5.09949 15.0214 5.25845 15.0214 5.4546V8.17399C14.1923 7.29662 13.7435 6.23585 13.7435 5.12363ZM2.03389 5.4546C2.03389 4.54878 2.43936 3.68846 3.18191 3.00487C3.92445 3.68833 4.32992 4.54878 4.32992 5.4546C4.32992 6.20325 4.05262 6.92097 3.53702 7.53355V5.17051C3.53702 4.97436 3.37805 4.8154 3.18191 4.8154C2.9859 4.8154 2.82679 4.97436 2.82679 5.17051V7.53355C2.31119 6.92097 2.03389 6.20325 2.03389 5.4546ZM11.8215 8.21255H8.76288L7.48031 6.92235H10.539L11.8215 8.21255ZM6.62651 7.07093L7.76148 8.21255H5.49167L6.62651 7.07093ZM4.99299 8.92278H8.26002V11.1811C8.09537 11.1054 7.92974 11.0321 7.76287 10.9618V9.76909C7.76287 9.57309 7.6039 9.414 7.40775 9.414H5.84526C5.64925 9.414 5.49014 9.57309 5.49014 9.76909V10.1914C5.32507 10.1484 5.15944 10.1075 4.99299 10.0695V8.92278ZM7.05264 10.6815C6.77105 10.5778 6.48696 10.4815 6.20037 10.3932V10.1242H7.05264V10.6815ZM8.97025 11.5285V8.92278H12.3203V10.9225C11.712 11.1745 11.1175 11.4623 10.5414 11.7857C10.3572 11.8891 10.1752 11.9965 9.99527 12.1066C9.65954 11.9015 9.31773 11.7087 8.97025 11.5285Z" fill="black"/>
<path d="M15.3767 4.46023C15.47 4.46023 15.5617 4.42222 15.6277 4.35605C15.6938 4.29002 15.7318 4.19847 15.7318 4.10511C15.7318 4.01162 15.6938 3.92006 15.6277 3.85404C15.5617 3.78787 15.47 3.75 15.3767 3.75C15.2833 3.75 15.1916 3.78787 15.1257 3.85404C15.0595 3.92006 15.0215 4.01162 15.0215 4.10511C15.0215 4.19847 15.0595 4.29002 15.1257 4.35605C15.1916 4.42208 15.2833 4.46023 15.3767 4.46023Z" fill="black"/>
<path d="M12.2935 13.8803C12.2276 13.9463 12.1895 14.0379 12.1895 14.1312C12.1895 14.225 12.2275 14.3163 12.2935 14.3823C12.3596 14.4485 12.4512 14.4863 12.5445 14.4863C12.6381 14.4863 12.7296 14.4485 12.7956 14.3823C12.8616 14.3163 12.8997 14.225 12.8997 14.1312C12.8997 14.0379 12.8616 13.9463 12.7956 13.8803C12.7296 13.8141 12.6381 13.7761 12.5445 13.7761C12.4512 13.7761 12.3596 13.8141 12.2935 13.8803Z" fill="black"/>
</mask>
<g mask="url(#mask3_6074_2304)">
<path d="M5.99715 16.6541C8.33341 13.6081 11.7153 11.4931 15.4471 10.7005L15.449 10.7C16.5215 10.4724 17.6224 10.3538 18.7359 10.3538C18.9319 10.3538 19.091 10.1946 19.091 9.99864C19.091 9.80254 18.9319 9.64354 18.7359 9.64354C17.7262 9.64354 16.7204 9.73591 15.7315 9.91673V9.15018C17.0151 8.06357 17.7196 6.63979 17.7196 5.12363C17.7196 3.55599 16.9665 2.08713 15.5989 0.987517C15.469 0.883067 15.2838 0.883067 15.1538 0.987517C13.7864 2.08713 13.0331 3.55599 13.0331 5.12363C13.0331 6.63979 13.7378 8.06357 15.0212 9.15018V10.0619C14.3465 10.2155 13.6815 10.4112 13.0304 10.6469V8.56767C13.0304 8.47002 12.9909 8.38165 12.9272 8.31743L10.9385 6.31686C10.8718 6.24986 10.7812 6.21213 10.6866 6.21213H6.62651C6.53204 6.21213 6.44133 6.24986 6.37473 6.31686L4.3861 8.31729C4.32229 8.38152 4.28276 8.47002 4.28276 8.56781V9.92391C4.03529 9.87854 3.78671 9.83854 3.53702 9.80445V8.53854C4.50762 7.70361 5.04015 6.61468 5.04015 5.4546C5.04015 4.24264 4.45921 3.10822 3.40441 2.25996C3.27443 2.15551 3.08938 2.15551 2.95941 2.25996C1.90461 3.10807 1.32366 4.24264 1.32366 5.4546C1.32366 6.61454 1.8562 7.70347 2.82679 8.5384V9.72273C2.30896 9.67436 1.78767 9.64936 1.26429 9.64936C1.06815 9.64936 0.90918 9.80836 0.90918 10.0045C0.90918 10.2006 1.06815 10.3596 1.26429 10.3596C4.10382 10.3596 6.88119 11.1109 9.32963 12.5362C8.74303 12.9349 8.18276 13.3703 7.65232 13.839C5.66853 12.8284 3.46433 12.295 1.26429 12.295C1.06829 12.295 0.90918 12.4539 0.90918 12.6501C0.90918 12.8463 1.06829 13.0052 1.26429 13.0052C3.26611 13.0052 5.27194 13.4707 7.09426 14.3548C6.55437 14.877 6.04973 15.4358 5.58405 16.0265C4.20272 15.4472 2.75092 15.1536 1.26429 15.1536C1.06829 15.1536 0.90918 15.3126 0.90918 15.5087C0.90918 15.7049 1.06829 15.8639 1.26429 15.8639C2.59597 15.8639 3.89796 16.1164 5.14169 16.6135C4.8963 16.9545 4.66312 17.3047 4.44381 17.6643L3.90268 18.5508C3.80044 18.7181 3.85343 18.9367 4.02072 19.0388C4.07857 19.0742 4.14238 19.091 4.20549 19.091C4.32507 19.091 4.44201 19.0304 4.50886 18.9207L5.05 18.0342C5.33214 17.5719 5.63704 17.127 5.96205 16.6999C5.97482 16.6857 5.98675 16.6706 5.99715 16.6541ZM13.7435 5.12363C13.7435 3.86144 14.321 2.66584 15.3765 1.72896C16.4319 2.66584 17.0095 3.86144 17.0095 5.12363C17.0095 6.23585 16.5605 7.29662 15.7315 8.17399V5.4546C15.7315 5.25845 15.5726 5.09949 15.3765 5.09949C15.1803 5.09949 15.0214 5.25845 15.0214 5.4546V8.17399C14.1923 7.29662 13.7435 6.23585 13.7435 5.12363ZM2.03389 5.4546C2.03389 4.54878 2.43936 3.68846 3.18191 3.00487C3.92445 3.68833 4.32992 4.54878 4.32992 5.4546C4.32992 6.20325 4.05263 6.92097 3.53702 7.53355V5.17051C3.53702 4.97436 3.37805 4.8154 3.18191 4.8154C2.9859 4.8154 2.82679 4.97436 2.82679 5.17051V7.53355C2.31119 6.92097 2.03389 6.20325 2.03389 5.4546ZM11.8215 8.21255H8.76288L7.48031 6.92235H10.539L11.8215 8.21255ZM6.62651 7.07093L7.76148 8.21255H5.49167L6.62651 7.07093ZM4.99299 8.92278H8.26002V11.1811C8.09537 11.1054 7.92974 11.0321 7.76287 10.9618V9.76909C7.76287 9.57309 7.6039 9.414 7.40775 9.414H5.84526C5.64925 9.414 5.49014 9.57309 5.49014 9.76909V10.1914C5.32507 10.1484 5.15944 10.1075 4.99299 10.0695V8.92278ZM7.05264 10.6815C6.77105 10.5778 6.48696 10.4815 6.20037 10.3932V10.1242H7.05264V10.6815ZM8.97025 11.5285V8.92278H12.3203V10.9225C11.712 11.1745 11.1175 11.4623 10.5414 11.7857C10.3572 11.8891 10.1752 11.9965 9.99527 12.1066C9.65954 11.9015 9.31772 11.7087 8.97025 11.5285Z" stroke="#151515" stroke-width="0.181818"/>
</g>
<mask id="mask4_6074_2304" style="mask-type:luminance" maskUnits="userSpaceOnUse" x="0" y="0" width="20" height="20">
<path d="M20 0H0V20H20V0Z" fill="white"/>
<path d="M18.7361 15.1475C15.7703 15.1475 12.8594 16.364 10.7499 18.4851C10.6114 18.6242 10.6122 18.8491 10.7512 18.9873C10.8205 19.0562 10.9109 19.0906 11.0016 19.0906C11.0928 19.0906 11.1839 19.0557 11.2534 18.986C13.2307 16.9979 15.958 15.8576 18.7361 15.8576C18.9322 15.8576 19.0912 15.6987 19.0912 15.5026C19.0912 15.3066 18.9322 15.1475 18.7361 15.1475Z" fill="black"/>
<path d="M11.3301 14.8185C11.2203 14.6559 10.9995 14.6132 10.8371 14.723C9.31854 15.7488 8.03615 17.0321 7.02519 18.5375C6.91588 18.7003 6.95916 18.921 7.122 19.0303C7.1829 19.0711 7.25157 19.0907 7.31968 19.0907C7.43398 19.0907 7.54634 19.0355 7.61487 18.9335C8.5745 17.5043 9.79227 16.2857 11.2346 15.3115C11.3971 15.2018 11.4398 14.981 11.3301 14.8185Z" fill="black"/>
<path d="M18.7353 12.2886C17.1477 12.2886 15.5763 12.5598 14.0649 13.0947C13.8799 13.16 13.7831 13.3629 13.8486 13.5478C13.9001 13.6937 14.0371 13.7847 14.1833 13.7847C14.2226 13.7847 14.2626 13.778 14.3019 13.7641C15.7369 13.2563 17.2286 12.9988 18.7353 12.9988C18.9315 12.9988 19.0904 12.8398 19.0904 12.6438C19.0904 12.4476 18.9315 12.2886 18.7353 12.2886Z" fill="black"/>
<path d="M5.99715 16.6541C8.33341 13.6081 11.7153 11.4931 15.4471 10.7005L15.449 10.7C16.5215 10.4724 17.6224 10.3538 18.7359 10.3538C18.9319 10.3538 19.091 10.1946 19.091 9.99864C19.091 9.80254 18.9319 9.64354 18.7359 9.64354C17.7262 9.64354 16.7204 9.73591 15.7315 9.91673V9.15018C17.0151 8.06357 17.7196 6.63979 17.7196 5.12363C17.7196 3.55599 16.9665 2.08713 15.5989 0.987517C15.469 0.883067 15.2838 0.883067 15.1538 0.987517C13.7864 2.08713 13.0331 3.55599 13.0331 5.12363C13.0331 6.63979 13.7378 8.06357 15.0212 9.15018V10.0619C14.3465 10.2155 13.6815 10.4112 13.0304 10.6469V8.56767C13.0304 8.47002 12.9909 8.38165 12.9272 8.31743L10.9385 6.31686C10.8718 6.24986 10.7812 6.21213 10.6866 6.21213H6.62651C6.53204 6.21213 6.44133 6.24986 6.37473 6.31686L4.3861 8.31729C4.32229 8.38152 4.28276 8.47002 4.28276 8.56781V9.92391C4.03529 9.87854 3.78671 9.83854 3.53702 9.80445V8.53854C4.50762 7.70361 5.04015 6.61468 5.04015 5.4546C5.04015 4.24264 4.45921 3.10822 3.40441 2.25996C3.27443 2.15551 3.08938 2.15551 2.95941 2.25996C1.90461 3.10807 1.32366 4.24264 1.32366 5.4546C1.32366 6.61454 1.8562 7.70347 2.82679 8.5384V9.72273C2.30896 9.67436 1.78767 9.64936 1.26429 9.64936C1.06815 9.64936 0.90918 9.80836 0.90918 10.0045C0.90918 10.2006 1.06815 10.3596 1.26429 10.3596C4.10382 10.3596 6.88119 11.1109 9.32963 12.5362C8.74303 12.9349 8.18276 13.3703 7.65232 13.839C5.66853 12.8284 3.46433 12.295 1.26429 12.295C1.06829 12.295 0.90918 12.4539 0.90918 12.6501C0.90918 12.8463 1.06829 13.0052 1.26429 13.0052C3.26611 13.0052 5.27194 13.4707 7.09426 14.3548C6.55437 14.877 6.04973 15.4358 5.58405 16.0265C4.20272 15.4472 2.75092 15.1536 1.26429 15.1536C1.06829 15.1536 0.90918 15.3126 0.90918 15.5087C0.90918 15.7049 1.06829 15.8639 1.26429 15.8639C2.59597 15.8639 3.89796 16.1164 5.14169 16.6135C4.8963 16.9545 4.66312 17.3047 4.44381 17.6643L3.90268 18.5508C3.80044 18.7181 3.85343 18.9367 4.02073 19.0388C4.07857 19.0742 4.14238 19.091 4.20549 19.091C4.32507 19.091 4.44201 19.0304 4.50886 18.9207L5.05 18.0342C5.33214 17.5719 5.63704 17.127 5.96205 16.6999C5.97482 16.6857 5.98675 16.6706 5.99715 16.6541ZM13.7435 5.12363C13.7435 3.86144 14.321 2.66584 15.3765 1.72896C16.4319 2.66584 17.0095 3.86144 17.0095 5.12363C17.0095 6.23585 16.5605 7.29662 15.7315 8.17399V5.4546C15.7315 5.25845 15.5726 5.09949 15.3765 5.09949C15.1803 5.09949 15.0214 5.25845 15.0214 5.4546V8.17399C14.1923 7.29662 13.7435 6.23585 13.7435 5.12363ZM2.03389 5.4546C2.03389 4.54878 2.43936 3.68846 3.18191 3.00487C3.92445 3.68833 4.32992 4.54878 4.32992 5.4546C4.32992 6.20325 4.05262 6.92097 3.53702 7.53355V5.17051C3.53702 4.97436 3.37805 4.8154 3.18191 4.8154C2.9859 4.8154 2.82679 4.97436 2.82679 5.17051V7.53355C2.31119 6.92097 2.03389 6.20325 2.03389 5.4546ZM11.8215 8.21255H8.76288L7.48031 6.92235H10.539L11.8215 8.21255ZM6.62651 7.07093L7.76148 8.21255H5.49167L6.62651 7.07093ZM4.99299 8.92278H8.26002V11.1811C8.09537 11.1054 7.92974 11.0321 7.76287 10.9618V9.76909C7.76287 9.57309 7.6039 9.414 7.40775 9.414H5.84526C5.64925 9.414 5.49014 9.57309 5.49014 9.76909V10.1914C5.32507 10.1484 5.15944 10.1075 4.99299 10.0695V8.92278ZM7.05264 10.6815C6.77105 10.5778 6.48696 10.4815 6.20037 10.3932V10.1242H7.05264V10.6815ZM8.97025 11.5285V8.92278H12.3203V10.9225C11.712 11.1745 11.1175 11.4623 10.5414 11.7857C10.3572 11.8891 10.1752 11.9965 9.99527 12.1066C9.65954 11.9015 9.31773 11.7087 8.97025 11.5285Z" fill="black"/>
<path d="M15.3767 4.46023C15.47 4.46023 15.5617 4.42222 15.6277 4.35605C15.6938 4.29002 15.7318 4.19847 15.7318 4.10511C15.7318 4.01162 15.6938 3.92006 15.6277 3.85404C15.5617 3.78787 15.47 3.75 15.3767 3.75C15.2833 3.75 15.1916 3.78787 15.1257 3.85404C15.0595 3.92006 15.0215 4.01162 15.0215 4.10511C15.0215 4.19847 15.0595 4.29002 15.1257 4.35605C15.1916 4.42208 15.2833 4.46023 15.3767 4.46023Z" fill="black"/>
<path d="M12.2935 13.8803C12.2276 13.9463 12.1895 14.0379 12.1895 14.1312C12.1895 14.225 12.2275 14.3163 12.2935 14.3823C12.3596 14.4485 12.4512 14.4863 12.5445 14.4863C12.6381 14.4863 12.7296 14.4485 12.7956 14.3823C12.8616 14.3163 12.8997 14.225 12.8997 14.1312C12.8997 14.0379 12.8616 13.9463 12.7956 13.8803C12.7296 13.8141 12.6381 13.7761 12.5445 13.7761C12.4512 13.7761 12.3596 13.8141 12.2935 13.8803Z" fill="black"/>
</mask>
<g mask="url(#mask4_6074_2304)">
<path d="M15.3767 4.46023C15.47 4.46023 15.5617 4.42222 15.6277 4.35605C15.6938 4.29002 15.7318 4.19847 15.7318 4.10511C15.7318 4.01162 15.6938 3.92006 15.6277 3.85404C15.5617 3.78787 15.47 3.75 15.3767 3.75C15.2833 3.75 15.1916 3.78787 15.1257 3.85404C15.0595 3.92006 15.0215 4.01162 15.0215 4.10511C15.0215 4.19847 15.0595 4.29002 15.1257 4.35605C15.1916 4.42208 15.2833 4.46023 15.3767 4.46023Z" stroke="#151515" stroke-width="0.181818"/>
</g>
<mask id="mask5_6074_2304" style="mask-type:luminance" maskUnits="userSpaceOnUse" x="0" y="0" width="20" height="20">
<path d="M20 0H0V20H20V0Z" fill="white"/>
<path d="M18.7361 15.1475C15.7703 15.1475 12.8594 16.364 10.7499 18.4851C10.6114 18.6242 10.6122 18.8491 10.7512 18.9873C10.8205 19.0562 10.9109 19.0906 11.0016 19.0906C11.0928 19.0906 11.1839 19.0557 11.2534 18.986C13.2307 16.9979 15.958 15.8576 18.7361 15.8576C18.9322 15.8576 19.0912 15.6987 19.0912 15.5026C19.0912 15.3066 18.9322 15.1475 18.7361 15.1475Z" fill="black"/>
<path d="M11.3301 14.8185C11.2203 14.6559 10.9995 14.6132 10.8371 14.723C9.31854 15.7488 8.03615 17.0321 7.02519 18.5375C6.91588 18.7003 6.95916 18.921 7.122 19.0303C7.1829 19.0711 7.25157 19.0907 7.31968 19.0907C7.43398 19.0907 7.54634 19.0355 7.61487 18.9335C8.5745 17.5043 9.79227 16.2857 11.2346 15.3115C11.3971 15.2018 11.4398 14.981 11.3301 14.8185Z" fill="black"/>
<path d="M18.7353 12.2886C17.1477 12.2886 15.5763 12.5598 14.0649 13.0947C13.8799 13.16 13.7831 13.3629 13.8486 13.5478C13.9001 13.6937 14.0371 13.7847 14.1833 13.7847C14.2226 13.7847 14.2626 13.778 14.3019 13.7641C15.7369 13.2563 17.2286 12.9988 18.7353 12.9988C18.9315 12.9988 19.0904 12.8398 19.0904 12.6438C19.0904 12.4476 18.9315 12.2886 18.7353 12.2886Z" fill="black"/>
<path d="M5.99715 16.6541C8.33341 13.6081 11.7153 11.4931 15.4471 10.7005L15.449 10.7C16.5215 10.4724 17.6224 10.3538 18.7359 10.3538C18.9319 10.3538 19.091 10.1946 19.091 9.99864C19.091 9.80254 18.9319 9.64354 18.7359 9.64354C17.7262 9.64354 16.7204 9.73591 15.7315 9.91673V9.15018C17.0151 8.06357 17.7196 6.63979 17.7196 5.12363C17.7196 3.55599 16.9665 2.08713 15.5989 0.987517C15.469 0.883067 15.2838 0.883067 15.1538 0.987517C13.7864 2.08713 13.0331 3.55599 13.0331 5.12363C13.0331 6.63979 13.7378 8.06357 15.0212 9.15018V10.0619C14.3465 10.2155 13.6815 10.4112 13.0304 10.6469V8.56767C13.0304 8.47002 12.9909 8.38165 12.9272 8.31743L10.9385 6.31686C10.8718 6.24986 10.7812 6.21213 10.6866 6.21213H6.62651C6.53204 6.21213 6.44133 6.24986 6.37473 6.31686L4.3861 8.31729C4.32229 8.38152 4.28276 8.47002 4.28276 8.56781V9.92391C4.03529 9.87854 3.78671 9.83854 3.53702 9.80445V8.53854C4.50762 7.70361 5.04015 6.61468 5.04015 5.4546C5.04015 4.24264 4.45921 3.10822 3.40441 2.25996C3.27443 2.15551 3.08938 2.15551 2.95941 2.25996C1.90461 3.10807 1.32366 4.24264 1.32366 5.4546C1.32366 6.61454 1.8562 7.70347 2.82679 8.5384V9.72273C2.30896 9.67436 1.78767 9.64936 1.26429 9.64936C1.06815 9.64936 0.90918 9.80836 0.90918 10.0045C0.90918 10.2006 1.06815 10.3596 1.26429 10.3596C4.10382 10.3596 6.88119 11.1109 9.32963 12.5362C8.74303 12.9349 8.18276 13.3703 7.65232 13.839C5.66853 12.8284 3.46433 12.295 1.26429 12.295C1.06829 12.295 0.90918 12.4539 0.90918 12.6501C0.90918 12.8463 1.06829 13.0052 1.26429 13.0052C3.26611 13.0052 5.27194 13.4707 7.09426 14.3548C6.55437 14.877 6.04973 15.4358 5.58405 16.0265C4.20272 15.4472 2.75092 15.1536 1.26429 15.1536C1.06829 15.1536 0.90918 15.3126 0.90918 15.5087C0.90918 15.7049 1.06829 15.8639 1.26429 15.8639C2.59597 15.8639 3.89796 16.1164 5.14169 16.6135C4.8963 16.9545 4.66312 17.3047 4.44381 17.6643L3.90268 18.5508C3.80044 18.7181 3.85343 18.9367 4.02073 19.0388C4.07857 19.0742 4.14238 19.091 4.20549 19.091C4.32507 19.091 4.44201 19.0304 4.50886 18.9207L5.05 18.0342C5.33214 17.5719 5.63704 17.127 5.96205 16.6999C5.97482 16.6857 5.98675 16.6706 5.99715 16.6541ZM13.7435 5.12363C13.7435 3.86144 14.321 2.66584 15.3765 1.72896C16.4319 2.66584 17.0095 3.86144 17.0095 5.12363C17.0095 6.23585 16.5605 7.29662 15.7315 8.17399V5.4546C15.7315 5.25845 15.5726 5.09949 15.3765 5.09949C15.1803 5.09949 15.0214 5.25845 15.0214 5.4546V8.17399C14.1923 7.29662 13.7435 6.23585 13.7435 5.12363ZM2.03389 5.4546C2.03389 4.54878 2.43936 3.68846 3.18191 3.00487C3.92445 3.68833 4.32992 4.54878 4.32992 5.4546C4.32992 6.20325 4.05262 6.92097 3.53702 7.53355V5.17051C3.53702 4.97436 3.37805 4.8154 3.18191 4.8154C2.9859 4.8154 2.82679 4.97436 2.82679 5.17051V7.53355C2.31119 6.92097 2.03389 6.20325 2.03389 5.4546ZM11.8215 8.21255H8.76288L7.48031 6.92235H10.539L11.8215 8.21255ZM6.62651 7.07093L7.76148 8.21255H5.49167L6.62651 7.07093ZM4.99299 8.92278H8.26002V11.1811C8.09537 11.1054 7.92974 11.0321 7.76287 10.9618V9.76909C7.76287 9.57309 7.6039 9.414 7.40775 9.414H5.84526C5.64925 9.414 5.49014 9.57309 5.49014 9.76909V10.1914C5.32507 10.1484 5.15944 10.1075 4.99299 10.0695V8.92278ZM7.05264 10.6815C6.77105 10.5778 6.48696 10.4815 6.20037 10.3932V10.1242H7.05264V10.6815ZM8.97025 11.5285V8.92278H12.3203V10.9225C11.712 11.1745 11.1175 11.4623 10.5414 11.7857C10.3572 11.8891 10.1752 11.9965 9.99527 12.1066C9.65954 11.9015 9.31773 11.7087 8.97025 11.5285Z" fill="black"/>
<path d="M15.3767 4.46023C15.47 4.46023 15.5617 4.42222 15.6277 4.35605C15.6938 4.29002 15.7318 4.19847 15.7318 4.10511C15.7318 4.01162 15.6938 3.92006 15.6277 3.85404C15.5617 3.78787 15.47 3.75 15.3767 3.75C15.2833 3.75 15.1916 3.78787 15.1257 3.85404C15.0595 3.92006 15.0215 4.01162 15.0215 4.10511C15.0215 4.19847 15.0595 4.29002 15.1257 4.35605C15.1916 4.42208 15.2833 4.46023 15.3767 4.46023Z" fill="black"/>
<path d="M12.2935 13.8803C12.2276 13.9463 12.1895 14.0379 12.1895 14.1312C12.1895 14.225 12.2275 14.3163 12.2935 14.3823C12.3596 14.4485 12.4512 14.4863 12.5445 14.4863C12.6381 14.4863 12.7296 14.4485 12.7956 14.3823C12.8616 14.3163 12.8997 14.225 12.8997 14.1312C12.8997 14.0379 12.8616 13.9463 12.7956 13.8803C12.7296 13.8141 12.6381 13.7761 12.5445 13.7761C12.4512 13.7761 12.3596 13.8141 12.2935 13.8803Z" fill="black"/>
</mask>
<g mask="url(#mask5_6074_2304)">
<path d="M12.2935 13.8803C12.2276 13.9463 12.1895 14.0379 12.1895 14.1312C12.1895 14.225 12.2275 14.3163 12.2935 14.3823C12.3596 14.4485 12.4512 14.4863 12.5445 14.4863C12.6381 14.4863 12.7296 14.4485 12.7956 14.3823C12.8616 14.3163 12.8997 14.225 12.8997 14.1312C12.8997 14.0379 12.8616 13.9463 12.7956 13.8803C12.7296 13.8141 12.6381 13.7761 12.5445 13.7761C12.4512 13.7761 12.3596 13.8141 12.2935 13.8803Z" stroke="#151515" stroke-width="0.181818"/>
</g>
</g>
<defs>
<clipPath id="clip0_6074_2304">
<rect width="20" height="20" fill="white"/>
</clipPath>
</defs>
</svg>
