<svg width="16" height="17" viewBox="0 0 16 17" fill="none" xmlns="http://www.w3.org/2000/svg">
<g clip-path="url(#clip0_6074_2415)">
<path d="M0 15.7833H-0.05V15.8333V16.4999V16.5499H0H16H16.05V16.4999V15.8333V15.7833H16H0Z" fill="#151515" stroke="black" stroke-width="0.1"/>
<path d="M0.333984 13.45H0.283984V13.5V14.1667V14.2167H0.333984H1.334H1.384V14.1667V13.5V13.45H1.334H0.333984Z" fill="#151515" stroke="black" stroke-width="0.1"/>
<path d="M2.33398 13.45H2.28398V13.5V14.1667V14.2167H2.33398H3.334H3.384V14.1667V13.5V13.45H3.334H2.33398Z" fill="#151515" stroke="black" stroke-width="0.1"/>
<path d="M4.33398 13.45H4.28398V13.5V14.1667V14.2167H4.33398H5.334H5.384V14.1667V13.5V13.45H5.334H4.33398Z" fill="#151515" stroke="black" stroke-width="0.1"/>
<path d="M6.33398 13.45H6.28398V13.5V14.1667V14.2167H6.33398H7.334H7.384V14.1667V13.5V13.45H7.334H6.33398Z" fill="#151515" stroke="black" stroke-width="0.1"/>
<path d="M8.33398 13.45H8.28398V13.5V14.1667V14.2167H8.33398H9.334H9.384V14.1667V13.5V13.45H9.334H8.33398Z" fill="#151515" stroke="black" stroke-width="0.1"/>
<path d="M10.334 13.45H10.284V13.5V14.1667V14.2167H10.334H11.334H11.384V14.1667V13.5V13.45H11.334H10.334Z" fill="#151515" stroke="black" stroke-width="0.1"/>
<path d="M12.334 13.45H12.284V13.5V14.1667V14.2167H12.334H13.334H13.384V14.1667V13.5V13.45H13.334H12.334Z" fill="#151515" stroke="black" stroke-width="0.1"/>
<path d="M14.334 13.45H14.284V13.5V14.1667V14.2167H14.334H15.334H15.384V14.1667V13.5V13.45H15.334H14.334Z" fill="#151515" stroke="black" stroke-width="0.1"/>
<path d="M11 4.78325H10.95V4.83325V5.49991V5.54991H11H13H13.05V5.49991V4.83325V4.78325H13H11Z" fill="#151515" stroke="black" stroke-width="0.1"/>
<path d="M3 4.78325H2.95V4.83325V5.49991V5.54991H3H5H5.05V5.49991V4.83325V4.78325H5H3Z" fill="#151515" stroke="black" stroke-width="0.1"/>
<path d="M1.90333 11.8833H1.93858L1.95042 11.8501L3.85376 6.51681L3.8776 6.45H3.80667H2.33332H2.28332V6.5V7.16669V7.21669H2.33332H2.78903L1.39478 11.1167H0H-0.05V11.1667V11.8333V11.8833H0H1.90333Z" fill="#151515" stroke="black" stroke-width="0.1"/>
<path d="M12.4126 11.8833H12.4744L12.4615 11.8229L11.3181 6.48952L11.3097 6.45H11.2692H9.99924H9.94924V6.5V7.16669V7.21669H9.99924H10.6888L11.5241 11.1167H4.47444L5.30968 7.21669H5.99925H6.04925V7.16669V6.5V6.45H5.99925H4.72925H4.68883L4.68036 6.48952L3.53705 11.8229L3.52408 11.8833H3.58594H12.4126Z" fill="#151515" stroke="black" stroke-width="0.1"/>
<path d="M16 11.8833H16.05V11.8333V11.1667V11.1167H16H14.6052L13.211 7.21669H13.6667H13.7167V7.16669V6.5V6.45H13.6667H12.1934H12.1224L12.1463 6.51681L14.0496 11.8501L14.0614 11.8833H14.0967H16Z" fill="#151515" stroke="black" stroke-width="0.1"/>
<path d="M7.96183 8.39487L8.00063 8.44264L8.03944 8.39487L8.29944 8.07486L8.29957 8.07469C8.34851 8.01392 8.95175 7.2611 9.54301 6.28208C9.83863 5.79257 10.1318 5.2456 10.3512 4.69962C10.5704 4.15422 10.7173 3.60659 10.7173 3.11665C10.7173 1.64482 9.49732 0.45 8.00063 0.45C6.50395 0.45 5.28398 1.64482 5.28398 3.11665C5.28398 3.60577 5.43087 4.15278 5.65004 4.69777C5.86945 5.24332 6.16264 5.79009 6.45826 6.2796C7.02426 7.2168 7.60128 7.94751 7.69207 8.06249C7.69613 8.06763 7.69921 8.07153 7.70128 8.07418L7.70128 8.07418L7.70183 8.07486L7.96183 8.39487ZM6.05064 3.11665C6.05064 2.0688 6.9237 1.21665 8.00063 1.21665C9.07757 1.21665 9.95063 2.06883 9.95063 3.11665C9.95063 3.77123 9.60482 4.60397 9.1793 5.37882C8.77366 6.11747 8.30017 6.79551 8.00063 7.20249C7.7011 6.79552 7.22761 6.11748 6.82197 5.37883C6.39645 4.60399 6.05064 3.77125 6.05064 3.11665Z" fill="#151515" stroke="black" stroke-width="0.1"/>
<path d="M8.28334 3.16675V3.16676C8.28334 3.32249 8.15574 3.45009 8.00001 3.45009C7.84429 3.45009 7.71669 3.32249 7.71669 3.16676C7.71669 3.01104 7.84429 2.88344 8.00001 2.88344C8.15575 2.88344 8.28337 3.01107 8.28334 3.16675ZM6.95 3.16676C6.95 3.7444 7.42241 4.21678 8.00001 4.21678C8.57765 4.21678 9.05003 3.7444 9.05003 3.16676C9.05003 2.58913 8.57765 2.11675 8.00001 2.11675C7.42238 2.11675 6.95 2.58913 6.95 3.16676Z" fill="#151515" stroke="black" stroke-width="0.1"/>
</g>
<defs>
<clipPath id="clip0_6074_2415">
<rect width="16" height="16" fill="white" transform="translate(0 0.5)"/>
</clipPath>
</defs>
</svg>
