<svg width="33" height="32" viewBox="0 0 33 32" fill="none" xmlns="http://www.w3.org/2000/svg">
<path d="M27.5 4.99951H9.5C8.96957 4.99951 8.46086 5.21023 8.08579 5.5853C7.71071 5.96037 7.5 6.46908 7.5 6.99951V8.99951H5.5C4.96957 8.99951 4.46086 9.21023 4.08579 9.5853C3.71071 9.96037 3.5 10.4691 3.5 10.9995V24.9995C3.5 25.5299 3.71071 26.0387 4.08579 26.4137C4.46086 26.7888 4.96957 26.9995 5.5 26.9995H23.5C24.0304 26.9995 24.5391 26.7888 24.9142 26.4137C25.2893 26.0387 25.5 25.5299 25.5 24.9995V22.9995H27.5C28.0304 22.9995 28.5391 22.7888 28.9142 22.4137C29.2893 22.0387 29.5 21.5299 29.5 20.9995V6.99951C29.5 6.46908 29.2893 5.96037 28.9142 5.5853C28.5391 5.21023 28.0304 4.99951 27.5 4.99951ZM9.5 6.99951H27.5V14.8433L26.2412 13.5858C26.0555 13.4 25.835 13.2526 25.5923 13.1521C25.3497 13.0516 25.0896 12.9998 24.8269 12.9998C24.5642 12.9998 24.3041 13.0516 24.0614 13.1521C23.8187 13.2526 23.5982 13.4 23.4125 13.5858L20.9125 16.0858L15.4125 10.5858C15.0375 10.211 14.529 10.0004 13.9987 10.0004C13.4685 10.0004 12.96 10.211 12.585 10.5858L9.5 13.6708V6.99951ZM23.5 24.9995H5.5V10.9995H7.5V20.9995C7.5 21.5299 7.71071 22.0387 8.08579 22.4137C8.46086 22.7888 8.96957 22.9995 9.5 22.9995H23.5V24.9995ZM27.5 20.9995H9.5V16.4995L14 11.9995L20.2075 18.207C20.395 18.3944 20.6493 18.4997 20.9144 18.4997C21.1795 18.4997 21.4337 18.3944 21.6213 18.207L24.8288 14.9995L27.5 17.672V20.9995ZM20.5 10.4995C20.5 10.2028 20.588 9.91283 20.7528 9.66616C20.9176 9.41948 21.1519 9.22722 21.426 9.11369C21.7001 9.00016 22.0017 8.97046 22.2926 9.02833C22.5836 9.08621 22.8509 9.22907 23.0607 9.43885C23.2704 9.64863 23.4133 9.9159 23.4712 10.2069C23.5291 10.4978 23.4993 10.7994 23.3858 11.0735C23.2723 11.3476 23.08 11.5819 22.8334 11.7467C22.5867 11.9115 22.2967 11.9995 22 11.9995C21.6022 11.9995 21.2206 11.8415 20.9393 11.5602C20.658 11.2789 20.5 10.8973 20.5 10.4995Z" fill="white"/>
</svg>
