<svg xmlns="http://www.w3.org/2000/svg" width="21" height="20" viewBox="0 0 21 20" fill="none">
  <path d="M10.7998 1.875C9.19283 1.875 7.62195 2.35152 6.2858 3.24431C4.94965 4.1371 3.90825 5.40605 3.29329 6.8907C2.67833 8.37535 2.51742 10.009 2.83093 11.5851C3.14443 13.1612 3.91826 14.6089 5.05457 15.7452C6.19087 16.8815 7.6386 17.6554 9.2147 17.9689C10.7908 18.2824 12.4245 18.1215 13.9091 17.5065C15.3938 16.8916 16.6627 15.8502 17.5555 14.514C18.4483 13.1779 18.9248 11.607 18.9248 10C18.9225 7.84581 18.0658 5.78051 16.5425 4.25727C15.0193 2.73403 12.954 1.87727 10.7998 1.875ZM10.7998 16.875C9.44006 16.875 8.11085 16.4718 6.98026 15.7164C5.84967 14.9609 4.96849 13.8872 4.44814 12.6309C3.92778 11.3747 3.79164 9.99237 4.05691 8.65875C4.32218 7.32513 4.97696 6.10013 5.93845 5.13864C6.89994 4.17716 8.12494 3.52237 9.45856 3.2571C10.7922 2.99183 12.1745 3.12798 13.4308 3.64833C14.687 4.16868 15.7607 5.04987 16.5162 6.18045C17.2716 7.31104 17.6748 8.64025 17.6748 10C17.6727 11.8227 16.9477 13.5702 15.6589 14.8591C14.37 16.1479 12.6225 16.8729 10.7998 16.875ZM12.0498 13.75C12.0498 13.9158 11.984 14.0747 11.8668 14.1919C11.7495 14.3092 11.5906 14.375 11.4248 14.375C11.0933 14.375 10.7753 14.2433 10.5409 14.0089C10.3065 13.7745 10.1748 13.4565 10.1748 13.125V10C10.009 10 9.85008 9.93415 9.73287 9.81694C9.61566 9.69973 9.54981 9.54076 9.54981 9.375C9.54981 9.20924 9.61566 9.05027 9.73287 8.93306C9.85008 8.81585 10.009 8.75 10.1748 8.75C10.5063 8.75 10.8243 8.8817 11.0587 9.11612C11.2931 9.35054 11.4248 9.66848 11.4248 10V13.125C11.5906 13.125 11.7495 13.1908 11.8668 13.3081C11.984 13.4253 12.0498 13.5842 12.0498 13.75ZM9.54981 6.5625C9.54981 6.37708 9.60479 6.19582 9.70781 6.04165C9.81082 5.88748 9.95724 5.76732 10.1285 5.69636C10.2998 5.62541 10.4883 5.60684 10.6702 5.64301C10.8521 5.67919 11.0191 5.76848 11.1502 5.89959C11.2813 6.0307 11.3706 6.19775 11.4068 6.3796C11.443 6.56146 11.4244 6.74996 11.3534 6.92127C11.2825 7.09257 11.1623 7.23899 11.0082 7.342C10.854 7.44502 10.6727 7.5 10.4873 7.5C10.2387 7.5 10.0002 7.40123 9.8244 7.22541C9.64858 7.0496 9.54981 6.81114 9.54981 6.5625Z" fill="#35353D"/>
</svg>