<svg width="16" height="17" viewBox="0 0 16 17" fill="none" xmlns="http://www.w3.org/2000/svg">
<path d="M12.5 14.4998H9.40875C9.92803 14.0361 10.4177 13.5403 10.875 13.0154C12.5906 11.0423 13.5 8.96226 13.5 6.99976C13.5 5.54107 12.9205 4.14212 11.8891 3.11067C10.8576 2.07922 9.45869 1.49976 8 1.49976C6.54131 1.49976 5.14236 2.07922 4.11091 3.11067C3.07946 4.14212 2.5 5.54107 2.5 6.99976C2.5 8.96226 3.40688 11.0423 5.125 13.0154C5.58226 13.5403 6.07197 14.0361 6.59125 14.4998H3.5C3.36739 14.4998 3.24021 14.5524 3.14645 14.6462C3.05268 14.74 3 14.8671 3 14.9998C3 15.1324 3.05268 15.2595 3.14645 15.3533C3.24021 15.4471 3.36739 15.4998 3.5 15.4998H12.5C12.6326 15.4998 12.7598 15.4471 12.8536 15.3533C12.9473 15.2595 13 15.1324 13 14.9998C13 14.8671 12.9473 14.74 12.8536 14.6462C12.7598 14.5524 12.6326 14.4998 12.5 14.4998ZM3.5 6.99976C3.5 5.80628 3.97411 4.66169 4.81802 3.81778C5.66193 2.97386 6.80653 2.49976 8 2.49976C9.19347 2.49976 10.3381 2.97386 11.182 3.81778C12.0259 4.66169 12.5 5.80628 12.5 6.99976C12.5 10.5766 9.03312 13.5623 8 14.3748C6.96688 13.5623 3.5 10.5766 3.5 6.99976ZM10.5 6.99976C10.5 6.5053 10.3534 6.02195 10.0787 5.61083C9.80397 5.19971 9.41352 4.87928 8.95671 4.69006C8.49989 4.50084 7.99723 4.45133 7.51227 4.54779C7.02732 4.64426 6.58186 4.88236 6.23223 5.23199C5.8826 5.58162 5.6445 6.02708 5.54804 6.51203C5.45157 6.99698 5.50108 7.49965 5.6903 7.95646C5.87952 8.41328 6.19995 8.80373 6.61107 9.07843C7.0222 9.35313 7.50555 9.49976 8 9.49976C8.66304 9.49976 9.29893 9.23636 9.76777 8.76752C10.2366 8.29868 10.5 7.6628 10.5 6.99976ZM6.5 6.99976C6.5 6.70308 6.58797 6.41307 6.7528 6.1664C6.91762 5.91973 7.15189 5.72747 7.42597 5.61394C7.70006 5.5004 8.00166 5.4707 8.29264 5.52858C8.58361 5.58646 8.85088 5.72932 9.06066 5.9391C9.27044 6.14887 9.4133 6.41615 9.47118 6.70712C9.52906 6.99809 9.49935 7.29969 9.38582 7.57378C9.27229 7.84787 9.08003 8.08214 8.83335 8.24696C8.58668 8.41178 8.29667 8.49976 8 8.49976C7.60218 8.49976 7.22064 8.34172 6.93934 8.06042C6.65804 7.77911 6.5 7.39758 6.5 6.99976Z" fill="#35353D"/>
</svg>
