<svg width="18" height="18" viewBox="0 0 18 18" fill="none" xmlns="http://www.w3.org/2000/svg">
<path d="M17.4114 2.80487C17.4033 2.66726 17.345 2.53739 17.2476 2.43992C17.1501 2.34244 17.0202 2.28416 16.8826 2.27612C13.2432 2.06518 10.321 3.1719 9.06526 5.24471C8.23557 6.6151 8.23698 8.2794 9.05401 9.86706C8.58896 10.4207 8.24909 11.0683 8.05768 11.7655L6.9137 10.6173C7.46354 9.46909 7.44245 8.27237 6.84338 7.27815C5.91526 5.74604 3.77284 4.92479 1.11292 5.08089C0.975303 5.08892 0.845433 5.14721 0.747961 5.24468C0.650489 5.34215 0.592202 5.47202 0.584165 5.60964C0.427368 8.26956 1.24932 10.412 2.78143 11.3401C3.28702 11.649 3.86801 11.8125 4.46049 11.8126C5.03558 11.8055 5.60172 11.6693 6.11706 11.4139L7.87487 13.1717V15.1876C7.87487 15.3368 7.93413 15.4799 8.03962 15.5854C8.14511 15.6908 8.28818 15.7501 8.43737 15.7501C8.58655 15.7501 8.72963 15.6908 8.83512 15.5854C8.94061 15.4799 8.99987 15.3368 8.99987 15.1876V13.1141C8.99737 12.2192 9.30189 11.3506 9.8626 10.6532C10.5861 11.0312 11.3885 11.2336 12.2047 11.2438C12.9939 11.2463 13.7684 11.0307 14.4428 10.6208C16.5156 9.36643 17.6251 6.44424 17.4114 2.80487ZM3.36151 10.3782C2.28292 9.72503 1.6726 8.17885 1.68737 6.1876C3.67862 6.17073 5.22479 6.78315 5.87799 7.86174C6.21901 8.42424 6.27456 9.08026 6.05096 9.75596L4.33463 8.03963C4.22829 7.9386 4.08668 7.8831 3.94 7.88498C3.79332 7.88686 3.65318 7.94596 3.54945 8.04969C3.44573 8.15341 3.38662 8.29356 3.38475 8.44023C3.38287 8.58691 3.43836 8.72852 3.5394 8.83487L5.25573 10.5512C4.58002 10.7748 3.92471 10.7192 3.36151 10.3782ZM13.8599 9.65964C12.9177 10.2299 11.8103 10.2735 10.6853 9.80026L14.4603 6.02448C14.5614 5.91813 14.6169 5.77652 14.615 5.62984C14.6131 5.48317 14.554 5.34302 14.4503 5.2393C14.3466 5.13557 14.2064 5.07647 14.0597 5.07459C13.9131 5.07271 13.7715 5.12821 13.6651 5.22924L9.88932 9.0001C9.41401 7.8751 9.4569 6.76698 10.0299 5.82549C11.0101 4.20831 13.3346 3.3069 16.311 3.37651C16.3785 6.35214 15.4785 8.67948 13.8599 9.65964Z" fill="black"/>
</svg>
