<svg width="18" height="18" viewBox="0 0 18 18" fill="none" xmlns="http://www.w3.org/2000/svg">
<g clip-path="url(#clip0_395_2034)">
<path d="M-6.10352e-05 17.1936H-0.056311V17.2498V17.9998V18.0561H-6.10352e-05H17.9999H18.0562V17.9998V17.2498V17.1936H17.9999H-6.10352e-05Z" fill="#A05148" stroke="#A05148" stroke-width="0.1125"/>
<path d="M0.375793 14.5688H0.319543V14.625V15.375V15.4312H0.375793H1.50081H1.55706V15.375V14.625V14.5688H1.50081H0.375793Z" fill="#A05148" stroke="#A05148" stroke-width="0.1125"/>
<path d="M2.62579 14.5688H2.56954V14.625V15.375V15.4312H2.62579H3.75081H3.80706V15.375V14.625V14.5688H3.75081H2.62579Z" fill="#A05148" stroke="#A05148" stroke-width="0.1125"/>
<path d="M4.87579 14.5688H4.81954V14.625V15.375V15.4312H4.87579H6.00081H6.05706V15.375V14.625V14.5688H6.00081H4.87579Z" fill="#A05148" stroke="#A05148" stroke-width="0.1125"/>
<path d="M7.12579 14.5688H7.06954V14.625V15.375V15.4312H7.12579H8.25081H8.30706V15.375V14.625V14.5688H8.25081H7.12579Z" fill="#A05148" stroke="#A05148" stroke-width="0.1125"/>
<path d="M9.37579 14.5688H9.31954V14.625V15.375V15.4312H9.37579H10.5008H10.5571V15.375V14.625V14.5688H10.5008H9.37579Z" fill="#A05148" stroke="#A05148" stroke-width="0.1125"/>
<path d="M11.6258 14.5688H11.5695V14.625V15.375V15.4312H11.6258H12.7508H12.8071V15.375V14.625V14.5688H12.7508H11.6258Z" fill="#A05148" stroke="#A05148" stroke-width="0.1125"/>
<path d="M13.8758 14.5688H13.8195V14.625V15.375V15.4312H13.8758H15.0008H15.0571V15.375V14.625V14.5688H15.0008H13.8758Z" fill="#A05148" stroke="#A05148" stroke-width="0.1125"/>
<path d="M16.1258 14.5688H16.0695V14.625V15.375V15.4312H16.1258H17.2508H17.3071V15.375V14.625V14.5688H17.2508H16.1258Z" fill="#A05148" stroke="#A05148" stroke-width="0.1125"/>
<path d="M12.3749 4.8186H12.3187V4.87485V5.62483V5.68108H12.3749H14.6249H14.6812V5.62483V4.87485V4.8186H14.6249H12.3749Z" fill="#A05148" stroke="#A05148" stroke-width="0.1125"/>
<path d="M3.37494 4.8186H3.31869V4.87485V5.62483V5.68108H3.37494H5.62493H5.68118V5.62483V4.87485V4.8186H5.62493H3.37494Z" fill="#A05148" stroke="#A05148" stroke-width="0.1125"/>
<path d="M2.14119 12.8063H2.18084L2.19417 12.7689L4.33542 6.76891L4.36224 6.69375H4.28244H2.62493H2.56868V6.75V7.50002V7.55627H2.62493H3.1376L1.56907 11.9438H-6.10352e-05H-0.056311V12V12.75V12.8063H-6.10352e-05H2.14119Z" fill="#A05148" stroke="#A05148" stroke-width="0.1125"/>
<path d="M13.9641 12.8063H14.0337L14.0191 12.7382L12.7328 6.73821L12.7233 6.69375H12.6778H11.2491H11.1928V6.75V7.50002V7.55627H11.2491H12.0249L12.9645 11.9438H5.03368L5.97332 7.55627H6.74909H6.80534V7.50002V6.75V6.69375H6.74909H5.32034H5.27487L5.26534 6.73821L3.97912 12.7382L3.96453 12.8063H4.03412H13.9641Z" fill="#A05148" stroke="#A05148" stroke-width="0.1125"/>
<path d="M18.0001 12.8063H18.0563V12.75V12V11.9438H18.0001H16.431L14.8624 7.55627H15.3751H15.4313V7.50002V6.75V6.69375H15.3751H13.7176H13.6378L13.6646 6.76891L15.8059 12.7689L15.8192 12.8063H15.8588H18.0001Z" fill="#A05148" stroke="#A05148" stroke-width="0.1125"/>
<path d="M8.95712 8.88173L9.00077 8.93547L9.04443 8.88173L9.33693 8.52172L9.33708 8.52153C9.39214 8.45316 10.0708 7.60624 10.7359 6.50484C11.0685 5.95414 11.3984 5.3388 11.6452 4.72457C11.8918 4.11099 12.057 3.49491 12.057 2.94374C12.057 1.28792 10.6845 -0.05625 9.00077 -0.05625C7.317 -0.05625 5.94454 1.28792 5.94454 2.94374C5.94454 3.49399 6.10979 4.10938 6.35636 4.72249C6.60319 5.33624 6.93303 5.95135 7.26561 6.50205C7.90235 7.5564 8.5515 8.37846 8.65365 8.5078C8.65821 8.51358 8.66168 8.51797 8.66401 8.52095L8.664 8.52095L8.66462 8.52172L8.95712 8.88173ZM6.80703 2.94374C6.80703 1.7649 7.78922 0.806236 9.00077 0.806236C10.2123 0.806236 11.1945 1.76493 11.1945 2.94374C11.1945 3.68013 10.8055 4.61697 10.3268 5.48867C9.87043 6.31965 9.33775 7.08245 9.00077 7.54031C8.6638 7.08245 8.13112 6.31966 7.67477 5.48868C7.19606 4.61699 6.80703 3.68015 6.80703 2.94374Z" fill="#A05148" stroke="#A05148" stroke-width="0.1125"/>
<path d="M9.3187 2.99995V2.99996C9.3187 3.17515 9.17515 3.3187 8.99996 3.3187C8.82476 3.3187 8.68121 3.17515 8.68121 2.99996C8.68121 2.82476 8.82476 2.68121 8.99996 2.68121C9.17515 2.68121 9.31873 2.8248 9.3187 2.99995ZM7.81869 2.99996C7.81869 3.64979 8.35016 4.18122 8.99996 4.18122C9.64979 4.18122 10.1812 3.64979 10.1812 2.99996C10.1812 2.35012 9.64979 1.81869 8.99996 1.81869C8.35012 1.81869 7.81869 2.35012 7.81869 2.99996Z" fill="#A05148" stroke="#A05148" stroke-width="0.1125"/>
</g>
<defs>
<clipPath id="clip0_395_2034">
<rect width="18" height="18" fill="white"/>
</clipPath>
</defs>
</svg>
