<svg width="25" height="25" viewBox="0 0 25 25" fill="none" xmlns="http://www.w3.org/2000/svg">
<g clip-path="url(#clip0_4820_829)">
<path d="M11.257 22.1716C11.081 22.3442 10.8487 22.4391 10.6019 22.4391C10.6017 22.4391 10.6015 22.4391 10.6012 22.4391C10.3513 22.4389 10.1163 22.3414 9.93974 22.1645L2.47677 14.6907C2.11288 14.3262 2.11288 13.733 2.47682 13.3685L13.5968 2.2272H22.4152V11.0229L21.0081 12.417L22.3252 13.7465L24.2867 11.8032V0.355713H12.8205L1.15227 12.0464C0.0605547 13.14 0.0605547 14.9194 1.15237 16.013L8.61548 23.487C9.14535 24.0176 9.85007 24.3101 10.5999 24.3107C10.6006 24.3107 10.6012 24.3107 10.6019 24.3107C11.351 24.3107 12.0554 24.0192 12.5856 23.4898L13.7338 22.2909L12.3819 20.9967L11.257 22.1716Z" fill="white"/>
<path d="M20.4034 18.509V14.5789H18.5319V18.509H14.6018V20.3804H18.5319V24.3106H20.4034V20.3804H24.3335V18.509H20.4034Z" fill="white"/>
<path d="M18.485 7.09312C19.0018 7.09312 19.4208 6.67418 19.4208 6.1574C19.4208 5.64062 19.0018 5.22168 18.485 5.22168C17.9683 5.22168 17.5493 5.64062 17.5493 6.1574C17.5493 6.67418 17.9683 7.09312 18.485 7.09312Z" fill="white"/>
</g>
<defs>
<clipPath id="clip0_4820_829">
<rect width="24" height="24" fill="white" transform="translate(0.333496 0.333252)"/>
</clipPath>
</defs>
</svg>
