<svg width="60" height="60" viewBox="0 0 60 60" fill="none" xmlns="http://www.w3.org/2000/svg">
<rect width="60" height="60" rx="30" fill="#05A155"/>
<path fill-rule="evenodd" clip-rule="evenodd" d="M30 21C30.4142 21 30.75 21.3358 30.75 21.75V29.25H38.25C38.6642 29.25 39 29.5858 39 30C39 30.4142 38.6642 30.75 38.25 30.75H30.75V38.25C30.75 38.6642 30.4142 39 30 39C29.5858 39 29.25 38.6642 29.25 38.25V30.75H21.75C21.3358 30.75 21 30.4142 21 30C21 29.5858 21.3358 29.25 21.75 29.25H29.25V21.75C29.25 21.3358 29.5858 21 30 21Z" fill="white"/>
</svg>
