<svg width="100" height="100" viewBox="0 0 100 100" fill="none" xmlns="http://www.w3.org/2000/svg">
<g filter="url(#filter0_d_1947_1349)">
<rect x="20" y="20" width="60" height="60" rx="30" fill="#05A155" />
<path fill-rule="evenodd" clip-rule="evenodd" d="M50 41C50.4142 41 50.75 41.3358 50.75 41.75V49.25H58.25C58.6642 49.25 59 49.5858 59 50C59 50.4142 58.6642 50.75 58.25 50.75H50.75V58.25C50.75 58.6642 50.4142 59 50 59C49.5858 59 49.25 58.6642 49.25 58.25V50.75H41.75C41.3358 50.75 41 50.4142 41 50C41 49.5858 41.3358 49.25 41.75 49.25H49.25V41.75C49.25 41.3358 49.5858 41 50 41Z" fill="white"/>
</g>
<defs>
<filter id="filter0_d_1947_1349" x="0" y="0" width="100" height="100" filterUnits="userSpaceOnUse" color-interpolation-filters="sRGB">
<feFlood flood-opacity="0" result="BackgroundImageFix"/>
<feColorMatrix in="SourceAlpha" type="matrix" values="0 0 0 0 0 0 0 0 0 0 0 0 0 0 0 0 0 0 127 0" result="hardAlpha"/>
<feOffset/>
<feGaussianBlur stdDeviation="10"/>
<feComposite in2="hardAlpha" operator="out"/>
<feColorMatrix type="matrix" values="0 0 0 0 0 0 0 0 0 0 0 0 0 0 0 0 0 0 0.15 0"/>
<feBlend mode="normal" in2="BackgroundImageFix" result="effect1_dropShadow_1947_1349"/>
<feBlend mode="normal" in="SourceGraphic" in2="effect1_dropShadow_1947_1349" result="shape"/>
</filter>
</defs>
</svg>
