<svg width="27" height="28" viewBox="0 0 27 28" fill="none" xmlns="http://www.w3.org/2000/svg">
<path fill-rule="evenodd" clip-rule="evenodd" d="M13.2187 1.625C19.8934 1.625 25.3125 7.04412 25.3125 13.7187C25.3125 20.3934 19.8934 25.8125 13.2187 25.8125C6.54412 25.8125 1.125 20.3934 1.125 13.7187C1.125 7.04412 6.54412 1.625 13.2187 1.625ZM13.2187 3.3125C7.47562 3.3125 2.8125 7.97562 2.8125 13.7187C2.8125 19.4619 7.47562 24.125 13.2187 24.125C18.9619 24.125 23.625 19.4619 23.625 13.7187C23.625 7.97562 18.9619 3.3125 13.2187 3.3125Z" fill="#45A845"/>
<path fill-rule="evenodd" clip-rule="evenodd" d="M8.09487 14.3152C7.76525 13.9867 7.76525 13.4512 8.09487 13.1227C8.4245 12.7931 8.95888 12.7931 9.2885 13.1227L12.2439 16.0781L17.6821 10.1325C17.9971 9.78937 18.5315 9.76462 18.8746 10.0796C19.2177 10.3935 19.2425 10.9279 18.9275 11.271L12.893 17.868C12.7377 18.0379 12.5195 18.1369 12.29 18.1425C12.0594 18.147 11.8377 18.0581 11.6746 17.895L8.09487 14.3152Z" fill="#45A845"/>
</svg>
