<svg width="24" height="25" viewBox="0 0 24 25" fill="none" xmlns="http://www.w3.org/2000/svg">
<g clip-path="url(#clip0_328_6681)">
<path d="M7 0.833313H4C2.93913 0.833313 1.92172 1.25474 1.17157 2.00489C0.421427 2.75503 0 3.77245 0 4.83331L0 7.83331C0 8.89418 0.421427 9.91159 1.17157 10.6617C1.92172 11.4119 2.93913 11.8333 4 11.8333H7C8.06087 11.8333 9.07828 11.4119 9.82843 10.6617C10.5786 9.91159 11 8.89418 11 7.83331V4.83331C11 3.77245 10.5786 2.75503 9.82843 2.00489C9.07828 1.25474 8.06087 0.833313 7 0.833313ZM9 7.83331C9 8.36375 8.78929 8.87245 8.41421 9.24753C8.03914 9.6226 7.53043 9.83331 7 9.83331H4C3.46957 9.83331 2.96086 9.6226 2.58579 9.24753C2.21071 8.87245 2 8.36375 2 7.83331V4.83331C2 4.30288 2.21071 3.79417 2.58579 3.4191C2.96086 3.04403 3.46957 2.83331 4 2.83331H7C7.53043 2.83331 8.03914 3.04403 8.41421 3.4191C8.78929 3.79417 9 4.30288 9 4.83331V7.83331Z" fill="white"/>
<path d="M20 0.833313H17C15.9391 0.833313 14.9217 1.25474 14.1716 2.00489C13.4214 2.75503 13 3.77245 13 4.83331V7.83331C13 8.89418 13.4214 9.91159 14.1716 10.6617C14.9217 11.4119 15.9391 11.8333 17 11.8333H20C21.0609 11.8333 22.0783 11.4119 22.8284 10.6617C23.5786 9.91159 24 8.89418 24 7.83331V4.83331C24 3.77245 23.5786 2.75503 22.8284 2.00489C22.0783 1.25474 21.0609 0.833313 20 0.833313ZM22 7.83331C22 8.36375 21.7893 8.87245 21.4142 9.24753C21.0391 9.6226 20.5304 9.83331 20 9.83331H17C16.4696 9.83331 15.9609 9.6226 15.5858 9.24753C15.2107 8.87245 15 8.36375 15 7.83331V4.83331C15 4.30288 15.2107 3.79417 15.5858 3.4191C15.9609 3.04403 16.4696 2.83331 17 2.83331H20C20.5304 2.83331 21.0391 3.04403 21.4142 3.4191C21.7893 3.79417 22 4.30288 22 4.83331V7.83331Z" fill="white"/>
<path d="M7 13.8333H4C2.93913 13.8333 1.92172 14.2547 1.17157 15.0049C0.421427 15.755 0 16.7724 0 17.8333L0 20.8333C0 21.8942 0.421427 22.9116 1.17157 23.6617C1.92172 24.4119 2.93913 24.8333 4 24.8333H7C8.06087 24.8333 9.07828 24.4119 9.82843 23.6617C10.5786 22.9116 11 21.8942 11 20.8333V17.8333C11 16.7724 10.5786 15.755 9.82843 15.0049C9.07828 14.2547 8.06087 13.8333 7 13.8333ZM9 20.8333C9 21.3637 8.78929 21.8725 8.41421 22.2475C8.03914 22.6226 7.53043 22.8333 7 22.8333H4C3.46957 22.8333 2.96086 22.6226 2.58579 22.2475C2.21071 21.8725 2 21.3637 2 20.8333V17.8333C2 17.3029 2.21071 16.7942 2.58579 16.4191C2.96086 16.044 3.46957 15.8333 4 15.8333H7C7.53043 15.8333 8.03914 16.044 8.41421 16.4191C8.78929 16.7942 9 17.3029 9 17.8333V20.8333Z" fill="white"/>
<path d="M20 13.8333H17C15.9391 13.8333 14.9217 14.2547 14.1716 15.0049C13.4214 15.755 13 16.7724 13 17.8333V20.8333C13 21.8942 13.4214 22.9116 14.1716 23.6617C14.9217 24.4119 15.9391 24.8333 17 24.8333H20C21.0609 24.8333 22.0783 24.4119 22.8284 23.6617C23.5786 22.9116 24 21.8942 24 20.8333V17.8333C24 16.7724 23.5786 15.755 22.8284 15.0049C22.0783 14.2547 21.0609 13.8333 20 13.8333ZM22 20.8333C22 21.3637 21.7893 21.8725 21.4142 22.2475C21.0391 22.6226 20.5304 22.8333 20 22.8333H17C16.4696 22.8333 15.9609 22.6226 15.5858 22.2475C15.2107 21.8725 15 21.3637 15 20.8333V17.8333C15 17.3029 15.2107 16.7942 15.5858 16.4191C15.9609 16.044 16.4696 15.8333 17 15.8333H20C20.5304 15.8333 21.0391 16.044 21.4142 16.4191C21.7893 16.7942 22 17.3029 22 17.8333V20.8333Z" fill="white"/>
</g>
<defs>
<clipPath id="clip0_328_6681">
<rect width="24" height="24" fill="white" transform="translate(0 0.833313)"/>
</clipPath>
</defs>
</svg>
