<svg width="28" height="28" viewBox="0 0 28 28" fill="none" xmlns="http://www.w3.org/2000/svg">
<path d="M23.9341 14C23.9341 14.2196 23.8469 14.4301 23.6917 14.5854C23.5364 14.7406 23.3258 14.8278 23.1063 14.8278H6.89221L12.9302 20.8648C13.0071 20.9417 13.0681 21.033 13.1097 21.1335C13.1514 21.234 13.1728 21.3417 13.1728 21.4505C13.1728 21.5593 13.1514 21.667 13.1097 21.7675C13.0681 21.8679 13.0071 21.9593 12.9302 22.0362C12.8533 22.1131 12.762 22.1741 12.6615 22.2157C12.561 22.2573 12.4533 22.2788 12.3445 22.2788C12.2357 22.2788 12.128 22.2573 12.0275 22.2157C11.927 22.1741 11.8357 22.1131 11.7588 22.0362L4.30834 14.5857C4.23137 14.5088 4.17031 14.4175 4.12865 14.317C4.08699 14.2165 4.06555 14.1088 4.06555 14C4.06555 13.8912 4.08699 13.7835 4.12865 13.683C4.17031 13.5825 4.23137 13.4912 4.30834 13.4143L11.7588 5.96385C11.9141 5.80851 12.1248 5.72124 12.3445 5.72124C12.5642 5.72124 12.7749 5.80851 12.9302 5.96385C13.0855 6.11918 13.1728 6.32986 13.1728 6.54954C13.1728 6.76921 13.0855 6.97989 12.9302 7.13523L6.89221 13.1722H23.1063C23.3258 13.1722 23.5364 13.2594 23.6917 13.4146C23.8469 13.5699 23.9341 13.7805 23.9341 14Z" fill="#FF0000"/>
</svg>
