<svg width="16" height="16" viewBox="0 0 16 16" fill="none" xmlns="http://www.w3.org/2000/svg">
<path d="M13.6437 11.3861C13.593 11.4708 13.5261 11.5445 13.4469 11.6033C13.3675 11.6621 13.2774 11.7046 13.1816 11.7285C13.0857 11.7524 12.9862 11.7571 12.8885 11.7424C12.7909 11.7277 12.6972 11.6938 12.6127 11.6428C12.6127 11.6428 12.6126 11.6428 12.6126 11.6428L8.75057 9.32475V13.5C8.75057 13.6989 8.67155 13.8897 8.5309 14.0303C8.39024 14.171 8.19948 14.25 8.00057 14.25C7.80165 14.25 7.61089 14.171 7.47024 14.0303C7.32958 13.8897 7.25057 13.6989 7.25057 13.5V9.32468L3.38893 11.6418C3.38852 11.642 3.38811 11.6423 3.3877 11.6425C3.30353 11.694 3.21002 11.7284 3.11253 11.7437C3.01457 11.759 2.91453 11.7548 2.81821 11.7313C2.72189 11.7077 2.63119 11.6653 2.55137 11.6065C2.47155 11.5476 2.40418 11.4736 2.35318 11.3885C2.30217 11.3035 2.26853 11.2092 2.2542 11.1111C2.23988 11.0129 2.24516 10.913 2.26972 10.8169C2.29429 10.7208 2.33767 10.6306 2.39734 10.5514C2.45671 10.4726 2.53103 10.4063 2.61606 10.3563C2.61649 10.356 2.61693 10.3558 2.61737 10.3555L6.54281 8L2.6161 5.64374C2.53106 5.59372 2.45672 5.52741 2.39734 5.44861C2.33767 5.36942 2.29429 5.27917 2.26972 5.18311C2.24516 5.08704 2.23988 4.98705 2.2542 4.88893C2.26853 4.79081 2.30217 4.69651 2.35318 4.61147C2.40419 4.52644 2.47155 4.45236 2.55137 4.39353C2.63119 4.3347 2.72189 4.29229 2.81821 4.26874C2.91454 4.24519 3.01457 4.24097 3.11253 4.25633C3.21002 4.27162 3.30353 4.306 3.3877 4.35748L7.25057 6.67532V2.5C7.25057 2.30109 7.32958 2.11032 7.47024 1.96967C7.61089 1.82902 7.80165 1.75 8.00057 1.75C8.19948 1.75 8.39024 1.82902 8.5309 1.96967C8.67155 2.11032 8.75057 2.30109 8.75057 2.5V6.67532L12.6122 4.35824C12.6126 4.35799 12.613 4.35774 12.6134 4.35749C12.6976 4.306 12.7911 4.27162 12.8886 4.25633C12.9866 4.24097 13.0866 4.24519 13.1829 4.26874C13.2792 4.29229 13.3699 4.3347 13.4498 4.39353C13.5296 4.45236 13.5969 4.52644 13.648 4.61147C13.699 4.69651 13.7326 4.79081 13.7469 4.88893C13.7612 4.98705 13.756 5.08704 13.7314 5.18311C13.7068 5.27918 13.6635 5.36942 13.6038 5.44861C13.5444 5.52741 13.4701 5.59371 13.3851 5.64373C13.3846 5.64398 13.3842 5.64423 13.3838 5.64449L9.45832 8L13.3859 10.3568L13.6437 11.3861ZM13.6437 11.3861C13.6944 11.3016 13.7279 11.208 13.7424 11.1105C13.7569 11.013 13.7521 10.9136 13.7281 10.818C13.7042 10.7224 13.6616 10.6325 13.6029 10.5533C13.5442 10.4742 13.4705 10.4075 13.3861 10.3569L13.6437 11.3861Z" fill="black" stroke="black" stroke-width="0.5"/>
</svg>
