<svg width="22" height="22" viewBox="0 0 22 22" fill="none" xmlns="http://www.w3.org/2000/svg">
<path d="M19.9616 8.27979L9.79732 18.3313C8.11317 19.9969 5.38236 19.9969 3.69821 18.3313C2.01406 16.6657 2.01406 13.9656 3.69821 12.3L12.8465 3.25371C13.9695 2.14352 15.7894 2.14352 16.9124 3.25371C18.0354 4.36386 18.0354 6.16444 16.9124 7.27459L7.76404 16.3209C7.2029 16.8763 6.29263 16.8763 5.73077 16.3209C5.16962 15.7661 5.16962 14.8659 5.73077 14.3104L13.8625 6.26935L12.8458 5.26415L4.71486 13.3059C3.59186 14.4161 3.59186 16.2166 4.71486 17.3268C5.83787 18.437 7.65769 18.437 8.7807 17.3268L17.929 8.28051C19.6132 6.61492 19.6132 3.91481 17.929 2.24919C16.2449 0.583603 13.5141 0.583603 11.8299 2.24919L2.17326 11.7981L2.20826 11.833C0.454117 14.0633 0.608326 17.2875 2.68159 19.3372C4.75485 21.3869 8.01393 21.5404 10.2699 19.8048L10.3049 19.8398L20.9775 9.28572L19.9616 8.27979Z" fill="black"/>
</svg>
