<svg width="24" height="25" viewBox="0 0 24 25" fill="none" xmlns="http://www.w3.org/2000/svg">
<g clip-path="url(#clip0_328_6703)">
<path d="M19 2.83331H18V1.83331C18 1.5681 17.8946 1.31374 17.7071 1.12621C17.5196 0.93867 17.2652 0.833313 17 0.833313C16.7348 0.833313 16.4804 0.93867 16.2929 1.12621C16.1054 1.31374 16 1.5681 16 1.83331V2.83331H8V1.83331C8 1.5681 7.89464 1.31374 7.70711 1.12621C7.51957 0.93867 7.26522 0.833313 7 0.833313C6.73478 0.833313 6.48043 0.93867 6.29289 1.12621C6.10536 1.31374 6 1.5681 6 1.83331V2.83331H5C3.67441 2.8349 2.40356 3.3622 1.46622 4.29953C0.528882 5.23687 0.00158786 6.50772 0 7.83331L0 19.8333C0.00158786 21.1589 0.528882 22.4298 1.46622 23.3671C2.40356 24.3044 3.67441 24.8317 5 24.8333H19C20.3256 24.8317 21.5964 24.3044 22.5338 23.3671C23.4711 22.4298 23.9984 21.1589 24 19.8333V7.83331C23.9984 6.50772 23.4711 5.23687 22.5338 4.29953C21.5964 3.3622 20.3256 2.8349 19 2.83331ZM2 7.83331C2 7.03766 2.31607 6.2746 2.87868 5.71199C3.44129 5.14938 4.20435 4.83331 5 4.83331H19C19.7956 4.83331 20.5587 5.14938 21.1213 5.71199C21.6839 6.2746 22 7.03766 22 7.83331V8.83331H2V7.83331ZM19 22.8333H5C4.20435 22.8333 3.44129 22.5172 2.87868 21.9546C2.31607 21.392 2 20.629 2 19.8333V10.8333H22V19.8333C22 20.629 21.6839 21.392 21.1213 21.9546C20.5587 22.5172 19.7956 22.8333 19 22.8333Z" fill="#E9EDF1"/>
<path d="M12 17.3333C12.8284 17.3333 13.5 16.6617 13.5 15.8333C13.5 15.0049 12.8284 14.3333 12 14.3333C11.1716 14.3333 10.5 15.0049 10.5 15.8333C10.5 16.6617 11.1716 17.3333 12 17.3333Z" fill="#E9EDF1"/>
<path d="M7 17.3333C7.82843 17.3333 8.5 16.6617 8.5 15.8333C8.5 15.0049 7.82843 14.3333 7 14.3333C6.17157 14.3333 5.5 15.0049 5.5 15.8333C5.5 16.6617 6.17157 17.3333 7 17.3333Z" fill="#E9EDF1"/>
<path d="M17 17.3333C17.8284 17.3333 18.5 16.6617 18.5 15.8333C18.5 15.0049 17.8284 14.3333 17 14.3333C16.1716 14.3333 15.5 15.0049 15.5 15.8333C15.5 16.6617 16.1716 17.3333 17 17.3333Z" fill="#E9EDF1"/>
</g>
<defs>
<clipPath id="clip0_328_6703">
<rect width="24" height="24" fill="white" transform="translate(0 0.833313)"/>
</clipPath>
</defs>
</svg>
