<svg width="16" height="16" viewBox="0 0 16 16" fill="none" xmlns="http://www.w3.org/2000/svg">
<path d="M13 2.00024H11.5V1.50024C11.5 1.36764 11.4473 1.24046 11.3536 1.14669C11.2598 1.05292 11.1326 1.00024 11 1.00024C10.8674 1.00024 10.7402 1.05292 10.6464 1.14669C10.5527 1.24046 10.5 1.36764 10.5 1.50024V2.00024H5.5V1.50024C5.5 1.36764 5.44732 1.24046 5.35355 1.14669C5.25979 1.05292 5.13261 1.00024 5 1.00024C4.86739 1.00024 4.74021 1.05292 4.64645 1.14669C4.55268 1.24046 4.5 1.36764 4.5 1.50024V2.00024H3C2.73478 2.00024 2.48043 2.1056 2.29289 2.29314C2.10536 2.48067 2 2.73503 2 3.00024V13.0002C2 13.2655 2.10536 13.5198 2.29289 13.7074C2.48043 13.8949 2.73478 14.0002 3 14.0002H13C13.2652 14.0002 13.5196 13.8949 13.7071 13.7074C13.8946 13.5198 14 13.2655 14 13.0002V3.00024C14 2.73503 13.8946 2.48067 13.7071 2.29314C13.5196 2.1056 13.2652 2.00024 13 2.00024ZM4.5 3.00024V3.50024C4.5 3.63285 4.55268 3.76003 4.64645 3.8538C4.74021 3.94757 4.86739 4.00024 5 4.00024C5.13261 4.00024 5.25979 3.94757 5.35355 3.8538C5.44732 3.76003 5.5 3.63285 5.5 3.50024V3.00024H10.5V3.50024C10.5 3.63285 10.5527 3.76003 10.6464 3.8538C10.7402 3.94757 10.8674 4.00024 11 4.00024C11.1326 4.00024 11.2598 3.94757 11.3536 3.8538C11.4473 3.76003 11.5 3.63285 11.5 3.50024V3.00024H13V5.00024H3V3.00024H4.5ZM13 13.0002H3V6.00024H13V13.0002Z" fill="black"/>
</svg>
