<svg width="41" height="41" viewBox="0 0 41 41" fill="none" xmlns="http://www.w3.org/2000/svg">
<g clip-path="url(#clip0_2829_6256)">
<path d="M39.1692 9.4722C38.3707 8.6357 37.2681 8.14141 36.0133 8.14141H29.7015V8.06536C29.7015 7.11479 29.3213 6.20224 28.6749 5.59388C28.0285 4.94749 27.154 4.56726 26.2034 4.56726H14.7966C13.808 4.56726 12.9335 4.94749 12.2871 5.59388C11.6407 6.24026 11.2605 7.11479 11.2605 8.06536V8.14141H4.98669C3.73194 8.14141 2.62928 8.6357 1.8308 9.4722C1.03232 10.2707 0.5 11.4114 0.5 12.6281V31.5635C0.5 32.8182 0.994297 33.9209 1.8308 34.7194C2.62928 35.5178 3.76996 36.0502 4.98669 36.0502H36.0133C37.2681 36.0502 38.3707 35.5559 39.1692 34.7194C39.9677 33.9209 40.5 32.7802 40.5 31.5635V12.6281C40.5 11.3733 40.0057 10.2707 39.1692 9.4722ZM38.5228 31.5635H38.4848C38.4848 32.2479 38.2186 32.8562 37.7624 33.3125C37.3061 33.7688 36.6977 34.0349 36.0133 34.0349H4.98669C4.30228 34.0349 3.69392 33.7688 3.23764 33.3125C2.78137 32.8562 2.51521 32.2479 2.51521 31.5635V12.6281C2.51521 11.9437 2.78137 11.3353 3.23764 10.879C3.69392 10.4228 4.30228 10.1566 4.98669 10.1566H12.3251C12.8954 10.1566 13.3517 9.70034 13.3517 9.13V8.02734C13.3517 7.60909 13.5038 7.22886 13.77 6.9627C14.0361 6.69654 14.4164 6.54445 14.8346 6.54445H26.2034C26.6217 6.54445 27.0019 6.69654 27.2681 6.9627C27.5342 7.22886 27.6863 7.60909 27.6863 8.02734V9.13C27.6863 9.70034 28.1426 10.1566 28.7129 10.1566H36.0513C36.7357 10.1566 37.3441 10.4228 37.8004 10.879C38.2567 11.3353 38.5228 11.9437 38.5228 12.6281V31.5635Z" fill="#A05148"/>
<path d="M20.5001 12.7422C17.9145 12.7422 15.5571 13.8068 13.8841 15.4798C12.1731 17.1909 11.1465 19.5102 11.1465 22.0958C11.1465 24.6814 12.2111 27.0388 13.8841 28.7118C15.5952 30.4228 17.9145 31.4494 20.5001 31.4494C23.0856 31.4494 25.4431 30.3848 27.1161 28.7118C28.8271 27.0007 29.8537 24.6814 29.8537 22.0958C29.8537 19.5102 28.7891 17.1528 27.1161 15.4798C25.4431 13.8068 23.0856 12.7422 20.5001 12.7422ZM25.6712 27.3049C24.3404 28.5977 22.5153 29.4342 20.5001 29.4342C18.4849 29.4342 16.6598 28.5977 15.329 27.3049C13.9982 25.9741 13.1997 24.149 13.1997 22.1338C13.1997 20.1186 14.0362 18.2935 15.329 16.9627C16.6598 15.6319 18.4849 14.8334 20.5001 14.8334C22.5153 14.8334 24.3404 15.6699 25.6712 16.9627C27.002 18.2935 27.8005 20.1186 27.8005 22.1338C27.8385 24.149 27.002 25.9741 25.6712 27.3049Z" fill="#A05148"/>
<path d="M34.036 16.4303C35.0649 16.4303 35.8991 15.5962 35.8991 14.5672C35.8991 13.5382 35.0649 12.7041 34.036 12.7041C33.007 12.7041 32.1729 13.5382 32.1729 14.5672C32.1729 15.5962 33.007 16.4303 34.036 16.4303Z" fill="#A05148"/>
</g>
<defs>
<clipPath id="clip0_2829_6256">
<rect width="40" height="40" fill="white" transform="translate(0.5 0.308716)"/>
</clipPath>
</defs>
</svg>
