<svg width="33" height="33" viewBox="0 0 33 33" fill="none" xmlns="http://www.w3.org/2000/svg">
<path d="M26.6154 7.38462H23.1504L21.4466 4.82962C21.3553 4.69281 21.2317 4.58062 21.0867 4.503C20.9417 4.42538 20.7798 4.38472 20.6154 4.38462H12.6154C12.4509 4.38472 12.289 4.42538 12.144 4.503C11.999 4.58062 11.8754 4.69281 11.7841 4.82962L10.0791 7.38462H6.61536C5.81971 7.38462 5.05665 7.70069 4.49404 8.2633C3.93143 8.82591 3.61536 9.58897 3.61536 10.3846V24.3846C3.61536 25.1803 3.93143 25.9433 4.49404 26.5059C5.05665 27.0685 5.81971 27.3846 6.61536 27.3846H26.6154C27.411 27.3846 28.1741 27.0685 28.7367 26.5059C29.2993 25.9433 29.6154 25.1803 29.6154 24.3846V10.3846C29.6154 9.58897 29.2993 8.82591 28.7367 8.2633C28.1741 7.70069 27.411 7.38462 26.6154 7.38462ZM27.6154 24.3846C27.6154 24.6498 27.51 24.9042 27.3225 25.0917C27.1349 25.2793 26.8806 25.3846 26.6154 25.3846H6.61536C6.35014 25.3846 6.09579 25.2793 5.90825 25.0917C5.72071 24.9042 5.61536 24.6498 5.61536 24.3846V10.3846C5.61536 10.1194 5.72071 9.86505 5.90825 9.67751C6.09579 9.48997 6.35014 9.38462 6.61536 9.38462H10.6154C10.78 9.38472 10.9422 9.34416 11.0874 9.26653C11.2326 9.1889 11.3565 9.0766 11.4479 8.93962L13.1504 6.38462H20.0791L21.7829 8.93962C21.8743 9.0766 21.9981 9.1889 22.1433 9.26653C22.2885 9.34416 22.4507 9.38472 22.6154 9.38462H26.6154C26.8806 9.38462 27.1349 9.48997 27.3225 9.67751C27.51 9.86505 27.6154 10.1194 27.6154 10.3846V24.3846ZM16.6154 11.3846C15.5276 11.3846 14.4642 11.7072 13.5597 12.3115C12.6552 12.9159 11.9503 13.7749 11.534 14.7799C11.1177 15.7849 11.0088 16.8907 11.221 17.9576C11.4333 19.0245 11.9571 20.0045 12.7263 20.7737C13.4955 21.5429 14.4755 22.0667 15.5424 22.2789C16.6093 22.4912 17.7151 22.3822 18.7201 21.966C19.7251 21.5497 20.5841 20.8447 21.1884 19.9403C21.7928 19.0358 22.1154 17.9724 22.1154 16.8846C22.1137 15.4264 21.5337 14.0284 20.5026 12.9974C19.4715 11.9663 18.0735 11.3863 16.6154 11.3846ZM16.6154 20.3846C15.9231 20.3846 15.2464 20.1793 14.6709 19.7948C14.0953 19.4102 13.6467 18.8636 13.3818 18.224C13.1169 17.5845 13.0476 16.8807 13.1826 16.2018C13.3177 15.5229 13.651 14.8992 14.1405 14.4097C14.63 13.9203 15.2536 13.5869 15.9325 13.4519C16.6115 13.3168 17.3152 13.3861 17.9547 13.651C18.5943 13.9159 19.1409 14.3645 19.5255 14.9401C19.9101 15.5157 20.1154 16.1924 20.1154 16.8846C20.1154 17.8129 19.7466 18.7031 19.0902 19.3595C18.4339 20.0159 17.5436 20.3846 16.6154 20.3846Z" fill="black"/>
<g filter="url(#filter0_bi_830_2509)">
<rect x="19.6154" y="2.38462" width="11.64" height="11.64" rx="5.82" fill="white"/>
<rect x="21.6154" y="4.38462" width="7.64" height="7.64" rx="3.82" fill="#FF4848"/>
</g>
<defs>
<filter id="filter0_bi_830_2509" x="-21.7305" y="-38.9612" width="94.3317" height="94.3317" filterUnits="userSpaceOnUse" color-interpolation-filters="sRGB">
<feFlood flood-opacity="0" result="BackgroundImageFix"/>
<feGaussianBlur in="BackgroundImageFix" stdDeviation="20.6729"/>
<feComposite in2="SourceAlpha" operator="in" result="effect1_backgroundBlur_830_2509"/>
<feBlend mode="normal" in="SourceGraphic" in2="effect1_backgroundBlur_830_2509" result="shape"/>
<feColorMatrix in="SourceAlpha" type="matrix" values="0 0 0 0 0 0 0 0 0 0 0 0 0 0 0 0 0 0 127 0" result="hardAlpha"/>
<feOffset dy="0.802832"/>
<feGaussianBlur stdDeviation="1.20425"/>
<feComposite in2="hardAlpha" operator="arithmetic" k2="-1" k3="1"/>
<feColorMatrix type="matrix" values="0 0 0 0 1 0 0 0 0 1 0 0 0 0 1 0 0 0 0.25 0"/>
<feBlend mode="normal" in2="shape" result="effect2_innerShadow_830_2509"/>
</filter>
</defs>
</svg>
