<svg width="200" height="201" viewBox="0 0 200 201" fill="none" xmlns="http://www.w3.org/2000/svg">
<path d="M181.571 53.3442C179.66 52.1792 177.472 51.546 175.233 51.5102C172.995 51.4745 170.787 52.0374 168.84 53.1407L137.5 75.7009V67.1666C137.494 61.6433 135.297 56.348 131.391 52.4424C127.485 48.5368 122.19 46.3398 116.667 46.3333H33.3333C27.81 46.3398 22.5147 48.5368 18.6091 52.4424C14.7035 56.348 12.5065 61.6433 12.5 67.1666V133.833C12.5065 139.357 14.7035 144.652 18.6091 148.558C22.5147 152.463 27.81 154.66 33.3333 154.667H116.667C122.19 154.66 127.485 152.463 131.391 148.558C135.297 144.652 137.494 139.357 137.5 133.833V125.285L169.413 148.193C171.319 149.144 173.436 149.593 175.564 149.497C177.692 149.4 179.76 148.762 181.572 147.642C183.384 146.521 184.88 144.957 185.917 143.096C186.955 141.236 187.499 139.141 187.5 137.011V63.9766C187.507 61.8446 186.965 59.7467 185.927 57.8846C184.889 56.0225 183.389 54.459 181.571 53.3442ZM129.167 133.833C129.163 137.147 127.845 140.325 125.502 142.668C123.158 145.012 119.981 146.33 116.667 146.333H33.3333C30.0192 146.33 26.8419 145.012 24.4985 142.668C22.1551 140.325 20.837 137.147 20.8333 133.833V67.1666C20.837 63.8526 22.1551 60.6752 24.4985 58.3318C26.8419 55.9884 30.0192 54.6703 33.3333 54.6666H116.667C119.981 54.6703 123.158 55.9884 125.502 58.3318C127.845 60.6752 129.163 63.8526 129.167 67.1666V133.833ZM179.167 137.011C179.155 137.669 178.993 138.315 178.693 138.9C178.393 139.485 177.963 139.994 177.435 140.387C176.908 140.78 176.298 141.048 175.652 141.169C175.005 141.289 174.34 141.261 173.706 141.084L137.5 115.03V85.9655L173.136 60.2493C173.772 59.9321 174.478 59.7824 175.187 59.8145C175.896 59.8466 176.586 60.0595 177.19 60.4329C177.794 60.8062 178.293 61.3278 178.639 61.9479C178.985 62.5681 179.166 63.2664 179.167 63.9766V137.011Z" fill="#DEDEDE"/>
</svg>
