<svg width="54" height="54" viewBox="0 0 54 54" fill="none" xmlns="http://www.w3.org/2000/svg">
<rect width="54" height="54" rx="27" fill="white"/>
<path d="M16.4552 39.3348C15.9969 39.3348 15.5387 39.16 15.1892 38.8106C14.4903 38.1117 14.4903 36.9782 15.1892 36.2786L36.2784 15.1901C36.9772 14.4912 38.1108 14.4912 38.8104 15.1901C39.5093 15.889 39.5093 17.0226 38.8104 17.7222L17.7205 38.8106C17.3711 39.16 16.9135 39.3348 16.4552 39.3348Z" fill="#EB5757"/>
<path d="M37.5437 39.3347C37.0854 39.3347 36.6271 39.16 36.2776 38.8106L15.1892 17.7214C14.4903 17.0225 14.4903 15.889 15.1892 15.1894C15.8881 14.4905 17.0216 14.4905 17.7213 15.1894L38.8104 36.2785C39.5093 36.9774 39.5093 38.111 38.8104 38.8106C38.4602 39.16 38.0019 39.3347 37.5437 39.3347Z" fill="#EB5757"/>
</svg>
