<svg width="24" height="25" viewBox="0 0 24 25" fill="none" xmlns="http://www.w3.org/2000/svg">
<g clip-path="url(#clip0_328_6411)">
<path d="M23 22.8333H5C4.20435 22.8333 3.44129 22.5172 2.87868 21.9546C2.31607 21.392 2 20.629 2 19.8333V1.83331C2 1.5681 1.89464 1.31374 1.70711 1.12621C1.51957 0.93867 1.26522 0.833313 1 0.833313C0.734784 0.833313 0.48043 0.93867 0.292893 1.12621C0.105357 1.31374 0 1.5681 0 1.83331L0 19.8333C0.00158786 21.1589 0.528882 22.4298 1.46622 23.3671C2.40356 24.3044 3.67441 24.8317 5 24.8333H23C23.2652 24.8333 23.5196 24.728 23.7071 24.5404C23.8946 24.3529 24 24.0985 24 23.8333C24 23.5681 23.8946 23.3137 23.7071 23.1262C23.5196 22.9387 23.2652 22.8333 23 22.8333Z" fill="#E9EDF1"/>
<path d="M6 20.8333C6.26522 20.8333 6.51957 20.728 6.70711 20.5404C6.89464 20.3529 7 20.0985 7 19.8333V12.8333C7 12.5681 6.89464 12.3137 6.70711 12.1262C6.51957 11.9387 6.26522 11.8333 6 11.8333C5.73478 11.8333 5.48043 11.9387 5.29289 12.1262C5.10536 12.3137 5 12.5681 5 12.8333V19.8333C5 20.0985 5.10536 20.3529 5.29289 20.5404C5.48043 20.728 5.73478 20.8333 6 20.8333Z" fill="#E9EDF1"/>
<path d="M10 10.8333V19.8333C10 20.0985 10.1054 20.3529 10.2929 20.5404C10.4804 20.728 10.7348 20.8333 11 20.8333C11.2652 20.8333 11.5196 20.728 11.7071 20.5404C11.8946 20.3529 12 20.0985 12 19.8333V10.8333C12 10.5681 11.8946 10.3137 11.7071 10.1262C11.5196 9.93867 11.2652 9.83331 11 9.83331C10.7348 9.83331 10.4804 9.93867 10.2929 10.1262C10.1054 10.3137 10 10.5681 10 10.8333Z" fill="#E9EDF1"/>
<path d="M15 13.8333V19.8333C15 20.0985 15.1054 20.3529 15.2929 20.5404C15.4804 20.728 15.7348 20.8333 16 20.8333C16.2652 20.8333 16.5196 20.728 16.7071 20.5404C16.8946 20.3529 17 20.0985 17 19.8333V13.8333C17 13.5681 16.8946 13.3137 16.7071 13.1262C16.5196 12.9387 16.2652 12.8333 16 12.8333C15.7348 12.8333 15.4804 12.9387 15.2929 13.1262C15.1054 13.3137 15 13.5681 15 13.8333Z" fill="#E9EDF1"/>
<path d="M20 9.83331V19.8333C20 20.0985 20.1054 20.3529 20.2929 20.5404C20.4804 20.728 20.7348 20.8333 21 20.8333C21.2652 20.8333 21.5196 20.728 21.7071 20.5404C21.8946 20.3529 22 20.0985 22 19.8333V9.83331C22 9.5681 21.8946 9.31374 21.7071 9.12621C21.5196 8.93867 21.2652 8.83331 21 8.83331C20.7348 8.83331 20.4804 8.93867 20.2929 9.12621C20.1054 9.31374 20 9.5681 20 9.83331Z" fill="#E9EDF1"/>
<path d="M5.99979 9.83332C6.26498 9.83327 6.51929 9.72787 6.70679 9.54032L10.2928 5.95432C10.4834 5.77275 10.7365 5.67147 10.9998 5.67147C11.263 5.67147 11.5162 5.77275 11.7068 5.95432L13.8788 8.12632C14.4414 8.68874 15.2043 9.00468 15.9998 9.00468C16.7953 9.00468 17.5582 8.68874 18.1208 8.12632L23.7068 2.54032C23.8889 2.35172 23.9897 2.09912 23.9875 1.83692C23.9852 1.57473 23.88 1.32391 23.6946 1.1385C23.5092 0.953097 23.2584 0.847928 22.9962 0.845649C22.734 0.843371 22.4814 0.944165 22.2928 1.12632L16.7068 6.71132C16.5193 6.89879 16.265 7.00411 15.9998 7.00411C15.7346 7.00411 15.4803 6.89879 15.2928 6.71132L13.1208 4.54032C12.5582 3.97791 11.7953 3.66196 10.9998 3.66196C10.2043 3.66196 9.44137 3.97791 8.87879 4.54032L5.29279 8.12632C5.15298 8.26618 5.05777 8.44434 5.0192 8.63829C4.98064 8.83224 5.00044 9.03328 5.07611 9.21598C5.15178 9.39868 5.27992 9.55484 5.44433 9.66473C5.60874 9.77461 5.80204 9.83328 5.99979 9.83332Z" fill="#E9EDF1"/>
</g>
<defs>
<clipPath id="clip0_328_6411">
<rect width="24" height="24" fill="white" transform="translate(0 0.833313)"/>
</clipPath>
</defs>
</svg>
