<svg width="18" height="18" viewBox="0 0 18 18" fill="none" xmlns="http://www.w3.org/2000/svg">
<path d="M16.6471 12.3364L16.5683 12.5151L16.6006 12.7077L17.3446 17.147C17.3446 17.1474 17.3447 17.1478 17.3447 17.1481C17.3491 17.1762 17.3469 17.2049 17.3383 17.232C17.3301 17.2578 17.3162 17.2815 17.2978 17.3014C17.266 17.3309 17.2241 17.3474 17.1806 17.3473L17.1718 17.3472L17.1629 17.3474C17.1542 17.3477 17.1454 17.3473 17.1368 17.3463L12.7047 16.6035L12.5122 16.5712L12.3335 16.6501C11.2831 17.1135 10.1471 17.351 8.99909 17.3473H8.99695C7.34599 17.3473 5.73211 16.8577 4.3594 15.9405C2.98668 15.0232 1.91677 13.7196 1.28498 12.1943C0.653187 10.669 0.487882 8.99062 0.809967 7.37139C1.13205 5.75216 1.92706 4.26479 3.09446 3.09739C4.26186 1.92999 5.74922 1.13498 7.36845 0.812897C8.98769 0.490811 10.6661 0.656117 12.1913 1.28791C13.7166 1.9197 15.0203 2.98961 15.9375 4.36233C16.8548 5.73504 17.3443 7.34892 17.3443 8.99988L17.3443 9.00202C17.3481 10.1501 17.1106 11.2861 16.6471 12.3364Z" stroke="#000" stroke-width="1.305"/>
</svg>
