<svg width="12" height="13" viewBox="0 0 12 13" fill="none" xmlns="http://www.w3.org/2000/svg">
<g clip-path="url(#clip0_2834_20640)">
<path d="M7.09938 6.31857L11.7719 1.64587C12.076 1.34193 12.076 0.850499 11.7719 0.546559C11.468 0.242619 10.9766 0.242619 10.6726 0.546559L5.99993 5.21926L1.32737 0.546559C1.02329 0.242619 0.532002 0.242619 0.228062 0.546559C-0.0760206 0.850499 -0.0760206 1.34193 0.228062 1.64587L4.90062 6.31857L0.228062 10.9913C-0.0760206 11.2952 -0.0760206 11.7866 0.228062 12.0906C0.379534 12.2422 0.578696 12.3184 0.777716 12.3184C0.976736 12.3184 1.17576 12.2422 1.32737 12.0906L5.99993 7.41788L10.6726 12.0906C10.8243 12.2422 11.0233 12.3184 11.2223 12.3184C11.4213 12.3184 11.6203 12.2422 11.7719 12.0906C12.076 11.7866 12.076 11.2952 11.7719 10.9913L7.09938 6.31857Z" fill="#820707"/>
</g>
<defs>
<clipPath id="clip0_2834_20640">
<rect width="12" height="12" fill="white" transform="translate(0 0.308716)"/>
</clipPath>
</defs>
</svg>
