<svg width="20" height="20" viewBox="0 0 20 20" fill="none" xmlns="http://www.w3.org/2000/svg">
<path d="M18.4974 13.7071L18.4099 13.9057L18.4457 14.1196L19.2724 19.0522C19.2724 19.0526 19.2725 19.053 19.2726 19.0535C19.2774 19.0847 19.275 19.1166 19.2654 19.1467C19.2563 19.1754 19.2409 19.2017 19.2204 19.2237C19.1851 19.2566 19.1386 19.2749 19.0902 19.2747L19.0803 19.2747L19.0705 19.2749C19.0608 19.2752 19.0511 19.2747 19.0415 19.2736L14.117 18.4483L13.903 18.4125L13.7045 18.5001C12.5375 19.015 11.2752 19.2789 9.99962 19.2747H9.99724C8.16284 19.2747 6.36965 18.7308 4.8444 17.7116C3.31916 16.6925 2.13038 15.244 1.42839 13.5492C0.726395 11.8544 0.542721 9.98958 0.900594 8.19043C1.25847 6.39128 2.14181 4.73866 3.43892 3.44155C4.73604 2.14444 6.38866 1.26109 8.1878 0.903218C9.98695 0.545346 11.8518 0.729019 13.5466 1.43101C15.2413 2.133 16.6899 3.32179 17.709 4.84703C18.7281 6.37227 19.2721 8.16547 19.2721 9.99987L19.2721 10.0022C19.2763 11.2778 19.0124 12.5401 18.4974 13.7071Z" stroke="#2F80ED" stroke-width="1.45"/>
</svg>
