<svg width="25" height="25" viewBox="0 0 25 25" fill="none" xmlns="http://www.w3.org/2000/svg">
<g clip-path="url(#clip0_4820_837)">
<path d="M22.8397 17.07L22.731 17.3164L22.7755 17.5821L23.7675 23.5011C23.7676 23.5016 23.7676 23.5021 23.7677 23.5026C23.7728 23.5354 23.7702 23.5689 23.7601 23.6005L24.6178 23.8734L23.7601 23.6006C23.7506 23.6304 23.7347 23.6578 23.7135 23.6809C23.6768 23.7147 23.6286 23.7335 23.5785 23.7333L23.5663 23.7333L23.5542 23.7336C23.5441 23.7338 23.5341 23.7334 23.5242 23.7323L17.6155 22.7421L17.3499 22.6975L17.1034 22.8063C15.7068 23.4225 14.1963 23.7383 12.6697 23.7333H12.6668C10.4714 23.7333 8.32531 23.0823 6.49993 21.8626C4.67454 20.6429 3.25182 18.9094 2.41169 16.8811C1.57156 14.8528 1.35174 12.621 1.78004 10.4678C2.20833 8.31462 3.26551 6.33679 4.81787 4.78442C6.37023 3.23206 8.34806 2.17489 10.5013 1.74659C12.6544 1.31829 14.8863 1.53811 16.9145 2.37824C18.9428 3.21838 20.6764 4.64109 21.8961 6.46648C23.1158 8.29187 23.7668 10.4379 23.7668 12.6333L23.7668 12.6363C23.7718 14.1628 23.4559 15.6734 22.8397 17.07Z" stroke="white" stroke-width="1.8"/>
</g>
<defs>
<clipPath id="clip0_4820_837">
<rect width="24" height="24" fill="white" transform="translate(0.666748 0.333252)"/>
</clipPath>
</defs>
</svg>
