<svg width="25" height="25" viewBox="0 0 25 25" fill="none" xmlns="http://www.w3.org/2000/svg">
<g clip-path="url(#clip0_3957_31829)">
<path d="M22.8397 17.07L22.7309 17.3164L22.7754 17.5821L23.7674 23.5011C23.7675 23.5016 23.7676 23.5021 23.7676 23.5026C23.7727 23.5354 23.7701 23.5689 23.7601 23.6005L24.6177 23.8734L23.7601 23.6006C23.7506 23.6304 23.7346 23.6578 23.7134 23.6809C23.6767 23.7147 23.6285 23.7335 23.5785 23.7333L23.5663 23.7333L23.5541 23.7336C23.5441 23.7338 23.5341 23.7334 23.5241 23.7323L17.6154 22.7421L17.3498 22.6975L17.1034 22.8063C15.7067 23.4225 14.1962 23.7383 12.6697 23.7333H12.6667C10.4713 23.7333 8.32525 23.0823 6.49987 21.8626C4.67448 20.6429 3.25176 18.9094 2.41163 16.8811C1.5715 14.8528 1.35168 12.621 1.77998 10.4678C2.20827 8.31462 3.26544 6.33679 4.81781 4.78442C6.37017 3.23206 8.348 2.17489 10.5012 1.74659C12.6544 1.31829 14.8862 1.53811 16.9145 2.37824C18.9427 3.21838 20.6763 4.64109 21.896 6.46648C23.1157 8.29187 23.7667 10.4379 23.7667 12.6333L23.7667 12.6363C23.7717 14.1628 23.4559 15.6734 22.8397 17.07Z" stroke="white" stroke-width="1.8"/>
</g>
<defs>
<clipPath id="clip0_3957_31829">
<rect width="24" height="24" fill="white" transform="translate(0.666687 0.333252)"/>
</clipPath>
</defs>
</svg>
