<svg width="24" height="24" viewBox="0 0 24 24" fill="none" xmlns="http://www.w3.org/2000/svg">
<path d="M11.9356 10.199C11.5716 9.77762 10.4093 9.33695 9.62707 9.13641C9.16649 7.76578 11.3993 4.75678 11.6774 4.28002C11.7135 4.2329 11.7599 4.19472 11.8131 4.16844C11.8663 4.14216 11.9249 4.12849 11.9842 4.12848C12.0436 4.12848 12.1021 4.14214 12.1553 4.16841C12.2085 4.19468 12.255 4.23286 12.2911 4.27997C12.5686 4.75046 14.803 7.77053 14.3414 9.13645C13.5616 9.33858 12.3932 9.77911 12.0329 10.199C11.9852 10.2574 11.9824 10.252 11.9356 10.199ZM7.40465 9.93339C7.54262 10.7061 7.73263 11.4686 7.97338 12.2157C8.05628 12.2298 8.23192 12.2641 8.46721 12.313C9.43195 12.5269 10.6956 12.8191 11.5465 13.3493C11.83 12.9985 11.984 12.5607 11.9826 12.1096C11.9813 11.6585 11.8246 11.2217 11.539 10.8725C10.9699 10.0827 8.42347 9.61451 7.83864 9.49936C7.77933 9.4889 7.71837 9.4929 7.66092 9.51101C7.60348 9.52912 7.55125 9.56081 7.50867 9.60341C7.46608 9.646 7.43439 9.69823 7.41628 9.75567C7.39817 9.81312 7.39419 9.87408 7.40465 9.93339ZM11.9842 19.8333C12.0834 19.833 12.1784 19.7935 12.2485 19.7234C12.3186 19.6533 12.3581 19.5583 12.3584 19.4592V16.7129C12.5248 16.943 12.7391 17.1342 12.9865 17.2736C13.2339 17.4129 13.5085 17.497 13.7915 17.5201C14.0745 17.5432 14.3592 17.5048 14.6259 17.4074C14.8926 17.3101 15.1351 17.1561 15.3366 16.9561C16.0063 16.2864 16.4778 13.8657 16.5638 13.3867C16.575 13.3269 16.5712 13.2653 16.553 13.2072C16.5347 13.1492 16.5025 13.0965 16.4591 13.0538C16.2 12.8416 16.0223 12.998 15.6509 13.0463C14.3698 13.3575 12.0595 13.6897 11.9806 15.4334C11.9264 13.6884 9.5779 13.3547 8.31758 13.0463C7.94563 12.9975 7.76831 12.8416 7.50946 13.0537C7.46607 13.0964 7.43383 13.1491 7.41557 13.2072C7.3973 13.2652 7.39357 13.3269 7.4047 13.3867C7.44961 13.6262 7.58803 14.352 7.80131 15.1004C8.01082 15.8486 8.29518 16.6231 8.63189 16.9561C8.83346 17.1561 9.07593 17.3101 9.34265 17.4074C9.60938 17.5048 9.89402 17.5432 10.177 17.5201C10.46 17.497 10.7346 17.4129 10.982 17.2735C11.2294 17.1342 11.4437 16.9429 11.6101 16.7129V19.4592C11.6104 19.5583 11.6499 19.6533 11.72 19.7234C11.7901 19.7935 11.8851 19.833 11.9842 19.8333ZM16.459 9.60039C16.4165 9.55808 16.3643 9.52677 16.3069 9.50917C16.2495 9.49157 16.1887 9.48821 16.1298 9.49939C15.3763 9.63449 14.6326 9.81948 13.9036 10.0531C13.4145 10.1833 12.9573 10.4125 12.5604 10.7266C12.2184 11.07 12.0151 11.5275 11.9896 12.0115C11.9641 12.4955 12.118 12.9719 12.422 13.3494C13.4185 12.7475 14.879 12.4312 15.9914 12.2194C16.2348 11.4716 16.426 10.7077 16.5638 9.93339C16.5752 9.87355 16.5716 9.81182 16.5533 9.75371C16.535 9.6956 16.5026 9.64292 16.459 9.60039ZM19.9008 5.11882L20.4793 5.19025C20.577 5.20076 20.6748 5.17243 20.7518 5.11139C20.8288 5.05034 20.8787 4.96148 20.8907 4.86398C20.9028 4.76647 20.876 4.66814 20.8162 4.59021C20.7563 4.51228 20.6683 4.461 20.571 4.44744L19.1387 4.27079C19.0403 4.25931 18.9414 4.28704 18.8633 4.34796C18.7852 4.40889 18.7342 4.49811 18.7214 4.59632L18.5446 6.02862C18.5345 6.12612 18.563 6.22371 18.624 6.30042C18.6851 6.37712 18.7737 6.42682 18.871 6.43883C18.9683 6.45084 19.0664 6.4242 19.1443 6.36464C19.2222 6.30508 19.2735 6.21735 19.2874 6.12031L19.3486 5.62435C24.775 11.8394 20.245 21.7356 11.9841 21.704C10.0834 21.7058 8.22414 21.1489 6.63748 20.1024C6.55458 20.05 6.45443 20.0323 6.35858 20.053C6.26272 20.0737 6.17882 20.1312 6.12491 20.2131C6.07101 20.295 6.05141 20.3948 6.07033 20.491C6.08926 20.5872 6.14519 20.6722 6.22611 20.7276C16.4218 27.2475 27.6824 14.357 19.9008 5.11882ZM5.03179 17.4777C4.98279 17.4732 4.93339 17.4785 4.88644 17.4932C4.83949 17.5079 4.79592 17.5317 4.75825 17.5634C4.72059 17.595 4.68957 17.6338 4.66701 17.6776C4.64444 17.7213 4.63077 17.769 4.62679 17.8181L4.586 18.2889C-2.55409 9.69014 7.90638 -2.18578 17.3311 3.85017C17.414 3.9026 17.5142 3.92038 17.61 3.89967C17.7059 3.87897 17.7899 3.82145 17.8438 3.73949C17.8977 3.65753 17.9173 3.55768 17.8983 3.46143C17.8793 3.36518 17.8233 3.28022 17.7424 3.22485C16.0335 2.09804 14.0312 1.49827 11.9842 1.50008C3.15049 1.46575 -1.74833 11.9936 3.96236 18.7114L3.43198 18.6371C3.33453 18.625 3.23624 18.6518 3.15832 18.7115C3.0804 18.7713 3.0291 18.8593 3.01548 18.9565C3.00187 19.0538 3.02703 19.1525 3.08554 19.2313C3.14404 19.3102 3.23121 19.3629 3.32823 19.3781L4.82919 19.5883C4.87943 19.595 4.93051 19.5915 4.97936 19.578C5.02821 19.5645 5.07382 19.5412 5.11347 19.5097C5.15312 19.4781 5.18598 19.4388 5.21008 19.3942C5.23419 19.3497 5.24904 19.3007 5.25374 19.2502L5.37212 17.8828C5.37639 17.8338 5.37098 17.7845 5.35619 17.7377C5.34139 17.6908 5.31751 17.6473 5.2859 17.6097C5.25429 17.5721 5.21558 17.5411 5.17198 17.5184C5.12838 17.4958 5.08074 17.482 5.03179 17.4777Z" fill="#05A155"/>
</svg>
