<svg width="18" height="18" viewBox="0 0 18 18" fill="none" xmlns="http://www.w3.org/2000/svg">
<path d="M17.4108 2.80487C17.4028 2.66726 17.3445 2.53739 17.247 2.43992C17.1495 2.34244 17.0197 2.28416 16.8821 2.27612C13.2427 2.06518 10.3205 3.1719 9.06471 5.24471C8.23502 6.6151 8.23643 8.2794 9.05346 9.86706C8.58841 10.4207 8.24854 11.0683 8.05713 11.7655L6.91315 10.6173C7.46299 9.46909 7.4419 8.27237 6.84284 7.27815C5.91471 5.74604 3.77229 4.92479 1.11237 5.08089C0.974754 5.08892 0.844884 5.14721 0.747412 5.24468C0.649939 5.34215 0.591652 5.47202 0.583616 5.60964C0.426819 8.26956 1.24877 10.412 2.78088 11.3401C3.28647 11.649 3.86746 11.8125 4.45994 11.8126C5.03503 11.8055 5.60117 11.6693 6.11651 11.4139L7.87432 13.1717V15.1876C7.87432 15.3368 7.93358 15.4799 8.03907 15.5854C8.14456 15.6908 8.28764 15.7501 8.43682 15.7501C8.586 15.7501 8.72908 15.6908 8.83457 15.5854C8.94006 15.4799 8.99932 15.3368 8.99932 15.1876V13.1141C8.99682 12.2192 9.30134 11.3506 9.86205 10.6532C10.5855 11.0312 11.3879 11.2336 12.2042 11.2438C12.9933 11.2463 13.7679 11.0307 14.4422 10.6208C16.515 9.36643 17.6246 6.44424 17.4108 2.80487ZM3.36096 10.3782C2.28237 9.72503 1.67205 8.17885 1.68682 6.1876C3.67807 6.17073 5.22424 6.78315 5.87744 7.86174C6.21846 8.42424 6.27401 9.08026 6.05041 9.75596L4.33409 8.03964C4.22774 7.9386 4.08613 7.8831 3.93945 7.88498C3.79277 7.88686 3.65263 7.94596 3.5489 8.04969C3.44518 8.15341 3.38608 8.29356 3.3842 8.44023C3.38232 8.58691 3.43781 8.72852 3.53885 8.83487L5.25518 10.5512C4.57948 10.7748 3.92416 10.7192 3.36096 10.3782ZM13.8593 9.65964C12.9171 10.2299 11.8097 10.2735 10.6847 9.80026L14.4598 6.02448C14.5608 5.91813 14.6163 5.77652 14.6144 5.62984C14.6126 5.48317 14.5535 5.34302 14.4497 5.2393C14.346 5.13557 14.2059 5.07647 14.0592 5.07459C13.9125 5.07271 13.7709 5.12821 13.6646 5.22924L9.88877 9.0001C9.41346 7.8751 9.45635 6.76698 10.0294 5.82549C11.0096 4.20831 13.3341 3.3069 16.3104 3.37651C16.3779 6.35214 15.4779 8.67948 13.8593 9.65964Z" fill="#45A845"/>
</svg>
