<svg width="60" height="60" viewBox="0 0 60 60" fill="none" xmlns="http://www.w3.org/2000/svg">
<g clip-path="url(#clip0_4333_973)">
<path d="M55.8636 52.6913H16.0904C15.0384 52.6913 14.1856 51.8385 14.1856 50.7866V12.4594C14.1856 9.65561 16.4584 7.38281 19.2622 7.38281H54.9234C57.7272 7.38281 60 9.65561 60 12.4594V48.555C60 50.8397 58.1483 52.6913 55.8636 52.6913Z" fill="url(#paint0_linear_4333_973)"/>
<path d="M16.0904 52.6913H55.8636C58.1483 52.6913 60 50.8392 60 48.555V15.818L56.0444 11.8625C55.3985 11.1415 54.4606 10.6874 53.4164 10.6874H14.5042C14.2987 11.239 14.1856 11.8359 14.1856 12.4594V50.7866C14.1856 51.8385 15.0384 52.6913 16.0904 52.6913Z" fill="url(#paint1_linear_4333_973)"/>
<path d="M16.3353 11.0893C17.0356 13.2875 19.0777 14.7798 21.3849 14.7798H35.4501C35.2643 14.7798 35.0802 14.7693 34.898 14.7501L29.1879 9.04358C28.2097 8.01727 26.8359 7.39883 25.3514 7.39883H19.3647C17.7466 7.39883 16.2982 8.12531 15.3264 9.2688C15.7704 9.79202 16.1178 10.4063 16.3353 11.0893Z" fill="url(#paint2_linear_4333_973)"/>
<path d="M53.4164 52.6913H7.06696C5.11871 52.6913 3.53943 51.1121 3.53943 49.1638V14.2145C3.53943 12.2662 5.11871 10.687 7.06696 10.687H53.4164C55.3647 10.687 56.944 12.2662 56.944 14.2145V49.1638C56.944 51.1121 55.3647 52.6913 53.4164 52.6913Z" fill="url(#paint3_linear_4333_973)"/>
<path d="M52.0349 16.4424C51.069 15.4193 49.7008 14.7798 48.1824 14.7798H3.53943V49.1638C3.53943 51.1121 5.11871 52.6913 7.06696 52.6913H53.4164C55.3647 52.6913 56.944 51.1121 56.944 49.1638V21.3515L52.0349 16.4424Z" fill="url(#paint4_linear_4333_973)"/>
<path d="M16.3353 11.0893C17.0357 13.2875 19.0778 14.7798 21.3849 14.7798H35.4501C35.2643 14.7798 35.0803 14.7693 34.8981 14.7501L30.8327 10.687H16.1874C16.2415 10.8188 16.2918 10.952 16.3353 11.0893Z" fill="url(#paint5_linear_4333_973)"/>
<path d="M35.8955 16.116V14.7798H35.4501C33.1435 14.7798 31.1014 13.2875 30.401 11.0893C29.7006 8.89114 27.6585 7.39883 25.3514 7.39883H19.3648C16.4383 7.39883 14.0652 9.77142 14.0652 12.6984V16.116H35.8955Z" fill="url(#paint6_linear_4333_973)"/>
<path d="M16.3353 11.0893C15.6349 8.89114 13.5928 7.39883 11.2862 7.39883H5.29953C2.37259 7.39883 0 9.77142 0 12.6984V47.4577C0 50.3481 2.34329 52.6913 5.23361 52.6913H54.9289C54.1296 52.6913 53.4819 52.0436 53.4819 51.2444V20.0793C53.4819 17.1529 51.1093 14.7798 48.1824 14.7798H21.3849C19.0778 14.7798 17.0357 13.2875 16.3353 11.0893Z" fill="url(#paint7_linear_4333_973)"/>
<path d="M26.4222 31.8238C25.9823 31.3146 24.578 30.7821 23.6328 30.5398C23.0762 28.8836 25.7742 25.2478 26.1103 24.6717C26.1538 24.6147 26.21 24.5686 26.2742 24.5368C26.3385 24.5051 26.4093 24.4886 26.481 24.4886C26.5527 24.4886 26.6234 24.5051 26.6877 24.5368C26.752 24.5686 26.8081 24.6147 26.8517 24.6716C27.1871 25.2401 29.887 28.8894 29.3292 30.5399C28.387 30.7841 26.9752 31.3164 26.5398 31.8238C26.4822 31.8943 26.4787 31.8878 26.4222 31.8238ZM20.9473 31.5028C21.114 32.4365 21.3436 33.3579 21.6345 34.2606C21.7347 34.2776 21.9469 34.3191 22.2313 34.3781C23.397 34.6366 24.9239 34.9897 25.952 35.6304C26.2946 35.2065 26.4807 34.6775 26.4791 34.1324C26.4774 33.5873 26.2881 33.0595 25.943 32.6376C25.2553 31.6833 22.1784 31.1175 21.4717 30.9784C21.4001 30.9657 21.3264 30.9706 21.257 30.9924C21.1876 31.0143 21.1245 31.0526 21.073 31.1041C21.0216 31.1556 20.9833 31.2187 20.9614 31.2881C20.9395 31.3575 20.9347 31.4312 20.9473 31.5028ZM26.481 43.4653C26.6008 43.4649 26.7156 43.4172 26.8003 43.3325C26.885 43.2477 26.9327 43.133 26.9331 43.0132V39.6948C27.1342 39.9727 27.3931 40.2038 27.6921 40.3722C27.991 40.5406 28.3228 40.6422 28.6648 40.6701C29.0067 40.6981 29.3507 40.6516 29.673 40.5339C29.9953 40.4163 30.2883 40.2303 30.5318 39.9886C31.341 39.1794 31.9107 36.2543 32.0147 35.6756C32.0281 35.6033 32.0236 35.5288 32.0015 35.4587C31.9795 35.3885 31.9405 35.3249 31.8881 35.2733C31.575 35.0169 31.3604 35.2059 30.9116 35.2642C29.3635 35.6403 26.572 36.0417 26.4766 38.1486C26.4111 36.0401 23.5733 35.6369 22.0505 35.2642C21.601 35.2053 21.3867 35.017 21.074 35.2733C21.0215 35.3248 20.9826 35.3885 20.9605 35.4587C20.9384 35.5288 20.9339 35.6033 20.9474 35.6756C21.0016 35.965 21.1689 36.842 21.4266 37.7462C21.6798 38.6504 22.0234 39.5863 22.4302 39.9886C22.6738 40.2303 22.9668 40.4163 23.2891 40.534C23.6114 40.6516 23.9553 40.6981 24.2973 40.6701C24.6392 40.6422 24.9711 40.5406 25.27 40.3722C25.5689 40.2038 25.8278 39.9727 26.029 39.6947V43.0132C26.0293 43.1329 26.077 43.2477 26.1617 43.3324C26.2464 43.4171 26.3612 43.4649 26.481 43.4653ZM31.888 31.1005C31.8366 31.0493 31.7735 31.0115 31.7042 30.9902C31.6349 30.969 31.5614 30.9649 31.4902 30.9784C30.5797 31.1417 29.6811 31.3652 28.8002 31.6475C28.2092 31.8048 27.6568 32.0817 27.1772 32.4613C26.7639 32.8762 26.5183 33.4291 26.4875 34.0139C26.4566 34.5987 26.6427 35.1743 27.0099 35.6305C28.2141 34.9032 29.9788 34.521 31.3229 34.2651C31.617 33.3614 31.8482 32.4385 32.0146 31.5028C32.0284 31.4305 32.0241 31.3559 32.002 31.2857C31.9799 31.2155 31.9407 31.1518 31.888 31.1005ZM36.0468 25.6852L36.7458 25.7715C36.8639 25.7842 36.9822 25.75 37.0752 25.6762C37.1682 25.6025 37.2285 25.4951 37.243 25.3773C37.2576 25.2595 37.2252 25.1407 37.1529 25.0465C37.0806 24.9523 36.9742 24.8904 36.8566 24.874L35.126 24.6605C35.0071 24.6466 34.8875 24.6801 34.7932 24.7538C34.6988 24.8274 34.6372 24.9352 34.6218 25.0539L34.4081 26.7846C34.3958 26.9024 34.4303 27.0203 34.5041 27.113C34.5778 27.2057 34.685 27.2657 34.8025 27.2802C34.9201 27.2947 35.0387 27.2626 35.1327 27.1906C35.2268 27.1186 35.2889 27.0126 35.3057 26.8954L35.3796 26.2961C41.9365 33.806 36.4628 45.7638 26.4808 45.7257C24.1842 45.7279 21.9375 45.0549 20.0203 43.7904C19.9202 43.7271 19.7991 43.7057 19.6833 43.7307C19.5675 43.7557 19.4661 43.8251 19.401 43.9241C19.3358 44.0231 19.3122 44.1437 19.335 44.26C19.3579 44.3762 19.4255 44.4789 19.5233 44.5458C31.8431 52.4241 45.4497 36.848 36.0468 25.6852ZM18.0801 40.6189C18.0209 40.6134 17.9612 40.6198 17.9045 40.6375C17.8478 40.6553 17.7951 40.6841 17.7496 40.7224C17.7041 40.7606 17.6666 40.8075 17.6393 40.8604C17.6121 40.9132 17.5956 40.9709 17.5907 41.0302L17.5415 41.5991C8.91385 31.2089 21.5536 16.8588 32.9417 24.1523C33.0419 24.2156 33.163 24.2371 33.2789 24.2121C33.3947 24.1871 33.4961 24.1176 33.5613 24.0185C33.6264 23.9195 33.6501 23.7988 33.6272 23.6825C33.6042 23.5662 33.5366 23.4636 33.4387 23.3967C31.3738 22.0351 28.9544 21.3104 26.481 21.3126C15.8069 21.2711 9.88747 33.9922 16.7879 42.1095L16.147 42.0198C16.0293 42.0052 15.9105 42.0375 15.8163 42.1097C15.7222 42.1819 15.6602 42.2883 15.6438 42.4058C15.6273 42.5233 15.6577 42.6425 15.7284 42.7378C15.7991 42.8331 15.9044 42.8968 16.0217 42.9151L17.8353 43.1692C17.896 43.1773 17.9577 43.1731 18.0168 43.1567C18.0758 43.1404 18.1309 43.1123 18.1788 43.0742C18.2267 43.036 18.2664 42.9886 18.2956 42.9347C18.3247 42.8808 18.3426 42.8216 18.3483 42.7606L18.4913 41.1083C18.4965 41.0492 18.49 40.9896 18.4721 40.933C18.4542 40.8764 18.4254 40.8238 18.3872 40.7784C18.349 40.7329 18.3022 40.6954 18.2495 40.6681C18.1968 40.6407 18.1393 40.624 18.0801 40.6189Z" fill="url(#paint8_linear_4333_973)"/>
</g>
<defs>
<linearGradient id="paint0_linear_4333_973" x1="47.4792" y1="2.54993" x2="36.7086" y2="31.4534" gradientUnits="userSpaceOnUse">
<stop stop-color="#FFD00D"/>
<stop offset="0.2378" stop-color="#FFCB0E"/>
<stop offset="0.5353" stop-color="#FFBB11"/>
<stop offset="0.8632" stop-color="#FFA215"/>
<stop offset="1" stop-color="#FF9517"/>
</linearGradient>
<linearGradient id="paint1_linear_4333_973" x1="48.1577" y1="44.7578" x2="28.5226" y2="25.1227" gradientUnits="userSpaceOnUse">
<stop stop-color="#FF9517" stop-opacity="0"/>
<stop offset="0.3074" stop-color="#EE8421" stop-opacity="0.305882"/>
<stop offset="0.6784" stop-color="#E07728" stop-opacity="0.678431"/>
<stop offset="1" stop-color="#DB722B"/>
</linearGradient>
<linearGradient id="paint2_linear_4333_973" x1="33.0854" y1="20.5455" x2="17.8339" y2="5.29403" gradientUnits="userSpaceOnUse">
<stop stop-color="#FF9517" stop-opacity="0"/>
<stop offset="0.3074" stop-color="#EE8421" stop-opacity="0.305882"/>
<stop offset="0.6784" stop-color="#E07728" stop-opacity="0.678431"/>
<stop offset="1" stop-color="#DB722B"/>
</linearGradient>
<linearGradient id="paint3_linear_4333_973" x1="30.2416" y1="-4.25474" x2="30.2416" y2="53.1346" gradientUnits="userSpaceOnUse">
<stop stop-color="#FFFCF8"/>
<stop offset="0.1875" stop-color="#FAF8F6"/>
<stop offset="0.4041" stop-color="#ECEEF2"/>
<stop offset="0.6353" stop-color="#D5DCEA"/>
<stop offset="0.875" stop-color="#B5C4DF"/>
<stop offset="1" stop-color="#A1B5D8"/>
</linearGradient>
<linearGradient id="paint4_linear_4333_973" x1="56.5834" y1="36.4691" x2="41.6444" y2="35.0569" gradientUnits="userSpaceOnUse">
<stop stop-color="#A1B5D8" stop-opacity="0"/>
<stop offset="0.6699" stop-color="#8190A4" stop-opacity="0.670588"/>
<stop offset="1" stop-color="#748290"/>
</linearGradient>
<linearGradient id="paint5_linear_4333_973" x1="32.9328" y1="20.3928" x2="19.0509" y2="6.51099" gradientUnits="userSpaceOnUse">
<stop stop-color="#A1B5D8" stop-opacity="0"/>
<stop offset="0.6699" stop-color="#8190A4" stop-opacity="0.670588"/>
<stop offset="1" stop-color="#748290"/>
</linearGradient>
<linearGradient id="paint6_linear_4333_973" x1="24.9806" y1="8.59164" x2="24.9806" y2="14.7504" gradientUnits="userSpaceOnUse">
<stop stop-color="#C0C953"/>
<stop offset="0.2277" stop-color="#BAC44D"/>
<stop offset="0.4662" stop-color="#B4BD49"/>
<stop offset="0.7098" stop-color="#AEB743"/>
<stop offset="0.9554" stop-color="#A0A93A"/>
<stop offset="1" stop-color="#868E2D"/>
</linearGradient>
<linearGradient id="paint7_linear_4333_973" x1="27.4644" y1="30.5211" x2="27.4644" y2="55.2582" gradientUnits="userSpaceOnUse">
<stop stop-color="#FFD00D"/>
<stop offset="0.2378" stop-color="#FFCB0E"/>
<stop offset="0.5353" stop-color="#FFBB11"/>
<stop offset="0.8632" stop-color="#FFA215"/>
<stop offset="1" stop-color="#FF9517"/>
</linearGradient>
<linearGradient id="paint8_linear_4333_973" x1="27" y1="47" x2="28" y2="20.5" gradientUnits="userSpaceOnUse">
<stop stop-color="#05A155"/>
<stop offset="0.255208" stop-color="#4EB549"/>
<stop offset="1" stop-color="#92BA38"/>
</linearGradient>
<clipPath id="clip0_4333_973">
<rect width="60" height="60" fill="white"/>
</clipPath>
</defs>
</svg>
