<svg width="14" height="14" viewBox="0 0 14 14" fill="none" xmlns="http://www.w3.org/2000/svg">
<g clip-path="url(#clip0_4333_747)">
<path d="M7.88983 8.25319C7.36719 8.25319 6.85326 8.30952 6.35473 8.4187L7.176 7.59743C8.97388 7.54004 10.6558 6.81322 11.9338 5.53531C13.2662 4.20284 14 2.43127 14 0.546875C14 0.244836 13.7552 0 13.4531 0C11.5688 0 9.79717 0.733824 8.46471 2.06626C7.1868 3.3442 6.45997 5.02611 6.40258 6.82402L5.53805 7.68854C5.65768 7.16797 5.71948 6.63018 5.71948 6.08281C5.71948 4.18655 4.9821 2.40373 3.64321 1.0628C3.54062 0.960066 3.40138 0.902344 3.25622 0.902344C3.11105 0.902344 2.97181 0.960066 2.86922 1.06282C1.53033 2.40376 0.792982 4.18657 0.792982 6.08284C0.792982 7.80221 1.39919 9.42829 2.51033 10.7163L0.160166 13.0664C-0.0533887 13.28 -0.0533887 13.6263 0.160166 13.8398C0.266971 13.9466 0.406943 14 0.546889 14C0.686834 14 0.826807 13.9466 0.933611 13.8398L3.28638 11.4871C4.57648 12.5848 6.21052 13.1799 7.89082 13.1798C8.32783 13.1798 8.76833 13.1395 9.20627 13.0574C9.50311 13.0017 9.69865 12.7159 9.64298 12.4191C9.58728 12.1222 9.30134 11.9266 9.00467 11.9824C7.24088 12.3132 5.43603 11.8419 4.06906 10.7163C6.27956 8.89391 9.50035 8.89405 11.7108 10.7165C11.5968 10.8106 11.4795 10.9004 11.3596 10.9853C11.1132 11.1599 11.0549 11.5012 11.2295 11.7477C11.4041 11.9941 11.7454 12.0524 11.9919 11.8778C12.3171 11.6475 12.626 11.3869 12.9098 11.1034C13.0126 11.0008 13.0703 10.8616 13.0703 10.7164C13.0703 10.5712 13.0126 10.432 12.9098 10.3294C11.5689 8.99054 9.78609 8.25319 7.88983 8.25319ZM12.8788 1.12118C12.607 3.95041 10.3489 6.20854 7.51965 6.48036C7.79145 3.65116 10.0496 1.393 12.8788 1.12118ZM3.25624 2.26188C5.07862 4.47237 5.07862 7.69327 3.25622 9.90377C1.43381 7.69327 1.43381 4.4724 3.25624 2.26188Z" fill="url(#paint0_linear_4333_747)"/>
</g>
<defs>
<linearGradient id="paint0_linear_4333_747" x1="2.5614e-05" y1="15.75" x2="13.9993" y2="1.31181" gradientUnits="userSpaceOnUse">
<stop stop-color="#05A155"/>
<stop offset="0.409754" stop-color="#4EB549"/>
<stop offset="1" stop-color="#92BA38"/>
</linearGradient>
<clipPath id="clip0_4333_747">
<rect width="14" height="14" fill="white"/>
</clipPath>
</defs>
</svg>
