<svg width="26" height="26" viewBox="0 0 26 26" fill="none" xmlns="http://www.w3.org/2000/svg">
<path d="M12.9306 11.049C12.5363 10.5924 11.2772 10.115 10.4297 9.89777C9.93078 8.41293 12.3497 5.15318 12.6509 4.63668C12.69 4.58564 12.7403 4.54428 12.798 4.51581C12.8556 4.48734 12.919 4.47253 12.9833 4.47252C13.0476 4.47252 13.111 4.48732 13.1687 4.51578C13.2263 4.54424 13.2766 4.58559 13.3157 4.63663C13.6164 5.14633 16.037 8.41807 15.5369 9.89782C14.6922 10.1168 13.4264 10.594 13.036 11.0489C12.9844 11.1122 12.9813 11.1063 12.9306 11.049ZM8.02211 10.7612C8.17158 11.5983 8.37742 12.4243 8.63823 13.2337C8.72804 13.2489 8.91832 13.2861 9.17322 13.339C10.2184 13.5708 11.5873 13.8873 12.5091 14.4618C12.8162 14.0817 12.9831 13.6074 12.9816 13.1187C12.9801 12.6301 12.8104 12.1568 12.501 11.7786C11.8844 10.923 9.12584 10.4157 8.49227 10.291C8.42801 10.2796 8.36197 10.284 8.29974 10.3036C8.23751 10.3232 8.18093 10.3575 8.13479 10.4037C8.08866 10.4498 8.05433 10.5064 8.03471 10.5686C8.0151 10.6309 8.01078 10.6969 8.02211 10.7612ZM12.9833 21.4861C13.0907 21.4858 13.1936 21.443 13.2696 21.367C13.3455 21.2911 13.3883 21.1882 13.3887 21.0808V18.1057C13.569 18.3549 13.8011 18.5621 14.0691 18.713C14.3371 18.864 14.6346 18.9551 14.9412 18.9801C15.2478 19.0052 15.5562 18.9635 15.8451 18.858C16.1341 18.7526 16.3967 18.5858 16.6151 18.3691C17.3406 17.6436 17.8513 15.0212 17.9446 14.5023C17.9566 14.4375 17.9526 14.3707 17.9328 14.3078C17.913 14.2449 17.8781 14.1878 17.8311 14.1416C17.5504 13.9117 17.3579 14.0812 16.9556 14.1334C15.5677 14.4706 13.0649 14.8305 12.9793 16.7195C12.9207 14.8291 10.3765 14.4676 9.01112 14.1335C8.60817 14.0806 8.41608 13.9118 8.13566 14.1416C8.08865 14.1878 8.05373 14.2449 8.03394 14.3078C8.01415 14.3707 8.01011 14.4375 8.02217 14.5023C8.07081 14.7617 8.22078 15.5481 8.45182 16.3587C8.6788 17.1694 8.98686 18.0084 9.35163 18.3691C9.56998 18.5858 9.83267 18.7526 10.1216 18.8581C10.4106 18.9635 10.7189 19.0052 11.0255 18.9801C11.3321 18.9551 11.6296 18.864 11.8976 18.713C12.1656 18.5621 12.3978 18.3548 12.5781 18.1056V21.0808C12.5784 21.1882 12.6212 21.2911 12.6971 21.367C12.773 21.443 12.8759 21.4858 12.9833 21.4861ZM17.831 10.4004C17.7849 10.3546 17.7284 10.3207 17.6662 10.3016C17.6041 10.2825 17.5382 10.2789 17.4743 10.291C16.658 10.4374 15.8524 10.6378 15.0626 10.8909C14.5327 11.0319 14.0375 11.2802 13.6075 11.6205C13.237 11.9925 13.0168 12.4881 12.9891 13.0125C12.9615 13.5368 13.1283 14.0529 13.4576 14.4618C14.5372 13.8098 16.1193 13.4671 17.3244 13.2377C17.5881 12.4275 17.7953 11.6 17.9445 10.7612C17.9569 10.6963 17.953 10.6295 17.9332 10.5665C17.9134 10.5036 17.8783 10.4465 17.831 10.4004ZM21.5596 5.54539L22.1863 5.62277C22.2921 5.63415 22.3982 5.60346 22.4816 5.53734C22.565 5.47121 22.619 5.37494 22.632 5.26931C22.6451 5.16368 22.6161 5.05716 22.5513 4.97273C22.4864 4.88831 22.391 4.83275 22.2856 4.81806L20.734 4.62668C20.6274 4.61425 20.5202 4.64429 20.4356 4.71029C20.351 4.77629 20.2958 4.87295 20.282 4.97935L20.0904 6.53101C20.0794 6.63663 20.1103 6.74235 20.1764 6.82545C20.2425 6.90855 20.3386 6.96239 20.444 6.9754C20.5494 6.98841 20.6557 6.95955 20.7401 6.89503C20.8244 6.8305 20.8801 6.73547 20.8951 6.63034L20.9614 6.09304C26.84 12.826 21.9325 23.5469 12.9832 23.5127C10.9241 23.5147 8.90989 22.9113 7.19101 21.7776C7.1012 21.7209 6.99271 21.7016 6.88887 21.7241C6.78502 21.7465 6.69413 21.8088 6.63573 21.8975C6.57733 21.9863 6.5561 22.0944 6.5766 22.1986C6.5971 22.3028 6.6577 22.3949 6.74535 22.4549C17.7907 29.5181 29.9897 15.5534 21.5596 5.54539ZM5.45151 18.9342C5.39843 18.9293 5.34492 18.935 5.29405 18.9509C5.24319 18.9668 5.19599 18.9927 5.15518 19.027C5.11438 19.0613 5.08078 19.1033 5.05633 19.1507C5.03189 19.198 5.01708 19.2498 5.01276 19.3029L4.96858 19.813C-2.76652 10.4977 8.56566 -2.36793 18.7757 4.17102C18.8655 4.22782 18.9741 4.24707 19.078 4.22465C19.1818 4.20222 19.2728 4.13991 19.3312 4.05112C19.3896 3.96232 19.4108 3.85415 19.3902 3.74988C19.3697 3.64561 19.309 3.55358 19.2213 3.49358C17.37 2.27287 15.2008 1.62312 12.9833 1.62509C3.41344 1.5879 -1.89362 12.993 4.29297 20.2706L3.71839 20.1902C3.61281 20.1771 3.50633 20.2061 3.42192 20.2708C3.33751 20.3355 3.28193 20.4309 3.26718 20.5362C3.25243 20.6416 3.27969 20.7485 3.34307 20.8339C3.40646 20.9194 3.50089 20.9765 3.60599 20.9929L5.23203 21.2207C5.28646 21.228 5.34179 21.2242 5.39471 21.2095C5.44763 21.1949 5.49705 21.1697 5.54 21.1355C5.58295 21.1013 5.61855 21.0587 5.64466 21.0104C5.67077 20.9621 5.68686 20.909 5.69196 20.8544L5.8202 19.373C5.82483 19.32 5.81897 19.2665 5.80294 19.2158C5.78692 19.165 5.76104 19.1179 5.7268 19.0772C5.69256 19.0364 5.65062 19.0028 5.60338 18.9783C5.55615 18.9538 5.50454 18.9388 5.45151 18.9342Z" fill="#05A155"/>
</svg>
