<svg id="glipy_copy" height="512" viewBox="0 0 64 64" width="512" xmlns="http://www.w3.org/2000/svg" xmlns:xlink="http://www.w3.org/1999/xlink" data-name="glipy copy"><linearGradient id="linear-gradient" gradientUnits="userSpaceOnUse" x1="4.018" x2="59.982" y1="32" y2="32"><stop offset="0" stop-color="#9cffac"/><stop offset="1" stop-color="#00b59c"/></linearGradient><path d="m31.82825 27.19739c-.97071-1.12378-4.07-2.29889-6.156-2.83368-1.22821-3.655 4.726-11.679 5.46759-12.95038a1.03044 1.03044 0 0 1 1.63635-.00012c.74006 1.25464 6.69861 9.30816 5.46753 12.95062-2.07928.539-5.19513 1.71375-6.156 2.8335-.12703.15567-.13472.14123-.25947.00006zm-12.08246-.70839a46.47821 46.47821 0 0 0 1.5166 6.08618c.22107.03748.68945.12909 1.31689.25934 2.57264.5705 5.94239 1.34961 8.21137 2.76367a5.23493 5.23493 0 0 0 -.02-6.60485c-1.51758-2.10608-8.308-3.35468-9.86755-3.66175a.999.999 0 0 0 -1.15731 1.15741zm12.21221 26.39985a1.00066 1.00066 0 0 0 .99774-.99774v-7.32336a5.244 5.244 0 0 0 7.942.6485c1.78589-1.78589 3.043-8.24115 3.27253-9.51831a.99131.99131 0 0 0 -.27936-.88788c-.69092-.56592-1.16461-.14868-2.15509-.02008-3.41632.83-9.577 1.71588-9.7876 6.3656-.14447-4.6532-6.4071-5.54315-9.76794-6.36554-.99189-.13007-1.46473-.54572-2.155.0199a.99145.99145 0 0 0 -.27936.888c.11975.63861.48889 2.57415 1.05762 4.56964.55871 1.99542 1.317 4.06073 2.2149 4.94873a5.244 5.244 0 0 0 7.942-.64862v7.32342a1.00064 1.00064 0 0 0 .99756.99774zm11.93281-27.28785a.98509.98509 0 0 0 -.878-.26935 46.11847 46.11847 0 0 0 -5.93653 1.47663 9.855 9.855 0 0 0 -3.58184 1.7959 5.24748 5.24748 0 0 0 -.36908 6.99408c2.65747-1.605 6.552-2.44855 9.51831-3.01319a45.38307 45.38307 0 0 0 1.5265-6.09607.98328.98328 0 0 0 -.27936-.888zm9.17792-11.95086 1.54272.19049a.99806.99806 0 0 0 .24451-1.98084l-3.8194-.47107a1.00469 1.00469 0 0 0 -1.11267.8681l-.47156 3.81946a.99812.99812 0 0 0 1.98084.24451l.1632-1.32257c14.47034 16.57355 2.39039 42.96332-19.63873 42.87915a25.85111 25.85111 0 0 1 -14.25764-4.27092.998.998 0 0 0 -1.097 1.66711c27.18863 17.38644 57.21689-16.98828 36.46573-41.62347zm-39.65058 32.9571a.99212.99212 0 0 0 -1.08.90759l-.10876 1.25562c-19.04024-22.93012 8.85435-54.59925 33.9868-38.50336a.99812.99812 0 0 0 1.09681-1.66754 27.84854 27.84854 0 0 0 -15.355-4.59937c-23.55663-.09155-36.62017 27.98267-21.39165 45.89673l-1.41435-.19806a.99774.99774 0 0 0 -.27667 1.97595l4.00256.56073a1.00374 1.00374 0 0 0 1.13214-.90173l.31567-3.64648a.997.997 0 0 0 -.90755-1.08008z" fill="url(#linear-gradient)"/></svg>