<svg width="16" height="17" viewBox="0 0 16 17" fill="none" xmlns="http://www.w3.org/2000/svg">
<g id="currency-inr 2">
<path id="Vector" d="M13 5.5C13 5.63261 12.9473 5.75979 12.8536 5.85355C12.7598 5.94732 12.6326 6 12.5 6H10.4906C10.4963 6.0825 10.5 6.16563 10.5 6.25C10.4988 7.24421 10.1034 8.19736 9.40037 8.90037C8.69736 9.60338 7.74421 9.99884 6.75 10H5.79313L10.3363 14.13C10.3857 14.1739 10.426 14.2272 10.4548 14.2868C10.4835 14.3464 10.5002 14.4111 10.5037 14.4772C10.5073 14.5432 10.4977 14.6094 10.4755 14.6717C10.4533 14.734 10.419 14.7913 10.3745 14.8403C10.33 14.8893 10.2762 14.9289 10.2163 14.9569C10.1563 14.985 10.0914 15.0008 10.0253 15.0036C9.9592 15.0064 9.8932 14.996 9.83114 14.973C9.76907 14.9501 9.71218 14.9151 9.66375 14.87L4.16375 9.87C4.08907 9.80212 4.03668 9.71324 4.01346 9.61503C3.99025 9.51682 3.99729 9.41388 4.03367 9.31975C4.07006 9.22562 4.13407 9.1447 4.2173 9.08763C4.30053 9.03056 4.39908 9.00001 4.5 9H6.75C7.47909 8.99917 8.17808 8.70918 8.69363 8.19363C9.20918 7.67808 9.49917 6.97909 9.5 6.25C9.5 6.16563 9.49563 6.0825 9.48812 6H4.5C4.36739 6 4.24021 5.94732 4.14645 5.85355C4.05268 5.75979 4 5.63261 4 5.5C4 5.36739 4.05268 5.24021 4.14645 5.14645C4.24021 5.05268 4.36739 5 4.5 5H9.19812C8.96783 4.54872 8.61736 4.16984 8.18536 3.90515C7.75336 3.64046 7.25664 3.50025 6.75 3.5H4.5C4.36739 3.5 4.24021 3.44732 4.14645 3.35355C4.05268 3.25979 4 3.13261 4 3C4 2.86739 4.05268 2.74021 4.14645 2.64645C4.24021 2.55268 4.36739 2.5 4.5 2.5H12.5C12.6326 2.5 12.7598 2.55268 12.8536 2.64645C12.9473 2.74021 13 2.86739 13 3C13 3.13261 12.9473 3.25979 12.8536 3.35355C12.7598 3.44732 12.6326 3.5 12.5 3.5H9.29625C9.74226 3.91271 10.0815 4.42742 10.285 5H12.5C12.6326 5 12.7598 5.05268 12.8536 5.14645C12.9473 5.24021 13 5.36739 13 5.5Z" fill="white"/>
</g>
</svg>
