<svg width="16" height="17" viewBox="0 0 16 17" fill="none" xmlns="http://www.w3.org/2000/svg">
<g id="currency-inr 3" clip-path="url(#clip0_1106_434)">
<path id="Vector" d="M10 5.5C10 5.63261 9.94732 5.75979 9.85355 5.85355C9.75979 5.94732 9.63261 6 9.5 6H7.49063C7.49625 6.0825 7.5 6.16563 7.5 6.25C7.49884 7.24421 7.10338 8.19736 6.40037 8.90037C5.69736 9.60338 4.74421 9.99884 3.75 10H2.79313L7.33625 14.13C7.38575 14.1739 7.42603 14.2272 7.45478 14.2868C7.48353 14.3464 7.50016 14.4111 7.50371 14.4772C7.50727 14.5432 7.49767 14.6094 7.47549 14.6717C7.4533 14.734 7.41896 14.7913 7.37446 14.8403C7.32996 14.8893 7.27619 14.9289 7.21625 14.9569C7.15632 14.985 7.09142 15.0008 7.02531 15.0036C6.9592 15.0064 6.8932 14.996 6.83114 14.973C6.76907 14.9501 6.71218 14.9151 6.66375 14.87L1.16375 9.87C1.08907 9.80212 1.03668 9.71324 1.01346 9.61503C0.990248 9.51682 0.997294 9.41388 1.03367 9.31975C1.07006 9.22562 1.13407 9.1447 1.2173 9.08763C1.30053 9.03056 1.39908 9.00001 1.5 9H3.75C4.47909 8.99917 5.17808 8.70918 5.69363 8.19363C6.20918 7.67808 6.49917 6.97909 6.5 6.25C6.5 6.16563 6.49563 6.0825 6.48812 6H1.5C1.36739 6 1.24021 5.94732 1.14645 5.85355C1.05268 5.75979 1 5.63261 1 5.5C1 5.36739 1.05268 5.24021 1.14645 5.14645C1.24021 5.05268 1.36739 5 1.5 5H6.19812C5.96783 4.54872 5.61736 4.16984 5.18536 3.90515C4.75336 3.64046 4.25664 3.50025 3.75 3.5H1.5C1.36739 3.5 1.24021 3.44732 1.14645 3.35355C1.05268 3.25979 1 3.13261 1 3C1 2.86739 1.05268 2.74021 1.14645 2.64645C1.24021 2.55268 1.36739 2.5 1.5 2.5H9.5C9.63261 2.5 9.75979 2.55268 9.85355 2.64645C9.94732 2.74021 10 2.86739 10 3C10 3.13261 9.94732 3.25979 9.85355 3.35355C9.75979 3.44732 9.63261 3.5 9.5 3.5H6.29625C6.74226 3.91271 7.08153 4.42742 7.285 5H9.5C9.63261 5 9.75979 5.05268 9.85355 5.14645C9.94732 5.24021 10 5.36739 10 5.5Z" fill="white"/>
<path id="Vector_2" fill-rule="evenodd" clip-rule="evenodd" d="M13.1998 6.11652C13.2052 6.12068 13.2104 6.12519 13.2152 6.13002L14.3905 7.30528L14.7626 6.93317C14.919 6.77514 15.0066 6.56158 15.006 6.33918C15.0055 6.11679 14.9169 5.90366 14.7596 5.7464C14.6024 5.58914 14.3892 5.50055 14.1668 5.5C13.9445 5.49946 13.7309 5.58699 13.5729 5.74348L13.1998 6.11652ZM14.1712 7.52455L8.61962 13.0761L7 13.58L7.43323 11.8831L12.9824 6.33393C12.9866 6.33935 12.9911 6.34448 12.9959 6.34931L14.1712 7.52455Z" fill="white"/>
<path id="Line 1" d="M1 16.25H15" stroke="white" stroke-width="0.7" stroke-linecap="round"/>
</g>
<defs>
<clipPath id="clip0_1106_434">
<rect width="16" height="16" fill="white" transform="translate(0 0.5)"/>
</clipPath>
</defs>
</svg>
