<svg width="20" height="20" viewBox="0 0 20 20" fill="none" xmlns="http://www.w3.org/2000/svg">
<path d="M20 10.1562C20 12.5686 18.037 14.5312 15.625 14.5312H12.5C12.1545 14.5312 11.875 14.2514 11.875 13.9062C11.875 13.5611 12.1545 13.2812 12.5 13.2812H15.625C17.348 13.2812 18.75 11.8792 18.75 10.1562C18.75 8.43328 17.348 7.03125 15.625 7.03125H15C14.6545 7.03125 14.375 6.75141 14.375 6.40625C14.375 3.99391 12.412 2.03125 10 2.03125C7.58797 2.03125 5.625 3.99391 5.625 6.40625C5.625 6.75141 5.34547 7.03125 5 7.03125H4.375C2.65203 7.03125 1.25 8.43328 1.25 10.1562C1.25 11.8792 2.65203 13.2812 4.375 13.2812H7.5C7.84547 13.2812 8.125 13.5611 8.125 13.9062C8.125 14.2514 7.84547 14.5312 7.5 14.5312H4.375C1.96297 14.5312 0 12.5686 0 10.1562C0 7.74391 1.96297 5.78125 4.375 5.78125H4.40984C4.72172 2.97266 7.10938 0.78125 10 0.78125C12.8906 0.78125 15.2783 2.97266 15.5902 5.78125H15.625C18.0372 5.78125 20 7.74391 20 10.1562ZM12.0581 15.9644L10.625 17.3975V9.53125C10.625 9.18609 10.3455 8.90625 10 8.90625C9.65453 8.90625 9.375 9.18609 9.375 9.53125V17.3975L7.94187 15.9644C7.69766 15.7202 7.30219 15.7202 7.05813 15.9644C6.81406 16.2086 6.81391 16.6041 7.05813 16.8481L9.55813 19.3481C9.68016 19.4702 9.84016 19.5312 10 19.5312C10.1598 19.5312 10.3198 19.4702 10.4419 19.3481L12.9419 16.8481C13.1861 16.6039 13.1861 16.2084 12.9419 15.9644C12.6977 15.7203 12.3022 15.7202 12.0581 15.9644Z" fill="black"/>
</svg>
