<svg width="27" height="27" viewBox="0 0 27 27" fill="none" xmlns="http://www.w3.org/2000/svg">
<rect x="0.25" y="0.0941162" width="26" height="26" rx="4" fill="#6A7185" fill-opacity="0.1"/>
<g clip-path="url(#clip0_4888_211)">
<path d="M21.455 4.88916C20.9451 4.38006 20.254 4.09412 19.5335 4.09412C18.813 4.09412 18.1219 4.38006 17.612 4.88916L4.25 18.2512V22.0942H8.093L21.455 8.73216C21.9639 8.22218 22.2497 7.53114 22.2497 6.81066C22.2497 6.09019 21.9639 5.39915 21.455 4.88916ZM7.475 20.5942H5.75V18.8692L15.7325 8.89416L17.4575 10.6192L7.475 20.5942ZM20.3945 7.67166L18.5142 9.55191L16.793 7.82691L18.6725 5.94966C18.9012 5.72091 19.2115 5.5924 19.535 5.5924C19.8585 5.5924 20.1688 5.72091 20.3975 5.94966C20.6262 6.17841 20.7548 6.48866 20.7548 6.81216C20.7548 7.13566 20.6262 7.44591 20.3975 7.67466L20.3945 7.67166Z" fill="#6A7185"/>
</g>
<defs>
<clipPath id="clip0_4888_211">
<rect width="18" height="18" fill="white" transform="translate(4.25 4.09412)"/>
</clipPath>
</defs>
</svg>
