<svg width="19" height="19" viewBox="0 0 19 19" fill="none" xmlns="http://www.w3.org/2000/svg">
<g clip-path="url(#clip0_3257_13865)">
<path d="M17.455 0.842105C16.9451 0.333003 16.254 0.0470581 15.5335 0.0470581C14.813 0.0470581 14.1219 0.333003 13.612 0.842105L0.25 14.2041V18.0471H4.093L17.455 4.68511C17.9639 4.17512 18.2497 3.48408 18.2497 2.76361C18.2497 2.04313 17.9639 1.35209 17.455 0.842105ZM3.475 16.5471H1.75V14.8221L11.7325 4.84711L13.4575 6.57211L3.475 16.5471ZM16.3945 3.62461L14.5142 5.50486L12.793 3.77986L14.6725 1.90261C14.9012 1.67386 15.2115 1.54535 15.535 1.54535C15.8585 1.54535 16.1688 1.67386 16.3975 1.90261C16.6262 2.13135 16.7548 2.44161 16.7548 2.76511C16.7548 3.08861 16.6262 3.39886 16.3975 3.62761L16.3945 3.62461Z" fill="#6A7185"/>
</g>
<defs>
<clipPath id="clip0_3257_13865">
<rect width="18" height="18" fill="white" transform="translate(0.25 0.0470581)"/>
</clipPath>
</defs>
</svg>
