<svg width="60" height="60" viewBox="0 0 60 60" fill="none" xmlns="http://www.w3.org/2000/svg">
<path d="M4.31189 22.783V12.217C4.31189 11.4163 4.62995 10.6485 5.1961 10.0823C5.76224 9.51618 6.5301 9.19812 7.33076 9.19812H21.4138C22.067 9.19812 22.7025 9.40998 23.2251 9.80189L27.6628 13.1226C28.1854 13.5146 28.821 13.7264 29.4742 13.7264H52.6138C53.4144 13.7264 54.1823 14.0445 54.7484 14.6106C55.3146 15.1768 55.6327 15.9446 55.6327 16.7453V22.783H4.31189Z" fill="url(#paint0_linear_4333_793)"/>
<path d="M4.31189 22.783V12.217C4.31189 11.4163 4.62995 10.6485 5.1961 10.0823C5.76224 9.51618 6.5301 9.19812 7.33076 9.19812H21.4138C22.067 9.19812 22.7025 9.40998 23.2251 9.80189L27.6628 13.1226C28.1854 13.5146 28.821 13.7264 29.4742 13.7264H52.6138C53.4144 13.7264 54.1823 14.0445 54.7484 14.6106C55.3146 15.1768 55.6327 15.9446 55.6327 16.7453V22.783H4.31189Z" fill="url(#paint1_linear_4333_793)"/>
<path d="M58.6515 24.534L54.1232 51.7038C54.0654 52.0609 53.8811 52.3855 53.6041 52.6182C53.327 52.8509 52.9756 52.9764 52.6138 52.9717H7.33076C6.96897 52.9764 6.61753 52.8509 6.34048 52.6182C6.06343 52.3855 5.87919 52.0609 5.82133 51.7038L1.29303 24.534C1.25776 24.3165 1.27052 24.094 1.33042 23.882C1.39031 23.6699 1.49589 23.4736 1.63973 23.3068C1.78358 23.1399 1.9622 23.0066 2.16307 22.9161C2.36394 22.8256 2.58217 22.7802 2.80246 22.783H57.1421C57.3624 22.7802 57.5806 22.8256 57.7815 22.9161C57.9823 23.0066 58.161 23.1399 58.3048 23.3068C58.4487 23.4736 58.5542 23.6699 58.6141 23.882C58.674 24.094 58.6868 24.3165 58.6515 24.534Z" fill="url(#paint2_linear_4333_793)"/>
<path d="M58.6515 24.534L54.1232 51.7038C54.0654 52.0609 53.8811 52.3855 53.6041 52.6182C53.327 52.8509 52.9756 52.9764 52.6138 52.9717H7.33076C6.96897 52.9764 6.61753 52.8509 6.34048 52.6182C6.06343 52.3855 5.87919 52.0609 5.82133 51.7038L1.29303 24.534C1.25776 24.3165 1.27052 24.094 1.33042 23.882C1.39031 23.6699 1.49589 23.4736 1.63973 23.3068C1.78358 23.1399 1.9622 23.0066 2.16307 22.9161C2.36394 22.8256 2.58217 22.7802 2.80246 22.783H57.1421C57.3624 22.7802 57.5806 22.8256 57.7815 22.9161C57.9823 23.0066 58.161 23.1399 58.3048 23.3068C58.4487 23.4736 58.5542 23.6699 58.6141 23.882C58.674 24.094 58.6868 24.3165 58.6515 24.534Z" fill="url(#paint3_linear_4333_793)"/>
<path d="M28.3314 36.3035C27.9248 35.8969 26.6547 35.4497 25.8027 35.239C25.2623 33.9373 27.5828 31.1715 27.8687 30.7311C27.9062 30.6879 27.9552 30.6533 28.012 30.6301C28.0687 30.6069 28.1315 30.5957 28.1957 30.5974C28.2598 30.599 28.3236 30.6135 28.3819 30.6397C28.4402 30.6659 28.4916 30.7031 28.5321 30.7485C28.8467 31.1987 31.3561 34.1014 30.8994 35.3725C30.0627 35.5405 28.8131 35.9216 28.4366 36.3062C28.3869 36.3597 28.3836 36.3546 28.3314 36.3035ZM23.4248 35.9254C23.5979 36.6558 23.827 37.3781 24.1105 38.0874C24.2005 38.1029 24.3915 38.1402 24.6474 38.1928C25.697 38.4212 27.0722 38.7317 28.0085 39.2543C28.3041 38.9325 28.4571 38.5252 28.4416 38.1011C28.4261 37.6769 28.2432 37.2618 27.9236 36.9254C27.2838 36.1668 24.5164 35.6545 23.8805 35.5297C23.8161 35.5181 23.7503 35.5202 23.6888 35.5356C23.6272 35.551 23.5717 35.5793 23.527 35.6181C23.4823 35.657 23.4497 35.7052 23.4319 35.7587C23.4141 35.8122 23.4117 35.8694 23.4248 35.9254ZM28.6829 45.3629C28.7901 45.3655 28.8916 45.331 28.9652 45.2671C29.0388 45.2031 29.0786 45.1149 29.0758 45.0217L28.9906 42.4397C29.1777 42.6607 29.4153 42.8466 29.6871 42.9846C29.9589 43.1226 30.2584 43.2095 30.565 43.2392C30.8717 43.269 31.1782 43.2409 31.4635 43.1569C31.7489 43.0729 32.0062 42.935 32.2179 42.7527C32.9212 42.142 33.3557 39.8794 33.4339 39.4315C33.4441 39.3756 33.4381 39.3175 33.4166 39.2624C33.3951 39.2073 33.3586 39.1569 33.3103 39.1155C33.0236 38.9087 32.8365 39.0507 32.4364 39.0856C31.061 39.3419 28.5737 39.5889 28.5425 41.226C28.4297 39.5839 25.8805 39.2036 24.5084 38.878C24.1047 38.8216 23.9082 38.67 23.6349 38.8621C23.5893 38.901 23.5561 38.9497 23.5382 39.0037C23.5202 39.0578 23.5181 39.1157 23.532 39.1722C23.588 39.3987 23.7602 40.085 24.0139 40.7946C24.2637 41.5041 24.5951 42.2403 24.9695 42.5629C25.1936 42.7566 25.4605 42.9082 25.7519 43.0073C26.0432 43.1064 26.3522 43.1506 26.6574 43.1369C26.9626 43.1232 27.2569 43.0519 27.52 42.9279C27.7832 42.8039 28.0089 42.6301 28.1817 42.4185L28.2669 45.0006C28.2703 45.0938 28.3159 45.1842 28.3939 45.2521C28.4718 45.32 28.5757 45.3598 28.6829 45.3629ZM33.2032 35.8687C33.1558 35.8277 33.0984 35.7968 33.0359 35.7786C32.9733 35.7604 32.9075 35.7556 32.8441 35.7644C32.0336 35.8701 31.2354 36.023 30.4545 36.222C29.9298 36.3305 29.4426 36.5331 29.0233 36.8171C28.6642 37.1303 28.4587 37.5547 28.4461 38.0091C28.4335 38.4634 28.6147 38.9156 28.955 39.2791C30.0137 38.7415 31.5828 38.4854 32.7788 38.3178C33.0187 37.6216 33.2018 36.9088 33.3267 36.1847C33.3372 36.1288 33.3314 36.0706 33.3098 36.0155C33.2883 35.9603 33.2516 35.9099 33.2032 35.8687ZM36.7849 31.7526L37.4126 31.8361C37.5185 31.8488 37.6235 31.8249 37.7048 31.7697C37.7861 31.7145 37.8373 31.6323 37.8473 31.541C37.8573 31.4497 37.8253 31.3565 37.7582 31.2815C37.6911 31.2065 37.5943 31.1558 37.4887 31.1403L35.9348 30.9337C35.8281 30.9201 35.722 30.9434 35.6394 30.9984C35.5569 31.0535 35.5046 31.136 35.4938 31.2279L35.347 32.5696C35.3391 32.661 35.373 32.7535 35.4413 32.8274C35.5097 32.9012 35.6071 32.9504 35.7127 32.9645C35.8182 32.9785 35.9235 32.9563 36.0058 32.9025C36.0881 32.8487 36.141 32.7677 36.1529 32.6768L36.2037 32.2122C42.263 38.2092 37.6727 47.3853 28.7408 47.1217C26.6861 47.0696 24.6587 46.4934 22.9109 45.4646C22.8197 45.413 22.7109 45.3934 22.6079 45.4102C22.5049 45.4269 22.416 45.4786 22.3602 45.5541C22.3045 45.6296 22.2864 45.7229 22.3098 45.8139C22.3333 45.9049 22.3964 45.9863 22.4856 46.0407C33.7104 52.4593 45.4843 40.6585 36.7849 31.7526ZM21.0936 42.9514C21.0405 42.9457 20.9872 42.9493 20.9369 42.9618C20.8866 42.9743 20.8403 42.9955 20.8005 43.0242C20.7608 43.0529 20.7285 43.0885 20.7054 43.1289C20.6824 43.1694 20.6691 43.2139 20.6663 43.2599L20.6368 43.7015C12.6509 35.4148 23.5912 24.5453 33.9675 30.4871C34.0588 30.5387 34.1676 30.5582 34.2706 30.5415C34.3737 30.5247 34.4626 30.473 34.5184 30.3975C34.5741 30.322 34.5922 30.2287 34.5687 30.1376C34.5452 30.0466 34.482 29.9651 34.3927 29.9108C32.5103 28.803 30.327 28.1824 28.1141 28.1262C18.5629 27.8438 13.5935 37.6033 19.9757 44.081L19.4 43.9961C19.2943 43.982 19.1888 44.0044 19.1065 44.0583C19.0241 44.1123 18.9713 44.1936 18.9596 44.2846C18.9479 44.3757 18.9782 44.4692 19.0439 44.545C19.1096 44.6208 19.2055 44.6728 19.3108 44.6898L20.94 44.93C20.9946 44.9378 21.0497 44.9359 21.1021 44.9246C21.1544 44.9132 21.203 44.8927 21.2449 44.8641C21.2868 44.8355 21.3211 44.7996 21.3458 44.7583C21.3705 44.7171 21.385 44.6714 21.3885 44.6241L21.4741 43.3418C21.4772 43.2959 21.4698 43.2494 21.4523 43.2049C21.4349 43.1605 21.4077 43.1189 21.3724 43.0827C21.3371 43.0464 21.2942 43.0161 21.2464 42.9936C21.1986 42.9711 21.1466 42.9567 21.0936 42.9514Z" fill="url(#paint4_linear_4333_793)"/>
<defs>
<linearGradient id="paint0_linear_4333_793" x1="29.9723" y1="22.783" x2="29.9723" y2="9.19812" gradientUnits="userSpaceOnUse">
<stop stop-color="#54A5FF"/>
<stop offset="1" stop-color="#8AD3FE"/>
</linearGradient>
<linearGradient id="paint1_linear_4333_793" x1="41.607" y1="7.74907" x2="42.4833" y2="21.7414" gradientUnits="userSpaceOnUse">
<stop stop-color="#FFD00D"/>
<stop offset="0.2378" stop-color="#FFCB0E"/>
<stop offset="0.5353" stop-color="#FFBB11"/>
<stop offset="0.8632" stop-color="#FFA215"/>
<stop offset="1" stop-color="#FF9517"/>
</linearGradient>
<linearGradient id="paint2_linear_4333_793" x1="29.9723" y1="52.9717" x2="29.9723" y2="22.783" gradientUnits="userSpaceOnUse">
<stop stop-color="#54A5FF"/>
<stop offset="1" stop-color="#8AD3FE"/>
</linearGradient>
<linearGradient id="paint3_linear_4333_793" x1="29.9723" y1="38.1946" x2="29.9723" y2="54.6827" gradientUnits="userSpaceOnUse">
<stop stop-color="#FFD00D"/>
<stop offset="0.2378" stop-color="#FFCB0E"/>
<stop offset="0.5353" stop-color="#FFBB11"/>
<stop offset="0.8632" stop-color="#FFA215"/>
<stop offset="1" stop-color="#FF9517"/>
</linearGradient>
<linearGradient id="paint4_linear_4333_793" x1="29.2381" y1="48.1254" x2="30.4485" y2="27.5882" gradientUnits="userSpaceOnUse">
<stop stop-color="#05A155"/>
<stop offset="0.255208" stop-color="#4EB549"/>
<stop offset="1" stop-color="#92BA38"/>
</linearGradient>
</defs>
</svg>
