<svg width="164" height="121" viewBox="0 0 164 121" fill="none" xmlns="http://www.w3.org/2000/svg">
<g clip-path="url(#clip0_3573_9528)">
<path d="M13.0973 66.9134C21.747 72.0977 34.1565 67.3054 34.1565 67.3054C34.1565 67.3054 32.534 54.1097 23.8791 48.9317C15.2294 43.7474 2.82495 48.5339 2.82495 48.5339C2.82495 48.5339 4.44772 61.7294 13.0973 66.9134Z" fill="url(#paint0_linear_3573_9528)"/>
<path d="M117.907 111.653C115.482 111.653 113.515 113.62 113.515 116.046C113.515 118.471 115.482 120.438 117.907 120.438C120.333 120.438 122.3 118.471 122.3 116.046C122.3 113.62 120.333 111.653 117.907 111.653Z" fill="#6A7185"/>
<path d="M50.5529 120.443C48.2786 120.443 46.4349 118.6 46.4349 116.325C46.4349 114.051 48.2786 112.207 50.5529 112.207C52.8272 112.207 54.6709 114.051 54.6709 116.325C54.6709 118.6 52.8272 120.443 50.5529 120.443Z" fill="#6A7185"/>
<path d="M161.487 78.9971C160.426 78.9971 159.566 78.1367 159.566 77.0754C159.566 76.0141 160.426 75.1537 161.487 75.1537C162.549 75.1537 163.409 76.0141 163.409 77.0754C163.409 78.1367 162.549 78.9971 161.487 78.9971Z" fill="#A05148"/>
<path d="M51.8283 61.6811C52.5106 60.4993 54.0216 60.0944 55.2033 60.7767C56.385 61.459 56.7899 62.97 56.1077 64.1518C55.4254 65.3335 53.9143 65.7384 52.7326 65.0561C51.5509 64.3738 51.146 62.8628 51.8283 61.6811Z" fill="#6A7185"/>
<path d="M3.99034 96.6154C2.01939 96.6154 0.421607 95.0177 0.421607 93.0467C0.421607 91.0757 2.01939 89.478 3.99034 89.478C5.9613 89.478 7.55908 91.0757 7.55908 93.0467C7.55908 95.0177 5.9613 96.6154 3.99034 96.6154Z" fill="#6A7185"/>
<path d="M144.845 47.2962C143.178 47.2962 141.826 45.9442 141.826 44.2764C141.826 42.6087 143.178 41.2567 144.845 41.2567C146.513 41.2567 147.865 42.6087 147.865 44.2764C147.865 45.9442 146.513 47.2962 144.845 47.2962Z" fill="#6A7185"/>
<path d="M104.447 81.4859C104.835 82.9325 103.976 84.4194 102.53 84.807C101.083 85.1946 99.5963 84.3362 99.2087 82.8896C98.8211 81.443 99.6795 79.9561 101.126 79.5685C102.573 79.1809 104.06 80.0393 104.447 81.4859Z" fill="#6A7185"/>
<path d="M32.8567 7.71491C30.8643 7.71491 29.2492 6.0998 29.2492 4.10746C29.2492 2.11511 30.8643 0.5 32.8567 0.5C34.849 0.5 36.4641 2.11511 36.4641 4.10746C36.4641 6.0998 34.849 7.71491 32.8567 7.71491Z" fill="#6A7185"/>
<path d="M125.878 10.1092C126.685 13.1199 124.898 16.2145 121.888 17.0212C118.877 17.8279 115.782 16.0413 114.976 13.0306C114.169 10.0199 115.956 6.92532 118.966 6.11861C121.977 5.3119 125.071 7.09857 125.878 10.1092Z" fill="#6A7185"/>
<path d="M19.2035 30.5529H19.243C19.4772 33.8696 21.9438 33.9206 21.9438 33.9206C21.9438 33.9206 19.2237 33.9738 19.2237 37.8061C19.2237 33.9738 16.5039 33.9206 16.5039 33.9206C16.5039 33.9206 18.9693 33.8696 19.2035 30.5529ZM29.3131 73.5035H29.3511C29.576 76.8104 31.9442 76.8614 31.9442 76.8614C31.9442 76.8614 29.3326 76.9143 29.3326 80.7353C29.3326 76.9143 26.7212 76.8614 26.7212 76.8614C26.7212 76.8614 29.0885 76.8104 29.3131 73.5035ZM141.054 78.9447H141.092C141.317 82.2515 143.685 82.3025 143.685 82.3025C143.685 82.3025 141.073 82.3554 141.073 86.1764C141.073 82.3554 138.462 82.3025 138.462 82.3025C138.462 82.3025 140.829 82.2515 141.054 78.9447Z" fill="#6A7185"/>
<path d="M116.979 55.2801V50.4715C116.979 45.158 112.675 40.8541 107.361 40.8541H85.8904C85.0989 40.8543 84.3196 40.6591 83.6217 40.2858C82.9237 39.9125 82.3288 39.3727 81.8895 38.7143L75.1284 28.5728C74.6898 27.9134 74.0951 27.3727 73.3971 26.9985C72.6992 26.6244 71.9196 26.4285 71.1277 26.4282H49.6569C44.3432 26.4282 40.0396 30.7318 40.0396 36.0455V97.8515C40.0396 100.9 42.5064 103.367 45.555 103.367M45.555 103.367C47.9882 103.367 50.1378 101.771 50.835 99.4384L62.0248 62.1374C63.2462 58.0644 66.9922 55.2801 71.2383 55.2801H118.56C124.98 55.2801 129.596 61.4448 127.788 67.6048L119.32 96.4569C118.118 100.554 114.363 103.367 110.092 103.367H45.555Z" stroke="#6A7185" stroke-width="0.961924" stroke-linecap="round" stroke-linejoin="round"/>
<path fill-rule="evenodd" clip-rule="evenodd" d="M39.0715 73.3511V74.2882C39.0715 74.8057 38.6571 75.2256 38.1464 75.2256H27.0477C26.5371 75.2256 26.1228 74.8057 26.1228 74.2882V73.3359C26.1228 70.4999 29.321 68.6574 32.597 68.6574C35.8731 68.6574 39.0715 70.5009 39.0715 73.3359M34.9194 60.424C36.2018 61.7065 36.2018 63.786 34.9194 65.0684C33.6369 66.3509 31.5574 66.3509 30.2749 65.0684C28.9925 63.786 28.9925 61.7065 30.2749 60.424C31.5574 59.1415 33.6369 59.1415 34.9194 60.424Z" fill="white"/>
<path d="M63.5377 25.8539C63.6401 25.9551 63.7101 26.0844 63.7388 26.2255C63.7676 26.3665 63.7537 26.513 63.6989 26.6461C63.6442 26.7793 63.5511 26.8931 63.4315 26.9732C63.3119 27.0533 63.1711 27.0961 63.0272 27.096C62.8832 27.096 62.7426 27.0532 62.623 26.9731C62.5034 26.893 62.4103 26.7792 62.3556 26.6461C62.3008 26.513 62.2869 26.3666 62.3155 26.2255C62.3442 26.0845 62.4141 25.9551 62.5164 25.8539C62.6529 25.7184 62.8374 25.6424 63.0297 25.6424C63.222 25.6424 63.4065 25.7184 63.543 25.8539M80.799 28.3335C78.8155 28.0299 76.7899 28.1605 74.8619 28.7163C72.9339 29.272 71.1494 30.2396 69.6319 31.5523C68.1143 32.8649 66.8998 34.4913 66.0722 36.3192C65.2445 38.1471 64.8235 40.1328 64.8382 42.1393C64.8423 42.8076 64.8957 43.4744 64.9977 44.1348" stroke="white" stroke-width="2.64096" stroke-linecap="round" stroke-linejoin="round"/>
<path fill-rule="evenodd" clip-rule="evenodd" d="M25.64 107.029H24.6624C24.5494 107.029 24.441 106.984 24.3611 106.904C24.2811 106.824 24.2362 106.716 24.236 106.603V105.625C24.236 105.389 24.4282 105.199 24.6624 105.199H25.64C25.7529 105.199 25.8611 105.244 25.941 105.324C26.0208 105.404 26.0659 105.512 26.0663 105.625V106.603C26.0665 106.659 26.0555 106.714 26.0341 106.766C26.0128 106.818 25.9814 106.865 25.9417 106.904C25.9021 106.944 25.8551 106.975 25.8033 106.997C25.7515 107.018 25.696 107.029 25.64 107.029ZM22.2514 107.029H21.274C21.1611 107.029 21.0528 106.984 20.9729 106.904C20.893 106.824 20.8479 106.716 20.8474 106.603V105.625C20.8474 105.389 21.0396 105.199 21.274 105.199H22.2514C22.3643 105.199 22.4726 105.244 22.5525 105.324C22.6324 105.404 22.6775 105.512 22.678 105.625V106.603C22.678 106.837 22.4856 107.029 22.2514 107.029ZM18.8606 107.029H17.8833C17.7703 107.029 17.662 106.984 17.5821 106.904C17.5022 106.824 17.4571 106.716 17.4566 106.603V105.625C17.4566 105.389 17.649 105.199 17.8833 105.199H18.8606C18.9736 105.199 19.0818 105.244 19.1617 105.324C19.2416 105.404 19.2867 105.512 19.2872 105.625V106.603C19.2873 106.659 19.2764 106.714 19.255 106.766C19.2336 106.818 19.2021 106.865 19.1625 106.904C19.1229 106.944 19.0758 106.975 19.024 106.997C18.9722 107.018 18.9166 107.029 18.8606 107.029ZM15.472 107.029H14.4946C14.3817 107.029 14.2734 106.984 14.1935 106.904C14.1136 106.824 14.0685 106.716 14.068 106.603V105.625C14.068 105.389 14.2604 105.199 14.4946 105.199H15.472C15.7084 105.199 15.9005 105.391 15.9005 105.625V106.603C15.8993 106.716 15.8537 106.824 15.7735 106.904C15.6934 106.983 15.585 107.028 15.472 107.029ZM12.0833 107.029H11.106C10.9927 107.029 10.8841 106.984 10.8038 106.904C10.7235 106.824 10.6781 106.716 10.6775 106.603V105.625C10.6775 105.389 10.8696 105.199 11.106 105.199H12.0833C12.1963 105.199 12.3046 105.244 12.3845 105.324C12.4644 105.404 12.5095 105.512 12.51 105.625V106.603C12.51 106.837 12.3176 107.029 12.0833 107.029ZM22.127 103.334H21.1497C20.9155 103.334 20.7231 103.142 20.7231 102.908V101.928C20.7231 101.694 20.9155 101.502 21.1497 101.502H22.127C22.3634 101.502 22.5536 101.694 22.5536 101.928V102.906C22.554 102.962 22.5432 103.018 22.5218 103.07C22.5005 103.122 22.4692 103.169 22.4295 103.209C22.3899 103.249 22.3427 103.28 22.2908 103.302C22.2389 103.323 22.1832 103.334 22.127 103.334ZM18.7384 103.334H17.7611C17.5269 103.334 17.3345 103.142 17.3345 102.908V101.928C17.3345 101.694 17.5269 101.502 17.7611 101.502H18.7384C18.8514 101.502 18.9597 101.547 19.0396 101.627C19.1195 101.707 19.1646 101.815 19.165 101.928V102.906C19.1653 102.962 19.1545 103.018 19.1332 103.07C19.1119 103.122 19.0805 103.169 19.0409 103.209C19.0012 103.249 18.9541 103.28 18.9022 103.302C18.8503 103.323 18.7946 103.334 18.7384 103.334ZM15.3498 103.334H14.3725C14.1361 103.334 13.9439 103.142 13.9439 102.908V101.928C13.9439 101.694 14.1361 101.502 14.3725 101.502H15.3498C15.4628 101.502 15.571 101.547 15.651 101.627C15.7309 101.707 15.776 101.815 15.7764 101.928V102.906C15.7764 103.142 15.584 103.334 15.3498 103.334ZM18.8606 110.999H17.8833C17.7702 110.998 17.6619 110.953 17.582 110.873C17.5021 110.793 17.457 110.685 17.4566 110.572V109.595C17.4566 109.359 17.649 109.168 17.8833 109.168H18.8606C19.095 109.168 19.2872 109.36 19.2872 109.595V110.572C19.2873 110.628 19.2764 110.684 19.255 110.735C19.2336 110.787 19.2022 110.834 19.1625 110.874C19.1229 110.914 19.0758 110.945 19.024 110.966C18.9722 110.988 18.9166 110.999 18.8606 110.999ZM15.472 110.999H14.4946C14.3816 110.998 14.2733 110.953 14.1934 110.873C14.1135 110.793 14.0684 110.685 14.068 110.572V109.595C14.068 109.359 14.2604 109.168 14.4946 109.168H15.472C15.7084 109.168 15.9005 109.36 15.9005 109.595V110.572C15.8994 110.685 15.8538 110.793 15.7736 110.873C15.6934 110.953 15.5851 110.998 15.472 110.999ZM147.426 107.029H146.448C146.335 107.029 146.227 106.984 146.147 106.904C146.067 106.824 146.022 106.716 146.022 106.603V105.625C146.022 105.389 146.214 105.199 146.448 105.199H147.426C147.539 105.199 147.647 105.244 147.727 105.324C147.807 105.404 147.852 105.512 147.852 105.625V106.603C147.852 106.659 147.842 106.714 147.82 106.766C147.799 106.818 147.767 106.865 147.728 106.904C147.688 106.944 147.641 106.975 147.589 106.997C147.537 107.018 147.482 107.029 147.426 107.029ZM144.037 107.029H143.06C142.947 107.029 142.839 106.984 142.759 106.904C142.679 106.824 142.634 106.716 142.633 106.603V105.625C142.633 105.389 142.826 105.199 143.06 105.199H144.037C144.15 105.199 144.258 105.244 144.338 105.324C144.418 105.404 144.463 105.512 144.464 105.625V106.603C144.463 106.716 144.418 106.824 144.338 106.904C144.258 106.984 144.15 107.029 144.037 107.029ZM140.647 107.029H139.669C139.556 107.029 139.448 106.984 139.368 106.904C139.288 106.824 139.243 106.716 139.243 106.603V105.625C139.243 105.389 139.435 105.199 139.669 105.199H140.647C140.76 105.199 140.868 105.244 140.948 105.324C141.028 105.404 141.073 105.512 141.073 105.625V106.603C141.073 106.659 141.062 106.714 141.041 106.766C141.02 106.818 140.988 106.865 140.948 106.904C140.909 106.944 140.862 106.975 140.81 106.997C140.758 107.018 140.703 107.029 140.647 107.029ZM137.258 107.029H136.281C136.168 107.029 136.059 106.984 135.98 106.904C135.9 106.824 135.855 106.716 135.854 106.603V105.625C135.854 105.389 136.046 105.199 136.281 105.199H137.258C137.494 105.199 137.687 105.391 137.687 105.625V106.603C137.685 106.716 137.64 106.824 137.56 106.903C137.479 106.983 137.371 107.028 137.258 107.029ZM133.869 107.029H132.892C132.779 107.029 132.67 106.984 132.59 106.904C132.509 106.824 132.464 106.716 132.463 106.603V105.625C132.463 105.389 132.656 105.199 132.892 105.199H133.869C133.982 105.199 134.091 105.244 134.17 105.324C134.25 105.404 134.295 105.512 134.296 105.625V106.603C134.295 106.716 134.25 106.824 134.17 106.904C134.091 106.983 133.982 107.029 133.869 107.029ZM143.913 103.334H142.936C142.823 103.334 142.714 103.289 142.635 103.209C142.555 103.129 142.51 103.021 142.509 102.908V101.928C142.51 101.815 142.555 101.707 142.635 101.627C142.715 101.547 142.823 101.502 142.936 101.502H143.913C144.149 101.502 144.34 101.694 144.34 101.928V102.906C144.34 102.962 144.329 103.018 144.308 103.07C144.287 103.122 144.255 103.169 144.216 103.209C144.176 103.249 144.129 103.28 144.077 103.302C144.025 103.323 143.969 103.334 143.913 103.334ZM140.524 103.334H139.547C139.434 103.334 139.326 103.289 139.246 103.209C139.166 103.129 139.121 103.021 139.121 102.908V101.928C139.121 101.815 139.166 101.707 139.246 101.627C139.326 101.547 139.434 101.502 139.547 101.502H140.524C140.637 101.502 140.746 101.547 140.826 101.627C140.906 101.707 140.951 101.815 140.951 101.928V102.906C140.951 102.962 140.941 103.018 140.919 103.07C140.898 103.122 140.867 103.169 140.827 103.209C140.787 103.248 140.74 103.28 140.688 103.302C140.636 103.323 140.581 103.334 140.524 103.334ZM137.136 103.334H136.159C135.922 103.334 135.73 103.142 135.73 102.908V101.928C135.73 101.694 135.922 101.502 136.159 101.502H137.136C137.249 101.502 137.357 101.547 137.437 101.627C137.517 101.707 137.562 101.815 137.562 101.928V102.906C137.562 103.142 137.37 103.334 137.136 103.334ZM140.647 110.999H139.669C139.556 110.998 139.448 110.953 139.368 110.873C139.288 110.793 139.243 110.685 139.243 110.572V109.595C139.243 109.359 139.435 109.168 139.669 109.168H140.647C140.881 109.168 141.073 109.36 141.073 109.595V110.572C141.073 110.628 141.062 110.684 141.041 110.735C141.02 110.787 140.988 110.834 140.949 110.874C140.909 110.914 140.862 110.945 140.81 110.966C140.758 110.988 140.703 110.999 140.647 110.999ZM137.258 110.999H136.281C136.168 110.998 136.059 110.953 135.979 110.873C135.9 110.793 135.854 110.685 135.854 110.572V109.595C135.854 109.359 136.046 109.168 136.281 109.168H137.258C137.494 109.168 137.687 109.36 137.687 109.595V110.572C137.685 110.685 137.64 110.793 137.56 110.873C137.479 110.953 137.371 110.998 137.258 110.999Z" fill="#6A7185"/>
<g clip-path="url(#clip1_3573_9528)">
<path fill-rule="evenodd" clip-rule="evenodd" d="M111.977 70.7911L108.767 66.9494C108.34 66.4397 107.677 66.1535 106.922 66.1534H96.7091C95.1356 66.1534 93.6027 67.3692 93.2836 68.8702L89.2412 87.8882C88.9222 89.3892 89.9383 90.6051 91.5117 90.6051H105.752C107.325 90.6051 108.858 89.3892 109.177 87.8882L112.403 72.7119C112.556 71.9918 112.403 71.3005 111.977 70.7911Z" fill="white" stroke="#6A7185" stroke-width="1.08763"/>
<path fill-rule="evenodd" clip-rule="evenodd" d="M105.595 80.8923L98.3971 84.3873C96.6251 85.2467 94.8936 84.1419 95.2665 82.3875L96.7519 75.3994C97.1251 73.6434 99.3227 72.5403 100.733 73.3997L106.445 76.8945C107.881 77.7694 107.403 80.0144 105.595 80.8923Z" fill="#A05148"/>
<path fill-rule="evenodd" clip-rule="evenodd" d="M98.0029 70.5214L94.0099 65.753C93.4792 65.1202 92.6547 64.765 91.7166 64.7651H79.0196C77.0635 64.7651 75.1583 66.2741 74.7623 68.1372L69.7447 91.7428C69.3487 93.6058 70.6125 95.115 72.5686 95.115H90.2721C92.2284 95.115 94.1337 93.6058 94.5297 91.7428L98.5336 72.9056C98.6275 72.4624 98.629 72.0236 98.5379 71.6145C98.4468 71.2053 98.265 70.8338 98.0029 70.5214Z" fill="white" stroke="#6A7185" stroke-width="1.08763"/>
<path d="M91.5394 71.878H80.5183C78.4514 71.878 76.4352 73.4809 76.0149 75.4582L73.7738 86.0017C73.3535 87.979 74.6883 89.5819 76.7552 89.5819H87.7763C89.8432 89.5819 91.8594 87.979 92.2797 86.0017L94.5208 75.4582C94.9411 73.4809 93.6063 71.878 91.5394 71.878Z" fill="#A05148" stroke="white" stroke-width="2.98608" stroke-linecap="round" stroke-linejoin="round"/>
<path d="M81.9222 77.1908C81.9802 77.2594 82.0112 77.347 82.0112 77.4427C82.0112 77.5383 81.9803 77.6375 81.9223 77.7278C81.8643 77.8181 81.782 77.8952 81.6857 77.9495C81.5894 78.0038 81.4835 78.0328 81.3815 78.0327C81.2795 78.0328 81.186 78.0038 81.1128 77.9495C81.0396 77.8952 80.9901 77.818 80.9705 77.7278C80.9509 77.6375 80.9621 77.5383 81.0027 77.4427C81.0433 77.3471 81.1115 77.2594 81.1985 77.1908C81.3148 77.099 81.4565 77.0474 81.5927 77.0474C81.729 77.0474 81.8488 77.099 81.926 77.1908M93.7955 78.8716C92.4339 78.6658 90.9798 78.7543 89.5336 79.131C88.0874 79.5077 86.6837 80.1636 85.4193 81.0534C84.1548 81.9432 83.0599 83.0457 82.2101 84.2847C81.3604 85.5238 80.776 86.8698 80.4973 88.2299C80.4039 88.6829 80.3456 89.1349 80.3227 89.5825" stroke="white" stroke-width="2.98608" stroke-linecap="round" stroke-linejoin="round"/>
</g>
</g>
<defs>
<linearGradient id="paint0_linear_3573_9528" x1="46.5694" y1="83.6009" x2="-23.0292" y2="18.9346" gradientUnits="userSpaceOnUse">
<stop stop-color="white"/>
<stop offset="1" stop-color="#EEEEEE"/>
</linearGradient>
<clipPath id="clip0_3573_9528">
<rect width="163.046" height="120" fill="white" transform="translate(0.477051 0.5)"/>
</clipPath>
<clipPath id="clip1_3573_9528">
<rect width="45.8233" height="36.8043" fill="white" transform="matrix(1 0 -0.207912 0.978148 72.7156 61.6275)"/>
</clipPath>
</defs>
</svg>
