<svg width="18" height="19" viewBox="0 0 18 19" fill="none" xmlns="http://www.w3.org/2000/svg">
<g clip-path="url(#clip0_336_2503)">
<path d="M17.4532 7.56425C16.2899 5.66975 13.6439 2.49125 8.99992 2.49125C4.35592 2.49125 1.70992 5.66975 0.546666 7.56425C0.187062 8.14588 -0.00341797 8.81618 -0.00341797 9.5C-0.00341797 10.1838 0.187062 10.8541 0.546666 11.4357C1.70992 13.3302 4.35592 16.5087 8.99992 16.5087C13.6439 16.5087 16.2899 13.3302 17.4532 11.4357C17.8128 10.8541 18.0033 10.1838 18.0033 9.5C18.0033 8.81618 17.8128 8.14588 17.4532 7.56425ZM16.1744 10.6505C15.1754 12.275 12.9142 15.0087 8.99992 15.0087C5.08567 15.0087 2.82442 12.275 1.82542 10.6505C1.61177 10.3048 1.4986 9.9064 1.4986 9.5C1.4986 9.09359 1.61177 8.69522 1.82542 8.3495C2.82442 6.725 5.08567 3.99125 8.99992 3.99125C12.9142 3.99125 15.1754 6.722 16.1744 8.3495C16.3881 8.69522 16.5012 9.09359 16.5012 9.5C16.5012 9.9064 16.3881 10.3048 16.1744 10.6505Z" fill="url(#paint0_linear_336_2503)"/>
<path d="M9 5.75C8.25832 5.75 7.5333 5.96993 6.91661 6.38199C6.29993 6.79404 5.81928 7.37971 5.53545 8.06494C5.25162 8.75016 5.17736 9.50416 5.32206 10.2316C5.46675 10.959 5.8239 11.6272 6.34835 12.1517C6.8728 12.6761 7.54098 13.0333 8.26841 13.1779C8.99584 13.3226 9.74984 13.2484 10.4351 12.9645C11.1203 12.6807 11.706 12.2001 12.118 11.5834C12.5301 10.9667 12.75 10.2417 12.75 9.5C12.7488 8.5058 12.3533 7.55267 11.6503 6.84966C10.9473 6.14666 9.9942 5.75119 9 5.75ZM9 11.75C8.55499 11.75 8.11998 11.618 7.74997 11.3708C7.37996 11.1236 7.09157 10.7722 6.92127 10.361C6.75098 9.9499 6.70642 9.4975 6.79323 9.06105C6.88005 8.62459 7.09434 8.22368 7.40901 7.90901C7.72368 7.59434 8.12459 7.38005 8.56105 7.29323C8.99751 7.20642 9.44991 7.25097 9.86104 7.42127C10.2722 7.59157 10.6236 7.87996 10.8708 8.24997C11.118 8.61998 11.25 9.05499 11.25 9.5C11.25 10.0967 11.0129 10.669 10.591 11.091C10.169 11.5129 9.59674 11.75 9 11.75Z" fill="url(#paint1_linear_336_2503)"/>
</g>
<defs>
<linearGradient id="paint0_linear_336_2503" x1="-0.00341797" y1="2.49125" x2="10.7657" y2="20.312" gradientUnits="userSpaceOnUse">
<stop stop-color="#3462CF"/>
<stop offset="1" stop-color="#2B53BE"/>
</linearGradient>
<linearGradient id="paint1_linear_336_2503" x1="5.25" y1="5.75" x2="11.5552" y2="13.8723" gradientUnits="userSpaceOnUse">
<stop stop-color="#3462CF"/>
<stop offset="1" stop-color="#2B53BE"/>
</linearGradient>
<clipPath id="clip0_336_2503">
<rect width="18" height="18" fill="white" transform="translate(0 0.5)"/>
</clipPath>
</defs>
</svg>
