<svg width="19" height="19" viewBox="0 0 19 19" fill="none" xmlns="http://www.w3.org/2000/svg">
<g clip-path="url(#clip0_3257_13861)">
<path d="M17.7033 7.11131C16.54 5.21681 13.894 2.03831 9.25004 2.03831C4.60604 2.03831 1.96004 5.21681 0.796788 7.11131C0.437184 7.69294 0.246704 8.36325 0.246704 9.04707C0.246704 9.73088 0.437184 10.4012 0.796788 10.9828C1.96004 12.8773 4.60604 16.0558 9.25004 16.0558C13.894 16.0558 16.54 12.8773 17.7033 10.9828C18.0629 10.4012 18.2534 9.73088 18.2534 9.04707C18.2534 8.36325 18.0629 7.69294 17.7033 7.11131ZM16.4245 10.1976C15.4255 11.8221 13.1643 14.5558 9.25004 14.5558C5.33579 14.5558 3.07454 11.8221 2.07554 10.1976C1.86189 9.85185 1.74873 9.45347 1.74873 9.04707C1.74873 8.64066 1.86189 8.24228 2.07554 7.89656C3.07454 6.27206 5.33579 3.53831 9.25004 3.53831C13.1643 3.53831 15.4255 6.26906 16.4245 7.89656C16.6382 8.24228 16.7513 8.64066 16.7513 9.04707C16.7513 9.45347 16.6382 9.85185 16.4245 10.1976Z" fill="url(#paint0_linear_3257_13861)"/>
<path d="M9.25 5.29706C8.50832 5.29706 7.7833 5.51699 7.16661 5.92905C6.54993 6.3411 6.06928 6.92677 5.78545 7.612C5.50162 8.29722 5.42736 9.05122 5.57206 9.77865C5.71675 10.5061 6.0739 11.1743 6.59835 11.6987C7.1228 12.2232 7.79098 12.5803 8.51841 12.725C9.24584 12.8697 9.99984 12.7954 10.6851 12.5116C11.3703 12.2278 11.956 11.7471 12.368 11.1304C12.7801 10.5138 13 9.78874 13 9.04706C12.9988 8.05286 12.6033 7.09973 11.9003 6.39672C11.1973 5.69372 10.2442 5.29825 9.25 5.29706ZM9.25 11.2971C8.80499 11.2971 8.36998 11.1651 7.99997 10.9179C7.62996 10.6706 7.34157 10.3192 7.17127 9.9081C7.00098 9.49696 6.95642 9.04456 7.04323 8.6081C7.13005 8.17165 7.34434 7.77074 7.65901 7.45607C7.97368 7.1414 8.37459 6.92711 8.81105 6.84029C9.24751 6.75347 9.69991 6.79803 10.111 6.96833C10.5222 7.13863 10.8736 7.42701 11.1208 7.79702C11.368 8.16704 11.5 8.60205 11.5 9.04706C11.5 9.6438 11.2629 10.2161 10.841 10.638C10.419 11.06 9.84674 11.2971 9.25 11.2971Z" fill="url(#paint1_linear_3257_13861)"/>
</g>
<defs>
<linearGradient id="paint0_linear_3257_13861" x1="0.246704" y1="2.03831" x2="11.0159" y2="19.8591" gradientUnits="userSpaceOnUse">
<stop stop-color="#3462CF"/>
<stop offset="1" stop-color="#2B53BE"/>
</linearGradient>
<linearGradient id="paint1_linear_3257_13861" x1="5.5" y1="5.29706" x2="11.8052" y2="13.4194" gradientUnits="userSpaceOnUse">
<stop stop-color="#3462CF"/>
<stop offset="1" stop-color="#2B53BE"/>
</linearGradient>
<clipPath id="clip0_3257_13861">
<rect width="18" height="18" fill="white" transform="translate(0.25 0.0470581)"/>
</clipPath>
</defs>
</svg>
