<svg width="16" height="17" viewBox="0 0 16 17" fill="none" xmlns="http://www.w3.org/2000/svg">
<g clip-path="url(#clip0_3257_13850)">
<path d="M12.6667 1.38039H12V0.713725C12 0.536914 11.9298 0.367345 11.8047 0.24232C11.6797 0.117296 11.5101 0.0470581 11.3333 0.0470581C11.1565 0.0470581 10.987 0.117296 10.8619 0.24232C10.7369 0.367345 10.6667 0.536914 10.6667 0.713725V1.38039H5.33333V0.713725C5.33333 0.536914 5.2631 0.367345 5.13807 0.24232C5.01305 0.117296 4.84348 0.0470581 4.66667 0.0470581C4.48986 0.0470581 4.32029 0.117296 4.19526 0.24232C4.07024 0.367345 4 0.536914 4 0.713725V1.38039H3.33333C2.4496 1.38145 1.60237 1.73298 0.97748 2.35787C0.352588 2.98276 0.00105857 3.82999 0 4.71372L0 12.7137C0.00105857 13.5975 0.352588 14.4447 0.97748 15.0696C1.60237 15.6945 2.4496 16.046 3.33333 16.0471H12.6667C13.5504 16.046 14.3976 15.6945 15.0225 15.0696C15.6474 14.4447 15.9989 13.5975 16 12.7137V4.71372C15.9989 3.82999 15.6474 2.98276 15.0225 2.35787C14.3976 1.73298 13.5504 1.38145 12.6667 1.38039ZM1.33333 4.71372C1.33333 4.18329 1.54405 3.67458 1.91912 3.29951C2.29419 2.92444 2.8029 2.71372 3.33333 2.71372H12.6667C13.1971 2.71372 13.7058 2.92444 14.0809 3.29951C14.456 3.67458 14.6667 4.18329 14.6667 4.71372V5.38039H1.33333V4.71372ZM12.6667 14.7137H3.33333C2.8029 14.7137 2.29419 14.503 1.91912 14.1279C1.54405 13.7529 1.33333 13.2442 1.33333 12.7137V6.71372H14.6667V12.7137C14.6667 13.2442 14.456 13.7529 14.0809 14.1279C13.7058 14.503 13.1971 14.7137 12.6667 14.7137Z" fill="#4A86F7"/>
<path d="M7.99988 11.0471C8.55216 11.0471 8.99988 10.5994 8.99988 10.0471C8.99988 9.49486 8.55216 9.04715 7.99988 9.04715C7.44759 9.04715 6.99988 9.49486 6.99988 10.0471C6.99988 10.5994 7.44759 11.0471 7.99988 11.0471Z" fill="#4A86F7"/>
<path d="M4.66663 11.0471C5.21891 11.0471 5.66663 10.5994 5.66663 10.0471C5.66663 9.49486 5.21891 9.04715 4.66663 9.04715C4.11434 9.04715 3.66663 9.49486 3.66663 10.0471C3.66663 10.5994 4.11434 11.0471 4.66663 11.0471Z" fill="#4A86F7"/>
<path d="M11.3333 11.0471C11.8855 11.0471 12.3333 10.5994 12.3333 10.0471C12.3333 9.49486 11.8855 9.04715 11.3333 9.04715C10.781 9.04715 10.3333 9.49486 10.3333 10.0471C10.3333 10.5994 10.781 11.0471 11.3333 11.0471Z" fill="#4A86F7"/>
</g>
<defs>
<clipPath id="clip0_3257_13850">
<rect width="16" height="16" fill="white" transform="translate(0 0.0470581)"/>
</clipPath>
</defs>
</svg>
