<svg width="82" height="62" viewBox="0 0 82 62" fill="none" xmlns="http://www.w3.org/2000/svg">
<path d="M68.9552 27.3539L80.8295 3.13516C81.2782 2.21997 80.5289 1.17469 79.5185 1.30829C76.7932 1.66862 72.2598 2.28063 68.9552 2.79104C64.7314 3.44344 58.2856 4.58308 57.6245 4.70022C57.5849 4.70724 57.5492 4.71166 57.5091 4.71493L38.8942 6.23452C38.8072 6.24162 38.7197 6.2398 38.633 6.22908L27.3623 4.83477C26.7719 4.76172 26.209 5.10539 26.0042 5.664L23.6048 12.2077C23.5615 12.3259 23.5009 12.437 23.4251 12.5375L1.05265 42.2054C0.531547 42.8964 0.832662 43.8947 1.64896 44.1823L48.4453 60.6701C48.9963 60.8642 49.6089 60.6605 49.9337 60.1749L61.0234 43.6013L68.9552 27.3539Z" fill="#5FA76F" fill-opacity="0.8" stroke="#35353D"/>
</svg>
