<svg width="19" height="19" viewBox="0 0 19 19" fill="none" xmlns="http://www.w3.org/2000/svg">
<g clip-path="url(#clip0_3257_13869)">
<path d="M12.0302 8.82731L10.3105 10.5471L12.0302 12.2668C12.3235 12.5601 12.3235 13.0341 12.0302 13.3273C11.884 13.4736 11.692 13.5471 11.5 13.5471C11.308 13.5471 11.116 13.4736 10.9697 13.3273L9.24998 11.6076L7.53023 13.3273C7.38398 13.4736 7.19198 13.5471 6.99998 13.5471C6.80798 13.5471 6.61598 13.4736 6.46973 13.3273C6.17648 13.0341 6.17648 12.5601 6.46973 12.2668L8.18948 10.5471L6.46973 8.82731C6.17648 8.53406 6.17648 8.06006 6.46973 7.76681C6.76298 7.47356 7.23698 7.47356 7.53023 7.76681L9.24998 9.48656L10.9697 7.76681C11.263 7.47356 11.737 7.47356 12.0302 7.76681C12.3235 8.06006 12.3235 8.53406 12.0302 8.82731ZM17.5 3.79706C17.5 4.21181 17.164 4.54706 16.75 4.54706H16.0862L15.1292 14.6511C14.9455 16.5868 13.3405 18.0471 11.3957 18.0471H7.10048C5.15873 18.0471 3.55373 16.5898 3.36773 14.6563L2.39573 4.54706H1.75073C1.33673 4.54706 1.00073 4.21181 1.00073 3.79706C1.00073 3.38231 1.33673 3.04706 1.75073 3.04706H4.82648C5.17523 1.33781 6.69023 0.0470581 8.50073 0.0470581H10.0007C11.8112 0.0470581 13.327 1.33781 13.675 3.04706H16.7507C17.1647 3.04706 17.5 3.38231 17.5 3.79706ZM6.37898 3.04706H12.121C11.8112 2.17406 10.978 1.54706 9.99998 1.54706H8.49998C7.52198 1.54706 6.68873 2.17406 6.37898 3.04706ZM14.5795 4.54706H3.90248L4.86098 14.5123C4.97198 15.6726 5.93498 16.5471 7.10048 16.5471H11.3957C12.5627 16.5471 13.5257 15.6711 13.636 14.5086L14.5795 4.54706Z" fill="#D94841"/>
</g>
<defs>
<clipPath id="clip0_3257_13869">
<rect width="18" height="18" fill="white" transform="translate(0.25 0.0470581)"/>
</clipPath>
</defs>
</svg>
