<svg xmlns="http://www.w3.org/2000/svg" width="36" height="34" viewBox="0 0 36 34" fill="none">
<path d="M29.9054 15.0554L34.77 2.85388C35.0961 2.03592 34.4081 1.17593 33.5394 1.31988C32.4091 1.50717 31.0014 1.74704 29.9054 1.95522C28.1364 2.29121 25.469 2.86953 25.0296 2.96512C24.9871 2.97437 24.9457 2.98086 24.9023 2.98521L16.9539 3.78313C16.8593 3.79263 16.7638 3.7902 16.6697 3.77589L12.4063 3.12729C11.8463 3.04208 11.3091 3.38266 11.1472 3.92555L10.2514 6.93004C10.2232 7.02461 10.1828 7.11509 10.1312 7.19922L0.684053 22.6052C0.322929 23.1941 0.566826 23.9663 1.20069 24.2409L20.4636 32.5872C21.0031 32.8209 21.6318 32.6043 21.9127 32.0879L26.4654 23.7207L29.9054 15.0554Z" fill="#D94841" fill-opacity="0.3" stroke="#D94841" stroke-width="0.887728"/>
</svg>