<svg width="24" height="24" viewBox="0 0 24 24" fill="none" xmlns="http://www.w3.org/2000/svg">
<g clip-path="url(#clip0_4386_12822)">
<path d="M17.1173 6.77919L16.4778 6.12598L13.9974 8.56526V6.39549H13.0838V8.56526L10.608 6.12598L9.96851 6.77919L13.0838 9.84429V13.6216H13.9974V9.84429L17.1173 6.77919Z" fill="#C07A53"/>
<path d="M21.8668 23.9174H1.58051C1.16212 23.9174 0.760805 23.7516 0.464533 23.4561C0.168261 23.1607 0.00120921 22.7599 0 22.3415V14.608C-8.70984e-07 14.4006 0.0409136 14.1953 0.120398 14.0038C0.199882 13.8123 0.316373 13.6384 0.463197 13.492C0.610021 13.3456 0.784291 13.2296 0.976021 13.1507C1.16775 13.0717 1.37317 13.0314 1.58051 13.032H21.8668C22.0741 13.0314 22.2795 13.0717 22.4713 13.1507C22.663 13.2296 22.8373 13.3456 22.9841 13.492C23.1309 13.6384 23.2474 13.8123 23.3269 14.0038C23.4064 14.1953 23.4473 14.4006 23.4473 14.608V22.3461C23.4449 22.7637 23.2773 23.1633 22.9811 23.4578C22.685 23.7522 22.2844 23.9174 21.8668 23.9174ZM17.4324 4.938H17.1812C17.18 4.48285 16.9986 4.04668 16.6768 3.72484C16.355 3.403 15.9188 3.22165 15.4636 3.22045H15.153C15.0531 2.83332 14.8758 2.47043 14.6319 2.15369C14.3879 1.83695 14.0822 1.57292 13.7334 1.37754C13.3846 1.18215 12.9998 1.05945 12.6023 1.01685C12.2047 0.97425 11.8027 1.01263 11.4204 1.12966C11.0381 1.2467 10.6835 1.43997 10.3779 1.69782C10.0723 1.95567 9.82219 2.27275 9.64253 2.62992C9.46287 2.9871 9.35743 3.37697 9.33257 3.77601C9.30772 4.17505 9.36396 4.57499 9.4979 4.9517C9.20841 4.99607 8.9461 5.14746 8.76285 5.37593C8.57961 5.6044 8.48876 5.89331 8.50828 6.18554C8.5278 6.47776 8.65627 6.75202 8.86827 6.95409C9.08028 7.15616 9.36039 7.27131 9.65321 7.27679H17.4187C17.7289 7.27679 18.0263 7.15358 18.2456 6.93428C18.4649 6.71497 18.5881 6.41754 18.5881 6.10739C18.5881 5.79725 18.4649 5.49981 18.2456 5.28051C18.0263 5.0612 17.7289 4.938 17.4187 4.938H17.4324Z" fill="#6CC72B"/>
<path d="M5.51801 23.4017C5.46016 23.4018 5.4028 23.391 5.349 23.3697C5.29318 23.3475 5.24227 23.3146 5.19919 23.2728C5.15612 23.2309 5.12171 23.181 5.09795 23.1258C5.07419 23.0707 5.06154 23.0114 5.06073 22.9513C5.05991 22.8913 5.07094 22.8316 5.09319 22.7759L8.64706 13.841C8.66921 13.7851 8.70215 13.7342 8.744 13.6912C8.78584 13.6481 8.83577 13.6137 8.89093 13.5899C8.94608 13.5662 9.00538 13.5535 9.06544 13.5527C9.12549 13.5519 9.18511 13.5629 9.24089 13.5852C9.29671 13.6073 9.34762 13.6402 9.3907 13.6821C9.43377 13.7239 9.46818 13.7739 9.49194 13.829C9.5157 13.8842 9.52835 13.9435 9.52916 14.0035C9.52998 14.0636 9.51895 14.1232 9.4967 14.179L5.94283 23.1139C5.90898 23.1989 5.85039 23.2718 5.77465 23.3231C5.6989 23.3744 5.6095 23.4018 5.51801 23.4017ZM1.53019 22.3328L6.55494 14.2521C6.58673 14.2011 6.60817 14.1443 6.61803 14.0851C6.62789 14.0258 6.62598 13.9651 6.61241 13.9066C6.59883 13.8481 6.57386 13.7928 6.53892 13.7439C6.50398 13.695 6.45975 13.6535 6.40876 13.6217C6.30579 13.5575 6.18152 13.5368 6.0633 13.5642C5.94508 13.5916 5.84259 13.6649 5.77839 13.7679L0.753644 21.8486C0.721748 21.8995 0.700226 21.9563 0.69031 22.0156C0.680395 22.0749 0.682281 22.1355 0.695861 22.1941C0.709441 22.2527 0.734448 22.308 0.769447 22.3569C0.804447 22.4057 0.84875 22.4472 0.899818 22.4789C0.972513 22.524 1.0564 22.5477 1.14192 22.5475C1.21955 22.5476 1.29594 22.528 1.36387 22.4904C1.43181 22.4529 1.48905 22.3986 1.53019 22.3328ZM1.37488 16.4538L3.52639 14.3252C3.57447 14.2845 3.61364 14.2344 3.64144 14.178C3.66924 14.1215 3.68507 14.0599 3.68794 13.997C3.6908 13.9341 3.68064 13.8713 3.65809 13.8126C3.63554 13.7538 3.60109 13.7003 3.5569 13.6555C3.51271 13.6107 3.45973 13.5755 3.40129 13.5521C3.34285 13.5287 3.28021 13.5177 3.2173 13.5196C3.15439 13.5216 3.09256 13.5366 3.0357 13.5636C2.97884 13.5906 2.92817 13.629 2.88688 13.6765L0.735372 15.8052C0.650293 15.8908 0.602539 16.0065 0.602539 16.1272C0.602539 16.2479 0.650293 16.3637 0.735372 16.4493C0.811439 16.5395 0.919481 16.5968 1.03686 16.6091C1.10094 16.6084 1.16416 16.5942 1.2224 16.5674C1.28063 16.5407 1.33259 16.502 1.37488 16.4538ZM18.0936 23.3697C18.1494 23.3475 18.2003 23.3146 18.2434 23.2728C18.2865 23.2309 18.3209 23.181 18.3446 23.1258C18.3684 23.0707 18.381 23.0114 18.3818 22.9513C18.3827 22.8913 18.3716 22.8316 18.3494 22.7759L14.8001 13.841C14.7553 13.7283 14.6675 13.638 14.5561 13.5901C14.4448 13.5421 14.3189 13.5403 14.2063 13.5852C14.0936 13.63 14.0033 13.7177 13.9554 13.8291C13.9074 13.9405 13.9056 14.0663 13.9504 14.179L17.4815 23.1139C17.5153 23.1989 17.5739 23.2718 17.6497 23.3231C17.7254 23.3744 17.8148 23.4018 17.9063 23.4017C17.9703 23.4043 18.0341 23.3934 18.0936 23.3697ZM22.5473 22.4789C22.5984 22.4472 22.6427 22.4057 22.6777 22.3569C22.7127 22.308 22.7377 22.2527 22.7513 22.1941C22.7649 22.1355 22.7667 22.0749 22.7568 22.0156C22.7469 21.9563 22.7254 21.8995 22.6935 21.8486L17.6688 13.7679C17.637 13.7169 17.5954 13.6727 17.5466 13.6377C17.4977 13.6028 17.4424 13.5778 17.3838 13.5642C17.3253 13.5507 17.2647 13.5487 17.2054 13.5586C17.1461 13.5685 17.0894 13.5899 17.0384 13.6217C16.9874 13.6535 16.9432 13.695 16.9082 13.7439C16.8733 13.7928 16.8483 13.8481 16.8347 13.9066C16.8212 13.9651 16.8193 14.0258 16.8291 14.0851C16.839 14.1443 16.8604 14.2011 16.8922 14.2521L21.9169 22.3328C21.9487 22.3838 21.9902 22.4281 22.039 22.4631C22.0879 22.4981 22.1432 22.5231 22.2018 22.5367C22.2604 22.5503 22.321 22.5522 22.3803 22.5423C22.4396 22.5324 22.4964 22.5108 22.5473 22.4789ZM22.7163 16.4493C22.8014 16.3637 22.8492 16.2479 22.8492 16.1272C22.8492 16.0065 22.8014 15.8908 22.7163 15.8052L20.5603 13.6856C20.521 13.6333 20.4709 13.59 20.4135 13.5587C20.356 13.5273 20.2925 13.5087 20.2272 13.5041C20.1619 13.4994 20.0964 13.5089 20.0351 13.5318C19.9738 13.5547 19.9181 13.5904 19.8718 13.6367C19.8256 13.683 19.7898 13.7387 19.7669 13.8C19.744 13.8613 19.7345 13.9268 19.7392 13.9921C19.7438 14.0574 19.7624 14.1209 19.7938 14.1784C19.8251 14.2358 19.8684 14.2859 19.9208 14.3252L22.0723 16.4447C22.1573 16.5291 22.2722 16.5767 22.392 16.5772C22.5128 16.5791 22.6294 16.5331 22.7163 16.4493ZM12.1781 22.9449V14.01C12.1781 13.8888 12.13 13.7726 12.0443 13.687C11.9586 13.6013 11.8424 13.5532 11.7213 13.5532C11.6001 13.5532 11.4839 13.6013 11.3983 13.687C11.3126 13.7726 11.2645 13.8888 11.2645 14.01V22.9449C11.2645 23.066 11.3126 23.1822 11.3983 23.2679C11.4839 23.3535 11.6001 23.4017 11.7213 23.4017C11.8424 23.4017 11.9586 23.3535 12.0443 23.2679C12.13 23.1822 12.1781 23.066 12.1781 22.9449Z" fill="#5F9E43"/>
<path d="M5.21665 11.2461C4.65479 11.2461 4.198 12.0455 4.198 13.0322C4.198 14.0188 4.65479 14.8137 5.21665 14.8137H9.0857V11.2461H5.21665Z" fill="#FFC600"/>
<path d="M9.08555 14.814C9.64813 14.814 10.1042 14.0164 10.1042 13.0325C10.1042 12.0486 9.64813 11.251 9.08555 11.251C8.52296 11.251 8.06689 12.0486 8.06689 13.0325C8.06689 14.0164 8.52296 14.814 9.08555 14.814Z" fill="#FB9A2D"/>
<path d="M22.4104 15.124C23.2875 15.124 24.0001 16.3711 24.0001 17.9059C24.0001 19.4407 23.2875 20.6924 22.4104 20.6924H16.3716V15.124H22.4104Z" fill="#FFC600"/>
<path d="M16.3716 20.6878C17.2496 20.6878 17.9613 19.4423 17.9613 17.9059C17.9613 16.3695 17.2496 15.124 16.3716 15.124C15.4937 15.124 14.782 16.3695 14.782 17.9059C14.782 19.4423 15.4937 20.6878 16.3716 20.6878Z" fill="#FB9A2D"/>
</g>
<defs>
<clipPath id="clip0_4386_12822">
<rect width="24" height="24" fill="white"/>
</clipPath>
</defs>
</svg>
