<?xml version="1.0" encoding="utf-8"?>
<!-- Generator: Adobe Illustrator 27.5.0, SVG Export Plug-In . SVG Version: 6.00 Build 0)  -->
<svg version="1.1" xmlns="http://www.w3.org/2000/svg" xmlns:xlink="http://www.w3.org/1999/xlink" x="0px" y="0px"
	 viewBox="0 0 500 500" style="enable-background:new 0 0 500 500;" xml:space="preserve">
<g id="Background_Simple">
	<g>
		<path style="fill:#92E3A9;" d="M441.645,157.955c0,0-66.753-79.842-170.155-98.166
			c-103.402-18.324-123.689,59.554-158.375,105.365C78.43,210.964,39.164,227.98,37.2,294.078
			c-1.963,66.099,24.869,100.129,76.57,123.689c51.701,23.56,104.71,35.994,156.411,43.193
			c51.701,7.199,92.931,3.272,113.218-39.266c20.288-42.539,11.125-62.172,34.685-82.46
			C441.645,318.947,494.654,226.671,441.645,157.955z"/>
		<path style="opacity:0.7;fill:#FFFFFF;" d="M441.645,157.955c0,0-66.753-79.842-170.155-98.166
			c-103.402-18.324-123.689,59.554-158.375,105.365C78.43,210.964,39.164,227.98,37.2,294.078
			c-1.963,66.099,24.869,100.129,76.57,123.689c51.701,23.56,104.71,35.994,156.411,43.193
			c51.701,7.199,92.931,3.272,113.218-39.266c20.288-42.539,11.125-62.172,34.685-82.46
			C441.645,318.947,494.654,226.671,441.645,157.955z"/>
	</g>
</g>
<g id="Bush">
	<g>
		<path style="fill:#92E3A9;" d="M432.432,445.861c-1.488-12.492-11.169-37.241-25.07-44.192
			c-14.731-7.365-25.779,9.47-52.083,21.57c-26.305,12.1-19.465-8.944-46.822-25.252c-27.357-16.309-31.039,6.313-42.087,11.574
			c-11.428,5.442-18.169-14.561-20.862-21.985c-5.264-14.514-11.398-26.956-25.038-35.571
			c-21.072-13.309-57.103-12.259-68.243,13.52c-3.346,7.742-2.139,21.951-10.545,26.151c-12.63,6.31-45.241-1.052-47.345,19.99
			c-0.729,7.287,1.46,13.772,4.63,19.14c0.921,2.791,1.634,5.734,1.157,7.165c-1.052,3.157-7.891-4.209-13.678-0.526
			c-3.756,2.39-6.396,6.101-7.792,8.417H432.432z"/>
		<g>
			<path style="fill:#FFFFFF;" d="M184.636,373.173c0,0-0.909,4.208,0.98,7.7c1.889,3.491,4.471,5.811,4.471,5.811
				S191.962,380.041,184.636,373.173z"/>
			<path style="fill:#FFFFFF;" d="M149.359,410.344c0,0,3.245,2.829,7.214,2.863c3.969,0.034,7.248-1.106,7.248-1.106
				S158.912,407.249,149.359,410.344z"/>
			<path style="fill:#FFFFFF;" d="M114.909,405.592c0,0,3.245,2.829,7.215,2.863c3.969,0.034,7.248-1.106,7.248-1.106
				S124.462,402.497,114.909,405.592z"/>
			<path style="fill:#FFFFFF;" d="M144.417,427.785c0,0,3.939,1.739,7.739,0.593c3.8-1.146,6.593-3.207,6.593-3.207
				S152.621,421.994,144.417,427.785z"/>
			<path style="fill:#FFFFFF;" d="M109.436,423.342c0,0,3.938,1.739,7.739,0.593c3.8-1.146,6.593-3.207,6.593-3.207
				S117.641,417.552,109.436,423.342z"/>
			<path style="fill:#FFFFFF;" d="M167.94,429.601c0,0,4.305-0.057,7.284-2.681c2.979-2.623,4.661-5.66,4.661-5.66
				S172.992,420.922,167.94,429.601z"/>
			<path style="fill:#FFFFFF;" d="M118.999,442.06c0,0,4.305-0.057,7.284-2.681c2.979-2.623,4.661-5.66,4.661-5.66
				S124.05,433.381,118.999,442.06z"/>
			<path style="fill:#FFFFFF;" d="M158.016,377.525c0,0,0.976,4.193,4.176,6.543c3.199,2.349,6.525,3.343,6.525,3.343
				S167.574,380.604,158.016,377.525z"/>
			<path style="fill:#FFFFFF;" d="M228.204,374.417c0,0-4.263,0.604-6.885,3.585c-2.622,2.98-3.904,6.206-3.904,6.206
				S224.297,383.667,228.204,374.417z"/>
			<path style="fill:#FFFFFF;" d="M242.975,396.568c0,0-4.209-0.905-7.699,0.987c-3.49,1.892-5.807,4.476-5.807,4.476
				S236.114,403.9,242.975,396.568z"/>
			<path style="fill:#FFFFFF;" d="M241.531,421.73c0,0-3.035-3.054-6.992-3.371c-3.957-0.317-7.308,0.586-7.308,0.586
				S231.781,424.135,241.531,421.73z"/>
			<path style="fill:#FFFFFF;" d="M225.045,435.232c0,0-1.747-3.935-5.331-5.641c-3.584-1.706-7.037-2.057-7.037-2.057
				S215.079,434.005,225.045,435.232z"/>
			<path style="fill:#FFFFFF;" d="M216.37,394.404c0,0-4.263,0.604-6.885,3.585c-2.622,2.98-3.904,6.206-3.904,6.206
				S212.462,403.654,216.37,394.404z"/>
			<path style="fill:#FFFFFF;" d="M146.527,388.853c0,0,1.897,3.865,5.544,5.432c3.647,1.567,7.111,1.785,7.111,1.785
				S156.533,389.696,146.527,388.853z"/>
			<path style="fill:#FFFFFF;" d="M207.312,368.485c0,0-3.451,2.574-4.322,6.447c-0.871,3.873-0.45,7.318-0.45,7.318
				S208.319,378.476,207.312,368.485z"/>
			<path style="fill:#FFFFFF;" d="M194.295,356.305c0,0-1.959,3.834-1.03,7.693c0.929,3.859,2.829,6.764,2.829,6.764
				S199.612,364.824,194.295,356.305z"/>
			<path style="fill:#FFFFFF;" d="M166.12,360.4c0,0,0,4.305,2.583,7.319c2.583,3.014,5.597,4.736,5.597,4.736
				S174.731,365.566,166.12,360.4z"/>
		</g>
		<g>
			<path style="fill:#FFFFFF;" d="M289.256,405.962c0,0-0.528,2.444,0.569,4.471c1.097,2.027,2.596,3.374,2.596,3.374
				S293.51,409.95,289.256,405.962z"/>
			<path style="fill:#FFFFFF;" d="M268.772,427.546c0,0,1.884,1.643,4.189,1.662c2.305,0.019,4.209-0.642,4.209-0.642
				S274.319,425.749,268.772,427.546z"/>
			<path style="fill:#FFFFFF;" d="M265.902,437.673c0,0,2.287,1.01,4.494,0.344c2.207-0.666,3.828-1.863,3.828-1.863
				S270.666,434.311,265.902,437.673z"/>
			<path style="fill:#FFFFFF;" d="M279.561,438.728c0,0,2.5-0.033,4.23-1.556c1.73-1.523,2.707-3.286,2.707-3.286
				S282.494,433.689,279.561,438.728z"/>
			<path style="fill:#FFFFFF;" d="M273.798,408.489c0,0,0.567,2.435,2.425,3.799c1.858,1.364,3.789,1.941,3.789,1.941
				S279.348,410.277,273.798,408.489z"/>
			<path style="fill:#FFFFFF;" d="M314.554,406.684c0,0-2.475,0.351-3.997,2.081c-1.522,1.731-2.267,3.604-2.267,3.604
				S312.285,412.056,314.554,406.684z"/>
			<path style="fill:#FFFFFF;" d="M323.132,419.547c0,0-2.444-0.526-4.471,0.573c-2.026,1.099-3.372,2.599-3.372,2.599
				S319.147,423.804,323.132,419.547z"/>
			<path style="fill:#FFFFFF;" d="M322.293,434.158c0,0-1.762-1.773-4.06-1.957c-2.298-0.184-4.244,0.34-4.244,0.34
				S316.631,435.554,322.293,434.158z"/>
			<path style="fill:#FFFFFF;" d="M312.72,441.998c0,0-1.015-2.285-3.096-3.276c-2.081-0.991-4.086-1.194-4.086-1.194
				S306.933,441.285,312.72,441.998z"/>
			<path style="fill:#FFFFFF;" d="M307.682,418.29c0,0-2.475,0.351-3.998,2.081c-1.522,1.731-2.267,3.604-2.267,3.604
				S305.413,423.662,307.682,418.29z"/>
			<path style="fill:#FFFFFF;" d="M267.127,415.067c0,0,1.102,2.244,3.219,3.154c2.118,0.91,4.129,1.036,4.129,1.036
				S272.938,415.557,267.127,415.067z"/>
			<path style="fill:#FFFFFF;" d="M302.423,403.24c0,0-2.004,1.495-2.51,3.743c-0.506,2.249-0.261,4.25-0.261,4.25
				S303.008,409.042,302.423,403.24z"/>
			<path style="fill:#FFFFFF;" d="M294.865,396.168c0,0-1.138,2.226-0.598,4.467c0.539,2.241,1.643,3.928,1.643,3.928
				S297.952,401.114,294.865,396.168z"/>
			<path style="fill:#FFFFFF;" d="M278.504,398.545c0,0,0,2.5,1.5,4.25c1.5,1.75,3.25,2.75,3.25,2.75
				S283.504,401.545,278.504,398.545z"/>
		</g>
		<g>
			<path style="fill:#FFFFFF;" d="M391.024,415.466c0,0-0.528,2.444,0.569,4.471c1.097,2.027,2.596,3.374,2.596,3.374
				S395.278,419.454,391.024,415.466z"/>
			<path style="fill:#FFFFFF;" d="M370.54,437.05c0,0,1.885,1.643,4.189,1.662c2.305,0.02,4.209-0.642,4.209-0.642
				S376.088,435.253,370.54,437.05z"/>
			<path style="fill:#FFFFFF;" d="M375.567,417.993c0,0,0.567,2.435,2.425,3.799c1.858,1.364,3.789,1.941,3.789,1.941
				S381.117,419.781,375.567,417.993z"/>
			<path style="fill:#FFFFFF;" d="M416.323,416.188c0,0-2.475,0.351-3.997,2.081c-1.522,1.731-2.267,3.604-2.267,3.604
				S414.054,421.56,416.323,416.188z"/>
			<path style="fill:#FFFFFF;" d="M424.9,429.051c0,0-2.444-0.526-4.47,0.573c-2.026,1.099-3.372,2.599-3.372,2.599
				S420.916,433.308,424.9,429.051z"/>
			<path style="fill:#FFFFFF;" d="M424.061,443.662c0,0-1.762-1.773-4.06-1.957c-2.297-0.184-4.244,0.34-4.244,0.34
				S418.4,445.058,424.061,443.662z"/>
			<path style="fill:#FFFFFF;" d="M409.451,427.794c0,0-2.475,0.351-3.998,2.081c-1.522,1.731-2.267,3.604-2.267,3.604
				S407.182,433.165,409.451,427.794z"/>
			<path style="fill:#FFFFFF;" d="M368.896,424.571c0,0,1.102,2.244,3.219,3.154c2.118,0.91,4.129,1.036,4.129,1.036
				S374.706,425.06,368.896,424.571z"/>
			<path style="fill:#FFFFFF;" d="M404.191,412.744c0,0-2.004,1.495-2.51,3.743c-0.506,2.249-0.261,4.249-0.261,4.249
				S404.776,418.545,404.191,412.744z"/>
			<path style="fill:#FFFFFF;" d="M396.633,405.671c0,0-1.138,2.226-0.598,4.467c0.539,2.241,1.643,3.928,1.643,3.928
				S399.72,410.618,396.633,405.671z"/>
			<path style="fill:#FFFFFF;" d="M380.273,408.049c0,0,0,2.5,1.5,4.25c1.5,1.75,3.25,2.75,3.25,2.75
				S385.273,411.049,380.273,408.049z"/>
		</g>
		<g>
			<polygon style="fill:#A1A1A1;" points="175.882,445.861 185.249,445.861 181.143,424.817 200.609,409.56 178.513,420.082 
				172.2,390.095 177.461,444.808 163.782,439.547 138.004,429.552 166.413,445.335 			"/>
			<polygon style="fill:#A1A1A1;" points="292.148,417.452 279.522,444.808 284.783,445.335 287.94,437.443 302.011,434.914 
				288.992,432.182 			"/>
			<polygon style="fill:#A1A1A1;" points="385.267,430.604 392.632,445.335 393.917,437.375 			"/>
			<polygon style="fill:#A1A1A1;" points="398.997,445.861 400.051,435.148 409.467,427.974 400.602,429.538 402.102,414.295 
				392.632,445.335 395.788,445.861 			"/>
		</g>
	</g>
</g>
<g id="Clouds">
	<path style="opacity:0.3;fill:none;stroke:#000000;stroke-linecap:round;stroke-linejoin:round;stroke-miterlimit:10;" d="
		M424.294,44.313c0,0-10.827-16.692-19.399-15.789c-8.571,0.902-8.12,7.218-11.278,12.181c-3.158,4.962-8.12-2.256-13.083-0.451
		c-4.962,1.805-3.158,4.962-6.316,6.316c-3.158,1.353-10.376-5.865-13.083-3.609c-2.707,2.256-3.609,5.865-5.414,6.767
		c-1.805,0.902-5.414-2.256-7.218,0c-1.804,2.256-1.804,2.256-1.804,2.256h88.422c0,0,1.353-4.962-2.256-7.218
		C429.257,42.509,428.354,45.215,424.294,44.313z"/>
	<path style="opacity:0.3;fill:none;stroke:#000000;stroke-linecap:round;stroke-linejoin:round;stroke-miterlimit:10;" d="
		M235.613,76.024c0,0-21.128-32.572-37.854-30.811c-16.726,1.761-15.846,14.085-22.008,23.769
		c-6.162,9.684-15.846-4.402-25.529-0.88c-9.684,3.521-6.163,9.683-12.325,12.324c-6.162,2.641-20.248-11.444-25.529-7.042
		c-5.282,4.401-7.043,11.444-10.564,13.205c-3.521,1.761-10.564-4.401-14.085,0c-3.521,4.402-3.521,4.402-3.521,4.402h172.544
		c0,0,2.641-9.684-4.402-14.085C245.296,72.503,243.535,77.785,235.613,76.024z"/>
</g>
<g id="Trees">
	<g>
		<path style="fill:#92E3A9;" d="M264.725,275.817c18.183,92.2-38.943,53.798-86.982,53.798s-108.911,31.268-86.982-53.798
			c12.53-48.605,38.943-78.994,86.982-78.994S257.058,236.936,264.725,275.817z"/>
		<path style="opacity:0.3;fill:#FFFFFF;" d="M264.725,275.817c18.183,92.2-38.943,53.798-86.982,53.798
			s-108.911,31.268-86.982-53.798c12.53-48.605,38.943-78.994,86.982-78.994S257.058,236.936,264.725,275.817z"/>
		<polygon style="fill:#C2C2C2;" points="162.693,282.671 175.893,291.819 174.372,331.726 150.328,321.246 173.755,339.125 
			172.189,445.005 184.711,445.005 182.792,309.804 216.295,272.954 182.387,301.93 181.154,247.06 177.454,284.667 
			168.735,278.343 149.711,251.375 161.939,275.888 122.584,260.007 		"/>
		<g>
			<path style="fill:#FFFFFF;" d="M163.543,231.674c0,0-1.283,5.941,1.383,10.869c2.666,4.928,6.311,8.203,6.311,8.203
				S173.884,241.37,163.543,231.674z"/>
			<path style="fill:#FFFFFF;" d="M113.745,284.146c0,0,4.581,3.994,10.184,4.041c5.603,0.047,10.231-1.562,10.231-1.562
				S127.231,279.777,113.745,284.146z"/>
			<path style="fill:#FFFFFF;" d="M106.768,308.766c0,0,5.56,2.455,10.925,0.837c5.365-1.618,9.307-4.528,9.307-4.528
				S118.349,300.592,106.768,308.766z"/>
			<path style="fill:#FFFFFF;" d="M139.975,311.33c0,0,6.077-0.081,10.283-3.784c4.205-3.703,6.58-7.989,6.58-7.989
				S147.105,299.078,139.975,311.33z"/>
			<path style="fill:#FFFFFF;" d="M125.965,237.818c0,0,1.378,5.919,5.895,9.236c4.516,3.316,9.211,4.719,9.211,4.719
				S139.457,242.164,125.965,237.818z"/>
			<path style="fill:#FFFFFF;" d="M225.044,233.43c0,0-6.018,0.853-9.718,5.06c-3.701,4.207-5.511,8.761-5.511,8.761
				S219.529,246.488,225.044,233.43z"/>
			<path style="fill:#FFFFFF;" d="M245.896,264.699c0,0-5.942-1.278-10.868,1.392c-4.926,2.67-8.198,6.319-8.198,6.319
				S236.21,275.049,245.896,264.699z"/>
			<path style="fill:#FFFFFF;" d="M243.856,300.219c0,0-4.284-4.311-9.87-4.758c-5.586-0.447-10.317,0.827-10.317,0.827
				S230.093,303.614,243.856,300.219z"/>
			<path style="fill:#FFFFFF;" d="M220.586,319.279c0,0-2.467-5.555-7.526-7.963c-5.059-2.409-9.934-2.904-9.934-2.904
				S206.516,317.546,220.586,319.279z"/>
			<path style="fill:#FFFFFF;" d="M208.339,261.645c0,0-6.018,0.853-9.718,5.06c-3.701,4.207-5.511,8.761-5.511,8.761
				S202.823,274.703,208.339,261.645z"/>
			<path style="fill:#FFFFFF;" d="M109.747,253.809c0,0,2.678,5.456,7.826,7.668c5.148,2.212,10.039,2.52,10.039,2.52
				S123.872,254.999,109.747,253.809z"/>
			<path style="fill:#FFFFFF;" d="M195.552,225.057c0,0-4.872,3.634-6.101,9.101c-1.23,5.467-0.635,10.33-0.635,10.33
				S196.974,239.161,195.552,225.057z"/>
			<path style="fill:#FFFFFF;" d="M177.178,207.863c0,0-2.766,5.412-1.454,10.86c1.311,5.448,3.993,9.549,3.993,9.549
				S184.683,219.889,177.178,207.863z"/>
			<path style="fill:#FFFFFF;" d="M137.405,213.643c0,0,0,6.078,3.647,10.332c3.646,4.254,7.901,6.685,7.901,6.685
				S149.561,220.936,137.405,213.643z"/>
		</g>
	</g>
	<g>
		<path style="fill:#92E3A9;" d="M366.357,103.478c17.123,86.826-36.673,50.662-81.912,50.662
			c-45.239,0-102.563,29.446-81.912-50.662c11.8-45.773,36.673-74.39,81.912-74.39C329.683,29.087,359.136,66.862,366.357,103.478z"
			/>
		<path style="opacity:0.5;fill:#FFFFFF;" d="M366.357,103.478c17.123,86.826-36.673,50.662-81.912,50.662
			c-45.239,0-102.563,29.446-81.912-50.662c11.8-45.773,36.673-74.39,81.912-74.39C329.683,29.087,359.136,66.862,366.357,103.478z"
			/>
		<polygon style="fill:#A1A1A1;" points="258.626,146.258 280.689,163.096 278.429,445.12 291.759,445.12 289.198,135.484 
			320.749,100.781 288.817,128.069 287.656,76.396 284.172,111.812 275.961,105.856 258.046,80.46 269.561,103.544 232.5,88.589 
			270.271,109.932 282.702,118.547 281.269,156.128 		"/>
		<g>
			<path style="fill:#FFFFFF;" d="M271.071,61.908c0,0-1.208,5.594,1.302,10.236c2.511,4.641,5.943,7.725,5.943,7.725
				S280.81,71.038,271.071,61.908z"/>
			<path style="fill:#FFFFFF;" d="M224.176,111.321c0,0,4.314,3.761,9.591,3.806c5.277,0.045,9.635-1.471,9.635-1.471
				S236.875,107.207,224.176,111.321z"/>
			<path style="fill:#FFFFFF;" d="M217.605,134.506c0,0,5.236,2.312,10.288,0.788c5.052-1.523,8.765-4.264,8.765-4.264
				S228.512,126.808,217.605,134.506z"/>
			<path style="fill:#FFFFFF;" d="M248.877,136.92c0,0,5.723-0.076,9.683-3.563c3.96-3.487,6.196-7.524,6.196-7.524
				S255.592,125.383,248.877,136.92z"/>
			<path style="fill:#FFFFFF;" d="M235.683,67.693c0,0,1.298,5.574,5.551,8.698c4.253,3.123,8.674,4.444,8.674,4.444
				S248.389,71.786,235.683,67.693z"/>
			<path style="fill:#FFFFFF;" d="M328.988,63.561c0,0-5.667,0.803-9.152,4.765c-3.485,3.962-5.19,8.25-5.19,8.25
				S323.794,75.858,328.988,63.561z"/>
			<path style="fill:#FFFFFF;" d="M348.624,93.008c0,0-5.595-1.203-10.234,1.311c-4.639,2.515-7.72,5.95-7.72,5.95
				S339.503,102.755,348.624,93.008z"/>
			<path style="fill:#FFFFFF;" d="M346.704,126.458c0,0-4.034-4.06-9.294-4.481c-5.26-0.421-9.716,0.779-9.716,0.779
				S333.743,129.655,346.704,126.458z"/>
			<path style="fill:#FFFFFF;" d="M324.789,144.406c0,0-2.323-5.231-7.087-7.499c-4.764-2.268-9.355-2.735-9.355-2.735
				S311.54,142.775,324.789,144.406z"/>
			<path style="fill:#FFFFFF;" d="M313.256,90.131c0,0-5.667,0.803-9.152,4.765c-3.485,3.962-5.19,8.25-5.19,8.25
				S308.062,102.428,313.256,90.131z"/>
			<path style="fill:#FFFFFF;" d="M220.41,82.752c0,0,2.522,5.138,7.37,7.221c4.848,2.083,9.453,2.373,9.453,2.373
				S233.713,83.873,220.41,82.752z"/>
			<path style="fill:#FFFFFF;" d="M301.215,55.676c0,0-4.588,3.422-5.746,8.57c-1.158,5.148-0.598,9.728-0.598,9.728
				S302.554,68.958,301.215,55.676z"/>
			<path style="fill:#FFFFFF;" d="M283.912,39.484c0,0-2.604,5.097-1.37,10.227c1.235,5.13,3.76,8.992,3.76,8.992
				S290.979,50.809,283.912,39.484z"/>
			<path style="fill:#FFFFFF;" d="M246.457,44.927c0,0,0,5.723,3.434,9.73c3.434,4.006,7.441,6.296,7.441,6.296
				S257.904,51.796,246.457,44.927z"/>
		</g>
	</g>
</g>
<g id="Floor">
	
		<line style="fill:none;stroke:#263238;stroke-linecap:round;stroke-linejoin:round;stroke-miterlimit:10;" x1="41.572" y1="445.861" x2="455.107" y2="445.861"/>
</g>
<g id="Berries">
	<g>
		<path style="fill:none;stroke:#263238;stroke-linecap:round;stroke-linejoin:round;stroke-miterlimit:10;" d="M374.548,339.041
			c0,0,21.698,11.513,34.982,31.44"/>
		<path style="fill:none;stroke:#263238;stroke-linecap:round;stroke-linejoin:round;stroke-miterlimit:10;" d="M379.861,332.841
			c0,0,1.861,2.069,4.075,11.811l-13.374,1.916"/>
		<path style="fill:none;stroke:#263238;stroke-linecap:round;stroke-linejoin:round;stroke-miterlimit:10;" d="M382.518,354.539
			c0,0,6.642-3.1,13.284,0c0,0-0.675-10.643-0.826-14.878"/>
		<path style="fill:none;stroke:#263238;stroke-linecap:round;stroke-linejoin:round;stroke-miterlimit:10;" d="M393.767,364.919
			c0,0,4.386-3.63,9.074-2.874c0,0,2.42-5.445,0.454-14.217"/>
		
			<circle style="fill:#92E3A9;stroke:#263238;stroke-linecap:round;stroke-linejoin:round;stroke-miterlimit:10;" cx="372.223" cy="346.949" r="3.79"/>
		
			<circle style="fill:#92E3A9;stroke:#263238;stroke-linecap:round;stroke-linejoin:round;stroke-miterlimit:10;" cx="373.539" cy="338.53" r="3.79"/>
		<path style="fill:#92E3A9;stroke:#263238;stroke-linecap:round;stroke-linejoin:round;stroke-miterlimit:10;" d="M383.652,332.841
			c0-2.093-1.697-3.79-3.79-3.79c-2.093,0-3.79,1.697-3.79,3.79c0,2.093,1.697,3.79,3.79,3.79
			C381.955,336.632,383.652,334.935,383.652,332.841z"/>
		<path style="fill:#92E3A9;stroke:#263238;stroke-linecap:round;stroke-linejoin:round;stroke-miterlimit:10;" d="M386.798,353.608
			c0-2.093-1.697-3.79-3.79-3.79c-2.093,0-3.79,1.697-3.79,3.79c0,2.093,1.697,3.79,3.79,3.79
			C385.101,357.398,386.798,355.701,386.798,353.608z"/>
		<path style="fill:#92E3A9;stroke:#263238;stroke-linecap:round;stroke-linejoin:round;stroke-miterlimit:10;" d="M399.713,339.582
			c0-2.093-1.697-3.79-3.79-3.79c-2.093,0-3.79,1.697-3.79,3.79c0,2.093,1.697,3.79,3.79,3.79
			C398.016,343.372,399.713,341.675,399.713,339.582z"/>
		
			<circle style="fill:#92E3A9;stroke:#263238;stroke-linecap:round;stroke-linejoin:round;stroke-miterlimit:10;" cx="393.767" cy="364.919" r="3.79"/>
		
			<circle style="fill:#92E3A9;stroke:#263238;stroke-linecap:round;stroke-linejoin:round;stroke-miterlimit:10;" cx="404.508" cy="347.686" r="3.79"/>
	</g>
</g>
<g id="Pine_Cone">
	<g>
		<path style="fill:#263238;stroke:#263238;stroke-linecap:round;stroke-linejoin:round;stroke-miterlimit:10;" d="M394.595,257.668
			c0,0-3.438,1.939-3.438,2.732c0,0.793,1.41,3.173,1.41,3.173s-2.115-0.264-2.38,0.264c-0.264,0.529-0.176,1.939-0.176,1.939
			s-2.556-2.82-2.997-2.82s-0.969,0.264-0.705,1.498c0.264,1.234,0,1.675,0.97,2.115c0.97,0.441,2.82,2.997,2.732,3.526
			c-0.088,0.529-2.204-0.617-2.732-1.058c-0.529-0.441-1.939-1.146-2.556-1.058c-0.617,0.088-0.088,2.468,0.97,3.526
			c1.058,1.058-0.793,1.322-0.793,1.322l4.054,5.729c0,0-6.787-3.614-7.227-3.79s-0.529,1.498-0.529,1.763
			c0,0.264,1.851,1.763,1.851,1.763s-1.498,0.088-1.41,0.97c0.088,0.881,0.176,1.322,0.617,1.586
			c0.441,0.264,1.498,0.881,1.498,0.881s-4.583-2.292-4.054-0.441c0.529,1.851,8.197,4.231,7.316,4.848
			c-0.881,0.617-3.525-0.793-4.848-1.058s-4.319-1.322-3.878-0.264c0.441,1.058,2.468,2.115,2.468,2.115s-2.997-0.176-2.82,0.793
			c0.176,0.97,2.027,2.115,2.468,2.203c0.441,0.088,1.498,0.881,1.498,0.881s-1.498,2.909-1.41,3.261
			c0.088,0.353,0.97,0.881,1.587,1.41c0.617,0.529,0.881,0.088,0.617,0.529s-1.322,1.322-1.763,1.41
			c-0.441,0.088-3.966-2.38-4.231-1.587c-0.264,0.793,0.352,0.97,1.146,1.851c0.793,0.881,0.793,2.38,2.556,3.437
			c1.763,1.058,7.844,5.641,11.899,6.699c4.055,1.058,13.397-1.058,14.631-1.851c1.234-0.793,5.641-7.051,5.641-7.051
			s2.027-3.702,1.675-3.702c-0.353,0-5.112-0.529-5.112-0.529s7.051-3.085,6.875-3.702c-0.176-0.617-3.349,0.264-3.349,0.264
			s-4.054,1.234-4.671,1.41s1.234-0.705,1.41-1.146c0.176-0.441,2.556-1.322,3.085-1.851c0.529-0.529,2.732-1.851,2.027-2.203
			c-0.705-0.353-2.468,0.088-2.909,0.176c-0.441,0.088-1.939,0.176-3.173,0.176c-1.234,0-2.644,0.529-1.234,0
			c1.41-0.529,4.936-1.146,5.641-1.939c0.705-0.793,0.969-1.586,0.441-1.851c-0.529-0.264-1.587-0.881-2.292-0.97
			c-0.705-0.088-2.115,0.088-2.82,0.176c-0.705,0.088-1.498,0.088-1.498,0.088l2.292-2.644c0,0,2.82-2.82,2.82-3.79
			c0-0.97-0.881-0.705-1.322-0.353c-0.441,0.353-4.583,3.085-4.583,3.085s-1.41,0.088-1.322-0.176
			c0.088-0.264,2.644-2.556,2.644-2.556s2.203-4.76,2.38-5.2c0.176-0.441,1.234-1.939,0.264-1.586
			c-0.97,0.353-1.498,0.617-1.851,1.058c-0.352,0.441-1.586,1.058-2.115,1.498c-0.529,0.441-2.732,1.675-2.732,1.675l3.878-6.082
			c0,0,1.322-3.438,0-3.261c-1.322,0.176-1.939,0.881-2.468,1.146c-0.529,0.264-1.058,0.705-0.97,0.353
			c0.088-0.353,1.675-2.292,0.441-2.468c-1.234-0.176-2.204,0.441-2.204,0.441s1.587-3.614,0.617-4.055
			c-0.969-0.441-2.203-0.264-2.203-0.264s0.441-2.115-0.705-1.498c-1.146,0.617-2.732,4.583-2.732,4.583L394.595,257.668z"/>
		<path style="fill:#FFFFFF;stroke:#263238;stroke-linecap:round;stroke-linejoin:round;stroke-miterlimit:10;" d="M398.473,266.394
			c0,0-4.143,0.97-4.054,1.587c0.088,0.617,2.644,3.878,3.437,3.79c0.793-0.088,4.583-1.41,4.76-2.82
			S398.473,266.394,398.473,266.394z"/>
		<path style="fill:#FFFFFF;stroke:#263238;stroke-linecap:round;stroke-linejoin:round;stroke-miterlimit:10;" d="M391.51,271.682
			c0,0-7.051-0.793-7.139,0.176c-0.088,0.97,1.41,2.732,2.644,2.82C388.249,274.767,391.51,271.682,391.51,271.682z"/>
		<path style="fill:#FFFFFF;stroke:#263238;stroke-linecap:round;stroke-linejoin:round;stroke-miterlimit:10;" d="M395.124,274.855
			c0,0-5.2-0.264-4.671,0.617c0.529,0.881,2.38,2.909,3.526,3.173s7.404-1.41,6.434-2.203
			C399.442,275.648,395.124,274.855,395.124,274.855z"/>
		<path style="fill:#FFFFFF;stroke:#263238;stroke-linecap:round;stroke-linejoin:round;stroke-miterlimit:10;" d="M407.111,279.438
			c0,0-6.787-1.322-6.787,0.088c0,1.41,2.292,3.702,3.614,3.79c1.322,0.088,3.261-1.146,3.79-1.851
			C408.256,280.76,407.111,279.438,407.111,279.438z"/>
		<path style="fill:#FFFFFF;stroke:#263238;stroke-linecap:round;stroke-linejoin:round;stroke-miterlimit:10;" d="M408.08,271.858
			c0,0-4.143,0.97-4.054,1.851c0.088,0.881,1.939,3.614,3.173,3.173c1.234-0.441,2.909-2.82,2.997-4.054
			C410.284,271.594,408.08,271.858,408.08,271.858z"/>
		<path style="fill:#FFFFFF;stroke:#263238;stroke-linecap:round;stroke-linejoin:round;stroke-miterlimit:10;" d="M395.035,262.251
			c0,0-4.055,0.264-4.055,0.881c0,0.617,1.939,3.526,3.349,3.085c1.41-0.441,1.851-2.027,1.851-2.909
			C396.181,262.427,395.035,262.251,395.035,262.251z"/>
		<path style="fill:#FFFFFF;stroke:#263238;stroke-linecap:round;stroke-linejoin:round;stroke-miterlimit:10;" d="M394.33,281.995
			c0,0-7.227-0.881-8.549-0.441c-1.322,0.441,0.529,2.82,2.909,3.349c2.38,0.529,3.966-1.058,5.024-1.587
			C394.771,282.788,394.33,281.995,394.33,281.995z"/>
		<path style="fill:#FFFFFF;stroke:#263238;stroke-linecap:round;stroke-linejoin:round;stroke-miterlimit:10;" d="M400.676,284.903
			c0,0-7.227,0-6.787,0.881c0.441,0.881,3.526,2.556,5.024,2.644c1.498,0.088,6.17-2.204,5.465-2.732
			C403.673,285.168,400.676,284.903,400.676,284.903z"/>
		<path style="fill:#FFFFFF;stroke:#263238;stroke-linecap:round;stroke-linejoin:round;stroke-miterlimit:10;" d="M396.181,289.839
			c0,0-8.109-0.264-8.109,0.617s4.319,2.909,5.817,2.292c1.498-0.617,5.2-1.763,4.319-2.38
			C397.327,289.751,396.181,289.839,396.181,289.839z"/>
		<path style="fill:#FFFFFF;stroke:#263238;stroke-linecap:round;stroke-linejoin:round;stroke-miterlimit:10;" d="M388.072,287.635
			c0,0-2.203,1.675-3.085,2.115s-3.878-0.705-4.231-1.675c-0.352-0.97,1.763-1.058,3.614-1.058
			C386.221,287.018,389.13,286.93,388.072,287.635z"/>
		<path style="fill:#FFFFFF;stroke:#263238;stroke-linecap:round;stroke-linejoin:round;stroke-miterlimit:10;" d="M411.87,288.429
			c0,0-6.346,0-6.699,0.617c-0.353,0.617,2.468,2.38,4.231,2.468c1.763,0.088,3.966-2.468,3.614-2.82
			C412.663,288.341,411.87,288.429,411.87,288.429z"/>
		<path style="fill:#FFFFFF;stroke:#263238;stroke-linecap:round;stroke-linejoin:round;stroke-miterlimit:10;" d="M414.25,283.493
			c0,0-3.261-0.264-3.79,0.264c-0.529,0.529-0.352,1.41,0.441,2.115c0.793,0.705,1.939,0.176,2.644-0.793
			C414.25,284.11,414.955,283.317,414.25,283.493z"/>
		<path style="fill:#FFFFFF;stroke:#263238;stroke-linecap:round;stroke-linejoin:round;stroke-miterlimit:10;" d="M407.375,292.836
			c0,0-7.316,0.353-8.726,0.881c-1.41,0.529,1.146,1.322,1.939,1.763c0.793,0.441,2.115,1.41,3.437,0.97
			c1.322-0.441,3.878-1.675,4.407-2.292C408.961,293.541,407.375,292.836,407.375,292.836z"/>
		<path style="fill:#FFFFFF;stroke:#263238;stroke-linecap:round;stroke-linejoin:round;stroke-miterlimit:10;" d="M406.582,297.419
			c0,0-5.288,1.146-5.024,1.586c0.264,0.441,3.173,2.115,3.79,1.939c0.617-0.176,3.79-1.763,3.966-2.292
			C409.49,298.124,406.582,297.419,406.582,297.419z"/>
		<path style="fill:#FFFFFF;stroke:#263238;stroke-linecap:round;stroke-linejoin:round;stroke-miterlimit:10;" d="M408.961,298.036
			c0,0,0.264-0.617,1.41-0.969c1.146-0.353,3.878-1.851,4.231-1.058c0.353,0.793-0.264,1.41-1.586,1.939
			c-1.322,0.529-3.173,1.498-3.438,1.498c-0.264,0-0.264-0.793-0.264-0.793L408.961,298.036z"/>
		<path style="fill:#FFFFFF;stroke:#263238;stroke-linecap:round;stroke-linejoin:round;stroke-miterlimit:10;" d="M401.205,297.507
			c0,0-2.82,1.675-3.614,2.115c-0.793,0.441-0.97,0.441-1.322,0.441c-0.353,0-1.675-0.97-2.644-1.498
			c-0.97-0.529-3.085-1.058-2.292-1.763s2.468-1.234,5.465-0.441C399.795,297.155,401.822,296.978,401.205,297.507z"/>
		<path style="fill:#FFFFFF;stroke:#263238;stroke-linecap:round;stroke-linejoin:round;stroke-miterlimit:10;" d="M391.245,294.775
			c0,0-2.909,2.38-3.878,2.644c-0.969,0.264-1.851-0.088-1.851-0.088s-5.465-1.498-5.112-2.468c0.352-0.97,4.936-1.146,6.346-0.705
			C388.16,294.599,391.069,293.805,391.245,294.775z"/>
		<path style="fill:#FFFFFF;stroke:#263238;stroke-linecap:round;stroke-linejoin:round;stroke-miterlimit:10;" d="M382.167,291.778
			c0,0-0.617,1.146-1.322,1.675c-0.705,0.529-0.617,0.705-1.41,0.176c-0.793-0.529-2.909-1.851-2.115-2.292
			C378.112,290.897,380.757,291.073,382.167,291.778z"/>
		<path style="fill:#FFFFFF;stroke:#263238;stroke-linecap:round;stroke-linejoin:round;stroke-miterlimit:10;" d="M383.842,296.89
			c0,0-4.936-1.146-5.376-0.353c-0.441,0.793,0.441,1.058,1.498,1.587c1.058,0.529,2.115,1.41,3.173,1.146
			c1.058-0.264,1.763-1.146,1.586-1.586S383.842,296.89,383.842,296.89z"/>
		<path style="fill:#FFFFFF;stroke:#263238;stroke-linecap:round;stroke-linejoin:round;stroke-miterlimit:10;" d="M378.024,295.921
			c0,0-0.881,0.617-1.587,0.705c-0.705,0.088-1.939-0.441-2.027-0.793c-0.088-0.353,0-0.705,0.529-0.705
			C375.468,295.127,378.201,295.304,378.024,295.921z"/>
		<path style="fill:#FFFFFF;stroke:#263238;stroke-linecap:round;stroke-linejoin:round;stroke-miterlimit:10;" d="M392.568,298.653
			c0,0-4.055-1.939-5.2-1.234c-1.146,0.705-1.586,1.851-0.881,2.292c0.705,0.441,2.292,1.322,3.349,1.586
			c1.058,0.264,3.966-0.529,4.495-0.969C394.859,299.887,392.568,298.653,392.568,298.653z"/>
		<path style="fill:#FFFFFF;stroke:#263238;stroke-linecap:round;stroke-linejoin:round;stroke-miterlimit:10;" d="M400.941,298.917
			c0,0-5.2,1.41-4.848,2.115c0.353,0.705,2.203,2.027,2.644,2.027s1.851-0.617,2.468-0.705c0.617-0.088,1.586,0.353,2.468,0
			c0.881-0.353,1.146-0.529,0.969-0.793S401.646,298.829,400.941,298.917z"/>
		<path style="fill:#FFFFFF;stroke:#263238;stroke-linecap:round;stroke-linejoin:round;stroke-miterlimit:10;" d="M394.947,300.504
			c0,0-5.024,0.97-5.2,1.498c-0.176,0.529-1.322-1.058-2.115-1.322c-0.793-0.264-2.027-0.705-3.261-1.058
			c-1.234-0.353-2.644,0.441-2.556,0.97c0,0-0.705-0.176-1.763-0.617c-1.058-0.441-2.115-0.97-2.115-0.441s2.909,3.085,4.319,4.054
			c1.41,0.97,4.054,3.438,9.343,4.495l1.234,0.441c0,0,0.353,1.763,1.763,1.498c1.41-0.264,1.763-1.146,1.763-1.146
			s4.407,0.088,6.17-0.617c1.763-0.705,5.817-2.556,7.492-4.495c1.675-1.939,3.526-5.024,2.556-4.848
			c-0.97,0.176-3.261,1.41-3.261,1.41l-4.671,1.234l-0.969,0.793c0,0-1.41-0.441-2.468,0c-1.058,0.441-2.468,0.705-2.468,0.705
			L394.947,300.504z"/>
		<path style="fill:#FFFFFF;stroke:#263238;stroke-linecap:round;stroke-linejoin:round;stroke-miterlimit:10;" d="M384.723,304.294
			c0,0,1.146,0,2.38,0.352c1.234,0.353,1.939,1.498,1.939,1.498s1.498-0.97,3.085-0.97c1.586,0,3.173,1.234,3.173,1.234
			s3.349-1.058,4.848,0c0,0,1.763-1.234,3.173-1.322c1.41-0.088,1.41-0.088,1.41-0.088s1.851-1.41,3.349-0.617"/>
		<path style="fill:#FFFFFF;stroke:#263238;stroke-linecap:round;stroke-linejoin:round;stroke-miterlimit:10;" d="M392.744,305.087
			c0,0,2.468-1.763,4.407-1.058c1.939,0.705,1.939,0.705,1.939,0.705"/>
		<path style="fill:#FFFFFF;stroke:#263238;stroke-linecap:round;stroke-linejoin:round;stroke-miterlimit:10;" d="M386.045,304.47
			c0,0,0.353-1.939,3.173-1.586c2.821,0.353,3.173,0.881,3.173,0.881"/>
		<path style="fill:#FFFFFF;stroke:#263238;stroke-linecap:round;stroke-linejoin:round;stroke-miterlimit:10;" d="M393.361,307.467
			c0,0,0.793-1.234,2.732-0.353"/>
		<path style="fill:#FFFFFF;stroke:#263238;stroke-linecap:round;stroke-linejoin:round;stroke-miterlimit:10;" d="M381.286,301.826
			c0,0,0.529-0.529,2.292,0.088c1.763,0.617,2.292,1.675,2.292,1.675"/>
		
			<line style="fill:#FFFFFF;stroke:#263238;stroke-linecap:round;stroke-linejoin:round;stroke-miterlimit:10;" x1="404.731" y1="303.236" x2="405.7" y2="304.382"/>
		<path style="fill:#FFFFFF;stroke:#263238;stroke-linecap:round;stroke-linejoin:round;stroke-miterlimit:10;" d="M408.168,303.677
			c0,0,0.793-1.587,2.556-1.41"/>
	</g>
</g>
<g id="Ladybug">
	<g>
		
			<circle style="fill:#263238;stroke:#263238;stroke-linecap:round;stroke-linejoin:round;stroke-miterlimit:10;" cx="394.595" cy="216.097" r="12.977"/>
		
			<ellipse transform="matrix(0.7071 -0.7071 0.7071 0.7071 -25.952 337.643)" style="fill:#263238;stroke:#263238;stroke-linecap:round;stroke-linejoin:round;stroke-miterlimit:10;" cx="394.595" cy="200.148" rx="7.763" ry="7.763"/>
		<path style="fill:#263238;stroke:#263238;stroke-linecap:round;stroke-linejoin:round;stroke-miterlimit:10;" d="M390.134,194.605
			c0,0-4.866-4.461-10.949-3.65c0,0-0.811-3.244,6.083-0.811C392.162,192.577,390.134,194.605,390.134,194.605z"/>
		<path style="fill:#263238;stroke:#263238;stroke-linecap:round;stroke-linejoin:round;stroke-miterlimit:10;" d="M398.088,194.605
			c0,0,4.866-4.461,10.949-3.65c0,0,0.811-3.244-6.083-0.811C396.06,192.577,398.088,194.605,398.088,194.605z"/>
		<g>
			<path style="fill:#92E3A9;stroke:#263238;stroke-linecap:round;stroke-linejoin:round;stroke-miterlimit:10;" d="
				M394.551,203.121l0.042-1.599c-0.833-0.147-1.686-0.238-2.561-0.238c-8.077,0-14.625,6.548-14.625,14.625
				c0,7.689,5.938,13.98,13.477,14.567L394.551,203.121z"/>
			<path style="fill:#92E3A9;stroke:#263238;stroke-linecap:round;stroke-linejoin:round;stroke-miterlimit:10;" d="M394.64,203.121
				l-0.042-1.599c0.833-0.147,1.686-0.238,2.561-0.238c8.077,0,14.625,6.548,14.625,14.625c0,7.689-5.938,13.98-13.477,14.567
				L394.64,203.121z"/>
		</g>
		
			<circle style="fill:#263238;stroke:#263238;stroke-linecap:round;stroke-linejoin:round;stroke-miterlimit:10;" cx="385.919" cy="222.322" r="3.079"/>
		<path style="fill:#263238;stroke:#263238;stroke-linecap:round;stroke-linejoin:round;stroke-miterlimit:10;" d="M385.919,212.573
			c0,1.701-1.378,3.079-3.079,3.079s-3.079-1.378-3.079-3.079c0-1.7,1.378-3.079,3.079-3.079S385.919,210.872,385.919,212.573z"/>
		<path style="fill:#263238;stroke:#263238;stroke-linecap:round;stroke-linejoin:round;stroke-miterlimit:10;" d="M392.852,206.154
			c0,1.7-1.378,3.079-3.079,3.079c-1.701,0-3.079-1.379-3.079-3.079c0-1.7,1.378-3.079,3.079-3.079
			C391.474,203.076,392.852,204.454,392.852,206.154z"/>
		
			<circle style="fill:#263238;stroke:#263238;stroke-linecap:round;stroke-linejoin:round;stroke-miterlimit:10;" cx="402.852" cy="222.322" r="3.079"/>
		<path style="fill:#263238;stroke:#263238;stroke-linecap:round;stroke-linejoin:round;stroke-miterlimit:10;" d="M402.852,212.573
			c0,1.701,1.379,3.079,3.079,3.079c1.7,0,3.079-1.378,3.079-3.079c0-1.7-1.379-3.079-3.079-3.079
			C404.231,209.494,402.852,210.872,402.852,212.573z"/>
		<path style="fill:#263238;stroke:#263238;stroke-linecap:round;stroke-linejoin:round;stroke-miterlimit:10;" d="M395.918,206.154
			c0,1.7,1.378,3.079,3.079,3.079c1.7,0,3.079-1.379,3.079-3.079c0-1.7-1.378-3.079-3.079-3.079
			C397.297,203.076,395.918,204.454,395.918,206.154z"/>
	</g>
</g>
<g id="Flower">
	<g>
		<path style="fill:#FFFFFF;stroke:#263238;stroke-linecap:round;stroke-linejoin:round;stroke-miterlimit:10;" d="M396.901,121.03
			c0,5.098-2.303,11.954-5.145,11.954c-2.842,0-5.145-6.856-5.145-11.954c0-5.098,2.303-9.231,5.145-9.231
			C394.598,111.799,396.901,115.932,396.901,121.03z"/>
		<path style="fill:#FFFFFF;stroke:#263238;stroke-linecap:round;stroke-linejoin:round;stroke-miterlimit:10;" d="M380.831,124.367
			c4.415,2.549,9.201,7.972,7.78,10.433c-1.421,2.461-8.51,1.027-12.925-1.521c-4.415-2.549-6.842-6.61-5.422-9.071
			C371.685,121.746,376.416,121.818,380.831,124.367z"/>
		<path style="fill:#FFFFFF;stroke:#263238;stroke-linecap:round;stroke-linejoin:round;stroke-miterlimit:10;" d="M375.686,139.953
			c4.415-2.549,11.505-3.982,12.925-1.521c1.421,2.461-3.365,7.884-7.78,10.433c-4.415,2.549-9.146,2.62-10.566,0.16
			C368.844,146.563,371.271,142.502,375.686,139.953z"/>
		<path style="fill:#FFFFFF;stroke:#263238;stroke-linecap:round;stroke-linejoin:round;stroke-miterlimit:10;" d="M386.612,152.202
			c0-5.098,2.303-11.954,5.145-11.954c2.841,0,5.145,6.856,5.145,11.954c0,5.098-2.303,9.231-5.145,9.231
			C388.915,161.432,386.612,157.3,386.612,152.202z"/>
		<path style="fill:#FFFFFF;stroke:#263238;stroke-linecap:round;stroke-linejoin:round;stroke-miterlimit:10;" d="M402.682,148.865
			c-4.415-2.549-9.201-7.972-7.78-10.433c1.421-2.461,8.51-1.027,12.925,1.521c4.415,2.549,6.842,6.61,5.422,9.071
			C411.828,151.485,407.097,151.413,402.682,148.865z"/>
		<path style="fill:#FFFFFF;stroke:#263238;stroke-linecap:round;stroke-linejoin:round;stroke-miterlimit:10;" d="M407.827,133.278
			c-4.415,2.549-11.505,3.982-12.925,1.521c-1.421-2.461,3.365-7.884,7.78-10.433c4.415-2.549,9.146-2.62,10.566-0.16
			C414.669,126.668,412.242,130.729,407.827,133.278z"/>
		<path style="fill:#92E3A9;stroke:#263238;stroke-linecap:round;stroke-linejoin:round;stroke-miterlimit:10;" d="M396.296,136.616
			c0-2.507-2.033-4.54-4.54-4.54s-4.54,2.033-4.54,4.54c0,2.507,2.032,4.54,4.54,4.54S396.296,139.123,396.296,136.616z"/>
	</g>
</g>
<g id="Spider">
	<g>
		<polyline style="fill:none;stroke:#263238;stroke-linecap:round;stroke-linejoin:round;stroke-miterlimit:10;" points="
			79.293,328.834 83.291,340.618 92.55,345.669 80.134,346.3 77.188,343.143 74.453,336.62 		"/>
		<polyline style="fill:none;stroke:#263238;stroke-linecap:round;stroke-linejoin:round;stroke-miterlimit:10;" points="
			87.289,375.761 82.87,370.079 81.187,357.874 89.604,349.877 86.658,361.662 88.131,368.606 91.288,373.025 		"/>
		<polyline style="fill:none;stroke:#263238;stroke-linecap:round;stroke-linejoin:round;stroke-miterlimit:10;" points="
			112.941,328.834 108.943,340.618 99.684,345.669 112.099,346.3 115.046,343.143 117.781,336.62 		"/>
		<polyline style="fill:none;stroke:#263238;stroke-linecap:round;stroke-linejoin:round;stroke-miterlimit:10;" points="
			104.945,375.761 109.364,370.079 111.047,357.874 102.63,349.877 105.576,361.662 104.103,368.606 100.946,373.025 		"/>
		
			<circle style="fill:#92E3A9;stroke:#263238;stroke-linecap:round;stroke-linejoin:round;stroke-miterlimit:10;" cx="95.962" cy="344.256" r="4.029"/>
		<path style="fill:#263238;stroke:#263238;stroke-linecap:round;stroke-linejoin:round;stroke-miterlimit:10;" d="M102.753,352.253
			c0,3.751-3.04,6.791-6.791,6.791s-6.791-3.04-6.791-6.791s3.04-6.791,6.791-6.791S102.753,348.502,102.753,352.253z"/>
	</g>
</g>
<g id="Leaf">
	<g>
		<g>
			<path style="fill:#92E3A9;stroke:#263238;stroke-linecap:round;stroke-linejoin:round;stroke-miterlimit:10;" d="
				M110.552,290.698c0,0,1.489-10.779-1.165-17.372c-2.654-6.593-13.568-11.455-18.801-12.643
				c-5.233-1.188-12.447-2.412-12.447-2.412s1.251,18.067,4.791,24.974C86.47,290.151,110.552,290.698,110.552,290.698z"/>
			<path style="fill:none;stroke:#263238;stroke-linecap:round;stroke-linejoin:round;stroke-miterlimit:10;" d="M90.516,268.143
				c-1.035-0.829-2.072-1.591-3.1-2.264"/>
			<path style="fill:none;stroke:#263238;stroke-linecap:round;stroke-linejoin:round;stroke-miterlimit:10;" d="M110.552,290.698
				c0,0-8.737-12.725-18.162-20.983"/>
			<path style="fill:#263238;" d="M108.747,290.733c0,0,1.471,1.212,2.309,3.236c0.838,2.024,1.881,6.886,1.881,6.886
				s2.683-0.259,2.315-2.635c-0.368-2.376-4.769-9.463-6.854-10.893L108.747,290.733z"/>
		</g>
		<polyline style="fill:none;stroke:#263238;stroke-linecap:round;stroke-linejoin:round;stroke-miterlimit:10;" points="
			87.466,274.119 96.793,273.912 96.568,265.536 		"/>
		<polyline style="fill:none;stroke:#263238;stroke-linecap:round;stroke-linejoin:round;stroke-miterlimit:10;" points="
			94.649,281.767 101.825,279.522 103.75,273.185 		"/>
	</g>
</g>
<g id="Mushroom">
	<g>
		<path style="fill:#263238;stroke:#263238;stroke-linecap:round;stroke-linejoin:round;stroke-miterlimit:10;" d="M116.376,206.279
			c0.056-0.523,0.089-1.052,0.089-1.587c0-9.566-9.11-17.32-20.348-17.32s-20.348,7.754-20.348,17.32c0,1.69,0.29,3.322,0.82,4.866
			C78.937,208.879,93.891,204.893,116.376,206.279z"/>
		<path style="fill:#FFFFFF;stroke:#263238;stroke-linecap:round;stroke-linejoin:round;stroke-miterlimit:10;" d="M76.589,209.557
			c0,0,2.012,2.027,8.787,2.184c6.776,0.158,22.218-1.261,25.369-2.206s5.542-1.67,5.631-3.257
			C116.465,204.691,94.589,199.652,76.589,209.557z"/>
		<path style="fill:#92E3A9;stroke:#263238;stroke-linecap:round;stroke-linejoin:round;stroke-miterlimit:10;" d="M96.251,198.387
			c0,1.978-1.724,3.581-3.85,3.581c-2.126,0-3.85-1.604-3.85-3.581c0-1.978,1.724-3.582,3.85-3.582
			C94.527,194.806,96.251,196.409,96.251,198.387z"/>
		<path style="fill:#92E3A9;stroke:#263238;stroke-linecap:round;stroke-linejoin:round;stroke-miterlimit:10;" d="M101.2,190.958
			c0,1.235-1.13,2.236-2.524,2.236c-1.394,0-2.524-1.001-2.524-2.236s1.13-2.236,2.524-2.236
			C100.07,188.722,101.2,189.723,101.2,190.958z"/>
		<path style="fill:#92E3A9;stroke:#263238;stroke-linecap:round;stroke-linejoin:round;stroke-miterlimit:10;" d="M109.567,200.046
			c0,2.031-1.55,3.678-3.462,3.678c-1.912,0-3.462-1.647-3.462-3.678c0-2.032,1.55-3.678,3.462-3.678
			C108.017,196.368,109.567,198.014,109.567,200.046z"/>
		<path style="fill:#92E3A9;stroke:#263238;stroke-linecap:round;stroke-linejoin:round;stroke-miterlimit:10;" d="M84.035,202.859
			c0,1.753-1.582,3.173-3.534,3.173c-1.952,0-3.534-1.421-3.534-3.173s1.582-3.174,3.534-3.174
			C82.452,199.685,84.035,201.106,84.035,202.859z"/>
		<path style="fill:#92E3A9;stroke:#263238;stroke-linecap:round;stroke-linejoin:round;stroke-miterlimit:10;" d="M88.939,192.473
			c0,0.876-0.872,1.587-1.947,1.587s-1.947-0.71-1.947-1.587c0-0.876,0.872-1.587,1.947-1.587S88.939,191.597,88.939,192.473z"/>
		<path style="fill:#92E3A9;stroke:#263238;stroke-linecap:round;stroke-linejoin:round;stroke-miterlimit:10;" d="M114.708,199.117
			c0.355,1.183,0.117,2.299-0.532,2.494c-0.649,0.195-1.462-0.606-1.817-1.789c-0.355-1.183-0.117-2.299,0.532-2.494
			C113.539,197.133,114.353,197.934,114.708,199.117z"/>
		<g>
			<path style="fill:#FFFFFF;stroke:#263238;stroke-linecap:round;stroke-linejoin:round;stroke-miterlimit:10;" d="M93.267,207.908
				c0,0,1.442,0.721,1.442,5.481c0,4.76-1.875,13.271-1.875,13.271s1.01,1.587,1.731,1.731c0.721,0.144,2.597-1.154,2.597-1.154
				s1.587,0.577,2.596,0c1.01-0.577,2.308-0.721,1.731-5.626c-0.577-4.905-3.318-13.56-3.318-13.56s3.606-3.895,2.885-3.029
				c-0.721,0.865-3.75,1.01-4.472,1.298c-0.721,0.288-3.174-1.443-2.741-0.577c0.433,0.866,0.433,0.866,0.433,0.866
				s-5.481,1.298-4.327,1.442C91.103,208.196,93.267,207.908,93.267,207.908z"/>
			
				<line style="fill:none;stroke:#263238;stroke-linecap:round;stroke-linejoin:round;stroke-miterlimit:10;" x1="83.746" y1="208.773" x2="89.949" y2="208.052"/>
			
				<line style="fill:none;stroke:#263238;stroke-linecap:round;stroke-linejoin:round;stroke-miterlimit:10;" x1="92.257" y1="208.196" x2="88.939" y2="209.927"/>
			
				<line style="fill:none;stroke:#263238;stroke-linecap:round;stroke-linejoin:round;stroke-miterlimit:10;" x1="98.171" y1="208.052" x2="102.354" y2="209.062"/>
			
				<line style="fill:none;stroke:#263238;stroke-linecap:round;stroke-linejoin:round;stroke-miterlimit:10;" x1="105.095" y1="207.042" x2="100.046" y2="206.898"/>
			
				<line style="fill:none;stroke:#263238;stroke-linecap:round;stroke-linejoin:round;stroke-miterlimit:10;" x1="106.537" y1="206.898" x2="109.999" y2="206.898"/>
			
				<line style="fill:none;stroke:#263238;stroke-linecap:round;stroke-linejoin:round;stroke-miterlimit:10;" x1="94.276" y1="206.609" x2="90.093" y2="205.888"/>
		</g>
	</g>
</g>
<g id="Butterfly">
	<g>
		<g>
			<path style="fill:#92E3A9;stroke:#263238;stroke-linecap:round;stroke-linejoin:round;stroke-miterlimit:10;" d="M97.521,124.057
				c0,0,1.612-9.459,7.339-14.241c5.727-4.782,8.087-0.844,7.387,1.071c-0.7,1.915-0.519,6.865-0.19,10.422
				s-0.792,5.137-1.881,5.644s-5.969,1.98-5.969,1.98s8.243,1.203,8.82,3.584c0.577,2.382-0.402,6.546-0.432,7.62
				c-0.031,1.074-2.919,0.562,0.399,4.849c3.318,4.287,3.606,5.478,2.517,5.984c-1.089,0.506-1.682-1.338-3.753-4.085
				c-2.072-2.747-2.897-3.953-4.174-4.419c-1.277-0.466-6.08-1.678-6.08-1.678S97.718,128.47,97.521,124.057z"/>
			<g>
				<path style="fill:#263238;stroke:#263238;stroke-linecap:round;stroke-linejoin:round;stroke-miterlimit:10;" d="
					M105.828,141.933c0.769-0.483,2.964-1.94,4.396-3.677c1.197-1.451,2.311-3.195,2.97-4.421c0.107,2.367-0.574,5.407-0.6,6.302
					c-0.031,1.074-2.919,0.562,0.399,4.849c3.318,4.287,3.606,5.478,2.517,5.984c-1.089,0.506-1.682-1.338-3.753-4.085
					c-2.072-2.747-2.897-3.953-4.174-4.419C107.22,142.335,106.57,142.141,105.828,141.933z"/>
				<path style="fill:#263238;stroke:#263238;stroke-linecap:round;stroke-linejoin:round;stroke-miterlimit:10;" d="
					M111.771,116.124l-0.038-0.108c0,0-1.364-7.866-7.619-5.523c0.241-0.233,0.488-0.461,0.746-0.676
					c5.727-4.782,8.087-0.844,7.387,1.071C111.859,111.95,111.742,113.948,111.771,116.124z"/>
			</g>
			<path style="fill:#263238;stroke:#263238;stroke-linecap:round;stroke-linejoin:round;stroke-miterlimit:10;" d="
				M105.797,118.176c0.531,1.141,1.908,1.626,3.076,1.083c1.168-0.543,1.686-1.909,1.155-3.05c-0.531-1.141-1.908-1.626-3.076-1.083
				C105.784,115.67,105.266,117.035,105.797,118.176z"/>
			<path style="fill:#263238;stroke:#263238;stroke-linecap:round;stroke-linejoin:round;stroke-miterlimit:10;" d="M103.68,137.05
				c0.619,1.331,2.508,1.766,4.22,0.97c1.712-0.796,2.598-2.52,1.979-3.852c-0.619-1.332-2.508-1.766-4.22-0.97
				C103.948,133.994,103.061,135.718,103.68,137.05z"/>
			<path style="fill:#92E3A9;stroke:#263238;stroke-linecap:round;stroke-linejoin:round;stroke-miterlimit:10;" d="
				M104.628,137.028c0.303,0.652,1.43,0.771,2.517,0.266c1.087-0.505,1.722-1.444,1.419-2.096c-0.303-0.652-1.43-0.771-2.517-0.266
				C104.96,135.438,104.325,136.376,104.628,137.028z"/>
		</g>
		<path style="fill:#A3A3A3;stroke:#263238;stroke-linecap:round;stroke-linejoin:round;stroke-miterlimit:10;" d="M95.713,124.444
			c0,0,3.41,16.014,3.441,16.851c0.031,0.837,1.116,1.705,1.984,0.403c0.868-1.302-3.255-16.494-4.015-17.471
			S95.713,124.444,95.713,124.444z"/>
		<path style="fill:none;stroke:#263238;stroke-linecap:round;stroke-linejoin:round;stroke-miterlimit:10;" d="M95.929,123.684
			c0,0-0.217-2.604-3.147-5.1"/>
		<path style="fill:none;stroke:#263238;stroke-linecap:round;stroke-linejoin:round;stroke-miterlimit:10;" d="M97.123,124.227
			c0,0-1.519-4.992-0.217-6.836"/>
		<g>
			<path style="fill:#92E3A9;stroke:#263238;stroke-linecap:round;stroke-linejoin:round;stroke-miterlimit:10;" d="M95.713,124.444
				c0,0-5.449-7.898-12.658-9.821c-7.208-1.922-7.689,2.643-6.247,4.085c1.442,1.442,3.364,6.007,4.565,9.371
				c1.201,3.364,2.883,4.325,4.085,4.325s6.247-0.721,6.247-0.721s-6.968,4.565-6.488,6.968c0.48,2.403,3.124,5.767,3.604,6.728
				c0.481,0.961,2.883-0.721,1.682,4.565c-1.201,5.286-0.961,6.488,0.24,6.488c1.201,0,0.961-1.922,1.682-5.286
				c0.721-3.364,0.961-4.806,1.922-5.767c0.961-0.961,4.806-4.085,4.806-4.085S97.395,128.529,95.713,124.444z"/>
			<g>
				<path style="fill:#263238;stroke:#263238;stroke-linecap:round;stroke-linejoin:round;stroke-miterlimit:10;" d="
					M95.714,144.156c-0.9-0.114-3.505-0.51-5.536-1.482c-1.697-0.811-3.442-1.923-4.557-2.757c0.901,2.192,2.8,4.661,3.201,5.462
					c0.481,0.961,2.883-0.721,1.682,4.565c-1.201,5.286-0.961,6.488,0.24,6.488c1.201,0,0.961-1.922,1.682-5.286
					c0.721-3.364,0.961-4.806,1.922-5.767C94.621,145.106,95.13,144.657,95.714,144.156z"/>
				<path style="fill:#263238;stroke:#263238;stroke-linecap:round;stroke-linejoin:round;stroke-miterlimit:10;" d="
					M79.446,123.256l-0.011-0.114c0,0-2.079-7.708,4.581-8.22c-0.317-0.109-0.637-0.212-0.961-0.299
					c-7.209-1.922-7.689,2.643-6.247,4.085C77.608,119.508,78.555,121.271,79.446,123.256z"/>
			</g>
			
				<ellipse style="fill:#263238;stroke:#263238;stroke-linecap:round;stroke-linejoin:round;stroke-miterlimit:10;" cx="83.396" cy="122.599" rx="2.333" ry="2.279"/>
			<path style="fill:#263238;stroke:#263238;stroke-linecap:round;stroke-linejoin:round;stroke-miterlimit:10;" d="M95.604,138.822
				c0,1.468-1.53,2.659-3.418,2.659s-3.418-1.19-3.418-2.659c0-1.468,1.53-2.659,3.418-2.659S95.604,137.354,95.604,138.822z"/>
			<path style="fill:#92E3A9;stroke:#263238;stroke-linecap:round;stroke-linejoin:round;stroke-miterlimit:10;" d="M94.736,139.202
				c0,0.719-0.972,1.302-2.17,1.302s-2.17-0.583-2.17-1.302c0-0.719,0.972-1.302,2.17-1.302S94.736,138.482,94.736,139.202z"/>
		</g>
	</g>
</g>
<g id="Squares">
	<g>
		<g>
			
				<rect x="51.31" y="127.54" style="fill:none;stroke:#263238;stroke-linecap:round;stroke-linejoin:round;stroke-miterlimit:10;" width="18.26" height="18.26"/>
			
				<rect x="51.31" y="197.536" style="fill:none;stroke:#263238;stroke-linecap:round;stroke-linejoin:round;stroke-miterlimit:10;" width="18.26" height="18.26"/>
			
				<rect x="51.31" y="267.532" style="fill:none;stroke:#263238;stroke-linecap:round;stroke-linejoin:round;stroke-miterlimit:10;" width="18.26" height="18.26"/>
			
				<rect x="51.31" y="337.528" style="fill:none;stroke:#263238;stroke-linecap:round;stroke-linejoin:round;stroke-miterlimit:10;" width="18.26" height="18.26"/>
		</g>
		<g>
			
				<rect x="420.936" y="127.54" style="fill:none;stroke:#263238;stroke-linecap:round;stroke-linejoin:round;stroke-miterlimit:10;" width="18.26" height="18.26"/>
			
				<rect x="420.936" y="197.536" style="fill:none;stroke:#263238;stroke-linecap:round;stroke-linejoin:round;stroke-miterlimit:10;" width="18.26" height="18.26"/>
			
				<rect x="420.936" y="267.532" style="fill:none;stroke:#263238;stroke-linecap:round;stroke-linejoin:round;stroke-miterlimit:10;" width="18.26" height="18.26"/>
			
				<rect x="420.936" y="337.528" style="fill:none;stroke:#263238;stroke-linecap:round;stroke-linejoin:round;stroke-miterlimit:10;" width="18.26" height="18.26"/>
		</g>
	</g>
</g>
<g id="Check_Marks">
	<g>
		
			<polyline style="fill:none;stroke:#92E3A9;stroke-width:3;stroke-linecap:round;stroke-linejoin:round;stroke-miterlimit:10;" points="
			56.062,135.062 60.747,139.746 72.849,122.179 		"/>
		
			<polyline style="fill:none;stroke:#92E3A9;stroke-width:3;stroke-linecap:round;stroke-linejoin:round;stroke-miterlimit:10;" points="
			56.062,274.836 60.747,279.521 72.849,261.953 		"/>
		
			<polyline style="fill:none;stroke:#92E3A9;stroke-width:3;stroke-linecap:round;stroke-linejoin:round;stroke-miterlimit:10;" points="
			429.826,203.857 434.51,208.541 446.613,190.974 		"/>
		
			<polyline style="fill:none;stroke:#92E3A9;stroke-width:3;stroke-linecap:round;stroke-linejoin:round;stroke-miterlimit:10;" points="
			429.826,132.258 434.51,136.943 446.613,119.376 		"/>
		
			<polyline style="fill:none;stroke:#92E3A9;stroke-width:3;stroke-linecap:round;stroke-linejoin:round;stroke-miterlimit:10;" points="
			429.826,346.573 434.51,351.258 446.613,333.69 		"/>
	</g>
</g>
<g id="Character">
	<g>
		<path style="fill:#263238;stroke:#263238;stroke-linecap:round;stroke-linejoin:round;stroke-miterlimit:10;" d="M300.014,460.693
			c-3.995-6.088-12.366-15.409-12.366-15.409s0.951-48.511,2.663-59.355c1.712-10.844-3.234-34.434-3.044-35.955
			c0.19-1.522,1.712-65.633,1.712-65.633l-36.336,1.522l-36.336-1.522c0,0,1.522,64.111,1.712,65.633
			c0.19,1.522-4.756,25.112-3.044,35.955c1.712,10.844,2.663,59.355,2.663,59.355s-8.371,9.322-12.366,15.409
			c-3.995,6.088-2.663,11.795-0.761,12.556c1.902,0.761,5.707,1.332,14.078-5.517c8.371-6.849,10.273-15.409,10.273-15.409
			s1.902-1.332,2.854-6.278c0.951-4.946,0.761-7.229,1.141-9.322c0.381-2.093,2.663-8.371,3.424-11.605
			c0.761-3.234-0.761-8.37,0.19-16.361c0.951-7.99,5.517-42.043,5.707-45.087c0.19-3.044,7.99-50.794,7.99-50.794l2.473,0.19
			l2.473-0.19c0,0,7.8,47.75,7.99,50.794c0.19,3.044,4.756,37.097,5.707,45.087c0.951,7.99-0.571,13.127,0.19,16.361
			c0.761,3.234,3.044,9.512,3.424,11.605s0.19,4.376,1.141,9.322c0.951,4.946,2.854,6.278,2.854,6.278s1.902,8.561,10.273,15.409
			c8.37,6.849,12.175,6.278,14.078,5.517C302.678,472.488,304.009,466.78,300.014,460.693z"/>
		<g>
			<path style="fill:#FFFFFF;stroke:#263238;stroke-linecap:round;stroke-linejoin:round;stroke-miterlimit:10;" d="
				M240.469,185.986l-4.566,2.854l-3.417,106.237c0,0,5.411,4.06,21.391,4.44c15.98,0.38,22.555-4.06,22.555-4.06l-9.9-108.52
				L240.469,185.986z"/>
			<path style="fill:none;stroke:#263238;stroke-linecap:round;stroke-linejoin:round;stroke-miterlimit:10;" d="M274.849,280.686
				c0,0-6.525,6.822-16.906,10.381"/>
			<path style="fill:none;stroke:#263238;stroke-linecap:round;stroke-linejoin:round;stroke-miterlimit:10;" d="M248.552,289.69
				c-1.307,0.327-2.629,0.594-3.956,0.783"/>
			<path style="fill:none;stroke:#263238;stroke-linecap:round;stroke-linejoin:round;stroke-miterlimit:10;" d="M273.069,277.127
				c0,0-8.813,7.125-19.729,11.089"/>
		</g>
		<g>
			<path style="fill:#92E3A9;stroke:#263238;stroke-linecap:round;stroke-linejoin:round;stroke-miterlimit:10;" d="
				M238.265,187.412l-1.407,126.101c0,0-7.229-1.712-16.361-7.229c-9.132-5.517-11.414-7.61-11.414-7.61l7.226-40.777l-0.571-38.619
				l-35.497,11.514c0,0,13.809-24.831,18.565-29.587C203.563,196.449,236.06,183.892,238.265,187.412z"/>
			<path style="fill:#92E3A9;stroke:#263238;stroke-linecap:round;stroke-linejoin:round;stroke-miterlimit:10;" d="
				M232.068,187.366l-0.54,1.283c0,0-2.854,26.634-1.141,35.955c1.168,6.359,4.869,14.002,7.238,18.977l0.64-56.17
				C237.727,186.552,235.374,186.656,232.068,187.366z"/>
			<path style="fill:none;stroke:#263238;stroke-linecap:round;stroke-linejoin:round;stroke-miterlimit:10;" d="M206.966,206.51
				c0,0,2.845,1.522,4.376,4.918"/>
			<path style="fill:none;stroke:#263238;stroke-linecap:round;stroke-linejoin:round;stroke-miterlimit:10;" d="M199.966,207.603
				c0,0,4.157,0.219,8.313,3.063"/>
		</g>
		<path style="fill:#263238;stroke:#263238;stroke-linecap:round;stroke-linejoin:round;stroke-miterlimit:10;" d="M215.738,192.454
			c0,0-1.141,45.087-0.571,47.56s1.141,9.512,1.141,9.512l6.088-59.545C222.396,189.981,216.879,192.074,215.738,192.454z"/>
		<path style="fill:#A3A3A3;stroke:#263238;stroke-linecap:round;stroke-linejoin:round;stroke-miterlimit:10;" d="M238.265,187.412
			c0,0,4.04,14.331,7.531,18.359c4.946,5.707,10.654,3.805,14.078-3.805c1.625-3.61,3.044-16.17,3.044-16.17L238.265,187.412z"/>
		<g>
			<path style="fill:#92E3A9;stroke:#263238;stroke-linecap:round;stroke-linejoin:round;stroke-miterlimit:10;" d="
				M262.918,185.796c0,0,3.044,51.936,6.658,73.433c3.615,21.497,1.894,52.017,1.894,52.017s13.896-21.388,16.559-25.764
				c2.663-4.375,6.088-10.083,6.088-10.083s0-1.141-0.951-4.376c-0.951-3.234-4.375-4.946-4.566-5.897
				c-0.19-0.951-2.854-45.467-2.854-45.467l39.95,28.917c0,0,1.332-0.571,5.707-2.663c4.375-2.093,5.897-8.751,5.327-10.273
				c-0.571-1.522-30.438-31.58-43.184-39.189c-12.746-7.61-30.819-12.366-30.819-12.366L262.918,185.796z"/>
			<g>
				<path style="fill:none;stroke:#263238;stroke-linecap:round;stroke-linejoin:round;stroke-miterlimit:10;" d="M287.905,266.991
					c0,0-4.813,7.001-11.376,8.97"/>
				<path style="fill:none;stroke:#263238;stroke-linecap:round;stroke-linejoin:round;stroke-miterlimit:10;" d="M285.936,267.209
					c0,0-0.656,1.094-6.345,1.75"/>
				
					<line style="fill:none;stroke:#263238;stroke-linecap:round;stroke-linejoin:round;stroke-miterlimit:10;" x1="288.562" y1="219.735" x2="292.937" y2="207.264"/>
				<path style="fill:none;stroke:#263238;stroke-linecap:round;stroke-linejoin:round;stroke-miterlimit:10;" d="M290.093,221.047
					c0,0,3.5-5.688,10.064-8.532"/>
				<path style="fill:none;stroke:#263238;stroke-linecap:round;stroke-linejoin:round;stroke-miterlimit:10;" d="M306.72,210.546
					c0,0-3.5,0.438-4.376,1.094"/>
			</g>
			<path style="fill:#92E3A9;stroke:#263238;stroke-linecap:round;stroke-linejoin:round;stroke-miterlimit:10;" d="
				M267.328,241.766c1.395-2.602,4.904-9.553,7.004-17.352c2.663-9.893-2.093-25.492-4.185-32.721
				c-0.731-2.524-1.273-4.457-1.706-5.919c-3.464-1.098-5.714-1.691-5.714-1.691l0.19,1.712
				C262.918,185.796,264.783,217.629,267.328,241.766z"/>
		</g>
		<path style="fill:#263238;stroke:#263238;stroke-linecap:round;stroke-linejoin:round;stroke-miterlimit:10;" d="M278.707,189.03
			l9.132,60.687c0,0,1.522-9.132,1.902-11.795c0.38-2.663-4.375-45.658-4.375-45.658L278.707,189.03z"/>
		<g>
			<path style="fill:#A3A3A3;stroke:#263238;stroke-linecap:round;stroke-linejoin:round;stroke-miterlimit:10;" d="
				M267.574,167.458c0,0,4.248-1.699,4.46,2.336c0.212,4.035-5.097,9.77-5.097,9.77L267.574,167.458z"/>
			<g>
				<path style="fill:#A3A3A3;stroke:#263238;stroke-linecap:round;stroke-linejoin:round;stroke-miterlimit:10;" d="
					M241.026,139.635c0,0-9.557,4.46-11.044,11.469c-1.487,7.009,2.336,19.115,2.336,19.115s-3.823-2.336-4.885,1.487
					c-1.062,3.823,1.699,7.858,3.398,8.495c1.699,0.637,3.611,0.212,3.611,0.212l3.823,8.708c0,0,12.318,8.496,16.566,7.646
					c4.248-0.85,9.345-6.796,11.256-9.345c1.912-2.549,2.336-28.247,2.549-31.646c0.212-3.398-1.274-10.832-6.159-14.23
					C257.592,138.149,245.911,136.025,241.026,139.635z"/>
				<path style="fill:none;stroke:#263238;stroke-linecap:round;stroke-linejoin:round;stroke-miterlimit:10;" d="M259.303,168.101
					c0,0,2.854-3.234,6.088-0.19"/>
				<path style="fill:#263238;stroke:#263238;stroke-linecap:round;stroke-linejoin:round;stroke-miterlimit:10;" d="
					M262.477,141.547c-4.885-3.398-16.566-5.522-21.451-1.911c0,0-9.557,4.46-11.044,11.469c-1.487,7.009,2.336,19.115,2.336,19.115
					s-0.016-0.01-0.031-0.018c0.713,0.82,1.509,1.438,1.73,0.443c0.425-1.911-0.212-4.885-0.425-8.283
					c-0.212-3.398,1.274-2.973,1.487-7.434c0.212-4.46-0.425-7.433,3.398-10.407c3.823-2.973,8.92,1.487,14.018,2.124
					c5.097,0.637,8.92-3.823,11.257-2.124c2.336,1.699,3.823,5.31,3.611,9.345c-0.212,4.035-0.425,4.035,0.425,7.434
					c0.219,0.874,0.408,1.605,0.571,2.212c0.134-3.748,0.216-6.726,0.279-7.734C268.848,152.378,267.362,144.945,262.477,141.547z"
					/>
				<path style="fill:#263238;" d="M245.688,168.358c0.179,1.396-0.241,2.601-0.939,2.69c-0.698,0.089-1.409-0.97-1.588-2.366
					c-0.179-1.396,0.241-2.601,0.939-2.69C244.798,165.902,245.509,166.962,245.688,168.358z"/>
				<path style="fill:none;stroke:#263238;stroke-linecap:round;stroke-linejoin:round;stroke-miterlimit:10;" d="M251.433,177.865
					c0.849,1.699,5.522,0.425,7.009-1.062c1.487-1.487-2.124-6.159-2.336-8.708c-0.212-2.549,2.973-5.31,2.973-5.31"/>
				<path style="fill:none;stroke:#263238;stroke-linecap:round;stroke-linejoin:round;stroke-miterlimit:10;" d="M258.017,182.325
					c0,0-5.522,1.699-9.982-1.274"/>
				<path style="fill:none;stroke:#263238;stroke-linecap:round;stroke-linejoin:round;stroke-miterlimit:10;" d="M240.389,164.06
					c0,0,3.398-2.973,8.708-0.85"/>
				<path style="fill:none;stroke:#263238;stroke-linecap:round;stroke-linejoin:round;stroke-miterlimit:10;" d="M266.512,164.272
					c0,0-1.699-2.549-5.31-2.124"/>
			</g>
		</g>
		<g>
			<g>
				<path style="fill:#263238;" d="M226.774,219.947c-0.088,0-0.177-0.005-0.267-0.018c-1.095-0.146-1.864-1.152-1.718-2.247
					l4.185-31.39c0.146-1.095,1.153-1.863,2.247-1.718c1.095,0.146,1.864,1.152,1.718,2.247l-4.185,31.39
					C228.621,219.216,227.762,219.947,226.774,219.947z"/>
			</g>
			<g>
				
					<ellipse transform="matrix(0.3528 -0.9357 0.9357 0.3528 -6.2918 326.7811)" style="fill:#263238;stroke:#263238;stroke-linecap:round;stroke-linejoin:round;stroke-miterlimit:10;" cx="233.079" cy="167.939" rx="18.805" ry="18.805"/>
				
					<ellipse transform="matrix(0.9729 -0.2313 0.2313 0.9729 -32.5284 58.4766)" style="fill:#D4D4D4;stroke:#263238;stroke-linecap:round;stroke-linejoin:round;stroke-miterlimit:10;" cx="233.079" cy="167.939" rx="16.047" ry="16.047"/>
				<g>
					<path style="fill:#263238;" d="M235.904,168.356c0,2.913-1.426,5.275-3.185,5.275s-3.185-2.362-3.185-5.275
						c0-2.913,1.426-5.275,3.185-5.275S235.904,165.443,235.904,168.356z"/>
					<path style="fill:#263238;" d="M242.766,155.958c0,0-4.04-3.741-9.051-3.762c-5.012-0.021-9.962,3.958-10.57,5.631
						c-0.608,1.673,0.243,0.373,3.095-0.959c2.852-1.332,7.4-1.858,8.852-1.425c1.453,0.433,4.61,3.474,6.519,2.652
						C243.52,157.273,242.766,155.958,242.766,155.958z"/>
					<path style="fill:none;stroke:#263238;stroke-linecap:round;stroke-linejoin:round;stroke-miterlimit:10;" d="M236.899,173.432
						c0,0-2.588,2.19-6.37,3.384"/>
				</g>
			</g>
		</g>
		<g>
			<path style="fill:#A3A3A3;stroke:#263238;stroke-linecap:round;stroke-linejoin:round;stroke-miterlimit:10;" d="
				M219.543,208.244c0,0,2.473-12.175,3.424-13.127c0.951-0.951,5.897-3.044,7.039-3.044c1.141,0,5.707,3.044,6.088,3.805
				c0.381,0.761-0.951,3.424-0.951,3.424s-0.571,9.702-0.951,10.273c-0.381,0.571-2.283,1.902-2.283,1.902s-1.522,0.761-3.234,2.283
				c-1.712,1.522-5.137,3.234-7.039,3.995c-1.902,0.761-6.278,5.898-6.278,5.898l-3.805-11.034L219.543,208.244z"/>
			
				<line style="fill:none;stroke:#263238;stroke-linecap:round;stroke-linejoin:round;stroke-miterlimit:10;" x1="230.957" y1="196.83" x2="235.143" y2="199.303"/>
		</g>
		<path style="fill:#92E3A9;stroke:#263238;stroke-linecap:round;stroke-linejoin:round;stroke-miterlimit:10;" d="M183.166,229.602
			l28.387-16.982l4.802,14.439c0,0-20.823,18.142-25.579,22.708c-4.756,4.566-10.844,6.088-14.078,5.517
			c-3.234-0.571-4.566-3.615-3.995-8.37c0.571-4.756,7.402-16.637,8.353-17.588"/>
		<path style="fill:#92E3A9;stroke:#263238;stroke-linecap:round;stroke-linejoin:round;stroke-miterlimit:10;" d="M318.468,233.166
			l-25.302,37.858l10.425,9.231c0,0,31.047-33.392,32.949-35.675c1.902-2.283,3.044-6.278,2.283-8.371
			c-0.761-2.093-11.034-8.371-11.034-8.371"/>
		<path style="fill:#A3A3A3;stroke:#263238;stroke-linecap:round;stroke-linejoin:round;stroke-miterlimit:10;" d="M293.166,271.023
			c0,0-10.083,6.468-11.795,7.419c-1.712,0.951-0.571,6.278-0.19,7.229c0.38,0.951,2.663,4.376,3.424,5.327
			c0.761,0.951,2.663,2.663,3.234,2.663s3.995-0.571,4.756-1.332c0.761-0.761,1.712-2.663,1.522-3.234
			c-0.19-0.571-2.093,0.19-2.093,0.19s6.278-5.707,7.61-8.561c1.332-2.854,1.332-2.854,1.332-2.854L293.166,271.023z"/>
	</g>
</g>
</svg>
