<svg width="80" height="80" viewBox="0 0 80 80" fill="none" xmlns="http://www.w3.org/2000/svg">
<path d="M73.7502 12.5H30.5002C30.2647 12.5 30.034 12.5665 29.8346 12.6918C29.6352 12.8172 29.4753 12.9964 29.3733 13.2086C29.2713 13.4209 29.2314 13.6577 29.2581 13.8917C29.2848 14.1257 29.377 14.3474 29.5242 14.5312L35.0242 21.4062C35.6078 22.1391 36.3495 22.7305 37.1939 23.1364C38.0382 23.5422 38.9634 23.752 39.9002 23.75H78.7502C79.0817 23.75 79.3997 23.6183 79.6341 23.3839C79.8685 23.1495 80.0002 22.8315 80.0002 22.5V18.75C79.9983 17.093 79.3392 15.5044 78.1675 14.3327C76.9958 13.1611 75.4072 12.502 73.7502 12.5Z" fill="#415EB6"/>
<path d="M80 21.25H39.9C39.3386 21.25 38.7844 21.1237 38.2784 20.8806C37.7724 20.6374 37.3276 20.2835 36.9769 19.8451L30.725 12.03C29.9076 11.0049 28.8693 10.1776 27.6875 9.60963C26.5058 9.0417 25.2111 8.74786 23.9 8.75001H6.25C4.5924 8.75001 3.00269 9.40849 1.83058 10.5806C0.65848 11.7527 0 13.3424 0 15L0 65C0 66.6576 0.65848 68.2473 1.83058 69.4194C3.00269 70.5915 4.5924 71.25 6.25 71.25H73.75C75.4076 71.25 76.9973 70.5915 78.1694 69.4194C79.3415 68.2473 80 66.6576 80 65V21.25Z" fill="#567DF4"/>
</svg>
