<svg xmlns="http://www.w3.org/2000/svg" width="80" height="80" viewBox="0 0 80 80" fill="none">
  <path d="M73.75 12.5H30.5C30.2645 12.5 30.0337 12.5665 29.8343 12.6918C29.635 12.8172 29.4751 12.9964 29.3731 13.2086C29.2711 13.4209 29.2311 13.6577 29.2578 13.8917C29.2845 14.1257 29.3768 14.3474 29.524 14.5312L35.024 21.4062C35.6076 22.1391 36.3493 22.7305 37.1936 23.1364C38.038 23.5422 38.9632 23.752 39.9 23.75H78.75C79.0815 23.75 79.3994 23.6183 79.6339 23.3839C79.8683 23.1495 80 22.8315 80 22.5V18.75C79.998 17.093 79.3389 15.5044 78.1672 14.3327C76.9956 13.1611 75.407 12.502 73.75 12.5Z" fill="#FFB110"/>
  <path d="M80 21.25H39.9C39.3386 21.25 38.7844 21.1237 38.2784 20.8805C37.7724 20.6374 37.3276 20.2835 36.9769 19.8451L30.725 12.03C29.9076 11.0049 28.8693 10.1775 27.6875 9.60961C26.5058 9.04169 25.2111 8.74785 23.9 8.75H6.25C4.5924 8.75 3.00269 9.40848 1.83058 10.5806C0.65848 11.7527 0 13.3424 0 15L0 65C0 66.6576 0.65848 68.2473 1.83058 69.4194C3.00269 70.5915 4.5924 71.25 6.25 71.25H73.75C75.4076 71.25 76.9973 70.5915 78.1694 69.4194C79.3415 68.2473 80 66.6576 80 65V21.25Z" fill="#FFDE6C"/>
</svg>