<svg width="12" height="12" viewBox="0 0 12 12" fill="none" xmlns="http://www.w3.org/2000/svg">
<path d="M0.750005 2.625C0.750005 2.00368 1.25369 1.5 1.87501 1.5H3.94795C4.66628 1.5 5.26855 1.91997 5.68157 2.38798C5.98894 2.73629 6.35904 3 6.75001 3H10.1255C10.7472 3 11.25 3.50402 11.25 4.125V4.6045C11.6772 4.8035 11.9545 5.26207 11.8917 5.76454L11.4114 9.60756C11.2941 10.5459 10.4964 11.25 9.55083 11.25H2.44918C1.50357 11.25 0.705946 10.5459 0.588658 9.60756L0.108279 5.76454C0.0454713 5.26207 0.322846 4.8035 0.750005 4.6045V2.625ZM1.50001 4.5H10.5V4.125C10.5 3.91755 10.3323 3.75 10.1255 3.75H6.75001C6.02708 3.75 5.46711 3.27845 5.11922 2.88424C4.78036 2.50025 4.36594 2.25 3.94795 2.25H1.87501C1.6679 2.25 1.50001 2.41789 1.50001 2.625V4.5ZM1.22459 5.25C0.99903 5.25 0.82451 5.44769 0.852488 5.67151L1.33287 9.51454C1.40324 10.0775 1.88182 10.5 2.44918 10.5H9.55083C10.1182 10.5 10.5968 10.0775 10.6671 9.51454L11.1475 5.67151C11.1755 5.44769 11.001 5.25 10.7754 5.25H1.22459Z" fill="#6A7185"/>
</svg>
