<svg width="12" height="12" viewBox="0 0 12 12" fill="none" xmlns="http://www.w3.org/2000/svg">
<path d="M7.97465 3.9662H4.36322L7.04367 1.28574C7.33793 0.991486 7.33793 0.51495 7.04367 0.220693C6.74942 -0.0735643 6.27288 -0.0735643 5.97862 0.220693L2.36719 3.83162C1.8776 4.32121 1.8776 5.11762 2.36719 5.6067L5.97812 9.21763C6.12525 9.36476 6.31807 9.43807 6.5109 9.43807C6.70372 9.43807 6.89655 9.36476 7.04367 9.21763C7.33793 8.92338 7.33793 8.44684 7.04367 8.15258L4.36322 5.47213H7.97465C8.66661 5.47213 9.23001 6.03503 9.23001 6.72749V11.2468C9.23001 11.6626 9.56695 12 9.98323 12C10.3995 12 10.7365 11.6626 10.7365 11.2468V6.728C10.7365 5.20549 9.49766 3.9662 7.97465 3.9662Z" fill="#4A86F7"/>
</svg>
