<svg width="20" height="20" viewBox="0 0 20 20" fill="none" xmlns="http://www.w3.org/2000/svg">
<g clip-path="url(#clip0_2521_22220)">
<path d="M18.9616 7.27979L8.79732 17.3313C7.11317 18.9969 4.38236 18.9969 2.69821 17.3313C1.01406 15.6657 1.01406 12.9656 2.69821 11.3L11.8465 2.25371C12.9695 1.14352 14.7894 1.14352 15.9124 2.25371C17.0354 3.36386 17.0354 5.16444 15.9124 6.27459L6.76404 15.3209C6.2029 15.8763 5.29263 15.8763 4.73077 15.3209C4.16962 14.7661 4.16962 13.8659 4.73077 13.3104L12.8625 5.26935L11.8458 4.26415L3.71486 12.3059C2.59186 13.4161 2.59186 15.2166 3.71486 16.3268C4.83787 17.437 6.65769 17.437 7.7807 16.3268L16.929 7.28051C18.6132 5.61492 18.6132 2.91481 16.929 1.24919C15.2449 -0.416397 12.5141 -0.416397 10.8299 1.24919L1.17326 10.7981L1.20826 10.833C-0.545883 13.0633 -0.391674 16.2875 1.68159 18.3372C3.75485 20.3869 7.01393 20.5404 9.26993 18.8048L9.30493 18.8398L19.9775 8.28572L18.9616 7.27979Z" fill="black"/>
</g>
<defs>
<clipPath id="clip0_2521_22220">
<rect width="19.9775" height="20" fill="white"/>
</clipPath>
</defs>
</svg>
