<svg width="68" height="50" viewBox="0 0 68 50" fill="none" xmlns="http://www.w3.org/2000/svg">
<path d="M1.92184 43.9862V47.2727H0V37.944H3.63708C4.33645 37.944 4.95431 38.0729 5.485 38.3287C6.01568 38.5846 6.42507 38.9504 6.71126 39.4204C6.99745 39.8924 7.1396 40.4306 7.1396 41.0314C7.1396 41.945 6.82688 42.6671 6.20143 43.194C5.57598 43.7209 4.71172 43.9862 3.60486 43.9862H1.92184ZM1.92184 42.4283H3.63708C4.14502 42.4283 4.53356 42.3089 4.8008 42.0701C5.06804 41.8312 5.2007 41.4882 5.2007 41.0447C5.2007 40.5879 5.06614 40.2183 4.79701 39.9359C4.52787 39.6535 4.15639 39.5095 3.68067 39.5019H1.92184V42.4283ZM11.5291 47.4015C10.5113 47.4015 9.68499 47.0888 9.04627 46.4653C8.40756 45.8417 8.08914 45.0116 8.08914 43.9729V43.7929C8.08914 43.0973 8.22181 42.4756 8.49095 41.926C8.76008 41.3764 9.14293 40.9537 9.63571 40.658C10.1285 40.3605 10.6914 40.2127 11.3225 40.2127C12.2721 40.2127 13.0169 40.5121 13.5628 41.1091C14.1067 41.708 14.3796 42.5534 14.3796 43.6507V44.407H9.96549C10.0261 44.8599 10.2062 45.2238 10.5075 45.4968C10.8089 45.7697 11.1899 45.908 11.6504 45.908C12.363 45.908 12.9222 45.6503 13.3221 45.131L14.2318 46.1506C13.9532 46.543 13.5798 46.85 13.1041 47.0699C12.6303 47.2916 12.1053 47.4015 11.5291 47.4015ZM11.3168 41.7118C10.9492 41.7118 10.6516 41.8369 10.4242 42.0833C10.1948 42.3297 10.0489 42.6841 9.98445 43.1466H12.5602V42.9988C12.5526 42.5894 12.4408 42.271 12.2266 42.0492C12.0143 41.8237 11.7092 41.7118 11.3168 41.7118ZM18.6194 47.4015C17.6036 47.4015 16.7753 47.0888 16.1366 46.4653C15.4998 45.8417 15.1795 45.0116 15.1795 43.9729V43.7929C15.1795 43.0973 15.314 42.4756 15.5832 41.926C15.8504 41.3764 16.2333 40.9537 16.726 40.658C17.2207 40.3605 17.7817 40.2127 18.4129 40.2127C19.3624 40.2127 20.1091 40.5121 20.6531 41.1091C21.197 41.708 21.47 42.5534 21.47 43.6507V44.407H17.0558C17.1165 44.8599 17.2965 45.2238 17.5979 45.4968C17.8992 45.7697 18.2802 45.908 18.7407 45.908C19.4553 45.908 20.0125 45.6503 20.4124 45.131L21.3221 46.1506C21.0435 46.543 20.6702 46.85 20.1963 47.0699C19.7206 47.2916 19.1956 47.4015 18.6194 47.4015ZM18.4072 41.7118C18.0395 41.7118 17.7419 41.8369 17.5145 42.0833C17.2851 42.3297 17.1392 42.6841 17.0748 43.1466H19.6505V42.9988C19.6429 42.5894 19.5311 42.271 19.3169 42.0492C19.1046 41.8237 18.8014 41.7118 18.4072 41.7118ZM28.7593 43.8706C28.7593 44.9395 28.5167 45.7943 28.0315 46.4368C27.5482 47.0793 26.8924 47.4015 26.068 47.4015C25.3686 47.4015 24.8019 47.1589 24.3717 46.67V49.9375H22.52V40.3415H24.2371L24.3015 41.0201C24.7507 40.4799 25.3345 40.2127 26.0547 40.2127C26.9095 40.2127 27.5747 40.5292 28.0486 41.1603C28.5224 41.7933 28.7593 42.6633 28.7593 43.7739V43.8706ZM26.9076 43.7341C26.9076 43.0897 26.7939 42.5932 26.5645 42.2406C26.3371 41.8919 26.0054 41.7156 25.5695 41.7156C24.9876 41.7156 24.5896 41.9393 24.3717 42.3828V45.2219C24.5972 45.6787 25.0009 45.908 25.5828 45.908C26.466 45.908 26.9076 45.184 26.9076 43.7341ZM34.0567 46.5676C33.598 47.1229 32.9669 47.4015 32.1595 47.4015C31.4165 47.4015 30.8498 47.1874 30.4594 46.7609C30.069 46.3345 29.8681 45.7071 29.8605 44.8827V40.3415H31.7122V44.8182C31.7122 45.5404 32.042 45.9005 32.6977 45.9005C33.3251 45.9005 33.7591 45.6825 33.9922 45.2466V40.3415H35.8515V47.2727H34.1078L34.0567 46.5676ZM39.2005 47.2727H37.3412V37.4323H39.2005V47.2727ZM49.3783 45.3508H46.0084L45.3678 47.2727H43.3266L46.7969 37.944H48.5785L52.0696 47.2727H50.0265L49.3783 45.3508ZM46.5278 43.7929H48.8609L47.6877 40.3017L46.5278 43.7929ZM52.5491 43.7569C52.5491 42.6917 52.8031 41.835 53.3072 41.1849C53.8152 40.5349 54.4975 40.2127 55.3542 40.2127C56.1142 40.2127 56.7074 40.4723 57.1301 40.9954L57.2059 40.3415H58.8851V47.0395C58.8851 47.6479 58.7468 48.1748 58.4719 48.624C58.1971 49.0713 57.8086 49.4125 57.3082 49.6494C56.8079 49.8825 56.2241 50 55.5532 50C55.0452 50 54.5487 49.8995 54.0691 49.6967C53.5858 49.494 53.2201 49.2324 52.9737 48.9121L53.7924 47.7863C54.2549 48.3018 54.8121 48.5596 55.4698 48.5596C55.9626 48.5596 56.3435 48.4288 56.6183 48.1653C56.8913 47.9038 57.0258 47.5304 57.0258 47.049V46.6775C56.5994 47.1608 56.0384 47.4015 55.3428 47.4015C54.5108 47.4015 53.836 47.0755 53.3205 46.4236C52.8069 45.7716 52.5491 44.9092 52.5491 43.8327V43.7569ZM54.4008 43.8895C54.4008 44.5169 54.5278 45.0097 54.778 45.366C55.0301 45.7223 55.375 45.9005 55.8147 45.9005C56.3795 45.9005 56.7832 45.6882 57.0258 45.2674V42.3506C56.7794 41.9279 56.3795 41.7156 55.828 41.7156C55.3845 41.7156 55.0339 41.8976 54.7818 42.2615C54.5278 42.6235 54.4008 43.1655 54.4008 43.8895ZM64.2014 42.0738C63.9494 42.0416 63.7257 42.0246 63.5362 42.0246C62.833 42.0246 62.3744 42.2615 62.1583 42.7353V47.2727H60.3066V40.3415H62.056L62.1052 41.1679C62.4767 40.5311 62.9903 40.2127 63.6499 40.2127C63.8546 40.2127 64.0479 40.2411 64.2261 40.2942L64.2014 42.0738ZM67.0444 47.2727H65.187V40.3415H67.0444V47.2727ZM65.0771 38.5486C65.0771 38.27 65.1718 38.0406 65.3576 37.8606C65.5433 37.6824 65.7973 37.5933 66.1157 37.5933C66.4322 37.5933 66.6843 37.6824 66.8719 37.8606C67.0595 38.0406 67.1543 38.27 67.1543 38.5486C67.1543 38.8272 67.0576 39.0603 66.8681 39.2385C66.6786 39.4185 66.4284 39.5076 66.1157 39.5076C65.803 39.5076 65.5547 39.4185 65.3633 39.2385C65.1737 39.0603 65.0771 38.8272 65.0771 38.5486Z" fill="#05A155"/>
<path fill-rule="evenodd" clip-rule="evenodd" d="M23.6535 14.4366C22.7039 14.9843 21.4966 15.0241 20.4769 14.4366C19.4592 13.849 18.8906 12.782 18.8887 11.6865C19.8401 11.1387 21.0474 11.0989 22.0652 11.6865C23.083 12.274 23.6535 13.3411 23.6535 14.4366Z" fill="#05A155"/>
<path fill-rule="evenodd" clip-rule="evenodd" d="M21.586 20.1926C21.0383 21.1421 20.011 21.7808 18.836 21.7808C17.6609 21.7808 16.6336 21.1421 16.084 20.1926C16.6336 19.2449 17.6609 18.6062 18.836 18.6062C20.011 18.6062 21.0383 19.2449 21.586 20.1926Z" fill="#05A155"/>
<path fill-rule="evenodd" clip-rule="evenodd" d="M33.5774 8.54216C34.6426 7.92429 35.3609 6.77195 35.3609 5.45092C35.3609 4.13179 34.6426 2.97944 33.5774 2.36157C32.5104 2.97944 31.7939 4.13179 31.7939 5.45092C31.7939 6.77195 32.5104 7.92429 33.5774 8.54216Z" fill="#05A155"/>
<path fill-rule="evenodd" clip-rule="evenodd" d="M43.9619 14.1977C44.9115 14.7454 46.1188 14.7852 47.1384 14.1977C48.1562 13.6101 48.7248 12.5431 48.7267 11.4476C47.7753 10.8998 46.568 10.86 45.5502 11.4476C44.5324 12.0351 43.9619 13.1022 43.9619 14.1977Z" fill="#05A155"/>
<path fill-rule="evenodd" clip-rule="evenodd" d="M45.5674 20.1926C46.117 21.1421 47.1424 21.7808 48.3194 21.7808C49.4944 21.7808 50.5198 21.1421 51.0694 20.1926C50.5198 19.2449 49.4944 18.6062 48.3194 18.6062C47.1424 18.6062 46.117 19.2449 45.5674 20.1926Z" fill="#05A155"/>
<path fill-rule="evenodd" clip-rule="evenodd" d="M29.5898 5.31443C30.365 4.53925 30.7156 3.38122 30.4124 2.24594C30.1072 1.11065 29.2259 0.284295 28.1664 0C27.3913 0.777074 27.0406 1.93321 27.3439 3.0685C27.649 4.20378 28.5322 5.03014 29.5898 5.31443Z" fill="#05A155"/>
<path fill-rule="evenodd" clip-rule="evenodd" d="M22.6849 9.30217C22.9673 8.2408 22.6944 7.06382 21.8624 6.23368C21.0322 5.40164 19.8534 5.12871 18.7939 5.41111C18.5115 6.47059 18.7863 7.64757 19.6165 8.47961C20.4485 9.30975 21.6255 9.58457 22.6849 9.30217Z" fill="#05A155"/>
<path fill-rule="evenodd" clip-rule="evenodd" d="M18.6992 16.2067C18.413 15.1472 17.5867 14.264 16.4514 13.9608C15.3161 13.6556 14.1599 14.0081 13.3848 14.7833C13.6691 15.8409 14.4954 16.7241 15.6307 17.0293C16.766 17.3325 17.9221 16.9819 18.6992 16.2067Z" fill="#05A155"/>
<path fill-rule="evenodd" clip-rule="evenodd" d="M18.6992 24.1802C17.9221 23.4051 16.766 23.0544 15.6307 23.3577C14.4954 23.6628 13.6691 24.5441 13.3848 25.6036C14.1599 26.3788 15.3161 26.7294 16.4514 26.4262C17.5867 26.121 18.413 25.2397 18.6992 24.1802Z" fill="#05A155"/>
<path fill-rule="evenodd" clip-rule="evenodd" d="M37.5628 5.31443C38.6223 5.03014 39.5055 4.20378 39.8088 3.0685C40.1139 1.93321 39.7614 0.777074 38.9881 0C37.9286 0.284295 37.0454 1.11065 36.7422 2.24594C36.437 3.38122 36.7895 4.53925 37.5628 5.31443Z" fill="#05A155"/>
<path fill-rule="evenodd" clip-rule="evenodd" d="M44.4698 9.30217C45.5293 9.58457 46.7063 9.30975 47.5364 8.47961C48.3684 7.64757 48.6414 6.47059 48.359 5.41111C47.2995 5.12871 46.1225 5.40164 45.2905 6.23368C44.4603 7.06382 44.1855 8.2408 44.4698 9.30217Z" fill="#05A155"/>
<path fill-rule="evenodd" clip-rule="evenodd" d="M48.4551 16.2067C49.2322 16.9819 50.3883 17.3325 51.5236 17.0274C52.6589 16.7241 53.4852 15.8409 53.7695 14.7833C52.9943 14.0081 51.8363 13.6556 50.701 13.9608C49.5657 14.264 48.7394 15.1472 48.4551 16.2067Z" fill="#05A155"/>
<path fill-rule="evenodd" clip-rule="evenodd" d="M48.4551 24.1802C48.7394 25.2397 49.5657 26.121 50.701 26.4262C51.8363 26.7294 52.9943 26.3788 53.7695 25.6036C53.4852 24.5441 52.6589 23.6628 51.5236 23.3577C50.3883 23.0544 49.2322 23.4051 48.4551 24.1802Z" fill="#05A155"/>
<path fill-rule="evenodd" clip-rule="evenodd" d="M28.598 11.8286C27.2599 11.8286 25.9597 11.1331 25.2433 9.89164C24.525 8.65022 24.5743 7.17567 25.2414 6.01575C26.5795 6.01764 27.8816 6.71133 28.598 7.95464C29.3144 9.19607 29.267 10.6706 28.598 11.8286Z" fill="#05A155"/>
<path fill-rule="evenodd" clip-rule="evenodd" d="M38.5539 11.8286C39.892 11.8286 41.1941 11.1331 41.9105 9.89164C42.6269 8.65022 42.5795 7.17567 41.9105 6.01575C40.5724 6.01764 39.2722 6.71133 38.5558 7.95464C37.8375 9.19607 37.8868 10.6706 38.5539 11.8286Z" fill="#05A155"/>
<path fill-rule="evenodd" clip-rule="evenodd" d="M43.9619 26.1893C43.9619 27.2848 44.5324 28.3518 45.5502 28.9394C46.568 29.5269 47.7753 29.4871 48.7267 28.9394C48.7248 27.842 48.1562 26.7768 47.1384 26.1893C46.1188 25.6017 44.9115 25.6415 43.9619 26.1893Z" fill="#05A155"/>
<path fill-rule="evenodd" clip-rule="evenodd" d="M23.1925 26.1893C23.1906 27.2848 22.622 28.3518 21.6043 28.9394C20.5865 29.5269 19.3773 29.4871 18.4277 28.9394C18.4277 27.842 18.9982 26.7768 20.016 26.1893C21.0338 25.6017 22.243 25.6415 23.1925 26.1893Z" fill="#05A155"/>
<path d="M40.8177 25.0654H38.8826L36.9134 27.0327V32.8247H47.3925V34.1912H35.5469V26.4679L38.3159 23.6989H40.8177V25.0654Z" fill="#A05148"/>
<path d="M33.0996 23.7993L35.8478 21.0511V17.414L37.311 15.949L38.2719 16.9156L37.2143 17.9732V21.3335L37.0134 21.8168L34.0662 24.7659L33.0996 23.7993Z" fill="#A05148"/>
<path d="M42.4986 19.3302L39.811 22.0177H36.5303V20.6512H39.2462L41.532 18.3655L42.4986 19.3302Z" fill="#A05148"/>
<path d="M42.021 23.6761C41.9244 23.6761 41.8334 23.6932 41.7538 23.7273C41.6704 23.7614 41.5946 23.8126 41.5282 23.8789C41.4013 24.0059 41.3236 24.1802 41.3236 24.3717C41.3236 24.4702 41.3425 24.5612 41.3747 24.6408C41.4088 24.7223 41.4619 24.8 41.5282 24.8663C41.5946 24.9308 41.6704 24.9839 41.7538 25.018C41.8334 25.0502 41.9244 25.0691 42.021 25.0691C42.1196 25.0691 42.2087 25.0502 42.2902 25.018C42.3717 24.9839 42.4475 24.9308 42.5138 24.8663C42.5801 24.8 42.6332 24.7223 42.6673 24.6408C42.6995 24.5612 42.7185 24.4702 42.7185 24.3717C42.7185 24.2769 42.6995 24.1859 42.6673 24.1063V24.1044C42.6332 24.0229 42.5801 23.9452 42.5138 23.8789C42.4475 23.8126 42.3717 23.7614 42.2902 23.7273C42.2087 23.6932 42.1196 23.6761 42.021 23.6761ZM41.369 22.7929C41.5718 22.7076 41.7936 22.6621 42.021 22.6621C42.2504 22.6621 42.4702 22.7076 42.673 22.7929C42.8853 22.8801 43.0748 23.0071 43.2302 23.1625C43.3856 23.3179 43.5126 23.5055 43.5998 23.7178H43.6017C43.6851 23.9206 43.7325 24.1423 43.7325 24.3717C43.7325 24.601 43.6851 24.8209 43.6017 25.0256C43.5126 25.2378 43.3856 25.4274 43.2302 25.5828C43.0748 25.7382 42.8872 25.8652 42.673 25.9524C42.4702 26.0357 42.2504 26.0831 42.021 26.0831C41.7936 26.0831 41.5718 26.0357 41.369 25.9524C41.1568 25.8652 40.9672 25.7382 40.8118 25.5828C40.6564 25.4274 40.5294 25.2378 40.4403 25.0256C40.3569 24.8209 40.3096 24.601 40.3096 24.3717C40.3096 23.8997 40.501 23.4714 40.8118 23.1625C40.9672 23.0071 41.1568 22.8801 41.369 22.7929Z" fill="#A05148"/>
<path d="M42.8668 17.2984C42.7701 17.2984 42.6792 17.3174 42.5995 17.3515C42.5181 17.3837 42.4403 17.4368 42.374 17.5031C42.3077 17.5694 42.2565 17.6453 42.2224 17.7286C42.1883 17.8082 42.1712 17.8992 42.1712 17.9959C42.1712 18.0944 42.1883 18.1835 42.2224 18.265C42.2565 18.3465 42.3077 18.4223 42.374 18.4887C42.4403 18.555 42.5181 18.6081 42.5995 18.6422C42.6792 18.6744 42.7701 18.6934 42.8668 18.6934C42.9653 18.6934 43.0563 18.6744 43.1359 18.6422C43.2174 18.6081 43.2932 18.555 43.3596 18.4887C43.4259 18.4223 43.479 18.3465 43.5131 18.265C43.5453 18.1835 43.5643 18.0944 43.5643 17.9959C43.5643 17.8992 43.5453 17.8082 43.5131 17.7286C43.479 17.6453 43.4259 17.5694 43.3596 17.5031C43.2932 17.4368 43.2174 17.3837 43.1359 17.3515C43.0563 17.3174 42.9653 17.2984 42.8668 17.2984ZM42.2148 16.4152C42.4176 16.3318 42.6394 16.2844 42.8668 16.2844C43.0961 16.2844 43.316 16.3318 43.5207 16.4152C43.7329 16.5043 43.9225 16.6313 44.0779 16.7867C44.2333 16.9421 44.3603 17.1316 44.4475 17.3439C44.5328 17.5467 44.5782 17.7684 44.5782 17.9959C44.5782 18.2252 44.5328 18.4451 44.4475 18.6479C44.3603 18.862 44.2333 19.0497 44.0779 19.2051C43.9225 19.3605 43.7329 19.4875 43.5207 19.5766C43.316 19.66 43.0961 19.7073 42.8668 19.7073C42.6394 19.7073 42.4176 19.66 42.2148 19.5766C42.0025 19.4875 41.813 19.3605 41.6576 19.2051C41.5022 19.0497 41.3752 18.862 41.288 18.6479C41.2027 18.4451 41.1572 18.2252 41.1572 17.9959C41.1572 17.7684 41.2027 17.5467 41.288 17.3439C41.3752 17.1316 41.5022 16.9421 41.6576 16.7867C41.813 16.6313 42.0025 16.5043 42.2148 16.4152Z" fill="#A05148"/>
<path d="M38.6441 14.8837C38.5474 14.8837 38.4583 14.9027 38.3787 14.9349H38.3768C38.2934 14.969 38.2176 15.0221 38.1513 15.0884C38.085 15.1548 38.0319 15.2306 37.9978 15.3121C37.9656 15.3936 37.9466 15.4827 37.9466 15.5812C37.9466 15.6779 37.9656 15.7688 37.9978 15.8484C38.0319 15.9318 38.085 16.0077 38.1513 16.074C38.2764 16.201 38.4508 16.2787 38.6441 16.2787C38.7426 16.2787 38.8317 16.2597 38.9132 16.2275C38.9947 16.1934 39.0705 16.1403 39.1369 16.074C39.2032 16.0077 39.2563 15.9318 39.2904 15.8484C39.3226 15.7688 39.3415 15.6779 39.3415 15.5812C39.3415 15.4827 39.3226 15.3936 39.2904 15.3121C39.2563 15.2306 39.2032 15.1548 39.1369 15.0884C39.0705 15.0221 38.9947 14.969 38.9132 14.9349C38.8317 14.9027 38.7426 14.8837 38.6441 14.8837ZM37.9902 14.0024V14.0005C38.193 13.9171 38.4147 13.8698 38.6441 13.8698C38.8734 13.8698 39.0933 13.9171 39.2961 14.0005C39.5083 14.0896 39.6979 14.2166 39.8533 14.372C40.0087 14.5274 40.1357 14.717 40.2248 14.9292C40.3081 15.132 40.3555 15.3519 40.3555 15.5812C40.3555 15.8105 40.3081 16.0304 40.2248 16.2332C40.1357 16.4455 40.0087 16.635 39.8533 16.7904C39.6979 16.9458 39.5102 17.0728 39.2961 17.1619C39.0933 17.2453 38.8734 17.2927 38.6441 17.2927C38.1721 17.2927 37.7438 17.1012 37.4349 16.7904C37.2795 16.635 37.1525 16.4455 37.0634 16.2332C36.98 16.0304 36.9326 15.8105 36.9326 15.5812C36.9326 15.3519 36.98 15.132 37.0634 14.9292C37.1525 14.7151 37.2795 14.5274 37.4349 14.372C37.5903 14.2166 37.7779 14.0896 37.9902 14.0024Z" fill="#A05148"/>
<path d="M33.5659 11.7281C33.4674 11.7281 33.3764 11.7471 33.2968 11.7793C33.2153 11.8134 33.1395 11.8665 33.0732 11.9328L33.0713 11.9309C33.0068 11.9972 32.9557 12.073 32.9197 12.1564C32.8874 12.236 32.8685 12.327 32.8685 12.4256C32.8685 12.5222 32.8874 12.6132 32.9197 12.6928C32.9538 12.7762 33.0068 12.852 33.0732 12.9183C33.1395 12.9847 33.2153 13.0359 33.2968 13.07C33.3764 13.1041 33.4674 13.123 33.5659 13.123C33.6626 13.123 33.7536 13.1041 33.8332 13.07C33.9147 13.0378 33.9924 12.9847 34.0587 12.9183C34.1251 12.852 34.1762 12.7762 34.2104 12.6928C34.2445 12.6132 34.2634 12.5222 34.2634 12.4256C34.2634 12.327 34.2445 12.236 34.2104 12.1564C34.1762 12.073 34.1251 11.9972 34.0587 11.9309V11.9328C33.9924 11.8665 33.9147 11.8134 33.8332 11.7793C33.7536 11.7471 33.6626 11.7281 33.5659 11.7281ZM32.914 10.8449C33.1168 10.7615 33.3366 10.7141 33.5659 10.7141C33.7934 10.7141 34.0151 10.7615 34.2179 10.8449C34.4302 10.9321 34.6197 11.061 34.7752 11.2145V11.2164C34.9306 11.3737 35.0594 11.5632 35.1447 11.7736C35.23 11.9764 35.2755 12.1962 35.2755 12.4256C35.2755 12.653 35.23 12.8748 35.1447 13.0776C35.0576 13.2898 34.9306 13.4794 34.7752 13.6348C34.6197 13.7902 34.4302 13.9172 34.2179 14.0044C34.0151 14.0896 33.7934 14.1351 33.5659 14.1351C33.3366 14.1351 33.1168 14.0896 32.914 14.0044C32.6998 13.9172 32.5122 13.7902 32.3567 13.6348C32.1994 13.4794 32.0743 13.2898 31.9853 13.0776C31.9019 12.8748 31.8545 12.653 31.8545 12.4256C31.8545 12.1962 31.9019 11.9764 31.9853 11.7736C32.0725 11.5632 32.1994 11.3737 32.3567 11.2164V11.2145C32.5122 11.061 32.6998 10.9321 32.914 10.8449Z" fill="#A05148"/>
<path d="M32.8799 34.1912V13.629H34.2502V34.1912H32.8799Z" fill="#A05148"/>
<path d="M19.7627 32.8247H30.2229V29.3696L28.6119 27.7586H27.3837V26.3921H29.1786L31.5894 28.8048V34.1913H19.7627V32.8247Z" fill="#A05148"/>
<path d="M26.1802 26.3636C26.0835 26.3636 25.9926 26.3826 25.913 26.4167C25.8296 26.4489 25.7538 26.502 25.6874 26.5683C25.6211 26.6346 25.568 26.7104 25.5339 26.7938C25.5017 26.8734 25.4827 26.9644 25.4827 27.0611C25.4827 27.1596 25.5017 27.2487 25.5339 27.3302C25.568 27.4117 25.6211 27.4875 25.6874 27.5538C25.7538 27.6202 25.8296 27.6733 25.913 27.7074C25.9926 27.7396 26.0835 27.7585 26.1802 27.7585C26.2788 27.7585 26.3678 27.7396 26.4493 27.7074C26.5308 27.6733 26.6067 27.6202 26.673 27.5538C26.7393 27.4875 26.7924 27.4117 26.8265 27.3302C26.8587 27.2487 26.8777 27.1596 26.8777 27.0611C26.8777 26.9644 26.8587 26.8734 26.8265 26.7938C26.7924 26.7104 26.7393 26.6346 26.673 26.5683C26.6067 26.502 26.5308 26.4489 26.4493 26.4167C26.3678 26.3826 26.2788 26.3636 26.1802 26.3636ZM25.5282 25.4804C25.731 25.397 25.9509 25.3496 26.1802 25.3496C26.4095 25.3496 26.6294 25.397 26.8322 25.4804C27.0445 25.5695 27.234 25.6964 27.3894 25.8519C27.5448 26.0073 27.6718 26.1968 27.7609 26.4091C27.8443 26.6119 27.8917 26.8336 27.8917 27.0611C27.8917 27.2904 27.8443 27.5103 27.7609 27.7131C27.6718 27.9272 27.5448 28.1149 27.3894 28.2703C27.234 28.4257 27.0445 28.5527 26.8322 28.6418C26.6294 28.7251 26.4095 28.7725 26.1802 28.7725C25.9509 28.7725 25.731 28.7251 25.5282 28.6418C25.3159 28.5527 25.1264 28.4257 24.971 28.2703C24.8156 28.1149 24.6886 27.9272 24.5995 27.7131C24.5161 27.5103 24.4688 27.2904 24.4688 27.0611C24.4688 26.8336 24.5161 26.6119 24.5995 26.4091C24.6886 26.1968 24.8156 26.0073 24.971 25.8519C25.1264 25.6964 25.3159 25.5695 25.5282 25.4804Z" fill="#A05148"/>
<path d="M33.07 27.5482L29.6281 23.8922L29.4424 23.426V19.5576L27.7461 17.162L28.8567 16.3773L30.8089 19.135V23.1568L34.0631 26.6139L33.07 27.5482Z" fill="#A05148"/>
<path d="M26.0459 21.4775L27.1527 22.7417H30.1246V24.1082H26.5386L25.0205 22.374L26.0459 21.4775Z" fill="#A05148"/>
<path d="M24.8536 19.3131C25.0848 19.3283 25.3028 19.3908 25.498 19.4875C25.7008 19.5879 25.8789 19.7263 26.0268 19.895C26.1727 20.0618 26.2883 20.2589 26.3603 20.4749C26.4305 20.6815 26.4627 20.9052 26.4475 21.1345C26.4324 21.3638 26.3698 21.5818 26.2732 21.777C26.1727 21.9798 26.0344 22.1599 25.8657 22.3058C25.697 22.4536 25.5018 22.5693 25.2876 22.6413H25.2857C25.0791 22.7095 24.8555 22.7417 24.6261 22.7266C24.3968 22.7114 24.1789 22.6508 23.9836 22.5541C23.7808 22.4536 23.6008 22.3134 23.4548 22.1447C23.307 21.9779 23.1933 21.7827 23.1213 21.5666L23.1194 21.5685C23.0493 21.3601 23.0189 21.1364 23.0341 20.9071C23.0493 20.6759 23.1099 20.4579 23.2066 20.2627C23.307 20.0599 23.4473 19.8798 23.6141 19.7339C23.7827 19.5861 23.9798 19.4723 24.1921 19.4003H24.194C24.4025 19.3302 24.6242 19.298 24.8536 19.3131ZM25.0507 20.3935C24.9711 20.3555 24.882 20.329 24.7872 20.3233C24.6925 20.3176 24.6015 20.329 24.5181 20.3574C24.429 20.3878 24.3475 20.4351 24.2812 20.4939C24.213 20.5546 24.1561 20.6266 24.1144 20.71C24.0746 20.7896 24.05 20.8786 24.0443 20.9734C24.0386 21.0682 24.05 21.1592 24.0784 21.2425V21.2444C24.1087 21.3316 24.1542 21.4112 24.2149 21.4795C24.2736 21.5477 24.3475 21.6045 24.4309 21.6462C24.5105 21.686 24.5996 21.7107 24.6944 21.7164C24.7891 21.7221 24.8801 21.7107 24.9635 21.6823C25.0526 21.6519 25.1322 21.6045 25.2004 21.5458C25.2687 21.487 25.3255 21.4131 25.3672 21.3297C25.4051 21.2501 25.4298 21.161 25.4373 21.0663C25.443 20.9715 25.4298 20.8786 25.4013 20.7953C25.3729 20.7081 25.3255 20.6285 25.2668 20.5602C25.2061 20.492 25.1341 20.4351 25.0507 20.3935Z" fill="#A05148"/>
<path d="M27.8934 14.101C28.1209 14.1389 28.3313 14.2223 28.517 14.3398C28.7065 14.4592 28.8714 14.6165 29.0003 14.8003C29.1292 14.9823 29.2239 15.1908 29.2732 15.4087C29.3225 15.6229 29.3301 15.8484 29.2922 16.074C29.2524 16.3014 29.169 16.5118 29.0534 16.6975C28.9321 16.889 28.7747 17.052 28.5947 17.1808H28.5928C28.409 17.3097 28.2024 17.4045 27.9825 17.4538C27.7702 17.503 27.5447 17.5106 27.3173 17.4727C27.0898 17.4329 26.8794 17.3495 26.6956 17.232C26.5023 17.1107 26.3374 16.9534 26.2085 16.7714H26.2104C26.0815 16.5914 25.9887 16.3829 25.9375 16.1631C25.8901 15.9489 25.8806 15.7233 25.9204 15.4978C25.9583 15.2704 26.0417 15.06 26.1592 14.8743C26.2786 14.6847 26.4359 14.5198 26.6198 14.3909V14.3891C26.7998 14.2621 27.0064 14.1692 27.2282 14.118C27.4424 14.0706 27.6679 14.0612 27.8934 14.101ZM27.9787 15.1946C27.9048 15.1472 27.8176 15.115 27.7247 15.0979C27.6281 15.0827 27.5371 15.0846 27.4518 15.1055C27.3627 15.1244 27.2775 15.1642 27.2017 15.2173L27.1998 15.2154C27.1277 15.2666 27.0652 15.3348 27.014 15.4144C26.9685 15.4883 26.9344 15.5736 26.9192 15.6684C26.9022 15.7632 26.906 15.856 26.9249 15.9413C26.9439 16.0304 26.9818 16.1138 27.0349 16.1877L27.0368 16.1896C27.0898 16.2654 27.1562 16.328 27.2339 16.3772C27.3078 16.4246 27.3931 16.4568 27.4878 16.4739C27.5826 16.4891 27.6755 16.4872 27.7608 16.4682C27.8517 16.4474 27.9351 16.4094 28.009 16.3583V16.3564C28.083 16.3033 28.1474 16.2351 28.1967 16.1574C28.2441 16.0835 28.2782 15.9982 28.2933 15.9034C28.3104 15.8086 28.3066 15.7158 28.2877 15.6305C28.2668 15.5395 28.2289 15.4542 28.1758 15.3822C28.1247 15.3083 28.0583 15.2438 27.9787 15.1946Z" fill="#A05148"/>
</svg>
