<svg width="20" height="20" viewBox="0 0 20 20" fill="none" xmlns="http://www.w3.org/2000/svg">
<path d="M17.4443 0H2.55566C1.14645 0 0 1.14648 0 2.5557V17.4443C0 18.8535 1.14645 20 2.55566 20H17.4443C18.8536 20 20 18.8535 20 17.4443V2.5557C20 1.14648 18.8536 0 17.4443 0ZM18.822 17.4443C18.822 18.204 18.2039 18.822 17.4443 18.822H2.55566C1.79602 18.822 1.17801 18.2039 1.17801 17.4443V15.2956L5.05516 11.9968C5.19664 11.8764 5.40305 11.8752 5.54586 11.9938L7.97453 14.0105C8.20871 14.205 8.55246 14.189 8.76766 13.9736L14.5383 8.19414C14.6426 8.08965 14.7642 8.07949 14.8277 8.08273C14.891 8.08598 15.0111 8.10855 15.1042 8.2232L18.822 12.8009L18.822 17.4443ZM18.822 10.9322L16.0186 7.48043C15.7406 7.13809 15.3285 6.92879 14.888 6.90617C14.4479 6.88391 14.0163 7.04961 13.7047 7.36172L8.31375 12.761L6.29852 11.0876C5.71418 10.6023 4.87027 10.6074 4.29176 11.0996L1.17801 13.7489V2.5557C1.17801 1.79605 1.79602 1.17805 2.55566 1.17805H17.4443C18.204 1.17805 18.822 1.79605 18.822 2.5557V10.9322Z" fill="black"/>
</svg>
