<svg width="24" height="24" viewBox="0 0 24 24" fill="none" xmlns="http://www.w3.org/2000/svg">
<g clip-path="url(#clip0_4672_22369)">
<path d="M10.4063 23.2383C10.4058 23.2383 10.4051 23.2383 10.4044 23.2383C9.70029 23.2377 9.03823 22.9631 8.54055 22.4646L1.53072 15.4447C0.505424 14.4175 0.505424 12.7461 1.53072 11.719L10.9801 2.25151C11.9539 1.27579 13.2496 0.738281 14.6283 0.738281H20.6235C22.0772 0.738281 23.2602 1.92096 23.2602 3.375V9.3517C23.2602 10.7295 22.7232 12.0247 21.7485 12.9983L12.2697 22.4672C11.7718 22.9644 11.11 23.2383 10.4063 23.2383ZM14.6283 2.49609C13.7198 2.49609 12.866 2.85027 12.2243 3.49324L2.77479 12.9607C2.43298 13.3032 2.43298 13.8602 2.77479 14.2027L9.78461 21.2226C9.95037 21.3886 10.1709 21.4803 10.4058 21.4805H10.4064C10.641 21.4805 10.8615 21.3891 11.0274 21.2235L20.5062 11.7548C21.1486 11.1132 21.5024 10.2596 21.5024 9.3517V3.375C21.5024 2.89037 21.1081 2.49609 20.6235 2.49609H14.6283ZM16.888 9.65918C15.4341 9.65918 14.2512 8.4765 14.2512 7.02246C14.2512 5.56842 15.4341 4.38574 16.888 4.38574C18.3419 4.38574 19.5247 5.56842 19.5247 7.02246C19.5247 8.4765 18.3419 9.65918 16.888 9.65918ZM16.888 6.14355C16.4033 6.14355 16.0091 6.53783 16.0091 7.02246C16.0091 7.5071 16.4033 7.90137 16.888 7.90137C17.3727 7.90137 17.7669 7.5071 17.7669 7.02246C17.7669 6.53783 17.3727 6.14355 16.888 6.14355Z" fill="white"/>
</g>
<defs>
<clipPath id="clip0_4672_22369">
<rect width="24" height="24" fill="white"/>
</clipPath>
</defs>
</svg>
