<svg width="23" height="22" viewBox="0 0 23 22" fill="none" xmlns="http://www.w3.org/2000/svg">
<path d="M19.4219 1H4.5332C3.12398 1 1.97754 2.14648 1.97754 3.5557V18.4443C1.97754 19.8535 3.12398 21 4.5332 21H19.4219C20.8311 21 21.9775 19.8535 21.9775 18.4443V3.5557C21.9775 2.14648 20.8311 1 19.4219 1ZM20.7995 18.4443C20.7995 19.204 20.1815 19.822 19.4219 19.822H4.5332C3.77355 19.822 3.15555 19.2039 3.15555 18.4443V16.2956L7.0327 12.9968C7.17418 12.8764 7.38059 12.8752 7.5234 12.9938L9.95207 15.0105C10.1862 15.205 10.53 15.189 10.7452 14.9736L16.5159 9.19414C16.6202 9.08965 16.7418 9.07949 16.8052 9.08273C16.8685 9.08598 16.9886 9.10855 17.0817 9.2232L20.7995 13.8009L20.7995 18.4443ZM20.7995 11.9322L17.9961 8.48043C17.7181 8.13809 17.3061 7.92879 16.8656 7.90617C16.4254 7.88391 15.9938 8.04961 15.6822 8.36172L10.2913 13.761L8.27605 12.0876C7.69172 11.6023 6.84781 11.6074 6.2693 12.0996L3.15555 14.7489V3.5557C3.15555 2.79605 3.77355 2.17805 4.5332 2.17805H19.4219C20.1815 2.17805 20.7995 2.79605 20.7995 3.5557V11.9322Z" fill="black"/>
<path d="M7.90368 2.70667C6.18085 2.70667 4.7793 4.10831 4.7793 5.83105C4.7793 7.55384 6.18089 8.95544 7.90368 8.95544C9.62647 8.95544 11.0281 7.55384 11.0281 5.83105C11.0281 4.10826 9.62652 2.70667 7.90368 2.70667ZM7.90368 7.65963C6.89538 7.65963 6.07511 6.83931 6.07511 5.83105C6.07511 4.82275 6.89538 4.00247 7.90368 4.00247C8.91199 4.00247 9.73226 4.82279 9.73226 5.83105C9.73226 6.83931 8.91199 7.65963 7.90368 7.65963Z" fill="black"/>
</svg>
