<svg width="21" height="20" viewBox="0 0 21 20" fill="none" xmlns="http://www.w3.org/2000/svg">
<path d="M18.4219 0H3.5332C2.12398 0 0.977539 1.14648 0.977539 2.5557V17.4443C0.977539 18.8535 2.12398 20 3.5332 20H18.4219C19.8311 20 20.9775 18.8535 20.9775 17.4443V2.5557C20.9775 1.14648 19.8311 0 18.4219 0ZM19.7995 17.4443C19.7995 18.204 19.1815 18.822 18.4219 18.822H3.5332C2.77355 18.822 2.15555 18.2039 2.15555 17.4443V15.2956L6.0327 11.9968C6.17418 11.8764 6.38059 11.8752 6.5234 11.9938L8.95207 14.0105C9.18625 14.205 9.53 14.189 9.7452 13.9736L15.5159 8.19414C15.6202 8.08965 15.7418 8.07949 15.8052 8.08273C15.8685 8.08598 15.9886 8.10855 16.0817 8.2232L19.7995 12.8009L19.7995 17.4443ZM19.7995 10.9322L16.9961 7.48043C16.7181 7.13809 16.3061 6.92879 15.8656 6.90617C15.4254 6.88391 14.9938 7.04961 14.6822 7.36172L9.29129 12.761L7.27605 11.0876C6.69172 10.6023 5.84781 10.6074 5.2693 11.0996L2.15555 13.7489V2.5557C2.15555 1.79605 2.77355 1.17805 3.5332 1.17805H18.4219C19.1815 1.17805 19.7995 1.79605 19.7995 2.5557V10.9322Z" fill="black"/>
</svg>
