<svg width="24" height="25" viewBox="0 0 24 25" fill="none" xmlns="http://www.w3.org/2000/svg">
<g clip-path="url(#clip0_2834_20627)">
<path d="M20.9332 0.808716H3.0668C1.37573 0.808716 0 2.1845 0 3.87556V21.7419C0 23.4329 1.37573 24.8087 3.0668 24.8087H20.9332C22.6243 24.8087 24 23.4329 24 21.7419V3.87556C24 2.1845 22.6243 0.808716 20.9332 0.808716ZM22.5863 21.7419C22.5863 22.6535 21.8447 23.3951 20.9332 23.3951H3.0668C2.15522 23.3951 1.41361 22.6535 1.41361 21.7419V19.1635L6.06619 15.2048C6.23597 15.0604 6.48366 15.059 6.65503 15.2013L9.56944 17.6214C9.85045 17.8547 10.263 17.8355 10.5212 17.577L17.446 10.6417C17.5711 10.5163 17.7171 10.5041 17.7932 10.508C17.8692 10.5119 18.0133 10.539 18.125 10.6766L22.5864 16.1698L22.5863 21.7419ZM22.5863 13.9274L19.2223 9.78523C18.8887 9.37442 18.3942 9.12326 17.8657 9.09612C17.3375 9.0694 16.8195 9.26825 16.4456 9.64278L9.9765 16.1219L7.55822 14.1138C6.85702 13.5315 5.84433 13.5376 5.15011 14.1282L1.41361 17.3074V3.87556C1.41361 2.96398 2.15522 2.22237 3.0668 2.22237H20.9332C21.8448 2.22237 22.5863 2.96398 22.5863 3.87556V13.9274Z" fill="#6A7185"/>
<path d="M7.55491 3.7616C5.67545 3.7616 4.14648 5.29066 4.14648 7.17002C4.14648 9.04942 5.6755 10.5784 7.55491 10.5784C9.43431 10.5784 10.9633 9.04942 10.9633 7.17002C10.9633 5.29061 9.43436 3.7616 7.55491 3.7616ZM7.55491 9.16483C6.45494 9.16483 5.56009 8.26994 5.56009 7.17002C5.56009 6.07005 6.45494 5.17521 7.55491 5.17521C8.65487 5.17521 9.54972 6.0701 9.54972 7.17002C9.54972 8.26994 8.65487 9.16483 7.55491 9.16483Z" fill="#6A7185"/>
</g>
<defs>
<clipPath id="clip0_2834_20627">
<rect width="24" height="24" fill="white" transform="translate(0 0.808716)"/>
</clipPath>
</defs>
</svg>
