<svg id="Capa_1" enable-background="new 0 0 512 512" height="512" viewBox="0 0 512 512" width="512" xmlns="http://www.w3.org/2000/svg" xmlns:xlink="http://www.w3.org/1999/xlink"><linearGradient id="SVGID_1_" gradientUnits="userSpaceOnUse" x1="0" x2="512" y1="256" y2="256"><stop offset="0" stop-color="#00f2fe"/><stop offset=".0208" stop-color="#03effe"/><stop offset=".2931" stop-color="#24d2fe"/><stop offset=".5538" stop-color="#3cbdfe"/><stop offset=".7956" stop-color="#4ab0fe"/><stop offset="1" stop-color="#4facfe"/></linearGradient><path d="m288.542 301.831c-19.114 0-37.909 2.06-56.141 6.053l30.035-30.035c65.751-2.099 127.262-28.68 173.998-75.415 48.729-48.73 75.566-113.519 75.566-182.434 0-11.046-8.954-20-20-20-68.914 0-133.704 26.837-182.434 75.566-46.735 46.736-73.316 108.246-75.415 173.998l-31.617 31.617c4.375-19.038 6.635-38.706 6.635-58.724 0-69.349-26.967-134.549-75.932-183.589-3.752-3.757-8.844-5.868-14.153-5.868s-10.401 2.111-14.153 5.869c-48.965 49.04-75.931 114.24-75.931 183.589 0 62.88 22.17 122.348 62.806 169.452l-85.949 85.948c-7.81 7.811-7.81 20.474 0 28.284 3.906 3.905 9.025 5.858 14.143 5.858s10.237-1.953 14.143-5.858l86.044-86.044c47.181 40.145 106.94 61.911 168.391 61.907 15.982-.001 32.092-1.474 48.108-4.478 10.856-2.036 18.007-12.487 15.971-23.344-2.037-10.856-12.494-18.009-23.344-15.971-64.504 12.098-130.51-5.138-180.502-46.303 80.841-66.646 198.63-66.641 279.471.008-4.171 3.443-8.46 6.727-12.844 9.832-9.013 6.385-11.144 18.868-4.759 27.881s18.867 11.143 27.882 4.759c11.893-8.425 23.188-17.954 33.57-28.322 3.757-3.751 5.868-8.843 5.868-14.153s-2.111-10.401-5.868-14.152c-49.04-48.965-114.24-75.931-183.589-75.931zm182.454-260.828c-9.94 103.469-92.523 186.052-195.992 195.993 9.94-103.468 92.523-186.052 195.992-195.993zm-351.911 41.717c66.647 80.841 66.647 198.634-.001 279.475-66.648-80.841-66.648-198.633.001-279.475z" fill="url(#SVGID_1_)"/></svg>