<svg width="24" height="28" viewBox="0 0 24 28" fill="none" xmlns="http://www.w3.org/2000/svg">
<path d="M12 0C9.21628 0.00344012 6.54757 1.11079 4.57918 3.07918C2.61079 5.04757 1.50344 7.71628 1.5 10.5C1.5 13.326 3.7 17.266 8.041 22.209C8.53604 22.7715 9.14526 23.2222 9.82808 23.5308C10.5109 23.8395 11.2517 23.9992 12.001 23.9992C12.7503 23.9992 13.4911 23.8395 14.1739 23.5308C14.8567 23.2222 15.466 22.7715 15.961 22.209C20.3 17.267 22.5 13.327 22.5 10.5C22.4966 7.71628 21.3892 5.04757 19.4208 3.07918C17.4524 1.11079 14.7837 0.00344012 12 0ZM13.706 20.231C13.4879 20.4654 13.2239 20.6524 12.9304 20.7802C12.6369 20.9081 12.3202 20.974 12 20.974C11.6798 20.974 11.3631 20.9081 11.0696 20.7802C10.7761 20.6524 10.5121 20.4654 10.294 20.231C6.611 16.036 4.494 12.489 4.494 10.501C4.494 8.51188 5.28418 6.60422 6.6907 5.1977C8.09722 3.79118 10.0049 3.001 11.994 3.001C13.9831 3.001 15.8908 3.79118 17.2973 5.1977C18.7038 6.60422 19.494 8.51188 19.494 10.501C19.5 12.489 17.389 16.036 13.706 20.231Z" fill="url(#paint0_linear_2842_5442)"/>
<path d="M11.9997 6.05493C11.1368 6.05493 10.2933 6.31082 9.57577 6.79023C8.85828 7.26964 8.29906 7.95105 7.96883 8.74828C7.63861 9.54552 7.55221 10.4228 7.72055 11.2691C7.8889 12.1155 8.30444 12.8929 8.91461 13.503C9.52479 14.1132 10.3022 14.5288 11.1485 14.6971C11.9949 14.8654 12.8721 14.779 13.6694 14.4488C14.4666 14.1186 15.148 13.5594 15.6274 12.8419C16.1068 12.1244 16.3627 11.2809 16.3627 10.4179C16.3614 9.2612 15.9013 8.15222 15.0834 7.33429C14.2654 6.51635 13.1565 6.05625 11.9997 6.05493ZM11.9997 11.7809C11.7301 11.7809 11.4666 11.701 11.2425 11.5512C11.0183 11.4015 10.8436 11.1886 10.7405 10.9395C10.6373 10.6905 10.6103 10.4164 10.6629 10.152C10.7155 9.88763 10.8453 9.64476 11.0359 9.45414C11.2266 9.26353 11.4694 9.13371 11.7338 9.08112C11.9982 9.02853 12.2723 9.05552 12.5213 9.15868C12.7704 9.26185 12.9832 9.43655 13.133 9.66069C13.2828 9.88483 13.3627 10.1484 13.3627 10.4179C13.3625 10.7793 13.2188 11.1259 12.9632 11.3814C12.7077 11.637 12.3611 11.7807 11.9997 11.7809Z" fill="url(#paint1_linear_2842_5442)"/>
<ellipse cx="12" cy="26" rx="5" ry="2" fill="#D9D9D9" fill-opacity="0.25"/>
<defs>
<linearGradient id="paint0_linear_2842_5442" x1="1.5" y1="0" x2="22.1779" y2="23.3083" gradientUnits="userSpaceOnUse">
<stop stop-color="#3462CF"/>
<stop offset="1" stop-color="#2B53BE"/>
</linearGradient>
<linearGradient id="paint1_linear_2842_5442" x1="7.63672" y1="6.05493" x2="14.9726" y2="15.505" gradientUnits="userSpaceOnUse">
<stop stop-color="#3462CF"/>
<stop offset="1" stop-color="#2B53BE"/>
</linearGradient>
</defs>
</svg>
