<svg width="42" height="42" viewBox="0 0 42 42" fill="none" xmlns="http://www.w3.org/2000/svg">
<g clip-path="url(#clip0_336_2374)">
<path d="M25.0985 11.7659C25.0985 14.1308 23.1743 16.0558 20.8086 16.0558C18.443 16.0558 16.5188 14.1308 16.5188 11.7659C16.5188 9.40022 18.443 7.47522 20.8086 7.47522C23.1743 7.47522 25.0985 9.40022 25.0985 11.7659Z" fill="white"/>
<path d="M30.0224 4.98623C27.8309 2.19105 24.3898 0.521423 20.8087 0.521423C17.2276 0.521423 13.7865 2.19105 11.595 4.98623C9.12359 8.13854 8.68134 11.9376 9.98033 15.65C11.2292 19.2192 13.8811 22.1949 16.0495 25.2622C17.0788 26.7187 18.8376 29.2059 19.9042 30.7157C20.3458 31.3402 21.2716 31.3402 21.7131 30.7157C22.7797 29.206 24.5385 26.7187 25.5678 25.2622C27.7362 22.1948 30.3882 19.2191 31.637 15.65C32.9361 11.9376 32.4938 8.13862 30.0224 4.98623ZM20.8087 18.442C17.1273 18.442 14.1325 15.4471 14.1325 11.7659C14.1325 8.0846 17.1273 5.08886 20.8087 5.08886C24.4901 5.08886 27.4849 8.08452 27.4849 11.7659C27.4849 15.4472 24.4901 18.442 20.8087 18.442Z" fill="white"/>
<path d="M32.6924 33.3073C32.6924 33.7169 32.4825 34.0972 32.1364 34.3159L21.4457 41.0692C21.2509 41.1925 21.0297 41.2538 20.8086 41.2538C20.5874 41.2538 20.3663 41.1925 20.1714 41.0692L9.48057 34.3159C9.13459 34.0971 8.92456 33.7169 8.92456 33.3073C8.92456 32.8977 9.13459 32.5174 9.48057 32.2987L15.4393 28.5347L17.9552 32.0935C18.6092 33.0178 19.6759 33.5707 20.8086 33.5707C21.9412 33.5707 23.0079 33.0178 23.6619 32.0935L25.2837 29.7987L26.1771 28.5347L32.1365 32.2987C32.4826 32.5174 32.6924 32.8976 32.6924 33.3073Z" fill="white"/>
</g>
<defs>
<clipPath id="clip0_336_2374">
<rect width="40.7324" height="40.7324" fill="white" transform="translate(0.442383 0.521423)"/>
</clipPath>
</defs>
</svg>
