<svg xmlns="http://www.w3.org/2000/svg" width="18" height="18" viewBox="0 0 18 18" fill="none">
  <path d="M14.0625 15.7498H10.5848C11.169 15.2282 11.72 14.6705 12.2344 14.0799C14.1645 11.8601 15.1875 9.52013 15.1875 7.31232C15.1875 5.67129 14.5356 4.09748 13.3752 2.93709C12.2148 1.77671 10.641 1.12482 9 1.12482C7.35897 1.12482 5.78516 1.77671 4.62478 2.93709C3.4644 4.09748 2.8125 5.67129 2.8125 7.31232C2.8125 9.52013 3.83273 11.8601 5.76562 14.0799C6.28004 14.6705 6.83096 15.2282 7.41516 15.7498H3.9375C3.78832 15.7498 3.64524 15.8091 3.53975 15.9146C3.43426 16.0201 3.375 16.1631 3.375 16.3123C3.375 16.4615 3.43426 16.6046 3.53975 16.7101C3.64524 16.8156 3.78832 16.8748 3.9375 16.8748H14.0625C14.2117 16.8748 14.3548 16.8156 14.4602 16.7101C14.5657 16.6046 14.625 16.4615 14.625 16.3123C14.625 16.1631 14.5657 16.0201 14.4602 15.9146C14.3548 15.8091 14.2117 15.7498 14.0625 15.7498ZM3.9375 7.31232C3.9375 5.96966 4.47087 4.68199 5.42027 3.73259C6.36967 2.78319 7.65734 2.24982 9 2.24982C10.3427 2.24982 11.6303 2.78319 12.5797 3.73259C13.5291 4.68199 14.0625 5.96966 14.0625 7.31232C14.0625 11.3363 10.1623 14.6951 9 15.6092C7.83773 14.6951 3.9375 11.3363 3.9375 7.31232ZM11.8125 7.31232C11.8125 6.75606 11.6475 6.21229 11.3385 5.74978C11.0295 5.28726 10.5902 4.92678 10.0763 4.71391C9.56238 4.50103 8.99688 4.44534 8.45131 4.55386C7.90574 4.66238 7.4046 4.93024 7.01126 5.32358C6.61793 5.71691 6.35006 6.21805 6.24154 6.76363C6.13302 7.3092 6.18872 7.8747 6.40159 8.38861C6.61446 8.90253 6.97495 9.34178 7.43746 9.65083C7.89997 9.95987 8.44374 10.1248 9 10.1248C9.74592 10.1248 10.4613 9.8285 10.9887 9.30105C11.5162 8.77361 11.8125 8.05824 11.8125 7.31232ZM7.3125 7.31232C7.3125 6.97856 7.41147 6.6523 7.5969 6.37479C7.78232 6.09728 8.04587 5.88099 8.35422 5.75327C8.66257 5.62555 9.00187 5.59213 9.32922 5.65724C9.65656 5.72235 9.95724 5.88307 10.1932 6.11907C10.4292 6.35507 10.59 6.65576 10.6551 6.9831C10.7202 7.31044 10.6868 7.64974 10.559 7.9581C10.4313 8.26645 10.215 8.53 9.93752 8.71542C9.66002 8.90085 9.33376 8.99982 9 8.99982C8.55245 8.99982 8.12322 8.82203 7.80676 8.50556C7.49029 8.18909 7.3125 7.75987 7.3125 7.31232Z" fill="#35353D"/>
</svg>