<svg width="18" height="18" viewBox="0 0 18 18" fill="none" xmlns="http://www.w3.org/2000/svg">
<path d="M14.0625 15.75H10.5848C11.169 15.2283 11.72 14.6706 12.2344 14.08C14.1645 11.8603 15.1875 9.52028 15.1875 7.31247C15.1875 5.67144 14.5356 4.09763 13.3752 2.93725C12.2148 1.77687 10.641 1.12497 9 1.12497C7.35897 1.12497 5.78516 1.77687 4.62478 2.93725C3.4644 4.09763 2.8125 5.67144 2.8125 7.31247C2.8125 9.52028 3.83273 11.8603 5.76562 14.08C6.28004 14.6706 6.83096 15.2283 7.41516 15.75H3.9375C3.78832 15.75 3.64524 15.8092 3.53975 15.9147C3.43426 16.0202 3.375 16.1633 3.375 16.3125C3.375 16.4617 3.43426 16.6047 3.53975 16.7102C3.64524 16.8157 3.78832 16.875 3.9375 16.875H14.0625C14.2117 16.875 14.3548 16.8157 14.4602 16.7102C14.5657 16.6047 14.625 16.4617 14.625 16.3125C14.625 16.1633 14.5657 16.0202 14.4602 15.9147C14.3548 15.8092 14.2117 15.75 14.0625 15.75ZM3.9375 7.31247C3.9375 5.96981 4.47087 4.68214 5.42027 3.73274C6.36967 2.78334 7.65734 2.24997 9 2.24997C10.3427 2.24997 11.6303 2.78334 12.5797 3.73274C13.5291 4.68214 14.0625 5.96981 14.0625 7.31247C14.0625 11.3365 10.1623 14.6953 9 15.6093C7.83773 14.6953 3.9375 11.3365 3.9375 7.31247ZM11.8125 7.31247C11.8125 6.75621 11.6476 6.21244 11.3385 5.74993C11.0295 5.28741 10.5902 4.92693 10.0763 4.71406C9.56238 4.50119 8.99688 4.44549 8.45131 4.55401C7.90574 4.66253 7.4046 4.9304 7.01126 5.32373C6.61793 5.71707 6.35006 6.21821 6.24154 6.76378C6.13302 7.30935 6.18872 7.87485 6.40159 8.38877C6.61446 8.90268 6.97495 9.34194 7.43746 9.65098C7.89997 9.96002 8.44374 10.125 9 10.125C9.74592 10.125 10.4613 9.82865 10.9887 9.30121C11.5162 8.77376 11.8125 8.05839 11.8125 7.31247ZM7.3125 7.31247C7.3125 6.97871 7.41147 6.65245 7.5969 6.37494C7.78232 6.09744 8.04587 5.88115 8.35422 5.75342C8.66257 5.6257 9.00187 5.59228 9.32922 5.65739C9.65656 5.72251 9.95724 5.88323 10.1932 6.11923C10.4292 6.35523 10.59 6.65591 10.6551 6.98325C10.7202 7.3106 10.6868 7.6499 10.559 7.95825C10.4313 8.2666 10.215 8.53015 9.93752 8.71557C9.66002 8.901 9.33376 8.99997 9 8.99997C8.55245 8.99997 8.12322 8.82218 7.80676 8.50571C7.49029 8.18924 7.3125 7.76002 7.3125 7.31247Z" fill="#D94841"/>
</svg>
