<svg width="42" height="42" viewBox="0 0 42 42" fill="none" xmlns="http://www.w3.org/2000/svg">
<g clip-path="url(#clip0_336_2059)">
<path d="M25.398 11.9589C25.398 14.3237 23.4738 16.2488 21.1082 16.2488C18.7426 16.2488 16.8184 14.3237 16.8184 11.9589C16.8184 9.59322 18.7426 7.66821 21.1082 7.66821C23.4738 7.66821 25.398 9.59322 25.398 11.9589Z" fill="white"/>
<path d="M30.3219 5.17929C28.1304 2.38411 24.6893 0.714478 21.1083 0.714478C17.5272 0.714478 14.0861 2.38411 11.8946 5.17929C9.42315 8.3316 8.9809 12.1306 10.2799 15.8431C11.5287 19.4123 14.1807 22.388 16.3491 25.4552C17.3784 26.9117 19.1371 29.3989 20.2038 30.9088C20.6453 31.5332 21.5712 31.5332 22.0126 30.9088C23.0793 29.399 24.838 26.9117 25.8673 25.4552C28.0357 22.3879 30.6878 19.4122 31.9366 15.8431C33.2356 12.1306 32.7934 8.33167 30.3219 5.17929ZM21.1083 18.6351C17.4269 18.6351 14.432 15.6402 14.432 11.959C14.432 8.27766 17.4269 5.28191 21.1083 5.28191C24.7897 5.28191 27.7845 8.27758 27.7845 11.959C27.7845 15.6403 24.7897 18.6351 21.1083 18.6351Z" fill="white"/>
<path d="M32.9925 33.5004C32.9925 33.91 32.7825 34.2903 32.4365 34.5089L21.7458 41.2623C21.551 41.3856 21.3298 41.4469 21.1086 41.4469C20.8874 41.4469 20.6663 41.3856 20.4714 41.2623L9.78062 34.5089C9.43464 34.2902 9.22461 33.91 9.22461 33.5004C9.22461 33.0907 9.43464 32.7105 9.78062 32.4918L15.7394 28.7278L18.2553 32.2866C18.9093 33.2109 19.9759 33.7637 21.1086 33.7637C22.2413 33.7637 23.3079 33.2109 23.9619 32.2866L25.5838 29.9917L26.4771 28.7278L32.4366 32.4918C32.7826 32.7105 32.9925 33.0906 32.9925 33.5004Z" fill="white"/>
</g>
<defs>
<clipPath id="clip0_336_2059">
<rect width="40.7324" height="40.7324" fill="white" transform="translate(0.742188 0.714478)"/>
</clipPath>
</defs>
</svg>
