<svg width="135" height="100" viewBox="0 0 135 100" fill="none" xmlns="http://www.w3.org/2000/svg">
<path d="M3.84367 87.9724V94.5453H0V75.8879H7.27416C8.67289 75.8879 9.90863 76.1457 10.97 76.6575C12.0314 77.1692 12.8501 77.9008 13.4225 78.8408C13.9949 79.7847 14.2792 80.8612 14.2792 82.0629C14.2792 83.8899 13.6538 85.3341 12.4029 86.3879C11.152 87.4417 9.42343 87.9724 7.20972 87.9724H3.84367ZM3.84367 84.8565H7.27416C8.29004 84.8565 9.06712 84.6177 9.6016 84.1401C10.1361 83.6625 10.4014 82.9764 10.4014 82.0894C10.4014 81.1759 10.1323 80.4367 9.59401 79.8719C9.05575 79.3071 8.31279 79.019 7.36135 79.0038H3.84367V84.8565ZM23.0582 94.8031C21.0227 94.8031 19.37 94.1776 18.0925 92.9305C16.8151 91.6834 16.1783 90.0231 16.1783 87.9459V87.5858C16.1783 86.1946 16.4436 84.9513 16.9819 83.852C17.5202 82.7527 18.2859 81.9074 19.2714 81.3161C20.257 80.721 21.3828 80.4253 22.6451 80.4253C24.5441 80.4253 26.0339 81.0242 27.1255 82.2183C28.2134 83.4161 28.7593 85.1067 28.7593 87.3015V88.8139H19.931C20.0523 89.7199 20.4124 90.4477 21.0151 90.9935C21.6178 91.5394 22.3797 91.8161 23.3008 91.8161C24.7261 91.8161 25.8443 91.3006 26.6441 90.2619L28.4636 92.3013C27.9064 93.0859 27.1597 93.7 26.2082 94.1397C25.2606 94.5832 24.2106 94.8031 23.0582 94.8031ZM22.6337 83.4237C21.8983 83.4237 21.3032 83.6739 20.8483 84.1666C20.3897 84.6594 20.0978 85.3683 19.9689 86.2932H25.1203V85.9975C25.1052 85.1787 24.8815 84.5419 24.4532 84.0984C24.0286 83.6473 23.4183 83.4237 22.6337 83.4237ZM37.2389 94.8031C35.2071 94.8031 33.5506 94.1776 32.2732 92.9305C30.9995 91.6834 30.3589 90.0231 30.3589 87.9459V87.5858C30.3589 86.1946 30.6281 84.9513 31.1663 83.852C31.7008 82.7527 32.4665 81.9074 33.4521 81.3161C34.4414 80.721 35.5634 80.4253 36.8257 80.4253C38.7248 80.4253 40.2183 81.0242 41.3062 82.2183C42.3941 83.4161 42.9399 85.1067 42.9399 87.3015V88.8139H34.1116C34.2329 89.7199 34.593 90.4477 35.1957 90.9935C35.7984 91.5394 36.5604 91.8161 37.4815 91.8161C38.9105 91.8161 40.025 91.3006 40.8248 90.2619L42.6443 92.3013C42.0871 93.0859 41.3403 93.7 40.3927 94.1397C39.4412 94.5832 38.3912 94.8031 37.2389 94.8031ZM36.8143 83.4237C36.0789 83.4237 35.4838 83.6739 35.029 84.1666C34.5703 84.6594 34.2784 85.3683 34.1495 86.2932H39.301V85.9975C39.2858 85.1787 39.0622 84.5419 38.6338 84.0984C38.2093 83.6473 37.6028 83.4237 36.8143 83.4237ZM57.5186 87.7412C57.5186 89.8791 57.0334 91.5886 56.063 92.8737C55.0964 94.1587 53.7849 94.8031 52.1359 94.8031C50.7372 94.8031 49.6038 94.3179 48.7433 93.3399V99.8749H45.0399V80.6831H48.4742L48.6031 82.0401C49.5015 80.9598 50.669 80.4253 52.1094 80.4253C53.819 80.4253 55.1495 81.0583 56.0971 82.3206C57.0448 83.5867 57.5186 85.3266 57.5186 87.5479V87.7412ZM53.8152 87.4683C53.8152 86.1795 53.5877 85.1863 53.1291 84.4813C52.6742 83.7838 52.0109 83.4313 51.139 83.4313C49.9753 83.4313 49.1793 83.8786 48.7433 84.7656V90.4439C49.1944 91.3574 50.0018 91.8161 51.1655 91.8161C52.932 91.8161 53.8152 90.3681 53.8152 87.4683ZM68.1133 93.1352C67.196 94.2459 65.9337 94.8031 64.3189 94.8031C62.833 94.8031 61.6996 94.3747 60.9188 93.5219C60.1379 92.669 59.7361 91.4143 59.7209 89.7654V80.6831H63.4244V89.6365C63.4244 91.0807 64.0839 91.8009 65.3955 91.8009C66.6502 91.8009 67.5182 91.365 67.9845 90.4932V80.6831H71.703V94.5453H68.2157L68.1133 93.1352ZM78.401 94.5453H74.6824V74.8645H78.401V94.5453ZM98.7566 90.7016H92.0169L90.7356 94.5453H86.6532L93.5938 75.8879H97.1569L104.139 94.5453H100.053L98.7566 90.7016ZM93.0555 87.5858H97.7217L95.3753 80.6035L93.0555 87.5858ZM105.098 87.5138C105.098 85.3834 105.606 83.6701 106.614 82.3699C107.63 81.0697 108.995 80.4253 110.708 80.4253C112.228 80.4253 113.415 80.9446 114.26 81.9908L114.412 80.6831H117.77V94.0791C117.77 95.2958 117.494 96.3497 116.944 97.248C116.394 98.1426 115.617 98.8249 114.616 99.2987C113.616 99.765 112.448 100 111.106 100C110.09 100 109.097 99.7991 108.138 99.3935C107.172 98.9879 106.44 98.4648 105.947 97.8242L107.585 95.5726C108.51 96.6036 109.624 97.1191 110.94 97.1191C111.925 97.1191 112.687 96.8576 113.237 96.3307C113.783 95.8076 114.052 95.0608 114.052 94.098V93.3551C113.199 94.3217 112.077 94.8031 110.686 94.8031C109.022 94.8031 107.672 94.1511 106.641 92.8471C105.614 91.5431 105.098 89.8184 105.098 87.6654V87.5138ZM108.802 87.7791C108.802 89.0338 109.056 90.0193 109.556 90.732C110.06 91.4446 110.75 91.8009 111.629 91.8009C112.759 91.8009 113.566 91.3764 114.052 90.5349V84.7011C113.559 83.8558 112.759 83.4313 111.656 83.4313C110.769 83.4313 110.068 83.7952 109.564 84.523C109.056 85.247 108.802 86.3311 108.802 87.7791ZM128.403 84.1477C127.899 84.0833 127.451 84.0491 127.072 84.0491C125.666 84.0491 124.749 84.523 124.317 85.4706V94.5453H120.613V80.6831H124.112L124.21 82.3358C124.953 81.0621 125.981 80.4253 127.3 80.4253C127.709 80.4253 128.096 80.4822 128.452 80.5883L128.403 84.1477ZM134.089 94.5453H130.374V80.6831H134.089V94.5453ZM130.154 77.0972C130.154 76.5399 130.344 76.0813 130.715 75.7212C131.087 75.3648 131.595 75.1867 132.231 75.1867C132.864 75.1867 133.369 75.3648 133.744 75.7212C134.119 76.0813 134.309 76.5399 134.309 77.0972C134.309 77.6544 134.115 78.1206 133.736 78.4769C133.357 78.837 132.857 79.0152 132.231 79.0152C131.606 79.0152 131.109 78.837 130.727 78.4769C130.347 78.1206 130.154 77.6544 130.154 77.0972Z" fill="#05A155"/>
<path fill-rule="evenodd" clip-rule="evenodd" d="M47.3064 28.873C45.4073 29.9685 42.9927 30.0481 40.9534 28.873C38.9178 27.698 37.7806 25.5638 37.7769 23.3729C39.6797 22.2774 42.0944 22.1978 44.1299 23.3729C46.1655 24.548 47.3064 26.6821 47.3064 28.873Z" fill="#05A155"/>
<path fill-rule="evenodd" clip-rule="evenodd" d="M43.1711 40.3851C42.0756 42.2842 40.0211 43.5616 37.6709 43.5616C35.3208 43.5616 33.2663 42.2842 32.167 40.3851C33.2663 38.4898 35.3208 37.2124 37.6709 37.2124C40.0211 37.2124 42.0756 38.4898 43.1711 40.3851Z" fill="#05A155"/>
<path fill-rule="evenodd" clip-rule="evenodd" d="M67.1544 17.0843C69.2847 15.8485 70.7213 13.5438 70.7213 10.9018C70.7213 8.26352 69.2847 5.95883 67.1544 4.72309C65.0203 5.95883 63.5874 8.26352 63.5874 10.9018C63.5874 13.5438 65.0203 15.8485 67.1544 17.0843Z" fill="#05A155"/>
<path fill-rule="evenodd" clip-rule="evenodd" d="M87.9229 28.3954C89.8219 29.4909 92.2366 29.5705 94.2759 28.3954C96.3115 27.2203 97.4486 25.0862 97.4524 22.8953C95.5495 21.7998 93.1349 21.7202 91.0994 22.8953C89.0638 24.0703 87.9229 26.2045 87.9229 28.3954Z" fill="#05A155"/>
<path fill-rule="evenodd" clip-rule="evenodd" d="M91.1333 40.3851C92.2326 42.2842 94.2833 43.5616 96.6373 43.5616C98.9874 43.5616 101.038 42.2842 102.137 40.3851C101.038 38.4898 98.9874 37.2124 96.6373 37.2124C94.2833 37.2124 92.2326 38.4898 91.1333 40.3851Z" fill="#05A155"/>
<path fill-rule="evenodd" clip-rule="evenodd" d="M59.1786 10.6289C60.729 9.07851 61.4303 6.76244 60.8238 4.49187C60.2135 2.2213 58.4508 0.568591 56.3319 0C54.7815 1.55415 54.0803 3.86642 54.6868 6.13699C55.2971 8.40757 57.0635 10.0603 59.1786 10.6289Z" fill="#05A155"/>
<path fill-rule="evenodd" clip-rule="evenodd" d="M45.3694 18.6043C45.9342 16.4815 45.3884 14.1276 43.7243 12.4673C42.064 10.8032 39.7062 10.2574 37.5873 10.8222C37.0225 12.9411 37.5721 15.2951 39.2324 16.9592C40.8965 18.6194 43.2505 19.1691 45.3694 18.6043Z" fill="#05A155"/>
<path fill-rule="evenodd" clip-rule="evenodd" d="M37.3979 32.4135C36.8255 30.2945 35.1728 28.5281 32.9022 27.9216C30.6317 27.3113 28.3194 28.0164 26.769 29.5667C27.3376 31.6819 28.9903 33.4483 31.2609 34.0586C33.5315 34.6651 35.8437 33.9638 37.3979 32.4135Z" fill="#05A155"/>
<path fill-rule="evenodd" clip-rule="evenodd" d="M37.3979 48.3606C35.8437 46.8102 33.5315 46.1089 31.2609 46.7154C28.9903 47.3257 27.3376 49.0884 26.769 51.2073C28.3194 52.7577 30.6317 53.4589 32.9022 52.8524C35.1728 52.2421 36.8255 50.4795 37.3979 48.3606Z" fill="#05A155"/>
<path fill-rule="evenodd" clip-rule="evenodd" d="M75.1256 10.6289C77.2446 10.0603 79.011 8.40757 79.6175 6.13699C80.2278 3.86642 79.5227 1.55415 77.9762 0C75.8572 0.568591 74.0908 2.2213 73.4843 4.49187C72.874 6.76244 73.5791 9.07851 75.1256 10.6289Z" fill="#05A155"/>
<path fill-rule="evenodd" clip-rule="evenodd" d="M88.9386 18.6043C91.0576 19.1691 93.4115 18.6194 95.0718 16.9592C96.7359 15.2951 97.2818 12.9411 96.717 10.8222C94.598 10.2574 92.2441 10.8032 90.58 12.4673C88.9197 14.1276 88.37 16.4815 88.9386 18.6043Z" fill="#05A155"/>
<path fill-rule="evenodd" clip-rule="evenodd" d="M96.9102 32.4135C98.4643 33.9638 100.777 34.6651 103.047 34.0548C105.318 33.4483 106.97 31.6819 107.539 29.5667C105.989 28.0164 103.673 27.3113 101.402 27.9216C99.1315 28.5281 97.4787 30.2945 96.9102 32.4135Z" fill="#05A155"/>
<path fill-rule="evenodd" clip-rule="evenodd" d="M96.9102 48.3606C97.4787 50.4795 99.1315 52.2421 101.402 52.8524C103.673 53.4589 105.989 52.7577 107.539 51.2073C106.97 49.0884 105.318 47.3257 103.047 46.7154C100.777 46.1089 98.4643 46.8102 96.9102 48.3606Z" fill="#05A155"/>
<path fill-rule="evenodd" clip-rule="evenodd" d="M57.1965 23.6572C54.5203 23.6572 51.9199 22.266 50.4871 19.7832C49.0505 17.3003 49.149 14.3512 50.4833 12.0314C53.1595 12.0352 55.7636 13.4225 57.1965 15.9092C58.6293 18.392 58.5345 21.3411 57.1965 23.6572Z" fill="#05A155"/>
<path fill-rule="evenodd" clip-rule="evenodd" d="M77.1083 23.6572C79.7845 23.6572 82.3886 22.266 83.8215 19.7832C85.2543 17.3003 85.1595 14.3512 83.8215 12.0314C81.1453 12.0352 78.5449 13.4225 77.1121 15.9092C75.6755 18.392 75.774 21.3411 77.1083 23.6572Z" fill="#05A155"/>
<path fill-rule="evenodd" clip-rule="evenodd" d="M87.9229 52.3786C87.9229 54.5696 89.0638 56.7037 91.0994 57.8788C93.1349 59.0539 95.5495 58.9743 97.4524 57.8788C97.4486 55.684 96.3115 53.5537 94.2759 52.3786C92.2366 51.2035 89.8219 51.2831 87.9229 52.3786Z" fill="#05A155"/>
<path fill-rule="evenodd" clip-rule="evenodd" d="M46.3855 52.3786C46.3817 54.5696 45.2446 56.7037 43.209 57.8788C41.1735 59.0539 38.755 58.9743 36.856 57.8788C36.856 55.684 37.9969 53.5537 40.0325 52.3786C42.068 51.2035 44.4864 51.2831 46.3855 52.3786Z" fill="#05A155"/>
<path d="M81.6344 50.1308H77.7642L73.8258 54.0654V65.6495H94.784V68.3825H71.0928V52.9358L76.6308 47.3977H81.6344V50.1308Z" fill="#A05148"/>
<path d="M66.1987 47.5986L71.6951 42.1023V34.8281L74.6215 31.8979L76.5433 33.8312L74.4281 35.9463V42.6671L74.0263 43.6337L68.1319 49.5319L66.1987 47.5986Z" fill="#A05148"/>
<path d="M84.9967 38.6604L79.6216 44.0355H73.0601V41.3025H78.492L83.0635 36.731L84.9967 38.6604Z" fill="#A05148"/>
<path d="M84.0411 47.3523C83.8478 47.3523 83.6658 47.3864 83.5066 47.4546C83.3398 47.5228 83.1882 47.6252 83.0555 47.7578C82.8015 48.0118 82.6461 48.3605 82.6461 48.7434C82.6461 48.9405 82.684 49.1225 82.7485 49.2817C82.8167 49.4447 82.9228 49.6001 83.0555 49.7328C83.1882 49.8616 83.3398 49.9678 83.5066 50.036C83.6658 50.1004 83.8478 50.1383 84.0411 50.1383C84.2382 50.1383 84.4163 50.1004 84.5793 50.036C84.7423 49.9678 84.894 49.8616 85.0266 49.7328C85.1593 49.6001 85.2654 49.4447 85.3337 49.2817C85.3981 49.1225 85.436 48.9405 85.436 48.7434C85.436 48.5539 85.3981 48.3719 85.3337 48.2127V48.2089C85.2654 48.0459 85.1593 47.8905 85.0266 47.7578C84.894 47.6252 84.7423 47.5228 84.5793 47.4546C84.4163 47.3864 84.2382 47.3523 84.0411 47.3523ZM82.7371 45.5858C83.1427 45.4152 83.5862 45.3243 84.0411 45.3243C84.4997 45.3243 84.9395 45.4152 85.345 45.5858C85.7696 45.7602 86.1486 46.0142 86.4595 46.325C86.7703 46.6358 87.0243 47.0111 87.1986 47.4356H87.2024C87.3692 47.8412 87.464 48.2847 87.464 48.7434C87.464 49.2021 87.3692 49.6418 87.2024 50.0512C87.0243 50.4757 86.7703 50.8548 86.4595 51.1656C86.1486 51.4764 85.7734 51.7304 85.345 51.9048C84.9395 52.0715 84.4997 52.1663 84.0411 52.1663C83.5862 52.1663 83.1427 52.0715 82.7371 51.9048C82.3126 51.7304 81.9335 51.4764 81.6227 51.1656C81.3118 50.8548 81.0579 50.4757 80.8797 50.0512C80.7129 49.6418 80.6182 49.2021 80.6182 48.7434C80.6182 47.7995 81.001 46.9429 81.6227 46.325C81.9335 46.0142 82.3126 45.7602 82.7371 45.5858Z" fill="#A05148"/>
<path d="M85.7316 34.5969C85.5383 34.5969 85.3563 34.6348 85.1971 34.703C85.0341 34.7674 84.8787 34.8736 84.7461 35.0063C84.6134 35.1389 84.511 35.2905 84.4428 35.4573C84.3746 35.6165 84.3405 35.7985 84.3405 35.9918C84.3405 36.1889 84.3746 36.3671 84.4428 36.5301C84.511 36.6931 84.6134 36.8447 84.7461 36.9774C84.8787 37.11 85.0341 37.2162 85.1971 37.2844C85.3563 37.3488 85.5383 37.3868 85.7316 37.3868C85.9287 37.3868 86.1107 37.3488 86.2699 37.2844C86.4329 37.2162 86.5845 37.11 86.7172 36.9774C86.8498 36.8447 86.956 36.6931 87.0242 36.5301C87.0887 36.3671 87.1266 36.1889 87.1266 35.9918C87.1266 35.7985 87.0887 35.6165 87.0242 35.4573C86.956 35.2905 86.8498 35.1389 86.7172 35.0063C86.5845 34.8736 86.4329 34.7674 86.2699 34.703C86.1107 34.6348 85.9287 34.5969 85.7316 34.5969ZM84.4277 32.8304C84.8332 32.6637 85.2767 32.5689 85.7316 32.5689C86.1903 32.5689 86.63 32.6637 87.0394 32.8304C87.4639 33.0086 87.843 33.2626 88.1538 33.5734C88.4646 33.8842 88.7186 34.2633 88.893 34.6878C89.0636 35.0934 89.1545 35.5369 89.1545 35.9918C89.1545 36.4505 89.0636 36.8902 88.893 37.2958C88.7186 37.7241 88.4646 38.0994 88.1538 38.4102C87.843 38.721 87.4639 38.975 87.0394 39.1532C86.63 39.32 86.1903 39.4147 85.7316 39.4147C85.2767 39.4147 84.8332 39.32 84.4277 39.1532C84.0031 38.975 83.624 38.721 83.3132 38.4102C83.0024 38.0994 82.7484 37.7241 82.574 37.2958C82.4035 36.8902 82.3125 36.4505 82.3125 35.9918C82.3125 35.5369 82.4035 35.0934 82.574 34.6878C82.7484 34.2633 83.0024 33.8842 83.3132 33.5734C83.624 33.2626 84.0031 33.0086 84.4277 32.8304Z" fill="#A05148"/>
<path d="M77.2862 29.7676C77.0929 29.7676 76.9147 29.8055 76.7555 29.87H76.7517C76.5849 29.9382 76.4333 30.0443 76.3006 30.177C76.168 30.3097 76.0618 30.4613 75.9936 30.6243C75.9292 30.7873 75.8913 30.9655 75.8913 31.1626C75.8913 31.3559 75.9292 31.5378 75.9936 31.697C76.0618 31.8638 76.168 32.0155 76.3006 32.1481C76.5508 32.4021 76.8996 32.5575 77.2862 32.5575C77.4833 32.5575 77.6615 32.5196 77.8245 32.4552C77.9874 32.3869 78.1391 32.2808 78.2718 32.1481C78.4044 32.0155 78.5106 31.8638 78.5788 31.697C78.6432 31.5378 78.6811 31.3559 78.6811 31.1626C78.6811 30.9655 78.6432 30.7873 78.5788 30.6243C78.5106 30.4613 78.4044 30.3097 78.2718 30.177C78.1391 30.0443 77.9874 29.9382 77.8245 29.87C77.6615 29.8055 77.4833 29.7676 77.2862 29.7676ZM75.9784 28.005V28.0012C76.384 27.8344 76.8275 27.7397 77.2862 27.7397C77.7449 27.7397 78.1846 27.8344 78.5902 28.0012C79.0147 28.1794 79.3938 28.4333 79.7046 28.7442C80.0154 29.055 80.2694 29.4341 80.4476 29.8586C80.6143 30.2642 80.7091 30.7039 80.7091 31.1626C80.7091 31.6212 80.6143 32.0609 80.4476 32.4665C80.2694 32.8911 80.0154 33.2701 79.7046 33.581C79.3938 33.8918 79.0185 34.1458 78.5902 34.3239C78.1846 34.4907 77.7449 34.5855 77.2862 34.5855C76.3423 34.5855 75.4857 34.2026 74.8678 33.581C74.557 33.2701 74.303 32.8911 74.1248 32.4665C73.958 32.0609 73.8633 31.6212 73.8633 31.1626C73.8633 30.7039 73.958 30.2642 74.1248 29.8586C74.303 29.4303 74.557 29.055 74.8678 28.7442C75.1786 28.4333 75.5539 28.1794 75.9784 28.005Z" fill="#A05148"/>
<path d="M67.1314 23.4563C66.9343 23.4563 66.7524 23.4942 66.5932 23.5586C66.4302 23.6268 66.2785 23.733 66.1459 23.8657L66.1421 23.8619C66.0132 23.9945 65.9108 24.1462 65.8388 24.313C65.7744 24.4722 65.7365 24.6541 65.7365 24.8512C65.7365 25.0445 65.7744 25.2265 65.8388 25.3857C65.907 25.5525 66.0132 25.7041 66.1459 25.8368C66.2785 25.9694 66.4302 26.0718 66.5932 26.14C66.7524 26.2083 66.9343 26.2462 67.1314 26.2462C67.3247 26.2462 67.5067 26.2083 67.6659 26.14C67.8289 26.0756 67.9843 25.9694 68.117 25.8368C68.2496 25.7041 68.352 25.5525 68.4202 25.3857C68.4884 25.2265 68.5263 25.0445 68.5263 24.8512C68.5263 24.6541 68.4884 24.4722 68.4202 24.313C68.352 24.1462 68.2496 23.9945 68.117 23.8619V23.8657C67.9843 23.733 67.8289 23.6268 67.6659 23.5586C67.5067 23.4942 67.3247 23.4563 67.1314 23.4563ZM65.8274 21.6899C66.233 21.5231 66.6727 21.4283 67.1314 21.4283C67.5863 21.4283 68.0298 21.5231 68.4354 21.6899C68.8599 21.8642 69.239 22.122 69.5498 22.429V22.4328C69.8606 22.7474 70.1184 23.1265 70.289 23.5472C70.4596 23.9528 70.5505 24.3926 70.5505 24.8512C70.5505 25.3061 70.4596 25.7496 70.289 26.1552C70.1146 26.5797 69.8606 26.9588 69.5498 27.2696C69.239 27.5805 68.8599 27.8344 68.4354 28.0088C68.0298 28.1794 67.5863 28.2703 67.1314 28.2703C66.6727 28.2703 66.233 28.1794 65.8274 28.0088C65.3991 27.8344 65.0238 27.5805 64.713 27.2696C64.3984 26.9588 64.1482 26.5797 63.97 26.1552C63.8033 25.7496 63.7085 25.3061 63.7085 24.8512C63.7085 24.3926 63.8033 23.9528 63.97 23.5472C64.1444 23.1265 64.3984 22.7474 64.713 22.4328V22.429C65.0238 22.122 65.3991 21.8642 65.8274 21.6899Z" fill="#A05148"/>
<path d="M65.7593 68.3825V27.2583H68.4999V68.3825H65.7593Z" fill="#A05148"/>
<path d="M39.5244 65.6495H60.4447V58.7392L57.2227 55.5172H54.7664V52.7842H58.3561L63.1778 57.6096V68.3825H39.5244V65.6495Z" fill="#A05148"/>
<path d="M52.3594 52.7273C52.1661 52.7273 51.9842 52.7652 51.825 52.8335C51.6582 52.8979 51.5065 53.004 51.3739 53.1367C51.2412 53.2694 51.1351 53.421 51.0668 53.5878C51.0024 53.747 50.9645 53.929 50.9645 54.1223C50.9645 54.3194 51.0024 54.4976 51.0668 54.6606C51.1351 54.8235 51.2412 54.9752 51.3739 55.1078C51.5065 55.2405 51.6582 55.3466 51.825 55.4149C51.9842 55.4793 52.1661 55.5172 52.3594 55.5172C52.5565 55.5172 52.7347 55.4793 52.8977 55.4149C53.0607 55.3466 53.2123 55.2405 53.345 55.1078C53.4777 54.9752 53.5838 54.8235 53.652 54.6606C53.7165 54.4976 53.7544 54.3194 53.7544 54.1223C53.7544 53.929 53.7165 53.747 53.652 53.5878C53.5838 53.421 53.4777 53.2694 53.345 53.1367C53.2123 53.004 53.0607 52.8979 52.8977 52.8335C52.7347 52.7652 52.5565 52.7273 52.3594 52.7273ZM51.0555 50.9609C51.4611 50.7941 51.9008 50.6994 52.3594 50.6994C52.8181 50.6994 53.2578 50.7941 53.6634 50.9609C54.088 51.1391 54.467 51.393 54.7778 51.7039C55.0887 52.0147 55.3426 52.3938 55.5208 52.8183C55.6876 53.2239 55.7824 53.6674 55.7824 54.1223C55.7824 54.5809 55.6876 55.0207 55.5208 55.4262C55.3426 55.8546 55.0887 56.2299 54.7778 56.5407C54.467 56.8515 54.088 57.1055 53.6634 57.2836C53.2578 57.4504 52.8181 57.5452 52.3594 57.5452C51.9008 57.5452 51.4611 57.4504 51.0555 57.2836C50.6309 57.1055 50.2519 56.8515 49.941 56.5407C49.6302 56.2299 49.3762 55.8546 49.1981 55.4262C49.0313 55.0207 48.9365 54.5809 48.9365 54.1223C48.9365 53.6674 49.0313 53.2239 49.1981 52.8183C49.3762 52.3938 49.6302 52.0147 49.941 51.7039C50.2519 51.393 50.6309 51.1391 51.0555 50.9609Z" fill="#A05148"/>
<path d="M66.138 55.0965L59.2543 47.7844L58.8828 46.8519V39.1153L55.4902 34.3239L57.7115 32.7546L61.6158 38.27V46.3136L68.1243 53.2277L66.138 55.0965Z" fill="#A05148"/>
<path d="M52.0903 42.9551L54.304 45.4835H60.2476V48.2165H53.0758L50.0396 44.7481L52.0903 42.9551Z" fill="#A05148"/>
<path d="M49.7062 38.6263C50.1686 38.6566 50.6046 38.7817 50.995 38.975C51.4006 39.1759 51.7569 39.4526 52.0526 39.79C52.3444 40.1236 52.5757 40.5178 52.7197 40.9499C52.86 41.3631 52.9244 41.8104 52.8941 42.269C52.8638 42.7277 52.7387 43.1636 52.5453 43.5541C52.3444 43.9597 52.0677 44.3198 51.7304 44.6116C51.393 44.9073 51.0026 45.1385 50.5742 45.2826H50.5704C50.1573 45.419 49.71 45.4835 49.2513 45.4532C48.7927 45.4228 48.3567 45.3015 47.9663 45.1082C47.5607 44.9073 47.2006 44.6268 46.9087 44.2894C46.6131 43.9559 46.3856 43.5654 46.2416 43.1333L46.2378 43.1371C46.0975 42.7201 46.0369 42.2728 46.0672 41.8142C46.0975 41.3517 46.2188 40.9158 46.4122 40.5254C46.6131 40.1198 46.8936 39.7597 47.2271 39.4678C47.5645 39.1721 47.9587 38.9447 48.3833 38.8006H48.3871C48.804 38.6604 49.2475 38.5959 49.7062 38.6263ZM50.1004 40.7869C49.9412 40.7111 49.763 40.658 49.5735 40.6467C49.384 40.6353 49.202 40.658 49.0353 40.7149C48.8571 40.7755 48.6941 40.8703 48.5614 40.9878C48.425 41.1091 48.3112 41.2532 48.2279 41.4199C48.1482 41.5792 48.099 41.7573 48.0876 41.9468C48.0762 42.1364 48.099 42.3183 48.1558 42.4851V42.4889C48.2165 42.6633 48.3075 42.8225 48.4288 42.9589C48.5463 43.0954 48.6941 43.2091 48.8609 43.2925C49.0201 43.3721 49.1982 43.4214 49.3878 43.4328C49.5773 43.4441 49.7593 43.4214 49.926 43.3645C50.1042 43.3039 50.2634 43.2091 50.3999 43.0916C50.5363 42.9741 50.65 42.8263 50.7334 42.6595C50.8092 42.5003 50.8585 42.3221 50.8737 42.1326C50.8851 41.9431 50.8585 41.7573 50.8017 41.5905C50.7448 41.4162 50.65 41.257 50.5325 41.1205C50.4112 40.984 50.2672 40.8703 50.1004 40.7869Z" fill="#A05148"/>
<path d="M55.7859 28.2021C56.2408 28.2779 56.6615 28.4447 57.033 28.6797C57.4121 28.9185 57.7418 29.2331 57.9996 29.6008C58.2574 29.9647 58.4469 30.3817 58.5455 30.8176C58.644 31.246 58.6592 31.697 58.5834 32.1481C58.5038 32.603 58.337 33.0238 58.1057 33.3952C57.8631 33.7781 57.5485 34.1041 57.1884 34.3618H57.1846C56.8169 34.6196 56.4038 34.8091 55.9641 34.9077C55.5395 35.0062 55.0884 35.0214 54.6335 34.9456C54.1787 34.866 53.7579 34.6992 53.3902 34.4642C53.0036 34.2216 52.6738 33.907 52.416 33.5431H52.4198C52.1621 33.183 51.9763 32.766 51.874 32.3263C51.7792 31.8979 51.7603 31.4469 51.8399 30.9958C51.9157 30.5409 52.0825 30.1202 52.3175 29.7487C52.5563 29.3696 52.8709 29.0398 53.2386 28.7821V28.7783C53.5987 28.5243 54.0119 28.3386 54.4554 28.2362C54.8837 28.1415 55.3348 28.1225 55.7859 28.2021ZM55.9565 30.3893C55.8086 30.2945 55.6343 30.2301 55.4485 30.196C55.2552 30.1656 55.0733 30.1694 54.9027 30.2111C54.7245 30.249 54.5539 30.3286 54.4023 30.4348L54.3985 30.431C54.2545 30.5333 54.1294 30.6698 54.027 30.829C53.9361 30.9768 53.8678 31.1474 53.8375 31.3369C53.8034 31.5265 53.811 31.7122 53.8489 31.8828C53.8868 32.0609 53.9626 32.2277 54.0688 32.3756L54.0725 32.3794C54.1787 32.531 54.3113 32.6561 54.4668 32.7546C54.6146 32.8494 54.7852 32.9138 54.9747 32.9479C55.1642 32.9783 55.35 32.9745 55.5205 32.9366C55.7025 32.8949 55.8693 32.8191 56.0171 32.7167V32.7129C56.1649 32.6068 56.2938 32.4703 56.3924 32.3149C56.4872 32.1671 56.5554 31.9965 56.5857 31.807C56.6198 31.6174 56.6122 31.4317 56.5743 31.2611C56.5326 31.0792 56.4568 30.9086 56.3507 30.7646C56.2483 30.6167 56.1157 30.4878 55.9565 30.3893Z" fill="#A05148"/>
</svg>
