<?xml version="1.0" encoding="utf-8"?>
<!-- Generator: Adobe Illustrator 28.0.0, SVG Export Plug-In . SVG Version: 6.00 Build 0)  -->
<svg version="1.1" id="Layer_2_00000129167822261013220970000007643590145007507892_"
	 xmlns="http://www.w3.org/2000/svg" xmlns:xlink="http://www.w3.org/1999/xlink" x="0px" y="0px" viewBox="0 0 206.2 173"
	 style="enable-background:new 0 0 206.2 173;" xml:space="preserve">
<style type="text/css">
	.st0{fill:none;}
	.st1{fill:#FF745B;}
	.st2{enable-background:new    ;}
	.st3{fill:#8E6B43;}
	.st4{fill:url(#SVGID_1_);}
</style>
<pattern  y="173" width="66" height="66" patternUnits="userSpaceOnUse" id="Nuovo_campione_pattern_1" viewBox="0 -66 66 66" style="overflow:visible;">
	<g>
		<rect y="-66" class="st0" width="66" height="66"/>
		<g>
			<rect y="-66" class="st0" width="66" height="66"/>
			<rect y="-66" class="st1" width="66" height="66"/>
		</g>
	</g>
</pattern>
<g id="Layer_1-2">
	<g id="_08">
		<g>
			<g>
				<g class="st2">
					<path class="st3" d="M76,133.2c0.4,0.2,0.7,0.4,0.9,0.7c0.2,0.3,0.3,0.6,0.3,1c0,0.3-0.1,0.7-0.3,1c-0.2,0.3-0.4,0.6-0.7,0.9
						c-0.1,0-0.1,0-0.2,0c-0.1-0.1-0.1-0.1-0.1-0.2c0.2-0.5,0.2-0.9,0-1.4c-0.2-0.5-0.6-0.9-1.3-1.3c-0.8-0.4-1.6-0.5-2.6-0.5
						c-0.9,0.1-2,0.5-3.3,1.2c-1.3,0.7-2.7,1.8-4.4,3.2c-1.6,1.5-3.6,3.4-5.8,5.7c0.5,0.2,1,0.5,1.5,0.7s1.1,0.5,1.6,0.8
						c0.1,0.1,0.1,0.2,0.1,0.2c0,0.1-0.2,0.1-0.4,0c-0.5-0.2-1-0.5-1.6-0.7c-0.5-0.2-1.1-0.5-1.6-0.7c-0.2,0.2-0.4,0.4-0.5,0.5
						c-2.2,2.4-4.3,4.3-6.1,5.8c-1.8,1.5-3.5,2.5-5,3.2c-1.5,0.7-2.8,1-4,1c-1.2,0-2.3-0.2-3.3-0.7c-0.7-0.3-1.1-0.8-1.3-1.2
						c-0.1-0.5-0.1-0.9,0.1-1.3c0.1-0.2,0.2-0.4,0.4-0.6c0.2-0.2,0.4-0.3,0.6-0.4c0.1,0,0.2,0,0.2,0.1c0,0.1,0,0.1,0,0.2
						c-0.2,0.1-0.3,0.3-0.4,0.5c-0.1,0.2-0.1,0.5-0.1,0.8c0.1,0.3,0.2,0.6,0.4,0.9c0.2,0.3,0.6,0.5,1.1,0.8c0.5,0.2,1,0.4,1.6,0.5
						c0.5,0.1,1.1,0.1,1.8,0c0.7-0.1,1.4-0.4,2.2-0.8c0.8-0.4,1.7-1,2.7-1.8c1-0.8,2.2-1.8,3.5-3c1.3-1.2,2.7-2.7,4.3-4.4
						c0.1-0.1,0.2-0.2,0.2-0.3c0.1-0.1,0.1-0.2,0.2-0.3c-0.4-0.1-0.7-0.3-1.1-0.4c-0.4-0.1-0.8-0.2-1.2-0.3c-0.1-0.1-0.1-0.1,0-0.2
						c0.1-0.1,0.2-0.1,0.4-0.1c0.2,0,0.4,0,0.6,0c0.2,0,0.4,0.1,0.6,0.1c0.2,0.1,0.4,0.1,0.5,0.2c0.2,0.1,0.4,0.2,0.6,0.2
						c1.9-2,3.7-3.7,5.5-5.1c1.8-1.5,3.5-2.6,5.1-3.5c1.6-0.9,3.1-1.4,4.5-1.7C73.8,132.6,75,132.7,76,133.2z"/>
				</g>
				<g class="st2">
					<path class="st3" d="M63,146.4c-0.1,0.3-0.3,0.7-0.6,1.1c-0.2,0.4-0.5,0.8-0.8,1.2c0.9-0.9,1.7-1.5,2.4-1.9
						c0.8-0.4,1.4-0.5,2-0.2c0.2,0.1,0.4,0.2,0.6,0.5c0.1,0.2,0.2,0.4,0.1,0.7c-0.1,0.2-0.2,0.4-0.5,0.6c-0.2,0.2-0.5,0.4-0.6,0.5
						c-0.2,0-0.2,0-0.2-0.2c0.2-0.4,0-0.7-0.5-0.9c-0.7-0.3-1.6,0-2.7,0.9c-1.1,0.9-2.3,2.3-3.6,4.2c-0.1,0.2-0.3,0.3-0.6,0.3
						c-0.3,0-0.5-0.1-0.7-0.2c-0.2-0.1-0.2-0.2,0-0.4c0.4-0.4,0.8-0.8,1.2-1.3c0.4-0.5,0.8-1,1.2-1.4c0.4-0.5,0.7-1,1.1-1.5
						c0.3-0.5,0.6-0.9,0.8-1.4c0.4-0.6,0.4-1,0.1-1.1c-0.2-0.1-0.4,0-0.7,0.1c-0.3,0.1-0.6,0.3-0.9,0.4c-0.1,0-0.2,0-0.2-0.1
						c0-0.1,0-0.2,0.1-0.2c0.5-0.3,1-0.5,1.5-0.7c0.5-0.2,1-0.2,1.3-0.1C63.1,145.4,63.2,145.8,63,146.4z"/>
				</g>
				<g class="st2">
					<path class="st3" d="M71.5,148.3c0.6,0.2,1,0.5,1.1,1c0.2,0.5,0.1,1.1-0.1,1.7c-0.2,0.8-0.6,1.5-1.1,2.2
						c-0.5,0.7-1.1,1.3-1.7,1.8c-0.6,0.5-1.3,0.9-1.9,1.1c-0.6,0.2-1.2,0.3-1.6,0.1c-0.5-0.2-0.9-0.5-1-1c-0.2-0.5-0.1-1.2,0.1-2
						c0.2-0.6,0.5-1.3,1-1.9c0.5-0.7,1-1.2,1.6-1.7c0.6-0.5,1.2-0.9,1.9-1.1C70.3,148.2,71,148.1,71.5,148.3z M67.2,155.4
						c0.3,0.1,0.7,0.1,1.1-0.1c0.4-0.1,0.8-0.4,1.1-0.7c0.4-0.3,0.7-0.7,1-1.2c0.3-0.5,0.5-1,0.7-1.6c0.2-0.7,0.3-1.3,0.2-1.7
						c-0.1-0.5-0.4-0.8-0.9-0.9c-0.3-0.1-0.7-0.1-1.1,0.1c-0.4,0.1-0.7,0.4-1.1,0.7c-0.4,0.3-0.7,0.7-1,1.2c-0.3,0.5-0.5,1-0.7,1.6
						C66.1,154.3,66.3,155.1,67.2,155.4z"/>
				</g>
				<g class="st2">
					<path class="st3" d="M86,153.3c0.1-0.5,0-0.8-0.4-0.8c-0.3-0.1-0.7,0-1.2,0.3c-0.5,0.3-1,0.7-1.6,1.3c-0.6,0.6-1.2,1.3-1.8,2.2
						c-0.6,0.9-1.3,1.9-1.9,3c-0.1,0.1-0.2,0.2-0.4,0.3c-0.2,0-0.4,0-0.6,0c-0.3-0.1-0.4-0.2-0.2-0.4c0.2-0.4,0.5-0.9,0.9-1.5
						c0.4-0.6,0.7-1.2,1.1-1.8c0.3-0.6,0.6-1.2,0.9-1.8c0.3-0.6,0.4-1,0.5-1.3c0.1-0.7,0-1-0.4-1.1c-0.6-0.1-1.5,0.4-2.6,1.5
						s-2.4,2.9-3.7,5.2c-0.1,0.1-0.2,0.2-0.4,0.3c-0.2,0.1-0.4,0.1-0.5,0c-0.1,0-0.2-0.1-0.3-0.1c-0.1-0.1-0.1-0.1,0-0.3
						c0.3-0.5,0.6-1,0.9-1.6c0.3-0.6,0.6-1.2,1-1.8s0.6-1.2,0.9-1.8c0.3-0.6,0.5-1.1,0.8-1.6c0.2-0.4,0.2-0.6,0-0.7
						c-0.2,0-0.4,0.1-0.7,0.3c-0.3,0.2-0.6,0.5-0.9,0.8c-0.1,0-0.1,0-0.2-0.1c-0.1-0.1-0.1-0.1,0-0.2c0.4-0.4,0.9-0.8,1.4-1.1
						c0.5-0.3,1-0.5,1.4-0.4c0.3,0.1,0.5,0.2,0.5,0.5c0,0.2,0,0.5-0.1,0.8c-0.2,0.5-0.4,0.9-0.6,1.4c-0.2,0.4-0.4,0.8-0.6,1.2
						c0.8-1.1,1.6-1.9,2.5-2.5c0.9-0.6,1.6-0.8,2.3-0.7c0.3,0.1,0.5,0.2,0.6,0.4c0.1,0.2,0.2,0.6,0.1,0.9c-0.1,0.5-0.2,1-0.4,1.5
						c-0.2,0.5-0.4,1-0.7,1.4c0.9-1.2,1.9-2.1,2.8-2.7c0.9-0.6,1.8-0.8,2.5-0.6c0.2,0,0.4,0.2,0.6,0.4c0.1,0.2,0.2,0.5,0.1,0.8
						c-0.1,0.4-0.3,0.9-0.5,1.3c-0.3,0.5-0.6,1-0.9,1.5c-0.3,0.5-0.6,1-0.9,1.5s-0.5,1-0.5,1.4c-0.1,0.6,0,0.9,0.3,1
						c0.4,0.1,0.9-0.2,1.7-0.9c0.1,0,0.1,0,0.1,0.1c0,0.1,0,0.2,0,0.2c-0.2,0.2-0.4,0.3-0.6,0.5c-0.2,0.2-0.5,0.4-0.7,0.5
						s-0.5,0.3-0.8,0.4c-0.3,0.1-0.5,0.1-0.7,0.1c-0.5-0.1-0.7-0.6-0.5-1.5c0.1-0.6,0.3-1.1,0.6-1.7c0.3-0.5,0.5-1.1,0.8-1.6
						c0.3-0.5,0.6-1,0.8-1.4C85.7,154,85.9,153.6,86,153.3z"/>
				</g>
				<g class="st2">
					<path class="st3" d="M119.3,138.8c0.1,0,0.1,0.1,0.1,0.2c0,0.1-0.1,0.2-0.2,0.3c-0.1,0.1-0.2,0.2-0.3,0.4
						c-0.1,0.1-0.2,0.2-0.3,0.3c-0.5,0.2-0.9,0.4-1.2,0.6c-0.4,0.2-0.7,0.6-1,1.1c-0.3,0.5-0.6,1.2-0.9,2.1c-0.3,0.9-0.6,2-0.9,3.4
						c-0.7,3.3-1.8,6.1-3.2,8.4c0.3-0.1,0.6-0.1,0.9-0.3s0.5-0.2,0.7-0.3c0.1,0,0.1,0,0.1,0.1c0,0.1,0,0.1,0,0.2
						c-0.5,0.3-1.1,0.6-1.9,0.7c-1.3,2-2.8,3.6-4.5,4.7s-3.7,1.6-5.9,1.7c-1.4,0-2.5-0.3-3.3-0.9c-0.8-0.6-1.3-1.4-1.3-2.3
						c0-0.7,0.3-1.5,0.8-2.2c0.6-0.8,1.4-1.4,2.4-1.9c0.1,0,0.2,0.1,0.2,0.1c0,0.1,0,0.1,0,0.2c-0.7,0.4-1.2,0.9-1.5,1.4
						c-0.3,0.5-0.5,1.1-0.5,1.6c0,0.8,0.4,1.5,1.1,2.1c0.7,0.6,1.8,0.9,3.3,0.8c1.8,0,3.4-0.5,4.8-1.3c1.4-0.8,2.6-2.1,3.6-4
						c-1.2-0.1-2.1-0.5-2.7-1.4c-0.6-0.8-1-2-1-3.3c0-1.5,0.3-3,0.9-4.4c0.7-1.5,1.6-2.8,2.7-4c1.2-1.2,2.5-2.2,4.1-2.9
						S117.5,138.9,119.3,138.8z M113,148c0.2-1,0.5-1.9,0.7-2.7c0.3-0.8,0.5-1.5,0.9-2.2s0.7-1.2,1.1-1.7c0.4-0.5,0.9-0.9,1.4-1.2
						c-1.6,0.2-3,0.7-4.3,1.5c-1.3,0.8-2.3,1.6-3.2,2.7c-0.9,1-1.6,2.1-2,3.3c-0.5,1.2-0.7,2.4-0.7,3.5c0,1.4,0.4,2.5,1,3.3
						c0.6,0.7,1.5,1.1,2.5,1.2c0.5-1,1-2.1,1.4-3.3C112.3,151.1,112.7,149.6,113,148z"/>
				</g>
				<g class="st2">
					<path class="st3" d="M125.8,157c0.1-0.1,0.1-0.1,0.2,0c0.1,0,0.1,0.1,0.1,0.2c-0.3,0.6-0.6,1.2-1,1.7s-0.8,0.8-1.2,0.9
						c-0.7,0.1-1.1-0.3-1.3-1.2c-0.2-0.8-0.2-1.7-0.1-2.7c0.1-1,0.2-2.1,0.5-3.2c0.1-0.2,0.1-0.4,0-0.5c-0.1-0.3-0.2-0.4-0.4-0.3
						c-0.8,0.2-1.6,0.9-2.4,2.3c-0.8,1.4-1.3,3.5-1.6,6.2c0,0.2-0.1,0.3-0.3,0.4c-0.2,0.1-0.4,0.2-0.5,0.2c-0.2,0-0.4,0-0.3-0.3
						c0.2-1.1,0.3-2.3,0.5-3.7c0.2-1.3,0.3-2.7,0.3-4c0-0.5-0.1-0.7-0.4-0.6c-0.2,0-0.4,0.2-0.6,0.5c-0.2,0.3-0.4,0.6-0.5,1.1
						c0,0.1-0.1,0.1-0.2,0c-0.1-0.1-0.1-0.1-0.1-0.2c0.2-0.4,0.4-0.9,0.8-1.4c0.3-0.5,0.8-0.8,1.3-0.9c0.6-0.1,0.8,0.2,0.8,1.1
						c0,0.5,0,1.1,0,1.7c0,0.6-0.1,1.2-0.2,1.8c0.2-0.7,0.4-1.4,0.7-2c0.3-0.6,0.7-1.2,1-1.7c0.4-0.5,0.8-0.9,1.2-1.2
						c0.4-0.3,0.8-0.5,1.2-0.6c0.3-0.1,0.5,0,0.7,0.1c0.2,0.1,0.3,0.3,0.3,0.4c0.1,0.3,0.1,0.6,0,1c-0.3,1-0.5,2-0.6,3
						s-0.1,2,0.1,2.8c0.1,0.6,0.4,0.8,0.7,0.8C124.9,158.5,125.4,157.9,125.8,157z"/>
				</g>
				<g class="st2">
					<path class="st3" d="M139.9,126.9c0.6-0.2,1,0,1.3,0.4c0.3,0.4,0.4,1,0.3,1.8c-0.1,0.2-0.3,0.2-0.4,0c-0.1-0.3-0.2-0.6-0.5-0.7
						c-0.3-0.1-0.6-0.1-1,0c-0.8,0.2-1.5,0.8-2.1,1.6c-0.6,0.8-1.2,1.8-1.6,3.1c-0.5,1.2-0.8,2.7-1.2,4.3s-0.5,3.3-0.7,5.1
						c-0.1,1.8-0.2,3.6-0.1,5.5c0,1.9,0.2,3.8,0.4,5.6c0.1,0.6,0.2,1,0.4,1.4c0.2,0.4,0.4,0.5,0.6,0.5c0.2-0.1,0.4-0.3,0.6-0.6
						c0.2-0.3,0.3-0.7,0.4-1.1c0-0.1,0.1-0.1,0.2-0.1c0.1,0,0.1,0.1,0.1,0.2c0,0.2-0.1,0.5-0.3,0.8c-0.1,0.3-0.3,0.6-0.4,0.9
						c-0.2,0.3-0.3,0.5-0.5,0.8c-0.2,0.2-0.4,0.4-0.6,0.4c-0.4,0.1-0.7,0-0.9-0.3c-0.2-0.3-0.4-0.7-0.5-1.2
						c-0.1-0.4-0.2-0.8-0.2-1.1c0-0.4-0.1-0.8-0.1-1.2c-0.1,0.5-0.2,1.1-0.4,1.6c-0.2,0.5-0.4,1.1-0.7,1.5s-0.5,0.9-0.8,1.2
						c-0.3,0.3-0.5,0.6-0.7,0.7c-0.4,0.1-0.8,0.1-1.2-0.2c-0.4-0.2-0.8-0.7-1-1.4c-0.3-0.9-0.4-1.8-0.3-2.7c0-0.9,0.2-1.7,0.5-2.5
						c0.3-0.8,0.7-1.4,1.3-2c0.5-0.6,1.2-1,1.9-1.2c0.2-0.1,0.5-0.1,0.7-0.1c0.2,0,0.4,0.1,0.6,0.1c0-1.4,0.1-2.8,0.3-4.3
						c0.1-1.5,0.4-3,0.6-4.5c0.3-1.5,0.6-2.9,1-4.3c0.4-1.4,0.8-2.6,1.3-3.8c0.5-1.1,1.1-2.1,1.7-2.8S139.2,127.2,139.9,126.9z
						 M130.7,156.7c0.2-0.1,0.5-0.3,0.7-0.7c0.3-0.4,0.5-0.9,0.7-1.4c0.2-0.6,0.4-1.2,0.5-1.9c0.1-0.7,0.2-1.4,0.2-2.1
						c0-0.2,0-0.5,0-0.7c0-0.2,0-0.4,0-0.7c-0.2-0.2-0.4-0.4-0.7-0.5c-0.3-0.1-0.6,0-0.9,0.1c-0.5,0.1-0.9,0.4-1.2,0.8
						c-0.4,0.4-0.6,0.9-0.8,1.5c-0.2,0.6-0.3,1.3-0.3,2c0,0.7,0.1,1.5,0.4,2.4c0.1,0.5,0.3,0.8,0.6,1
						C130.3,156.7,130.5,156.8,130.7,156.7z"/>
				</g>
				<g class="st2">
					<path class="st3" d="M137.7,148.7c0,0.1-0.1,0.1-0.2,0c-0.1-0.1-0.1-0.1-0.1-0.2c0.2-0.4,0.4-0.9,0.8-1.5
						c0.4-0.6,0.7-1.1,1.2-1.6c0.2-0.1,0.3,0,0.4,0.2c-0.1,0.6-0.1,1.3-0.2,2c0,0.7,0,1.4,0,2.1c0,0.7,0.1,1.3,0.2,1.9
						c0.1,0.6,0.2,1.1,0.3,1.4c0.2,0.5,0.4,0.6,0.7,0.5c0.2-0.1,0.4-0.3,0.6-0.6c0.1-0.3,0.3-0.7,0.5-1.2c0-0.1,0.1-0.1,0.2,0
						c0.1,0,0.1,0.1,0.1,0.2c-0.2,0.6-0.4,1.2-0.7,1.8c-0.3,0.6-0.6,0.9-1,1.1c-0.6,0.2-1,0-1.3-0.8c-0.2-0.4-0.3-1-0.4-1.6
						c-0.1-0.6-0.1-1.3-0.2-2c0-0.7,0-1.4,0-2c0.1-0.7,0.1-1.2,0.2-1.7c-0.2,0.3-0.4,0.6-0.6,1S137.8,148.5,137.7,148.7z
						 M139.1,143.8c0,0.1-0.1,0.1-0.2,0.1s-0.1-0.1-0.2-0.2c-0.1-0.1-0.1-0.2-0.2-0.3s-0.1-0.3,0-0.4c0.2-1,0.7-2.2,1.4-3.5
						c0.1,0,0.1-0.1,0.2,0c0.1,0,0.1,0.1,0.1,0.1c-0.3,0.6-0.5,1.3-0.7,2C139.3,142.4,139.2,143.1,139.1,143.8z"/>
				</g>
				<g class="st2">
					<path class="st3" d="M151.8,147.3c0-0.1,0.1-0.1,0.2-0.1s0.1,0.1,0.2,0.2c-0.1,0.8-0.3,1.5-0.6,2c-0.3,0.5-0.6,0.8-0.9,1
						c-0.2,0.1-0.4,0.1-0.6-0.1c-0.2-0.1-0.4-0.4-0.6-0.7c-0.2-0.3-0.4-0.7-0.5-1.1c-0.2-0.4-0.3-0.9-0.4-1.4
						c-0.1,1.2-0.3,2.2-0.6,3.2s-0.7,1.6-1.2,2c-0.4,0.2-0.8,0.1-1.2-0.1c-0.4-0.3-0.9-0.8-1.2-1.6c-0.3-0.7-0.5-1.5-0.6-2.3
						c-0.1-0.8,0-1.7,0.2-2.5c0.2-0.8,0.5-1.5,1-2.2c0.5-0.6,1-1.1,1.7-1.5c0.4-0.2,0.7-0.3,1-0.3c0.3,0,0.6,0,0.9,0
						c0.1-0.2,0.2-0.4,0.4-0.6c0.2-0.2,0.3-0.3,0.5-0.4c0.1,0,0.2,0,0.2,0.1c-0.2,0.8-0.3,1.7-0.3,2.6c0,0.9,0.1,1.7,0.2,2.5
						c0.1,0.8,0.3,1.4,0.5,2c0.2,0.6,0.4,0.9,0.6,1c0.2,0.1,0.4,0,0.6-0.3C151.5,148.6,151.6,148.1,151.8,147.3z M146.8,150.8
						c0.2-0.1,0.4-0.4,0.6-0.9c0.2-0.5,0.4-1.1,0.5-1.9s0.2-1.5,0.3-2.4c0.1-0.9,0.1-1.7,0-2.5c-0.2-0.2-0.5-0.4-0.9-0.4
						c-0.4,0-0.8,0.1-1.2,0.2c-0.5,0.2-0.8,0.5-1.1,1c-0.3,0.4-0.5,1-0.6,1.5c-0.1,0.6-0.1,1.2,0,1.9c0.1,0.7,0.3,1.4,0.7,2.1
						c0.2,0.5,0.5,0.8,0.8,1.1C146.3,150.9,146.6,151,146.8,150.8z"/>
				</g>
			</g>
			<g class="st2">
				<path class="st3" d="M55.7,8.1c0.1,0.1,0,0.3-0.2,0.5c-0.5,0.5-0.9,0.8-1,0.7c-0.2-0.1-0.5-0.2-0.8-0.3
					c-0.3-0.1-0.5-0.2-0.8-0.2c-1.3,0.1-2.7,0.8-4,2c-1.4,1.2-2.8,3.2-4.4,5.8c-2.3,3.9-4.8,6.8-7.5,8.7c-2.7,1.9-5.5,2.9-8.5,2.9
					c-0.8,0-1.5-0.1-2-0.3c-0.5-0.2-0.9-0.5-1.2-0.9c-0.3-0.4-0.5-0.8-0.5-1.2c0-0.5,0-0.9,0.1-1.4c0.4-1.4,1.4-2.5,3-3.4
					c0.1,0,0.1,0,0.1,0.1c0,0.1,0,0.2-0.1,0.2c-0.4,0.3-0.7,0.5-0.9,0.8c-0.2,0.3-0.4,0.7-0.6,1.2c-0.3,1.2-0.2,2.1,0.4,2.8
					c0.6,0.7,1.7,1,3.3,1c1.1,0,2.2-0.1,3.2-0.4c1-0.3,2-0.8,3-1.5c1-0.7,2-1.7,3-2.9c1-1.2,2.1-2.7,3.2-4.6
					c1.6-2.6,3.1-4.6,4.7-6.2c1.6-1.6,3.2-2.6,4.7-2.9c-1.4-0.4-2.9-0.7-4.5-0.9c-1.6-0.2-3.2-0.3-4.8-0.3c-1.3,0-2.5,0.2-3.6,0.6
					c-1.1,0.4-2.1,1-3,1.7c-0.9,0.7-1.6,1.5-2.2,2.5c-0.6,1-0.9,1.9-1.1,3c-0.2,0.2-0.3,0.2-0.4,0c0.2-1.1,0.6-2.2,1.2-3.3
					c0.6-1.1,1.4-2,2.4-2.9c1-0.8,2.2-1.5,3.5-2c1.4-0.5,2.9-0.8,4.5-0.8c2.5,0,4.6,0.2,6.5,0.6C52.4,7.2,54.1,7.6,55.7,8.1z"/>
				<path class="st3" d="M45.5,22c-0.1,0-0.1,0-0.2-0.1c0-0.1,0-0.2,0-0.2c0.4-0.3,1-0.7,1.6-1.1c0.7-0.4,1.3-0.8,2-1
					c0.2,0,0.2,0.1,0.2,0.3c-0.5,0.5-0.9,1.1-1.4,1.7c-0.5,0.6-0.9,1.2-1.3,1.8c-0.4,0.6-0.7,1.2-1,1.8c-0.3,0.6-0.5,1-0.6,1.4
					c-0.1,0.5,0,0.7,0.3,0.7c0.3,0,0.5-0.1,0.8-0.3c0.3-0.2,0.7-0.5,1.1-0.9c0.1,0,0.1,0,0.2,0c0,0.1,0,0.1,0,0.2
					c-0.6,0.5-1.1,1-1.7,1.4c-0.6,0.4-1.1,0.6-1.5,0.6c-0.6,0-0.8-0.4-0.6-1.1c0.1-0.4,0.3-1,0.7-1.6c0.3-0.6,0.7-1.2,1.1-1.8
					c0.4-0.6,0.8-1.2,1.3-1.8c0.5-0.6,0.9-1.1,1.3-1.5c-0.3,0.2-0.7,0.4-1.2,0.7C46.1,21.5,45.7,21.8,45.5,22z M49.7,18.1
					c-0.1,0.1-0.2,0.1-0.2,0s-0.1-0.1-0.1-0.2c0-0.1,0-0.2,0.1-0.4c0-0.1,0.1-0.3,0.2-0.3c0.8-0.8,1.9-1.7,3.3-2.7
					c0.1,0,0.1,0,0.2,0.1c0.1,0.1,0,0.1,0,0.2c-0.6,0.4-1.2,1-1.8,1.6C50.7,16.9,50.2,17.5,49.7,18.1z"/>
				<path class="st3" d="M61.3,21.1c0.1-0.5,0-0.7-0.3-0.7s-0.8,0.2-1.3,0.5c-0.5,0.3-1.1,0.8-1.7,1.5c-0.6,0.6-1.3,1.4-2,2.4
					c-0.7,0.9-1.4,2-2.2,3.2c-0.1,0.1-0.2,0.2-0.5,0.3s-0.4,0.1-0.6,0.1c-0.3,0-0.4-0.1-0.2-0.3c0.3-0.4,0.6-0.9,1-1.6
					c0.4-0.6,0.8-1.3,1.2-1.9c0.4-0.7,0.8-1.3,1.1-1.8c0.3-0.6,0.5-1,0.6-1.3c0.2-0.6,0.1-1-0.3-1c-0.6,0-1.5,0.6-2.8,1.9
					s-2.7,3.1-4.2,5.5c-0.1,0.1-0.2,0.2-0.4,0.3c-0.2,0.1-0.4,0.1-0.6,0.1c-0.1,0-0.2,0-0.3-0.1c-0.1,0,0-0.1,0-0.2
					c0.3-0.5,0.7-1.1,1.1-1.7c0.4-0.6,0.8-1.2,1.1-1.8s0.7-1.2,1.1-1.8c0.3-0.6,0.6-1.2,0.9-1.7c0.2-0.4,0.2-0.6,0-0.6
					c-0.2,0-0.4,0.1-0.8,0.4c-0.3,0.3-0.7,0.6-1,0.9c-0.1,0-0.1,0-0.2,0c-0.1-0.1,0-0.1,0-0.2c0.5-0.5,1-0.9,1.5-1.3
					c0.5-0.4,1-0.6,1.5-0.6c0.3,0,0.5,0.1,0.5,0.3c0,0.2-0.1,0.5-0.2,0.8c-0.3,0.5-0.5,1-0.7,1.4c-0.2,0.4-0.5,0.9-0.8,1.3
					c0.9-1.1,1.9-2.1,2.8-2.8c0.9-0.7,1.7-1.1,2.5-1.1c0.3,0,0.5,0.1,0.6,0.3c0.1,0.2,0.1,0.5,0,0.9c-0.1,0.5-0.3,1-0.6,1.4
					c-0.2,0.5-0.5,1-0.8,1.5c1.1-1.3,2.1-2.3,3.1-3c1-0.7,1.9-1.1,2.7-1.1c0.3,0,0.4,0.1,0.5,0.3c0.1,0.2,0.1,0.4,0,0.7
					c-0.1,0.4-0.3,0.9-0.6,1.4c-0.3,0.5-0.7,1-1,1.5c-0.4,0.5-0.7,1.1-1,1.6c-0.3,0.5-0.5,1-0.7,1.5c-0.2,0.6-0.1,0.9,0.3,0.9
					c0.4,0,1-0.4,1.8-1.1c0.1,0,0.1,0,0.1,0c0,0.1,0,0.1-0.1,0.2c-0.2,0.2-0.4,0.4-0.7,0.6c-0.3,0.2-0.5,0.4-0.8,0.6
					c-0.3,0.2-0.6,0.4-0.8,0.5c-0.3,0.1-0.5,0.2-0.8,0.2c-0.5,0-0.7-0.4-0.4-1.3c0.2-0.6,0.4-1.1,0.7-1.7c0.3-0.6,0.7-1.1,1-1.6
					c0.3-0.5,0.7-1,1-1.5C61,21.8,61.2,21.5,61.3,21.1z"/>
				<path class="st3" d="M70.4,21.1c-0.1,0.3-0.3,0.6-0.6,0.9c-0.3,0.3-0.7,0.5-1.2,0.7c-0.5,0.2-1.1,0.4-1.7,0.6
					c-0.6,0.2-1.3,0.4-1.9,0.5c-0.1,0.3-0.2,0.5-0.3,0.8c-0.1,0.3-0.2,0.5-0.3,0.8c-0.2,0.6-0.2,1.1,0,1.4c0.1,0.4,0.4,0.6,0.9,0.6
					c0.5,0,0.9-0.1,1.4-0.3c0.5-0.2,0.9-0.5,1.4-0.9c0.1,0,0.2,0,0.2,0c0,0.1,0,0.2-0.1,0.2c-0.5,0.5-1.2,1-1.9,1.4
					c-0.7,0.4-1.4,0.6-2,0.6c-0.6,0-1-0.2-1.3-0.6c-0.3-0.4-0.3-1-0.1-1.7c0.2-0.7,0.5-1.4,1-2.2c0.5-0.8,1-1.5,1.6-2.1
					c0.6-0.6,1.2-1.2,1.9-1.6c0.7-0.4,1.3-0.6,1.9-0.6c0.4,0,0.8,0.2,1,0.5C70.5,20.3,70.5,20.7,70.4,21.1z M68.3,20.4
					c-0.5,0-1.1,0.2-1.6,0.7c-0.5,0.5-1.1,1.2-1.5,2.2c1.1-0.2,2-0.4,2.6-0.7c0.6-0.3,1-0.7,1.1-1.1c0.1-0.3,0.1-0.6,0-0.8
					C68.8,20.5,68.6,20.4,68.3,20.4z"/>
				<path class="st3" d="M90.9,2.8c0.6,0,0.9,0.3,0.9,0.8c0,0.6-0.2,1.1-0.7,1.8c-0.1,0-0.1,0-0.2,0c-0.1,0-0.1-0.1-0.1-0.2
					c0.1-0.3,0.1-0.5-0.1-0.7s-0.5-0.3-1-0.3c-1,0-2.1,0.4-3.3,1.2c-1.2,0.8-2.4,1.9-3.7,3.2c-1.3,1.3-2.5,2.8-3.8,4.4
					s-2.4,3.3-3.4,4.9c-1,1.6-1.9,3.1-2.6,4.6c-0.7,1.4-1.2,2.6-1.5,3.5c-0.2,0.7-0.1,1,0.3,1c0.3,0,0.6-0.1,0.9-0.3
					c0.3-0.2,0.7-0.6,1.2-1c0.1,0,0.1,0,0.2,0c0,0.1,0,0.1,0,0.2c-0.7,0.7-1.3,1.3-2,1.7c-0.7,0.4-1.2,0.7-1.6,0.7
					c-0.3,0-0.5-0.1-0.6-0.4c-0.1-0.2-0.1-0.6,0-1c0.2-0.6,0.5-1.5,1.1-2.5c0.5-1,1.2-2.2,1.9-3.4c0.8-1.3,1.7-2.6,2.6-4
					c1-1.4,2-2.8,3.1-4.1c1.1-1.4,2.2-2.7,3.3-3.9c1.1-1.2,2.2-2.3,3.3-3.3c1.1-0.9,2.1-1.7,3.1-2.2C89.2,3,90.1,2.8,90.9,2.8z"/>
				<path class="st3" d="M82.1,21.1c-0.1,0.3-0.3,0.6-0.6,0.9c-0.3,0.3-0.7,0.5-1.2,0.7c-0.5,0.2-1.1,0.4-1.7,0.6
					c-0.6,0.2-1.3,0.4-1.9,0.5c-0.1,0.3-0.2,0.5-0.3,0.8c-0.1,0.3-0.2,0.5-0.3,0.8c-0.2,0.6-0.2,1.1,0,1.4c0.1,0.4,0.4,0.6,0.9,0.6
					c0.5,0,0.9-0.1,1.4-0.3c0.5-0.2,0.9-0.5,1.4-0.9c0.1,0,0.2,0,0.2,0c0,0.1,0,0.2-0.1,0.2c-0.5,0.5-1.2,1-1.9,1.4
					c-0.7,0.4-1.4,0.6-2,0.6c-0.6,0-1-0.2-1.3-0.6c-0.3-0.4-0.3-1-0.1-1.7c0.2-0.7,0.5-1.4,1-2.2c0.5-0.8,1-1.5,1.6-2.1
					c0.6-0.6,1.2-1.2,1.9-1.6c0.7-0.4,1.3-0.6,1.9-0.6c0.4,0,0.8,0.2,1,0.5C82.2,20.3,82.2,20.7,82.1,21.1z M80,20.4
					c-0.5,0-1.1,0.2-1.6,0.7c-0.5,0.5-1.1,1.2-1.5,2.2c1.1-0.2,2-0.4,2.6-0.7c0.6-0.3,1-0.7,1.1-1.1c0.1-0.3,0.1-0.6,0-0.8
					C80.5,20.5,80.3,20.4,80,20.4z"/>
				<path class="st3" d="M87.4,19.5c0.5,0,0.8,0.1,1.1,0.2c0.3,0.1,0.4,0.3,0.3,0.5c-0.1,0.3-0.2,0.5-0.4,0.9
					c-0.2,0.3-0.4,0.6-0.6,0.8c-0.1,0-0.1,0.1-0.2,0c-0.1,0-0.1-0.1,0-0.2c0.1-0.2,0.2-0.3,0.3-0.6C88,21,88,20.8,88,20.7
					c0-0.5-0.2-0.7-0.8-0.7c-0.4,0-0.7,0.1-1,0.3s-0.5,0.6-0.7,1c-0.1,0.4-0.1,0.7,0,1.1c0.1,0.3,0.2,0.7,0.4,1
					c0.1,0.3,0.3,0.7,0.3,1.1c0.1,0.4,0.1,0.8-0.1,1.3c-0.2,0.7-0.6,1.4-1.3,1.9c-0.7,0.5-1.5,0.8-2.5,0.8c-0.7,0-1.3-0.1-1.6-0.4
					c-0.4-0.3-0.5-0.5-0.5-0.8c0.1-0.2,0.3-0.5,0.6-0.9c0.4-0.4,0.8-0.7,1.1-1c0.1,0,0.1,0,0.2,0c0,0.1,0,0.1,0,0.2
					c-0.2,0.2-0.4,0.4-0.6,0.6c-0.2,0.2-0.2,0.5-0.3,0.6c0,0.4,0,0.7,0.3,0.9c0.2,0.2,0.5,0.3,0.9,0.3c0.6,0,1.1-0.2,1.5-0.5
					c0.4-0.3,0.7-0.7,0.9-1.2c0.1-0.4,0.1-0.8,0-1.2c-0.1-0.4-0.2-0.7-0.4-1.1c-0.1-0.4-0.3-0.7-0.3-1.1c-0.1-0.4-0.1-0.7,0-1.2
					c0.2-0.6,0.5-1.1,1.1-1.5C85.9,19.8,86.6,19.5,87.4,19.5z"/>
				<path class="st3" d="M93.8,19.5c0.5,0,0.8,0.1,1.1,0.2c0.3,0.1,0.4,0.3,0.3,0.5c-0.1,0.3-0.2,0.5-0.4,0.9
					c-0.2,0.3-0.4,0.6-0.6,0.8c-0.1,0-0.1,0.1-0.2,0c-0.1,0-0.1-0.1,0-0.2c0.1-0.2,0.2-0.3,0.3-0.6c0.1-0.2,0.1-0.4,0.1-0.6
					c0-0.5-0.2-0.7-0.8-0.7c-0.4,0-0.7,0.1-1,0.3s-0.5,0.6-0.7,1c-0.1,0.4-0.1,0.7,0,1.1c0.1,0.3,0.2,0.7,0.4,1
					c0.1,0.3,0.3,0.7,0.3,1.1c0.1,0.4,0.1,0.8-0.1,1.3c-0.2,0.7-0.6,1.4-1.3,1.9c-0.7,0.5-1.5,0.8-2.5,0.8c-0.7,0-1.3-0.1-1.6-0.4
					c-0.4-0.3-0.5-0.5-0.5-0.8c0.1-0.2,0.3-0.5,0.6-0.9c0.4-0.4,0.8-0.7,1.1-1c0.1,0,0.1,0,0.2,0c0,0.1,0,0.1,0,0.2
					c-0.2,0.2-0.4,0.4-0.6,0.6c-0.2,0.2-0.2,0.5-0.3,0.6c0,0.4,0,0.7,0.3,0.9c0.2,0.2,0.5,0.3,0.9,0.3c0.6,0,1.1-0.2,1.5-0.5
					c0.4-0.3,0.7-0.7,0.9-1.2c0.1-0.4,0.1-0.8,0-1.2c-0.1-0.4-0.2-0.7-0.4-1.1c-0.1-0.4-0.3-0.7-0.3-1.1c-0.1-0.4-0.1-0.7,0-1.2
					c0.2-0.6,0.5-1.1,1.1-1.5C92.4,19.8,93.1,19.5,93.8,19.5z"/>
				<path class="st3" d="M112.6,10.3c-0.2,0.8-0.2,1.5,0.2,2c0.4,0.6,1.2,1,2.4,1.4c0.1,0,0,0.1,0,0.2c-0.1,0.1-0.2,0.2-0.4,0.3
					c-0.1,0.1-0.3,0.2-0.5,0.3c-0.2,0.1-0.3,0.1-0.4,0.2c-2.5-0.1-4.7,0.4-6.5,1.7c-1.8,1.2-3,3.1-3.7,5.6c-0.2,0.8-0.3,1.6-0.3,2.2
					c0,0.7,0.2,1.3,0.5,1.8s0.7,0.9,1.3,1.2c0.5,0.3,1.2,0.4,2,0.4c1.9,0,3.5-0.4,5-1.3c1.4-0.9,2.7-2.3,3.8-4.2
					c0.1-0.1,0.2-0.1,0.3-0.1c0.1,0,0.1,0.1,0.1,0.3c-0.6,1.3-1.3,2.4-1.9,3.2c-0.6,0.9-1.1,1.3-1.5,1.5c-0.9,0.4-2,0.7-3.2,0.9
					c-1.2,0.3-2.4,0.4-3.6,0.4c-1,0-1.8-0.1-2.4-0.4s-1.2-0.7-1.5-1.2c-0.4-0.5-0.6-1.1-0.7-1.7c-0.1-0.7,0-1.3,0.2-2.1
					c0.3-1.1,0.8-2.1,1.5-3.1c0.7-1,1.5-1.8,2.4-2.6c0.9-0.8,2-1.4,3.1-1.9c1.2-0.5,2.4-0.9,3.6-1.1c-0.6-0.4-1.1-0.8-1.3-1.4
					c-0.3-0.5-0.3-1.1-0.1-1.7c0.2-0.6,0.5-1.3,1-1.8s1.1-1.1,1.8-1.6c0.7-0.4,1.5-0.8,2.4-1.1s1.8-0.4,2.7-0.4
					c0.6,0,1.1,0.1,1.6,0.2c0.5,0.1,0.9,0.2,1.3,0.4c0.4,0.2,0.6,0.4,0.8,0.6c0.2,0.2,0.2,0.4,0.2,0.7c-0.1,0.2-0.2,0.4-0.3,0.6
					c-0.1,0.2-0.3,0.5-0.5,0.7c-0.2,0.3-0.4,0.5-0.5,0.7c-0.2,0.2-0.3,0.4-0.4,0.5c-0.1,0-0.1,0.1-0.2,0c-0.1,0-0.1-0.1,0-0.2
					c0.2-0.3,0.4-0.5,0.6-0.8c0.2-0.3,0.2-0.6,0.1-0.9c-0.1-0.4-0.5-0.8-1.1-1.2c-0.6-0.4-1.3-0.6-2.3-0.6c-0.8,0-1.4,0.1-2.1,0.3
					c-0.6,0.2-1.2,0.5-1.6,0.8c-0.5,0.3-0.9,0.7-1.2,1.2C112.9,9.5,112.7,9.9,112.6,10.3z"/>
				<path class="st3" d="M137.8,2.8c0.6,0,0.9,0.3,0.9,0.8c0,0.6-0.2,1.1-0.7,1.8c-0.1,0-0.1,0-0.2,0c-0.1,0-0.1-0.1-0.1-0.2
					c0.1-0.3,0.1-0.5-0.1-0.7c-0.2-0.2-0.5-0.3-1-0.3c-1,0-2.1,0.4-3.3,1.2c-1.2,0.8-2.4,1.9-3.7,3.2c-1.3,1.3-2.5,2.8-3.8,4.4
					s-2.4,3.3-3.4,4.9c-1,1.6-1.9,3.1-2.6,4.6c-0.7,1.4-1.2,2.6-1.5,3.5c-0.2,0.7-0.1,1,0.3,1c0.3,0,0.6-0.1,0.9-0.3
					c0.3-0.2,0.7-0.6,1.2-1c0.1,0,0.1,0,0.2,0c0,0.1,0,0.1,0,0.2c-0.7,0.7-1.3,1.3-2,1.7c-0.7,0.4-1.2,0.7-1.6,0.7
					c-0.3,0-0.5-0.1-0.6-0.4c-0.1-0.2-0.1-0.6,0-1c0.2-0.6,0.5-1.5,1.1-2.5c0.5-1,1.2-2.2,1.9-3.4c0.8-1.3,1.7-2.6,2.6-4
					c1-1.4,2-2.8,3.1-4.1c1.1-1.4,2.2-2.7,3.3-3.9c1.1-1.2,2.2-2.3,3.3-3.3c1.1-0.9,2.1-1.7,3.1-2.2C136.1,3,137,2.8,137.8,2.8z"/>
				<path class="st3" d="M129,21.1c-0.1,0.3-0.3,0.6-0.6,0.9c-0.3,0.3-0.7,0.5-1.2,0.7c-0.5,0.2-1.1,0.4-1.7,0.6
					c-0.6,0.2-1.3,0.4-1.9,0.5c-0.1,0.3-0.2,0.5-0.3,0.8c-0.1,0.3-0.2,0.5-0.3,0.8c-0.2,0.6-0.2,1.1,0,1.4s0.4,0.6,0.9,0.6
					c0.5,0,0.9-0.1,1.4-0.3c0.5-0.2,0.9-0.5,1.4-0.9c0.1,0,0.2,0,0.2,0c0,0.1,0,0.2-0.1,0.2c-0.5,0.5-1.2,1-1.9,1.4s-1.4,0.6-2,0.6
					c-0.6,0-1-0.2-1.3-0.6c-0.3-0.4-0.3-1-0.1-1.7c0.2-0.7,0.5-1.4,1-2.2c0.5-0.8,1-1.5,1.6-2.1c0.6-0.6,1.2-1.2,1.9-1.6
					c0.7-0.4,1.3-0.6,1.9-0.6c0.4,0,0.8,0.2,1,0.5C129.1,20.3,129.1,20.7,129,21.1z M126.9,20.4c-0.5,0-1.1,0.2-1.6,0.7
					c-0.5,0.5-1.1,1.2-1.5,2.2c1.2-0.2,2-0.4,2.6-0.7c0.6-0.3,1-0.7,1.1-1.1c0.1-0.3,0.1-0.6,0-0.8
					C127.4,20.5,127.2,20.4,126.9,20.4z"/>
				<path class="st3" d="M137.4,19.1c0.1,0,0.1,0,0.2,0c0.1,0.1,0,0.1,0,0.2c-0.3,0.3-0.6,0.5-0.9,0.7c-0.3,0.2-0.7,0.3-1.1,0.3
					c0.1,0.3,0.1,0.8-0.1,1.3c-0.2,0.5-0.4,1-0.7,1.4c-0.3,0.4-0.6,0.8-0.9,1.2c-0.3,0.4-0.6,0.8-1,1.1s-0.6,0.7-0.8,1.1
					c-0.2,0.4-0.4,0.7-0.5,1.1c-0.1,0.4-0.1,0.8,0,1.3c0.1,0.4,0.2,0.7,0.3,1.1c0.1,0.3,0.1,0.6,0.2,0.9c0,0.3,0.1,0.6,0,0.9
					c0,0.3-0.1,0.6-0.2,1c-0.2,0.6-0.4,1.1-0.8,1.6c-0.4,0.5-0.8,0.9-1.4,1.3c-0.5,0.4-1.2,0.7-1.8,0.9c-0.7,0.2-1.4,0.3-2.2,0.3
					c-0.8,0-1.5-0.1-2.1-0.3c-0.6-0.2-1-0.5-1.4-0.9c-0.3-0.4-0.6-0.8-0.6-1.3c-0.1-0.5-0.1-1,0.1-1.5c0.2-0.7,0.6-1.3,1.3-1.8
					c0.6-0.5,1.5-0.9,2.5-1.2c0.1,0,0.2,0,0.2,0.1c0,0.1,0,0.2-0.1,0.2c-0.5,0.2-1,0.5-1.4,0.8c-0.4,0.4-0.7,0.9-0.9,1.5
					c-0.3,1.2-0.2,2.1,0.4,2.8c0.6,0.7,1.6,1.1,2.9,1.1c1.1,0,2-0.3,2.7-0.8c0.7-0.6,1.2-1.3,1.4-2.2c0.2-0.5,0.2-1,0.2-1.4
					c0-0.4-0.1-0.9-0.3-1.4c-0.2-0.7-0.2-1.4,0-2.1c0.3-0.7,0.7-1.4,1.3-2.1c0.1-0.1,0.1-0.2,0.2-0.3c0.1-0.1,0.2-0.2,0.2-0.3
					c-0.3,0.3-0.7,0.5-1.1,0.7c-0.4,0.2-0.7,0.3-0.9,0.3c-1.1,0-1.5-0.7-1.1-2.2c0.1-0.5,0.4-1,0.7-1.6c0.3-0.6,0.8-1.1,1.2-1.6
					c0.5-0.5,1-0.9,1.5-1.2c0.5-0.3,1.1-0.5,1.6-0.5c0.8,0,1.4,0,1.9-0.1C136.7,19.4,137,19.3,137.4,19.1z M133,24.8
					c0.2-0.3,0.4-0.7,0.6-1c0.2-0.3,0.3-0.7,0.4-1c0.2-0.7,0.2-1.2,0.1-1.6c-0.1-0.4-0.4-0.6-0.9-0.6c-0.6,0-1.1,0.3-1.6,0.8
					c-0.5,0.6-1,1.3-1.2,2.3c-0.2,0.7-0.2,1.1-0.1,1.4s0.4,0.4,0.9,0.4c0.3,0,0.6-0.1,0.9-0.2C132.4,25.3,132.7,25.1,133,24.8z"/>
				<path class="st3" d="M144.1,26.2c0.1,0,0.1,0,0.2,0c0.1,0,0.1,0.1,0,0.2c-0.7,0.7-1.3,1.2-1.9,1.5c-0.6,0.3-1,0.5-1.3,0.5
					c-0.2,0-0.3-0.1-0.4-0.3c-0.1-0.2-0.1-0.5,0-0.8c0.1-0.4,0.2-0.8,0.4-1.2s0.4-0.9,0.7-1.4c-0.9,1-1.8,1.8-2.7,2.5
					c-0.9,0.7-1.7,1.1-2.4,1.3c-0.4,0-0.7-0.2-0.9-0.6s-0.1-1,0.1-1.9c0.2-0.8,0.6-1.5,1.1-2.3c0.5-0.7,1.1-1.4,1.8-2
					c0.7-0.6,1.5-1.1,2.2-1.5c0.8-0.4,1.6-0.6,2.3-0.6c0.4,0,0.8,0,1,0.1s0.5,0.2,0.7,0.4c0.2-0.1,0.4-0.2,0.7-0.3
					c0.3-0.1,0.5-0.2,0.7-0.2c0.1,0,0.1,0.1,0.1,0.2c-0.7,0.6-1.4,1.4-2,2.1c-0.6,0.8-1.1,1.5-1.5,2.3c-0.4,0.7-0.7,1.4-1,1.9
					c-0.2,0.6-0.3,0.9-0.2,1.2c0.1,0.2,0.3,0.2,0.6,0S143.4,26.8,144.1,26.2z M137.8,27.2c0.3,0,0.6-0.2,1.1-0.5
					c0.5-0.4,1.1-0.8,1.7-1.4c0.6-0.6,1.2-1.2,1.9-1.9c0.6-0.7,1.2-1.5,1.7-2.2c0-0.3-0.1-0.5-0.4-0.7c-0.3-0.2-0.6-0.3-1.1-0.3
					c-0.5,0-1,0.1-1.5,0.4c-0.5,0.3-1,0.6-1.5,1.1c-0.5,0.5-0.9,1-1.3,1.7c-0.4,0.6-0.7,1.4-0.9,2.1c-0.1,0.5-0.2,0.9-0.1,1.3
					C137.4,27,137.5,27.2,137.8,27.2z"/>
				<path class="st3" d="M154.6,26.2c0.1,0,0.2,0,0.2,0c0.1,0,0.1,0.1,0,0.2c-0.5,0.5-1.1,1-1.7,1.4s-1.1,0.6-1.5,0.6
					c-0.7,0-0.9-0.5-0.7-1.4c0.2-0.8,0.6-1.6,1.2-2.6c0.5-1,1.2-1.9,2-2.9c0.1-0.2,0.2-0.3,0.3-0.5c0.1-0.3,0-0.4-0.2-0.4
					c-0.8,0-2,0.6-3.3,1.8c-1.4,1.2-2.8,3-4.4,5.5c-0.1,0.1-0.2,0.2-0.5,0.3c-0.2,0.1-0.4,0.1-0.6,0.1c-0.3,0-0.3-0.1-0.2-0.3
					c0.7-1,1.4-2.1,2.2-3.3c0.8-1.2,1.5-2.5,2.2-3.7c0.2-0.4,0.2-0.7-0.1-0.7c-0.2,0-0.5,0.1-0.8,0.3c-0.3,0.2-0.6,0.5-1,0.9
					c-0.1,0-0.1,0-0.1,0c0-0.1,0-0.1,0-0.2c0.4-0.4,0.8-0.8,1.4-1.2c0.6-0.4,1.1-0.6,1.6-0.6c0.6,0,0.7,0.4,0.2,1.2
					c-0.2,0.5-0.5,1-0.8,1.6c-0.3,0.6-0.7,1.1-1,1.7c0.5-0.6,1-1.2,1.6-1.8c0.6-0.6,1.2-1,1.8-1.4c0.6-0.4,1.1-0.7,1.7-0.9
					c0.5-0.2,1-0.3,1.4-0.3c0.3,0,0.5,0.1,0.6,0.2c0.1,0.1,0.1,0.3,0.1,0.5c-0.1,0.3-0.2,0.6-0.5,0.9c-0.7,0.9-1.4,1.8-2,2.7
					c-0.6,1-1,1.8-1.3,2.6c-0.2,0.6-0.1,0.9,0.3,0.9C153.1,27.4,153.8,27,154.6,26.2z"/>
				<path class="st3" d="M162.2,22.3c-0.1,0-0.2-0.1-0.1-0.2c0.3-0.5,0.4-0.9,0.4-1.2c-0.1-0.3-0.4-0.5-0.9-0.5
					c-0.4,0-0.8,0.1-1.1,0.4c-0.4,0.3-0.8,0.6-1.1,1.1c-0.4,0.5-0.7,1-1,1.7c-0.3,0.6-0.6,1.3-0.8,2.1c-0.3,1.1-0.1,1.7,0.7,1.7
					c0.9,0,1.9-0.5,3.2-1.6c0.1,0,0.2,0,0.2,0c0.1,0.1,0,0.1,0,0.3c-0.7,0.7-1.5,1.2-2.2,1.7c-0.8,0.5-1.5,0.7-2.1,0.7
					c-0.5,0-0.9-0.2-1.1-0.6c-0.2-0.4-0.2-0.9-0.1-1.5c0.2-0.8,0.6-1.6,1.1-2.4c0.5-0.8,1-1.5,1.7-2.2c0.6-0.6,1.2-1.2,1.9-1.6
					c0.7-0.4,1.3-0.6,1.9-0.6c0.5,0,0.8,0.1,1,0.3c0.2,0.2,0.3,0.5,0.2,0.8c0,0.1-0.1,0.3-0.2,0.4c-0.1,0.2-0.2,0.3-0.4,0.5
					c-0.1,0.2-0.3,0.3-0.5,0.4C162.4,22.2,162.3,22.3,162.2,22.3z"/>
				<path class="st3" d="M170.5,21.1c-0.1,0.3-0.3,0.6-0.6,0.9c-0.3,0.3-0.7,0.5-1.2,0.7s-1.1,0.4-1.7,0.6c-0.6,0.2-1.3,0.4-1.9,0.5
					c-0.1,0.3-0.2,0.5-0.3,0.8c-0.1,0.3-0.2,0.5-0.3,0.8c-0.2,0.6-0.2,1.1,0,1.4c0.1,0.4,0.4,0.6,0.9,0.6c0.5,0,0.9-0.1,1.4-0.3
					s0.9-0.5,1.4-0.9c0.1,0,0.2,0,0.2,0c0,0.1,0,0.2-0.1,0.2c-0.5,0.5-1.2,1-1.9,1.4c-0.7,0.4-1.4,0.6-2,0.6c-0.6,0-1-0.2-1.3-0.6
					c-0.3-0.4-0.3-1-0.1-1.7c0.2-0.7,0.5-1.4,1-2.2c0.5-0.8,1-1.5,1.6-2.1c0.6-0.6,1.2-1.2,1.9-1.6c0.7-0.4,1.3-0.6,1.9-0.6
					c0.4,0,0.8,0.2,1,0.5C170.6,20.3,170.6,20.7,170.5,21.1z M168.4,20.4c-0.5,0-1.1,0.2-1.6,0.7c-0.5,0.5-1.1,1.2-1.5,2.2
					c1.1-0.2,2-0.4,2.6-0.7c0.6-0.3,1-0.7,1.1-1.1c0.1-0.3,0.1-0.6,0-0.8C168.9,20.5,168.7,20.4,168.4,20.4z"/>
			</g>
			<g class="st2">
				<path class="st3" d="M68.4,115.1l-1.4-1.5c-0.8,0.6-1.7,1.1-2.6,1.4c-1,0.3-2,0.4-3.1,0.4c-2.7,0-5.1-1.2-7.2-3.5
					c-2.1-2.3-3.1-5-3.1-8.1c0-3.2,1-6,3.1-8.3c2.1-2.3,4.6-3.5,7.5-3.5c1.1,0,2.1,0.2,2.9,0.5c0.9,0.3,1.6,0.7,2.2,1.2l1.3-1.4h0.8
					v6.4h-1c-0.5-2.3-1.3-3.9-2.5-4.7c-1.2-0.8-2.5-1.2-3.8-1.2c-1.9,0-3.3,0.7-4.2,2c-0.9,1.4-1.4,3.3-1.4,5.8v6.1
					c0,2.6,0.5,4.5,1.4,5.8c1,1.3,2.4,2,4.4,2c1.3,0,2.6-0.4,3.7-1.3c1.2-0.9,2.1-2.5,2.7-5h1v6.8H68.4z"/>
			</g>
			<g class="st2">
				<path class="st3" d="M89.2,115.2c-0.9,0-1.7-0.2-2.4-0.5c-1.3-0.6-2.1-1.7-2.4-3.3l-0.1-1.4c-0.1-1.1-0.2-2-0.3-2.8
					c-0.1-0.8-0.4-1.5-0.7-2.1c-0.7-1.2-1.9-1.8-3.5-1.8H78V114h3.3v0.8H70.4V114h3.3V93.3h-3.3v-0.8h11.8c2.5,0,4.3,0.4,5.5,1.2
					c1.2,0.8,1.9,2.1,1.9,3.9c0,1.5-0.6,2.7-1.7,3.5c-1.2,0.9-2.9,1.5-5.3,1.9c2.8,0.6,4.5,1.6,5.3,3c0.4,0.7,0.6,1.5,0.8,2.4
					c0.2,0.9,0.3,1.8,0.3,2.8l0,1.6c0.1,0.5,0.4,0.9,0.8,1.1c0.2,0.1,0.6,0.2,1.1,0.2c0.4,0,0.8,0,1.4-0.1v0.8
					C91.1,115.1,90.1,115.2,89.2,115.2z M84.2,94.4c-0.6-0.7-1.6-1.1-2.9-1.1H78v9.3h2.8c1.4,0,2.5-0.4,3.2-1.1c0.7-0.7,1-1.9,1-3.5
					C85,96.3,84.7,95.1,84.2,94.4z"/>
				<path class="st3" d="M104.7,114.8v-0.8h3.4l-2-6h-7.2l-2.1,6h3.4v0.8h-7.1v-0.8h2.7l8-22h1.2l7.6,22h2.6v0.8H104.7z M102.6,98
					l-3.4,9.3h6.5L102.6,98z"/>
			</g>
			<g class="st2">
				<path class="st3" d="M134,99.3c-0.5-2.4-1.2-4-2.1-4.8c-0.9-0.8-2.3-1.1-4.2-1.1h-3.9v9.7h0.9c1.7,0,2.8-0.4,3.4-1.2
					c0.6-0.8,0.8-1.8,0.8-2.9h0.9v9.3h-0.9c0-1.2-0.3-2.2-0.8-3.1c-0.6-0.9-1.7-1.3-3.4-1.3h-0.9v10.3h3.3v0.8h-10.9v-0.8h3.3V93.3
					h-3.3v-0.8h18.5l0.2,6.7H134z"/>
			</g>
			<g class="st2">
				<path class="st3" d="M154.6,99.6c-0.4-2.6-1.1-4.3-2.1-5.1c-1-0.8-2.3-1.2-3.8-1.2h-0.9v20.8h3.5v0.8h-11.3v-0.8h3.5V93.3h-0.9
					c-1.5,0-2.8,0.4-3.8,1.2c-1,0.8-1.7,2.5-2.1,5.1h-1.1l0.4-7.1h19.2l0.4,7.1H154.6z"/>
			</g>
			<g class="st2">
				<path class="st3" d="M28.8,59.7c-0.5-3.9-1.5-6.4-3-7.6c-1.5-1.2-3.3-1.9-5.4-1.9h-1.2v31.1h5v1.2H8v-1.2h5V50.2h-1.3
					c-2.1,0-4,0.6-5.4,1.8c-1.4,1.2-2.4,3.8-3,7.7H1.7l0.5-10.6h27.6l0.5,10.6H28.8z"/>
			</g>
			<g class="st2">
				<path class="st3" d="M58.8,83.1c-1.3,0-2.5-0.2-3.5-0.7c-1.9-0.9-3-2.5-3.5-4.9l-0.1-2.2c-0.1-1.6-0.2-3-0.4-4.3
					c-0.2-1.2-0.5-2.3-1-3.2c-1-1.8-2.7-2.7-5-2.7h-2.5v16h4.8v1.3H31.8v-1.3h4.8v-31h-4.8v-1.2h16.9c3.6,0,6.2,0.6,7.9,1.8
					c1.8,1.2,2.7,3.1,2.7,5.8c0,2.2-0.8,4-2.5,5.3c-1.7,1.4-4.2,2.3-7.6,2.9c4,0.9,6.5,2.4,7.6,4.6c0.5,1.1,0.9,2.3,1.2,3.6
					c0.2,1.3,0.4,2.7,0.4,4.2l0,2.5c0.2,0.8,0.6,1.3,1.1,1.6c0.3,0.2,0.8,0.3,1.5,0.3c0.5,0,1.2-0.1,2-0.2v1.2
					C61.6,82.9,60.1,83.1,58.8,83.1z M51.6,51.9c-0.8-1.1-2.2-1.7-4.2-1.7h-4.7v13.9h4.1c2.1,0,3.6-0.6,4.5-1.7
					c1-1.1,1.4-2.9,1.4-5.2C52.8,54.8,52.4,53,51.6,51.9z"/>
				<path class="st3" d="M65.8,82.5v-1.2h4.8V50.2h-4.8v-1.2h15.7v1.2h-4.8v31.1h4.8v1.2H65.8z"/>
			</g>
			<g class="st2">
				<path class="st3" d="M109.4,80.2c-2,1.5-4.9,2.3-8.6,2.3h-17v-1.2h4.8V50.2h-4.8v-1.2h16c3.7,0,6.6,0.7,8.6,2c2,1.3,3,3.3,3,6
					c0,2.1-0.8,3.9-2.5,5.3c-1.6,1.4-4,2.3-7,2.8c3.2,0.4,5.8,1.3,7.6,2.8c1.9,1.6,2.9,3.5,2.9,5.7
					C112.5,76.4,111.5,78.6,109.4,80.2z M103.7,51.9c-0.9-1.1-2.2-1.7-4.1-1.7h-4.8v14.5h4.5c1.9,0,3.3-0.7,4.3-2
					c0.9-1.4,1.4-3.2,1.4-5.7C104.9,54.7,104.5,53,103.7,51.9z M104.1,67.8c-1.1-1.3-2.7-1.9-4.9-1.9h-4.6v15.5h6.3
					c1.5,0,2.7-0.7,3.5-2.1c0.8-1.3,1.2-3.2,1.2-5.7C105.7,71,105.2,69,104.1,67.8z"/>
			</g>
			<g class="st2">
				<path class="st3" d="M139.9,50.2v21.3c0,4.1-0.9,7.1-2.8,8.9c-1.9,1.8-4.9,2.8-9,2.8c-4.2,0-7.2-0.9-9.1-2.8
					c-1.9-1.9-2.8-5.1-2.8-9.6V50.2h-4.8v-1.2h15.7v1.2h-4.8v22.9c0,2.9,0.6,5.1,1.9,6.4c1.2,1.4,3.2,2.1,5.8,2.1
					c2.7,0,4.8-0.8,6.2-2.4c1.4-1.6,2.2-3.9,2.2-6.9V50.2h-4.8v-1.2h11v1.2H139.9z"/>
			</g>
			<g class="st2">
				<path class="st3" d="M172.4,59.7c-0.5-3.9-1.5-6.4-3-7.6c-1.5-1.2-3.3-1.9-5.4-1.9h-1.2v31.1h5v1.2h-16.2v-1.2h5V50.2h-1.3
					c-2.1,0-4,0.6-5.4,1.8c-1.4,1.2-2.4,3.8-3,7.7h-1.5l0.5-10.6h27.6l0.5,10.6H172.4z"/>
			</g>
			<g class="st2">
				<path class="st3" d="M202.8,82.5h-27.3v-1.2h4.8V50.2h-4.8v-1.2H202l0.3,8.9h-1.3c-0.7-3.2-1.7-5.3-3.1-6.3
					c-1.3-1-3.3-1.5-6-1.5h-5.5v14.6h1.3c2.4,0,4-0.6,4.8-1.8c0.8-1.2,1.2-2.7,1.2-4.3h1.3v13.9h-1.3c0-1.8-0.4-3.3-1.1-4.6
					c-0.8-1.3-2.4-2-4.8-2h-1.3v15.4h6.4c3.1,0,5.3-0.8,6.5-2.4c1.2-1.6,2.1-4,2.5-7.2h1.4L202.8,82.5z"/>
			</g>
			<g>
				
					<pattern  id="SVGID_1_" xlink:href="#Nuovo_campione_pattern_1" patternTransform="matrix(1.15 0 0 -1.15 2247.7898 -18712.0664)">
				</pattern>
				<path class="st4" d="M166.9,123.3h-135c-0.6,0-1-0.4-1-1s0.4-1,1-1h135c0.6,0,1,0.4,1,1S167.4,123.3,166.9,123.3z"/>
			</g>
		</g>
	</g>
</g>
</svg>
