<svg width="20" height="20" viewBox="0 0 20 20" fill="none" xmlns="http://www.w3.org/2000/svg">
<path d="M18.3327 10.625H6.66602C6.50026 10.625 6.34128 10.5592 6.22407 10.4419C6.10686 10.3247 6.04102 10.1658 6.04102 10C6.04102 9.83424 6.10686 9.67527 6.22407 9.55806C6.34128 9.44085 6.50026 9.375 6.66602 9.375H18.3327C18.4984 9.375 18.6574 9.44085 18.7746 9.55806C18.8918 9.67527 18.9577 9.83424 18.9577 10C18.9577 10.1658 18.8918 10.3247 18.7746 10.4419C18.6574 10.5592 18.4984 10.625 18.3327 10.625Z" fill="white"/>
<path d="M14.9983 13.9584C14.8747 13.9584 14.7539 13.9218 14.6511 13.8532C14.5483 13.7846 14.4681 13.687 14.4208 13.5729C14.3734 13.4587 14.3609 13.3331 14.385 13.2118C14.409 13.0906 14.4685 12.9792 14.5558 12.8917L17.44 10.0001L14.5558 7.10839C14.4421 6.99035 14.3794 6.83238 14.381 6.66851C14.3827 6.50463 14.4486 6.34796 14.5647 6.23224C14.6807 6.11652 14.8376 6.05101 15.0014 6.04982C15.1653 6.04863 15.3231 6.11186 15.4408 6.22589L18.7658 9.55922C18.8827 9.67652 18.9483 9.83533 18.9483 10.0009C18.9483 10.1664 18.8827 10.3253 18.7658 10.4426L15.4408 13.7759C15.3827 13.834 15.3137 13.88 15.2378 13.9113C15.1619 13.9426 15.0805 13.9586 14.9983 13.9584Z" fill="white"/>
<path d="M10.8327 18.9583H3.33268C2.72503 18.9579 2.14239 18.7163 1.71272 18.2866C1.28304 17.857 1.04146 17.2743 1.04102 16.6667V4.16667C1.04146 3.55901 1.28304 2.97638 1.71272 2.5467C2.14239 2.11703 2.72503 1.87544 3.33268 1.875H10.8327C11.4403 1.87544 12.023 2.11703 12.4526 2.5467C12.8823 2.97638 13.1239 3.55901 13.1243 4.16667V5.83333C13.1243 5.99909 13.0585 6.15807 12.9413 6.27528C12.8241 6.39249 12.6651 6.45833 12.4993 6.45833C12.3336 6.45833 12.1746 6.39249 12.0574 6.27528C11.9402 6.15807 11.8743 5.99909 11.8743 5.83333V4.16667C11.8739 3.89053 11.764 3.62584 11.5688 3.43058C11.3735 3.23533 11.1088 3.12544 10.8327 3.125H3.33268C3.05655 3.12544 2.79185 3.23533 2.5966 3.43058C2.40134 3.62584 2.29146 3.89053 2.29102 4.16667V16.6667C2.29146 16.9428 2.40134 17.2075 2.5966 17.4027C2.79185 17.598 3.05655 17.7079 3.33268 17.7083H10.8327C11.1088 17.7079 11.3735 17.598 11.5688 17.4027C11.764 17.2075 11.8739 16.9428 11.8743 16.6667V14.1667C11.8743 14.0009 11.9402 13.8419 12.0574 13.7247C12.1746 13.6075 12.3336 13.5417 12.4993 13.5417C12.6651 13.5417 12.8241 13.6075 12.9413 13.7247C13.0585 13.8419 13.1243 14.0009 13.1243 14.1667V16.6667C13.1239 17.2743 12.8823 17.857 12.4526 18.2866C12.023 18.7163 11.4403 18.9579 10.8327 18.9583Z" fill="white"/>
</svg>
