<svg width="422" height="328" viewBox="0 0 422 328" fill="none" xmlns="http://www.w3.org/2000/svg">
<path d="M44.1352 263.971V281.303H34V232.106H53.181C56.8692 232.106 60.1277 232.786 62.9264 234.135C65.7251 235.484 67.884 237.413 69.3933 239.892C70.9026 242.381 71.6523 245.22 71.6523 248.388C71.6523 253.206 70.0031 257.014 66.7046 259.793C63.4062 262.572 58.8483 263.971 53.011 263.971H44.1352ZM44.1352 255.755H53.181C55.8597 255.755 57.9088 255.125 59.3181 253.866C60.7274 252.606 61.4271 250.797 61.4271 248.458C61.4271 246.049 60.7174 244.1 59.2981 242.611C57.8788 241.122 55.9197 240.362 53.4109 240.322H44.1352V255.755ZM94.8014 281.982C89.4339 281.982 85.076 280.333 81.7075 277.045C78.3391 273.756 76.6599 269.378 76.6599 263.901V262.951C76.6599 259.283 77.3596 256.005 78.7789 253.106C80.1982 250.207 82.2173 247.978 84.8161 246.419C87.4149 244.85 90.3835 244.07 93.7119 244.07C98.7195 244.07 102.648 245.649 105.526 248.798C108.395 251.957 109.834 256.414 109.834 262.202V266.19H86.5553C86.8751 268.579 87.8247 270.498 89.4139 271.937C91.0032 273.376 93.0122 274.106 95.4411 274.106C99.1993 274.106 102.148 272.747 104.257 270.008L109.055 275.386C107.585 277.455 105.616 279.074 103.107 280.233C100.609 281.403 97.84 281.982 94.8014 281.982ZM93.6819 251.977C91.7428 251.977 90.1736 252.636 88.9741 253.936C87.7647 255.235 86.9951 257.104 86.6552 259.543H100.239V258.763C100.199 256.604 99.6091 254.925 98.4797 253.756C97.3602 252.566 95.7509 251.977 93.6819 251.977ZM132.194 281.982C126.836 281.982 122.468 280.333 119.1 277.045C115.742 273.756 114.052 269.378 114.052 263.901V262.951C114.052 259.283 114.762 256.005 116.181 253.106C117.591 250.207 119.61 247.978 122.208 246.419C124.817 244.85 127.776 244.07 131.104 244.07C136.112 244.07 140.05 245.649 142.919 248.798C145.787 251.957 147.227 256.414 147.227 262.202V266.19H123.948C124.268 268.579 125.217 270.498 126.806 271.937C128.396 273.376 130.405 274.106 132.833 274.106C136.602 274.106 139.54 272.747 141.649 270.008L146.447 275.386C144.978 277.455 143.009 279.074 140.51 280.233C138.001 281.403 135.232 281.982 132.194 281.982ZM131.074 251.977C129.135 251.977 127.566 252.636 126.367 253.936C125.157 255.235 124.387 257.104 124.048 259.543H137.631V258.763C137.591 256.604 137.002 254.925 135.872 253.756C134.753 252.566 133.153 251.977 131.074 251.977ZM185.669 263.361C185.669 268.999 184.389 273.506 181.83 276.895C179.282 280.283 175.823 281.982 171.475 281.982C167.787 281.982 164.798 280.703 162.53 278.124V295.356H152.764V244.75H161.82L162.16 248.328C164.529 245.48 167.607 244.07 171.405 244.07C175.913 244.07 179.422 245.739 181.92 249.068C184.419 252.406 185.669 256.994 185.669 262.851V263.361ZM175.903 262.642C175.903 259.243 175.303 256.624 174.094 254.765C172.895 252.926 171.145 251.997 168.847 251.997C165.778 251.997 163.679 253.176 162.53 255.515V270.488C163.719 272.897 165.848 274.106 168.917 274.106C173.574 274.106 175.903 270.288 175.903 262.642ZM213.605 277.584C211.187 280.513 207.858 281.982 203.6 281.982C199.682 281.982 196.693 280.853 194.634 278.604C192.575 276.355 191.516 273.047 191.476 268.699V244.75H201.241V268.359C201.241 272.167 202.98 274.066 206.439 274.066C209.747 274.066 212.036 272.917 213.266 270.618V244.75H223.071V281.303H213.875L213.605 277.584ZM240.733 281.303H230.927V229.407H240.733V281.303ZM294.407 271.167H276.636L273.257 281.303H262.492L280.794 232.106H290.189L308.601 281.303H297.826L294.407 271.167ZM279.375 262.951H291.679L285.492 244.54L279.375 262.951ZM311.13 262.761C311.13 257.144 312.469 252.626 315.128 249.198C317.806 245.769 321.405 244.07 325.923 244.07C329.931 244.07 333.059 245.44 335.288 248.198L335.688 244.75H344.544V280.073C344.544 283.282 343.814 286.06 342.365 288.429C340.916 290.788 338.867 292.587 336.228 293.837C333.589 295.066 330.51 295.686 326.972 295.686C324.293 295.686 321.675 295.156 319.146 294.087C316.597 293.017 314.668 291.638 313.369 289.949L317.687 284.011C320.125 286.73 323.064 288.09 326.532 288.09C329.131 288.09 331.14 287.4 332.589 286.01C334.029 284.631 334.738 282.662 334.738 280.123V278.164C332.49 280.713 329.531 281.982 325.863 281.982C321.475 281.982 317.916 280.263 315.198 276.825C312.489 273.386 311.13 268.839 311.13 263.161V262.761ZM320.895 263.461C320.895 266.77 321.565 269.368 322.884 271.247C324.213 273.127 326.033 274.066 328.351 274.066C331.33 274.066 333.459 272.947 334.738 270.728V255.345C333.439 253.116 331.33 251.997 328.421 251.997C326.083 251.997 324.233 252.956 322.904 254.875C321.565 256.784 320.895 259.643 320.895 263.461ZM372.581 253.886C371.251 253.716 370.072 253.626 369.072 253.626C365.364 253.626 362.945 254.875 361.806 257.374V281.303H352.04V244.75H361.266L361.526 249.108C363.485 245.749 366.194 244.07 369.672 244.07C370.752 244.07 371.771 244.22 372.711 244.5L372.581 253.886ZM387.574 281.303H377.778V244.75H387.574V281.303ZM377.198 235.294C377.198 233.825 377.698 232.616 378.678 231.666C379.657 230.726 380.997 230.257 382.676 230.257C384.345 230.257 385.675 230.726 386.664 231.666C387.654 232.616 388.153 233.825 388.153 235.294C388.153 236.764 387.644 237.993 386.644 238.933C385.645 239.882 384.325 240.352 382.676 240.352C381.027 240.352 379.717 239.882 378.708 238.933C377.708 237.993 377.198 236.764 377.198 235.294Z" fill="#05A155"/>
<path fill-rule="evenodd" clip-rule="evenodd" d="M158.741 108.134C153.734 111.023 147.367 111.233 141.989 108.134C136.622 105.036 133.623 99.4083 133.613 93.631C138.631 90.7423 144.998 90.5324 150.365 93.631C155.733 96.7295 158.741 102.357 158.741 108.134Z" fill="#05A155"/>
<path fill-rule="evenodd" clip-rule="evenodd" d="M147.836 138.49C144.948 143.498 139.53 146.866 133.333 146.866C127.136 146.866 121.719 143.498 118.82 138.49C121.719 133.492 127.136 130.124 133.333 130.124C139.53 130.124 144.948 133.492 147.836 138.49Z" fill="#05A155"/>
<path fill-rule="evenodd" clip-rule="evenodd" d="M211.077 77.0488C216.694 73.7903 220.482 67.7132 220.482 60.7465C220.482 53.7898 216.694 47.7126 211.077 44.4541C205.449 47.7126 201.671 53.7898 201.671 60.7465C201.671 67.7132 205.449 73.7903 211.077 77.0488Z" fill="#05A155"/>
<path fill-rule="evenodd" clip-rule="evenodd" d="M265.841 106.875C270.849 109.763 277.216 109.973 282.593 106.875C287.96 103.776 290.959 98.1489 290.969 92.3716C285.951 89.4829 279.584 89.273 274.217 92.3716C268.849 95.4701 265.841 101.097 265.841 106.875Z" fill="#05A155"/>
<path fill-rule="evenodd" clip-rule="evenodd" d="M274.307 138.49C277.206 143.498 282.613 146.866 288.82 146.866C295.017 146.866 300.425 143.498 303.323 138.49C300.425 133.492 295.017 130.124 288.82 130.124C282.613 130.124 277.206 133.492 274.307 138.49Z" fill="#05A155"/>
<path fill-rule="evenodd" clip-rule="evenodd" d="M190.047 60.0268C194.135 55.9387 195.984 49.8316 194.385 43.8444C192.775 37.8573 188.127 33.4993 182.54 32C178.452 36.0981 176.603 42.1952 178.202 48.1824C179.811 54.1696 184.469 58.5275 190.047 60.0268Z" fill="#05A155"/>
<path fill-rule="evenodd" clip-rule="evenodd" d="M153.634 81.0569C155.123 75.4595 153.684 69.2525 149.296 64.8745C144.918 60.4866 138.701 59.0473 133.113 60.5366C131.624 66.1239 133.073 72.331 137.451 76.7189C141.839 81.0969 148.046 82.5462 153.634 81.0569Z" fill="#05A155"/>
<path fill-rule="evenodd" clip-rule="evenodd" d="M132.614 117.47C131.104 111.882 126.746 107.225 120.759 105.625C114.772 104.016 108.675 105.875 104.587 109.963C106.086 115.541 110.444 120.199 116.431 121.808C122.418 123.407 128.516 121.558 132.614 117.47Z" fill="#05A155"/>
<path fill-rule="evenodd" clip-rule="evenodd" d="M132.614 159.52C128.516 155.432 122.418 153.583 116.431 155.182C110.444 156.791 106.086 161.439 104.587 167.026C108.675 171.115 114.772 172.964 120.759 171.364C126.746 169.755 131.104 165.107 132.614 159.52Z" fill="#05A155"/>
<path fill-rule="evenodd" clip-rule="evenodd" d="M232.097 60.0268C237.684 58.5275 242.342 54.1696 243.941 48.1824C245.55 42.1952 243.691 36.0981 239.613 32C234.026 33.4993 229.368 37.8573 227.769 43.8444C226.16 49.8316 228.019 55.9387 232.097 60.0268Z" fill="#05A155"/>
<path fill-rule="evenodd" clip-rule="evenodd" d="M268.52 81.0569C274.107 82.5462 280.314 81.0969 284.692 76.7189C289.08 72.331 290.519 66.1239 289.03 60.5366C283.443 59.0473 277.236 60.4866 272.848 64.8745C268.47 69.2525 267.02 75.4595 268.52 81.0569Z" fill="#05A155"/>
<path fill-rule="evenodd" clip-rule="evenodd" d="M289.54 117.47C293.638 121.558 299.735 123.407 305.722 121.798C311.709 120.199 316.067 115.541 317.567 109.963C313.478 105.875 307.371 104.016 301.384 105.625C295.397 107.225 291.039 111.882 289.54 117.47Z" fill="#05A155"/>
<path fill-rule="evenodd" clip-rule="evenodd" d="M289.54 159.52C291.039 165.107 295.397 169.755 301.384 171.364C307.371 172.964 313.478 171.115 317.567 167.026C316.067 161.439 311.709 156.791 305.722 155.182C299.735 153.583 293.638 155.432 289.54 159.52Z" fill="#05A155"/>
<path fill-rule="evenodd" clip-rule="evenodd" d="M184.819 94.3807C177.762 94.3807 170.906 90.7124 167.127 84.1655C163.339 77.6185 163.599 69.8422 167.117 63.7251C174.174 63.7351 181.041 67.3934 184.819 73.9503C188.597 80.4972 188.347 88.2735 184.819 94.3807Z" fill="#05A155"/>
<path fill-rule="evenodd" clip-rule="evenodd" d="M237.324 94.3807C244.381 94.3807 251.248 90.7124 255.026 84.1655C258.804 77.6185 258.554 69.8422 255.026 63.7251C247.969 63.7351 241.113 67.3934 237.334 73.9503C233.546 80.4972 233.806 88.2735 237.324 94.3807Z" fill="#05A155"/>
<path fill-rule="evenodd" clip-rule="evenodd" d="M265.841 170.115C265.841 175.892 268.849 181.52 274.217 184.618C279.584 187.717 285.951 187.507 290.969 184.618C290.959 178.831 287.96 173.214 282.593 170.115C277.216 167.016 270.849 167.226 265.841 170.115Z" fill="#05A155"/>
<path fill-rule="evenodd" clip-rule="evenodd" d="M156.312 170.115C156.302 175.892 153.304 181.52 147.936 184.618C142.569 187.717 136.192 187.507 131.184 184.618C131.184 178.831 134.193 173.214 139.56 170.115C144.928 167.016 151.305 167.226 156.312 170.115Z" fill="#05A155"/>
<path d="M249.259 164.188H239.054L228.668 174.563V205.109H283.932V212.315H221.462V171.584L236.065 156.981H249.259V164.188Z" fill="#A05148"/>
<path d="M208.558 157.511L223.051 143.018V123.837L230.767 116.11L235.835 121.208L230.258 126.785V144.507L229.198 147.056L213.655 162.609L208.558 157.511Z" fill="#A05148"/>
<path d="M258.125 133.942L243.951 148.115H226.649V140.909H240.973L253.027 128.854L258.125 133.942Z" fill="#A05148"/>
<path d="M255.606 156.861C255.096 156.861 254.616 156.951 254.196 157.131C253.757 157.311 253.357 157.581 253.007 157.931C252.337 158.6 251.927 159.52 251.927 160.53C251.927 161.049 252.027 161.529 252.197 161.949C252.377 162.379 252.657 162.788 253.007 163.138C253.357 163.478 253.757 163.758 254.196 163.938C254.616 164.108 255.096 164.208 255.606 164.208C256.125 164.208 256.595 164.108 257.025 163.938C257.455 163.758 257.855 163.478 258.204 163.138C258.554 162.788 258.834 162.379 259.014 161.949C259.184 161.529 259.284 161.049 259.284 160.53C259.284 160.03 259.184 159.55 259.014 159.13V159.12C258.834 158.69 258.554 158.281 258.204 157.931C257.855 157.581 257.455 157.311 257.025 157.131C256.595 156.951 256.125 156.861 255.606 156.861ZM252.167 152.203C253.237 151.754 254.406 151.514 255.606 151.514C256.815 151.514 257.975 151.754 259.044 152.203C260.164 152.663 261.163 153.333 261.983 154.153C262.802 154.972 263.472 155.962 263.932 157.081H263.942C264.382 158.151 264.631 159.32 264.631 160.53C264.631 161.739 264.382 162.898 263.942 163.978C263.472 165.097 262.802 166.097 261.983 166.917C261.163 167.736 260.174 168.406 259.044 168.866C257.975 169.305 256.815 169.555 255.606 169.555C254.406 169.555 253.237 169.305 252.167 168.866C251.048 168.406 250.048 167.736 249.229 166.917C248.409 166.097 247.739 165.097 247.27 163.978C246.83 162.898 246.58 161.739 246.58 160.53C246.58 158.041 247.589 155.782 249.229 154.153C250.048 153.333 251.048 152.663 252.167 152.203Z" fill="#A05148"/>
<path d="M260.064 123.227C259.554 123.227 259.074 123.327 258.654 123.507C258.224 123.677 257.815 123.957 257.465 124.307C257.115 124.656 256.845 125.056 256.665 125.496C256.485 125.916 256.395 126.396 256.395 126.905C256.395 127.425 256.485 127.895 256.665 128.325C256.845 128.754 257.115 129.154 257.465 129.504C257.815 129.854 258.224 130.134 258.654 130.314C259.074 130.484 259.554 130.584 260.064 130.584C260.583 130.584 261.063 130.484 261.483 130.314C261.913 130.134 262.313 129.854 262.662 129.504C263.012 129.154 263.292 128.754 263.472 128.325C263.642 127.895 263.742 127.425 263.742 126.905C263.742 126.396 263.642 125.916 263.472 125.496C263.292 125.056 263.012 124.656 262.662 124.307C262.313 123.957 261.913 123.677 261.483 123.507C261.063 123.327 260.583 123.227 260.064 123.227ZM256.625 118.569C257.695 118.129 258.864 117.88 260.064 117.88C261.273 117.88 262.432 118.129 263.512 118.569C264.631 119.039 265.631 119.709 266.451 120.528C267.27 121.348 267.94 122.348 268.4 123.467C268.849 124.536 269.089 125.706 269.089 126.905C269.089 128.115 268.849 129.274 268.4 130.344C267.94 131.473 267.27 132.463 266.451 133.282C265.631 134.102 264.631 134.772 263.512 135.241C262.432 135.681 261.273 135.931 260.064 135.931C258.864 135.931 257.695 135.681 256.625 135.241C255.506 134.772 254.506 134.102 253.687 133.282C252.867 132.463 252.197 131.473 251.738 130.344C251.288 129.274 251.048 128.115 251.048 126.905C251.048 125.706 251.288 124.536 251.738 123.467C252.197 122.348 252.867 121.348 253.687 120.528C254.506 119.709 255.506 119.039 256.625 118.569Z" fill="#A05148"/>
<path d="M237.794 110.493C237.284 110.493 236.815 110.593 236.395 110.763H236.385C235.945 110.943 235.545 111.223 235.195 111.573C234.845 111.922 234.566 112.322 234.386 112.752C234.216 113.182 234.116 113.652 234.116 114.171C234.116 114.681 234.216 115.161 234.386 115.581C234.566 116.02 234.845 116.42 235.195 116.77C235.855 117.44 236.775 117.85 237.794 117.85C238.314 117.85 238.784 117.75 239.213 117.58C239.643 117.4 240.043 117.12 240.393 116.77C240.743 116.42 241.023 116.02 241.202 115.581C241.372 115.161 241.472 114.681 241.472 114.171C241.472 113.652 241.372 113.182 241.202 112.752C241.023 112.322 240.743 111.922 240.393 111.573C240.043 111.223 239.643 110.943 239.213 110.763C238.784 110.593 238.314 110.493 237.794 110.493ZM234.346 105.845V105.835C235.415 105.395 236.585 105.146 237.794 105.146C239.004 105.146 240.163 105.395 241.232 105.835C242.352 106.305 243.351 106.975 244.171 107.794C244.991 108.614 245.66 109.613 246.13 110.733C246.57 111.802 246.82 112.962 246.82 114.171C246.82 115.381 246.57 116.54 246.13 117.61C245.66 118.729 244.991 119.729 244.171 120.548C243.351 121.368 242.362 122.038 241.232 122.507C240.163 122.947 239.004 123.197 237.794 123.197C235.305 123.197 233.046 122.188 231.417 120.548C230.597 119.729 229.928 118.729 229.458 117.61C229.018 116.54 228.768 115.381 228.768 114.171C228.768 112.962 229.018 111.802 229.458 110.733C229.928 109.603 230.597 108.614 231.417 107.794C232.237 106.975 233.226 106.305 234.346 105.845Z" fill="#A05148"/>
<path d="M211.017 93.8509C210.497 93.8509 210.017 93.9508 209.597 94.1208C209.168 94.3007 208.768 94.5806 208.418 94.9304L208.408 94.9204C208.068 95.2702 207.798 95.6701 207.608 96.1099C207.438 96.5297 207.338 97.0094 207.338 97.5292C207.338 98.0389 207.438 98.5187 207.608 98.9385C207.788 99.3783 208.068 99.7781 208.418 100.128C208.768 100.478 209.168 100.748 209.597 100.928C210.017 101.107 210.497 101.207 211.017 101.207C211.526 101.207 212.006 101.107 212.426 100.928C212.856 100.758 213.266 100.478 213.615 100.128C213.965 99.7781 214.235 99.3783 214.415 98.9385C214.595 98.5187 214.695 98.0389 214.695 97.5292C214.695 97.0094 214.595 96.5297 214.415 96.1099C214.235 95.6701 213.965 95.2702 213.615 94.9204V94.9304C213.266 94.5806 212.856 94.3007 212.426 94.1208C212.006 93.9508 211.526 93.8509 211.017 93.8509ZM207.578 89.1931C208.648 88.7533 209.807 88.5034 211.017 88.5034C212.216 88.5034 213.386 88.7533 214.455 89.1931C215.575 89.6529 216.574 90.3326 217.394 91.1422V91.1522C218.213 91.9818 218.893 92.9813 219.343 94.0908C219.793 95.1603 220.032 96.3197 220.032 97.5292C220.032 98.7286 219.793 99.8981 219.343 100.968C218.883 102.087 218.213 103.087 217.394 103.906C216.574 104.726 215.575 105.395 214.455 105.855C213.386 106.305 212.216 106.545 211.017 106.545C209.807 106.545 208.648 106.305 207.578 105.855C206.449 105.395 205.459 104.726 204.64 103.906C203.81 103.087 203.15 102.087 202.681 100.968C202.241 99.8981 201.991 98.7286 201.991 97.5292C201.991 96.3197 202.241 95.1603 202.681 94.0908C203.14 92.9813 203.81 91.9818 204.64 91.1522V91.1422C205.459 90.3326 206.449 89.6529 207.578 89.1931Z" fill="#A05148"/>
<path d="M207.398 212.315V103.876H214.625V212.315H207.398Z" fill="#A05148"/>
<path d="M138.221 205.109H193.385V186.887L184.889 178.391H178.412V171.185H187.878L200.592 183.909V212.315H138.221V205.109Z" fill="#A05148"/>
<path d="M172.065 171.035C171.555 171.035 171.075 171.135 170.656 171.314C170.216 171.484 169.816 171.764 169.466 172.114C169.116 172.464 168.837 172.864 168.657 173.304C168.487 173.723 168.387 174.203 168.387 174.713C168.387 175.233 168.487 175.702 168.657 176.132C168.837 176.562 169.116 176.962 169.466 177.312C169.816 177.661 170.216 177.941 170.656 178.121C171.075 178.291 171.555 178.391 172.065 178.391C172.585 178.391 173.055 178.291 173.484 178.121C173.914 177.941 174.314 177.661 174.664 177.312C175.014 176.962 175.294 176.562 175.473 176.132C175.643 175.702 175.743 175.233 175.743 174.713C175.743 174.203 175.643 173.723 175.473 173.304C175.294 172.864 175.014 172.464 174.664 172.114C174.314 171.764 173.914 171.484 173.484 171.314C173.055 171.135 172.585 171.035 172.065 171.035ZM168.627 166.377C169.696 165.937 170.856 165.687 172.065 165.687C173.274 165.687 174.434 165.937 175.503 166.377C176.623 166.847 177.622 167.516 178.442 168.336C179.262 169.155 179.931 170.155 180.401 171.274C180.841 172.344 181.091 173.513 181.091 174.713C181.091 175.922 180.841 177.082 180.401 178.151C179.931 179.281 179.262 180.27 178.442 181.09C177.622 181.909 176.623 182.579 175.503 183.049C174.434 183.489 173.274 183.739 172.065 183.739C170.856 183.739 169.696 183.489 168.627 183.049C167.507 182.579 166.508 181.909 165.688 181.09C164.868 180.27 164.199 179.281 163.729 178.151C163.289 177.082 163.039 175.922 163.039 174.713C163.039 173.513 163.289 172.344 163.729 171.274C164.199 170.155 164.868 169.155 165.688 168.336C166.508 167.516 167.507 166.847 168.627 166.377Z" fill="#A05148"/>
<path d="M208.398 177.282L190.246 158.001L189.267 155.542V135.141L180.321 122.507L186.178 118.369L196.474 132.912V154.123L213.635 172.354L208.398 177.282Z" fill="#A05148"/>
<path d="M171.355 145.267L177.193 151.934H192.865V159.14H173.954L165.948 149.994L171.355 145.267Z" fill="#A05148"/>
<path d="M165.068 133.852C166.288 133.932 167.437 134.262 168.467 134.772C169.536 135.301 170.476 136.031 171.255 136.921C172.025 137.8 172.635 138.84 173.015 139.979C173.384 141.069 173.554 142.248 173.474 143.458C173.394 144.667 173.065 145.816 172.555 146.846C172.025 147.915 171.295 148.865 170.406 149.635C169.516 150.414 168.487 151.024 167.357 151.404H167.347C166.258 151.764 165.078 151.934 163.869 151.854C162.659 151.774 161.51 151.454 160.48 150.944C159.411 150.414 158.461 149.675 157.692 148.785C156.912 147.905 156.312 146.876 155.933 145.736L155.923 145.746C155.553 144.647 155.393 143.468 155.473 142.258C155.553 141.039 155.873 139.889 156.382 138.86C156.912 137.79 157.652 136.841 158.531 136.071C159.421 135.291 160.46 134.692 161.58 134.312H161.59C162.689 133.942 163.859 133.772 165.068 133.852ZM166.108 139.549C165.688 139.349 165.218 139.21 164.718 139.18C164.219 139.15 163.739 139.21 163.299 139.359C162.829 139.519 162.4 139.769 162.05 140.079C161.69 140.399 161.39 140.779 161.17 141.219C160.96 141.638 160.83 142.108 160.8 142.608C160.77 143.108 160.83 143.587 160.98 144.027V144.037C161.14 144.497 161.38 144.917 161.7 145.277C162.01 145.637 162.4 145.936 162.839 146.156C163.259 146.366 163.729 146.496 164.229 146.526C164.728 146.556 165.208 146.496 165.648 146.346C166.118 146.186 166.538 145.936 166.897 145.627C167.257 145.317 167.557 144.927 167.777 144.487C167.977 144.067 168.107 143.597 168.147 143.098C168.177 142.598 168.107 142.108 167.957 141.668C167.807 141.209 167.557 140.789 167.247 140.429C166.927 140.069 166.548 139.769 166.108 139.549Z" fill="#A05148"/>
<path d="M181.101 106.365C182.3 106.565 183.41 107.005 184.389 107.624C185.389 108.254 186.258 109.084 186.938 110.053C187.618 111.013 188.117 112.112 188.377 113.262C188.637 114.391 188.677 115.581 188.477 116.77C188.267 117.97 187.828 119.079 187.218 120.059C186.578 121.068 185.749 121.928 184.799 122.607H184.789C183.82 123.287 182.73 123.787 181.571 124.047C180.451 124.307 179.262 124.347 178.062 124.147C176.863 123.937 175.753 123.497 174.784 122.877C173.764 122.238 172.895 121.408 172.215 120.448H172.225C171.545 119.499 171.056 118.399 170.786 117.24C170.536 116.11 170.486 114.921 170.696 113.732C170.896 112.532 171.335 111.423 171.955 110.443C172.585 109.444 173.414 108.574 174.384 107.894V107.884C175.333 107.215 176.423 106.725 177.592 106.455C178.722 106.205 179.911 106.155 181.101 106.365ZM181.551 112.132C181.161 111.882 180.701 111.712 180.211 111.623C179.701 111.543 179.222 111.553 178.772 111.663C178.302 111.762 177.852 111.972 177.453 112.252L177.443 112.242C177.063 112.512 176.733 112.872 176.463 113.292C176.223 113.682 176.043 114.131 175.963 114.631C175.873 115.131 175.893 115.621 175.993 116.07C176.093 116.54 176.293 116.98 176.573 117.37L176.583 117.38C176.863 117.78 177.213 118.109 177.622 118.369C178.012 118.619 178.462 118.789 178.962 118.879C179.462 118.959 179.951 118.949 180.401 118.849C180.881 118.739 181.321 118.539 181.71 118.269V118.259C182.1 117.98 182.44 117.62 182.7 117.21C182.95 116.82 183.13 116.37 183.21 115.871C183.3 115.371 183.28 114.881 183.18 114.431C183.07 113.951 182.87 113.502 182.59 113.122C182.32 112.732 181.97 112.392 181.551 112.132Z" fill="#A05148"/>
</svg>
