<svg width="56" height="62" viewBox="0 0 56 62" fill="none" xmlns="http://www.w3.org/2000/svg">
<path d="M1.60262 56.5134V59.254H0V51.4748H3.03296C3.61616 51.4748 4.1314 51.5823 4.57394 51.7957C5.01648 52.009 5.35787 52.3141 5.59652 52.706C5.83518 53.0996 5.95371 53.5484 5.95371 54.0494C5.95371 54.8112 5.69293 55.4134 5.17137 55.8528C4.64981 56.2922 3.9291 56.5134 3.00609 56.5134H1.60262ZM1.60262 55.2143H3.03296C3.45653 55.2143 3.78054 55.1147 4.00339 54.9156C4.22624 54.7164 4.33687 54.4303 4.33687 54.0605C4.33687 53.6796 4.22466 53.3714 4.00023 53.1359C3.7758 52.9004 3.46602 52.7803 3.06932 52.774H1.60262V55.2143ZM9.61413 59.3615C8.76541 59.3615 8.07631 59.1007 7.54369 58.5807C7.01106 58.0607 6.74554 57.3685 6.74554 56.5024V56.3522C6.74554 55.7722 6.85617 55.2538 7.0806 54.7954C7.30503 54.3371 7.62429 53.9846 8.03522 53.7381C8.44615 53.4899 8.91555 53.3667 9.44186 53.3667C10.2337 53.3667 10.8548 53.6164 11.31 54.1142C11.7636 54.6137 11.9912 55.3186 11.9912 56.2337V56.8643H8.31023C8.3608 57.242 8.51095 57.5455 8.76225 57.7731C9.01354 58.0007 9.33123 58.1161 9.71529 58.1161C10.3096 58.1161 10.7758 57.9011 11.1093 57.4681L11.8679 58.3184C11.6356 58.6455 11.3242 58.9016 10.9275 59.0849C10.5324 59.2698 10.0946 59.3615 9.61413 59.3615ZM9.43712 54.6168C9.1305 54.6168 8.88237 54.7212 8.69271 54.9266C8.50147 55.1321 8.37977 55.4276 8.32603 55.8133H10.4739V55.69C10.4676 55.3486 10.3743 55.0831 10.1958 54.8982C10.0187 54.7101 9.76428 54.6168 9.43712 54.6168ZM15.5268 59.3615C14.6796 59.3615 13.9889 59.1007 13.4563 58.5807C12.9253 58.0607 12.6582 57.3685 12.6582 56.5024V56.3522C12.6582 55.7722 12.7704 55.2538 12.9948 54.7954C13.2177 54.3371 13.5369 53.9846 13.9478 53.7381C14.3603 53.4899 14.8282 53.3667 15.3545 53.3667C16.1463 53.3667 16.769 53.6164 17.2226 54.1142C17.6762 54.6137 17.9038 55.3186 17.9038 56.2337V56.8643H14.2228C14.2734 57.242 14.4236 57.5455 14.6749 57.7731C14.9262 58.0007 15.2438 58.1161 15.6279 58.1161C16.2237 58.1161 16.6884 57.9011 17.0219 57.4681L17.7805 58.3184C17.5482 58.6455 17.2368 58.9016 16.8417 59.0849C16.445 59.2698 16.0072 59.3615 15.5268 59.3615ZM15.3497 54.6168C15.0431 54.6168 14.795 54.7212 14.6053 54.9266C14.4141 55.1321 14.2924 55.4276 14.2387 55.8133H16.3865V55.69C16.3802 55.3486 16.287 55.0831 16.1084 54.8982C15.9314 54.7101 15.6785 54.6168 15.3497 54.6168ZM23.9824 56.417C23.9824 57.3084 23.7801 58.0212 23.3755 58.557C22.9725 59.0928 22.4256 59.3615 21.7381 59.3615C21.1549 59.3615 20.6823 59.1592 20.3235 58.7514V61.4762H18.7794V53.4741H20.2113L20.2651 54.04C20.6396 53.5895 21.1264 53.3667 21.727 53.3667C22.4398 53.3667 22.9946 53.6306 23.3897 54.1569C23.7848 54.6848 23.9824 55.4102 23.9824 56.3364V56.417ZM22.4382 56.3032C22.4382 55.7659 22.3434 55.3518 22.1522 55.0578C21.9625 54.767 21.6859 54.62 21.3224 54.62C20.8372 54.62 20.5053 54.8065 20.3235 55.1763V57.5439C20.5116 57.9248 20.8483 58.1161 21.3335 58.1161C22.07 58.1161 22.4382 57.5123 22.4382 56.3032ZM28.3999 58.6661C28.0174 59.1291 27.4911 59.3615 26.8178 59.3615C26.1982 59.3615 25.7257 59.1829 25.4001 58.8273C25.0745 58.4717 24.907 57.9485 24.9007 57.261V53.4741H26.4448V57.2073C26.4448 57.8094 26.7198 58.1097 27.2667 58.1097C27.7898 58.1097 28.1517 57.928 28.3461 57.5645V53.4741H29.8966V59.254H28.4425L28.3999 58.6661ZM32.6893 59.254H31.1389V51.0481H32.6893V59.254ZM41.1766 57.6514H38.3664L37.8322 59.254H36.13L39.0239 51.4748H40.5096L43.4209 59.254H41.7171L41.1766 57.6514ZM38.7995 56.3522H40.7451L39.7668 53.441L38.7995 56.3522ZM43.8207 56.3222C43.8207 55.434 44.0325 54.7196 44.4529 54.1775C44.8765 53.6354 45.4455 53.3667 46.1599 53.3667C46.7936 53.3667 47.2883 53.5832 47.6408 54.0194L47.704 53.4741H49.1043V59.0596C49.1043 59.5669 48.9889 60.0063 48.7598 60.3809C48.5306 60.7539 48.2066 61.0384 47.7893 61.2359C47.3721 61.4303 46.8853 61.5283 46.3258 61.5283C45.9022 61.5283 45.4881 61.4446 45.0883 61.2755C44.6852 61.1063 44.3802 60.8882 44.1748 60.6211L44.8575 59.6823C45.2432 60.1122 45.7078 60.3272 46.2563 60.3272C46.6672 60.3272 46.9849 60.2181 47.214 59.9984C47.4416 59.7803 47.5538 59.469 47.5538 59.0675V58.7577C47.1982 59.1608 46.7304 59.3615 46.1504 59.3615C45.4565 59.3615 44.8939 59.0896 44.464 58.5459C44.0357 58.0023 43.8207 57.2831 43.8207 56.3854V56.3222ZM45.3649 56.4328C45.3649 56.956 45.4708 57.3669 45.6794 57.664C45.8896 57.9612 46.1772 58.1097 46.5439 58.1097C47.0149 58.1097 47.3515 57.9327 47.5538 57.5818V55.1495C47.3484 54.797 47.0149 54.62 46.555 54.62C46.1851 54.62 45.8927 54.7717 45.6825 55.0752C45.4708 55.3771 45.3649 55.8291 45.3649 56.4328ZM53.5376 54.9187C53.3274 54.8919 53.1409 54.8776 52.9828 54.8776C52.3965 54.8776 52.014 55.0752 51.8338 55.4703V59.254H50.2897V53.4741H51.7485L51.7896 54.1632C52.0993 53.6322 52.5277 53.3667 53.0777 53.3667C53.2484 53.3667 53.4096 53.3904 53.5581 53.4346L53.5376 54.9187ZM55.9083 59.254H54.3594V53.4741H55.9083V59.254ZM54.2678 51.979C54.2678 51.7467 54.3468 51.5554 54.5017 51.4053C54.6566 51.2567 54.8684 51.1824 55.1339 51.1824C55.3978 51.1824 55.608 51.2567 55.7645 51.4053C55.921 51.5554 56 51.7467 56 51.979C56 52.2113 55.9194 52.4057 55.7613 52.5543C55.6033 52.7044 55.3947 52.7787 55.1339 52.7787C54.8731 52.7787 54.6661 52.7044 54.5064 52.5543C54.3484 52.4057 54.2678 52.2113 54.2678 51.979Z" fill="white"/>
<path fill-rule="evenodd" clip-rule="evenodd" d="M14.2394 20.0184C12.9227 20.778 11.2486 20.8331 9.83469 20.0184C8.42339 19.2037 7.63495 17.7241 7.63232 16.205C8.95164 15.4455 10.6258 15.3903 12.0371 16.205C13.4484 17.0197 14.2394 18.4994 14.2394 20.0184Z" fill="white"/>
<path fill-rule="evenodd" clip-rule="evenodd" d="M11.3716 28C10.6121 29.3167 9.18765 30.2024 7.55822 30.2024C5.92878 30.2024 4.50434 29.3167 3.74219 28C4.50434 26.686 5.92878 25.8003 7.55822 25.8003C9.18765 25.8003 10.6121 26.686 11.3716 28Z" fill="white"/>
<path fill-rule="evenodd" clip-rule="evenodd" d="M27.9999 11.845C29.4769 10.9882 30.473 9.3903 30.473 7.5585C30.473 5.72933 29.4769 4.13143 27.9999 3.27466C26.5203 4.13143 25.5269 5.72933 25.5269 7.5585C25.5269 9.3903 26.5203 10.9882 27.9999 11.845Z" fill="white"/>
<path fill-rule="evenodd" clip-rule="evenodd" d="M42.3994 19.6873C43.7161 20.4468 45.3902 20.502 46.8041 19.6873C48.2154 18.8725 49.0039 17.3929 49.0065 15.8738C47.6872 15.1143 46.0131 15.0591 44.6018 15.8738C43.1905 16.6886 42.3994 18.1682 42.3994 19.6873Z" fill="white"/>
<path fill-rule="evenodd" clip-rule="evenodd" d="M44.6255 28C45.3876 29.3167 46.8095 30.2024 48.4415 30.2024C50.071 30.2024 51.4928 29.3167 52.2549 28C51.4928 26.686 50.071 25.8003 48.4415 25.8003C46.8095 25.8003 45.3876 26.686 44.6255 28Z" fill="white"/>
<path fill-rule="evenodd" clip-rule="evenodd" d="M22.4704 7.36925C23.5453 6.29435 24.0315 4.68857 23.611 3.11432C23.1879 1.54008 21.9658 0.394218 20.4967 0C19.4218 1.07753 18.9356 2.68068 19.3561 4.25493C19.7792 5.82917 21.0039 6.97503 22.4704 7.36925Z" fill="white"/>
<path fill-rule="evenodd" clip-rule="evenodd" d="M12.8965 12.8988C13.2881 11.4271 12.9096 9.795 11.7559 8.64388C10.6047 7.49014 8.97006 7.11168 7.50094 7.50327C7.10935 8.97239 7.49042 10.6045 8.64154 11.7582C9.79529 12.9093 11.4274 13.2904 12.8965 12.8988Z" fill="white"/>
<path fill-rule="evenodd" clip-rule="evenodd" d="M7.36925 22.4731C6.97241 21.0039 5.82655 19.7792 4.25231 19.3587C2.67806 18.9356 1.0749 19.4244 0 20.4993C0.394218 21.9658 1.54008 23.1905 3.11432 23.6137C4.68857 24.0342 6.29172 23.548 7.36925 22.4731Z" fill="white"/>
<path fill-rule="evenodd" clip-rule="evenodd" d="M7.36925 33.5295C6.29172 32.4546 4.68857 31.9684 3.11432 32.3889C1.54008 32.812 0.394218 34.0341 0 35.5032C1.0749 36.5781 2.67806 37.0643 4.25231 36.6438C5.82655 36.2207 6.97241 34.9986 7.36925 33.5295Z" fill="white"/>
<path fill-rule="evenodd" clip-rule="evenodd" d="M33.5269 7.36925C34.996 6.97503 36.2207 5.82917 36.6412 4.25493C37.0644 2.68068 36.5755 1.07753 35.5033 0C34.0341 0.394218 32.8094 1.54008 32.3889 3.11432C31.9658 4.68857 32.4546 6.29435 33.5269 7.36925Z" fill="white"/>
<path fill-rule="evenodd" clip-rule="evenodd" d="M43.104 12.8988C44.5732 13.2904 46.2052 12.9093 47.3563 11.7582C48.5101 10.6045 48.8885 8.97239 48.4969 7.50327C47.0278 7.11168 45.3958 7.49014 44.242 8.64388C43.0909 9.795 42.7098 11.4271 43.104 12.8988Z" fill="white"/>
<path fill-rule="evenodd" clip-rule="evenodd" d="M48.6309 22.4731C49.7084 23.548 51.3115 24.0342 52.8858 23.611C54.46 23.1905 55.6059 21.9658 56.0001 20.4993C54.9252 19.4244 53.3194 18.9356 51.7452 19.3587C50.1709 19.7792 49.0251 21.0039 48.6309 22.4731Z" fill="white"/>
<path fill-rule="evenodd" clip-rule="evenodd" d="M48.6309 33.5295C49.0251 34.9986 50.1709 36.2207 51.7452 36.6438C53.3194 37.0643 54.9252 36.5781 56.0001 35.5032C55.6059 34.0341 54.46 32.812 52.8858 32.3889C51.3115 31.9684 49.7084 32.4546 48.6309 33.5295Z" fill="white"/>
<path fill-rule="evenodd" clip-rule="evenodd" d="M21.0959 16.4021C19.2404 16.4021 17.4376 15.4376 16.4441 13.7162C15.4481 11.9948 15.5164 9.95008 16.4415 8.34167C18.297 8.3443 20.1025 9.3062 21.0959 11.0302C22.0893 12.7517 22.0236 14.7963 21.0959 16.4021Z" fill="white"/>
<path fill-rule="evenodd" clip-rule="evenodd" d="M34.9015 16.4021C36.7569 16.4021 38.5624 15.4376 39.5559 13.7162C40.5493 11.9948 40.4836 9.95008 39.5559 8.34167C37.7004 8.3443 35.8975 9.3062 34.9041 11.0302C33.908 12.7517 33.9764 14.7963 34.9015 16.4021Z" fill="white"/>
<path fill-rule="evenodd" clip-rule="evenodd" d="M42.3994 36.3154C42.3994 37.8344 43.1905 39.3141 44.6018 40.1288C46.0131 40.9435 47.6872 40.8883 49.0065 40.1288C49.0039 38.6071 48.2154 37.1301 46.8041 36.3154C45.3902 35.5007 43.7161 35.5558 42.3994 36.3154Z" fill="white"/>
<path fill-rule="evenodd" clip-rule="evenodd" d="M13.6003 36.3154C13.5976 37.8344 12.8092 39.3141 11.3979 40.1288C9.9866 40.9435 8.30985 40.8883 6.99316 40.1288C6.99316 38.6071 7.78423 37.1301 9.19553 36.3154C10.6068 35.5007 12.2836 35.5558 13.6003 36.3154Z" fill="white"/>
<path d="M38.0393 34.7569H35.356L32.6253 37.4849V45.5165H47.1562V47.4113H30.7305V36.7017L34.5701 32.8621H38.0393V34.7569Z" fill="white"/>
<path d="M27.3379 33.0014L31.1487 29.1906V24.1473L33.1776 22.1157L34.51 23.4561L33.0435 24.9226V29.5822L32.765 30.2524L28.6782 34.3417L27.3379 33.0014Z" fill="white"/>
<path d="M40.3707 26.8043L36.644 30.5309H32.0947V28.6361H35.8608L39.0303 25.4666L40.3707 26.8043Z" fill="white"/>
<path d="M39.7086 32.8305C39.5746 32.8305 39.4485 32.8541 39.3381 32.9014C39.2224 32.9487 39.1173 33.0197 39.0253 33.1117C38.8492 33.2878 38.7415 33.5296 38.7415 33.795C38.7415 33.9317 38.7678 34.0578 38.8125 34.1682C38.8598 34.2812 38.9333 34.389 39.0253 34.4809C39.1173 34.5703 39.2224 34.6439 39.3381 34.6912C39.4485 34.7359 39.5746 34.7621 39.7086 34.7621C39.8453 34.7621 39.9688 34.7359 40.0818 34.6912C40.1948 34.6439 40.3 34.5703 40.3919 34.4809C40.4839 34.389 40.5575 34.2812 40.6048 34.1682C40.6495 34.0578 40.6758 33.9317 40.6758 33.795C40.6758 33.6636 40.6495 33.5374 40.6048 33.4271V33.4244C40.5575 33.3114 40.4839 33.2037 40.3919 33.1117C40.3 33.0197 40.1948 32.9487 40.0818 32.9014C39.9688 32.8541 39.8453 32.8305 39.7086 32.8305ZM38.8046 31.6058C39.0858 31.4875 39.3933 31.4244 39.7086 31.4244C40.0266 31.4244 40.3315 31.4875 40.6127 31.6058C40.9071 31.7267 41.1699 31.9028 41.3854 32.1183C41.6009 32.3338 41.777 32.594 41.8979 32.8883H41.9005C42.0161 33.1695 42.0818 33.477 42.0818 33.795C42.0818 34.113 42.0161 34.4179 41.9005 34.7017C41.777 34.9961 41.6009 35.2589 41.3854 35.4744C41.1699 35.6899 40.9097 35.866 40.6127 35.9869C40.3315 36.1025 40.0266 36.1682 39.7086 36.1682C39.3933 36.1682 39.0858 36.1025 38.8046 35.9869C38.5102 35.866 38.2474 35.6899 38.0319 35.4744C37.8164 35.2589 37.6403 34.9961 37.5168 34.7017C37.4011 34.4179 37.3354 34.113 37.3354 33.795C37.3354 33.1406 37.6009 32.5466 38.0319 32.1183C38.2474 31.9028 38.5102 31.7267 38.8046 31.6058Z" fill="white"/>
<path d="M40.8803 23.9868C40.7463 23.9868 40.6201 24.0131 40.5098 24.0604C40.3968 24.1051 40.289 24.1787 40.197 24.2707C40.105 24.3627 40.0341 24.4678 39.9868 24.5834C39.9395 24.6938 39.9158 24.82 39.9158 24.954C39.9158 25.0907 39.9395 25.2142 39.9868 25.3272C40.0341 25.4402 40.105 25.5453 40.197 25.6373C40.289 25.7293 40.3968 25.8029 40.5098 25.8502C40.6201 25.8949 40.7463 25.9211 40.8803 25.9211C41.017 25.9211 41.1431 25.8949 41.2535 25.8502C41.3665 25.8029 41.4717 25.7293 41.5636 25.6373C41.6556 25.5453 41.7292 25.4402 41.7765 25.3272C41.8212 25.2142 41.8475 25.0907 41.8475 24.954C41.8475 24.82 41.8212 24.6938 41.7765 24.5834C41.7292 24.4678 41.6556 24.3627 41.5636 24.2707C41.4717 24.1787 41.3665 24.1051 41.2535 24.0604C41.1431 24.0131 41.017 23.9868 40.8803 23.9868ZM39.9763 22.7622C40.2575 22.6465 40.565 22.5808 40.8803 22.5808C41.1983 22.5808 41.5032 22.6465 41.787 22.7622C42.0814 22.8857 42.3442 23.0618 42.5597 23.2773C42.7752 23.4928 42.9513 23.7556 43.0722 24.0499C43.1904 24.3311 43.2535 24.6386 43.2535 24.954C43.2535 25.272 43.1904 25.5769 43.0722 25.8581C42.9513 26.1551 42.7752 26.4152 42.5597 26.6307C42.3442 26.8462 42.0814 27.0223 41.787 27.1459C41.5032 27.2615 41.1983 27.3272 40.8803 27.3272C40.565 27.3272 40.2575 27.2615 39.9763 27.1459C39.6819 27.0223 39.4191 26.8462 39.2036 26.6307C38.9881 26.4152 38.812 26.1551 38.6911 25.8581C38.5728 25.5769 38.5098 25.272 38.5098 24.954C38.5098 24.6386 38.5728 24.3311 38.6911 24.0499C38.812 23.7556 38.9881 23.4928 39.2036 23.2773C39.4191 23.0618 39.6819 22.8857 39.9763 22.7622Z" fill="white"/>
<path d="M35.025 20.6387C34.891 20.6387 34.7675 20.665 34.6571 20.7097H34.6545C34.5388 20.757 34.4337 20.8306 34.3417 20.9226C34.2498 21.0145 34.1762 21.1197 34.1289 21.2327C34.0842 21.3457 34.0579 21.4692 34.0579 21.6059C34.0579 21.7399 34.0842 21.866 34.1289 21.9764C34.1762 22.0921 34.2498 22.1972 34.3417 22.2892C34.5152 22.4653 34.757 22.573 35.025 22.573C35.1617 22.573 35.2852 22.5467 35.3982 22.502C35.5112 22.4547 35.6164 22.3812 35.7084 22.2892C35.8003 22.1972 35.8739 22.0921 35.9212 21.9764C35.9659 21.866 35.9922 21.7399 35.9922 21.6059C35.9922 21.4692 35.9659 21.3457 35.9212 21.2327C35.8739 21.1197 35.8003 21.0145 35.7084 20.9226C35.6164 20.8306 35.5112 20.757 35.3982 20.7097C35.2852 20.665 35.1617 20.6387 35.025 20.6387ZM34.1183 19.4166V19.414C34.3996 19.2984 34.707 19.2327 35.025 19.2327C35.3431 19.2327 35.6479 19.2984 35.9291 19.414C36.2235 19.5375 36.4863 19.7136 36.7018 19.9291C36.9173 20.1446 37.0934 20.4074 37.2169 20.7018C37.3325 20.983 37.3982 21.2879 37.3982 21.6059C37.3982 21.9239 37.3325 22.2287 37.2169 22.5099C37.0934 22.8043 36.9173 23.0671 36.7018 23.2826C36.4863 23.4981 36.2261 23.6742 35.9291 23.7977C35.6479 23.9133 35.3431 23.9791 35.025 23.9791C34.3706 23.9791 33.7767 23.7136 33.3483 23.2826C33.1328 23.0671 32.9567 22.8043 32.8332 22.5099C32.7176 22.2287 32.6519 21.9239 32.6519 21.6059C32.6519 21.2879 32.7176 20.983 32.8332 20.7018C32.9567 20.4048 33.1328 20.1446 33.3483 19.9291C33.5638 19.7136 33.824 19.5375 34.1183 19.4166Z" fill="white"/>
<path d="M27.9845 16.2629C27.8479 16.2629 27.7217 16.2891 27.6113 16.3338C27.4983 16.3811 27.3932 16.4547 27.3012 16.5467L27.2986 16.5441C27.2092 16.6361 27.1383 16.7412 27.0883 16.8568C27.0437 16.9672 27.0174 17.0933 27.0174 17.23C27.0174 17.364 27.0437 17.4902 27.0883 17.6006C27.1356 17.7162 27.2092 17.8213 27.3012 17.9133C27.3932 18.0053 27.4983 18.0763 27.6113 18.1236C27.7217 18.1709 27.8479 18.1972 27.9845 18.1972C28.1186 18.1972 28.2447 18.1709 28.3551 18.1236C28.4681 18.0789 28.5758 18.0053 28.6678 17.9133C28.7598 17.8213 28.8308 17.7162 28.8781 17.6006C28.9254 17.4902 28.9517 17.364 28.9517 17.23C28.9517 17.0933 28.9254 16.9672 28.8781 16.8568C28.8308 16.7412 28.7598 16.6361 28.6678 16.5441V16.5467C28.5758 16.4547 28.4681 16.3811 28.3551 16.3338C28.2447 16.2891 28.1186 16.2629 27.9845 16.2629ZM27.0804 15.0382C27.3617 14.9225 27.6665 14.8568 27.9845 14.8568C28.2999 14.8568 28.6074 14.9225 28.8886 15.0382C29.1829 15.159 29.4458 15.3378 29.6613 15.5506V15.5533C29.8768 15.7714 30.0555 16.0342 30.1737 16.3259C30.292 16.6071 30.3551 16.912 30.3551 17.23C30.3551 17.5454 30.292 17.8529 30.1737 18.1341C30.0529 18.4284 29.8768 18.6912 29.6613 18.9067C29.4458 19.1223 29.1829 19.2983 28.8886 19.4192C28.6074 19.5375 28.2999 19.6006 27.9845 19.6006C27.6665 19.6006 27.3617 19.5375 27.0804 19.4192C26.7835 19.2983 26.5233 19.1223 26.3078 18.9067C26.0896 18.6912 25.9162 18.4284 25.7927 18.1341C25.677 17.8529 25.6113 17.5454 25.6113 17.23C25.6113 16.912 25.677 16.6071 25.7927 16.3259C25.9136 16.0342 26.0896 15.7714 26.3078 15.5533V15.5506C26.5233 15.3378 26.7835 15.159 27.0804 15.0382Z" fill="white"/>
<path d="M27.0327 47.4113V18.8988H28.9328V47.4113H27.0327Z" fill="white"/>
<path d="M8.84375 45.5165H23.3483V40.7255L21.1144 38.4916H19.4114V36.5967H21.9003L25.2432 39.9423V47.4114H8.84375V45.5165Z" fill="white"/>
<path d="M17.7428 36.5573C17.6088 36.5573 17.4826 36.5836 17.3723 36.6309C17.2566 36.6756 17.1515 36.7491 17.0595 36.8411C16.9675 36.9331 16.8939 37.0382 16.8466 37.1539C16.802 37.2643 16.7757 37.3904 16.7757 37.5244C16.7757 37.6611 16.802 37.7846 16.8466 37.8976C16.8939 38.0106 16.9675 38.1158 17.0595 38.2078C17.1515 38.2997 17.2566 38.3733 17.3723 38.4206C17.4826 38.4653 17.6088 38.4916 17.7428 38.4916C17.8795 38.4916 18.003 38.4653 18.116 38.4206C18.229 38.3733 18.3342 38.2997 18.4261 38.2078C18.5181 38.1158 18.5917 38.0106 18.639 37.8976C18.6837 37.7846 18.71 37.6611 18.71 37.5244C18.71 37.3904 18.6837 37.2643 18.639 37.1539C18.5917 37.0382 18.5181 36.9331 18.4261 36.8411C18.3342 36.7491 18.229 36.6756 18.116 36.6309C18.003 36.5836 17.8795 36.5573 17.7428 36.5573ZM16.8387 35.3326C17.12 35.2169 17.4248 35.1512 17.7428 35.1512C18.0608 35.1512 18.3657 35.2169 18.6469 35.3326C18.9412 35.4561 19.2041 35.6322 19.4196 35.8477C19.6351 36.0632 19.8112 36.326 19.9347 36.6204C20.0503 36.9016 20.116 37.2091 20.116 37.5244C20.116 37.8424 20.0503 38.1473 19.9347 38.4285C19.8112 38.7255 19.6351 38.9857 19.4196 39.2012C19.2041 39.4167 18.9412 39.5928 18.6469 39.7163C18.3657 39.8319 18.0608 39.8976 17.7428 39.8976C17.4248 39.8976 17.12 39.8319 16.8387 39.7163C16.5444 39.5928 16.2816 39.4167 16.0661 39.2012C15.8506 38.9857 15.6745 38.7255 15.551 38.4285C15.4353 38.1473 15.3696 37.8424 15.3696 37.5244C15.3696 37.2091 15.4353 36.9016 15.551 36.6204C15.6745 36.326 15.8506 36.0632 16.0661 35.8477C16.2816 35.6322 16.5444 35.4561 16.8387 35.3326Z" fill="white"/>
<path d="M27.296 38.1997L22.5233 33.1301L22.2657 32.4836V27.1196L19.9136 23.7976L21.4536 22.7096L24.1606 26.5335V32.1104L28.6731 36.9041L27.296 38.1997Z" fill="white"/>
<path d="M17.5561 29.782L19.0909 31.5349H23.2118V33.4298H18.2394L16.1343 31.0251L17.5561 29.782Z" fill="white"/>
<path d="M15.9028 26.7806C16.2234 26.8016 16.5257 26.8884 16.7964 27.0224C17.0776 27.1617 17.3246 27.3535 17.5296 27.5874C17.732 27.8187 17.8923 28.092 17.9922 28.3917C18.0894 28.6781 18.1341 28.9882 18.1131 29.3062C18.092 29.6242 18.0053 29.9265 17.8713 30.1972C17.732 30.4784 17.5401 30.7281 17.3062 30.9304C17.0723 31.1354 16.8016 31.2957 16.5046 31.3956H16.502C16.2155 31.4902 15.9054 31.5349 15.5874 31.5139C15.2694 31.4928 14.9672 31.4087 14.6965 31.2747C14.4153 31.1354 14.1656 30.9409 13.9632 30.707C13.7583 30.4758 13.6006 30.2051 13.5007 29.9055L13.4981 29.9081C13.4008 29.619 13.3588 29.3089 13.3798 28.9909C13.4008 28.6702 13.4849 28.368 13.619 28.0973C13.7583 27.8161 13.9527 27.5664 14.184 27.3641C14.4179 27.1591 14.6912 27.0014 14.9856 26.9015H14.9882C15.2773 26.8043 15.5848 26.7596 15.9028 26.7806ZM16.1761 28.2786C16.0657 28.2261 15.9422 28.1893 15.8108 28.1814C15.6794 28.1735 15.5533 28.1893 15.4376 28.2287C15.3141 28.2708 15.2011 28.3365 15.1091 28.4179C15.0145 28.502 14.9357 28.6019 14.8778 28.7175C14.8226 28.8279 14.7885 28.9514 14.7806 29.0828C14.7727 29.2143 14.7885 29.3404 14.8279 29.456V29.4587C14.87 29.5796 14.933 29.6899 15.0171 29.7846C15.0986 29.8792 15.2011 29.958 15.3167 30.0158C15.4271 30.071 15.5506 30.1052 15.682 30.1131C15.8134 30.121 15.9396 30.1052 16.0552 30.0658C16.1788 30.0237 16.2891 29.958 16.3838 29.8765C16.4784 29.7951 16.5572 29.6926 16.615 29.5769C16.6676 29.4666 16.7018 29.343 16.7123 29.2116C16.7202 29.0802 16.7018 28.9514 16.6623 28.8358C16.6229 28.7149 16.5572 28.6045 16.4757 28.5099C16.3916 28.4153 16.2918 28.3365 16.1761 28.2786Z" fill="white"/>
<path d="M20.1181 19.5532C20.4335 19.6058 20.7252 19.7214 20.9827 19.8844C21.2455 20.0499 21.4742 20.2681 21.6529 20.523C21.8316 20.7753 21.963 21.0644 22.0314 21.3666C22.0997 21.6636 22.1102 21.9764 22.0576 22.2891C22.0024 22.6045 21.8868 22.8962 21.7265 23.1538C21.5583 23.4192 21.3402 23.6452 21.0905 23.8239H21.0879C20.8329 24.0026 20.5465 24.134 20.2416 24.2024C19.9473 24.2707 19.6345 24.2812 19.3191 24.2287C19.0038 24.1735 18.712 24.0578 18.4571 23.8949C18.189 23.7267 17.9604 23.5085 17.7817 23.2562H17.7843C17.6056 23.0066 17.4768 22.7175 17.4059 22.4126C17.3402 22.1156 17.327 21.8029 17.3822 21.4902C17.4348 21.1748 17.5504 20.8831 17.7134 20.6255C17.8789 20.3627 18.0971 20.134 18.352 19.9553V19.9527C18.6017 19.7766 18.8881 19.6478 19.1956 19.5769C19.4926 19.5112 19.8053 19.498 20.1181 19.5532ZM20.2363 21.0697C20.1338 21.004 20.013 20.9593 19.8842 20.9356C19.7501 20.9146 19.624 20.9172 19.5057 20.9461C19.3822 20.9724 19.2639 21.0276 19.1588 21.1012L19.1562 21.0986C19.0563 21.1695 18.9696 21.2641 18.8986 21.3745C18.8356 21.477 18.7882 21.5953 18.7672 21.7267C18.7436 21.8581 18.7488 21.9869 18.7751 22.1051C18.8014 22.2287 18.854 22.3443 18.9275 22.4468L18.9302 22.4494C19.0038 22.5545 19.0957 22.6413 19.2035 22.7096C19.306 22.7753 19.4243 22.82 19.5557 22.8436C19.6871 22.8647 19.8158 22.862 19.9341 22.8358C20.0603 22.8068 20.1759 22.7543 20.2784 22.6833V22.6807C20.3809 22.6071 20.4703 22.5125 20.5386 22.4047C20.6043 22.3022 20.6516 22.184 20.6726 22.0526C20.6963 21.9212 20.691 21.7924 20.6647 21.6741C20.6358 21.548 20.5833 21.4297 20.5097 21.3298C20.4387 21.2273 20.3467 21.138 20.2363 21.0697Z" fill="white"/>
</svg>
