<svg width="16" height="17" viewBox="0 0 16 17" fill="none" xmlns="http://www.w3.org/2000/svg">
<g clip-path="url(#clip0_287_6024)">
<path d="M8.00124 3.13378C8.72854 3.13378 9.31813 2.54419 9.31813 1.81689C9.31813 1.08959 8.72854 0.5 8.00124 0.5C7.27394 0.5 6.68435 1.08959 6.68435 1.81689C6.68435 2.54419 7.27394 3.13378 8.00124 3.13378Z" fill="#05A155"/>
<path d="M9.70685 3.55353C8.98792 3.55353 7.03003 3.55353 6.29563 3.55353C5.45633 3.55353 4.77016 4.2247 4.76603 5.04969C4.766 5.05076 4.766 5.05182 4.766 5.05289V9.721C4.766 10.0719 5.05048 10.3564 5.40142 10.3564C5.75236 10.3564 6.03684 10.0719 6.03684 9.721V5.05495C6.03819 4.93412 6.17167 4.82437 6.30611 4.82437C6.31062 7.70573 6.30611 12.8943 6.30611 15.7375C6.30611 16.1586 6.65301 16.5 7.07414 16.5C7.49522 16.5 7.83662 16.1586 7.83662 15.7375V9.64283H8.16583V15.7375C8.16583 16.1586 8.50722 16.5 8.92831 16.5C9.3494 16.5 9.69405 16.1586 9.69405 15.7375C9.69405 15.7327 9.69405 4.82775 9.69405 4.82434C9.82759 4.82434 9.96254 4.93478 9.96313 5.05285V9.72096C9.96313 10.0719 10.2476 10.3564 10.5986 10.3564C10.9495 10.3564 11.234 10.0719 11.234 9.72096V5.04969C11.2299 4.2247 10.5448 3.55353 9.70685 3.55353ZM8.00077 7.31391C7.27319 7.31391 6.68338 6.7241 6.68338 5.99652C6.68338 5.26894 7.27319 4.67913 8.00077 4.67913C8.72835 4.67913 9.31816 5.26894 9.31816 5.99652C9.31816 6.7241 8.72835 7.31391 8.00077 7.31391Z" fill="#05A155"/>
<ellipse cx="8.01562" cy="6.09375" rx="1.45312" ry="1.46875" fill="#05A155"/>
</g>
<defs>
<clipPath id="clip0_287_6024">
<rect width="16" height="16" fill="white" transform="translate(0 0.5)"/>
</clipPath>
</defs>
</svg>
