<svg width="16" height="17" viewBox="0 0 16 17" fill="none" xmlns="http://www.w3.org/2000/svg">
<g clip-path="url(#clip0_336_27348)">
<path d="M8.00146 3.13378C8.72876 3.13378 9.31835 2.54419 9.31835 1.81689C9.31835 1.08959 8.72876 0.5 8.00146 0.5C7.27416 0.5 6.68457 1.08959 6.68457 1.81689C6.68457 2.54419 7.27416 3.13378 8.00146 3.13378Z" fill="#05A155"/>
<path d="M9.70697 3.55353C8.98803 3.55353 7.03014 3.55353 6.29574 3.55353C5.45644 3.55353 4.77028 4.2247 4.76614 5.04969C4.76611 5.05076 4.76611 5.05182 4.76611 5.05289V9.721C4.76611 10.0719 5.0506 10.3564 5.40154 10.3564C5.75247 10.3564 6.03696 10.0719 6.03696 9.721V5.05495C6.0383 4.93412 6.17178 4.82437 6.30623 4.82437C6.31073 7.70573 6.30623 12.8943 6.30623 15.7375C6.30623 16.1586 6.65313 16.5 7.07425 16.5C7.49534 16.5 7.83673 16.1586 7.83673 15.7375V9.64283H8.16595V15.7375C8.16595 16.1586 8.50734 16.5 8.92843 16.5C9.34952 16.5 9.69417 16.1586 9.69417 15.7375C9.69417 15.7327 9.69417 4.82775 9.69417 4.82434C9.8277 4.82434 9.96265 4.93478 9.96325 5.05285V9.72096C9.96325 10.0719 10.2477 10.3564 10.5987 10.3564C10.9496 10.3564 11.2341 10.0719 11.2341 9.72096V5.04969C11.23 4.2247 10.5449 3.55353 9.70697 3.55353ZM8.00088 7.31391C7.27331 7.31391 6.68349 6.7241 6.68349 5.99652C6.68349 5.26894 7.27331 4.67913 8.00088 4.67913C8.72846 4.67913 9.31828 5.26894 9.31828 5.99652C9.31828 6.7241 8.72846 7.31391 8.00088 7.31391Z" fill="#05A155"/>
<ellipse cx="8.01562" cy="6.09375" rx="1.45312" ry="1.46875" fill="#05A155"/>
</g>
<defs>
<clipPath id="clip0_336_27348">
<rect width="16" height="16" fill="white" transform="translate(0 0.5)"/>
</clipPath>
</defs>
</svg>
