<svg width="232" height="177" viewBox="0 0 232 177" fill="none" xmlns="http://www.w3.org/2000/svg">
<g clip-path="url(#clip0_1795_9182)">
<path d="M134.309 89.0546L157.88 49.9752" stroke="#F6F3F5" stroke-opacity="0.4" stroke-width="5"/>
<path d="M151.996 145.422L172.48 179.017L179.853 192.564" stroke="#F8F6F8" stroke-opacity="0.4" stroke-width="17.4332"/>
<path d="M152.177 145.495L178.618 187.225" stroke="white" stroke-opacity="0.4" stroke-width="5.81106"/>
<path d="M234.767 179.453L232.297 74.9626L220.421 63.4858L194.199 58.5827L79.4664 31.9244" stroke="#F6F3F5" stroke-opacity="0.4" stroke-width="10"/>
<path d="M-14.0918 32.1788L39.0431 -20.9561" stroke="white" stroke-opacity="0.4" stroke-width="2.90553"/>
<path d="M9.04364 9.80615L197.104 9.80615L181.995 -18.7407" stroke="white" stroke-opacity="0.4" stroke-width="2.90553"/>
<path d="M-3.30481 124.538L113.498 179.453L161.79 136.415M245.009 62.2509L179.253 120.852M197.467 9.00709L257.721 120.834M179.253 120.852L161.79 136.415M179.253 120.852L127.308 84.1786M75.3624 47.5054L127.308 84.1786M161.79 136.415L64.7209 80.701M99.551 131.911L127.308 84.1786" stroke="white" stroke-opacity="0.4" stroke-width="2.90553"/>
<path d="M51.2103 119.635L101.403 132.329M152.65 145.349L101.403 132.329M77.4327 161.003L101.403 132.329" stroke="white" stroke-opacity="0.4" stroke-width="5.81106"/>
<path d="M226.995 64.3212L79.4664 32.7599" stroke="white" stroke-opacity="0.4" stroke-width="5.81106"/>
<path d="M231.426 72.2751L235.021 201.353" stroke="white" stroke-opacity="0.4" stroke-width="5.81106"/>
<path d="M169.03 169.392L201.862 148.927M234.695 128.461L201.862 148.927M201.862 148.927L194.417 108.485" stroke="white" stroke-opacity="0.4" stroke-width="2.90553"/>
<path d="M135.579 88.6914L156.753 49.4667" stroke="white" stroke-opacity="0.4" stroke-width="5.81106"/>
<path d="M9.58868 38.9342L83.0986 33.1958" stroke="white" stroke-opacity="0.4" stroke-width="5.81106"/>
<path d="M54.4425 120.87L6.90076 100.313" stroke="white" stroke-opacity="0.4" stroke-width="2.90553"/>
<path d="M6.53766 186.317L10.6054 -0.145393L10.6054 -12.276" stroke="white" stroke-opacity="0.4" stroke-width="5.81106"/>
<path d="M-6.4646 67.9894L63.9945 76.5971L31.2347 184.792L84.4785 9.00714" stroke="white" stroke-opacity="0.4" stroke-width="5.81106"/>
</g>
<defs>
<clipPath id="clip0_1795_9182">
<rect width="176.003" height="231.426" fill="white" transform="matrix(0 -1 1 0 0 176.002)"/>
</clipPath>
</defs>
</svg>
