<svg width="28" height="28" viewBox="0 0 28 28" fill="none" xmlns="http://www.w3.org/2000/svg">
<g clip-path="url(#clip0_2866_10279)" stroke="#fff" stroke-width="1.56">
<path d="M1.62469 27.7144C1.35977 27.7144 1.10078 27.6359 0.880494 27.4888C0.660204 27.3416 0.488506 27.1324 0.387118 26.8877C0.28573 26.6429 0.259207 26.3736 0.310905 26.1138C0.362602 25.8539 0.490197 25.6153 0.677549 25.428L25.4275 0.677964C25.6787 0.426766 26.0194 0.285645 26.3747 0.285645C26.7299 0.285645 27.0706 0.426766 27.3218 0.677964C27.573 0.929162 27.7142 1.26986 27.7142 1.62511C27.7142 1.98035 27.573 2.32105 27.3218 2.57225L2.57184 27.3222C2.44757 27.4468 2.29993 27.5455 2.13739 27.6128C1.97485 27.6801 1.80061 27.7146 1.62469 27.7144Z" fill="white"/>
<path d="M26.3746 27.7144C26.1987 27.7146 26.0245 27.6801 25.8619 27.6128C25.6994 27.5455 25.5517 27.4468 25.4275 27.3222L0.677476 2.57225C0.426278 2.32105 0.285156 1.98035 0.285156 1.62511C0.285156 1.26986 0.426278 0.929162 0.677476 0.677964C0.928674 0.426766 1.26937 0.285645 1.62462 0.285645C1.97987 0.285645 2.32056 0.426766 2.57176 0.677964L27.3218 25.428C27.5091 25.6153 27.6367 25.8539 27.6884 26.1138C27.7401 26.3736 27.7136 26.6429 27.6122 26.8877C27.5108 27.1324 27.3391 27.3416 27.1188 27.4888C26.8985 27.6359 26.6395 27.7144 26.3746 27.7144Z" fill="white"/>
</g>
<defs>
<clipPath id="clip0_2866_10279">
<rect width="27.4286" height="27.4286" fill="white" transform="translate(0.285156 0.285767)"/>
</clipPath>
</defs>
</svg>
