<svg width="166" height="121" viewBox="0 0 166 121" fill="none" xmlns="http://www.w3.org/2000/svg">
<g clip-path="url(#clip0_3573_9830)">
<path d="M149.387 33.9965C145.865 16.1168 98.272 -11.7632 54.5476 11.4152C34.2118 22.196 38.7336 32.0657 25.5602 49.0842C17.7081 59.2273 5.00203 68.3165 4.06887 80.8636C3.26071 91.6942 8.18729 102.12 15.9739 107.942C33.486 121.033 63.3341 126.253 83.457 95.6244C103.58 64.9955 158.463 80.111 149.387 33.9965Z" fill="url(#paint0_linear_3573_9830)"/>
<path fill-rule="evenodd" clip-rule="evenodd" d="M125.132 31.1071V17.6458C125.132 10.211 119.105 4.1842 111.671 4.1842H44.3634C36.929 4.1842 30.9019 10.211 30.9019 17.6458V51.2992" fill="white"/>
<path d="M125.132 31.1071V17.6458C125.132 10.211 119.105 4.1842 111.671 4.1842H44.3634C36.9289 4.1842 30.9021 10.211 30.9021 17.6458V51.2992" stroke="#B4C1D6" stroke-width="1.08684"/>
<path fill-rule="evenodd" clip-rule="evenodd" d="M30.9023 33.461H74.4162C75.524 33.4612 76.6148 33.1879 77.5917 32.6654C78.5685 32.1429 79.4013 31.3873 80.0162 30.4658L89.4594 16.2708C90.0753 15.3451 90.911 14.5865 91.8918 14.0626C92.8725 13.5388 93.9677 13.2661 95.0796 13.2689H125.132C132.567 13.2689 138.594 19.2958 138.594 26.7303V94.0374C138.594 101.472 132.567 107.499 125.132 107.499H30.9023C23.4678 107.499 17.4407 101.472 17.4407 94.0374V46.9224C17.4407 39.4879 23.4678 33.461 30.9023 33.461Z" fill="white" stroke="#B4C1D6" stroke-width="1.08684"/>
<path d="M145.5 106.553C144.047 106.553 142.868 105.433 142.868 104.053C142.868 102.672 144.047 101.553 145.5 101.553C146.953 101.553 148.132 102.672 148.132 104.053C148.132 105.433 146.953 106.553 145.5 106.553Z" fill="#B4C1D6"/>
<path d="M129.879 7.94158C129.204 7.94158 128.658 7.39501 128.658 6.72079C128.658 6.04657 129.204 5.5 129.879 5.5C130.553 5.5 131.099 6.04657 131.099 6.72079C131.099 7.39501 130.553 7.94158 129.879 7.94158Z" fill="#B4C1D6"/>
<path d="M109.316 33.3947C107.935 33.3947 106.816 32.2166 106.816 30.7632C106.816 29.3098 107.935 28.1316 109.316 28.1316C110.697 28.1316 111.816 29.3098 111.816 30.7632C111.816 32.2166 110.697 33.3947 109.316 33.3947Z" fill="#B4C1D6"/>
<path d="M26.6015 18.462C26.8451 19.3712 26.3056 20.3057 25.3965 20.5493C24.4873 20.7929 23.5528 20.2533 23.3092 19.3442C23.0656 18.4351 23.6052 17.5006 24.5143 17.257C25.4234 17.0134 26.3579 17.5529 26.6015 18.462Z" fill="#B4C1D6"/>
<path d="M144.846 39.3984C143.882 39.3984 143.102 38.7738 143.102 38.0032C143.102 37.2326 143.882 36.6079 144.846 36.6079C145.809 36.6079 146.59 37.2326 146.59 38.0032C146.59 38.7738 145.809 39.3984 144.846 39.3984Z" fill="#B4C1D6"/>
<path d="M9.14216 94.1843H9.18768C9.45795 98.0122 12.3045 98.0711 12.3045 98.0711C12.3045 98.0711 9.16558 98.1324 9.16558 102.555C9.16558 98.1324 6.02637 98.0711 6.02637 98.0711C6.02637 98.0711 8.87189 98.0122 9.14216 94.1843ZM159.582 52.9495H159.629C159.91 56.9916 162.868 57.0537 162.868 57.0537C162.868 57.0537 159.606 57.1185 159.606 61.789C159.606 57.1185 156.344 57.0537 156.344 57.0537C156.344 57.0537 159.301 56.9916 159.582 52.9495Z" fill="#B4C1D6"/>
<path fill-rule="evenodd" clip-rule="evenodd" d="M86.6574 90.3676H69.7103C62.6905 90.3676 57 84.6768 57 77.6574V60.7103C57 53.6905 62.6905 48 69.7103 48H86.6574C93.6768 48 99.3676 53.6905 99.3676 60.7103V77.6574C99.3676 84.6768 93.6768 90.3676 86.6574 90.3676Z" fill="#A05148" stroke="#A05148" stroke-width="6.35237" stroke-linecap="round" stroke-linejoin="round"/>
<path fill-rule="evenodd" clip-rule="evenodd" d="M43.1375 93.9253V94.9695H44.1807C44.3908 94.9704 44.5921 95.0544 44.7406 95.203C44.8892 95.3517 44.973 95.553 44.9738 95.7632C44.973 95.9733 44.8892 96.1746 44.7406 96.3233C44.5921 96.4719 44.3908 96.5559 44.1807 96.5568H43.1375V97.6011C43.1367 97.8112 43.0529 98.0125 42.9043 98.1612C42.7558 98.3098 42.5545 98.3938 42.3444 98.3947C42.1342 98.3937 41.933 98.3097 41.7845 98.1611C41.6359 98.0125 41.5521 97.8112 41.5512 97.6011V96.5613H40.5038C40.2937 96.5603 40.0924 96.4763 39.9438 96.3276C39.7953 96.1789 39.7115 95.9775 39.7107 95.7674C39.7116 95.5572 39.7954 95.356 39.9439 95.2073C40.0925 95.0587 40.2937 94.9747 40.5038 94.9737H41.547V93.9253C41.548 93.7144 41.6325 93.5126 41.7819 93.3639C41.9313 93.2152 42.1335 93.1316 42.3444 93.1316C42.5545 93.1325 42.7558 93.2165 42.9043 93.3652C43.0529 93.5138 43.1367 93.7151 43.1375 93.9253ZM34.4165 86.6113V88.0729H35.9291C36.5604 88.0729 37.0791 88.5742 37.0791 89.1842C37.0791 89.7942 36.5604 90.2955 35.9291 90.2955H34.4165V91.7571C34.4165 92.3671 33.8978 92.8684 33.2665 92.8684C32.6351 92.8684 32.1165 92.3671 32.1165 91.7571V90.3016H30.5975C29.9662 90.3016 29.4475 89.8003 29.4475 89.1903C29.4475 88.5803 29.9662 88.0789 30.5975 88.0789H32.1101V86.6113C32.1101 86.0013 32.6288 85.5 33.2665 85.5C33.8978 85.5 34.4165 86.0013 34.4165 86.6113Z" fill="#B4C1D6"/>
<g clip-path="url(#clip1_3573_9830)">
<path d="M91.2964 71.917C92.3239 71.917 93.8307 71.7231 94.8191 70.7339C96.4072 69.1434 95.9413 66.2105 95.9207 66.0864C95.8891 65.8963 95.7405 65.7477 95.5506 65.7158C95.426 65.6948 92.498 65.2282 90.9102 66.8191C90.7653 66.9645 90.6428 67.1237 90.5302 67.2881V66.1689C91.1117 65.7041 92.8444 64.1603 92.8444 62.2466C92.8444 59.9972 90.444 58.2534 90.3417 58.1801C90.1852 58.0684 89.9757 58.0684 89.8182 58.1801C89.7162 58.2534 87.3165 59.9972 87.3165 62.2466C87.3165 64.1603 89.0488 65.7041 89.6304 66.1689V69.0278C89.5147 68.8577 89.3887 68.6926 89.2387 68.5427C87.6506 66.9518 84.7229 67.4177 84.5983 67.439C84.4084 67.4707 84.2601 67.6192 84.2285 67.8093C84.2076 67.9334 83.7421 70.8663 85.3305 72.4568C86.3182 73.4467 87.8243 73.6399 88.8521 73.6399C89.1656 73.6399 89.4344 73.6221 89.6304 73.6031V76.2544C89.5147 76.0842 89.3887 75.9192 89.2387 75.7693C87.6506 74.1787 84.7229 74.6446 84.5983 74.6659C84.4084 74.6975 84.2601 74.8461 84.2285 75.0362C84.2076 75.1603 83.7421 78.0932 85.3305 79.6837C86.3182 80.6736 87.8243 80.8668 88.8521 80.8668C89.1656 80.8668 89.4344 80.8486 89.6304 80.8297V83.9423C86.4957 83.2743 82.6201 82.8844 78.4552 82.8583V77.4468C78.6344 77.4629 78.8682 77.4774 79.1401 77.4774C80.1044 77.4774 81.5202 77.2958 82.4492 76.3651C83.9422 74.8695 83.5055 72.1175 83.4863 72.0009C83.4544 71.8108 83.3061 71.6622 83.1162 71.6303C82.9998 71.6107 80.252 71.1726 78.7587 72.6686C78.6457 72.7817 78.5472 72.9041 78.4552 73.03V70.7019C78.6344 70.7181 78.8678 70.7325 79.1397 70.7325C80.1044 70.7325 81.5199 70.5503 82.4492 69.6196C83.9422 68.1246 83.5055 65.3723 83.4863 65.2557C83.4544 65.0656 83.3061 64.9167 83.1162 64.8851C82.9998 64.8651 80.2517 64.4278 78.7587 65.9238C78.6457 66.0369 78.5472 66.159 78.4552 66.2851V63.9564C78.6344 63.9726 78.8682 63.9874 79.1401 63.9874C80.1044 63.9874 81.5202 63.8055 82.4492 62.8747C83.9422 61.3791 83.5055 58.6268 83.4863 58.5102C83.4544 58.3201 83.3061 58.1712 83.1162 58.1396C82.9998 58.1203 80.2517 57.683 78.7587 59.1783C78.6457 59.2914 78.5472 59.4138 78.4552 59.5396V58.6061C79.012 58.1591 80.6149 56.7182 80.6149 54.9313C80.6149 52.8161 78.3628 51.1798 78.2667 51.1114C78.1102 50.9997 77.9001 50.9997 77.7439 51.1114C77.6474 51.1798 75.3953 52.8161 75.3953 54.9313C75.3953 56.7182 76.9982 58.1591 77.5551 58.6061V61.1635C77.4603 61.0318 77.3587 60.9043 77.2409 60.7863C75.7476 59.2903 73.0001 59.7284 72.8837 59.7483C72.6939 59.7799 72.5452 59.9285 72.5137 60.1186C72.4944 60.2355 72.0574 62.9872 73.5508 64.4828C74.4801 65.4139 75.8955 65.5958 76.8602 65.5958C77.1369 65.5958 77.3748 65.5806 77.5551 65.5641V67.9087C77.4603 67.7774 77.3587 67.6494 77.2409 67.5319C75.7476 66.0359 73.0001 66.4739 72.8837 66.4935C72.6939 66.5251 72.5452 66.674 72.5137 66.8641C72.4944 66.9807 72.0574 69.7327 73.5508 71.228C74.4801 72.1591 75.8955 72.3406 76.8595 72.3406C77.1369 72.3406 77.3748 72.3255 77.5551 72.309V82.8586C73.3815 82.8854 69.5032 83.2767 66.3696 83.9468V80.8297C66.5656 80.8486 66.8344 80.8668 67.1478 80.8668C68.1757 80.8668 69.6814 80.6732 70.6694 79.6837C72.2579 78.0932 71.792 75.1603 71.7714 75.0362C71.7399 74.8461 71.5912 74.6975 71.4014 74.6659C71.2767 74.6446 68.3487 74.178 66.7613 75.7693C66.6113 75.9192 66.4849 76.0842 66.3696 76.2544V73.6031C66.5656 73.6221 66.8344 73.6399 67.1478 73.6399C68.1757 73.6399 69.6814 73.4464 70.6694 72.4568C72.2579 70.8663 71.792 67.9334 71.7714 67.8093C71.7399 67.6192 71.5912 67.4707 71.4014 67.439C71.2771 67.4174 68.3484 66.9522 66.7613 68.5427C66.6113 68.6926 66.4849 68.8577 66.3696 69.0282V66.1689C66.9511 65.7041 68.6831 64.1603 68.6831 62.2466C68.6831 59.9972 66.2834 58.2534 66.1814 58.1801C66.0242 58.0684 65.8145 58.0684 65.6582 58.1801C65.5559 58.2534 63.1556 59.9972 63.1556 62.2466C63.1556 64.1603 64.8882 65.7041 65.4698 66.1689V67.2881C65.3572 67.1237 65.2346 66.9645 65.0894 66.8191C63.5016 65.2282 60.5736 65.6948 60.4493 65.7158C60.2595 65.7477 60.1108 65.8963 60.0792 66.0864C60.0586 66.2105 59.5928 69.1434 61.1809 70.7339C62.1693 71.7231 63.676 71.917 64.7032 71.917C65.0108 71.917 65.2748 71.8995 65.4698 71.8809V74.5146C65.3572 74.3503 65.2346 74.1911 65.0894 74.046C63.5016 72.4555 60.5736 72.9217 60.4493 72.9427C60.2595 72.9746 60.1108 73.1232 60.0792 73.3133C60.0586 73.4374 59.5928 76.3703 61.1809 77.9608C62.1686 78.95 63.675 79.1432 64.7025 79.1432C65.0104 79.1432 65.2744 79.126 65.4698 79.1075V84.1528C63.169 84.7111 61.3319 85.4266 60.1857 86.2656C59.9848 86.4124 59.9412 86.694 60.0875 86.8951C60.1757 87.0158 60.3127 87.0801 60.4514 87.0801C60.5434 87.0801 60.6364 87.0519 60.7164 86.9935C63.3643 85.0563 70.3151 83.755 78.0127 83.755C85.6786 83.755 92.6195 85.0495 95.2856 86.9763C95.4868 87.1217 95.7686 87.076 95.9135 86.8745C96.0591 86.673 96.0138 86.3914 95.8122 86.2456C94.6601 85.4129 92.8245 84.7022 90.5302 84.1473V79.1075C90.7252 79.126 90.9895 79.1432 91.2975 79.1432C92.325 79.1432 93.831 78.95 94.8191 77.9608C96.4072 76.3703 95.9413 73.4374 95.9207 73.3133C95.8891 73.1232 95.7405 72.9746 95.5506 72.9427C95.426 72.9213 92.498 72.4551 90.9102 74.046C90.7653 74.1911 90.6428 74.3503 90.5302 74.5146V71.8809C90.7252 71.8995 90.9888 71.917 91.2964 71.917ZM91.5467 67.4566C92.5354 66.4667 94.3323 66.5038 95.0714 66.5671C95.1363 67.3077 95.1744 69.1035 94.1826 70.0968C93.1949 71.086 91.3991 71.0485 90.6582 70.9866C90.5947 70.2446 90.5587 68.4464 91.5467 67.4566ZM89.491 72.7099C88.7522 72.7759 86.9585 72.8134 85.9667 71.8197C84.9786 70.8298 85.015 69.0306 85.0782 68.2897C85.8173 68.225 87.61 68.1862 88.6025 69.1798C89.5906 70.1697 89.5542 71.9689 89.491 72.7099ZM89.491 79.9368C88.7522 80.0028 86.9585 80.0403 85.9667 79.0466C84.9786 78.0567 85.015 76.2575 85.0782 75.5165C85.819 75.4522 87.6107 75.4134 88.6025 76.4064C89.5906 77.3962 89.5542 79.1958 89.491 79.9368ZM79.3952 73.3057C80.2974 72.4025 81.9332 72.4238 82.6356 72.4823C82.6929 73.1847 82.7156 74.8237 81.8127 75.7276C80.9108 76.6312 79.2757 76.6103 78.5726 76.5511C78.5149 75.8487 78.4926 74.2097 79.3952 73.3057ZM79.3952 66.5609C80.298 65.657 81.9356 65.679 82.6356 65.7371C82.6929 66.4395 82.7156 68.0785 81.8127 68.9825C80.9102 69.8864 79.2733 69.8651 78.5726 69.8063C78.5149 69.1038 78.4926 67.4648 79.3952 66.5609ZM79.3952 59.8157C80.298 58.9114 81.9356 58.9331 82.6356 58.9916C82.6929 59.694 82.7156 61.3334 81.8127 62.2373C80.9108 63.1409 79.2757 63.1192 78.5726 63.0607C78.5149 62.3583 78.4926 60.7196 79.3952 59.8157ZM77.4273 64.6695C76.7263 64.7283 75.0891 64.7496 74.1869 63.8454C73.2844 62.9414 73.3067 61.3028 73.3644 60.6003C74.0671 60.5412 75.7026 60.5202 76.6048 61.4238C77.5073 62.3277 77.485 63.9671 77.4273 64.6695ZM77.4273 71.4143C76.7246 71.4731 75.0891 71.4945 74.1869 70.5909C73.2844 69.687 73.3067 68.0479 73.3644 67.3455C74.0671 67.2871 75.7026 67.2654 76.6048 68.169C77.5073 69.0729 77.485 70.7119 77.4273 71.4143ZM67.3974 76.4064C68.3861 75.4165 70.1819 75.4529 70.9221 75.5169C70.987 76.2575 71.0254 78.0533 70.033 79.0466C69.0453 80.0368 67.2481 80.0011 66.5086 79.9364C66.4434 79.1958 66.4053 77.4 67.3974 76.4064ZM67.3974 69.1798C68.3851 68.1903 70.183 68.2267 70.9221 68.29C70.987 69.0306 71.0254 70.8264 70.033 71.8197C69.0453 72.8099 67.2481 72.7738 66.5086 72.7095C66.4434 71.9689 66.4053 70.1731 67.3974 69.1798ZM65.3417 70.9866C64.5995 71.0485 62.8054 71.086 61.817 70.0968C60.829 69.1069 60.8657 67.3077 60.9289 66.5667C61.6704 66.5021 63.4615 66.4636 64.4533 67.4566C65.4409 68.4464 65.4049 70.2446 65.3417 70.9866ZM65.3417 78.2128C64.6012 78.2771 62.8051 78.3132 61.817 77.3233C60.829 76.3338 60.8657 74.5346 60.9289 73.7936C61.6687 73.7276 63.4611 73.6898 64.4533 74.6834C65.4409 75.6726 65.4049 77.4715 65.3417 78.2128ZM64.0557 62.2466C64.0557 60.8475 65.351 59.6012 65.9195 59.1219C66.4884 59.6012 67.7833 60.8475 67.7833 62.2466C67.7833 63.6456 66.4884 64.892 65.9195 65.3719C65.351 64.892 64.0557 63.6456 64.0557 62.2466ZM76.2955 54.9313C76.2955 53.6523 77.4696 52.509 78.0055 52.0535C78.5421 52.5077 79.7151 53.6475 79.7151 54.9313C79.7151 56.2103 78.541 57.3536 78.0048 57.8091C77.4682 57.3549 76.2955 56.2152 76.2955 54.9313ZM91.5467 74.6834C92.5354 73.6936 94.3323 73.73 95.0714 73.794C95.1363 74.5346 95.1744 76.3304 94.1826 77.3233C93.1946 78.3132 91.398 78.2771 90.6575 78.2128C90.593 77.4722 90.5549 75.6768 91.5467 74.6834ZM88.2167 62.2466C88.2167 60.8475 89.5116 59.6012 90.0801 59.1219C90.649 59.6012 91.9442 60.8475 91.9442 62.2466C91.9442 63.6463 90.6479 64.893 90.0798 65.3723C89.5113 64.8944 88.2167 63.6514 88.2167 62.2466Z" fill="white"/>
</g>
</g>
<defs>
<linearGradient id="paint0_linear_3573_9830" x1="76.1668" y1="-62.2532" x2="78.997" y2="244.1" gradientUnits="userSpaceOnUse">
<stop stop-color="white"/>
<stop offset="1" stop-color="#EEEEEE"/>
</linearGradient>
<clipPath id="clip0_3573_9830">
<rect width="164.474" height="120" fill="white" transform="translate(0.763184 0.5)"/>
</clipPath>
<clipPath id="clip1_3573_9830">
<rect width="36" height="36" fill="white" transform="translate(60 51)"/>
</clipPath>
</defs>
</svg>
