<svg width="419" height="313" viewBox="0 0 419 313" fill="none" xmlns="http://www.w3.org/2000/svg">
<g clip-path="url(#clip0_1724_3175)">
<path d="M305.795 297.397H297.462L293.496 265.257H305.795V297.397Z" fill="#E7C0C6"/>
<path d="M310.193 311.834H304.217L303.15 306.193L300.419 311.834H284.57C283.81 311.835 283.07 311.592 282.458 311.142C281.846 310.691 281.394 310.057 281.168 309.332C280.942 308.607 280.954 307.828 281.202 307.11C281.449 306.392 281.92 305.772 282.545 305.34L295.202 296.599V290.896L308.514 291.69L310.193 311.834Z" fill="#2F2E41"/>
<path d="M355.299 286.881L348.612 291.854L326.252 268.429L336.121 261.09L355.299 286.881Z" fill="#E7C0C6"/>
<path d="M367.443 295.842L362.648 299.408L358.426 295.517L359.6 301.675L346.882 311.132C346.273 311.585 345.534 311.832 344.774 311.836C344.015 311.84 343.274 311.601 342.659 311.153C342.045 310.706 341.59 310.075 341.36 309.351C341.13 308.626 341.138 307.848 341.382 307.128L346.323 292.562L342.919 287.985L354.076 280.679L367.443 295.842Z" fill="#2F2E41"/>
<path d="M315.496 131.572C315.496 131.572 331.306 145.231 324.012 184.169L315.106 222.323L344.149 270.505L334.889 281.77L297.132 229.619L283.45 197.525L279.611 140.405L315.496 131.572Z" fill="#2F2E41"/>
<path d="M290.991 206.671L290.04 221.398L292.95 284.155L306.644 281.77L309.261 237.088L290.991 206.671Z" fill="#2F2E41"/>
<path d="M115.264 304.954L122.716 304.954L126.26 276.212L115.263 276.212L115.264 304.954Z" fill="#FFB6B6"/>
<path d="M113.363 302.521L115.46 302.521L123.649 299.191L128.038 302.52H128.038C130.519 302.521 132.897 303.506 134.651 305.26C136.405 307.013 137.39 309.392 137.39 311.872V312.176L113.363 312.177L113.363 302.521Z" fill="#2F2E41"/>
<path d="M144.14 300.258L151.409 301.899L161.198 274.644L150.47 272.222L144.14 300.258Z" fill="#FFB6B6"/>
<path d="M142.822 297.466L144.868 297.928L153.589 296.484L157.137 300.698L157.137 300.698C159.557 301.245 161.66 302.73 162.984 304.827C164.309 306.924 164.746 309.461 164.2 311.881L164.133 312.177L140.696 306.885L142.822 297.466Z" fill="#2F2E41"/>
<path d="M105.826 129.24C102.332 139.777 102.701 151.214 106.666 163.49L108.36 232.605C108.36 232.605 105.835 277.929 113.982 293.878H125.798L131.648 228.466L132.382 184.56L157.713 221.602L141.579 292.809L156.121 294.109L182.303 216.832L150 141.861L105.826 129.24Z" fill="#2F2E41"/>
<path d="M242.084 99.2261C251.121 91.0823 264.564 86.9874 275.84 91.5539C264.273 97.9756 255.351 108.281 250.651 120.648C248.856 125.424 247.357 130.923 242.942 133.48C240.195 135.071 236.777 135.149 233.696 134.381C230.616 133.613 227.793 132.073 225.008 130.549L224.215 130.531C227.772 118.897 233.047 107.37 242.084 99.2261Z" fill="#83BF6E" fill-opacity="0.5"/>
<path d="M275.777 91.8013C265.79 93.0918 256.464 97.4962 249.123 104.389C247.517 105.845 246.149 107.544 245.072 109.426C244.082 111.293 243.61 113.39 243.704 115.501C243.753 117.472 244.031 119.481 243.6 121.429C243.365 122.422 242.922 123.355 242.301 124.165C241.68 124.976 240.895 125.646 239.996 126.132C237.79 127.4 235.259 127.8 232.77 128.105C230.007 128.444 227.132 128.752 224.74 130.302C224.45 130.489 224.176 130.029 224.465 129.841C228.626 127.145 233.892 128.126 238.366 126.326C240.454 125.487 242.302 124.013 242.956 121.784C243.528 119.835 243.243 117.763 243.176 115.769C243.053 113.711 243.437 111.654 244.292 109.778C245.27 107.848 246.569 106.098 248.134 104.604C251.604 101.183 255.59 98.3299 259.947 96.1478C264.905 93.6297 270.257 91.9783 275.772 91.265C276.113 91.221 276.116 91.7575 275.777 91.8013Z" fill="#E9EDF1"/>
<path d="M251.356 102.03C250.367 100.642 249.904 98.9466 250.049 97.2478C250.194 95.5491 250.938 93.9572 252.149 92.7566C252.394 92.5145 252.782 92.885 252.536 93.1274C251.407 94.2434 250.714 95.7263 250.582 97.3084C250.45 98.8906 250.888 100.468 251.817 101.755C252.018 102.035 251.557 102.309 251.356 102.03Z" fill="#E9EDF1"/>
<path d="M243.548 114.506C246.98 115.114 250.515 114.406 253.448 112.524C253.738 112.337 254.013 112.797 253.723 112.984C250.667 114.937 246.987 115.666 243.417 115.026C243.077 114.964 243.21 114.445 243.548 114.506Z" fill="#E9EDF1"/>
<path d="M264.948 94.3394C265.219 94.9564 265.639 95.4965 266.17 95.9112C266.701 96.3259 267.327 96.6022 267.991 96.7153C268.332 96.7722 268.199 97.2918 267.86 97.2352C267.127 97.1069 266.436 96.8009 265.848 96.344C265.26 95.8871 264.793 95.2933 264.488 94.6143C264.454 94.5527 264.444 94.4804 264.462 94.4121C264.479 94.3438 264.521 94.2847 264.581 94.2466C264.642 94.2106 264.715 94.2 264.783 94.2174C264.852 94.2348 264.912 94.2786 264.948 94.3394Z" fill="#E9EDF1"/>
<path d="M288.256 130.828C288.042 130.798 287.828 130.769 287.611 130.742C284.735 130.361 281.832 130.213 278.931 130.302C278.707 130.305 278.479 130.311 278.255 130.321C271.269 130.608 264.397 132.19 257.989 134.986C255.439 136.101 252.979 137.408 250.628 138.897C247.382 140.952 244.025 143.439 240.396 144.277C240.018 144.369 239.635 144.437 239.249 144.482L224.255 131.499C224.236 131.452 224.213 131.409 224.194 131.362L223.572 130.871C223.687 130.786 223.809 130.7 223.925 130.615C223.992 130.565 224.063 130.518 224.13 130.468C224.175 130.436 224.221 130.404 224.261 130.372C224.276 130.362 224.291 130.351 224.304 130.344C224.343 130.312 224.383 130.287 224.419 130.258C225.1 129.776 225.785 129.298 226.475 128.824C226.478 128.821 226.478 128.821 226.485 128.82C231.707 125.157 237.345 122.126 243.281 119.791C243.459 119.724 243.64 119.653 243.825 119.592C246.498 118.598 249.248 117.824 252.048 117.278C253.582 116.984 255.129 116.768 256.685 116.63C260.705 116.283 264.755 116.57 268.686 117.481C276.523 119.298 283.691 123.601 287.937 130.312C288.045 130.484 288.151 130.653 288.256 130.828Z" fill="#83BF6E" fill-opacity="0.5"/>
<path d="M288.058 130.989C279.307 126.007 269.209 123.908 259.198 124.992C257.039 125.187 254.924 125.721 252.931 126.575C251.016 127.469 249.376 128.86 248.181 130.603C247.034 132.205 246.046 133.977 244.529 135.272C243.743 135.924 242.828 136.402 241.844 136.675C240.86 136.949 239.829 137.011 238.82 136.858C236.294 136.542 234.033 135.337 231.862 134.083C229.452 132.689 226.971 131.204 224.128 131.002C223.783 130.977 223.842 130.444 224.186 130.469C229.132 130.821 232.745 134.775 237.401 136.032C239.574 136.618 241.936 136.554 243.8 135.168C245.43 133.956 246.45 132.13 247.598 130.498C248.739 128.781 250.283 127.369 252.096 126.387C254.039 125.434 256.13 124.819 258.279 124.569C263.109 123.927 268.009 124.048 272.801 124.929C278.276 125.903 283.544 127.807 288.376 130.558C288.676 130.728 288.355 131.158 288.058 130.989Z" fill="#E9EDF1"/>
<path d="M262.401 124.453C262.447 122.749 263.098 121.117 264.236 119.848C265.375 118.579 266.928 117.756 268.617 117.526C268.959 117.481 269.046 118.01 268.703 118.055C267.13 118.267 265.683 119.033 264.625 120.217C263.568 121.401 262.968 122.924 262.934 124.511C262.926 124.856 262.393 124.796 262.401 124.453Z" fill="#E9EDF1"/>
<path d="M248.655 129.713C251.029 132.265 254.278 133.828 257.753 134.091C258.098 134.117 258.039 134.65 257.696 134.624C254.08 134.344 250.702 132.71 248.238 130.05C248.003 129.796 248.422 129.461 248.655 129.713Z" fill="#E9EDF1"/>
<path d="M277.884 126.496C277.728 127.152 277.738 127.836 277.913 128.487C278.087 129.137 278.421 129.735 278.883 130.225C279.121 130.476 278.701 130.81 278.465 130.561C277.957 130.017 277.59 129.357 277.395 128.638C277.201 127.92 277.186 127.164 277.351 126.438C277.36 126.368 277.396 126.305 277.451 126.261C277.506 126.217 277.576 126.195 277.646 126.201C277.717 126.208 277.781 126.244 277.826 126.299C277.87 126.355 277.891 126.425 277.884 126.496Z" fill="#E9EDF1"/>
<path d="M24.8897 304.432C24.1858 307.073 22.3363 309.272 20.1033 310.874C19.7392 311.136 19.3655 311.379 18.9868 311.607C18.8703 311.675 18.7538 311.748 18.6325 311.811C18.5014 311.888 18.3703 311.961 18.2393 312.029H7.73935C7.55003 311.646 7.36557 311.257 7.18111 310.874C2.68115 301.418 -0.479017 291.214 0.0598131 280.821C0.273587 276.789 1.12051 272.817 2.5695 269.049C5.45297 261.539 10.7151 255.039 17.9529 251.767C18.1325 251.685 18.3218 251.602 18.5062 251.525C18.448 251.734 18.3897 251.937 18.3315 252.146C17.555 254.943 17.0063 257.799 16.6907 260.685C16.6616 260.908 16.6373 261.131 16.6179 261.36C15.9283 268.32 16.5407 275.347 18.4237 282.083C18.4286 282.097 18.4334 282.117 18.4383 282.131C18.8509 283.622 19.3299 285.089 19.8752 286.534C20.3023 287.675 20.7635 288.801 21.2684 289.908C23.3751 294.554 26.2003 299.505 24.8897 304.432Z" fill="#83BF6E" fill-opacity="0.5"/>
<path d="M18.6374 251.743C18.5355 251.879 18.4335 252.01 18.3316 252.146C16.1995 254.972 14.389 258.026 12.9336 261.253C12.8559 261.413 12.7831 261.573 12.72 261.738C10.7258 266.244 9.44511 271.033 8.92389 275.932C8.91825 275.966 8.91501 276 8.91418 276.034C8.79283 277.18 8.72001 278.335 8.69088 279.491C8.58294 281.656 8.8172 283.825 9.38505 285.918C9.90282 287.627 10.8101 289.192 12.0355 290.491C12.1569 290.622 12.2782 290.753 12.4093 290.879C12.5064 290.981 12.6132 291.083 12.7151 291.18C13.6957 292.117 14.7685 292.986 15.6908 293.99C16.1136 294.441 16.4953 294.928 16.8316 295.447C17.3682 296.316 17.7149 297.288 17.8488 298.301C17.9826 299.313 17.9007 300.342 17.6083 301.321C16.9481 303.777 15.4384 305.85 13.8947 307.825C13.1229 308.816 12.3268 309.816 11.6375 310.874C11.3851 311.252 11.152 311.636 10.9385 312.029H10.3268C10.5307 311.636 10.754 311.252 10.9967 310.874C12.7685 308.083 15.2879 305.685 16.5938 302.612C17.4772 300.539 17.7442 298.189 16.6277 296.156C16.3005 295.564 15.9046 295.013 15.4481 294.515C14.5598 293.51 13.4967 292.651 12.5307 291.743C12.288 291.515 12.0501 291.282 11.8219 291.039C10.6124 289.81 9.67895 288.337 9.08411 286.719C8.41047 284.663 8.092 282.508 8.14237 280.345C8.14237 278.966 8.21519 277.578 8.35111 276.199C8.36567 276.025 8.38509 275.845 8.40451 275.665C9.39724 266.99 12.6942 258.738 17.953 251.768C18.0501 251.632 18.152 251.501 18.2539 251.37C18.4626 251.098 18.8461 251.476 18.6374 251.743Z" fill="#E9EDF1"/>
<path d="M8.60046 276.245C6.91907 275.963 5.39281 275.092 4.29426 273.788C3.1957 272.484 2.59638 270.832 2.60333 269.128C2.60426 269.058 2.63214 268.992 2.68109 268.942C2.73005 268.893 2.79625 268.864 2.86577 268.863C2.93528 268.861 3.00266 268.887 3.05373 268.934C3.10479 268.981 3.13555 269.046 3.13952 269.116C3.13012 270.703 3.68853 272.242 4.71399 273.454C5.73944 274.666 7.16438 275.472 8.73163 275.725C9.07214 275.781 8.93903 276.301 8.60046 276.245Z" fill="#E9EDF1"/>
<path d="M11.9008 290.588C14.7574 288.591 16.7564 285.591 17.4993 282.186C17.5727 281.849 18.0925 281.98 18.0192 282.317C17.2395 285.859 15.1529 288.977 12.1757 291.048C11.8918 291.246 11.6184 290.784 11.9008 290.588Z" fill="#E9EDF1"/>
<path d="M12.7728 261.196C13.4006 261.441 14.0794 261.526 14.7482 261.444C15.417 261.361 16.0549 261.114 16.6046 260.724C16.8858 260.524 17.1589 260.985 16.8794 261.185C16.2701 261.613 15.5653 261.885 14.8266 261.977C14.0879 262.07 13.3377 261.98 12.6417 261.716C12.574 261.697 12.5162 261.652 12.4801 261.592C12.444 261.531 12.4323 261.459 12.4473 261.39C12.465 261.322 12.5092 261.263 12.5701 261.226C12.6311 261.19 12.7039 261.179 12.7728 261.196Z" fill="#E9EDF1"/>
<path d="M55.0546 270.515C54.8847 270.646 54.7099 270.777 54.54 270.913C52.2353 272.677 50.0777 274.625 48.0886 276.738C47.9333 276.898 47.7779 277.063 47.6274 277.228L47.6226 277.233C42.9061 282.353 39.1768 288.301 36.6227 294.777L36.6081 294.82C36.6033 294.835 36.5984 294.845 36.5936 294.859C35.5812 297.451 34.765 300.116 34.1518 302.83C33.5596 305.481 33.0742 308.32 32.147 310.874C32.0062 311.267 31.8509 311.655 31.6858 312.029H10.1035C10.1763 311.646 10.254 311.257 10.3317 310.874C11.4295 305.249 13.1454 299.763 15.4481 294.515C15.5258 294.34 15.6035 294.165 15.6908 293.99C16.8796 291.397 18.2774 288.905 19.8704 286.539L19.8708 286.537L19.8718 286.536L19.8734 286.534L19.8753 286.534C20.75 285.243 21.6897 283.997 22.6908 282.801C25.287 279.712 28.3537 277.052 31.7781 274.918C31.7975 274.903 31.8218 274.893 31.8412 274.879C38.6567 270.651 46.7342 268.636 54.4575 270.379H54.4623C54.6614 270.423 54.8555 270.466 55.0546 270.515Z" fill="#83BF6E" fill-opacity="0.5"/>
<path d="M55.0302 270.772C54.8651 270.816 54.7001 270.864 54.5399 270.913C51.1378 271.885 47.854 273.232 44.7487 274.928C44.5934 275.01 44.4381 275.097 44.2827 275.185C39.9913 277.58 36.0958 280.624 32.7343 284.209C32.7316 284.212 32.7299 284.215 32.7294 284.219C32.6906 284.258 32.6469 284.301 32.6129 284.34C31.8362 285.175 31.0887 286.044 30.3799 286.937C28.9936 288.603 27.8765 290.475 27.0693 292.486C26.4524 294.162 26.2347 295.958 26.4334 297.733C26.4479 297.913 26.4722 298.088 26.4965 298.267C26.5159 298.408 26.5353 298.549 26.5596 298.694C26.88 300.641 27.4334 302.592 27.278 304.578C27.1835 305.595 26.8747 306.581 26.3718 307.47C25.869 308.36 25.1835 309.132 24.3606 309.738C23.8011 310.17 23.2032 310.551 22.5742 310.874C21.6749 311.337 20.7379 311.724 19.7732 312.029H17.8655C18.1228 311.956 18.3752 311.883 18.6325 311.811C19.5454 311.553 20.4419 311.24 21.3169 310.874C21.8168 310.665 22.3031 310.425 22.7732 310.155C24.7246 309.034 26.3509 307.316 26.6906 305.019C26.9868 303.01 26.4139 301 26.0741 299.034C26.0159 298.694 25.9625 298.359 25.9334 298.024C25.7016 296.322 25.8424 294.589 26.346 292.947C27.0444 290.898 28.0887 288.983 29.4333 287.287C30.2651 286.182 31.153 285.121 32.0935 284.107C32.21 283.976 32.3314 283.845 32.4576 283.714C35.8899 280.103 39.8529 277.037 44.2099 274.622H44.2148C47.4544 272.818 50.8914 271.395 54.4574 270.379H54.4622C54.6224 270.33 54.7875 270.282 54.9477 270.238C55.2826 270.151 55.3603 270.68 55.0302 270.772Z" fill="#E9EDF1"/>
<path d="M32.2655 284.291C31.0931 283.053 30.3988 281.439 30.3067 279.737C30.2145 278.034 30.7305 276.355 31.7626 274.997C31.9723 274.724 32.4078 275.037 32.1977 275.311C31.2344 276.573 30.7539 278.138 30.8429 279.723C30.9319 281.308 31.5847 282.809 32.6833 283.955C32.9217 284.204 32.5026 284.539 32.2655 284.291Z" fill="#E9EDF1"/>
<path d="M26.2654 297.73C29.7484 297.856 33.1507 296.664 35.7941 294.393C36.0558 294.167 36.3916 294.585 36.1302 294.81C33.3751 297.169 29.8319 298.402 26.2077 298.263C25.8623 298.25 25.9218 297.717 26.2654 297.73Z" fill="#E9EDF1"/>
<path d="M44.6578 274.787C45.0117 275.361 45.5024 275.838 46.086 276.174C46.6696 276.511 47.3277 276.698 48.0013 276.718C48.3467 276.727 48.2867 277.26 47.9435 277.251C47.1995 277.226 46.4729 277.019 45.8273 276.648C45.1817 276.277 44.6368 275.754 44.2401 275.124C44.1977 275.067 44.1784 274.997 44.1859 274.927C44.1935 274.857 44.2275 274.793 44.2809 274.747C44.3364 274.702 44.4072 274.682 44.4778 274.69C44.5483 274.697 44.613 274.732 44.6578 274.787Z" fill="#E9EDF1"/>
<path d="M221.543 84.0428C221.045 84.6981 220.409 85.2362 219.68 85.6192C218.952 86.0022 218.148 86.2208 217.326 86.2595C216.503 86.2983 215.683 86.1563 214.921 85.8436C214.16 85.5308 213.476 85.0549 212.918 84.4493L194.569 92.4299L196.356 82.1865L213.507 76.1785C214.587 75.3091 215.947 74.8659 217.332 74.9327C218.716 74.9996 220.028 75.572 221.018 76.5414C222.009 77.5108 222.609 78.8098 222.706 80.1924C222.803 81.5749 222.389 82.9449 221.543 84.0428Z" fill="#FFB8B8"/>
<path d="M209.298 87.241L166.678 106.225L166.587 106.193L118.011 88.8828C114.393 86.9918 111.634 83.7892 110.3 79.9307C108.966 76.0722 109.158 71.8497 110.835 68.1278C111.765 66.0714 113.12 64.2353 114.811 62.7403C116.502 61.2453 118.49 60.1254 120.645 59.4541C122.799 58.7829 125.072 58.5757 127.313 58.8461C129.553 59.1164 131.711 59.8583 133.644 61.0228L169.794 82.7988L204.848 78.2558L209.298 87.241Z" fill="#B4C1D6"/>
<path d="M418.784 312.422C418.784 312.498 418.77 312.574 418.741 312.644C418.712 312.714 418.669 312.778 418.615 312.831C418.562 312.885 418.498 312.928 418.428 312.957C418.358 312.985 418.282 313 418.206 313H0.593772C0.440565 313 0.29364 312.939 0.185307 312.831C0.0769734 312.723 0.0161133 312.576 0.0161133 312.422C0.0161133 312.269 0.0769734 312.122 0.185307 312.014C0.29364 311.906 0.440565 311.845 0.593772 311.845H418.206C418.282 311.845 418.358 311.859 418.428 311.888C418.498 311.917 418.562 311.96 418.615 312.013C418.669 312.067 418.712 312.131 418.741 312.201C418.77 312.271 418.784 312.346 418.784 312.422Z" fill="#05A155"/>
<path d="M152.107 144.075L109.144 137.203C108.017 136.842 106.981 136.241 106.109 135.442C105.236 134.644 104.546 133.665 104.087 132.575C103.628 131.484 103.41 130.307 103.449 129.125C103.487 127.942 103.781 126.782 104.311 125.724L106.259 121.827L105.502 80.8822C105.411 75.5563 106.724 70.3002 109.309 65.6429C111.894 60.9855 115.66 57.0911 120.229 54.3515L124.418 51.8463L126.536 46.4694L146.06 46.9456L146.117 53.9976L153.109 65.1472L153.109 65.1934L152.67 125.879L150.743 132.142L153.657 139.426L152.107 144.075Z" fill="#B4C1D6"/>
<path d="M138.086 39.7832C147.883 39.7832 155.825 31.8409 155.825 22.0435C155.825 12.2462 147.883 4.30383 138.086 4.30383C128.288 4.30383 120.346 12.2462 120.346 22.0435C120.346 31.8409 128.288 39.7832 138.086 39.7832Z" fill="#FFB8B8"/>
<path d="M119.613 25.9107C119.084 23.6816 119.327 20.545 119.626 18.3006C120.41 12.4165 123.678 6.82264 128.642 3.5092C129.583 2.79424 130.702 2.34972 131.877 2.22356C133.052 2.17453 134.325 2.80325 134.685 3.92208C134.981 3.18365 135.425 2.51369 135.99 1.95355C136.555 1.39341 137.229 0.954974 137.97 0.665316C139.458 0.0951055 141.059 -0.120534 142.645 0.035489C145.719 0.288904 148.667 1.36992 151.177 3.16382C153.687 4.95772 155.664 7.39758 156.898 10.2245C157.372 11.3501 158.696 7.19235 159.296 8.25589C159.848 9.36139 160.81 10.2071 161.978 10.6119C163.154 10.9401 163.632 15.7868 164.095 14.6566C164.454 15.4918 164.596 16.4044 164.507 17.3092C164.419 18.2141 164.103 19.0818 163.589 19.8317C163.075 20.5815 162.379 21.189 161.567 21.5977C160.755 22.0063 159.852 22.2028 158.944 22.1688C157.747 22.124 156.602 21.6836 155.419 21.4941C151.188 20.8162 146.7 23.8839 145.796 28.072C145.472 26.8608 144.955 25.7099 144.264 24.6637C143.913 24.1434 143.444 23.7143 142.894 23.4121C142.344 23.11 141.73 22.9435 141.102 22.9265C139.899 22.9716 138.841 23.7585 138.06 24.6755C137.279 25.5925 136.692 26.6624 135.905 27.5745C133.597 30.2507 130.475 36.4917 127.185 36.0365C124.589 35.6773 120.336 28.9541 119.613 25.9107Z" fill="#6F6F6F"/>
<path d="M245.32 104.145C245.444 103.336 245.278 102.51 244.851 101.812C244.424 101.114 243.763 100.59 242.987 100.333L195.214 84.4215C194.756 84.2683 194.271 84.2126 193.79 84.258L181.816 85.3904L174.945 86.0421L162.266 87.2403C161.501 87.3135 160.781 87.6387 160.22 88.1649C159.66 88.6911 159.289 89.3886 159.168 90.1479L152.73 130.36C152.608 131.144 152.758 131.947 153.153 132.635C153.549 133.323 154.168 133.855 154.907 134.144L203.179 152.777C203.405 152.865 203.64 152.929 203.881 152.966C204.23 153.023 204.586 153.025 204.937 152.974L236.128 148.351C236.864 148.244 237.546 147.904 238.073 147.379C238.599 146.854 238.943 146.174 239.052 145.439L245.32 104.145Z" fill="#8C443C"/>
<path d="M156.001 131.311L204.272 149.943C204.343 149.971 204.419 149.98 204.494 149.969L235.682 145.347C235.774 145.334 235.86 145.292 235.926 145.226C235.992 145.16 236.035 145.074 236.048 144.982L242.32 103.688C242.334 103.587 242.313 103.484 242.26 103.397C242.207 103.31 242.125 103.245 242.029 103.211L241.708 103.103L194.253 87.3037C194.232 87.2961 194.209 87.2906 194.186 87.2876C194.15 87.2808 194.112 87.2789 194.075 87.2818L164.869 90.0455L162.551 90.263C162.456 90.2731 162.367 90.3141 162.298 90.3796C162.228 90.4451 162.182 90.5317 162.166 90.626L155.729 130.836C155.714 130.935 155.732 131.035 155.781 131.122C155.831 131.208 155.908 131.275 156.001 131.311Z" fill="#A05148"/>
<path d="M164.869 90.0455L194.075 87.2818C194.112 87.2789 194.15 87.2808 194.186 87.2876C194.209 87.2906 194.232 87.2961 194.253 87.3037L241.708 103.103L229.19 104.428L224.506 104.921L211.175 106.329C211.136 106.331 211.097 106.331 211.059 106.328C211.035 106.321 211.011 106.314 210.983 106.306L164.869 90.0455Z" fill="#2F2E41"/>
<path d="M154.906 134.147L203.177 152.779C203.405 152.866 203.641 152.928 203.882 152.963C204.231 153.021 204.588 153.025 204.939 152.976L236.126 148.354C236.862 148.247 237.544 147.906 238.071 147.381C238.598 146.856 238.942 146.175 239.052 145.44L245.319 104.145C245.412 103.536 245.342 102.914 245.116 102.341C245.084 102.265 245.053 102.188 245.016 102.117C244.767 101.593 244.389 101.143 243.917 100.807C243.633 100.603 243.319 100.443 242.987 100.333L242.93 100.313L195.216 84.4211C195.021 84.3589 194.822 84.3106 194.621 84.2764C194.345 84.2374 194.065 84.2319 193.788 84.2603L181.816 85.3888L174.946 86.0441L162.265 87.2414C161.746 87.2898 161.245 87.4554 160.8 87.7256C160.765 87.7423 160.732 87.7619 160.701 87.7844C160.679 87.7989 160.658 87.8148 160.638 87.8321C160.249 88.0976 159.918 88.4396 159.666 88.8372C159.413 89.2347 159.244 89.6795 159.169 90.1445L152.727 130.359C152.606 131.144 152.755 131.947 153.151 132.636C153.547 133.325 154.166 133.857 154.906 134.147ZM160.024 90.2847C160.102 89.8027 160.316 89.3529 160.64 88.988C160.738 88.8705 160.848 88.7634 160.968 88.6682C161.295 88.4034 161.683 88.2228 162.096 88.142C162.178 88.1252 162.26 88.1135 162.343 88.1071L183.695 86.09L193.872 85.1216C193.941 85.1136 194.004 85.1147 194.068 85.1111C194.222 85.1079 194.376 85.1193 194.528 85.1453C194.667 85.1634 194.805 85.1961 194.938 85.243L242.708 101.155C242.746 101.168 242.779 101.181 242.817 101.194C243.251 101.356 243.633 101.634 243.92 101.997C244.147 102.276 244.313 102.599 244.407 102.945C244.501 103.292 244.52 103.655 244.464 104.01L238.192 145.309C238.11 145.859 237.853 146.369 237.459 146.763C237.065 147.156 236.554 147.412 236.003 147.494L204.811 152.116C204.365 152.18 203.91 152.128 203.489 151.965L155.217 133.338C154.664 133.12 154.201 132.72 153.905 132.205C153.609 131.689 153.496 131.088 153.587 130.5L160.024 90.2847Z" fill="#A05148"/>
<path d="M160.535 88.0513C160.56 87.9781 160.605 87.9133 160.665 87.8638C160.684 87.848 160.705 87.8337 160.727 87.821C160.747 87.8132 160.768 87.8005 160.788 87.7927C160.885 87.7537 160.993 87.7519 161.091 87.7875L162.096 88.142L211.181 105.457L222.669 104.243L229.097 103.565L242.704 102.125L243.92 101.997L244.157 101.971C244.259 101.962 244.361 101.988 244.445 102.046C244.53 102.104 244.591 102.19 244.619 102.288C244.626 102.311 244.63 102.334 244.632 102.358C244.642 102.451 244.621 102.545 244.573 102.626C244.525 102.707 244.452 102.77 244.365 102.805C244.326 102.821 244.286 102.832 244.245 102.838L242.59 103.011L229.19 104.428L224.506 104.921L211.176 106.329C211.137 106.331 211.098 106.331 211.059 106.328C211.035 106.321 211.011 106.314 210.983 106.306L160.968 88.6681L160.798 88.608C160.759 88.5952 160.723 88.5752 160.692 88.5491C160.616 88.4936 160.56 88.4154 160.532 88.3259C160.503 88.2364 160.504 88.1402 160.535 88.0513Z" fill="#3F3D56"/>
<path d="M204.013 153.09C203.9 153.072 203.799 153.01 203.731 152.917C203.664 152.825 203.636 152.71 203.653 152.597L210.7 105.833C210.717 105.719 210.778 105.617 210.871 105.548C210.964 105.48 211.079 105.451 211.193 105.468L211.197 105.469C211.31 105.487 211.411 105.549 211.479 105.641C211.546 105.734 211.575 105.849 211.558 105.962L204.511 152.726C204.493 152.84 204.432 152.942 204.339 153.01C204.247 153.079 204.131 153.107 204.017 153.09L204.013 153.09Z" fill="#3F3D56"/>
<path d="M221.875 150.123L217.189 150.618L222.671 104.242C222.671 104.242 228.93 103.109 229.098 103.563C229.201 103.835 221.92 149.826 221.875 150.123Z" fill="#DFDFDF"/>
<path d="M243.922 101.998C243.609 101.605 243.187 101.311 242.709 101.155L194.94 85.2436C194.806 85.1984 194.668 85.1649 194.528 85.1432C194.376 85.1171 194.221 85.1055 194.067 85.1087L194.144 84.6246L194.623 84.2784L205.966 76.0654L255.5 90.5L243.915 100.807L243.922 101.998Z" fill="#AE544B"/>
<path d="M162.707 122.558C162.761 122.564 162.814 122.575 162.866 122.592L177.523 127.406C177.706 127.466 177.858 127.596 177.945 127.769C178.033 127.941 178.048 128.141 177.988 128.325C177.927 128.508 177.797 128.66 177.624 128.747C177.452 128.834 177.252 128.85 177.069 128.789L162.412 123.975C162.241 123.92 162.098 123.803 162.008 123.648C161.919 123.493 161.889 123.31 161.926 123.135C161.963 122.959 162.063 122.804 162.207 122.697C162.351 122.591 162.529 122.542 162.707 122.558Z" fill="#A05148"/>
<path d="M221.844 211.278C225.061 211.278 227.669 208.67 227.669 205.452C227.669 202.235 225.061 199.627 221.844 199.627C218.627 199.627 216.019 202.235 216.019 205.452C216.019 208.67 218.627 211.278 221.844 211.278Z" fill="#939291"/>
<path d="M73.302 232.637C76.5192 232.637 79.1272 230.029 79.1272 226.812C79.1272 223.594 76.5192 220.986 73.302 220.986C70.0848 220.986 67.4768 223.594 67.4768 226.812C67.4768 230.029 70.0848 232.637 73.302 232.637Z" fill="#939291"/>
<path d="M194.66 39.92C197.877 39.92 200.485 37.312 200.485 34.0948C200.485 30.8777 197.877 28.2697 194.66 28.2697C191.443 28.2697 188.835 30.8777 188.835 34.0948C188.835 37.312 191.443 39.92 194.66 39.92Z" fill="#939291"/>
<path d="M204.218 131.126C203.463 131.454 202.645 131.612 201.822 131.59C200.999 131.568 200.191 131.365 199.455 130.997C198.719 130.629 198.072 130.104 197.561 129.458C197.05 128.813 196.686 128.064 196.496 127.263L176.587 125.252L183.155 117.19L201.054 120.336C202.42 120.106 203.824 120.385 204.999 121.12C206.174 121.855 207.038 122.996 207.428 124.326C207.818 125.656 207.706 127.082 207.115 128.336C206.523 129.589 205.492 130.582 204.218 131.126Z" fill="#FFB8B8"/>
<path d="M191.972 127.928L145.512 123.647L145.449 123.574L111.541 84.7215C109.309 81.3027 108.469 77.1603 109.192 73.1422C109.915 69.1242 112.147 65.5346 115.431 63.1084C117.247 61.7694 119.327 60.8303 121.533 60.353C123.739 59.8757 126.021 59.8709 128.229 60.3391C130.436 60.8073 132.52 61.7377 134.342 63.0692C136.165 64.4007 137.684 66.103 138.801 68.0642L159.686 104.736L192.484 117.914L191.972 127.928Z" fill="#B4C1D6"/>
<path d="M308.585 53.2115C307.431 44.7485 305.984 35.6623 300.015 29.553C298.121 27.6146 295.854 26.0797 293.351 25.041C290.848 24.0024 288.16 23.4813 285.45 23.5094C282.74 23.5374 280.064 24.114 277.583 25.2042C275.101 26.2945 272.867 27.876 271.013 29.8532C266.668 34.4885 264.749 40.9971 264.574 47.3481C264.398 53.6991 265.813 59.9795 267.382 66.136C275.686 66.3019 283.928 64.6795 291.549 61.3791C293.455 60.5519 295.33 59.6167 297.344 59.1042C299.358 58.5917 300.793 59.8813 302.666 60.7806L303.694 58.8119C304.536 60.3782 307.142 59.9139 308.087 58.4079C309.032 56.9019 308.825 54.9732 308.585 53.2115Z" fill="#525252"/>
<path d="M275.669 100.448L241.749 101.174C241.228 100.273 240.457 99.5437 239.529 99.0736C238.601 98.6036 237.556 98.4133 236.522 98.5261C235.488 98.6389 234.509 99.0499 233.704 99.7089C232.899 100.368 232.303 101.247 231.989 102.238C231.674 103.23 231.655 104.291 231.933 105.294C232.211 106.296 232.774 107.197 233.554 107.885C234.334 108.573 235.297 109.02 236.326 109.17C237.356 109.321 238.407 109.169 239.351 108.734C243.85 108.99 279.046 113.985 281.146 110.766C283.277 107.498 294.652 95.9666 294.652 95.9666L285.908 83.5183L275.669 100.448Z" fill="#E7C0C6"/>
<path d="M283.935 61.5845C292.737 61.5845 299.872 54.4494 299.872 45.6477C299.872 36.8461 292.737 29.7109 283.935 29.7109C275.133 29.7109 267.998 36.8461 267.998 45.6477C267.998 54.4494 275.133 61.5845 283.935 61.5845Z" fill="#E7C0C6"/>
<path d="M309.46 76.3118C307.582 72.5741 306.67 67.9565 302.666 66.7448C299.962 65.9265 289.027 67.1528 286.562 68.5341C282.464 70.8317 286.178 75.1371 283.76 79.1661C281.131 83.546 273.987 92.3357 271.358 96.7156C269.551 99.7267 275.639 108.565 274.661 111.938C273.684 115.311 273.637 119.097 275.302 122.189C276.792 124.956 274.636 127.405 276.134 130.168C277.693 133.041 279.605 143.786 278.154 146.715L277.184 149.628C286.818 150.194 294.919 138.684 304.493 137.472C306.871 137.171 309.34 136.777 311.3 135.397C314.187 133.363 315.328 129.674 316.041 126.216C319.473 109.313 317.157 91.7473 309.46 76.3118Z" fill="#A05148"/>
<path d="M323.905 115.778C322.563 112.115 320.133 96.1005 320.133 96.1005L304.927 95.6547L312.362 113.99L292.075 142.39C292.075 142.39 292.113 142.452 292.181 142.563C291.114 142.392 290.021 142.547 289.044 143.007C288.067 143.468 287.251 144.213 286.704 145.144C286.158 146.076 285.905 147.151 285.979 148.228C286.053 149.306 286.45 150.336 287.12 151.184C287.789 152.032 288.699 152.658 289.73 152.981C290.761 153.303 291.865 153.307 292.898 152.992C293.931 152.676 294.845 152.056 295.52 151.213C296.195 150.369 296.599 149.342 296.681 148.265C296.756 148.307 296.843 148.323 296.928 148.308C297.013 148.294 297.09 148.25 297.146 148.185C299.403 145.352 325.247 119.441 323.905 115.778Z" fill="#E7C0C6"/>
<path d="M325.45 105.664C324.055 99.7736 322.649 93.851 320.296 88.2733C317.943 82.6956 314.574 77.4274 309.836 73.6592C308.321 72.4544 306.628 71.3911 304.729 71.0165C302.83 70.642 300.69 71.0612 299.357 72.4638C297.223 74.7082 297.865 78.3109 298.648 81.3073C300.956 90.1424 303.264 98.9774 305.571 107.813C312.236 107.106 318.901 106.4 325.565 105.693L325.45 105.664Z" fill="#A05148"/>
<path d="M303.463 47.8582C302.876 44.0029 302.263 40.1153 300.884 36.4852C299.505 32.8551 297.283 29.4549 294.094 27.3985C289.047 24.1427 282.511 24.7706 276.852 26.6434C272.475 28.0918 268.202 30.2932 265.116 33.8323C262.029 37.3715 260.296 42.4215 261.444 47.049C267.481 45.6227 273.518 44.1964 279.555 42.77L278.894 43.237C280.876 44.2254 282.607 45.6525 283.956 47.4098C285.304 49.1671 286.234 51.2085 286.676 53.379C287.108 55.5759 287.046 57.8413 286.494 60.0114C285.943 62.1814 284.917 64.2018 283.489 65.9263C287.606 64.4658 291.723 63.0052 295.841 61.5447C298.382 60.6432 301.102 59.6044 302.609 57.2921C304.356 54.6111 303.95 51.0577 303.463 47.8582Z" fill="#525252"/>
<path d="M160.8 88.6074L148 105L198.113 124.022L211.558 105.962L160.8 88.6074Z" fill="#AE544B"/>
</g>
<defs>
<clipPath id="clip0_1724_3175">
<rect width="418.784" height="313" fill="white"/>
</clipPath>
</defs>
</svg>
