<svg width="162" height="120" viewBox="0 0 162 120" fill="none" xmlns="http://www.w3.org/2000/svg">
<g clip-path="url(#clip0_3573_9479)">
<path d="M152.227 84.7199C150.033 75.7934 129.297 62.7573 118.216 70.6167C114.815 53.6112 111.634 43.0066 100.521 34.6293C89.4085 26.252 70.8669 37.202 67.8891 60.1373C64.911 50.709 49.7707 38.002 37.6081 48.7167C26.3545 58.6313 25.226 75.2446 26.4017 84.7042H152.227V84.7199Z" fill="url(#paint0_linear_3573_9479)"/>
<path d="M137.177 68.9338C136.969 67.7659 136.844 66.5849 136.802 65.3995C136.722 63.047 136.988 60.2515 138.272 58.2042C139.607 56.0776 141.252 54.4566 142.809 53.5448C144.391 52.6185 145.744 52.4917 146.635 53.0513L146.635 53.0515C147.526 53.6095 148 54.8836 147.854 56.7113C147.711 58.5105 146.967 60.6968 145.633 62.8237C144.335 64.894 142.105 66.4746 140.152 67.5467C139.341 67.991 138.506 68.3907 137.651 68.7441C137.473 68.8177 137.314 68.8808 137.177 68.9338ZM124.298 60.485L124.298 60.4848C125.277 60.1044 126.583 60.4845 127.961 61.6923C129.319 62.8811 130.629 64.7823 131.538 67.1213C132.424 69.3987 132.36 72.1302 132.054 74.3372C131.926 75.2528 131.749 76.1608 131.522 77.057C131.48 77.2222 131.436 77.3869 131.391 77.5511C131.211 77.4615 131.032 77.3697 130.854 77.2756C129.984 76.8144 129.142 76.303 128.331 75.7438C126.397 74.4042 124.313 72.5223 123.438 70.2689C122.529 67.9279 122.21 65.6411 122.409 63.8479C122.61 62.0265 123.317 60.8654 124.298 60.485ZM125.692 92.5083L125.693 92.5062C125.895 91.5532 126.04 90.5888 126.127 89.6184L126.127 89.6171C126.315 87.5414 126.234 85.1411 125.405 83.1175C124.451 80.7958 123.106 78.9196 121.727 77.7567C120.325 76.5754 119.013 76.2207 118.041 76.6201L118.04 76.6203C117.069 77.0181 116.384 78.1931 116.217 80.0192C116.051 81.8166 116.412 84.0974 117.365 86.4191L125.692 92.5083ZM125.692 92.5083C125.62 92.8574 125.54 93.2047 125.451 93.55ZM125.692 92.5083L125.451 93.55ZM125.451 93.55L125.36 93.5067C124.486 93.0864 122.855 92.2315 121.253 91.0122C119.642 89.7861 118.109 88.229 117.365 86.4191L125.451 93.55ZM132.506 78.1435C132.615 78.0134 132.748 77.8597 132.901 77.6875C133.555 76.9515 134.252 76.2541 134.988 75.599C136.749 74.0364 139.071 72.4581 141.467 72.1417C143.955 71.813 146.252 72.0457 147.947 72.6629C149.669 73.2901 150.631 74.2516 150.77 75.2935C150.908 76.3368 150.23 77.5159 148.73 78.5693C147.253 79.6062 145.095 80.4275 142.607 80.7564C140.184 81.0762 137.544 80.3677 135.472 79.5483C134.454 79.1445 133.463 78.6753 132.506 78.1435ZM136.34 95.3111C133.964 95.8819 131.266 95.452 129.12 94.8525C128.23 94.6029 127.354 94.3048 126.496 93.9598C126.338 93.8962 126.181 93.8308 126.024 93.7636C126.12 93.6228 126.235 93.4563 126.37 93.269C126.944 92.4688 127.565 91.7028 128.228 90.9747C129.817 89.2373 131.962 87.4255 134.311 86.8613C136.751 86.2748 139.06 86.2668 140.811 86.7042C142.589 87.1485 143.646 88.0052 143.891 89.0281C144.137 90.0512 143.585 91.2945 142.203 92.4981C140.842 93.6833 138.782 94.7249 136.34 95.3111Z" fill="white"/>
<path d="M125.692 92.5083L125.693 92.5062C125.895 91.5532 126.04 90.5888 126.127 89.6184L126.127 89.6171C126.315 87.5414 126.234 85.1411 125.405 83.1175C124.451 80.7958 123.106 78.9196 121.727 77.7567C120.325 76.5754 119.013 76.2207 118.041 76.6201L118.04 76.6203C117.069 77.0181 116.384 78.1931 116.217 80.0192C116.051 81.8166 116.412 84.0974 117.365 86.4191M125.692 92.5083L117.365 86.4191M125.692 92.5083C125.62 92.8574 125.54 93.2047 125.451 93.55M125.692 92.5083L125.451 93.55M117.365 86.4191C118.109 88.229 119.642 89.7861 121.253 91.0122C122.855 92.2315 124.486 93.0864 125.36 93.5067L125.451 93.55M117.365 86.4191L125.451 93.55M137.177 68.9338C136.969 67.7659 136.844 66.5849 136.802 65.3995C136.722 63.047 136.988 60.2515 138.272 58.2042C139.607 56.0776 141.252 54.4566 142.809 53.5448C144.391 52.6185 145.744 52.4917 146.635 53.0513L146.635 53.0515C147.526 53.6095 148 54.8836 147.854 56.7113C147.711 58.5105 146.967 60.6968 145.633 62.8237C144.335 64.894 142.105 66.4746 140.152 67.5467C139.341 67.991 138.506 68.3907 137.651 68.7441C137.473 68.8177 137.314 68.8808 137.177 68.9338ZM124.298 60.485L124.298 60.4848C125.277 60.1044 126.583 60.4845 127.961 61.6923C129.319 62.8811 130.629 64.7823 131.538 67.1213C132.424 69.3987 132.36 72.1302 132.054 74.3372C131.926 75.2528 131.749 76.1608 131.522 77.057C131.48 77.2222 131.436 77.3869 131.391 77.5511C131.211 77.4615 131.032 77.3697 130.854 77.2756C129.984 76.8144 129.142 76.303 128.331 75.7438C126.397 74.4042 124.313 72.5223 123.438 70.2689C122.529 67.9279 122.21 65.6411 122.409 63.8479C122.61 62.0265 123.317 60.8654 124.298 60.485ZM132.506 78.1435C132.615 78.0134 132.748 77.8597 132.901 77.6875C133.555 76.9515 134.252 76.2541 134.988 75.599C136.749 74.0364 139.071 72.4581 141.467 72.1417C143.955 71.813 146.252 72.0457 147.947 72.6629C149.669 73.2901 150.631 74.2516 150.77 75.2935C150.908 76.3368 150.23 77.5159 148.73 78.5693C147.253 79.6062 145.095 80.4275 142.607 80.7564C140.184 81.0762 137.544 80.3677 135.472 79.5483C134.454 79.1445 133.463 78.6753 132.506 78.1435ZM136.34 95.3111C133.964 95.8819 131.266 95.452 129.12 94.8525C128.23 94.6029 127.354 94.3048 126.496 93.9598C126.338 93.8962 126.181 93.8308 126.024 93.7636C126.12 93.6228 126.235 93.4563 126.37 93.269C126.944 92.4688 127.565 91.7028 128.228 90.9747C129.817 89.2373 131.962 87.4255 134.311 86.8613C136.751 86.2748 139.06 86.2668 140.811 86.7042C142.589 87.1485 143.646 88.0052 143.891 89.0281C144.137 90.0512 143.585 91.2945 142.203 92.4981C140.842 93.6833 138.782 94.7249 136.34 95.3111Z" stroke="#6A7185" stroke-width="1.04348"/>
<path d="M127.338 90.4629C126.939 91.5696 126.55 92.6795 126.17 93.7926L125.919 93.7618L125.913 93.759L125.78 93.6985C126.24 92.3485 126.693 91.0637 127.138 89.8389L127.138 89.8384C132.303 75.5722 136.242 69.4535 137.356 67.8752L137.673 68.1291C136.539 69.7543 132.508 76.0991 127.338 90.4629ZM36.1609 62.5118C36.252 62.2274 36.3704 61.8426 36.5016 61.3757C36.8953 59.9742 37.2072 58.551 37.4355 57.1133C37.974 53.686 38.0948 49.504 36.5577 46.2233C34.9782 42.8573 32.8487 40.1675 30.7054 38.5321C28.5394 36.8792 26.4884 36.388 24.9662 37.1025L24.9657 37.1028C23.4441 37.815 22.5096 39.7065 22.3946 42.4295C22.2806 45.124 22.9855 48.4819 24.5624 51.8477C26.1112 55.1531 29.1188 57.8845 31.7856 59.8047C32.8955 60.6022 34.0481 61.3385 35.2382 62.0104C35.6084 62.2193 35.9214 62.3871 36.1609 62.5118ZM57.0203 53.4969L57.0201 53.4966C55.5401 52.7025 53.4649 53.0824 51.2121 54.615C48.9829 56.1317 46.7105 58.7007 44.9525 61.9746C43.2258 65.1898 42.8306 69.232 42.8828 72.5171C42.9086 74.152 43.045 75.5821 43.1747 76.6029C43.2281 77.0247 43.2806 77.3761 43.3236 77.6425C43.6059 77.5462 43.9852 77.4116 44.4381 77.2381C45.7973 76.7183 47.1251 76.1195 48.4145 75.4449C51.4847 73.8319 54.9115 71.433 56.6251 68.2394C58.3834 64.9629 59.2695 61.6488 59.3014 58.9532C59.3337 56.2295 58.5026 54.291 57.0203 53.4969ZM48.9086 100.149L48.9088 100.151C48.9751 100.947 49.0549 101.588 49.1147 102.015C49.2378 101.975 49.3789 101.929 49.537 101.877C50.8933 101.418 53.4396 100.457 56.0126 98.9545C58.5952 97.4466 61.1507 95.4238 62.5883 92.8639C64.4076 89.6237 65.3546 86.326 65.4365 83.6302C65.5195 80.9059 64.7248 78.951 63.2608 78.1305L63.2603 78.1303C61.7961 77.3075 59.7143 77.6474 57.433 79.137C55.176 80.6109 52.8553 83.1369 51.036 86.3777C49.4382 89.2277 48.8885 92.7567 48.7909 95.8321V95.8334C48.7346 97.4811 48.8063 98.9813 48.9086 100.149ZM42.1531 78.0932C41.9401 77.7602 41.7209 77.4311 41.4957 77.1061C40.668 75.9084 39.771 74.76 38.8095 73.6668C36.5139 71.0652 33.3704 68.3041 29.8635 67.3963C26.2656 66.465 22.8368 66.3896 20.2101 66.9969C17.5557 67.6107 15.8676 68.8767 15.445 70.5027C15.0224 72.1311 15.883 74.0581 17.9058 75.8837C19.9075 77.6899 22.9429 79.2883 26.5408 80.2196C30.0743 81.1345 34.0967 80.5613 37.2772 79.7336C38.5994 79.3879 39.9019 78.9706 41.1788 78.4835C41.5056 78.3587 41.8305 78.2286 42.1531 78.0932ZM33.33 102.524C36.7484 103.802 40.8073 103.651 44.0559 103.158C45.4067 102.952 46.7452 102.672 48.0654 102.32C48.4761 102.211 48.817 102.112 49.0753 102.033C48.8979 101.68 48.7141 101.33 48.5241 100.983C47.8255 99.7059 47.0529 98.4704 46.2104 97.2831C44.1981 94.4568 41.3595 91.3832 37.9672 90.1149C34.4867 88.8134 31.0836 88.3809 28.4074 88.7114C25.7029 89.0456 23.8922 90.1295 23.3037 91.7049C22.7152 93.2803 23.3702 95.2864 25.1919 97.3123C26.9945 99.3171 29.8468 101.223 33.33 102.524Z" fill="white" stroke="#6A7185" stroke-width="1.04348"/>
<path d="M35.0229 62.1952C35.0853 62.2886 40.5656 71.478 46.3734 97.0257C46.8177 98.9818 47.2437 100.942 47.6511 102.906L47.7758 102.88L48.6902 102.688V102.683H48.6954L48.7316 102.677C48.8459 102.641 49.189 102.537 49.7031 102.366C49.2491 100.175 48.7711 97.9901 48.2694 95.81C42.4512 70.434 37.0695 61.478 36.8305 61.0781L35.0229 62.1952Z" fill="#6A7185"/>
<path fill-rule="evenodd" clip-rule="evenodd" d="M120.757 58.0528C120.757 76.2055 106.043 90.9203 87.8902 90.9203C69.7376 90.9203 55.0227 76.2055 55.0227 58.0528C55.0227 39.9002 69.7376 25.1854 87.8902 25.1854C106.043 25.1854 120.757 39.9002 120.757 58.0528Z" stroke="#A05148" stroke-width="7.32052" stroke-linecap="round" stroke-linejoin="round"/>
<path d="M127.929 98.0914L113.885 84.048" stroke="#A05148" stroke-width="7.32052" stroke-linecap="round" stroke-linejoin="round"/>
<path d="M38.7448 32.7447C38.7447 32.9963 38.6951 33.2454 38.5987 33.4777C38.5023 33.7101 38.3611 33.9212 38.1831 34.099C38.0051 34.2767 37.7939 34.4177 37.5614 34.5138C37.3289 34.6099 37.0797 34.6592 36.8282 34.659C35.7693 34.659 34.916 33.7984 34.916 32.7447C34.9161 32.4931 34.9657 32.2441 35.0621 32.0117C35.1585 31.7793 35.2997 31.5682 35.4777 31.3904C35.6557 31.2127 35.8669 31.0717 36.0994 30.9756C36.3319 30.8795 36.5811 30.8302 36.8326 30.8304C37.0839 30.8303 37.3328 30.8797 37.565 30.9759C37.7972 31.0721 38.0082 31.2131 38.1858 31.3909C38.3634 31.5687 38.5042 31.7798 38.6001 32.0121C38.696 32.2444 38.7452 32.4934 38.7448 32.7447Z" stroke="#6A7185" stroke-width="1.64843" stroke-miterlimit="10"/>
<path d="M100.13 16.8587C99.2731 18.0786 97.5898 18.3732 96.3698 17.5167C95.1499 16.6601 94.8553 14.9768 95.7118 13.7569C96.5683 12.537 98.2516 12.2424 99.4716 13.0989C100.692 13.9554 100.986 15.6387 100.13 16.8587Z" fill="#6A7185"/>
<path d="M67.2737 101.677H91.7748M99.5432 101.677H110.001M67.2737 108.156H74.3266M80.7194 108.25H110.001" stroke="#6A7185" stroke-width="1.04348" stroke-miterlimit="10" stroke-linecap="round" stroke-linejoin="round"/>
<path d="M17.6424 27.8143C6.26431 30.7639 3.78475 45.9624 10.3221 53.1301" stroke="#6A7185" stroke-width="0.298696" stroke-miterlimit="10" stroke-dasharray="1.24 1.24"/>
<path d="M10.6477 53.4694C10.8633 53.69 11.0886 53.9008 11.3231 54.1012" stroke="#6A7185" stroke-width="0.298696" stroke-miterlimit="10"/>
<path d="M11.3885 51.4856C12.8319 51.5555 13.9484 52.7782 13.8783 54.2216C13.8125 55.6629 12.5857 56.7815 11.1425 56.7113C9.69913 56.6414 8.58261 55.4187 8.65253 53.9753C8.72061 52.528 9.94514 51.4154 11.3885 51.4856Z" fill="#6A7185"/>
<path d="M48.1067 28.6368C48.9623 16.9136 63.4672 11.7416 71.6937 16.8836" stroke="#6A7185" stroke-width="0.298696" stroke-miterlimit="10" stroke-dasharray="1.24 1.24"/>
<path d="M150.001 22.7312C150.174 22.4756 150.358 22.2277 150.552 21.9883" stroke="#6A7185" stroke-width="0.298696" stroke-miterlimit="10"/>
<path d="M70.2676 18.2282C70.596 19.6356 71.9995 20.5139 73.4066 20.1855C74.8127 19.8615 75.6923 18.4539 75.3639 17.0465C75.0355 15.6393 73.6323 14.7607 72.2249 15.0892C70.8133 15.4166 69.9391 16.8211 70.2676 18.2282Z" fill="#6A7185"/>
<path d="M88.6851 10.1575C96.0567 3.42628 108.023 8.70393 110.095 16.6779" stroke="#6A7185" stroke-width="0.298696" stroke-miterlimit="10" stroke-dasharray="1.24 1.24"/>
<path d="M108.43 16.6749C107.811 17.7346 108.164 19.0958 109.224 19.7149C110.28 20.3357 111.645 19.9809 112.264 18.9213C112.883 17.8616 112.53 16.5004 111.47 15.8814C111.219 15.7334 110.94 15.6365 110.651 15.5963C110.362 15.5561 110.068 15.5734 109.786 15.6471C109.503 15.7208 109.238 15.8496 109.006 16.026C108.773 16.2023 108.578 16.4229 108.43 16.6749Z" fill="#6A7185"/>
<path d="M15.0192 89.6192C15.0524 89.723 15.0218 89.8367 14.9415 89.9103L12.1857 92.4238C12.151 92.4554 12.109 92.4778 12.0634 92.4889C12.0179 92.5 11.9703 92.4995 11.925 92.4873C11.8797 92.4752 11.8382 92.4518 11.8043 92.4194C11.7704 92.3871 11.7452 92.3466 11.731 92.3019L10.6011 88.7473C10.585 88.6964 10.5839 88.6419 10.5977 88.5903C10.6116 88.5388 10.6399 88.4922 10.6794 88.4562L13.4347 85.9438C13.4694 85.9122 13.5114 85.8899 13.5569 85.8788C13.6025 85.8677 13.6501 85.8683 13.6953 85.8804C13.7406 85.8926 13.7821 85.9159 13.816 85.9482C13.8499 85.9806 13.8752 86.0209 13.8894 86.0656L15.0192 89.6192Z" stroke="#6A7185" stroke-width="0.896348" stroke-miterlimit="10"/>
<path d="M133.612 43.7651C133.592 43.8149 133.559 43.8581 133.516 43.8895C133.473 43.921 133.421 43.9394 133.368 43.9425L128.906 44.2083C128.859 44.2112 128.812 44.2022 128.77 44.1822C128.727 44.1622 128.691 44.1318 128.663 44.0939C128.636 44.056 128.618 44.0117 128.612 43.9652C128.606 43.9187 128.612 43.8714 128.629 43.8277L130.255 39.664C130.294 39.5622 130.389 39.4931 130.498 39.4866L134.959 39.2216C135.006 39.2188 135.053 39.2278 135.095 39.2479C135.138 39.2679 135.174 39.2982 135.202 39.3361C135.229 39.374 135.247 39.4183 135.253 39.4647C135.259 39.5112 135.253 39.5585 135.236 39.6022L133.612 43.7651Z" stroke="#6A7185" stroke-width="1.08209" stroke-miterlimit="10"/>
<path d="M57.4796 30.6011C55.8037 29.7859 55.0415 27.7989 55.773 26.1666C56.5042 24.5343 58.4589 23.8757 60.1386 24.6945" fill="#6A7185"/>
</g>
<defs>
<linearGradient id="paint0_linear_3573_9479" x1="91.8218" y1="114.375" x2="91.1381" y2="-25.7287" gradientUnits="userSpaceOnUse">
<stop stop-color="white"/>
<stop offset="1" stop-color="#EEEEEE"/>
</linearGradient>
<clipPath id="clip0_3573_9479">
<rect width="161.2" height="120" fill="white"/>
</clipPath>
</defs>
</svg>
