<svg width="314" height="313" viewBox="0 0 314 313" fill="none" xmlns="http://www.w3.org/2000/svg">
<rect x="0.5" width="313" height="313" rx="156.5" fill="#FFEFDF"/>
<path d="M166.65 111.322C167.543 112.804 196.262 121.259 196.262 121.259H192.429L193.314 124.171H194.643H195.086H202.171L200.843 120.629C200.843 120.629 171.814 101.265 170.726 101.156C169.638 101.047 165.51 109.426 166.65 111.322Z" fill="url(#paint0_linear_1618_7234)"/>
<path d="M126.432 82.8041L145.188 75.5916C145.188 75.5916 133.964 73.6573 129.709 77.4576C125.454 81.2558 126.432 82.8041 126.432 82.8041Z" fill="url(#paint1_linear_1618_7234)"/>
<path d="M170.726 119.645V143.592H219.842V119.645H170.726ZM198.794 125.56H190.469C189.393 125.56 188.513 124.679 188.513 123.604C188.513 122.528 189.393 121.647 190.469 121.647H198.794C199.869 121.647 200.75 122.528 200.75 123.604C200.75 124.679 199.869 125.56 198.794 125.56Z" fill="url(#paint2_linear_1618_7234)"/>
<path d="M151.817 75.7283C154.588 77.1962 170.726 101.156 170.726 101.156C170.726 101.156 168.281 105.069 167.467 106.86C166.652 108.654 166.652 111.322 166.652 111.322L155.219 96.5514L151.817 75.7283Z" fill="url(#paint3_linear_1618_7234)"/>
<path d="M139.704 54.1351C139.704 54.1351 136.996 49.237 135.773 48.7645C134.865 48.4126 131.43 49.1787 128.123 51.1874C124.817 53.1961 122.931 55.4301 122.955 56.1901C122.977 56.8697 124.397 60.5071 124.745 61.5407C124.785 61.6633 124.811 61.7478 124.819 61.788L139.704 54.1351Z" fill="url(#paint4_linear_1618_7234)"/>
<path d="M154.578 48.9676C153.118 46.7839 143.147 48.099 131.541 54.9435C127.99 57.0386 123.824 59.6988 121.356 61.7076L121.342 61.7176C114.737 67.0943 110.814 71.8094 111.936 73.4884C113.106 75.2397 120.222 73.9388 128.316 69.7806C128.316 69.7806 128.11 69.0427 128.227 68.9824L127.553 69.0306C127.553 69.0306 126.466 67.2411 125.627 64.79C125.633 64.786 129.232 61.7397 134.336 58.8885C138.633 56.4897 140.74 57.2759 141.303 57.5876C141.751 58.2632 142.153 59.0554 142.489 59.9823C150.882 55.3798 155.792 50.7853 154.578 48.9676Z" fill="url(#paint5_linear_1618_7234)"/>
<path d="M128.121 80.9442C128.121 80.9442 129.975 78.9877 129.812 75.7283C129.649 72.469 126.824 64.5628 126.824 64.5628L137.31 62.9321C137.31 62.9321 139.019 69.4529 140.73 72.7143C141.707 74.5762 142.326 76.7538 142.326 76.7538L148.801 85.8342L147.496 93.5253L138.775 94.3115L128.121 80.9442Z" fill="url(#paint6_linear_1618_7234)"/>
<path d="M141.184 224.629C141.184 224.629 141.321 246.58 141.396 254.078C141.414 255.885 140.261 258.723 140.261 261.222L168.504 261.168C168.504 261.168 168.504 258.314 166.238 257.011C164.239 255.861 154.335 255.706 153.331 251.958C152.887 250.3 156.357 224.629 156.357 224.629H141.184Z" fill="url(#paint7_linear_1618_7234)"/>
<path d="M128.121 80.9442C128.121 80.9442 135.331 85.4803 139.733 83.361C144.134 81.2417 142.254 76.3798 142.254 76.3798L144.21 75.7283L149.861 78.0105L157.196 97.408L163.554 128.54L156.357 148.426L132.474 133.933L126.824 82.2491L128.121 80.9442Z" fill="url(#paint8_linear_1618_7234)"/>
<path d="M144.211 138.537C144.211 138.537 134.183 224.629 141.185 224.629H156.358C160.799 224.629 166.162 165.051 166.596 159.184C167.031 153.316 163.554 128.54 163.554 128.54L156.165 129.843L144.211 138.537Z" fill="url(#paint9_linear_1618_7234)"/>
<path d="M142.99 76.1345C142.99 76.1345 150.514 82.2471 153.556 91.1586C156.599 100.07 163.554 128.54 163.554 128.54C163.554 128.54 155.832 78.296 151.817 75.7283C148.801 73.798 142.99 76.1345 142.99 76.1345Z" fill="url(#paint10_linear_1618_7234)"/>
<path d="M132.474 133.931C132.474 133.931 121.419 183.071 117.549 192.463C114.116 200.793 104.618 220.989 107.877 222.781L122.004 226.476C129.726 226.476 155.728 156.141 156.165 154.838C156.599 153.535 156.165 129.845 156.165 129.845L132.474 133.931Z" fill="url(#paint11_linear_1618_7234)"/>
<path d="M170.726 119.645L149.157 133.931V157.881L170.726 143.592V119.645Z" fill="url(#paint12_linear_1618_7234)"/>
<path d="M127.636 65.2565C129.088 71.6466 138.291 75.9535 140.527 75.3322C142.59 74.7572 144.888 68.8798 143.437 62.4897C141.985 56.0996 138.223 54.2819 134.338 55.1083C128.577 56.3349 126.185 58.8664 127.636 65.2565Z" fill="url(#paint13_linear_1618_7234)"/>
<path d="M141.363 57.4428C141.608 57.5474 141.544 53.1439 139.632 51.6841L125.038 60.5534C125.183 65.0514 127.905 69.5192 127.905 69.5192L129.735 69.3865C129.735 69.3865 129.301 67.2431 129.436 66.3724C129.572 65.5018 130.616 64.3999 131.844 65.6888C132.174 66.0346 132.797 67.1526 132.797 67.1526L133.69 67.2732C133.69 67.2732 132.717 63.3624 132.988 61.6211C133.264 59.8798 138.224 56.1077 141.363 57.4428Z" fill="url(#paint14_linear_1618_7234)"/>
<path d="M141.422 63.4247C141.422 63.4247 141.283 64.5789 141.878 66.3181C142.282 67.5005 143.135 68.534 142.968 68.8738C142.801 69.2136 141.231 69.4046 141.038 69.2578C140.595 68.922 141.289 65.347 139.894 63.9173C139.18 63.1874 141.062 63.2478 141.422 63.4247Z" fill="url(#paint15_linear_1618_7234)"/>
<path d="M138.981 70.9207C138.981 70.9207 139.974 71.357 141.241 71.359C142.508 71.361 142.838 70.3295 142.838 70.3295L138.981 70.9207Z" fill="white"/>
<path d="M135.975 65.4958C135.975 65.4958 137.511 65.3088 138.036 65.1318C138.562 64.9549 138.955 64.8161 138.955 64.8161L138.715 65.2525L138.844 65.5983C138.844 65.5983 137.603 65.9924 135.975 65.4958Z" fill="#9F5C44"/>
<path d="M141.822 64.5668C142.025 64.4803 142.5 64.2873 143.025 64.0239C143.521 63.7766 143.851 63.4227 143.851 63.4227L143.73 63.9334L143.851 64.2109C143.851 64.2109 143.089 64.609 141.822 64.5668Z" fill="#9F5C44"/>
<path d="M134.69 64.05L135.301 63.1573L138.862 62.5903L138.957 63.7444L134.69 64.05Z" fill="#C77C44"/>
<path d="M143.499 62.2826L143.326 61.5769L141.362 62.0092L141.551 63.1432L143.499 62.2826Z" fill="#C77C44"/>
<path d="M154.93 49.4582C153.47 47.2746 143.499 48.5896 131.893 55.4341C128.342 57.5293 124.175 60.1915 121.708 62.1982L121.694 62.2082C115.089 67.5849 111.166 72.3001 112.288 73.979C113.458 75.7303 120.574 74.4294 128.667 70.2732C128.667 70.2732 128.462 69.5353 128.579 69.475L127.905 69.5232C127.905 69.5232 126.818 67.7337 125.979 65.2826C125.985 65.2786 129.584 62.2323 134.688 59.3811C138.984 56.9823 141.092 57.7705 141.655 58.0802C142.103 58.7558 142.505 59.548 142.841 60.477C151.236 55.8684 156.146 51.2739 154.93 49.4582Z" fill="url(#paint16_linear_1618_7234)"/>
<path d="M126.824 82.2471C126.824 82.2471 133.779 88.9851 137.69 111.153C141.601 133.322 142.254 158.098 142.254 158.098C142.254 158.098 132.979 157.881 129.649 158.098C127.176 158.259 121.896 159.646 121.896 159.646C121.896 159.646 123.601 126.823 123.289 120.948C122.764 111.045 113.565 91.3758 114.002 90.29C114.436 89.2022 126.824 82.2471 126.824 82.2471Z" fill="url(#paint17_linear_1618_7234)"/>
<path d="M107.877 222.781L97.0067 260.124L110.806 260.136L108.904 256.957L122.004 226.476L107.877 222.781Z" fill="url(#paint18_linear_1618_7234)"/>
<path d="M95 263.369C95 263.369 95.744 259.45 97.5194 258.503C99.2929 257.556 108.502 257.347 109.966 258.479C111.651 259.784 111.884 263.369 111.884 263.369H95Z" fill="url(#paint19_linear_1618_7234)"/>
<path d="M162.482 108.572C162.743 109.571 167.253 113.62 168.144 112.428C168.538 111.901 167.698 108.461 170.306 105.039C171.968 102.857 172.69 103.054 172.932 102.383C173.173 101.711 169.489 97.5025 168.512 97.9026C167.535 98.3028 161.505 104.824 162.482 108.572Z" fill="url(#paint20_linear_1618_7234)"/>
<path d="M173.714 133.931H168.677V118.054L173.714 116.532V133.931Z" fill="url(#paint21_linear_1618_7234)"/>
<path d="M168.677 118.054L170.726 116.532H173.714L168.677 118.054Z" fill="url(#paint22_linear_1618_7234)"/>
<path d="M216.816 116.532V121.647L217.56 121.155V118.054L216.816 116.532Z" fill="url(#paint23_linear_1618_7234)"/>
<path d="M167.608 132.909C167.608 132.909 172.882 131.936 173.698 132.087C174.514 132.238 176.023 133.135 176.716 133.283C177.41 133.434 178.1 133.529 178.116 133.792C178.132 134.055 177.687 134.725 176.66 134.661C175.632 134.598 173.32 134.124 172.56 134.429C171.802 134.733 167.608 132.909 167.608 132.909Z" fill="url(#paint24_linear_1618_7234)"/>
<path d="M149.157 133.931V157.879H198.273V133.931H149.157ZM177.941 140.954H169.616C168.541 140.954 167.66 140.074 167.66 138.998C167.66 137.922 168.541 137.041 169.616 137.041H177.941C179.017 137.041 179.897 137.922 179.897 138.998C179.897 140.076 179.017 140.954 177.941 140.954Z" fill="url(#paint25_linear_1618_7234)"/>
<path d="M198.273 133.931L219.842 119.645V143.592L198.273 157.881V133.931Z" fill="url(#paint26_linear_1618_7234)"/>
<path d="M198.271 130.822H194.632V157.881H198.271V130.822Z" fill="url(#paint27_linear_1618_7234)"/>
<path d="M152.797 130.822H149.157V157.881H152.797V130.822Z" fill="url(#paint28_linear_1618_7234)"/>
<path d="M198.273 157.881L200.555 156.358V129.3L198.273 130.822V157.881Z" fill="url(#paint29_linear_1618_7234)"/>
<path d="M217.56 145.11L219.842 143.59V116.532L217.56 118.054V145.11Z" fill="url(#paint30_linear_1618_7234)"/>
<path d="M216.816 116.532L217.56 118.054L219.842 116.532H216.816Z" fill="url(#paint31_linear_1618_7234)"/>
<path d="M194.632 130.822L200.555 129.3L198.273 130.822H194.632Z" fill="url(#paint32_linear_1618_7234)"/>
<path d="M111.884 263.369H95V265H111.884V263.369Z" fill="#3F3B38"/>
<path d="M168.406 261.222H140.26V262.853H168.406V261.222Z" fill="#3F3B38"/>
<path d="M127.59 81.477L129.066 79.4763C129.066 79.4763 135.253 83.3992 139.717 81.477C143.45 79.8684 141.999 75.7283 141.999 75.7283L142.594 76.2672C142.594 76.2672 144.806 81.3383 141.466 83.4576C138.128 85.5749 131.03 84.7947 127.59 81.477Z" fill="url(#paint33_linear_1618_7234)"/>
<path opacity="0.5" d="M142.254 158.098C142.254 158.098 142.22 156.809 142.121 154.575L142.115 155.345L140.008 155.327L140.026 153.22L142.061 153.236C142.057 153.149 142.053 153.069 142.049 152.98L140.028 152.964L140.046 150.761L141.934 150.777C141.904 150.208 141.87 149.617 141.834 148.993L140.06 148.979L140.078 146.872L141.705 146.886C141.699 146.801 141.695 146.717 141.689 146.631L140.08 146.617L140.098 144.413L141.542 144.425C141.502 143.844 141.46 143.249 141.415 142.641L140.115 142.629L140.133 140.522L141.255 140.532C141.249 140.448 141.241 140.361 141.235 140.277L140.135 140.267L140.153 138.063L141.054 138.071C141.003 137.484 140.951 136.889 140.899 136.287L140.167 136.281L140.185 134.174L140.706 134.178C140.698 134.092 140.69 134.009 140.682 133.923L140.189 133.919L140.207 131.715L140.466 131.717C140.406 131.126 140.346 130.533 140.281 129.933H140.223L140.227 129.431C139.775 125.218 139.222 120.823 138.554 116.44L138.548 117.222L136.344 117.204L136.363 115.096L138.351 115.112C138.337 115.028 138.323 114.942 138.309 114.857L136.365 114.841L136.383 112.637L137.947 112.651C137.863 112.153 137.778 111.652 137.69 111.155C137.672 111.057 137.653 110.964 137.635 110.866L136.397 110.856L136.415 108.748L137.241 108.755C137.225 108.668 137.207 108.586 137.189 108.499L136.417 108.493L136.435 106.289L136.728 106.291C136.556 105.495 136.379 104.721 136.198 103.973L136.194 104.504L134.086 104.486L134.104 102.379L135.806 102.393C135.783 102.308 135.763 102.222 135.741 102.137L134.109 102.123L134.127 99.9194L135.14 99.9274C134.965 99.3122 134.786 98.719 134.607 98.1399L134.141 98.1359L134.153 96.7163C133.543 94.8644 132.928 93.2217 132.325 91.7719L130.208 91.7538L130.226 89.6466L131.398 89.6566C131.358 89.5722 131.32 89.4837 131.279 89.4013L130.228 89.3912L130.246 87.3383C129.852 86.6023 129.48 85.9549 129.134 85.3939L127.899 85.3838L127.915 83.5702C127.236 82.6472 126.824 82.2451 126.824 82.2451C126.824 82.2451 126.568 82.3879 126.142 82.6312L126.138 83.0072L125.491 83.0011C125.352 83.0796 125.205 83.164 125.05 83.2525L126.136 83.2625L126.118 85.3698L123.914 85.3517L123.926 83.8999C123.844 83.9482 123.755 83.9985 123.669 84.0487L123.659 85.3497L121.552 85.3316V85.2813C120.55 85.8704 119.515 86.4897 118.537 87.0889L119.754 87.099L119.736 89.3028L117.532 89.2847L117.546 87.7042C117.46 87.7585 117.373 87.8128 117.289 87.8651L117.277 89.2826L115.173 89.2645C114.512 89.7351 114.076 90.101 113.999 90.288C113.893 90.5514 114.359 91.9187 115.129 93.9717L115.133 93.4107L117.241 93.4288L117.222 95.6325L115.755 95.6205C115.787 95.7069 115.819 95.7894 115.853 95.8758L117.222 95.8879L117.204 97.9951L116.661 97.9911C116.913 98.6506 117.174 99.3383 117.442 100.048L117.444 99.7806L119.647 99.7987L119.629 102.002L118.165 101.99C118.198 102.077 118.228 102.159 118.26 102.246L119.627 102.258L119.609 104.365L119.024 104.361C119.979 107.039 120.91 109.838 121.66 112.515L123.43 112.529L123.411 114.732L122.245 114.722C122.267 114.809 122.285 114.893 122.306 114.978L123.409 114.988L123.391 117.095L122.77 117.089C122.891 117.702 122.993 118.299 123.076 118.875L123.375 118.877L123.357 121.08H123.295C123.299 121.161 123.303 121.245 123.305 121.336H123.355L123.337 123.443H123.325C123.323 123.986 123.315 124.581 123.305 125.226H123.323L123.305 127.43H123.261C123.259 127.515 123.257 127.601 123.255 127.686H123.305L123.287 129.793H123.196C123.178 130.372 123.16 130.967 123.14 131.574L123.273 131.576L123.255 133.78L123.064 133.778C123.06 133.862 123.058 133.949 123.054 134.033L123.253 134.035L123.234 136.143L122.975 136.141C122.953 136.732 122.929 137.325 122.905 137.922L123.22 137.924L123.202 140.128L122.816 140.124C122.812 140.208 122.808 140.295 122.806 140.379L123.202 140.383L123.184 142.49L122.718 142.486C122.692 143.086 122.665 143.679 122.639 144.268L123.17 144.272L123.152 146.476L122.541 146.472C122.537 146.556 122.533 146.643 122.529 146.727L123.148 146.733L123.13 148.84L122.43 148.834C122.402 149.444 122.374 150.039 122.346 150.616L123.114 150.622L123.096 152.826L122.241 152.818C122.237 152.902 122.233 152.988 122.229 153.073L123.094 153.081L123.076 155.188L122.125 155.18C122.092 155.836 122.062 156.433 122.036 156.962L123.06 156.97L123.041 159.173L121.926 159.163C121.919 159.262 121.915 159.35 121.911 159.419L122.776 159.427C123.064 159.356 123.409 159.27 123.793 159.18L123.297 159.175L123.315 156.972L125.519 156.99L125.503 158.789C126.092 158.663 126.699 158.538 127.288 158.43L127.3 157.004L129.407 157.022L129.397 158.122C129.482 158.114 129.572 158.104 129.653 158.1H129.655L129.665 157.024L131.869 157.042L131.861 158.021C132.422 158.011 133.021 158.005 133.642 158.003L133.65 157.056L135.757 157.074L135.749 158.005C135.834 158.005 135.92 158.007 136.005 158.007L136.013 157.076L138.216 157.094L138.208 158.027C138.852 158.035 139.455 158.045 139.99 158.053L139.998 157.11L142.105 157.129L142.097 158.096C142.194 158.096 142.254 158.098 142.254 158.098ZM117.257 91.6453L115.149 91.6272L115.167 89.5199L117.275 89.538L117.257 91.6453ZM119.663 98.0152L117.46 97.9971L117.478 95.8899L119.682 95.908L119.663 98.0152ZM119.684 95.6526L117.48 95.6345L117.498 93.4308L119.702 93.4489L119.684 95.6526ZM119.716 91.6654L117.512 91.6473L117.53 89.54L119.734 89.5581L119.716 91.6654ZM121.537 87.1151L123.645 87.1332L123.627 89.3369L121.519 89.3188L121.537 87.1151ZM121.517 89.5742L123.625 89.5923L123.606 91.6995L121.499 91.6814L121.517 89.5742ZM121.483 93.4629L123.59 93.481L123.572 95.6848L121.465 95.6667L121.483 93.4629ZM121.463 95.9221L123.57 95.9402L123.552 98.0474L121.445 98.0293L121.463 95.9221ZM121.431 99.8128L123.538 99.8309L123.52 102.035L121.413 102.017L121.431 99.8128ZM121.409 102.272L123.516 102.29L123.498 104.397L121.391 104.379L121.409 102.272ZM121.377 106.161L123.484 106.179L123.466 108.383L121.358 108.364L121.377 106.161ZM121.338 110.727L121.356 108.62L123.464 108.638L123.446 110.745L121.338 110.727ZM125.531 155.204L123.327 155.186L123.345 153.079L125.549 153.097L125.531 155.204ZM125.549 152.842L123.345 152.824L123.363 150.62L125.567 150.638L125.549 152.842ZM125.583 148.856L123.379 148.838L123.397 146.731L125.601 146.749L125.583 148.856ZM125.603 146.494L123.399 146.476L123.417 144.272L125.621 144.29L125.603 146.494ZM125.637 142.507L123.434 142.488L123.452 140.381L125.655 140.399L125.637 142.507ZM125.657 140.146L123.454 140.128L123.472 137.924L125.676 137.942L125.657 140.146ZM125.69 136.159L123.486 136.141L123.504 134.033L125.708 134.051L125.69 136.159ZM125.71 133.796L123.506 133.778L123.524 131.574L125.728 131.592L125.71 133.796ZM125.744 129.811L123.54 129.793L123.558 127.686L125.762 127.704L125.744 129.811ZM125.764 127.448L123.56 127.43L123.578 125.226L125.782 125.244L125.764 127.448ZM125.798 123.461L123.594 123.443L123.613 121.336L125.816 121.354L125.798 123.461ZM125.818 121.1L123.615 121.082L123.633 118.879L125.836 118.897L125.818 121.1ZM125.85 117.113L123.647 117.095L123.665 114.988L125.869 115.006L125.85 117.113ZM125.871 114.751L123.667 114.732L123.685 112.529L125.889 112.547L125.871 114.751ZM125.905 110.765L123.701 110.747L123.719 108.64L125.923 108.658L125.905 110.765ZM125.925 108.403L123.721 108.385L123.739 106.181L125.943 106.199L125.925 108.403ZM125.959 104.415L123.755 104.397L123.773 102.29L125.977 102.308L125.959 104.415ZM125.977 102.055L123.773 102.037L123.791 99.8329L125.995 99.851L125.977 102.055ZM126.011 98.0675L123.808 98.0494L123.826 95.9422L126.029 95.9603L126.011 98.0675ZM126.031 95.7049L123.828 95.6868L123.846 93.4831L126.05 93.5011L126.031 95.7049ZM126.066 91.7196L123.862 91.7016L123.88 89.5943L126.084 89.6124L126.066 91.7196ZM126.086 89.357L123.882 89.3389L123.9 87.1352L126.104 87.1533L126.086 89.357ZM127.885 87.1674L129.993 87.1855L129.974 89.3892L127.867 89.3711L127.885 87.1674ZM127.865 89.6285L129.972 89.6466L129.954 91.7538L127.847 91.7357L127.865 89.6285ZM127.833 93.5172L129.94 93.5353L129.922 95.7391L127.815 95.721L127.833 93.5172ZM127.811 95.9764L129.918 95.9945L129.9 98.1017L127.793 98.0836L127.811 95.9764ZM127.779 99.8651L129.886 99.8832L129.868 102.087L127.761 102.069L127.779 99.8651ZM127.759 102.324L129.866 102.342L129.848 104.45L127.741 104.431L127.759 102.324ZM127.724 106.213L129.832 106.231L129.814 108.435L127.706 108.417L127.724 106.213ZM127.704 108.674L129.812 108.692L129.793 110.799L127.686 110.781L127.704 108.674ZM127.672 112.563L129.779 112.581L129.761 114.785L127.654 114.767L127.672 112.563ZM127.65 115.022L129.757 115.04L129.739 117.147L127.632 117.129L127.65 115.022ZM127.618 118.911L129.725 118.929L129.707 121.133L127.6 121.114L127.618 118.911ZM127.598 121.37L129.705 121.388L129.687 123.495L127.58 123.477L127.598 121.37ZM129.419 155.236L127.312 155.218L127.33 153.111L129.438 153.129L129.419 155.236ZM129.44 152.876L127.332 152.858L127.35 150.654L129.458 150.672L129.44 152.876ZM129.472 148.889L127.365 148.871L127.383 146.763L129.49 146.781L129.472 148.889ZM129.492 146.526L127.385 146.508L127.403 144.304L129.51 144.322L129.492 146.526ZM129.526 142.541L127.419 142.523L127.437 140.415L129.544 140.434L129.526 142.541ZM129.546 140.178L127.439 140.16L127.457 137.956L129.564 137.974L129.546 140.178ZM129.578 136.191L127.471 136.173L127.489 134.066L129.596 134.084L129.578 136.191ZM129.598 133.83L127.491 133.812L127.509 131.608L129.617 131.627L129.598 133.83ZM129.633 129.843L127.525 129.825L127.543 127.718L129.651 127.736L129.633 129.843ZM129.653 127.48L127.545 127.462L127.564 125.259L129.671 125.277L129.653 127.48ZM131.879 155.259L129.675 155.24L129.693 153.133L131.897 153.151L131.879 155.259ZM131.899 152.896L129.695 152.878L129.713 150.674L131.917 150.692L131.899 152.896ZM131.931 148.909L129.727 148.891L129.745 146.783L131.949 146.801L131.931 148.909ZM131.951 146.548L129.747 146.53L129.765 144.326L131.969 144.344L131.951 146.548ZM131.985 142.561L129.781 142.543L129.8 140.436L132.003 140.454L131.985 142.561ZM132.005 140.198L129.802 140.18L129.82 137.976L132.023 137.994L132.005 140.198ZM132.039 136.213L129.836 136.195L129.854 134.088L132.058 134.106L132.039 136.213ZM132.06 133.85L129.856 133.832L129.874 131.629L132.078 131.647L132.06 133.85ZM132.092 129.863L129.888 129.845L129.906 127.738L132.11 127.756L132.092 129.863ZM132.112 127.503L129.908 127.484L129.926 125.281L132.13 125.299L132.112 127.503ZM132.146 123.515L129.942 123.497L129.96 121.39L132.164 121.408L132.146 123.515ZM132.166 121.153L129.962 121.135L129.98 118.931L132.184 118.949L132.166 121.153ZM132.2 117.167L129.997 117.149L130.015 115.042L132.218 115.06L132.2 117.167ZM132.22 114.805L130.017 114.787L130.035 112.583L132.239 112.601L132.22 114.805ZM132.253 110.818L130.049 110.799L130.067 108.692L132.271 108.71L132.253 110.818ZM132.273 108.457L130.069 108.439L130.087 106.235L132.291 106.253L132.273 108.457ZM132.307 104.47L130.103 104.452L130.121 102.344L132.325 102.362L132.307 104.47ZM132.327 102.107L130.123 102.089L130.141 99.8852L132.345 99.9033L132.327 102.107ZM132.359 98.1218L130.155 98.1037L130.174 95.9965L132.377 96.0146L132.359 98.1218ZM132.379 95.7592L130.176 95.7411L130.194 93.5373L132.397 93.5554L132.379 95.7592ZM134.074 106.267L136.182 106.285L136.163 108.489L134.056 108.471L134.074 106.267ZM134.052 108.726L136.159 108.744L136.141 110.852L134.034 110.834L134.052 108.726ZM134.02 112.615L136.127 112.633L136.109 114.837L134.002 114.819L134.02 112.615ZM134 115.076L136.107 115.094L136.089 117.202L133.982 117.183L134 115.076ZM133.968 118.965L136.075 118.983L136.057 121.187L133.95 121.169L133.968 118.965ZM133.946 121.424L136.053 121.442L136.035 123.549L133.928 123.531L133.946 121.424ZM135.767 155.291L133.66 155.273L133.678 153.165L135.785 153.184L135.767 155.291ZM135.787 152.928L133.68 152.91L133.698 150.706L135.806 150.724L135.787 152.928ZM135.822 148.943L133.714 148.925L133.733 146.818L135.84 146.836L135.822 148.943ZM135.842 146.58L133.735 146.562L133.753 144.358L135.86 144.377L135.842 146.58ZM135.874 142.593L133.767 142.575L133.785 140.468L135.892 140.486L135.874 142.593ZM135.894 140.232L133.787 140.214L133.805 138.011L135.912 138.029L135.894 140.232ZM135.928 136.245L133.821 136.227L133.839 134.12L135.946 134.138L135.928 136.245ZM135.948 133.883L133.841 133.864L133.859 131.661L135.966 131.679L135.948 133.883ZM135.983 129.897L133.875 129.879L133.893 127.772L136.001 127.79L135.983 129.897ZM136.001 127.535L133.893 127.517L133.911 125.313L136.019 125.331L136.001 127.535ZM138.226 155.311L136.023 155.293L136.041 153.186L138.245 153.204L138.226 155.311ZM138.247 152.95L136.043 152.932L136.061 150.728L138.265 150.747L138.247 152.95ZM138.281 148.963L136.077 148.945L136.095 146.838L138.299 146.856L138.281 148.963ZM138.301 146.6L136.097 146.582L136.115 144.379L138.319 144.397L138.301 146.6ZM138.335 142.615L136.131 142.597L136.149 140.49L138.353 140.508L138.335 142.615ZM138.353 140.253L136.149 140.234L136.167 138.031L138.371 138.049L138.353 140.253ZM138.387 136.265L136.184 136.247L136.202 134.14L138.405 134.158L138.387 136.265ZM138.407 133.905L136.204 133.887L136.222 131.683L138.426 131.701L138.407 133.905ZM138.442 129.917L136.238 129.899L136.256 127.792L138.46 127.81L138.442 129.917ZM138.462 127.555L136.258 127.537L136.276 125.333L138.48 125.351L138.462 127.555ZM138.494 123.57L136.29 123.551L136.308 121.444L138.512 121.462L138.494 123.57ZM138.514 121.207L136.31 121.189L136.328 118.985L138.532 119.003L138.514 121.207Z" fill="#DED1BA"/>
<path d="M114.001 90.288C111.546 92.5641 114.327 100.34 115.632 103.436C116.935 106.533 128.672 133.591 129.488 133.917C130.302 134.242 136.497 128.212 136.335 126.419C136.172 124.625 129.488 102.294 127.206 97.5668C124.922 92.8416 119.217 85.4522 114.001 90.288Z" fill="url(#paint34_linear_1618_7234)"/>
<path d="M176.006 134.216C174.365 133.587 168.594 132.853 167.012 132.765C160.111 131.283 138.301 126.62 136.33 126.421C136.33 126.421 128.118 128.24 129.484 133.919C130.175 136.794 157.588 136.488 166.395 136.316C167.171 136.082 172.075 140.747 172.678 140.888C173.281 141.029 179.599 139.617 179.681 139.287C180.15 137.427 177.896 134.942 176.006 134.216Z" fill="url(#paint35_linear_1618_7234)"/>
<path opacity="0.5" d="M134.764 120.445L134.754 121.559L132.55 121.541L132.569 119.433L134.475 119.45C134.451 119.365 134.424 119.279 134.4 119.194L132.571 119.178L132.589 116.974L133.745 116.984C133.57 116.399 133.391 115.804 133.206 115.197L132.603 115.191L132.619 113.281C132.536 113.013 132.454 112.746 132.369 112.478L132.367 112.828L130.26 112.81L130.278 110.606L131.788 110.618C131.599 110.019 131.408 109.422 131.219 108.831L130.292 108.823L130.31 106.716L130.536 106.718C130.508 106.631 130.479 106.547 130.451 106.462L130.313 106.46L130.317 106.05C129.699 104.18 129.106 102.449 128.577 100.995L128.565 102.459L126.361 102.441L126.38 100.334L128.34 100.35C128.308 100.265 128.276 100.175 128.245 100.094L126.382 100.078L126.4 97.8745L127.347 97.8825C127.298 97.7739 127.248 97.6614 127.202 97.5689C126.975 97.0983 126.713 96.6017 126.422 96.093H126.414V96.0789C126.331 95.9361 126.249 95.7934 126.162 95.6486L126.158 96.089L124.051 96.0709L124.069 93.9636L125.065 93.9717C125.002 93.8852 124.942 93.8008 124.88 93.7143L124.071 93.7083L124.079 92.6908C123.084 91.4944 121.962 90.4227 120.766 89.6928L120.118 89.6868L120.12 89.341C120.036 89.2987 119.951 89.2545 119.867 89.2163L119.863 89.6848L117.756 89.6667L117.764 88.7136C117.172 88.6975 116.575 88.784 115.978 89.0112L115.972 89.6506L114.804 89.6406C114.534 89.8255 114.265 90.0347 113.997 90.282C113.682 90.5735 113.457 90.9576 113.3 91.41L113.499 91.412L113.481 93.6158L113.028 93.6117C113.03 93.6962 113.034 93.7806 113.038 93.8671L113.481 93.8711L113.463 95.9784L113.298 95.9764C113.408 96.5776 113.545 97.1868 113.702 97.792V97.7619L115.906 97.78L115.888 99.9837L114.343 99.9717C114.371 100.056 114.398 100.143 114.428 100.227L115.886 100.239L115.867 102.346L115.19 102.34C115.347 102.742 115.495 103.114 115.628 103.43C115.9 104.074 116.621 105.753 117.601 108.011L117.613 106.603L119.72 106.621L119.702 108.728L117.906 108.712C118.154 109.281 118.413 109.879 118.686 110.502L119.688 110.51L119.67 112.714H119.654C119.742 112.915 119.831 113.118 119.919 113.321L119.921 112.971L122.125 112.989L122.107 115.096L120.691 115.084C120.951 115.675 121.214 116.273 121.479 116.874L122.091 116.88L122.085 118.235C122.837 119.93 123.593 121.631 124.325 123.254L125.931 123.268L125.913 125.472L125.324 125.468C125.362 125.554 125.402 125.639 125.441 125.725L125.911 125.729L125.903 126.736C125.987 126.921 126.072 127.102 126.154 127.283L126.168 125.731L128.372 125.749L128.354 127.856L126.41 127.84C126.703 128.474 126.981 129.073 127.244 129.63L128.338 129.64L128.32 131.844H128.308C128.929 133.1 129.355 133.868 129.488 133.921C129.599 133.965 129.81 133.889 130.087 133.728L130.101 132.113L132.092 132.129C132.215 132.015 132.341 131.896 132.466 131.775L132.484 129.672L134.436 129.688C135.552 128.375 136.397 127.096 136.335 126.421C136.284 125.892 135.667 123.57 134.764 120.445ZM115.924 96.0045L113.72 95.9864L113.738 93.8792L115.942 93.8973L115.924 96.0045ZM115.942 93.6419L113.738 93.6238L113.756 91.4201L115.96 91.4382L115.942 93.6419ZM119.724 106.372L117.617 106.354L117.635 104.15L119.742 104.168L119.724 106.372ZM119.758 102.387L117.651 102.368L117.669 100.261L119.776 100.279L119.758 102.387ZM119.778 100.024L117.671 100.006L117.689 97.8021L119.796 97.8202L119.778 100.024ZM119.812 96.0367L117.705 96.0186L117.723 93.9113L119.831 93.9294L119.812 96.0367ZM119.833 93.6761L117.725 93.658L117.743 91.4542L119.851 91.4723L119.833 93.6761ZM122.131 112.742L119.927 112.724L119.945 110.52L122.149 110.538L122.131 112.742ZM122.165 108.755L119.961 108.736L119.979 106.629L122.183 106.647L122.165 108.755ZM122.185 106.394L119.981 106.376L119.999 104.172L122.203 104.19L122.185 106.394ZM122.217 102.407L120.014 102.389L120.032 100.281L122.235 100.299L122.217 102.407ZM122.237 100.044L120.034 100.026L120.052 97.8222L122.256 97.8403L122.237 100.044ZM122.272 96.0588L120.068 96.0407L120.086 93.9335L122.29 93.9516L122.272 96.0588ZM122.292 93.6962L120.088 93.6781L120.106 91.4743L122.31 91.4924L122.292 93.6962ZM125.947 121.484L123.84 121.466L123.858 119.359L125.965 119.377L125.947 121.484ZM125.965 119.124L123.858 119.106L123.876 116.902L125.983 116.92L125.965 119.124ZM125.999 115.137L123.892 115.118L123.91 113.011L126.018 113.029L125.999 115.137ZM126.02 112.774L123.912 112.756L123.93 110.552L126.038 110.57L126.02 112.774ZM126.054 108.789L123.947 108.771L123.965 106.663L126.072 106.681L126.054 108.789ZM126.074 106.426L123.967 106.408L123.985 104.204L126.092 104.222L126.074 106.426ZM126.106 102.439L123.999 102.421L124.017 100.313L126.124 100.332L126.106 102.439ZM126.126 100.078L124.019 100.06L124.037 97.8564L126.144 97.8745L126.126 100.078ZM128.372 125.492L126.168 125.474L126.186 123.27L128.39 123.288L128.372 125.492ZM128.406 121.507L126.203 121.488L126.221 119.381L128.424 119.399L128.406 121.507ZM128.426 119.144L126.223 119.126L126.241 116.922L128.445 116.94L128.426 119.144ZM128.459 115.157L126.255 115.139L126.273 113.031L128.477 113.049L128.459 115.157ZM128.479 112.796L126.275 112.778L126.293 110.574L128.497 110.592L128.479 112.796ZM128.513 108.809L126.309 108.791L126.327 106.683L128.531 106.702L128.513 108.809ZM128.533 106.446L126.329 106.428L126.347 104.224L128.551 104.242L128.533 106.446ZM132.209 131.874L130.101 131.856L130.119 129.652L132.227 129.67L132.209 131.874ZM132.241 127.887L130.134 127.868L130.152 125.761L132.259 125.779L132.241 127.887ZM132.261 125.526L130.154 125.508L130.172 123.304L132.279 123.322L132.261 125.526ZM132.295 121.539L130.188 121.521L130.206 119.413L132.313 119.431L132.295 121.539ZM132.315 119.176L130.208 119.158L130.226 116.954L132.333 116.972L132.315 119.176ZM132.347 115.191L130.24 115.173L130.258 113.066L132.365 113.084L132.347 115.191ZM134.7 127.909L132.496 127.891L132.514 125.783L134.718 125.801L134.7 127.909ZM134.72 125.546L132.516 125.528L132.534 123.324L134.738 123.342L134.72 125.546Z" fill="#DED1BA"/>
<path d="M126.824 131.99C127.003 128.54 131.567 124.818 135.826 124.241C136.383 124.165 138.484 126.145 138.15 126.73C137.816 127.316 135.1 128.729 133.578 132.262C132.89 133.856 133.075 135.576 132.512 136.01C131.947 136.446 126.721 133.953 126.824 131.99Z" fill="url(#paint36_linear_1618_7234)"/>
<path d="M130.954 88.7176C130.954 88.7176 129.285 83.9864 128.959 83.9864C128.633 83.9864 127.904 85.1345 127.904 85.1345L130.954 88.7176Z" fill="url(#paint37_linear_1618_7234)"/>
<path d="M128.959 83.9864L126.824 87.0025C126.824 87.0025 124.908 85.2572 124.678 83.4676C124.449 81.6781 129.709 77.4576 129.709 77.4576C129.709 77.4576 128.121 79.8705 128.348 81.5012C128.579 83.16 128.959 83.9864 128.959 83.9864Z" fill="url(#paint38_linear_1618_7234)"/>
<path d="M141.83 75.2498L142.025 75.8088L142.594 76.2672C142.594 76.2672 143.603 76.6553 144.002 77.0313C144.402 77.4093 146.481 79.5628 146.481 79.5628L146.129 78.1734C146.129 78.1734 144.955 76.2451 144.158 75.8369C143.364 75.4287 141.83 75.2498 141.83 75.2498Z" fill="url(#paint39_linear_1618_7234)"/>
<path d="M141.83 75.2498C141.83 75.2498 144.605 75.3745 146.129 78.1714L147.38 79.3939C147.38 79.3939 146.581 76.782 144.84 75.5353C143.891 74.8577 141.83 75.2498 141.83 75.2498Z" fill="url(#paint40_linear_1618_7234)"/>
<path opacity="0.5" d="M158.833 101.222L160.349 103.181L160.339 103.118L162.416 102.765L162.77 104.842L161.766 105.013L163.003 106.609L163.071 106.597L163.093 106.724L163.425 107.154L163.323 106.553L165.496 106.181L165.868 108.352L164.531 108.584L164.708 108.813L165.908 108.608L166.262 110.685L166.168 110.701L166.648 111.322C166.648 111.322 166.65 108.73 167.431 106.939L167.25 105.883L168.022 105.75C168.39 105.067 168.83 104.297 169.252 103.581L168.922 101.651L170.591 101.365C170.674 101.232 170.722 101.154 170.722 101.154C170.722 101.154 170.706 101.13 170.68 101.092L168.88 101.399L168.508 99.2277L169.321 99.0889C168.997 98.6124 168.627 98.0715 168.215 97.4703H168.211L168.209 97.4603C168.098 97.2994 167.979 97.1265 167.863 96.9576L167.957 97.5145L165.88 97.8684L165.526 95.7913L166.9 95.5561C166.847 95.4817 166.793 95.4013 166.739 95.3249L165.484 95.54L165.112 93.3664L165.353 93.3242C164.493 92.0876 163.574 90.7786 162.637 89.4515L162.659 89.5802L160.485 89.9522L160.113 87.7806L161.302 87.5775C160.916 87.0366 160.528 86.4998 160.144 85.9669L159.814 86.0232L159.699 85.3537C159.587 85.1988 159.474 85.044 159.361 84.8892L159.563 86.0655L157.485 86.4194L157.132 84.3423L158.76 84.0648C158.704 83.9884 158.648 83.912 158.591 83.8356L157.089 84.0929L156.717 81.9214L157.111 81.853C156.038 80.4314 155.046 79.1626 154.198 78.1452L152.089 78.5051L151.717 76.3315L152.434 76.2089C152.187 75.9797 151.976 75.8108 151.815 75.7243C150.579 74.9341 148.876 74.8637 147.293 75.0527L147.331 75.2719L145.158 75.6439L145.126 75.4609C145.041 75.483 144.959 75.5031 144.876 75.5252L144.904 75.6881L143.603 75.9113C143.217 76.042 142.986 76.1345 142.986 76.1345C142.986 76.1345 143.603 76.6352 144.552 77.5581L145.206 77.4455L145.365 78.3704C145.467 78.477 145.572 78.5856 145.68 78.6982L145.459 77.4033L147.631 77.0313L148.003 79.2029L146.402 79.4763C146.469 79.5507 146.537 79.6251 146.603 79.7015L148.045 79.4542L148.399 81.5313L148.168 81.5715C149.079 82.7277 150.014 84.0407 150.882 85.4904L150.87 85.414L152.947 85.0601L153.301 87.1372L151.93 87.3704C152.209 87.9133 152.475 88.4723 152.724 89.0433L153.601 88.8925L153.973 91.0641L153.544 91.1365C153.546 91.1425 153.548 91.1486 153.552 91.1566C153.577 91.229 153.603 91.3074 153.629 91.3818L154.017 91.3155L154.371 93.3926L154.278 93.4086C154.54 94.2511 154.815 95.1801 155.105 96.1774L154.922 95.1077L157.095 94.7357L157.467 96.9093L155.418 97.2592C155.443 97.3416 155.465 97.4241 155.489 97.5065L157.512 97.1607L157.865 99.2377L156.064 99.5454C156.221 100.11 156.38 100.685 156.54 101.273L158.165 100.995L158.537 103.169L157.122 103.41C157.144 103.492 157.166 103.575 157.188 103.657L158.579 103.42L158.933 105.497L157.733 105.702C157.886 106.277 158.038 106.854 158.191 107.433L159.233 107.254L159.605 109.426L158.752 109.571C158.774 109.653 158.794 109.736 158.817 109.818L159.647 109.675L160.001 111.752L159.347 111.865C159.498 112.448 159.647 113.025 159.794 113.596L160.3 113.51L160.672 115.681L160.343 115.738C160.363 115.82 160.385 115.903 160.407 115.987L160.717 115.935L161.071 118.012L160.928 118.036C161.079 118.629 161.225 119.208 161.366 119.769L161.37 119.767L161.38 119.832C162.659 124.907 163.546 128.538 163.546 128.538C163.546 128.538 161.431 114.732 158.833 101.222ZM169.029 103.772L166.952 104.126L166.598 102.049L168.675 101.695L169.029 103.772ZM168.259 99.2719L168.631 101.443L166.554 101.797L166.182 99.6258L168.259 99.2719ZM154.306 78.3865L154.66 80.4636L152.487 80.8356L152.133 78.7585L154.306 78.3865ZM149.39 76.7317L151.467 76.3758L151.839 78.5494L149.762 78.9033L149.39 76.7317ZM149.804 79.1566L151.882 78.8007L152.235 80.8778L150.158 81.2317L149.804 79.1566ZM150.83 85.1626L150.458 82.9911L152.535 82.6352L152.907 84.8068L150.83 85.1626ZM152.788 82.5929L154.962 82.221L155.334 84.3925L153.16 84.7645L152.788 82.5929ZM153.556 87.0929L153.203 85.0159L155.376 84.6439L155.73 86.721L153.556 87.0929ZM153.858 88.8503L156.032 88.4783L156.404 90.6499L154.23 91.0219L153.858 88.8503ZM154.626 93.3503L154.272 91.2732L156.446 90.9013L156.802 92.9783L154.626 93.3503ZM158.857 94.4361L160.934 94.0822L161.306 96.2538L159.229 96.6097L158.857 94.4361ZM159.271 96.8611L161.348 96.5072L161.702 98.5842L159.625 98.9381L159.271 96.8611ZM160.296 102.867L159.924 100.694L162.002 100.34L162.374 102.511L160.296 102.867ZM165.195 104.427L163.021 104.799L162.667 102.722L164.841 102.35L165.195 104.427ZM164.798 102.099L162.625 102.471L162.253 100.299L164.426 99.9274L164.798 102.099ZM164.127 98.168L161.953 98.54L161.599 96.4629L163.773 96.0909L164.127 98.168ZM163.729 95.8396L161.555 96.2116L161.183 94.04L163.357 93.668L163.729 95.8396ZM162.703 89.8336L163.057 91.9107L160.884 92.2826L160.528 90.2055L162.703 89.8336ZM158.157 90.3503L157.785 88.1787L159.862 87.8228L160.234 89.9944L158.157 90.3503ZM158.555 92.6787L158.201 90.6017L160.278 90.2478L160.632 92.3249L158.555 92.6787Z" fill="#DED1BA"/>
<path d="M183.186 126.846C185.626 126.846 187.603 124.868 187.603 122.429C187.603 119.99 185.626 118.012 183.186 118.012C180.747 118.012 178.769 119.99 178.769 122.429C178.769 124.868 180.747 126.846 183.186 126.846Z" fill="url(#paint41_linear_1618_7234)"/>
<path d="M182.713 76.3387C175.81 76.3875 170.158 81.9973 170.06 88.9C170.059 88.9637 170.058 89.4118 170.058 89.9979C170.059 90.8573 170.4 91.6814 171.008 92.2891C171.615 92.8968 172.439 93.2382 173.299 93.2383C173.725 93.2382 174.146 93.1542 174.54 92.991C174.933 92.8278 175.291 92.5887 175.592 92.2873C175.893 91.9859 176.132 91.6282 176.295 91.2345C176.457 90.8408 176.541 90.419 176.54 89.993C176.54 89.5943 176.54 89.3183 176.54 89.3014C176.54 88.2346 176.817 87.1861 177.345 86.2591C177.873 85.332 178.633 84.5584 179.551 84.0142C180.468 83.4701 181.512 83.1742 182.578 83.1556C183.645 83.137 184.698 83.3964 185.634 83.9083C186.57 84.4202 187.357 85.1669 187.917 86.075C188.476 86.983 188.79 88.0212 188.827 89.0874C188.864 90.1536 188.623 91.211 188.127 92.1556C187.631 93.1003 186.898 93.8996 186 94.475L186.001 94.4764C186.001 94.4764 181.389 97.4453 179.983 101.518L179.985 101.518C179.737 102.353 179.612 103.219 179.613 104.089C179.613 104.446 179.634 107.576 179.674 110.117C179.689 110.993 180.047 111.829 180.672 112.444C181.297 113.059 182.138 113.403 183.015 113.403C183.455 113.403 183.892 113.316 184.298 113.147C184.705 112.977 185.074 112.729 185.385 112.417C185.695 112.105 185.941 111.734 186.108 111.326C186.274 110.918 186.359 110.482 186.356 110.041C186.342 107.715 186.334 105.006 186.334 104.809C186.334 102.308 188.747 99.8163 190.728 98.1914C193.011 96.3202 194.653 93.7702 195.312 90.8938C195.458 90.3016 195.539 89.6951 195.552 89.0853C195.552 87.4036 195.22 85.7386 194.573 84.186C193.927 82.6335 192.98 81.2242 191.786 80.0394C190.593 78.8546 189.177 77.9176 187.62 77.2825C186.062 76.6473 184.395 76.3266 182.713 76.3387Z" fill="url(#paint42_linear_1618_7234)"/>
<path d="M182.933 83.1665C183.926 83.2139 184.894 83.5018 185.751 84.0053C186.609 84.5089 187.332 85.213 187.857 86.0574C188.383 86.9018 188.696 87.8611 188.769 88.853C188.842 89.8449 188.674 90.8397 188.278 91.7521C188.85 91.0794 189.271 90.2912 189.512 89.441C189.752 88.5909 189.807 87.6989 189.671 86.8259C189.536 85.9529 189.214 85.1193 188.727 84.3821C188.24 83.6448 187.6 83.0212 186.85 82.5537C186.1 82.0863 185.259 81.786 184.383 81.6733C183.506 81.5606 182.616 81.6381 181.772 81.9007C180.929 82.1633 180.152 82.6046 179.494 83.1947C178.837 83.7848 178.314 84.5097 177.962 85.32C178.571 84.6044 179.335 84.0381 180.197 83.6647C181.059 83.2913 181.995 83.1209 182.933 83.1665Z" fill="#D44B48"/>
<path d="M182.213 125.769C181.586 125.495 181.03 125.08 180.591 124.555C180.152 124.031 179.84 123.411 179.681 122.745C179.522 122.08 179.52 121.386 179.675 120.72C179.83 120.053 180.138 119.431 180.574 118.904C180.068 119.273 179.647 119.746 179.338 120.291C179.028 120.836 178.839 121.44 178.781 122.063C178.723 122.687 178.798 123.316 179.002 123.908C179.206 124.501 179.533 125.043 179.963 125.499C180.392 125.955 180.913 126.314 181.492 126.553C182.071 126.793 182.694 126.906 183.32 126.886C183.946 126.866 184.561 126.713 185.123 126.437C185.686 126.161 186.183 125.769 186.582 125.286C185.959 125.741 185.229 126.025 184.462 126.11C183.695 126.195 182.92 126.077 182.213 125.769Z" fill="#D44B48"/>
<defs>
<linearGradient id="paint0_linear_1618_7234" x1="166.452" y1="111.207" x2="197.566" y2="111.207" gradientUnits="userSpaceOnUse">
<stop offset="0.0077" stop-color="#FFBD95"/>
<stop offset="1" stop-color="#FF9A67"/>
</linearGradient>
<linearGradient id="paint1_linear_1618_7234" x1="126.335" y1="78.9521" x2="145.188" y2="78.9521" gradientUnits="userSpaceOnUse">
<stop stop-color="#9A1F22"/>
<stop offset="0.2924" stop-color="#A12124"/>
<stop offset="0.7147" stop-color="#B42628"/>
<stop offset="1" stop-color="#C52A2C"/>
</linearGradient>
<linearGradient id="paint2_linear_1618_7234" x1="170.725" y1="131.618" x2="219.841" y2="131.618" gradientUnits="userSpaceOnUse">
<stop offset="0.0077" stop-color="#ED8A37"/>
<stop offset="1" stop-color="#ED9C59"/>
</linearGradient>
<linearGradient id="paint3_linear_1618_7234" x1="151.817" y1="93.5245" x2="166.466" y2="93.5245" gradientUnits="userSpaceOnUse">
<stop stop-color="#9A1F22"/>
<stop offset="0.2924" stop-color="#A12124"/>
<stop offset="0.7147" stop-color="#B42628"/>
<stop offset="1" stop-color="#C52A2C"/>
</linearGradient>
<linearGradient id="paint4_linear_1618_7234" x1="122.932" y1="55.4586" x2="139.729" y2="54.9242" gradientUnits="userSpaceOnUse">
<stop offset="0.0077" stop-color="#FFCA95"/>
<stop offset="0.2312" stop-color="#F7B579"/>
<stop offset="0.5211" stop-color="#ED9C59"/>
<stop offset="1" stop-color="#EC8A39"/>
</linearGradient>
<linearGradient id="paint5_linear_1618_7234" x1="111.744" y1="61.1242" x2="154.76" y2="61.1242" gradientUnits="userSpaceOnUse">
<stop offset="0.0077" stop-color="#FFCA95"/>
<stop offset="0.2312" stop-color="#F7B579"/>
<stop offset="0.5211" stop-color="#ED9C59"/>
<stop offset="1" stop-color="#EC8A39"/>
</linearGradient>
<linearGradient id="paint6_linear_1618_7234" x1="126.824" y1="78.6208" x2="148.802" y2="78.6208" gradientUnits="userSpaceOnUse">
<stop stop-color="#FF9A6A"/>
<stop offset="0.9923" stop-color="#F17954"/>
</linearGradient>
<linearGradient id="paint7_linear_1618_7234" x1="137.034" y1="250.308" x2="164.844" y2="238.737" gradientUnits="userSpaceOnUse">
<stop stop-color="#8D3B2B"/>
<stop offset="0.2904" stop-color="#843828"/>
<stop offset="0.7608" stop-color="#6C301F"/>
<stop offset="0.9885" stop-color="#5E2C1A"/>
</linearGradient>
<linearGradient id="paint8_linear_1618_7234" x1="126.824" y1="112.077" x2="163.553" y2="112.077" gradientUnits="userSpaceOnUse">
<stop offset="0.0077" stop-color="#FDE3CD"/>
<stop offset="0.4253" stop-color="#FCD9BB"/>
<stop offset="0.9962" stop-color="#E2AA81"/>
</linearGradient>
<linearGradient id="paint9_linear_1618_7234" x1="138.701" y1="176.584" x2="166.634" y2="176.584" gradientUnits="userSpaceOnUse">
<stop stop-color="#617194"/>
<stop offset="0.065" stop-color="#5C6585"/>
<stop offset="0.1707" stop-color="#575874"/>
<stop offset="0.3024" stop-color="#534E69"/>
<stop offset="0.4871" stop-color="#514962"/>
<stop offset="1" stop-color="#504760"/>
</linearGradient>
<linearGradient id="paint10_linear_1618_7234" x1="142.989" y1="101.752" x2="163.553" y2="101.752" gradientUnits="userSpaceOnUse">
<stop stop-color="#E02A2C"/>
<stop offset="0.1234" stop-color="#D4282A"/>
<stop offset="0.4843" stop-color="#B42326"/>
<stop offset="0.7894" stop-color="#A12023"/>
<stop offset="1" stop-color="#9A1F22"/>
</linearGradient>
<linearGradient id="paint11_linear_1618_7234" x1="107.207" y1="178.16" x2="156.357" y2="178.16" gradientUnits="userSpaceOnUse">
<stop offset="0.0115" stop-color="#6A87AF"/>
<stop offset="0.2287" stop-color="#6981A7"/>
<stop offset="0.5624" stop-color="#657192"/>
<stop offset="0.969" stop-color="#5E576F"/>
<stop offset="0.9885" stop-color="#5E566D"/>
</linearGradient>
<linearGradient id="paint12_linear_1618_7234" x1="159.941" y1="149.031" x2="159.941" y2="124.003" gradientUnits="userSpaceOnUse">
<stop stop-color="#D84A00"/>
<stop offset="1" stop-color="#ED9C59"/>
</linearGradient>
<linearGradient id="paint13_linear_1618_7234" x1="143.253" y1="60.2299" x2="130.07" y2="69.8454" gradientUnits="userSpaceOnUse">
<stop offset="0.0077" stop-color="#FFBD95"/>
<stop offset="1" stop-color="#FF9A67"/>
</linearGradient>
<linearGradient id="paint14_linear_1618_7234" x1="146.381" y1="51.5037" x2="126.927" y2="65.6935" gradientUnits="userSpaceOnUse">
<stop stop-color="#CD6E42"/>
<stop offset="0.6259" stop-color="#A84B1C"/>
<stop offset="0.9885" stop-color="#973B0B"/>
</linearGradient>
<linearGradient id="paint15_linear_1618_7234" x1="143.754" y1="66.842" x2="141.175" y2="66.3277" gradientUnits="userSpaceOnUse">
<stop stop-color="#FFCAB0"/>
<stop offset="0.2727" stop-color="#FFE0D0"/>
<stop offset="0.55" stop-color="#FFF1EA"/>
<stop offset="0.8009" stop-color="#FFFBFA"/>
<stop offset="1" stop-color="white"/>
</linearGradient>
<linearGradient id="paint16_linear_1618_7234" x1="112.098" y1="61.6132" x2="155.114" y2="61.6132" gradientUnits="userSpaceOnUse">
<stop offset="0.1801" stop-color="#EC8A39"/>
<stop offset="0.9885" stop-color="#C26200"/>
</linearGradient>
<linearGradient id="paint17_linear_1618_7234" x1="99.7385" y1="105.445" x2="146.087" y2="134.626" gradientUnits="userSpaceOnUse">
<stop offset="0.1072" stop-color="#F5443C"/>
<stop offset="1" stop-color="#A2242E"/>
</linearGradient>
<linearGradient id="paint18_linear_1618_7234" x1="102.391" y1="241.442" x2="115.77" y2="244.179" gradientUnits="userSpaceOnUse">
<stop stop-color="#8D3B2B"/>
<stop offset="0.273" stop-color="#863928"/>
<stop offset="0.6712" stop-color="#723321"/>
<stop offset="0.9885" stop-color="#5E2C1A"/>
</linearGradient>
<linearGradient id="paint19_linear_1618_7234" x1="95.0004" y1="260.538" x2="111.884" y2="260.538" gradientUnits="userSpaceOnUse">
<stop stop-color="#8D3B2B"/>
<stop offset="0.5174" stop-color="#8B3A2A"/>
<stop offset="0.7037" stop-color="#843828"/>
<stop offset="0.8365" stop-color="#793424"/>
<stop offset="0.9432" stop-color="#682F1E"/>
<stop offset="0.9885" stop-color="#5E2C1A"/>
</linearGradient>
<linearGradient id="paint20_linear_1618_7234" x1="167.449" y1="111.286" x2="167.933" y2="96.7825" gradientUnits="userSpaceOnUse">
<stop stop-color="#A2242E"/>
<stop offset="0.9962" stop-color="#F5443C"/>
</linearGradient>
<linearGradient id="paint21_linear_1618_7234" x1="171.196" y1="117.028" x2="171.196" y2="133.518" gradientUnits="userSpaceOnUse">
<stop offset="0.0077" stop-color="#FFCA95"/>
<stop offset="0.1034" stop-color="#F7B77C"/>
<stop offset="0.2072" stop-color="#F2A869"/>
<stop offset="0.3127" stop-color="#EE9F5D"/>
<stop offset="0.4215" stop-color="#ED9C59"/>
<stop offset="0.6103" stop-color="#ED9954"/>
<stop offset="0.8448" stop-color="#ED9144"/>
<stop offset="0.9923" stop-color="#ED8A37"/>
</linearGradient>
<linearGradient id="paint22_linear_1618_7234" x1="171.196" y1="116.575" x2="171.196" y2="118.017" gradientUnits="userSpaceOnUse">
<stop offset="0.0077" stop-color="#FFCA95"/>
<stop offset="0.1803" stop-color="#FDC690"/>
<stop offset="0.3992" stop-color="#F9BA80"/>
<stop offset="0.6421" stop-color="#F1A666"/>
<stop offset="0.7433" stop-color="#ED9C59"/>
<stop offset="0.9923" stop-color="#ED8A37"/>
</linearGradient>
<linearGradient id="paint23_linear_1618_7234" x1="217.188" y1="116.678" x2="217.188" y2="121.526" gradientUnits="userSpaceOnUse">
<stop offset="0.0077" stop-color="#FFCA95"/>
<stop offset="0.3898" stop-color="#F6B377"/>
<stop offset="0.762" stop-color="#EFA261"/>
<stop offset="1" stop-color="#ED9C59"/>
</linearGradient>
<linearGradient id="paint24_linear_1618_7234" x1="167.607" y1="133.367" x2="178.115" y2="133.367" gradientUnits="userSpaceOnUse">
<stop stop-color="#FF9A6A"/>
<stop offset="0.9923" stop-color="#F17954"/>
</linearGradient>
<linearGradient id="paint25_linear_1618_7234" x1="173.715" y1="157.642" x2="173.715" y2="133.723" gradientUnits="userSpaceOnUse">
<stop stop-color="#ED9C59"/>
<stop offset="0.1365" stop-color="#F1A666"/>
<stop offset="0.4642" stop-color="#F9BA80"/>
<stop offset="0.7594" stop-color="#FDC690"/>
<stop offset="0.9923" stop-color="#FFCA95"/>
</linearGradient>
<linearGradient id="paint26_linear_1618_7234" x1="202.266" y1="129.054" x2="218.769" y2="152.646" gradientUnits="userSpaceOnUse">
<stop offset="0.0077" stop-color="#FFCA95"/>
<stop offset="0.0431" stop-color="#FCC38C"/>
<stop offset="0.1517" stop-color="#F6B275"/>
<stop offset="0.2696" stop-color="#F1A665"/>
<stop offset="0.4026" stop-color="#EE9E5C"/>
<stop offset="0.5824" stop-color="#ED9C59"/>
<stop offset="0.7246" stop-color="#ED9852"/>
<stop offset="0.9352" stop-color="#ED8E3E"/>
<stop offset="0.9923" stop-color="#ED8A37"/>
</linearGradient>
<linearGradient id="paint27_linear_1618_7234" x1="196.452" y1="130.822" x2="196.452" y2="157.42" gradientUnits="userSpaceOnUse">
<stop offset="0.0077" stop-color="#FFCA95"/>
<stop offset="0.2406" stop-color="#FDC690"/>
<stop offset="0.5358" stop-color="#F9BA80"/>
<stop offset="0.8635" stop-color="#F1A666"/>
<stop offset="1" stop-color="#ED9C59"/>
</linearGradient>
<linearGradient id="paint28_linear_1618_7234" x1="150.977" y1="130.822" x2="150.977" y2="157.42" gradientUnits="userSpaceOnUse">
<stop offset="0.0077" stop-color="#FFCA95"/>
<stop offset="0.1803" stop-color="#FDC690"/>
<stop offset="0.3992" stop-color="#F9BA80"/>
<stop offset="0.6421" stop-color="#F1A666"/>
<stop offset="0.7433" stop-color="#ED9C59"/>
<stop offset="0.9923" stop-color="#ED8A37"/>
</linearGradient>
<linearGradient id="paint29_linear_1618_7234" x1="199.413" y1="130.115" x2="199.413" y2="161.603" gradientUnits="userSpaceOnUse">
<stop offset="0.0077" stop-color="#FFCA95"/>
<stop offset="0.1313" stop-color="#F7B77C"/>
<stop offset="0.2643" stop-color="#F2A868"/>
<stop offset="0.3997" stop-color="#EE9F5D"/>
<stop offset="0.54" stop-color="#ED9C59"/>
<stop offset="0.7138" stop-color="#ED9A56"/>
<stop offset="0.8461" stop-color="#ED954C"/>
<stop offset="0.9642" stop-color="#ED8D3C"/>
<stop offset="0.9923" stop-color="#ED8A37"/>
</linearGradient>
<linearGradient id="paint30_linear_1618_7234" x1="218.7" y1="117.347" x2="218.7" y2="147.91" gradientUnits="userSpaceOnUse">
<stop offset="0.0077" stop-color="#FFCA95"/>
<stop offset="0.1695" stop-color="#F9BC83"/>
<stop offset="0.5632" stop-color="#ED9C59"/>
<stop offset="0.7108" stop-color="#ED9852"/>
<stop offset="0.9262" stop-color="#ED8E3E"/>
<stop offset="0.9923" stop-color="#ED8A37"/>
</linearGradient>
<linearGradient id="paint31_linear_1618_7234" x1="218.329" y1="116.575" x2="218.329" y2="118.017" gradientUnits="userSpaceOnUse">
<stop offset="0.0077" stop-color="#FFCA95"/>
<stop offset="0.5074" stop-color="#FABE85"/>
<stop offset="1" stop-color="#F7B579"/>
</linearGradient>
<linearGradient id="paint32_linear_1618_7234" x1="197.593" y1="129.344" x2="197.593" y2="130.785" gradientUnits="userSpaceOnUse">
<stop offset="0.0077" stop-color="#FFCA95"/>
<stop offset="0.2406" stop-color="#FDC690"/>
<stop offset="0.5358" stop-color="#F9BA80"/>
<stop offset="0.8635" stop-color="#F1A666"/>
<stop offset="1" stop-color="#ED9C59"/>
</linearGradient>
<linearGradient id="paint33_linear_1618_7234" x1="127.591" y1="80.1819" x2="143.311" y2="80.1819" gradientUnits="userSpaceOnUse">
<stop offset="0.0077" stop-color="#FDE3CD"/>
<stop offset="0.4253" stop-color="#FCD9BB"/>
<stop offset="0.9962" stop-color="#E2AA81"/>
</linearGradient>
<linearGradient id="paint34_linear_1618_7234" x1="114.249" y1="90.4139" x2="135.288" y2="128.27" gradientUnits="userSpaceOnUse">
<stop offset="0.0038" stop-color="#F5443C"/>
<stop offset="0.2945" stop-color="#F1443C"/>
<stop offset="0.5632" stop-color="#E6433E"/>
<stop offset="0.8223" stop-color="#D34340"/>
<stop offset="1" stop-color="#C24242"/>
</linearGradient>
<linearGradient id="paint35_linear_1618_7234" x1="129.333" y1="133.66" x2="179.747" y2="133.66" gradientUnits="userSpaceOnUse">
<stop offset="0.0077" stop-color="#FFBD95"/>
<stop offset="1" stop-color="#FF9A67"/>
</linearGradient>
<linearGradient id="paint36_linear_1618_7234" x1="126.822" y1="130.15" x2="138.185" y2="130.15" gradientUnits="userSpaceOnUse">
<stop offset="0.0038" stop-color="#F5443C"/>
<stop offset="0.2945" stop-color="#F1443C"/>
<stop offset="0.5632" stop-color="#E6433E"/>
<stop offset="0.8223" stop-color="#D34340"/>
<stop offset="1" stop-color="#C24242"/>
</linearGradient>
<linearGradient id="paint37_linear_1618_7234" x1="127.903" y1="86.3516" x2="130.953" y2="86.3516" gradientUnits="userSpaceOnUse">
<stop stop-color="#9A1F22"/>
<stop offset="0.2924" stop-color="#A12124"/>
<stop offset="0.7147" stop-color="#B42628"/>
<stop offset="1" stop-color="#C52A2C"/>
</linearGradient>
<linearGradient id="paint38_linear_1618_7234" x1="124.672" y1="82.2296" x2="129.71" y2="82.2296" gradientUnits="userSpaceOnUse">
<stop offset="0.0038" stop-color="#F5443C"/>
<stop offset="0.2945" stop-color="#F1443C"/>
<stop offset="0.5632" stop-color="#E6433E"/>
<stop offset="0.8223" stop-color="#D34340"/>
<stop offset="1" stop-color="#C24242"/>
</linearGradient>
<linearGradient id="paint39_linear_1618_7234" x1="141.83" y1="77.4063" x2="146.48" y2="77.4063" gradientUnits="userSpaceOnUse">
<stop stop-color="#9A1F22"/>
<stop offset="0.2924" stop-color="#A12124"/>
<stop offset="0.7147" stop-color="#B42628"/>
<stop offset="1" stop-color="#C52A2C"/>
</linearGradient>
<linearGradient id="paint40_linear_1618_7234" x1="141.83" y1="77.2663" x2="147.378" y2="77.2663" gradientUnits="userSpaceOnUse">
<stop offset="0.0038" stop-color="#F5443C"/>
<stop offset="0.2945" stop-color="#F1443C"/>
<stop offset="0.5632" stop-color="#E6433E"/>
<stop offset="0.8223" stop-color="#D34340"/>
<stop offset="1" stop-color="#C24242"/>
</linearGradient>
<linearGradient id="paint41_linear_1618_7234" x1="183.186" y1="118.012" x2="183.186" y2="126.846" gradientUnits="userSpaceOnUse">
<stop stop-color="#EC954E"/>
<stop offset="1" stop-color="#D94841"/>
</linearGradient>
<linearGradient id="paint42_linear_1618_7234" x1="182.805" y1="76.3384" x2="182.805" y2="113.403" gradientUnits="userSpaceOnUse">
<stop stop-color="#EC954E"/>
<stop offset="1" stop-color="#D94841"/>
</linearGradient>
</defs>
</svg>
