<svg width="313" height="313" viewBox="0 0 313 313" fill="none" xmlns="http://www.w3.org/2000/svg">
<rect width="313" height="313" rx="156.5" fill="#FFEFDF"/>
<g clip-path="url(#clip0_1794_3096)">
<path d="M226.71 258.115H220.641L217.753 234.708H226.71V258.115Z" fill="#E7C0C6"/>
<path d="M229.913 268.63H225.561L224.784 264.521L222.795 268.63H211.252C210.699 268.63 210.16 268.453 209.714 268.125C209.268 267.797 208.939 267.336 208.775 266.807C208.61 266.279 208.618 265.712 208.799 265.189C208.979 264.666 209.322 264.214 209.777 263.9L218.995 257.534V253.38L228.69 253.959L229.913 268.63Z" fill="#2F2E41"/>
<path d="M262.764 250.457L257.894 254.078L241.609 237.018L248.796 231.673L262.764 250.457Z" fill="#E7C0C6"/>
<path d="M271.609 256.983L268.116 259.58L265.041 256.746L265.896 261.231L256.634 268.118C256.19 268.448 255.652 268.628 255.099 268.631C254.545 268.634 254.006 268.46 253.558 268.134C253.111 267.808 252.78 267.348 252.612 266.821C252.445 266.294 252.451 265.727 252.628 265.203L256.226 254.594L253.748 251.26L261.873 245.939L271.609 256.983Z" fill="#2F2E41"/>
<path d="M233.775 137.345C233.775 137.345 245.29 147.293 239.977 175.651L233.491 203.438L254.643 238.529L247.899 246.734L220.401 208.752L210.436 185.379L207.64 143.778L233.775 137.345Z" fill="#2F2E41"/>
<path d="M215.928 192.039L215.236 202.765L217.355 248.471L227.328 246.734L229.234 214.192L215.928 192.039Z" fill="#2F2E41"/>
<path d="M87.9465 263.619L93.3737 263.619L95.9552 242.686L87.9458 242.686L87.9465 263.619Z" fill="#FFB6B6"/>
<path d="M86.562 261.847L88.0896 261.847L94.0534 259.422L97.2498 261.846H97.2502C99.0566 261.847 100.789 262.564 102.066 263.841C103.344 265.119 104.061 266.851 104.061 268.657V268.879L86.5623 268.879L86.562 261.847Z" fill="#2F2E41"/>
<path d="M108.978 260.199L114.271 261.394L121.401 241.544L113.588 239.78L108.978 260.199Z" fill="#FFB6B6"/>
<path d="M108.017 258.166L109.507 258.502L115.859 257.45L118.442 260.519L118.443 260.52C120.205 260.918 121.737 261.999 122.701 263.526C123.666 265.054 123.984 266.902 123.586 268.664L123.538 268.879L106.468 265.025L108.017 258.166Z" fill="#2F2E41"/>
<path d="M81.073 135.646C78.5285 143.32 78.7976 151.65 81.6846 160.591L82.9187 210.927C82.9187 210.927 81.08 243.937 87.0134 255.552H95.6186L99.8791 207.912L100.414 175.936L118.863 202.913L107.112 254.774L117.703 255.72L136.771 199.44L113.245 144.838L81.073 135.646Z" fill="#2F2E41"/>
<path d="M180.309 113.788C186.891 107.856 196.681 104.874 204.894 108.2C196.47 112.877 189.972 120.383 186.549 129.389C185.242 132.868 184.15 136.872 180.934 138.735C178.933 139.893 176.444 139.95 174.201 139.391C171.957 138.831 169.901 137.71 167.873 136.6L167.296 136.587C169.886 128.114 173.727 119.719 180.309 113.788Z" fill="#83BF6E" fill-opacity="0.5"/>
<path d="M204.848 108.38C197.574 109.32 190.782 112.528 185.436 117.547C184.266 118.608 183.27 119.846 182.486 121.216C181.764 122.576 181.421 124.103 181.49 125.641C181.525 127.076 181.728 128.539 181.414 129.958C181.242 130.681 180.92 131.36 180.467 131.951C180.015 132.541 179.443 133.029 178.789 133.383C177.182 134.307 175.339 134.598 173.526 134.82C171.514 135.067 169.42 135.291 167.678 136.42C167.467 136.556 167.267 136.221 167.478 136.084C170.508 134.121 174.343 134.835 177.602 133.525C179.123 132.913 180.468 131.839 180.944 130.216C181.361 128.797 181.153 127.288 181.105 125.835C181.015 124.337 181.294 122.839 181.917 121.473C182.63 120.067 183.576 118.792 184.716 117.704C187.243 115.213 190.146 113.135 193.319 111.546C196.93 109.712 200.828 108.509 204.844 107.989C205.093 107.957 205.095 108.348 204.848 108.38Z" fill="#E9EDF1"/>
<path d="M187.063 115.83C186.342 114.818 186.005 113.584 186.11 112.347C186.216 111.109 186.758 109.95 187.64 109.076C187.819 108.899 188.101 109.169 187.922 109.346C187.099 110.159 186.595 111.239 186.498 112.391C186.402 113.543 186.721 114.692 187.398 115.63C187.545 115.834 187.209 116.033 187.063 115.83Z" fill="#E9EDF1"/>
<path d="M181.376 124.916C183.875 125.359 186.45 124.843 188.586 123.472C188.797 123.336 188.997 123.671 188.786 123.807C186.561 125.23 183.88 125.761 181.28 125.294C181.033 125.25 181.129 124.871 181.376 124.916Z" fill="#E9EDF1"/>
<path d="M196.961 110.228C197.159 110.678 197.464 111.071 197.851 111.373C198.238 111.675 198.694 111.876 199.178 111.959C199.426 112 199.329 112.379 199.082 112.337C198.548 112.244 198.045 112.021 197.617 111.688C197.189 111.356 196.849 110.923 196.626 110.429C196.601 110.384 196.594 110.331 196.607 110.281C196.62 110.232 196.651 110.189 196.694 110.161C196.738 110.135 196.791 110.127 196.841 110.14C196.892 110.152 196.935 110.184 196.961 110.228Z" fill="#E9EDF1"/>
<path d="M213.937 136.803C213.781 136.781 213.625 136.76 213.467 136.741C211.372 136.463 209.258 136.355 207.145 136.42C206.982 136.422 206.816 136.427 206.653 136.434C201.565 136.643 196.56 137.795 191.893 139.832C190.036 140.644 188.244 141.596 186.532 142.679C184.168 144.176 181.723 145.988 179.08 146.598C178.805 146.665 178.526 146.715 178.245 146.747L167.325 137.292C167.311 137.258 167.294 137.226 167.28 137.192L166.827 136.834C166.911 136.772 167 136.71 167.085 136.648C167.133 136.611 167.185 136.577 167.233 136.541C167.267 136.518 167.3 136.494 167.329 136.471C167.34 136.463 167.351 136.456 167.36 136.45C167.389 136.427 167.418 136.409 167.444 136.388C167.94 136.037 168.439 135.689 168.942 135.344C168.944 135.341 168.944 135.341 168.948 135.341C172.752 132.673 176.858 130.466 181.181 128.765C181.311 128.716 181.443 128.664 181.577 128.62C183.524 127.896 185.527 127.332 187.566 126.935C188.683 126.721 189.81 126.563 190.943 126.463C193.871 126.21 196.821 126.419 199.684 127.082C205.391 128.406 210.612 131.54 213.704 136.427C213.783 136.552 213.86 136.675 213.937 136.803Z" fill="#83BF6E" fill-opacity="0.5"/>
<path d="M213.792 136.92C207.419 133.292 200.065 131.764 192.774 132.553C191.201 132.695 189.661 133.084 188.209 133.706C186.815 134.357 185.62 135.37 184.75 136.639C183.914 137.806 183.195 139.096 182.09 140.04C181.518 140.515 180.851 140.863 180.135 141.062C179.418 141.261 178.667 141.306 177.932 141.195C176.093 140.965 174.446 140.087 172.865 139.173C171.11 138.159 169.302 137.077 167.232 136.93C166.981 136.912 167.024 136.524 167.274 136.541C170.876 136.798 173.508 139.678 176.899 140.593C178.481 141.02 180.202 140.973 181.559 139.964C182.746 139.082 183.49 137.751 184.325 136.563C185.156 135.312 186.281 134.284 187.601 133.568C189.016 132.875 190.539 132.427 192.104 132.244C195.622 131.777 199.191 131.865 202.681 132.507C206.668 133.216 210.505 134.603 214.024 136.606C214.242 136.73 214.008 137.044 213.792 136.92Z" fill="#E9EDF1"/>
<path d="M195.106 132.16C195.14 130.919 195.614 129.73 196.443 128.806C197.272 127.882 198.403 127.283 199.633 127.115C199.883 127.082 199.946 127.468 199.696 127.501C198.55 127.655 197.497 128.213 196.726 129.075C195.956 129.937 195.519 131.047 195.494 132.203C195.489 132.454 195.101 132.41 195.106 132.16Z" fill="#E9EDF1"/>
<path d="M185.095 135.991C186.824 137.85 189.19 138.988 191.721 139.18C191.972 139.198 191.93 139.587 191.679 139.568C189.046 139.364 186.586 138.174 184.791 136.236C184.62 136.051 184.925 135.807 185.095 135.991Z" fill="#E9EDF1"/>
<path d="M206.382 133.648C206.269 134.126 206.277 134.624 206.404 135.098C206.531 135.572 206.773 136.007 207.11 136.364C207.283 136.547 206.978 136.79 206.806 136.609C206.436 136.213 206.168 135.732 206.027 135.208C205.885 134.685 205.874 134.135 205.994 133.606C206.001 133.555 206.028 133.509 206.067 133.477C206.107 133.445 206.158 133.429 206.209 133.433C206.261 133.439 206.308 133.465 206.34 133.505C206.372 133.545 206.388 133.597 206.382 133.648Z" fill="#E9EDF1"/>
<path d="M165.349 102.729C164.986 103.207 164.523 103.599 163.993 103.878C163.462 104.157 162.877 104.316 162.278 104.344C161.679 104.372 161.081 104.269 160.527 104.041C159.972 103.813 159.474 103.467 159.068 103.026L145.704 108.838L147.006 101.378L159.497 97.0019C160.283 96.3687 161.274 96.0459 162.282 96.0947C163.29 96.1434 164.246 96.5602 164.967 97.2662C165.688 97.9722 166.126 98.9183 166.196 99.9252C166.267 100.932 165.965 101.93 165.349 102.729Z" fill="#FFB8B8"/>
<path d="M156.431 105.059L125.391 118.885L125.325 118.861L89.9472 106.254C87.312 104.877 85.303 102.545 84.3315 99.7347C83.36 96.9245 83.4994 93.8493 84.7213 91.1386C85.3986 89.641 86.3854 88.3037 87.6168 87.2149C88.8481 86.1261 90.2961 85.3105 91.8654 84.8216C93.4347 84.3328 95.0898 84.1818 96.7217 84.3787C98.3535 84.5757 99.9252 85.1159 101.333 85.964L127.661 101.824L153.19 98.5148L156.431 105.059Z" fill="#B4C1D6"/>
<path d="M114.779 146.451L83.4891 141.446C82.6684 141.183 81.9144 140.746 81.2787 140.164C80.643 139.582 80.1407 138.87 79.8064 138.075C79.472 137.281 79.3134 136.424 79.3416 135.563C79.3697 134.702 79.5839 133.857 79.9694 133.086L81.3884 130.248L80.8372 100.428C80.7708 96.5488 81.727 92.7209 83.6098 89.3289C85.4925 85.937 88.2354 83.1007 91.5623 81.1054L94.6137 79.2809L96.1558 75.3649L110.375 75.7117L110.417 80.8477L115.509 88.9679L115.509 89.0015L115.189 133.199L113.786 137.76L115.908 143.065L114.779 146.451Z" fill="#B4C1D6"/>
<path d="M104.568 70.4954C111.703 70.4954 117.488 64.711 117.488 57.5756C117.488 50.4402 111.703 44.6558 104.568 44.6558C97.4323 44.6558 91.6479 50.4402 91.6479 57.5756C91.6479 64.711 97.4323 70.4954 104.568 70.4954Z" fill="#FFB8B8"/>
<path d="M91.1144 60.392C90.729 58.7686 90.9059 56.4841 91.1237 54.8496C91.6946 50.5642 94.0745 46.4902 97.6901 44.077C98.3757 43.5563 99.1903 43.2326 100.046 43.1407C100.902 43.105 101.829 43.5629 102.091 44.3777C102.307 43.8399 102.63 43.352 103.042 42.944C103.453 42.5361 103.944 42.2168 104.483 42.0058C105.567 41.5905 106.733 41.4335 107.888 41.5471C110.127 41.7317 112.275 42.519 114.102 43.8255C115.93 45.132 117.37 46.9089 118.269 48.9677C118.614 49.7875 119.578 46.7595 120.015 47.534C120.417 48.3392 121.118 48.9551 121.968 49.2499C122.825 49.489 123.173 53.0188 123.51 52.1957C123.772 52.804 123.875 53.4686 123.811 54.1276C123.746 54.7866 123.516 55.4185 123.142 55.9646C122.767 56.5108 122.261 56.9532 121.669 57.2508C121.078 57.5485 120.421 57.6916 119.759 57.6668C118.887 57.6342 118.053 57.3134 117.191 57.1754C114.11 56.6817 110.842 58.9159 110.183 61.9661C109.947 61.084 109.571 60.2458 109.068 59.4838C108.812 59.1049 108.47 58.7924 108.069 58.5723C107.669 58.3522 107.222 58.231 106.765 58.2187C105.888 58.2515 105.118 58.8246 104.549 59.4924C103.98 60.1603 103.553 60.9395 102.98 61.6037C101.299 63.5528 99.0247 68.0981 96.6288 67.7666C94.738 67.505 91.6405 62.6085 91.1144 60.392Z" fill="#6F6F6F"/>
<path d="M182.666 117.37C182.756 116.781 182.635 116.179 182.324 115.671C182.013 115.162 181.532 114.781 180.967 114.593L146.174 103.005C145.84 102.894 145.487 102.853 145.137 102.886L136.416 103.711L131.412 104.186L122.178 105.058C121.62 105.112 121.096 105.348 120.688 105.732C120.28 106.115 120.01 106.623 119.921 107.176L115.233 136.462C115.144 137.034 115.253 137.618 115.541 138.119C115.829 138.62 116.28 139.008 116.818 139.218L151.974 152.789C152.139 152.853 152.311 152.899 152.486 152.926C152.74 152.967 153 152.969 153.255 152.932L175.972 149.565C176.508 149.488 177.004 149.239 177.388 148.857C177.771 148.475 178.021 147.98 178.101 147.444L182.666 117.37Z" fill="#8C443C"/>
<path d="M117.615 137.155L152.771 150.725C152.823 150.745 152.878 150.751 152.933 150.744L175.647 147.377C175.714 147.368 175.777 147.337 175.825 147.289C175.873 147.241 175.904 147.179 175.914 147.111L180.481 117.037C180.492 116.963 180.476 116.889 180.438 116.825C180.399 116.762 180.34 116.714 180.27 116.69L180.036 116.611L145.474 105.104C145.459 105.099 145.442 105.095 145.426 105.093C145.399 105.088 145.372 105.086 145.344 105.088L124.074 107.101L122.386 107.26C122.317 107.267 122.252 107.297 122.201 107.345C122.15 107.392 122.117 107.455 122.105 107.524L117.418 136.809C117.406 136.881 117.419 136.954 117.455 137.017C117.491 137.08 117.548 137.129 117.615 137.155Z" fill="#A05148"/>
<path d="M124.074 107.101L145.345 105.088C145.372 105.086 145.399 105.088 145.426 105.093C145.443 105.095 145.459 105.099 145.475 105.104L180.036 116.611L170.919 117.576L167.507 117.935L157.799 118.961C157.771 118.962 157.742 118.962 157.714 118.96C157.697 118.955 157.679 118.949 157.659 118.944L124.074 107.101Z" fill="#2F2E41"/>
<path d="M116.818 139.22L151.974 152.79C152.139 152.854 152.311 152.899 152.487 152.924C152.741 152.966 153.001 152.969 153.257 152.934L175.97 149.567C176.507 149.489 177.003 149.241 177.387 148.858C177.771 148.476 178.021 147.98 178.102 147.445L182.666 117.37C182.733 116.926 182.682 116.473 182.518 116.056C182.495 116 182.472 115.945 182.445 115.893C182.264 115.512 181.988 115.183 181.644 114.939C181.437 114.79 181.209 114.674 180.967 114.594L180.926 114.579L146.176 103.005C146.034 102.96 145.889 102.925 145.742 102.9C145.541 102.871 145.338 102.867 145.136 102.888L136.416 103.71L131.413 104.187L122.177 105.059C121.8 105.094 121.435 105.215 121.11 105.412C121.085 105.424 121.061 105.438 121.039 105.455C121.023 105.465 121.007 105.477 120.993 105.489C120.709 105.683 120.468 105.932 120.284 106.221C120.1 106.511 119.977 106.835 119.923 107.173L115.231 136.462C115.143 137.034 115.251 137.618 115.54 138.12C115.828 138.621 116.279 139.009 116.818 139.22ZM120.545 107.275C120.602 106.924 120.758 106.597 120.994 106.331C121.066 106.246 121.146 106.167 121.233 106.098C121.471 105.905 121.753 105.774 122.054 105.715C122.114 105.703 122.174 105.694 122.234 105.69L137.785 104.22L145.197 103.515C145.247 103.509 145.293 103.51 145.339 103.508C145.452 103.505 145.564 103.514 145.674 103.532C145.776 103.546 145.876 103.569 145.973 103.604L180.764 115.192C180.792 115.202 180.816 115.211 180.843 115.221C181.16 115.339 181.438 115.541 181.647 115.806C181.812 116.008 181.933 116.244 182.001 116.496C182.07 116.749 182.084 117.013 182.043 117.271L177.475 147.349C177.415 147.75 177.228 148.122 176.941 148.408C176.654 148.695 176.282 148.881 175.881 148.941L153.164 152.307C152.839 152.354 152.507 152.316 152.201 152.197L117.045 138.631C116.642 138.472 116.305 138.181 116.089 137.806C115.873 137.43 115.791 136.992 115.857 136.564L120.545 107.275Z" fill="#A05148"/>
<path d="M120.917 105.649C120.935 105.596 120.968 105.548 121.012 105.512C121.026 105.501 121.041 105.49 121.057 105.481C121.072 105.475 121.087 105.466 121.102 105.461C121.172 105.432 121.251 105.431 121.322 105.457L122.054 105.715L157.803 118.325L166.169 117.441L170.851 116.948L180.761 115.899L181.647 115.806L181.819 115.787C181.893 115.78 181.967 115.799 182.029 115.841C182.09 115.884 182.135 115.946 182.156 116.018C182.16 116.034 182.163 116.051 182.165 116.068C182.172 116.136 182.157 116.205 182.122 116.264C182.087 116.322 182.034 116.368 181.97 116.394C181.942 116.406 181.913 116.414 181.883 116.418L180.678 116.544L170.919 117.576L167.507 117.935L157.799 118.961C157.77 118.962 157.742 118.962 157.714 118.96C157.696 118.955 157.679 118.949 157.658 118.944L121.233 106.098L121.109 106.054C121.081 106.045 121.054 106.03 121.031 106.011C120.976 105.971 120.935 105.914 120.915 105.849C120.894 105.784 120.895 105.714 120.917 105.649Z" fill="#3F3D56"/>
<path d="M152.582 153.016C152.5 153.003 152.426 152.958 152.377 152.891C152.328 152.823 152.308 152.74 152.32 152.657L157.452 118.599C157.465 118.516 157.51 118.442 157.577 118.392C157.644 118.342 157.729 118.321 157.812 118.334L157.815 118.334C157.897 118.347 157.971 118.393 158.02 118.46C158.069 118.527 158.09 118.611 158.077 118.693L152.945 152.751C152.932 152.834 152.887 152.909 152.82 152.958C152.753 153.008 152.668 153.029 152.585 153.017L152.582 153.016Z" fill="#3F3D56"/>
<path d="M165.592 150.856L162.178 151.216L166.171 117.441C166.171 117.441 170.73 116.615 170.852 116.946C170.927 117.144 165.624 150.639 165.592 150.856Z" fill="#DFDFDF"/>
<path d="M181.648 115.806C181.42 115.52 181.113 115.306 180.765 115.192L145.975 103.604C145.877 103.571 145.777 103.547 145.675 103.531C145.564 103.512 145.451 103.503 145.339 103.506L145.395 103.153L145.744 102.901L154.005 96.9196L190.081 107.432L181.644 114.939L181.648 115.806Z" fill="#AE544B"/>
<path d="M122.5 130.78C122.539 130.784 122.578 130.792 122.615 130.805L133.29 134.311C133.423 134.354 133.534 134.45 133.598 134.575C133.661 134.701 133.672 134.846 133.628 134.98C133.584 135.114 133.489 135.224 133.364 135.288C133.238 135.351 133.093 135.362 132.959 135.318L122.284 131.812C122.16 131.772 122.056 131.687 121.991 131.574C121.925 131.461 121.904 131.328 121.931 131.2C121.957 131.072 122.03 130.959 122.135 130.882C122.24 130.804 122.37 130.768 122.5 130.78Z" fill="#A05148"/>
<path d="M165.569 195.394C167.912 195.394 169.811 193.495 169.811 191.152C169.811 188.809 167.912 186.909 165.569 186.909C163.226 186.909 161.326 188.809 161.326 191.152C161.326 193.495 163.226 195.394 165.569 195.394Z" fill="#F39A90"/>
<path d="M57.3855 210.95C59.7286 210.95 61.628 209.051 61.628 206.708C61.628 204.365 59.7286 202.465 57.3855 202.465C55.0425 202.465 53.1431 204.365 53.1431 206.708C53.1431 209.051 55.0425 210.95 57.3855 210.95Z" fill="#F39A90"/>
<path d="M145.771 70.5949C148.114 70.5949 150.013 68.6955 150.013 66.3525C150.013 64.0094 148.114 62.11 145.771 62.11C143.428 62.11 141.528 64.0094 141.528 66.3525C141.528 68.6955 143.428 70.5949 145.771 70.5949Z" fill="#F39A90"/>
<path d="M152.732 137.02C152.182 137.259 151.586 137.374 150.987 137.358C150.388 137.342 149.799 137.194 149.263 136.926C148.727 136.658 148.256 136.276 147.884 135.806C147.511 135.336 147.246 134.79 147.108 134.207L132.608 132.742L137.392 126.871L150.427 129.162C151.423 128.994 152.445 129.197 153.301 129.733C154.156 130.268 154.786 131.099 155.07 132.067C155.354 133.036 155.273 134.075 154.842 134.988C154.411 135.901 153.66 136.624 152.732 137.02Z" fill="#FFB8B8"/>
<path d="M143.813 134.691L109.976 131.573L109.93 131.52L85.2351 103.224C83.6099 100.734 82.998 97.7169 83.5246 94.7906C84.0513 91.8643 85.6767 89.25 88.068 87.483C89.3912 86.5077 90.9059 85.8238 92.5124 85.4762C94.1189 85.1286 95.7808 85.1251 97.3887 85.4661C98.9967 85.8071 100.514 86.4847 101.841 87.4544C103.168 88.4241 104.275 89.664 105.089 91.0922L120.299 117.8L144.186 127.398L143.813 134.691Z" fill="#B4C1D6"/>
<path d="M228.742 80.2751C227.902 74.1116 226.848 67.4941 222.5 63.0447C221.121 61.6329 219.47 60.5151 217.647 59.7586C215.824 59.0022 213.867 58.6227 211.893 58.6431C209.919 58.6635 207.97 59.0834 206.163 59.8775C204.356 60.6715 202.728 61.8233 201.379 63.2633C198.214 66.6392 196.817 71.3794 196.689 76.0048C196.561 80.6302 197.591 85.2042 198.734 89.6881C204.781 89.8089 210.784 88.6273 216.335 86.2236C217.723 85.6211 219.089 84.94 220.555 84.5668C222.022 84.1935 223.067 85.1328 224.431 85.7877L225.18 84.3539C225.793 85.4946 227.691 85.1565 228.379 84.0597C229.068 82.9629 228.917 81.5582 228.742 80.2751Z" fill="#525252"/>
<path d="M204.77 114.678L180.066 115.206C179.686 114.55 179.125 114.019 178.449 113.676C177.773 113.334 177.012 113.196 176.259 113.278C175.506 113.36 174.793 113.659 174.207 114.139C173.62 114.619 173.186 115.259 172.957 115.981C172.728 116.703 172.714 117.477 172.916 118.207C173.119 118.937 173.529 119.592 174.097 120.094C174.665 120.595 175.367 120.92 176.116 121.03C176.866 121.14 177.631 121.029 178.319 120.712C181.596 120.898 207.229 124.536 208.758 122.192C210.31 119.812 218.595 111.414 218.595 111.414L212.227 102.348L204.77 114.678Z" fill="#E7C0C6"/>
<path d="M210.789 86.3732C217.2 86.3732 222.396 81.1767 222.396 74.7664C222.396 68.3562 217.2 63.1597 210.789 63.1597C204.379 63.1597 199.183 68.3562 199.183 74.7664C199.183 81.1767 204.379 86.3732 210.789 86.3732Z" fill="#E7C0C6"/>
<path d="M229.379 97.099C228.012 94.3768 227.347 91.0139 224.431 90.1314C222.462 89.5354 214.498 90.4285 212.703 91.4345C209.718 93.1078 212.423 96.2435 210.662 99.1778C208.747 102.368 203.545 108.769 201.63 111.959C200.314 114.152 204.747 120.589 204.036 123.045C203.324 125.502 203.29 128.259 204.502 130.511C205.587 132.527 204.017 134.31 205.108 136.322C206.243 138.415 207.636 146.24 206.58 148.374L205.872 150.495C212.889 150.907 218.789 142.525 225.762 141.642C227.494 141.422 229.292 141.136 230.72 140.131C232.822 138.65 233.653 135.963 234.172 133.444C236.672 121.134 234.985 108.341 229.379 97.099Z" fill="#A05148"/>
<path d="M239.899 125.842C238.922 123.175 237.153 111.511 237.153 111.511L226.078 111.186L231.493 124.54L216.718 145.223C216.718 145.223 216.745 145.269 216.795 145.35C216.018 145.225 215.222 145.338 214.51 145.673C213.799 146.009 213.205 146.551 212.807 147.23C212.408 147.908 212.224 148.691 212.278 149.476C212.332 150.261 212.622 151.011 213.109 151.629C213.596 152.246 214.259 152.702 215.01 152.937C215.761 153.172 216.565 153.175 217.317 152.945C218.07 152.715 218.735 152.263 219.227 151.649C219.718 151.035 220.013 150.287 220.072 149.502C220.127 149.533 220.19 149.545 220.252 149.534C220.314 149.523 220.37 149.492 220.411 149.444C222.055 147.381 240.877 128.51 239.899 125.842Z" fill="#E7C0C6"/>
<path d="M241.025 118.476C240.009 114.186 238.985 109.873 237.271 105.811C235.557 101.748 233.104 97.9115 229.653 95.1671C228.55 94.2897 227.317 93.5153 225.934 93.2425C224.551 92.9697 222.992 93.275 222.021 94.2965C220.467 95.9312 220.935 98.555 221.505 100.737C223.186 107.172 224.866 113.606 226.547 120.041C231.401 119.526 236.255 119.012 241.109 118.497L241.025 118.476Z" fill="#A05148"/>
<path d="M225.012 76.3763C224.584 73.5685 224.138 70.7372 223.134 68.0934C222.129 65.4496 220.511 62.9733 218.189 61.4756C214.512 59.1043 209.753 59.5617 205.631 60.9256C202.443 61.9805 199.332 63.5838 197.084 66.1613C194.836 68.7389 193.573 72.4168 194.409 75.787C198.806 74.7482 203.203 73.7094 207.6 72.6706L207.118 73.0107C208.562 73.7306 209.823 74.7699 210.805 76.0497C211.787 77.3296 212.464 78.8163 212.786 80.3971C213.1 81.9972 213.055 83.647 212.654 85.2275C212.252 86.8079 211.504 88.2793 210.465 89.5353C213.463 88.4716 216.462 87.4079 219.46 86.3442C221.311 85.6876 223.292 84.9311 224.39 83.247C225.662 81.2945 225.367 78.7065 225.012 76.3763Z" fill="#525252"/>
<path d="M121.11 106.054L111.788 117.993L148.285 131.846L158.077 118.693L121.11 106.054Z" fill="#AE544B"/>
</g>
<defs>
<clipPath id="clip0_1794_3096">
<rect width="305" height="227.958" fill="white" transform="translate(4 41.5212)"/>
</clipPath>
</defs>
</svg>
