<svg width="324" height="240" viewBox="0 0 324 240" fill="none" xmlns="http://www.w3.org/2000/svg">
<g clip-path="url(#clip0_4486_33660)">
<path d="M285.135 82.5487C292.973 53.1828 251.358 34.5212 251.358 34.5212C251.358 34.5212 201.848 60.4709 193.905 56.2822C185.962 52.0936 232.426 24.7001 232.426 24.7001C219.016 12.9882 171.701 7.01197 171.701 7.01197C171.701 7.01197 145.781 59.919 138.99 53.6368C132.198 47.3552 164.044 8.11845 164.044 8.11845C147.642 3.01089 124.669 12.1612 124.669 12.1612C92.1402 30.5266 114.573 77.0471 114.573 77.0471C114.573 77.0471 105.243 95.1633 84.342 108.692C84.342 108.692 80.088 110.909 74.3447 115.737L78.1088 118.414C79.0251 117.503 79.9758 116.638 80.9581 115.821C80.9633 115.814 80.9702 115.809 80.978 115.806C80.9942 115.795 81.0042 115.783 81.0208 115.772C81.8848 115.108 82.7528 114.451 83.6247 113.801L83.628 113.797L83.6313 113.794C86.1905 112.049 88.0104 110.715 89.2496 109.7L89.2591 109.688C97.1296 104.103 107.856 97.1666 112.375 97.3271C112.375 97.3271 112.324 96.3649 112.648 94.7914C112.562 95.6001 112.467 96.4428 112.375 97.3271C110.181 117.603 140.971 143.127 161.231 151.703C181.49 160.279 176.832 148.962 172.303 132.749C167.775 116.536 146.163 104.6 142.196 96.6839C138.228 88.7687 148.988 91.3233 160.387 100.878C171.779 110.433 170.281 128.291 188.464 144.128C206.648 159.965 244.133 129.104 244.133 129.104C228.189 124.324 208.856 98.9309 210.813 93.0471C212.774 87.1595 247.938 112.882 254.324 115.238C260.72 117.598 277.297 111.915 285.135 82.5487Z" fill="url(#paint0_linear_4486_33660)"/>
<path d="M61 57.3254C61 46.1 69.008 37 78.8868 37H219.992C229.87 37 237.878 46.1 237.878 57.3254V182.102C237.878 193.328 229.87 202.428 219.992 202.428H78.8868C69.008 202.428 61 193.328 61 182.102V57.3254Z" fill="#D0D5DD"/>
<path d="M81.8622 56.8325C83.9203 56.8325 85.5886 54.9366 85.5886 52.5979C85.5886 50.2592 83.9203 48.3633 81.8622 48.3633C79.8041 48.3633 78.1357 50.2592 78.1357 52.5979C78.1357 54.9366 79.8041 56.8325 81.8622 56.8325Z" fill="#A05148"/>
<path d="M94.7811 56.8325C96.8392 56.8325 98.5076 54.9366 98.5076 52.5979C98.5076 50.2592 96.8392 48.3633 94.7811 48.3633C92.7231 48.3633 91.0547 50.2592 91.0547 52.5979C91.0547 54.9366 92.7231 56.8325 94.7811 56.8325Z" fill="#A05148"/>
<path d="M107.698 56.8325C109.756 56.8325 111.425 54.9366 111.425 52.5979C111.425 50.2592 109.756 48.3633 107.698 48.3633C105.64 48.3633 103.972 50.2592 103.972 52.5979C103.972 54.9366 105.64 56.8325 107.698 56.8325Z" fill="#A05148"/>
<path d="M30.6763 230.691C30.2849 229.485 37.1146 198.489 38.027 197.445C38.9417 196.405 68.4103 195.76 68.4103 195.76C68.4103 195.76 81.6887 181.539 92.6683 174.654C96.9984 171.935 102.775 170.304 103.51 172.796C103.966 174.341 101.96 177.328 99.4086 180.339C99.4029 180.349 99.3939 180.358 99.3853 180.366C95.8339 184.554 91.2484 188.767 90.817 189.163C90.7927 189.182 90.7837 189.191 90.7837 189.191C90.7837 189.191 115.009 189.589 118.594 189.931C122.18 190.266 126.908 190.5 127.002 193.325C127.09 195.92 120.65 196.966 120.267 197.028C120.667 197.024 129.096 196.966 129.473 200.66C129.753 203.408 120.524 205.636 120.252 205.697C120.469 205.699 124.61 205.725 124.53 207.928C124.395 211.549 115.044 212.922 114.662 212.98C114.865 212.985 118.191 213.103 117.965 215.084C117.404 219.989 85.3353 224.293 75.6106 225.29C65.8768 226.281 31.0712 231.899 30.6763 230.691Z" fill="#F8AE9D"/>
<path d="M254.021 164.107H287.309V201.371H254.021V164.107Z" fill="url(#paint1_linear_4486_33660)"/>
<path d="M257.747 69.8179C259.805 69.8179 261.473 71.7138 261.473 74.0525C261.473 76.3912 259.805 78.2871 257.747 78.2871C255.689 78.2871 254.021 76.3912 254.021 74.0525C254.021 71.7138 255.689 69.8179 257.747 69.8179Z" fill="#E1E4E5"/>
<path d="M41.8122 174.029C41.8122 174.029 48.3228 139.735 39.4585 114.312C38.2812 110.935 34.0102 111.134 33.0322 114.601C33.016 114.658 32.9989 114.718 32.9832 114.778C31.4006 120.73 40.4851 151.971 41.8122 174.029ZM38.5938 184.162C38.5938 184.162 36.2882 137.237 16.5885 109.219C15.3879 107.511 13.1846 107.106 11.6363 108.415C10.6293 109.268 9.80159 110.89 9.73262 113.898C9.55186 121.925 30.2918 157.241 38.5938 184.162Z" fill="#A05148"/>
<path d="M27.2094 99.1772L20.999 92.4021L27.2094 85.627L33.4203 92.4021L27.2094 99.1772ZM261.225 143.216L255.015 136.159L261.225 129.101L267.436 136.159L261.225 143.216Z" stroke="#E1E4E5" stroke-width="2.87189" stroke-linecap="round" stroke-linejoin="round"/>
<path d="M95.2349 15.8094C93.1667 19.2305 94.6204 24.4499 94.6204 24.4499C94.6204 24.4499 99.4266 24.1202 101.493 20.697C103.561 17.2764 102.109 12.0586 102.109 12.0586C102.109 12.0586 97.3032 12.3889 95.2349 15.8094Z" fill="#E1E4E5"/>
<path d="M308.946 128.826C299.135 140.174 280.789 137.781 280.789 137.781C280.789 137.781 278.361 116.991 288.181 105.651C297.992 94.3041 316.329 96.6895 316.329 96.6895C316.329 96.6895 318.757 117.479 308.946 128.826Z" fill="url(#paint2_linear_4486_33660)"/>
<path d="M254.29 19.7934C251.315 23.2351 245.751 22.5091 245.751 22.5091C245.751 22.5091 245.014 16.2037 247.992 12.7637C250.968 9.32209 256.53 10.0459 256.53 10.0459C256.53 10.0459 257.266 16.3518 254.29 19.7934Z" fill="url(#paint3_linear_4486_33660)"/>
<path d="M50.0259 62.8744C54.3926 71.6404 52.3206 84.9236 52.3206 84.9236C52.3206 84.9236 39.8246 81.0171 35.4574 72.2506C31.0907 63.4847 30.8115 54.2831 34.8314 51.6917C38.8575 49.0982 45.6592 54.1085 50.0259 62.8744Z" fill="url(#paint4_linear_4486_33660)"/>
<path d="M274.203 92.4023H274.084C273.378 103.762 265.945 103.937 265.945 103.937C265.945 103.937 274.142 104.119 274.142 117.245C274.142 104.119 282.339 103.937 282.339 103.937C282.339 103.937 274.908 103.762 274.203 92.4023Z" fill="#E1E4E5"/>
<path d="M275.054 71H256.054L257.054 154.5H273.554L275.054 71Z" fill="#A05148"/>
<path d="M273.595 173.606L269.067 168.461C267.127 166.256 263.981 166.256 262.041 168.461L257.513 173.606C255.573 175.811 255.573 179.386 257.513 181.591L262.041 186.736C263.981 188.941 267.127 188.941 269.067 186.736L273.595 181.591C275.536 179.386 275.536 175.811 273.595 173.606Z" fill="#A05148"/>
<path d="M85.9 85H76.1C75.543 85 75.0089 85.2213 74.6151 85.6153C74.2212 86.0093 74 86.5436 74 87.1007V96.9042C74 97.4613 74.2212 97.9957 74.6151 98.3896C75.0089 98.7836 75.543 99.0049 76.1 99.0049H85.9C86.457 99.0049 86.9911 98.7836 87.3849 98.3896C87.7788 97.9957 88 97.4613 88 96.9042V87.1007C88 86.5436 87.7788 86.0093 87.3849 85.6153C86.9911 85.2213 86.457 85 85.9 85ZM84.997 89.6846L79.775 95.2446C79.7091 95.3137 79.6298 95.3686 79.5419 95.406C79.4541 95.4433 79.3595 95.4623 79.264 95.4617C79.1685 95.4623 79.0739 95.4433 78.9861 95.406C78.8982 95.3686 78.8189 95.3137 78.753 95.2446L77.017 93.4029C76.9461 93.338 76.8894 93.259 76.8503 93.1711C76.8113 93.0832 76.7907 92.9882 76.79 92.892C76.7893 92.7959 76.8084 92.7005 76.8461 92.6121C76.8838 92.5236 76.9394 92.4438 77.0093 92.3778C77.0792 92.3117 77.1619 92.2608 77.2524 92.2281C77.3428 92.1954 77.439 92.1818 77.535 92.188C77.6309 92.1941 77.7246 92.22 77.8101 92.264C77.8956 92.308 77.9711 92.3691 78.032 92.4436L79.264 93.7531L83.975 88.7393C84.0401 88.6737 84.1175 88.6216 84.2028 88.586C84.2881 88.5505 84.3796 88.5322 84.472 88.5322C84.5644 88.5322 84.6559 88.5505 84.7412 88.586C84.8265 88.6216 84.9039 88.6737 84.969 88.7393C85.0909 88.8649 85.1615 89.0316 85.1666 89.2065C85.1718 89.3815 85.1113 89.5521 84.997 89.6846Z" fill="#A05148"/>
<path d="M205.441 88.0029H99.559C97.5934 88.0029 96 89.7938 96 92.0029C96 94.2121 97.5934 96.0029 99.559 96.0029H205.441C207.407 96.0029 209 94.2121 209 92.0029C209 89.7938 207.407 88.0029 205.441 88.0029Z" fill="#A05148"/>
<path d="M76.1 116.505H85.9C86.059 116.505 86.2115 116.568 86.3241 116.681C86.4367 116.793 86.5 116.946 86.5 117.106V126.909C86.5 127.069 86.4367 127.221 86.3241 127.334C86.2115 127.447 86.059 127.51 85.9 127.51H76.1C75.941 127.51 75.7885 127.447 75.6759 127.334C75.5633 127.221 75.5 127.069 75.5 126.909V117.106C75.5 116.946 75.5633 116.793 75.6759 116.681C75.7885 116.568 75.941 116.505 76.1 116.505Z" stroke="#A05148" stroke-width="3"/>
<path d="M194.164 117.008H99.8361C97.7175 117.008 96 119.246 96 122.008V122.008C96 124.769 97.7175 127.008 99.8361 127.008H194.164C196.283 127.008 198 124.769 198 122.008V122.008C198 119.246 196.283 117.008 194.164 117.008Z" fill="#A05148"/>
<path d="M76.1 146.51H85.9C86.059 146.51 86.2115 146.573 86.3241 146.686C86.4367 146.798 86.5 146.951 86.5 147.111V156.914C86.5 157.073 86.4367 157.226 86.3241 157.339C86.2115 157.452 86.059 157.515 85.9 157.515H76.1C75.941 157.515 75.7885 157.452 75.6759 157.339C75.5633 157.226 75.5 157.073 75.5 156.914V147.111C75.5 146.951 75.5633 146.798 75.6759 146.686C75.7885 146.573 75.941 146.51 76.1 146.51Z" stroke="#A05148" stroke-width="3"/>
<path d="M194.164 147.013H99.8361C97.7175 147.013 96 149.251 96 152.012V152.013C96 154.774 97.7175 157.013 99.8361 157.013H194.164C196.283 157.013 198 154.774 198 152.013V152.012C198 149.251 196.283 147.013 194.164 147.013Z" fill="#A05148"/>
</g>
<defs>
<linearGradient id="paint0_linear_4486_33660" x1="37.7686" y1="237.327" x2="423.113" y2="-96.8004" gradientUnits="userSpaceOnUse">
<stop stop-color="white"/>
<stop offset="1" stop-color="#EEEEEE"/>
</linearGradient>
<linearGradient id="paint1_linear_4486_33660" x1="271.375" y1="222.263" x2="270.088" y2="123.574" gradientUnits="userSpaceOnUse">
<stop stop-color="white"/>
<stop offset="1" stop-color="#EEEEEE"/>
</linearGradient>
<linearGradient id="paint2_linear_4486_33660" x1="269.803" y1="167.586" x2="354.274" y2="51.0586" gradientUnits="userSpaceOnUse">
<stop stop-color="white"/>
<stop offset="1" stop-color="#EEEEEE"/>
</linearGradient>
<linearGradient id="paint3_linear_4486_33660" x1="242.418" y1="31.5491" x2="268.039" y2="-3.79435" gradientUnits="userSpaceOnUse">
<stop stop-color="white"/>
<stop offset="1" stop-color="#EEEEEE"/>
</linearGradient>
<linearGradient id="paint4_linear_4486_33660" x1="60.7324" y1="62.1733" x2="14.7445" y2="73.2892" gradientUnits="userSpaceOnUse">
<stop stop-color="white"/>
<stop offset="1" stop-color="#EEEEEE"/>
</linearGradient>
<clipPath id="clip0_4486_33660">
<rect width="322.162" height="240" fill="white" transform="translate(0.918945)"/>
</clipPath>
</defs>
</svg>
