<svg width="273" height="169" viewBox="0 0 273 169" fill="none" xmlns="http://www.w3.org/2000/svg">
<g clip-path="url(#clip0_1051_1147)">
<path d="M168.178 45.5107C167.337 47.0123 165.494 47.2187 162.542 46.9333C160.322 46.7183 158.297 46.552 156.076 45.3413C154.522 44.4947 153.292 43.349 152.394 42.2363C151.421 41.031 150.063 39.6553 150.729 38.2887C151.644 36.4113 156.935 34.83 162.072 37.416C167.716 40.2573 169.001 44.0433 168.178 45.5107Z" fill="url(#paint0_linear_1051_1147)"/>
<path d="M265.345 71.3364C259.351 74.3094 251.396 70.4864 251.396 70.4864C251.396 70.4864 253.164 61.8447 259.161 58.8754C265.155 55.9024 273.107 59.7211 273.107 59.7211C273.107 59.7211 271.339 68.3631 265.345 71.3364Z" fill="url(#paint1_linear_1051_1147)"/>
<path d="M89.1476 130.882C93.3743 133.415 99.4379 131.073 99.4379 131.073C99.4379 131.073 98.6453 124.625 94.4159 122.095C90.1893 119.562 84.1279 121.9 84.1279 121.9C84.1279 121.9 84.9209 128.348 89.1476 130.882Z" fill="url(#paint2_linear_1051_1147)"/>
<path d="M221.333 165.642C219.837 165.642 218.625 164.43 218.625 162.934C218.625 161.439 219.837 160.226 221.333 160.226C222.829 160.226 224.041 161.439 224.041 162.934C224.041 164.43 222.829 165.642 221.333 165.642Z" fill="#E1E4E5"/>
<path d="M20.4443 128.455C18.2839 128.455 16.5326 126.704 16.5326 124.544C16.5326 122.383 18.2839 120.632 20.4443 120.632C22.6046 120.632 24.356 122.383 24.356 124.544C24.356 126.704 22.6046 128.455 20.4443 128.455Z" fill="#E1E4E5"/>
<path d="M209.557 104.659C207.913 104.659 206.58 103.326 206.58 101.682C206.58 100.038 207.913 98.705 209.557 98.705C211.201 98.705 212.534 100.038 212.534 101.682C212.534 103.326 211.201 104.659 209.557 104.659Z" fill="#E1E4E5"/>
<path d="M186.495 55.4659C184.667 55.4659 183.185 53.984 183.185 52.1559C183.185 50.3279 184.667 48.8459 186.495 48.8459C188.323 48.8459 189.805 50.3279 189.805 52.1559C189.805 53.984 188.323 55.4659 186.495 55.4659Z" fill="#E1E4E5"/>
<path d="M5.94467 62.2886C5.94467 63.9302 4.61391 65.261 2.97233 65.261C1.33076 65.261 0 63.9302 0 62.2886C0 60.647 1.33076 59.3163 2.97233 59.3163C4.61391 59.3163 5.94467 60.647 5.94467 62.2886Z" fill="#E1E4E5"/>
<path d="M66.1578 11.6183C63.9741 11.6183 62.2038 9.84806 62.2038 7.66433C62.2038 5.48059 63.9741 3.71033 66.1578 3.71033C68.3416 3.71033 70.1118 5.48059 70.1118 7.66433C70.1118 9.84806 68.3416 11.6183 66.1578 11.6183Z" fill="#E1E4E5"/>
<path d="M186.227 148.386C184.547 148.386 183.185 147.296 183.185 145.952C183.185 144.608 184.547 143.519 186.227 143.519C187.907 143.519 189.269 144.608 189.269 145.952C189.269 147.296 187.907 148.386 186.227 148.386Z" fill="#E1E4E5"/>
<path d="M197.136 9.30826C198.021 12.6083 196.062 16.0003 192.762 16.8845C189.462 17.7688 186.07 15.8104 185.186 12.5104C184.302 9.21035 186.26 5.81834 189.56 4.9341C192.86 4.04986 196.252 6.00824 197.136 9.30826Z" fill="#E1E4E5"/>
<path d="M42.9472 42.2223H42.9905C43.2472 45.8577 45.9508 45.9133 45.9508 45.9133C45.9508 45.9133 42.9695 45.9717 42.9695 50.1723C42.9695 45.9717 39.9882 45.9133 39.9882 45.9133C39.9882 45.9133 42.6905 45.8577 42.9472 42.2223ZM59.4578 134.912H59.4995C59.7458 138.537 62.3415 138.593 62.3415 138.593C62.3415 138.593 59.4792 138.651 59.4792 142.839C59.4792 138.651 56.6168 138.593 56.6168 138.593C56.6168 138.593 59.2115 138.537 59.4578 134.912ZM67.1345 21.0507C67.3031 21.0494 67.4658 21.1125 67.5896 21.227C67.7133 21.3416 67.7886 21.499 67.8003 21.6672C67.8119 21.8354 67.759 22.0018 67.6522 22.1323C67.5455 22.2628 67.393 22.3477 67.2258 22.3697C65.6662 22.5883 64.0292 22.8683 62.3565 23.2007C62.2713 23.2176 62.1835 23.2175 62.0983 23.2004C62.0131 23.1834 61.9321 23.1497 61.86 23.1013C61.7878 23.0529 61.7259 22.9907 61.6778 22.9184C61.6296 22.8461 61.5962 22.7649 61.5795 22.6797C61.5456 22.5076 61.5813 22.3291 61.6787 22.1832C61.7761 22.0374 61.9272 21.936 62.0992 21.9013C63.739 21.5739 65.3877 21.2922 67.0432 21.0563C67.0738 21.0533 67.1042 21.0507 67.1345 21.0507ZM57.3762 22.979C57.5237 22.9794 57.6669 23.0289 57.7831 23.1198C57.8993 23.2106 57.9819 23.3376 58.0178 23.4807C58.0602 23.651 58.0334 23.8311 57.9433 23.9817C57.8531 24.1323 57.707 24.241 57.5368 24.284C55.9416 24.6869 54.3567 25.1294 52.7835 25.6113C52.6158 25.6622 52.4347 25.6447 52.2798 25.5627C52.1249 25.4806 52.0087 25.3407 51.9565 25.1733C51.9049 25.0055 51.9219 24.8241 52.0038 24.6689C52.0858 24.5136 52.2259 24.3972 52.3935 24.345C53.9884 23.8554 55.5955 23.4064 57.2132 22.9983C57.2685 22.9873 57.3238 22.979 57.3762 22.979ZM47.8835 25.9077C48.1518 25.9077 48.4062 26.074 48.5028 26.34C48.5331 26.4216 48.5469 26.5084 48.5435 26.5953C48.5401 26.6823 48.5196 26.7677 48.4831 26.8467C48.4466 26.9257 48.3949 26.9968 48.3309 27.0557C48.2669 27.1147 48.1919 27.1604 48.1102 27.1903C46.5685 27.7585 45.0442 28.373 43.5395 29.033C43.46 29.0679 43.3743 29.0868 43.2874 29.0886C43.2006 29.0903 43.1142 29.075 43.0333 29.0433C42.9524 29.0117 42.8786 28.9644 42.816 28.9042C42.7534 28.8439 42.7033 28.772 42.6685 28.6923C42.598 28.5315 42.5942 28.3492 42.6579 28.1855C42.7216 28.0218 42.8477 27.8901 43.0085 27.8193C44.5371 27.1479 46.0863 26.5243 47.6538 25.9493C47.7285 25.9187 47.8062 25.9077 47.8835 25.9077ZM38.7945 29.9057C39.0322 29.9057 39.2645 30.036 39.3805 30.263C39.4206 30.3401 39.4451 30.4244 39.4526 30.5109C39.4601 30.5975 39.4505 30.6847 39.4243 30.7676C39.3981 30.8505 39.3559 30.9273 39.3 30.9939C39.2441 31.0604 39.1756 31.1153 39.0985 31.1553C37.6443 31.9129 36.2184 32.7235 34.8235 33.5853C34.7497 33.6313 34.6675 33.6622 34.5817 33.6762C34.4959 33.6903 34.4081 33.6871 34.3235 33.667C34.2389 33.6469 34.1592 33.6102 34.0888 33.559C34.0185 33.5079 33.959 33.4433 33.9138 33.369C33.8679 33.2952 33.837 33.2131 33.8229 33.1273C33.8087 33.0415 33.8116 32.9538 33.8314 32.8692C33.8512 32.7845 33.8875 32.7046 33.9382 32.634C33.9889 32.5634 34.053 32.5035 34.1268 32.4577C35.5493 31.5775 37.0039 30.7503 38.4875 29.9777C38.5868 29.9307 38.6922 29.9057 38.7945 29.9057ZM30.3688 35.148C30.5708 35.148 30.7698 35.2393 30.8998 35.4167C31.0042 35.5582 31.0483 35.7353 31.0224 35.9093C30.9964 36.0832 30.9026 36.2398 30.7615 36.3447C29.4491 37.3192 28.1831 38.3548 26.9678 39.448C26.8372 39.5651 26.6654 39.6256 26.4902 39.6163C26.3149 39.6069 26.1506 39.5284 26.0332 39.398C25.9162 39.267 25.8559 39.095 25.8652 38.9196C25.8745 38.7442 25.9527 38.5796 26.0828 38.4617C27.2995 37.3643 28.6075 36.295 29.9735 35.2807C30.0952 35.1893 30.2335 35.148 30.3688 35.148ZM23.0192 41.7947C23.1765 41.7947 23.3342 41.85 23.4615 41.9663C23.5919 42.0843 23.6701 42.2493 23.6789 42.425C23.6877 42.6006 23.6264 42.7726 23.5085 42.903C22.4185 44.1137 21.3975 45.3847 20.4502 46.71C20.3482 46.8529 20.1937 46.9494 20.0206 46.9785C19.8475 47.0075 19.6699 46.9667 19.5268 46.865C19.384 46.7625 19.2875 46.6077 19.2585 46.4343C19.2294 46.2609 19.2702 46.0831 19.3718 45.9397C20.3479 44.5728 21.4004 43.262 22.5242 42.0137C22.5872 41.9452 22.6637 41.8904 22.7489 41.8527C22.834 41.815 22.926 41.7953 23.0192 41.7947ZM17.2842 49.86C17.3918 49.86 17.4998 49.885 17.5992 49.9403C17.6756 49.9822 17.7431 50.0387 17.7977 50.1066C17.8523 50.1745 17.8929 50.2525 17.9173 50.3362C17.9417 50.4199 17.9494 50.5075 17.9399 50.5941C17.9303 50.6808 17.9038 50.7646 17.8618 50.841C17.084 52.2692 16.3933 53.7431 15.7935 55.2547C15.7615 55.3355 15.7139 55.4092 15.6534 55.4715C15.5929 55.5339 15.5207 55.5838 15.4409 55.6183C15.3611 55.6527 15.2754 55.6712 15.1885 55.6725C15.1016 55.6738 15.0153 55.658 14.9345 55.626C14.8537 55.594 14.78 55.5464 14.7176 55.4859C14.6553 55.4254 14.6054 55.3532 14.5709 55.2734C14.5364 55.1937 14.518 55.1079 14.5167 55.021C14.5154 54.9341 14.5311 54.8478 14.5632 54.767C15.182 53.2047 15.8958 51.6816 16.7005 50.2063C16.7581 50.102 16.8426 50.0148 16.9451 49.9539C17.0477 49.8931 17.1649 49.8606 17.2842 49.86ZM13.6342 59.0533C13.7354 59.0535 13.8353 59.0769 13.9261 59.1217C14.0168 59.1665 14.0961 59.2315 14.1578 59.3118C14.2195 59.3921 14.262 59.4854 14.2819 59.5847C14.3019 59.684 14.2987 59.7865 14.2728 59.8843C13.8585 61.4582 13.5317 63.0537 13.2938 64.6637C13.2814 64.7498 13.2521 64.8326 13.2074 64.9073C13.1628 64.982 13.1039 65.0472 13.034 65.0989C12.964 65.1507 12.8845 65.1882 12.8001 65.2091C12.7156 65.23 12.6278 65.2339 12.5418 65.2207C12.4557 65.2079 12.3729 65.1782 12.2981 65.1334C12.2234 65.0886 12.1583 65.0295 12.1064 64.9596C12.0545 64.8896 12.0169 64.8101 11.9958 64.7255C11.9747 64.641 11.9704 64.5532 11.9832 64.467C12.2322 62.7937 12.5695 61.1367 12.9925 59.5407C13.0322 59.4009 13.1163 59.2778 13.232 59.1899C13.3477 59.102 13.4889 59.0541 13.6342 59.0533ZM12.1075 68.8447H12.1545C12.2412 68.8507 12.326 68.8737 12.4038 68.9125C12.4816 68.9513 12.551 69.005 12.6081 69.0707C12.6651 69.1363 12.7086 69.2126 12.7361 69.295C12.7637 69.3775 12.7747 69.4646 12.7685 69.5513C12.6811 70.8166 12.6369 72.0844 12.6358 73.3527C12.6358 73.724 12.6385 74.095 12.6468 74.4553C12.6507 74.6307 12.5847 74.8005 12.4635 74.9272C12.3422 75.054 12.1755 75.1274 12.0002 75.1313C11.8247 75.1348 11.6551 75.0685 11.5286 74.9469C11.402 74.8253 11.329 74.6585 11.3255 74.483C11.3176 74.1054 11.314 73.7277 11.3145 73.35C11.3145 72.0863 11.3612 70.7787 11.4498 69.457C11.4626 69.2909 11.5375 69.1357 11.6594 69.0223C11.7814 68.9088 11.9416 68.8454 12.1082 68.8447H12.1075ZM12.3565 78.761C12.6828 78.761 12.9675 79.0047 13.0118 79.3373C13.2305 80.997 13.5485 82.6067 13.9575 84.1193C14.0034 84.2886 13.9802 84.4691 13.8932 84.6213C13.8061 84.7735 13.6623 84.885 13.4932 84.9313C13.4092 84.9539 13.3216 84.9596 13.2355 84.9483C13.1493 84.9369 13.0662 84.9087 12.9909 84.8652C12.9156 84.8217 12.8497 84.7638 12.7968 84.6948C12.744 84.6258 12.7052 84.547 12.6828 84.463C12.2595 82.892 11.9308 81.227 11.7038 79.509C11.6915 79.4159 11.6992 79.3212 11.7263 79.2313C11.7534 79.1414 11.7994 79.0583 11.8612 78.9875C11.9229 78.9168 11.999 78.86 12.0844 78.8209C12.1698 78.7819 12.2626 78.7614 12.3565 78.761ZM14.9752 88.303C15.2268 88.303 15.4675 88.45 15.5778 88.6937C16.2555 90.1983 17.0545 91.614 17.9562 92.8997C18.0569 93.0434 18.0966 93.2213 18.0665 93.3942C18.0364 93.5672 17.9389 93.7211 17.7955 93.8223C17.7245 93.8724 17.6444 93.9079 17.5597 93.9269C17.475 93.9459 17.3874 93.948 17.3018 93.933C17.2163 93.9181 17.1346 93.8865 17.0613 93.8399C16.988 93.7933 16.9247 93.7328 16.8748 93.6617C15.9265 92.3097 15.0858 90.8217 14.3725 89.2397C14.3368 89.1604 14.317 89.0749 14.3143 88.988C14.3117 88.901 14.3261 88.8145 14.3569 88.7331C14.3877 88.6518 14.4343 88.5774 14.4938 88.514C14.5534 88.4507 14.6249 88.3997 14.7042 88.364C14.7928 88.3227 14.8842 88.303 14.9752 88.303ZM36.6708 89.0733C37.0165 89.0733 37.3095 89.345 37.3288 89.694C37.34 89.8694 37.281 90.0421 37.1648 90.1741C37.0487 90.306 36.8849 90.3865 36.7095 90.3977C35.1775 90.492 33.5765 90.8467 32.0805 91.423C31.9993 91.4541 31.9128 91.4689 31.8259 91.4665C31.739 91.4641 31.6534 91.4446 31.574 91.4091C31.4946 91.3736 31.4231 91.3228 31.3634 91.2595C31.3037 91.1963 31.2571 91.122 31.2262 91.0407C31.1633 90.8765 31.1682 90.6942 31.2397 90.5336C31.3112 90.3731 31.4435 90.2474 31.6075 90.1843C33.2282 89.561 34.9645 89.1787 36.6292 89.0733C36.6432 89.076 36.6595 89.0733 36.6708 89.0733ZM41.5458 89.744C41.6285 89.744 41.7115 89.7607 41.7918 89.791C43.8518 90.625 45.0905 92.085 45.2758 93.9027C45.2937 94.077 45.2418 94.2513 45.1314 94.3874C45.021 94.5235 44.8611 94.6103 44.6868 94.6287C44.6003 94.6373 44.513 94.6289 44.4297 94.6037C44.3465 94.5786 44.269 94.5374 44.2018 94.4823C44.1345 94.4272 44.0788 94.3594 44.0377 94.2828C43.9966 94.2062 43.9711 94.1222 43.9625 94.0357C43.7912 92.3623 42.4195 91.47 41.2995 91.0157C41.1577 90.9582 41.0403 90.8533 40.9673 90.7188C40.8944 90.5843 40.8704 90.4287 40.8995 90.2785C40.9286 90.1283 41.0089 89.9929 41.1268 89.8954C41.2447 89.7979 41.3928 89.7444 41.5458 89.744ZM27.5485 92.5837C27.7448 92.5837 27.9382 92.6697 28.0682 92.836C28.2948 93.124 28.2452 93.5397 27.9605 93.767C26.7163 94.7513 25.6404 95.9312 24.7748 97.2607C24.7276 97.3337 24.6664 97.3966 24.5948 97.4459C24.5232 97.4952 24.4425 97.5299 24.3575 97.5479C24.2724 97.5659 24.1847 97.567 24.0992 97.551C24.0137 97.535 23.9323 97.5023 23.8595 97.4547C23.7123 97.3587 23.6093 97.2081 23.5731 97.0362C23.5368 96.8643 23.5703 96.6849 23.6662 96.5377C24.6035 95.0913 25.7732 93.8113 27.1392 92.728C27.2549 92.6343 27.3995 92.5833 27.5485 92.5837ZM20.6685 96.352C20.8292 96.352 20.9895 96.41 21.1165 96.5263C22.3085 97.6263 23.6135 98.5767 24.9935 99.347C25.1467 99.4325 25.2597 99.5753 25.3076 99.744C25.3555 99.9128 25.3344 100.094 25.249 100.247C25.1636 100.4 25.0208 100.513 24.852 100.561C24.6832 100.609 24.5024 100.588 24.3492 100.502C22.8782 99.6797 21.4898 98.6683 20.2208 97.499C20.0915 97.38 20.0147 97.2145 20.0074 97.0389C20.0001 96.8633 20.0628 96.692 20.1818 96.5627C20.3148 96.424 20.4918 96.352 20.6685 96.352ZM42.9865 97.8757C43.1328 97.8757 43.2795 97.923 43.4012 98.0227C43.6858 98.2527 43.7302 98.6683 43.5035 98.9537C42.4388 100.278 41.0092 101.311 39.2535 102.024C39.173 102.056 39.0869 102.073 39.0001 102.072C38.9133 102.071 38.8274 102.053 38.7476 102.019C38.6677 101.985 38.5953 101.936 38.5345 101.874C38.4738 101.812 38.4258 101.738 38.3935 101.658C38.3609 101.577 38.3445 101.491 38.3451 101.404C38.3458 101.317 38.3636 101.231 38.3975 101.151C38.4314 101.071 38.4807 100.999 38.5427 100.938C38.6046 100.877 38.678 100.829 38.7585 100.796C40.3015 100.17 41.5512 99.2723 42.4722 98.1253C42.5334 98.0475 42.6115 97.9846 42.7006 97.9414C42.7897 97.8982 42.8875 97.8757 42.9865 97.8757ZM22.2145 100.755C22.2725 100.755 22.3305 100.763 22.3885 100.777C22.4726 100.8 22.5513 100.839 22.6202 100.892C22.6891 100.945 22.7468 101.012 22.79 101.088C22.8331 101.163 22.861 101.247 22.8718 101.333C22.8826 101.42 22.8763 101.507 22.8532 101.591C22.4522 103.063 22.2365 104.658 22.2145 106.332C22.212 106.506 22.1413 106.672 22.0177 106.794C21.894 106.916 21.7274 106.985 21.5535 106.986H21.5452C21.4583 106.985 21.3725 106.966 21.2927 106.932C21.2128 106.898 21.1405 106.848 21.0799 106.786C21.0193 106.723 20.9716 106.65 20.9394 106.569C20.9073 106.488 20.8913 106.402 20.8925 106.315C20.9175 104.528 21.1472 102.821 21.5785 101.242C21.6163 101.103 21.6991 100.979 21.814 100.891C21.9289 100.803 22.0697 100.755 22.2145 100.755ZM29.2572 101.123C29.3125 101.123 29.3705 101.131 29.4258 101.145C31.0075 101.561 32.6032 101.752 34.1488 101.71C34.3243 101.706 34.4943 101.772 34.6213 101.893C34.7484 102.014 34.8222 102.181 34.8265 102.356C34.829 102.443 34.8143 102.53 34.7832 102.611C34.7521 102.692 34.7053 102.766 34.6454 102.829C34.5855 102.892 34.5138 102.943 34.4343 102.978C34.3548 103.013 34.2691 103.033 34.1822 103.035C32.5118 103.079 30.7892 102.874 29.0885 102.425C28.9188 102.38 28.7737 102.27 28.6851 102.118C28.5966 101.967 28.5716 101.786 28.6158 101.616C28.6538 101.475 28.7371 101.35 28.853 101.261C28.9689 101.172 29.1109 101.123 29.2572 101.123ZM21.9738 110.607C22.2892 110.607 22.5682 110.834 22.6235 111.156C22.8892 112.668 23.2872 114.262 23.8072 115.885C23.8605 116.052 23.8453 116.234 23.765 116.39C23.6846 116.547 23.5457 116.665 23.3785 116.719C23.2112 116.772 23.0296 116.757 22.8736 116.676C22.7175 116.596 22.5998 116.457 22.5462 116.29C22.0068 114.608 21.5948 112.959 21.3212 111.386C21.2906 111.213 21.33 111.035 21.4306 110.891C21.5313 110.747 21.6849 110.649 21.8578 110.618C21.8965 110.61 21.9352 110.607 21.9738 110.607ZM24.9408 120.063C25.0693 120.064 25.195 120.101 25.3025 120.172C25.41 120.242 25.4948 120.342 25.5465 120.46C26.1715 121.892 26.8932 123.38 27.6948 124.879C27.8665 125.203 27.7448 125.602 27.4238 125.776C27.269 125.859 27.0878 125.876 26.92 125.826C26.7521 125.775 26.6113 125.659 26.5282 125.505C25.7122 123.973 24.9742 122.457 24.3352 120.992C24.2647 120.831 24.261 120.648 24.3248 120.485C24.3886 120.321 24.5147 120.189 24.6755 120.119C24.7612 120.083 24.8525 120.063 24.9408 120.063ZM29.6748 128.777C29.8848 128.777 30.0895 128.877 30.2195 129.062C31.1481 130.397 32.1613 131.67 33.2528 132.875C33.3114 132.939 33.3568 133.015 33.3863 133.097C33.4158 133.178 33.4289 133.265 33.4248 133.352C33.4207 133.439 33.3996 133.525 33.3625 133.603C33.3254 133.682 33.2732 133.753 33.2088 133.811C33.1447 133.87 33.0695 133.915 32.9877 133.945C32.9059 133.974 32.8191 133.988 32.7323 133.983C32.6454 133.979 32.5603 133.958 32.4816 133.921C32.403 133.884 32.3325 133.831 32.2742 133.767C31.1436 132.52 30.0943 131.201 29.1328 129.819C29.064 129.72 29.0237 129.603 29.016 129.483C29.0084 129.362 29.0339 129.242 29.0897 129.135C29.1454 129.027 29.2294 128.937 29.3325 128.874C29.4356 128.811 29.554 128.778 29.6748 128.777ZM36.3112 136.114C36.4632 136.114 36.6182 136.166 36.7425 136.275C37.9784 137.336 39.2728 138.328 40.6195 139.245C40.6914 139.294 40.753 139.356 40.8006 139.429C40.8483 139.502 40.8812 139.583 40.8973 139.669C40.9135 139.754 40.9126 139.842 40.8948 139.927C40.877 140.012 40.8426 140.093 40.7935 140.165C40.7449 140.237 40.6825 140.298 40.61 140.346C40.5375 140.394 40.4562 140.427 40.3708 140.443C40.2855 140.459 40.1978 140.458 40.1128 140.441C40.0277 140.423 39.9471 140.388 39.8755 140.339C38.4872 139.394 37.1532 138.372 35.8798 137.278C35.8138 137.221 35.7597 137.152 35.7205 137.074C35.6813 136.996 35.6578 136.912 35.6514 136.825C35.645 136.738 35.6558 136.651 35.6831 136.568C35.7105 136.486 35.7539 136.409 35.8108 136.344C35.9408 136.191 36.1258 136.114 36.3112 136.114ZM146.323 141.295C146.589 141.295 146.838 141.456 146.94 141.716C147.004 141.879 147 142.061 146.93 142.222C146.86 142.383 146.73 142.51 146.567 142.575C145.231 143.099 143.638 143.647 141.827 144.207C141.66 144.259 141.478 144.241 141.323 144.159C141.168 144.077 141.052 143.937 141.001 143.769C140.949 143.602 140.966 143.42 141.048 143.265C141.13 143.109 141.27 142.993 141.438 142.941C143.216 142.389 144.78 141.852 146.083 141.339C146.16 141.309 146.243 141.295 146.323 141.295ZM44.4878 141.708C44.5928 141.708 44.7035 141.733 44.8032 141.788C46.2402 142.566 47.7108 143.281 49.2108 143.93C49.2906 143.965 49.3627 144.014 49.4231 144.077C49.4835 144.139 49.531 144.213 49.5628 144.294C49.5946 144.375 49.6102 144.461 49.6086 144.548C49.607 144.635 49.5883 144.72 49.5535 144.8C49.5193 144.88 49.4697 144.952 49.4074 145.012C49.3452 145.073 49.2717 145.12 49.191 145.152C49.1103 145.184 49.0241 145.2 48.9373 145.198C48.8506 145.197 48.765 145.178 48.6855 145.143C47.1504 144.478 45.6447 143.747 44.1725 142.952C44.0434 142.882 43.9414 142.77 43.8826 142.635C43.8238 142.501 43.8115 142.35 43.8476 142.208C43.8837 142.065 43.9662 141.939 44.0822 141.848C44.1981 141.758 44.3408 141.708 44.4878 141.708ZM136.859 144.276C137.152 144.276 137.42 144.473 137.497 144.769C137.52 144.853 137.526 144.941 137.514 145.027C137.503 145.113 137.474 145.197 137.431 145.272C137.387 145.347 137.329 145.413 137.26 145.465C137.19 145.518 137.111 145.556 137.027 145.578C135.422 146.004 133.809 146.404 132.191 146.778C132.106 146.798 132.018 146.8 131.933 146.786C131.847 146.772 131.765 146.741 131.691 146.695C131.618 146.649 131.554 146.589 131.503 146.518C131.453 146.447 131.417 146.367 131.397 146.282C131.377 146.198 131.374 146.11 131.388 146.024C131.403 145.938 131.434 145.856 131.48 145.782C131.526 145.708 131.586 145.644 131.656 145.593C131.727 145.543 131.807 145.507 131.892 145.487C133.497 145.114 135.097 144.717 136.69 144.296C136.745 144.282 136.802 144.276 136.859 144.276ZM53.5715 145.67C53.6432 145.67 53.7152 145.681 53.7872 145.706C55.3369 146.239 56.9038 146.722 58.4852 147.152C58.6543 147.199 58.7981 147.31 58.8852 147.462C58.9723 147.614 58.9956 147.795 58.9498 147.964C58.9272 148.048 58.8883 148.126 58.8353 148.195C58.7823 148.264 58.7163 148.321 58.6411 148.365C58.5658 148.408 58.4828 148.436 58.3967 148.447C58.3107 148.458 58.2233 148.452 58.1395 148.429C56.5292 147.992 54.9338 147.501 53.3558 146.958C53.2078 146.907 53.0827 146.805 53.0028 146.671C52.9228 146.536 52.8931 146.377 52.9189 146.223C52.9448 146.069 53.0245 145.928 53.144 145.827C53.2635 145.726 53.4149 145.67 53.5715 145.67ZM127.194 146.532C127.501 146.532 127.778 146.748 127.841 147.061C127.876 147.232 127.842 147.411 127.745 147.558C127.649 147.704 127.498 147.806 127.327 147.842C125.701 148.176 124.072 148.489 122.438 148.781C122.265 148.812 122.087 148.773 121.943 148.673C121.799 148.573 121.701 148.419 121.669 148.247C121.639 148.074 121.677 147.896 121.777 147.752C121.877 147.607 122.03 147.508 122.203 147.476C123.832 147.183 125.466 146.87 127.061 146.543C127.105 146.534 127.15 146.532 127.194 146.532ZM117.428 148.285C117.586 148.285 117.738 148.342 117.858 148.445C117.978 148.549 118.057 148.691 118.08 148.848C118.107 149.021 118.064 149.199 117.96 149.34C117.856 149.482 117.701 149.577 117.527 149.604C115.89 149.859 114.234 150.097 112.6 150.311C112.513 150.322 112.426 150.317 112.342 150.295C112.257 150.272 112.179 150.233 112.11 150.18C112.041 150.127 111.983 150.061 111.94 149.985C111.897 149.91 111.869 149.826 111.859 149.74C111.836 149.566 111.883 149.39 111.99 149.251C112.096 149.111 112.254 149.02 112.428 148.997C114.051 148.784 115.699 148.549 117.325 148.296C117.361 148.288 117.395 148.285 117.428 148.285ZM63.1335 148.288C63.1775 148.288 63.2245 148.294 63.2688 148.302C64.8338 148.632 66.4655 148.931 68.1135 149.194C68.2866 149.222 68.4417 149.317 68.5448 149.459C68.6479 149.601 68.6907 149.777 68.6638 149.951C68.6504 150.037 68.6201 150.119 68.5747 150.193C68.5294 150.268 68.4698 150.332 68.3994 150.384C68.329 150.435 68.2492 150.472 68.1646 150.492C68.0799 150.512 67.9921 150.516 67.9062 150.502C66.2617 150.243 64.6241 149.942 62.9952 149.599C62.8235 149.562 62.6733 149.459 62.5774 149.312C62.4815 149.165 62.4478 148.986 62.4835 148.815C62.5159 148.666 62.5979 148.533 62.7161 148.437C62.8342 148.342 62.9814 148.289 63.1335 148.288ZM107.589 149.577C107.923 149.577 108.208 149.829 108.247 150.169C108.266 150.344 108.215 150.518 108.105 150.655C107.995 150.792 107.835 150.879 107.661 150.898C106.007 151.075 104.34 151.233 102.706 151.366C102.531 151.38 102.357 151.324 102.224 151.211C102.09 151.097 102.007 150.935 101.992 150.76C101.985 150.673 101.995 150.586 102.022 150.503C102.048 150.42 102.091 150.343 102.147 150.277C102.203 150.21 102.272 150.156 102.349 150.116C102.427 150.076 102.511 150.052 102.598 150.045C104.24 149.909 105.881 149.754 107.52 149.579C107.542 149.579 107.567 149.577 107.589 149.577ZM72.9305 149.848C72.9552 149.848 72.9802 149.848 73.0052 149.851C74.6005 150.031 76.2542 150.181 77.9188 150.3C78.0057 150.306 78.0904 150.329 78.1682 150.368C78.246 150.407 78.3153 150.461 78.3721 150.527C78.4289 150.593 78.4721 150.67 78.4991 150.752C78.5262 150.835 78.5366 150.922 78.5298 151.009C78.5239 151.096 78.5008 151.181 78.4619 151.258C78.4231 151.336 78.3692 151.406 78.3033 151.463C78.2375 151.52 78.1611 151.563 78.0785 151.59C77.9958 151.617 77.9086 151.628 77.8218 151.621C76.1637 151.502 74.5081 151.35 72.8558 151.167C72.6881 151.148 72.5341 151.065 72.4253 150.936C72.3165 150.807 72.2613 150.641 72.2708 150.472C72.2804 150.304 72.354 150.145 72.4766 150.029C72.5993 149.913 72.7616 149.848 72.9305 149.848ZM97.7035 150.386C97.8763 150.385 98.0425 150.452 98.1667 150.572C98.2909 150.692 98.3632 150.856 98.3682 151.029C98.3733 151.202 98.3106 151.37 98.1937 151.497C98.0767 151.624 97.9147 151.701 97.7422 151.71C96.0851 151.802 94.4268 151.871 92.7678 151.918C92.5924 151.921 92.4229 151.855 92.2957 151.734C92.1684 151.613 92.0937 151.447 92.0875 151.272C92.0849 151.185 92.0994 151.099 92.1302 151.017C92.1611 150.936 92.2076 150.862 92.2672 150.798C92.3268 150.735 92.3982 150.684 92.4775 150.649C92.5568 150.613 92.6423 150.593 92.7292 150.591C94.3495 150.546 96.0112 150.477 97.6675 150.383C97.6793 150.385 97.6914 150.386 97.7035 150.386ZM82.8242 150.563H82.8492C84.4612 150.621 86.1232 150.652 87.7875 150.654C88.1525 150.654 88.4485 150.954 88.4485 151.319C88.4485 151.406 88.4314 151.492 88.3982 151.572C88.3649 151.652 88.3162 151.725 88.2548 151.786C88.1934 151.847 88.1205 151.896 88.0403 151.929C87.9601 151.962 87.8742 151.979 87.7875 151.979H87.7848C86.1235 151.976 84.4624 151.944 82.8022 151.884C82.7154 151.881 82.6301 151.861 82.5512 151.825C82.4722 151.789 82.4011 151.738 82.342 151.674C82.283 151.611 82.237 151.536 82.2068 151.455C82.1766 151.373 82.1628 151.287 82.1662 151.2C82.1719 151.029 82.2437 150.867 82.3664 150.749C82.4892 150.63 82.6533 150.563 82.8242 150.563ZM197.091 151.979C196.924 151.977 196.764 151.913 196.642 151.799C196.52 151.684 196.446 151.528 196.435 151.361C196.423 151.195 196.475 151.03 196.58 150.9C196.685 150.77 196.835 150.684 197 150.66C198.631 150.429 200.255 150.151 201.869 149.829C201.955 149.812 202.042 149.812 202.128 149.829C202.213 149.846 202.294 149.88 202.366 149.928C202.438 149.976 202.5 150.039 202.548 150.111C202.596 150.183 202.63 150.264 202.646 150.349C202.68 150.522 202.645 150.7 202.547 150.846C202.45 150.992 202.299 151.093 202.126 151.128C200.487 151.455 198.838 151.737 197.182 151.973C197.152 151.976 197.122 151.978 197.091 151.979ZM206.849 150.05C206.688 150.05 206.533 149.99 206.412 149.883C206.291 149.776 206.214 149.629 206.194 149.468C206.175 149.308 206.214 149.147 206.305 149.013C206.396 148.88 206.533 148.785 206.689 148.745C208.284 148.342 209.869 147.9 211.442 147.418C211.61 147.367 211.791 147.384 211.946 147.466C212.101 147.549 212.217 147.689 212.269 147.856C212.321 148.024 212.304 148.205 212.222 148.36C212.14 148.516 212 148.632 211.832 148.684C210.238 149.174 208.63 149.623 207.013 150.031C206.959 150.043 206.904 150.049 206.849 150.05ZM216.342 147.122C216.187 147.122 216.037 147.067 215.918 146.967C215.799 146.867 215.718 146.728 215.691 146.575C215.664 146.422 215.692 146.265 215.77 146.13C215.847 145.995 215.97 145.892 216.115 145.839C217.657 145.271 219.182 144.656 220.686 143.996C220.766 143.961 220.852 143.943 220.939 143.941C221.025 143.939 221.112 143.954 221.193 143.986C221.274 144.018 221.347 144.065 221.41 144.125C221.473 144.185 221.523 144.257 221.557 144.337C221.628 144.498 221.632 144.68 221.568 144.844C221.504 145.007 221.378 145.139 221.217 145.21C219.689 145.882 218.139 146.505 216.572 147.08C216.499 147.109 216.421 147.123 216.342 147.122ZM225.431 143.124C225.194 143.124 224.961 142.993 224.845 142.766C224.805 142.689 224.781 142.605 224.773 142.518C224.766 142.432 224.775 142.344 224.801 142.262C224.828 142.179 224.87 142.102 224.926 142.035C224.982 141.969 225.05 141.914 225.127 141.874C226.582 141.116 228.007 140.306 229.402 139.444C229.476 139.398 229.558 139.367 229.644 139.353C229.73 139.339 229.818 139.342 229.902 139.362C229.987 139.382 230.067 139.419 230.137 139.47C230.207 139.521 230.267 139.586 230.312 139.66C230.505 139.971 230.409 140.381 230.099 140.572C228.677 141.452 227.222 142.279 225.738 143.052C225.643 143.098 225.538 143.123 225.431 143.124ZM233.857 137.881C233.718 137.881 233.582 137.836 233.47 137.754C233.357 137.672 233.273 137.557 233.23 137.424C233.187 137.292 233.186 137.149 233.228 137.017C233.27 136.884 233.353 136.768 233.464 136.685C234.777 135.71 236.043 134.674 237.258 133.581C237.389 133.464 237.561 133.404 237.736 133.413C237.911 133.422 238.075 133.501 238.193 133.631C238.436 133.903 238.414 134.321 238.143 134.568C236.897 135.689 235.599 136.75 234.252 137.748C234.131 137.84 233.992 137.881 233.857 137.881ZM241.207 131.235C241.043 131.235 240.885 131.174 240.764 131.063C240.634 130.945 240.556 130.78 240.547 130.604C240.538 130.429 240.6 130.257 240.717 130.126C241.807 128.916 242.829 127.645 243.776 126.319C243.826 126.249 243.89 126.188 243.964 126.142C244.038 126.096 244.12 126.065 244.206 126.051C244.292 126.037 244.38 126.039 244.465 126.059C244.549 126.079 244.629 126.115 244.7 126.165C244.771 126.216 244.831 126.28 244.877 126.354C244.923 126.428 244.954 126.51 244.969 126.596C244.983 126.681 244.98 126.769 244.96 126.854C244.941 126.939 244.905 127.019 244.854 127.09C243.878 128.457 242.826 129.767 241.702 131.016C241.639 131.084 241.562 131.139 241.477 131.176C241.392 131.214 241.3 131.234 241.207 131.235ZM246.942 123.169C246.834 123.169 246.726 123.144 246.626 123.089C246.55 123.047 246.483 122.991 246.428 122.923C246.373 122.855 246.333 122.777 246.308 122.693C246.284 122.61 246.276 122.522 246.286 122.435C246.295 122.349 246.322 122.265 246.364 122.188C247.142 120.76 247.832 119.286 248.432 117.775C248.464 117.694 248.512 117.62 248.572 117.558C248.633 117.495 248.705 117.445 248.785 117.411C248.865 117.376 248.95 117.358 249.037 117.357C249.124 117.355 249.21 117.371 249.291 117.403C249.372 117.435 249.446 117.483 249.508 117.543C249.571 117.604 249.62 117.676 249.655 117.756C249.689 117.836 249.708 117.921 249.709 118.008C249.711 118.095 249.695 118.182 249.663 118.262C249.044 119.825 248.33 121.348 247.525 122.823C247.468 122.927 247.383 123.015 247.281 123.075C247.178 123.136 247.061 123.169 246.942 123.169ZM250.592 113.976C250.491 113.976 250.391 113.952 250.3 113.908C250.209 113.863 250.13 113.798 250.068 113.718C250.006 113.637 249.964 113.544 249.944 113.445C249.924 113.345 249.927 113.243 249.953 113.145C250.367 111.571 250.694 109.976 250.932 108.366C250.944 108.28 250.974 108.197 251.018 108.122C251.063 108.047 251.122 107.982 251.192 107.93C251.262 107.878 251.341 107.841 251.426 107.82C251.51 107.799 251.598 107.795 251.684 107.809C251.858 107.835 252.015 107.929 252.119 108.07C252.224 108.211 252.268 108.388 252.242 108.562C251.998 110.222 251.661 111.866 251.233 113.488C251.194 113.628 251.11 113.751 250.994 113.839C250.878 113.927 250.737 113.975 250.592 113.976ZM252.118 104.185H252.071C251.984 104.179 251.9 104.156 251.822 104.117C251.744 104.078 251.675 104.024 251.618 103.959C251.561 103.893 251.517 103.817 251.49 103.734C251.462 103.652 251.451 103.565 251.457 103.478C251.546 102.187 251.59 100.91 251.59 99.6767C251.59 99.3053 251.587 98.934 251.579 98.574C251.575 98.3985 251.641 98.2288 251.763 98.102C251.884 97.9752 252.051 97.9019 252.226 97.898C252.402 97.8945 252.571 97.9609 252.698 98.0825C252.824 98.204 252.897 98.3709 252.901 98.5463C252.909 98.9177 252.912 99.3 252.912 99.6793C252.912 100.943 252.865 102.251 252.776 103.572C252.763 103.738 252.689 103.894 252.567 104.007C252.445 104.12 252.285 104.184 252.118 104.185ZM251.869 94.2683C251.709 94.2676 251.554 94.2088 251.434 94.1029C251.313 93.9969 251.235 93.851 251.214 93.692C250.995 92.0323 250.677 90.4227 250.268 88.91C250.222 88.7407 250.245 88.5602 250.333 88.4079C250.42 88.2557 250.564 88.1443 250.733 88.098C250.817 88.0755 250.904 88.0698 250.991 88.0812C251.077 88.0926 251.16 88.1208 251.235 88.1643C251.31 88.2078 251.376 88.2657 251.429 88.3347C251.482 88.4037 251.521 88.4824 251.543 88.5663C251.966 90.1373 252.295 91.8023 252.522 93.5203C252.534 93.6135 252.526 93.7081 252.499 93.798C252.472 93.8879 252.426 93.9711 252.364 94.0418C252.303 94.1126 252.227 94.1694 252.141 94.2084C252.056 94.2475 251.963 94.2679 251.869 94.2683ZM249.251 84.726C248.999 84.726 248.758 84.5793 248.648 84.3353C247.97 82.831 247.171 81.4153 246.27 80.1297C246.169 79.986 246.129 79.8082 246.159 79.6352C246.189 79.4622 246.287 79.3082 246.43 79.207C246.501 79.1569 246.581 79.1214 246.666 79.1024C246.751 79.0833 246.838 79.0812 246.924 79.0962C247.01 79.1111 247.091 79.1427 247.165 79.1893C247.238 79.2359 247.301 79.2965 247.351 79.3677C248.299 80.7197 249.14 82.2077 249.853 83.7897C249.926 83.9498 249.931 84.132 249.869 84.2962C249.807 84.4604 249.682 84.5932 249.522 84.6653C249.437 84.7053 249.345 84.726 249.251 84.726ZM227.555 83.956C227.387 83.9557 227.225 83.8914 227.103 83.776C226.981 83.6607 226.907 83.5031 226.897 83.3353C226.892 83.2485 226.903 83.1614 226.931 83.079C226.959 82.9966 227.004 82.9205 227.061 82.8552C227.119 82.7898 227.188 82.7365 227.267 82.6981C227.345 82.6598 227.43 82.6372 227.516 82.6317C229.048 82.5373 230.649 82.1827 232.145 81.6063C232.227 81.5752 232.313 81.5604 232.4 81.5627C232.487 81.5651 232.573 81.5846 232.652 81.6201C232.731 81.6556 232.803 81.7065 232.863 81.7697C232.922 81.833 232.969 81.9074 233 81.9887C233.063 82.1528 233.058 82.3353 232.986 82.4959C232.915 82.6565 232.782 82.7821 232.618 82.845C230.998 83.4683 229.261 83.8507 227.596 83.956C227.583 83.953 227.566 83.956 227.555 83.956ZM222.68 83.2853C222.597 83.2853 222.514 83.2687 222.434 83.2383C220.374 82.4043 219.135 80.9443 218.95 79.1267C218.914 78.7637 219.177 78.4367 219.539 78.4007C219.625 78.392 219.713 78.4004 219.796 78.4255C219.879 78.4506 219.957 78.4919 220.024 78.5469C220.091 78.602 220.147 78.6698 220.188 78.7465C220.229 78.8231 220.255 78.9071 220.263 78.9937C220.435 80.667 221.806 81.5593 222.926 82.0137C223.069 82.0703 223.188 82.175 223.261 82.3097C223.335 82.4444 223.36 82.6007 223.33 82.7515C223.301 82.9023 223.22 83.0382 223.102 83.1357C222.983 83.2332 222.834 83.2861 222.68 83.2853ZM236.677 80.4453C236.577 80.4458 236.478 80.4233 236.388 80.3796C236.298 80.3359 236.219 80.2722 236.157 80.1933C236.049 80.0553 235.999 79.88 236.02 79.7056C236.04 79.5312 236.128 79.3718 236.265 79.2623C237.509 78.278 238.585 77.0981 239.451 75.7687C239.498 75.6957 239.559 75.6327 239.631 75.5834C239.702 75.5341 239.783 75.4995 239.868 75.4814C239.953 75.4634 240.041 75.4624 240.126 75.4784C240.212 75.4944 240.293 75.5271 240.366 75.5747C240.513 75.6706 240.616 75.8211 240.653 75.9931C240.689 76.165 240.656 76.3444 240.56 76.4917C239.622 77.938 238.453 79.218 237.087 80.3013C236.971 80.395 236.826 80.4458 236.677 80.4453ZM243.557 76.6773C243.397 76.6773 243.236 76.6193 243.109 76.5027C241.932 75.4134 240.631 74.4668 239.232 73.6823C239.079 73.5969 238.966 73.4541 238.918 73.2853C238.87 73.1166 238.892 72.9357 238.977 72.7825C239.062 72.6293 239.205 72.5163 239.374 72.4684C239.543 72.4205 239.724 72.4416 239.877 72.527C241.348 73.3497 242.736 74.361 244.005 75.5303C244.273 75.777 244.293 76.198 244.044 76.4667C243.981 76.5329 243.906 76.5857 243.822 76.6219C243.738 76.6581 243.648 76.677 243.557 76.6773ZM221.239 75.1533C221.093 75.1533 220.946 75.1063 220.825 75.0067C220.688 74.8964 220.601 74.7367 220.582 74.5623C220.563 74.3879 220.613 74.2129 220.722 74.0757C221.787 72.7513 223.216 71.718 224.972 71.0057C225.053 70.9731 225.139 70.9568 225.226 70.9575C225.313 70.9583 225.399 70.9762 225.478 71.0102C225.558 71.0442 225.631 71.0937 225.691 71.1557C225.752 71.2177 225.8 71.2911 225.832 71.3717C225.865 71.4522 225.882 71.5384 225.881 71.6253C225.88 71.7122 225.862 71.7981 225.828 71.8781C225.795 71.9581 225.745 72.0307 225.683 72.0916C225.621 72.1526 225.548 72.2007 225.467 72.2333C223.924 72.8593 222.674 73.757 221.754 74.904C221.624 75.0677 221.433 75.1533 221.239 75.1533ZM242.011 72.2747C241.953 72.2747 241.895 72.2663 241.837 72.2527C241.753 72.2298 241.674 72.1906 241.606 72.1372C241.537 72.0838 241.479 72.0174 241.436 71.9417C241.393 71.8661 241.365 71.7826 241.354 71.6962C241.343 71.6097 241.35 71.522 241.373 71.438C241.774 69.9667 241.989 68.371 242.011 66.6973C242.014 66.5235 242.085 66.3576 242.208 66.2354C242.332 66.1131 242.499 66.0443 242.672 66.0437H242.68C242.767 66.0448 242.853 66.063 242.933 66.0974C243.013 66.1317 243.085 66.1814 243.146 66.2436C243.206 66.3059 243.254 66.3794 243.286 66.4602C243.318 66.5409 243.334 66.6271 243.333 66.714C243.308 68.501 243.079 70.208 242.647 71.787C242.61 71.9267 242.527 72.0501 242.412 72.1382C242.297 72.2263 242.156 72.2743 242.011 72.2747ZM234.968 71.9063C234.913 71.9063 234.855 71.898 234.8 71.884C233.218 71.4683 231.623 71.2773 230.077 71.319C229.902 71.3232 229.732 71.2576 229.605 71.1365C229.478 71.0154 229.404 70.8488 229.399 70.6733C229.397 70.5864 229.412 70.4999 229.443 70.4186C229.474 70.3374 229.521 70.2631 229.581 70.2001C229.64 70.137 229.712 70.0864 229.792 70.0511C229.871 70.0159 229.957 69.9967 230.044 69.9947C231.714 69.9503 233.437 70.1553 235.137 70.604C235.307 70.649 235.452 70.7593 235.541 70.9109C235.629 71.0625 235.654 71.243 235.61 71.413C235.572 71.5542 235.489 71.6791 235.373 71.7682C235.257 71.8573 235.115 71.9059 234.968 71.9063ZM242.252 62.4223C242.097 62.422 241.946 62.3668 241.827 62.2665C241.708 62.1661 241.629 62.027 241.602 61.8737C241.337 60.361 240.938 58.7677 240.419 57.144C240.366 56.9766 240.381 56.7948 240.461 56.6385C240.541 56.4822 240.68 56.3641 240.847 56.31C241.015 56.2569 241.196 56.2723 241.352 56.3529C241.508 56.4334 241.626 56.5725 241.679 56.7397C242.219 58.4213 242.631 60.07 242.904 61.6437C242.921 61.739 242.917 61.8369 242.892 61.9305C242.867 62.024 242.822 62.111 242.76 62.1852C242.698 62.2595 242.62 62.3192 242.532 62.3601C242.445 62.4011 242.349 62.4223 242.252 62.4223ZM239.285 52.966C239.157 52.9658 239.031 52.9283 238.923 52.8579C238.816 52.7875 238.731 52.6874 238.679 52.5697C238.022 51.0688 237.305 49.5946 236.531 48.1507C236.449 47.9955 236.431 47.8142 236.482 47.6461C236.532 47.478 236.647 47.3368 236.802 47.253C236.957 47.1705 237.138 47.1528 237.306 47.2036C237.474 47.2545 237.615 47.3698 237.698 47.5243C238.513 49.0567 239.252 50.572 239.89 52.0377C239.961 52.1986 239.965 52.3808 239.901 52.5445C239.837 52.7082 239.711 52.8399 239.55 52.9107C239.467 52.9465 239.376 52.9653 239.285 52.966ZM234.551 44.2523C234.444 44.2523 234.338 44.2263 234.244 44.1765C234.149 44.1268 234.067 44.0548 234.006 43.9667C233.078 42.6323 232.064 41.3589 230.973 40.1543C230.855 40.0243 230.793 39.8526 230.801 39.677C230.809 39.5014 230.887 39.3363 231.017 39.218C231.081 39.1594 231.156 39.1139 231.238 39.0844C231.32 39.0549 231.407 39.0418 231.494 39.0459C231.581 39.05 231.666 39.0713 231.744 39.1084C231.823 39.1456 231.893 39.1979 231.952 39.2623C233.083 40.509 234.139 41.839 235.093 43.2103C235.162 43.3097 235.202 43.426 235.21 43.5465C235.217 43.6671 235.192 43.7874 235.136 43.8946C235.08 44.0018 234.996 44.0917 234.893 44.1547C234.79 44.2178 234.672 44.2515 234.551 44.2523ZM227.914 36.9153C227.762 36.9153 227.608 36.8627 227.483 36.7547C226.247 35.6932 224.953 34.7016 223.606 33.7847C223.535 33.7358 223.473 33.6732 223.425 33.6005C223.378 33.5277 223.345 33.4463 223.328 33.3608C223.312 33.2754 223.313 33.1876 223.331 33.1024C223.349 33.0173 223.383 32.9365 223.432 32.8647C223.481 32.7927 223.543 32.731 223.616 32.6832C223.688 32.6354 223.77 32.6025 223.855 32.5862C223.94 32.57 224.028 32.5709 224.113 32.5888C224.198 32.6066 224.279 32.6412 224.35 32.6903C225.739 33.6349 227.073 34.657 228.346 35.7517C228.622 35.99 228.656 36.4083 228.415 36.6857C228.285 36.838 228.1 36.9153 227.914 36.9153ZM117.902 31.7343C117.769 31.7343 117.639 31.694 117.529 31.6189C117.419 31.5438 117.334 31.4373 117.286 31.3133C117.222 31.1499 117.226 30.9679 117.295 30.8071C117.365 30.6462 117.496 30.5194 117.659 30.4543C118.995 29.9307 120.587 29.382 122.399 28.8223C122.566 28.7708 122.747 28.788 122.902 28.8701C123.057 28.9521 123.174 29.0924 123.225 29.26C123.277 29.4278 123.26 29.6093 123.178 29.7646C123.096 29.9199 122.956 30.0365 122.788 30.0887C121.01 30.64 119.445 31.1773 118.143 31.69C118.066 31.7196 117.984 31.7346 117.902 31.7343ZM219.738 31.3213C219.633 31.3213 219.522 31.2967 219.423 31.241C217.986 30.4628 216.515 29.7482 215.015 29.0993C214.935 29.0649 214.863 29.015 214.803 28.9526C214.742 28.8901 214.695 28.8164 214.663 28.7356C214.631 28.6547 214.616 28.5684 214.617 28.4815C214.619 28.3947 214.637 28.309 214.672 28.2293C214.706 28.1496 214.756 28.0773 214.818 28.0168C214.88 27.9563 214.954 27.9088 215.035 27.8768C215.116 27.8449 215.202 27.8293 215.289 27.8309C215.375 27.8324 215.461 27.8512 215.54 27.886C217.075 28.5513 218.581 29.2824 220.053 30.0773C220.182 30.1479 220.284 30.2592 220.343 30.3939C220.401 30.5286 220.414 30.6789 220.377 30.8214C220.341 30.9638 220.259 31.0902 220.143 31.1807C220.028 31.2712 219.885 31.3207 219.738 31.3213ZM127.367 28.753C127.074 28.753 126.806 28.5563 126.729 28.26C126.706 28.176 126.7 28.0884 126.712 28.0022C126.723 27.9159 126.752 27.8328 126.795 27.7576C126.839 27.6824 126.897 27.6166 126.966 27.564C127.036 27.5114 127.115 27.473 127.199 27.451C128.804 27.0253 130.417 26.6253 132.035 26.251C132.12 26.2314 132.208 26.2288 132.293 26.2431C132.379 26.2574 132.461 26.2885 132.535 26.3346C132.608 26.3807 132.672 26.4408 132.723 26.5115C132.773 26.5823 132.809 26.6623 132.829 26.747C132.849 26.8317 132.852 26.9195 132.837 27.0054C132.823 27.0913 132.792 27.1735 132.746 27.2474C132.7 27.3212 132.64 27.3853 132.569 27.4359C132.499 27.4866 132.419 27.5227 132.334 27.5423C130.729 27.915 129.129 28.3122 127.536 28.7337C127.481 28.747 127.424 28.7535 127.367 28.753ZM210.654 27.3593C210.582 27.3593 210.51 27.3483 210.439 27.3233C208.889 26.7901 207.322 26.3077 205.741 25.877C205.572 25.8308 205.428 25.7194 205.341 25.5672C205.254 25.4151 205.23 25.2346 205.276 25.0653C205.299 24.9816 205.338 24.9031 205.391 24.8344C205.444 24.7656 205.51 24.708 205.585 24.6648C205.66 24.6216 205.743 24.5936 205.829 24.5825C205.915 24.5714 206.003 24.5773 206.086 24.6C207.697 25.0375 209.292 25.5281 210.87 26.071C211.018 26.1225 211.142 26.2245 211.222 26.3591C211.302 26.4936 211.331 26.6519 211.305 26.8061C211.28 26.9603 211.2 27.1004 211.081 27.2016C210.962 27.3028 210.811 27.3587 210.654 27.3593ZM137.032 26.4977C136.88 26.4975 136.732 26.4447 136.614 26.3483C136.496 26.252 136.415 26.1179 136.385 25.9687C136.35 25.7969 136.384 25.6182 136.481 25.4718C136.577 25.3253 136.728 25.223 136.899 25.1873C138.525 24.8536 140.154 24.5404 141.788 24.248C141.961 24.2175 142.138 24.2566 142.282 24.3568C142.426 24.457 142.525 24.6101 142.557 24.7827C142.587 24.9555 142.549 25.1336 142.449 25.2779C142.349 25.4222 142.195 25.5211 142.023 25.553C140.394 25.8467 138.76 26.1597 137.165 26.4867C137.121 26.4945 137.076 26.4981 137.032 26.4977ZM146.798 24.744C146.64 24.7441 146.487 24.6873 146.368 24.584C146.248 24.4807 146.169 24.3378 146.146 24.1813C146.119 24.0077 146.162 23.8306 146.266 23.6888C146.37 23.547 146.525 23.4521 146.699 23.425C148.336 23.1703 149.992 22.932 151.626 22.7187C151.712 22.7069 151.8 22.7124 151.884 22.7347C151.968 22.7571 152.047 22.796 152.116 22.8491C152.185 22.9022 152.243 22.9684 152.286 23.044C152.329 23.1196 152.357 23.203 152.367 23.2893C152.39 23.4634 152.343 23.6394 152.236 23.7786C152.13 23.9179 151.972 24.009 151.798 24.032C150.174 24.2453 148.526 24.4807 146.9 24.733C146.867 24.7405 146.833 24.7442 146.798 24.744ZM201.092 24.741C201.048 24.741 201.001 24.7357 200.957 24.7273C199.35 24.3905 197.734 24.0929 196.112 23.835C195.944 23.8027 195.794 23.7059 195.695 23.5651C195.596 23.4244 195.556 23.2507 195.583 23.0807C195.61 22.9108 195.702 22.7581 195.839 22.6548C195.977 22.5515 196.149 22.5058 196.32 22.5273C197.99 22.7907 199.643 23.0953 201.231 23.4307C201.402 23.4671 201.553 23.5701 201.648 23.717C201.744 23.864 201.778 24.0429 201.742 24.2147C201.71 24.3632 201.628 24.4962 201.51 24.5918C201.392 24.6875 201.244 24.7401 201.092 24.741ZM156.637 23.4527C156.473 23.4521 156.316 23.3914 156.195 23.2821C156.073 23.1727 155.996 23.0224 155.979 22.86C155.96 22.6857 156.011 22.5111 156.121 22.3744C156.231 22.2378 156.391 22.1504 156.565 22.1313C158.215 21.9542 159.866 21.7981 161.52 21.663C161.695 21.6487 161.869 21.7047 162.003 21.8185C162.137 21.9323 162.221 22.0947 162.235 22.27C162.249 22.4453 162.193 22.619 162.079 22.7531C161.966 22.8871 161.803 22.9704 161.628 22.9847C160.005 23.1177 158.348 23.2753 156.706 23.45C156.684 23.45 156.659 23.4527 156.637 23.4527ZM191.295 23.1813C191.27 23.1813 191.246 23.1813 191.221 23.1783C189.625 22.9983 187.972 22.8487 186.307 22.7297C186.22 22.7236 186.136 22.7003 186.058 22.6613C185.98 22.6223 185.911 22.5682 185.854 22.5023C185.797 22.4363 185.754 22.3598 185.727 22.2771C185.7 22.1944 185.689 22.1071 185.696 22.0203C185.702 21.9335 185.725 21.8487 185.764 21.7709C185.803 21.693 185.857 21.6236 185.922 21.5667C185.988 21.5097 186.065 21.4664 186.147 21.4392C186.23 21.4119 186.317 21.4013 186.404 21.408C188.085 21.53 189.755 21.6823 191.37 21.8623C191.539 21.8802 191.695 21.9623 191.805 22.0917C191.915 22.2211 191.971 22.3878 191.961 22.5574C191.951 22.727 191.877 22.8864 191.753 23.0025C191.629 23.1187 191.465 23.1827 191.295 23.1813ZM166.522 22.6437C166.349 22.6443 166.183 22.5774 166.059 22.4572C165.935 22.337 165.862 22.1731 165.857 22.0004C165.852 21.8276 165.915 21.6597 166.032 21.5325C166.149 21.4053 166.311 21.3288 166.484 21.3193C168.151 21.228 169.824 21.156 171.458 21.1117C171.633 21.1088 171.803 21.1747 171.93 21.2954C172.057 21.4161 172.132 21.5818 172.138 21.757C172.144 21.9325 172.079 22.1029 171.959 22.2307C171.838 22.3586 171.672 22.4334 171.497 22.4387C169.876 22.483 168.215 22.5523 166.558 22.6467C166.547 22.6437 166.536 22.6437 166.522 22.6437ZM181.402 22.4663H181.377C179.731 22.4078 178.085 22.3773 176.438 22.375C176.262 22.3742 176.094 22.3038 175.97 22.1791C175.846 22.0544 175.777 21.8857 175.777 21.71C175.777 21.3443 176.073 21.0507 176.438 21.0507H176.441C178.12 21.0533 179.795 21.0867 181.424 21.1447C181.511 21.1478 181.596 21.1679 181.675 21.204C181.754 21.2402 181.825 21.2915 181.884 21.3551C181.943 21.4187 181.989 21.4933 182.019 21.5747C182.049 21.6561 182.063 21.7426 182.06 21.8293C182.054 22.0001 181.982 22.1618 181.859 22.2806C181.737 22.3994 181.573 22.466 181.402 22.4663Z" fill="#E1E4E5"/>
<path d="M117.096 27.0097C117.096 15.5991 107.846 6.349 96.4351 6.349C85.0245 6.349 75.7744 15.5991 75.7744 27.0097C75.7744 38.4202 85.0245 47.6703 96.4351 47.6703C107.846 47.6703 117.096 38.4202 117.096 27.0097Z" fill="#05A155"/>
<path d="M103.226 23.3979L94.1958 32.3556L88.7778 26.9809" stroke="white" stroke-width="3.429" stroke-linecap="round" stroke-linejoin="round"/>
<path d="M66.0053 84.0027C66.0053 76.2692 59.7361 70 52.0027 70C44.2692 70 38 76.2692 38 84.0027C38 91.7361 44.2692 98.0053 52.0027 98.0053C59.7361 98.0053 66.0053 91.7361 66.0053 84.0027Z" fill="#05A155"/>
<g clip-path="url(#clip1_1051_1147)">
<path d="M54.4141 83.8999C54.4141 84.4005 54.2656 84.8899 53.9875 85.3062C53.7093 85.7224 53.314 86.0469 52.8515 86.2384C52.389 86.43 51.88 86.4802 51.389 86.3825C50.898 86.2848 50.447 86.0437 50.0929 85.6897C49.7389 85.3357 49.4979 84.8847 49.4002 84.3937C49.3025 83.9027 49.3527 83.3937 49.5442 82.9312C49.7358 82.4687 50.0603 82.0734 50.4765 81.7952C50.8928 81.5171 51.3822 81.3686 51.8828 81.3686C52.5541 81.3686 53.198 81.6353 53.6727 82.11C54.1474 82.5847 54.4141 83.2285 54.4141 83.8999ZM59.4766 79.8499V87.9499C59.4766 88.0841 59.4232 88.2129 59.3283 88.3079C59.2333 88.4028 59.1046 88.4561 58.9703 88.4561H44.7953C44.661 88.4561 44.5323 88.4028 44.4373 88.3079C44.3424 88.2129 44.2891 88.0841 44.2891 87.9499V79.8499C44.2891 79.7156 44.3424 79.5868 44.4373 79.4919C44.5323 79.397 44.661 79.3436 44.7953 79.3436H58.9703C59.1046 79.3436 59.2333 79.397 59.3283 79.4919C59.4232 79.5868 59.4766 79.7156 59.4766 79.8499ZM58.4641 82.783C57.8892 82.613 57.366 82.3019 56.9422 81.878C56.5183 81.4542 56.2072 80.931 56.0372 80.3561H47.7284C47.5584 80.931 47.2473 81.4542 46.8235 81.878C46.3996 82.3019 45.8764 82.613 45.3016 82.783V85.0168C45.8764 85.1868 46.3996 85.4979 46.8235 85.9217C47.2473 86.3456 47.5584 86.8688 47.7284 87.4436H56.0372C56.2072 86.8688 56.5183 86.3456 56.9422 85.9217C57.366 85.4979 57.8892 85.1868 58.4641 85.0168V82.783Z" fill="white"/>
</g>
<path d="M241.005 33.336C241.005 25.6026 234.736 19.3334 227.003 19.3334C219.269 19.3334 213 25.6026 213 33.336C213 41.0695 219.269 47.3387 227.003 47.3387C234.736 47.3387 241.005 41.0695 241.005 33.336Z" fill="#05A155"/>
<g clip-path="url(#clip2_1051_1147)">
<path d="M233.785 32.4611L232.972 30.4286C232.903 30.2565 232.784 30.1092 232.63 30.0056C232.477 29.9021 232.295 29.8471 232.11 29.8479H230.102V29.3833C230.102 29.2601 230.053 29.1419 229.966 29.0548C229.878 28.9676 229.76 28.9187 229.637 28.9187H220.81C220.564 28.9187 220.327 29.0166 220.153 29.1908C219.979 29.3651 219.881 29.6014 219.881 29.8479V36.352C219.881 36.5985 219.979 36.8348 220.153 37.0091C220.327 37.1833 220.564 37.2812 220.81 37.2812H221.797C221.9 37.6809 222.132 38.0352 222.458 38.2883C222.784 38.5413 223.185 38.6786 223.598 38.6786C224.01 38.6786 224.411 38.5413 224.737 38.2883C225.063 38.0352 225.295 37.6809 225.398 37.2812H228.301C228.404 37.6809 228.636 38.0352 228.962 38.2883C229.288 38.5413 229.689 38.6786 230.102 38.6786C230.514 38.6786 230.915 38.5413 231.241 38.2883C231.567 38.0352 231.8 37.6809 231.902 37.2812H232.889C233.136 37.2812 233.372 37.1833 233.546 37.0091C233.72 36.8348 233.818 36.5985 233.818 36.352V32.6354C233.818 32.5757 233.807 32.5166 233.785 32.4611ZM223.598 37.7458C223.414 37.7458 223.234 37.6913 223.081 37.5892C222.929 37.4871 222.809 37.342 222.739 37.1722C222.669 37.0024 222.65 36.8156 222.686 36.6353C222.722 36.4551 222.811 36.2895 222.941 36.1596C223.07 36.0297 223.236 35.9412 223.416 35.9053C223.596 35.8695 223.783 35.8879 223.953 35.9582C224.123 36.0285 224.268 36.1476 224.37 36.3004C224.472 36.4532 224.527 36.6328 224.527 36.8166C224.527 37.063 224.429 37.2994 224.255 37.4736C224.08 37.6479 223.844 37.7458 223.598 37.7458ZM220.81 33.5645V29.8479H229.173V33.5645H220.81ZM230.102 37.7458C229.918 37.7458 229.738 37.6913 229.585 37.5892C229.433 37.4871 229.314 37.342 229.243 37.1722C229.173 37.0024 229.155 36.8156 229.19 36.6353C229.226 36.4551 229.315 36.2895 229.445 36.1596C229.575 36.0297 229.74 35.9412 229.92 35.9053C230.101 35.8695 230.287 35.8879 230.457 35.9582C230.627 36.0285 230.772 36.1476 230.874 36.3004C230.976 36.4532 231.031 36.6328 231.031 36.8166C231.031 37.063 230.933 37.2994 230.759 37.4736C230.584 37.6479 230.348 37.7458 230.102 37.7458ZM230.102 32.1708V30.777H232.11L232.667 32.1708H230.102Z" fill="white"/>
</g>
<path fill-rule="evenodd" clip-rule="evenodd" d="M203.963 137.168C203.963 125.294 194.337 115.668 182.463 115.668H163.996C152.122 115.668 142.497 125.294 142.497 137.168C142.497 149.042 152.122 158.668 163.996 158.668H170.174L179.262 165.971C180.219 166.74 181.64 166.059 181.64 164.831V158.668H182.463C194.337 158.668 203.963 149.042 203.963 137.168Z" fill="#05A155"/>
<path d="M180.167 126.333H176.39C175.921 125.809 175.348 125.39 174.706 125.103C174.065 124.815 173.37 124.667 172.667 124.667C171.964 124.667 171.269 124.815 170.627 125.103C169.986 125.39 169.412 125.809 168.944 126.333H165.167C164.725 126.333 164.301 126.509 163.988 126.822C163.676 127.134 163.5 127.558 163.5 128V145.5C163.5 145.942 163.676 146.366 163.988 146.679C164.301 146.991 164.725 147.167 165.167 147.167H180.167C180.609 147.167 181.033 146.991 181.345 146.679C181.658 146.366 181.833 145.942 181.833 145.5V128C181.833 127.558 181.658 127.134 181.345 126.822C181.033 126.509 180.609 126.333 180.167 126.333ZM172.667 126.333C173.551 126.333 174.399 126.685 175.024 127.31C175.649 127.935 176 128.783 176 129.667H169.333C169.333 128.783 169.685 127.935 170.31 127.31C170.935 126.685 171.783 126.333 172.667 126.333ZM176 139.667H169.333C169.112 139.667 168.9 139.579 168.744 139.423C168.588 139.266 168.5 139.054 168.5 138.833C168.5 138.612 168.588 138.4 168.744 138.244C168.9 138.088 169.112 138 169.333 138H176C176.221 138 176.433 138.088 176.589 138.244C176.746 138.4 176.833 138.612 176.833 138.833C176.833 139.054 176.746 139.266 176.589 139.423C176.433 139.579 176.221 139.667 176 139.667ZM176 136.333H169.333C169.112 136.333 168.9 136.246 168.744 136.089C168.588 135.933 168.5 135.721 168.5 135.5C168.5 135.279 168.588 135.067 168.744 134.911C168.9 134.755 169.112 134.667 169.333 134.667H176C176.221 134.667 176.433 134.755 176.589 134.911C176.746 135.067 176.833 135.279 176.833 135.5C176.833 135.721 176.746 135.933 176.589 136.089C176.433 136.246 176.221 136.333 176 136.333Z" fill="white"/>
<path d="M170.425 93.8746C170.019 104.178 148.019 123.142 124.04 113.107C112.887 108.44 114.42 102.575 106.42 93.9043C101.652 88.7366 94.5022 84.496 93.0595 77.4996C91.8132 71.4606 93.5078 65.2546 97.0098 61.443C104.886 52.8716 119.63 47.88 132.207 63.731C144.785 79.5823 171.47 67.3003 170.425 93.8746Z" fill="url(#paint3_linear_1051_1147)"/>
<path d="M158.248 92.2264C157.421 92.2264 156.751 92.8968 156.751 93.7236C156.751 94.5504 157.421 95.2207 158.248 95.2207C159.075 95.2207 159.745 94.5504 159.745 93.7236C159.745 92.8968 159.075 92.2264 158.248 92.2264Z" fill="#7DC27D"/>
<path d="M163.202 72.5098C162.026 72.5098 161.073 73.4631 161.073 74.6392C161.073 75.8149 162.026 76.7684 163.202 76.7684C164.378 76.7684 165.331 75.8149 165.331 74.6392C165.331 73.4631 164.378 72.5098 163.202 72.5098Z" fill="#7DC27D"/>
<path d="M107.426 78.4153C106.746 78.4153 106.194 78.967 106.194 79.6478C106.194 80.3282 106.746 80.88 107.426 80.88C108.107 80.88 108.659 80.3282 108.659 79.6478C108.659 78.967 108.107 78.4153 107.426 78.4153Z" fill="#7DC27D"/>
<path d="M117.969 105.033C117.194 105.033 116.565 104.405 116.565 103.63C116.565 102.855 117.194 102.226 117.969 102.226C118.744 102.226 119.373 102.855 119.373 103.63C119.373 104.405 118.744 105.033 117.969 105.033Z" fill="#7DC27D"/>
<path d="M124.364 84.9914C124.003 84.9914 123.709 84.6981 123.709 84.3363C123.709 83.9744 124.003 83.6814 124.364 83.6814C124.726 83.6814 125.019 83.9744 125.019 84.3363C125.019 84.6981 124.726 84.9914 124.364 84.9914Z" fill="#7DC27D"/>
<path fill-rule="evenodd" clip-rule="evenodd" d="M151.75 85.453V95.2319C151.75 96.1326 151.505 97.0164 151.042 97.7887C150.578 98.5613 149.914 99.1931 149.119 99.6171L136.448 106.382C135.728 106.766 134.925 106.967 134.11 106.967C133.294 106.967 132.492 106.766 131.772 106.382L119.101 99.6171C118.306 99.1931 117.642 98.5613 117.178 97.789C116.715 97.0164 116.47 96.1326 116.47 95.2319V85.453" fill="white"/>
<path d="M151.75 85.453V95.2319C151.75 96.1326 151.505 97.0164 151.042 97.7887C150.578 98.5613 149.914 99.1931 149.119 99.6171L136.448 106.382C135.728 106.766 134.925 106.967 134.11 106.967C133.294 106.967 132.492 106.766 131.772 106.382L119.101 99.6171C118.306 99.1931 117.642 98.5613 117.178 97.789C116.715 97.0164 116.47 96.1326 116.47 95.2319V85.453" stroke="#E1E4E5" stroke-width="0.449501"/>
<path fill-rule="evenodd" clip-rule="evenodd" d="M126.999 62.7994L156.955 78.2604C157.357 78.4683 157.696 78.7821 157.933 79.1684C158.17 79.5547 158.297 79.9983 158.3 80.4515C158.303 80.9046 158.182 81.3499 157.95 81.7393C157.718 82.1287 157.384 82.4473 156.984 82.6605L145.804 88.6231C145.095 89.0018 144.304 89.2024 143.5 89.2081C142.696 89.2137 141.903 89.024 141.188 88.6554L111.24 73.1895C110.837 72.9817 110.499 72.6677 110.262 72.2815C110.025 71.8954 109.898 71.4517 109.895 70.9986C109.892 70.5455 110.013 70.1001 110.245 69.7107C110.477 69.3214 110.81 69.0028 111.21 68.7896L122.39 62.8267C123.099 62.4503 123.889 62.2512 124.692 62.2464C125.494 62.2417 126.286 62.4314 126.999 62.7994Z" fill="white" stroke="#E1E4E5" stroke-width="0.449501"/>
<path d="M141.196 62.7994L111.24 78.2604C110.837 78.4683 110.499 78.7821 110.262 79.1684C110.025 79.5547 109.898 79.9983 109.895 80.4515C109.892 80.9046 110.013 81.3499 110.245 81.7393C110.477 82.1287 110.81 82.4473 111.21 82.6605L122.39 88.6231C123.1 89.0018 123.891 89.2024 124.695 89.2081C125.499 89.2137 126.292 89.024 127.007 88.6554L156.955 73.1895C157.357 72.9817 157.696 72.6677 157.933 72.2815C158.17 71.8954 158.297 71.4517 158.3 70.9986C158.303 70.5455 158.182 70.1001 157.95 69.7107C157.718 69.3214 157.384 69.0028 156.985 68.7896L145.804 62.8267C145.096 62.4503 144.306 62.2512 143.503 62.2464C142.701 62.2417 141.909 62.4314 141.196 62.7994Z" stroke="#E1E4E5" stroke-width="0.449501"/>
<path d="M134.098 106.966V84.9886" stroke="#E1E4E5" stroke-width="0.449501"/>
<path fill-rule="evenodd" clip-rule="evenodd" d="M122.45 68.0433V62.1471C122.45 61.1725 122.706 60.2149 123.191 59.37C123.677 58.5251 124.376 57.8223 125.218 57.3319L130.79 54.0893C131.641 53.5942 132.608 53.3334 133.593 53.3334C134.577 53.3334 135.544 53.5942 136.395 54.0893L141.967 57.332C142.81 57.8221 143.509 58.5248 143.995 59.3697C144.481 60.2147 144.737 61.1724 144.737 62.1471V68.0433C144.737 69.0179 144.481 69.9754 143.995 70.8203C143.509 71.6652 142.81 72.368 141.968 72.8584L136.396 76.1011C135.545 76.5964 134.578 76.8571 133.594 76.8571C132.609 76.8571 131.642 76.5964 130.791 76.1011L125.219 72.8584C124.377 72.3683 123.678 71.6656 123.192 70.8207C122.706 69.9757 122.45 69.018 122.45 68.0433Z" fill="#D13A19"/>
<path d="M133.593 65.0952V59.5236M133.592 69.4289C133.551 69.4288 133.511 69.4368 133.474 69.4523C133.436 69.4679 133.402 69.4907 133.373 69.5195C133.345 69.5482 133.322 69.5824 133.306 69.62C133.291 69.6575 133.283 69.6978 133.284 69.7384C133.286 69.8187 133.32 69.8949 133.378 69.9507C133.435 70.0066 133.513 70.0378 133.593 70.0378C133.673 70.0378 133.751 70.0066 133.808 69.9507C133.866 69.8949 133.9 69.8187 133.903 69.7384C133.903 69.6976 133.894 69.6573 133.879 69.6197C133.863 69.5821 133.84 69.548 133.811 69.5192C133.783 69.4905 133.748 69.4677 133.711 69.4522C133.673 69.4367 133.633 69.4288 133.592 69.4289Z" stroke="white" stroke-width="1.75171" stroke-linecap="round" stroke-linejoin="round"/>
</g>
<defs>
<linearGradient id="paint0_linear_1051_1147" x1="162.51" y1="55.2427" x2="155.01" y2="21.5433" gradientUnits="userSpaceOnUse">
<stop stop-color="white"/>
<stop offset="1" stop-color="#EEEEEE"/>
</linearGradient>
<linearGradient id="paint1_linear_1051_1147" x1="242.328" y1="80.6107" x2="291.765" y2="41.5057" gradientUnits="userSpaceOnUse">
<stop stop-color="white"/>
<stop offset="1" stop-color="#EEEEEE"/>
</linearGradient>
<linearGradient id="paint2_linear_1051_1147" x1="105.504" y1="139.036" x2="71.4946" y2="107.437" gradientUnits="userSpaceOnUse">
<stop stop-color="white"/>
<stop offset="1" stop-color="#EEEEEE"/>
</linearGradient>
<linearGradient id="paint3_linear_1051_1147" x1="140.701" y1="153.075" x2="119.09" y2="-19.5897" gradientUnits="userSpaceOnUse">
<stop stop-color="white"/>
<stop offset="1" stop-color="#EEEEEE"/>
</linearGradient>
<clipPath id="clip0_1051_1147">
<rect width="273" height="169" fill="white"/>
</clipPath>
<clipPath id="clip1_1051_1147">
<rect width="16.2" height="16.2" fill="white" transform="translate(43.7832 75.7999)"/>
</clipPath>
<clipPath id="clip2_1051_1147">
<rect width="14.8667" height="14.8667" fill="white" transform="translate(219.417 25.6666)"/>
</clipPath>
</defs>
</svg>
