<svg width="360" height="240" viewBox="0 0 360 240" fill="none" xmlns="http://www.w3.org/2000/svg">
<g clip-path="url(#clip0_280_636)">
<path d="M268.112 162.84C265.169 162.84 262.784 165.226 262.784 168.169C262.784 171.112 265.169 173.498 268.112 173.498C271.055 173.498 273.441 171.112 273.441 168.169C273.441 165.226 271.055 162.84 268.112 162.84Z" fill="#7DC27D"/>
<path d="M285.745 92.6584C281.559 92.6584 278.166 96.0517 278.166 100.238C278.166 104.423 281.559 107.817 285.745 107.817C289.931 107.817 293.324 104.423 293.324 100.238C293.324 96.0517 289.931 92.6584 285.745 92.6584Z" fill="#7DC27D"/>
<path d="M87.2121 113.679C84.7893 113.679 82.8253 115.643 82.8253 118.066C82.8253 120.488 84.7893 122.452 87.2121 122.452C89.6348 122.452 91.5989 120.488 91.5989 118.066C91.5989 115.643 89.6348 113.679 87.2121 113.679Z" fill="#7DC27D"/>
<path d="M124.739 208.426C121.98 208.426 119.743 206.19 119.743 203.43C119.743 200.671 121.98 198.434 124.739 198.434C127.498 198.434 129.735 200.671 129.735 203.43C129.735 206.19 127.498 208.426 124.739 208.426Z" fill="#7DC27D"/>
<path d="M147.502 137.087C146.215 137.087 145.171 136.043 145.171 134.755C145.171 133.467 146.215 132.424 147.502 132.424C148.79 132.424 149.834 133.467 149.834 134.755C149.834 136.043 148.79 137.087 147.502 137.087Z" fill="#7DC27D"/>
<path d="M241.386 208.192C239.73 208.192 238.388 206.85 238.388 205.194C238.388 203.538 239.73 202.196 241.386 202.196C243.041 202.196 244.383 203.538 244.383 205.194C244.383 206.85 243.041 208.192 241.386 208.192Z" fill="#E1E4E5"/>
<path d="M78.3196 162.513C75.9284 162.513 73.99 160.575 73.99 158.184C73.99 155.792 75.9284 153.854 78.3196 153.854C80.7107 153.854 82.6492 155.792 82.6492 158.184C82.6492 160.575 80.7107 162.513 78.3196 162.513Z" fill="#E1E4E5"/>
<path d="M293.476 161.426C291.656 161.426 290.18 159.951 290.18 158.131C290.18 156.311 291.656 154.836 293.476 154.836C295.295 154.836 296.771 156.311 296.771 158.131C296.771 159.951 295.295 161.426 293.476 161.426Z" fill="#E1E4E5"/>
<path d="M271.735 67.7792C269.711 67.7792 268.071 66.1389 268.071 64.1156C268.071 62.0922 269.711 60.452 271.735 60.452C273.758 60.452 275.398 62.0922 275.398 64.1156C275.398 66.1389 273.758 67.7792 271.735 67.7792Z" fill="#E1E4E5"/>
<path d="M70.8072 95.2594C71.2774 97.0145 70.2359 98.8185 68.4808 99.2888C66.7257 99.7591 64.9216 98.7175 64.4514 96.9624C63.9811 95.2073 65.0226 93.4033 66.7777 92.933C68.5329 92.4627 70.3369 93.5043 70.8072 95.2594Z" fill="#E1E4E5"/>
<path d="M121.51 53.3424C119.093 53.3424 117.133 51.3828 117.133 48.9656C117.133 46.5484 119.093 44.5888 121.51 44.5888C123.927 44.5888 125.887 46.5484 125.887 48.9656C125.887 51.3828 123.927 53.3424 121.51 53.3424Z" fill="#E1E4E5"/>
<path d="M243.145 36.628C243.145 39.391 240.906 41.6308 238.143 41.6308C235.38 41.6308 233.14 39.391 233.14 36.628C233.14 33.865 235.38 31.6252 238.143 31.6252C240.906 31.6252 243.145 33.865 243.145 36.628Z" fill="#E1E4E5"/>
<path d="M86.1573 72.3916H86.2053C86.4893 76.4152 89.4821 76.4772 89.4821 76.4772C89.4821 76.4772 86.1821 76.5416 86.1821 81.1912C86.1821 76.5416 82.8821 76.4772 82.8821 76.4772C82.8821 76.4772 85.8733 76.4152 86.1573 72.3916ZM89.5945 180.202H89.6405C89.9129 184.214 92.7861 184.276 92.7861 184.276C92.7861 184.276 89.6181 184.34 89.6181 188.976C89.6181 184.34 86.4497 184.276 86.4497 184.276C86.4497 184.276 89.3217 184.214 89.5945 180.202Z" fill="#E1E4E5"/>
<path fill-rule="evenodd" clip-rule="evenodd" d="M244.981 138.73V173.538C244.981 176.744 244.11 179.89 242.46 182.639C240.811 185.389 238.445 187.638 235.616 189.147L190.514 213.228C187.952 214.594 185.094 215.308 182.192 215.308C179.289 215.308 176.431 214.594 173.87 213.228L128.768 189.147C125.939 187.638 123.573 185.389 121.923 182.64C120.274 179.89 119.403 176.744 119.403 173.538V138.73" fill="white"/>
<path d="M244.981 138.73V173.538C244.981 176.744 244.11 179.89 242.46 182.639C240.811 185.389 238.445 187.638 235.616 189.147L190.514 213.228C187.952 214.594 185.094 215.308 182.192 215.308C179.289 215.308 176.431 214.594 173.87 213.228L128.768 189.147C125.939 187.638 123.573 185.389 121.923 182.64C120.274 179.89 119.403 176.744 119.403 173.538V138.73" stroke="#E1E4E5" stroke-width="1.6"/>
<path fill-rule="evenodd" clip-rule="evenodd" d="M156.882 58.0944L263.509 113.128C264.942 113.868 266.146 114.985 266.99 116.36C267.834 117.735 268.286 119.314 268.297 120.927C268.308 122.54 267.877 124.125 267.052 125.511C266.227 126.897 265.038 128.031 263.615 128.79L223.819 150.014C221.294 151.362 218.479 152.076 215.617 152.096C212.755 152.116 209.931 151.441 207.388 150.129L100.788 95.078C99.3542 94.3383 98.1505 93.2206 97.3066 91.8461C96.4628 90.4715 96.0109 88.8923 96 87.2794C95.989 85.6665 96.4194 84.0813 97.2445 82.6953C98.0696 81.3094 99.258 80.1755 100.681 79.4164L140.477 58.1916C143 56.8518 145.811 56.1431 148.668 56.1261C151.524 56.1092 154.343 56.7846 156.882 58.0944Z" fill="white" stroke="#E1E4E5" stroke-width="1.6"/>
<path d="M216.638 136.02C214.779 136.02 213.272 134.814 213.272 133.327C213.272 131.839 214.779 130.634 216.638 130.634C218.498 130.634 220.005 131.839 220.005 133.327C220.005 134.814 218.498 136.02 216.638 136.02Z" fill="#E1E4E5"/>
<path d="M207.414 58.0944L100.788 113.128C99.3542 113.868 98.1504 114.985 97.3065 116.36C96.4626 117.735 96.0107 119.314 95.9997 120.927C95.9888 122.54 96.4192 124.125 97.2443 125.511C98.0695 126.897 99.258 128.031 100.681 128.79L140.477 150.014C143.002 151.362 145.817 152.076 148.679 152.096C151.541 152.116 154.365 151.441 156.909 150.129L263.509 95.078C264.942 94.3383 266.146 93.2206 266.99 91.8461C267.834 90.4715 268.285 88.8923 268.296 87.2794C268.307 85.6665 267.877 84.0813 267.052 82.6953C266.227 81.3094 265.038 80.1755 263.615 79.4164L223.819 58.1916C221.296 56.8518 218.486 56.1431 215.629 56.1261C212.772 56.1092 209.953 56.7846 207.414 58.0944Z" stroke="#E1E4E5" stroke-width="1.6"/>
<path d="M182.149 215.307V137.077" stroke="#E1E4E5" stroke-width="1.6"/>
<path d="M96.5117 188.616H104.612M87.3301 184.295H104.612M97.0517 193.206H104.612M263.517 188.616H255.416M272.698 184.295H255.416M262.977 193.206H255.416" stroke="#E1E4E5" stroke-width="1.6184" stroke-linecap="round" stroke-linejoin="round"/>
<path fill-rule="evenodd" clip-rule="evenodd" d="M140.687 76.76V55.7728C140.688 52.3036 141.598 48.8951 143.327 45.8876C145.056 42.88 147.544 40.3785 150.542 38.6328L170.374 27.0908C173.404 25.3286 176.846 24.4002 180.35 24.4002C183.855 24.4002 187.296 25.3286 190.326 27.0908L210.158 38.6332C213.158 40.3779 215.646 42.879 217.376 45.8866C219.106 48.8942 220.017 52.3031 220.017 55.7728V76.76C220.017 80.2291 219.107 83.6375 217.378 86.645C215.648 89.6525 213.161 92.1539 210.163 93.8996L190.33 105.442C187.301 107.205 183.859 108.133 180.354 108.133C176.85 108.133 173.408 107.205 170.379 105.442L150.546 93.8996C147.547 92.1549 145.058 89.6538 143.328 86.6462C141.598 83.6386 140.687 80.2297 140.687 76.76Z" fill="#D13A19"/>
<path d="M180.353 66.2664V46.434M180.348 81.692C180.204 81.6918 180.06 81.7202 179.927 81.7755C179.793 81.8308 179.672 81.912 179.57 82.0144C179.468 82.1168 179.387 82.2384 179.332 82.3721C179.278 82.5058 179.25 82.6491 179.251 82.7936C179.26 83.0795 179.38 83.3506 179.586 83.5495C179.791 83.7484 180.066 83.8596 180.352 83.8596C180.638 83.8596 180.913 83.7484 181.119 83.5495C181.324 83.3506 181.445 83.0795 181.454 82.7936C181.454 82.6486 181.425 82.5051 181.369 82.3713C181.314 82.2374 181.232 82.1159 181.129 82.0136C181.027 81.9113 180.905 81.8302 180.771 81.775C180.637 81.7198 180.493 81.6916 180.348 81.692Z" stroke="white" stroke-width="6.2352" stroke-linecap="round" stroke-linejoin="round"/>
</g>
<defs>
<clipPath id="clip0_280_636">
<rect width="360" height="240" fill="white"/>
</clipPath>
</defs>
</svg>
