<svg width="64" height="64" viewBox="0 0 64 64" fill="none" xmlns="http://www.w3.org/2000/svg">
<path d="M60.8278 34L36.0003 9.17252C35.6302 8.79947 35.1896 8.5037 34.7042 8.30242C34.2188 8.10113 33.6982 7.99834 33.1728 8.00002H10.0003C9.46983 8.00002 8.96112 8.21073 8.58605 8.58581C8.21098 8.96088 8.00026 9.46959 8.00026 10V33.1725C7.99859 33.698 8.10138 34.2186 8.30266 34.704C8.50395 35.1894 8.79971 35.6299 9.17276 36L34.0003 60.8275C34.3717 61.199 34.8127 61.4938 35.2981 61.6948C35.7834 61.8959 36.3036 61.9994 36.829 61.9994C37.3544 61.9994 37.8746 61.8959 38.36 61.6948C38.8453 61.4938 39.2863 61.199 39.6578 60.8275L60.8278 39.6575C61.1993 39.2861 61.494 38.8451 61.6951 38.3597C61.8962 37.8744 61.9997 37.3541 61.9997 36.8288C61.9997 36.3034 61.8962 35.7832 61.6951 35.2978C61.494 34.8125 61.1993 34.3715 60.8278 34ZM36.8278 58L12.0003 33.1725V12H33.1728L58.0003 36.8275L36.8278 58ZM24.0003 21C24.0003 21.5934 23.8243 22.1734 23.4947 22.6667C23.165 23.1601 22.6965 23.5446 22.1483 23.7717C21.6001 23.9987 20.9969 24.0581 20.415 23.9424C19.833 23.8266 19.2985 23.5409 18.8789 23.1213C18.4594 22.7018 18.1737 22.1672 18.0579 21.5853C17.9422 21.0033 18.0016 20.4001 18.2286 19.852C18.4557 19.3038 18.8402 18.8353 19.3336 18.5056C19.8269 18.176 20.4069 18 21.0003 18C21.7959 18 22.559 18.3161 23.1216 18.8787C23.6842 19.4413 24.0003 20.2044 24.0003 21Z" fill="#A8EBA8"/>
</svg>
