<svg width="20" height="20" viewBox="0 0 20 20" fill="none" xmlns="http://www.w3.org/2000/svg">
<g id="Outline" clip-path="url(#clip0_495_6161)">
<path id="Vector" d="M18.7361 15.1479C15.7704 15.1479 12.8594 16.3645 10.7499 18.4856C10.6114 18.6247 10.6122 18.8496 10.7512 18.9878C10.8205 19.0567 10.9109 19.091 11.0016 19.091C11.0928 19.091 11.1839 19.0562 11.2534 18.9865C13.2307 16.9984 15.958 15.8581 18.7361 15.8581C18.9322 15.8581 19.0912 15.6992 19.0912 15.503C19.0912 15.307 18.9322 15.1479 18.7361 15.1479Z" fill="#35353D"/>
<path id="Vector_2" d="M11.3301 14.8185C11.2203 14.6559 10.9995 14.6132 10.8371 14.723C9.31854 15.7488 8.03615 17.0321 7.02519 18.5375C6.91588 18.7003 6.95916 18.921 7.122 19.0303C7.1829 19.0711 7.25157 19.0907 7.31968 19.0907C7.43398 19.0907 7.54634 19.0355 7.61487 18.9335C8.5745 17.5043 9.79227 16.2857 11.2346 15.3115C11.3971 15.2018 11.4398 14.981 11.3301 14.8185Z" fill="#35353D"/>
<path id="Vector_3" d="M18.7355 12.29C17.1479 12.29 15.5765 12.5613 14.065 13.0961C13.8801 13.1615 13.7833 13.3644 13.8488 13.5493C13.9003 13.6951 14.0373 13.7861 14.1835 13.7861C14.2228 13.7861 14.2628 13.7795 14.302 13.7656C15.7371 13.2578 17.2288 13.0003 18.7355 13.0003C18.9317 13.0003 19.0906 12.8413 19.0906 12.6452C19.0906 12.449 18.9317 12.29 18.7355 12.29Z" fill="#35353D"/>
<path id="Vector_4" d="M5.99715 16.6546C8.33341 13.6086 11.7153 11.4936 15.4471 10.7009L15.449 10.7005C16.5215 10.4729 17.6224 10.3543 18.7359 10.3543C18.9319 10.3543 19.091 10.1951 19.091 9.99913C19.091 9.80303 18.9319 9.64403 18.7359 9.64403C17.7262 9.64403 16.7204 9.7364 15.7315 9.91722V9.15067C17.0151 8.06406 17.7196 6.64028 17.7196 5.12412C17.7196 3.55648 16.9665 2.08761 15.5989 0.988005C15.469 0.883555 15.2838 0.883555 15.1538 0.988005C13.7864 2.08761 13.0331 3.55648 13.0331 5.12412C13.0331 6.64028 13.7378 8.06406 15.0212 9.15067V10.0624C14.3464 10.2159 13.6815 10.4117 13.0304 10.6474V8.56816C13.0304 8.47051 12.9909 8.38214 12.9272 8.31792L10.9385 6.31735C10.8718 6.25035 10.7812 6.21262 10.6866 6.21262H6.62651C6.53204 6.21262 6.44132 6.25035 6.37473 6.31735L4.3861 8.31778C4.32229 8.38201 4.28276 8.47051 4.28276 8.5683V9.9244C4.03529 9.87903 3.78671 9.83903 3.53702 9.80494V8.53903C4.50762 7.7041 5.04015 6.61517 5.04015 5.45509C5.04015 4.24312 4.45921 3.10871 3.40441 2.26045C3.27443 2.156 3.08938 2.156 2.95941 2.26045C1.90461 3.10856 1.32366 4.24312 1.32366 5.45509C1.32366 6.61503 1.8562 7.70396 2.82679 8.53889V9.72322C2.30896 9.67485 1.78767 9.64985 1.26429 9.64985C1.06815 9.64985 0.90918 9.80885 0.90918 10.0049C0.90918 10.2011 1.06815 10.3601 1.26429 10.3601C4.10382 10.3601 6.88119 11.1114 9.32963 12.5367C8.74303 12.9354 8.18276 13.3708 7.65232 13.8395C5.66853 12.8289 3.46433 12.2955 1.26429 12.2955C1.06829 12.2955 0.90918 12.4544 0.90918 12.6506C0.90918 12.8468 1.06829 13.0057 1.26429 13.0057C3.26611 13.0057 5.27194 13.4712 7.09426 14.3553C6.55437 14.8775 6.04972 15.4363 5.58405 16.0269C4.20272 15.4477 2.75092 15.1541 1.26429 15.1541C1.06829 15.1541 0.90918 15.3131 0.90918 15.5092C0.90918 15.7054 1.06829 15.8644 1.26429 15.8644C2.59597 15.8644 3.89796 16.1169 5.14169 16.6139C4.8963 16.9549 4.66312 17.3052 4.44381 17.6648L3.90268 18.5513C3.80044 18.7186 3.85343 18.9372 4.02072 19.0393C4.07857 19.0747 4.14238 19.0915 4.20549 19.0915C4.32507 19.0915 4.44201 19.0309 4.50886 18.9212L5.05 18.0347C5.33214 17.5724 5.63704 17.1275 5.96205 16.7004C5.97482 16.6862 5.98675 16.6711 5.99715 16.6546ZM13.7435 5.12412C13.7435 3.86193 14.321 2.66633 15.3765 1.72945C16.4319 2.66633 17.0095 3.86193 17.0095 5.12412C17.0095 6.23634 16.5605 7.29711 15.7315 8.17448V5.45509C15.7315 5.25894 15.5726 5.09998 15.3765 5.09998C15.1803 5.09998 15.0214 5.25894 15.0214 5.45509V8.17448C14.1923 7.29711 13.7435 6.23634 13.7435 5.12412ZM2.03389 5.45509C2.03389 4.54927 2.43936 3.68895 3.18191 3.00536C3.92445 3.68882 4.32992 4.54927 4.32992 5.45509C4.32992 6.20374 4.05262 6.92146 3.53702 7.53403V5.171C3.53702 4.97485 3.37805 4.81589 3.18191 4.81589C2.9859 4.81589 2.82679 4.97485 2.82679 5.171V7.53403C2.31119 6.92146 2.03389 6.20374 2.03389 5.45509ZM11.8215 8.21304H8.76288L7.48031 6.92284H10.539L11.8215 8.21304ZM6.62651 7.07142L7.76148 8.21304H5.49167L6.62651 7.07142ZM4.99299 8.92327H8.26002V11.1816C8.09537 11.1059 7.92974 11.0326 7.76287 10.9623V9.76958C7.76287 9.57358 7.6039 9.41449 7.40775 9.41449H5.84526C5.64925 9.41449 5.49014 9.57358 5.49014 9.76958V10.1919C5.32507 10.1489 5.15944 10.108 4.99299 10.07V8.92327ZM7.05264 10.682C6.77105 10.5783 6.48696 10.482 6.20037 10.3937V10.1247H7.05264V10.682ZM8.97025 11.529V8.92327H12.3203V10.923C11.712 11.175 11.1175 11.4628 10.5414 11.7862C10.3572 11.8896 10.1752 11.9969 9.99527 12.1071C9.65954 11.902 9.31772 11.7092 8.97025 11.529Z" fill="#35353D"/>
<path id="Vector_5" d="M15.3767 4.46023C15.47 4.46023 15.5617 4.42222 15.6277 4.35605C15.6938 4.29002 15.7318 4.19847 15.7318 4.10511C15.7318 4.01162 15.6938 3.92006 15.6277 3.85404C15.5617 3.78787 15.47 3.75 15.3767 3.75C15.2833 3.75 15.1916 3.78787 15.1257 3.85404C15.0595 3.92006 15.0215 4.01162 15.0215 4.10511C15.0215 4.19847 15.0595 4.29002 15.1257 4.35605C15.1916 4.42208 15.2833 4.46023 15.3767 4.46023Z" fill="#35353D"/>
<path id="Vector_6" d="M12.2935 13.881C12.2276 13.947 12.1895 14.0386 12.1895 14.1319C12.1895 14.2258 12.2275 14.317 12.2935 14.383C12.3596 14.4492 12.4512 14.487 12.5445 14.487C12.6381 14.487 12.7296 14.4492 12.7956 14.383C12.8616 14.317 12.8997 14.2258 12.8997 14.1319C12.8997 14.0386 12.8616 13.947 12.7956 13.881C12.7296 13.8149 12.6381 13.7769 12.5445 13.7769C12.4512 13.7769 12.3596 13.8149 12.2935 13.881Z" fill="#35353D"/>
<g id="Mask group">
<mask id="mask0_495_6161" style="mask-type:luminance" maskUnits="userSpaceOnUse" x="0" y="0" width="21" height="21">
<g id="Group">
<path id="Vector_7" d="M20.001 0.00146484H0.000976562V20.0015H20.001V0.00146484Z" fill="white"/>
<path id="Vector_8" d="M18.7361 15.1494C15.7704 15.1494 12.8594 16.366 10.7499 18.4871C10.6114 18.6261 10.6122 18.8511 10.7512 18.9892C10.8205 19.0581 10.9109 19.0925 11.0016 19.0925C11.0928 19.0925 11.1839 19.0577 11.2534 18.988C13.2307 16.9999 15.958 15.8596 18.7361 15.8596C18.9322 15.8596 19.0912 15.7007 19.0912 15.5045C19.0912 15.3085 18.9322 15.1494 18.7361 15.1494Z" fill="black"/>
<path id="Vector_9" d="M11.3301 14.8199C11.2203 14.6574 10.9995 14.6147 10.8371 14.7245C9.31854 15.7502 8.03615 17.0336 7.02519 18.5389C6.91588 18.7018 6.95916 18.9225 7.122 19.0318C7.1829 19.0726 7.25157 19.0921 7.31968 19.0921C7.43398 19.0921 7.54634 19.0369 7.61487 18.9349C8.5745 17.5058 9.79227 16.2871 11.2346 15.3129C11.3971 15.2032 11.4398 14.9825 11.3301 14.8199Z" fill="black"/>
<path id="Vector_10" d="M18.7363 12.29C17.1487 12.29 15.5773 12.5613 14.0659 13.0961C13.881 13.1615 13.7842 13.3644 13.8496 13.5493C13.9012 13.6951 14.0382 13.7861 14.1843 13.7861C14.2236 13.7861 14.2636 13.7795 14.3029 13.7656C15.738 13.2578 17.2296 13.0003 18.7363 13.0003C18.9325 13.0003 19.0914 12.8413 19.0914 12.6452C19.0914 12.449 18.9325 12.29 18.7363 12.29Z" fill="black"/>
<path id="Vector_11" d="M5.99807 16.6562C8.33432 13.6102 11.7162 11.4952 15.448 10.7025L15.4499 10.7021C16.5224 10.4744 17.6233 10.3559 18.7368 10.3559C18.9328 10.3559 19.0919 10.1967 19.0919 10.0007C19.0919 9.80462 18.9328 9.64562 18.7368 9.64562C17.7271 9.64562 16.7213 9.73799 15.7325 9.9188V9.15226C17.016 8.06565 17.7205 6.64187 17.7205 5.1257C17.7205 3.55807 16.9675 2.0892 15.5998 0.989592C15.4699 0.885142 15.2847 0.885142 15.1547 0.989592C13.7873 2.0892 13.034 3.55807 13.034 5.1257C13.034 6.64187 13.7387 8.06565 15.0221 9.15226V10.064C14.3474 10.2175 13.6824 10.4133 13.0313 10.649V8.56975C13.0313 8.47209 12.9918 8.38373 12.9281 8.3195L10.9395 6.31894C10.8727 6.25194 10.7821 6.2142 10.6875 6.2142H6.62742C6.53296 6.2142 6.44224 6.25194 6.37565 6.31894L4.38701 8.31937C4.3232 8.38359 4.28368 8.47209 4.28368 8.56988V9.92598C4.0362 9.88062 3.78762 9.84062 3.53793 9.80653V8.54061C4.50853 7.70568 5.04107 6.61676 5.04107 5.45668C5.04107 4.24471 4.46012 3.11029 3.40532 2.26204C3.27535 2.15758 3.0903 2.15758 2.96032 2.26204C1.90552 3.11015 1.32458 4.24471 1.32458 5.45668C1.32458 6.61662 1.85711 7.70555 2.8277 8.54048V9.7248C2.30988 9.67644 1.78859 9.65144 1.2652 9.65144C1.06907 9.65144 0.910095 9.81044 0.910095 10.0065C0.910095 10.2027 1.06907 10.3617 1.2652 10.3617C4.10473 10.3617 6.8821 11.113 9.33055 12.5383C8.74395 12.937 8.18368 13.3723 7.65323 13.8411C5.66945 12.8304 3.46525 12.2971 1.2652 12.2971C1.0692 12.2971 0.910095 12.456 0.910095 12.6522C0.910095 12.8483 1.0692 13.0073 1.2652 13.0073C3.26702 13.0073 5.27286 13.4728 7.09518 14.3569C6.55529 14.8791 6.05064 15.4379 5.58497 16.0285C4.20363 15.4493 2.75183 15.1557 1.2652 15.1557C1.0692 15.1557 0.910095 15.3147 0.910095 15.5108C0.910095 15.707 1.0692 15.866 1.2652 15.866C2.59689 15.866 3.89888 16.1184 5.1426 16.6155C4.89721 16.9565 4.66403 17.3068 4.44472 17.6664L3.90359 18.5529C3.80136 18.7202 3.85435 18.9388 4.02164 19.0409C4.07949 19.0763 4.14329 19.0931 4.2064 19.0931C4.32599 19.0931 4.44292 19.0324 4.50978 18.9228L5.05091 18.0363C5.33306 17.574 5.63796 17.1291 5.96297 16.702C5.97573 16.6878 5.98767 16.6727 5.99807 16.6562ZM13.7444 5.1257C13.7444 3.86352 14.3219 2.66792 15.3774 1.73104C16.4328 2.66792 17.0104 3.86352 17.0104 5.1257C17.0104 6.23793 16.5615 7.29869 15.7325 8.17607V5.45668C15.7325 5.26053 15.5735 5.10157 15.3774 5.10157C15.1812 5.10157 15.0223 5.26053 15.0223 5.45668V8.17607C14.1932 7.29869 13.7444 6.23793 13.7444 5.1257ZM2.0348 5.45668C2.0348 4.55086 2.44028 3.69054 3.18282 3.00695C3.92537 3.6904 4.33084 4.55086 4.33084 5.45668C4.33084 6.20533 4.05354 6.92305 3.53793 7.53562V5.17258C3.53793 4.97644 3.37897 4.81748 3.18282 4.81748C2.98681 4.81748 2.8277 4.97644 2.8277 5.17258V7.53562C2.3121 6.92305 2.0348 6.20533 2.0348 5.45668ZM11.8225 8.21463H8.76379L7.48122 6.92443H10.5399L11.8225 8.21463ZM6.62742 7.073L7.76239 8.21463H5.49259L6.62742 7.073ZM4.9939 8.92486H8.26094V11.1832C8.09629 11.1074 7.93066 11.0342 7.76378 10.9639V9.77117C7.76378 9.57517 7.60481 9.41608 7.40867 9.41608H5.84618C5.65017 9.41608 5.49106 9.57517 5.49106 9.77117V10.1934C5.32599 10.1504 5.16036 10.1096 4.9939 10.0716V8.92486ZM7.05356 10.6836C6.77197 10.5799 6.48788 10.4836 6.20129 10.3953V10.1263H7.05356V10.6836ZM8.97117 11.5306V8.92486H12.3212V10.9246C11.7129 11.1766 11.1185 11.4643 10.5423 11.7878C10.3581 11.8912 10.1761 11.9985 9.99619 12.1087C9.66046 11.9036 9.31864 11.7108 8.97117 11.5306Z" fill="black"/>
<path id="Vector_12" d="M15.3767 4.46169C15.47 4.46169 15.5617 4.42368 15.6277 4.35752C15.6938 4.29148 15.7318 4.19994 15.7318 4.10657C15.7318 4.01308 15.6938 3.92153 15.6277 3.8555C15.5617 3.78934 15.47 3.75146 15.3767 3.75146C15.2833 3.75146 15.1916 3.78934 15.1257 3.8555C15.0595 3.92153 15.0215 4.01308 15.0215 4.10657C15.0215 4.19994 15.0595 4.29148 15.1257 4.35752C15.1916 4.42355 15.2833 4.46169 15.3767 4.46169Z" fill="black"/>
<path id="Vector_13" d="M12.2935 13.8805C12.2276 13.9465 12.1895 14.0381 12.1895 14.1315C12.1895 14.2253 12.2275 14.3165 12.2935 14.3825C12.3596 14.4487 12.4512 14.4865 12.5445 14.4865C12.6381 14.4865 12.7296 14.4487 12.7956 14.3825C12.8616 14.3165 12.8997 14.2253 12.8997 14.1315C12.8997 14.0381 12.8616 13.9465 12.7956 13.8805C12.7296 13.8144 12.6381 13.7764 12.5445 13.7764C12.4512 13.7764 12.3596 13.8144 12.2935 13.8805Z" fill="black"/>
</g>
</mask>
<g mask="url(#mask0_495_6161)">
<path id="Vector_14" d="M18.7361 15.1484C15.7704 15.1484 12.8594 16.365 10.7499 18.4861C10.6114 18.6252 10.6122 18.8501 10.7512 18.9883C10.8205 19.0572 10.9109 19.0915 11.0016 19.0915C11.0928 19.0915 11.1839 19.0567 11.2534 18.987C13.2307 16.9989 15.958 15.8586 18.7361 15.8586C18.9322 15.8586 19.0912 15.6997 19.0912 15.5035C19.0912 15.3075 18.9322 15.1484 18.7361 15.1484Z" stroke="#35353D" stroke-width="0.181818"/>
</g>
</g>
<g id="Mask group_2">
<mask id="mask1_495_6161" style="mask-type:luminance" maskUnits="userSpaceOnUse" x="0" y="0" width="21" height="21">
<g id="Group_2">
<path id="Vector_15" d="M20.001 0.00146484H0.000976562V20.0015H20.001V0.00146484Z" fill="white"/>
<path id="Vector_16" d="M18.7361 15.1494C15.7704 15.1494 12.8594 16.366 10.7499 18.4871C10.6114 18.6261 10.6122 18.8511 10.7512 18.9892C10.8205 19.0581 10.9109 19.0925 11.0016 19.0925C11.0928 19.0925 11.1839 19.0577 11.2534 18.988C13.2307 16.9999 15.958 15.8596 18.7361 15.8596C18.9322 15.8596 19.0912 15.7007 19.0912 15.5045C19.0912 15.3085 18.9322 15.1494 18.7361 15.1494Z" fill="black"/>
<path id="Vector_17" d="M11.3301 14.8199C11.2203 14.6574 10.9995 14.6147 10.8371 14.7245C9.31854 15.7502 8.03615 17.0336 7.02519 18.5389C6.91588 18.7018 6.95916 18.9225 7.122 19.0318C7.1829 19.0726 7.25157 19.0921 7.31968 19.0921C7.43398 19.0921 7.54634 19.0369 7.61487 18.9349C8.5745 17.5058 9.79227 16.2871 11.2346 15.3129C11.3971 15.2032 11.4398 14.9825 11.3301 14.8199Z" fill="black"/>
<path id="Vector_18" d="M18.7363 12.29C17.1487 12.29 15.5773 12.5613 14.0659 13.0961C13.881 13.1615 13.7842 13.3644 13.8496 13.5493C13.9012 13.6951 14.0382 13.7861 14.1843 13.7861C14.2236 13.7861 14.2636 13.7795 14.3029 13.7656C15.738 13.2578 17.2296 13.0003 18.7363 13.0003C18.9325 13.0003 19.0914 12.8413 19.0914 12.6452C19.0914 12.449 18.9325 12.29 18.7363 12.29Z" fill="black"/>
<path id="Vector_19" d="M5.99807 16.6562C8.33432 13.6102 11.7162 11.4952 15.448 10.7025L15.4499 10.7021C16.5224 10.4744 17.6233 10.3559 18.7368 10.3559C18.9328 10.3559 19.0919 10.1967 19.0919 10.0007C19.0919 9.80462 18.9328 9.64562 18.7368 9.64562C17.7271 9.64562 16.7213 9.73799 15.7325 9.9188V9.15226C17.016 8.06565 17.7205 6.64187 17.7205 5.1257C17.7205 3.55807 16.9675 2.0892 15.5998 0.989592C15.4699 0.885142 15.2847 0.885142 15.1547 0.989592C13.7873 2.0892 13.034 3.55807 13.034 5.1257C13.034 6.64187 13.7387 8.06565 15.0221 9.15226V10.064C14.3474 10.2175 13.6824 10.4133 13.0313 10.649V8.56975C13.0313 8.47209 12.9918 8.38373 12.9281 8.3195L10.9395 6.31894C10.8727 6.25194 10.7821 6.2142 10.6875 6.2142H6.62742C6.53296 6.2142 6.44224 6.25194 6.37565 6.31894L4.38701 8.31937C4.3232 8.38359 4.28368 8.47209 4.28368 8.56988V9.92598C4.0362 9.88062 3.78762 9.84062 3.53793 9.80653V8.54061C4.50853 7.70568 5.04107 6.61676 5.04107 5.45668C5.04107 4.24471 4.46012 3.11029 3.40532 2.26204C3.27535 2.15758 3.0903 2.15758 2.96032 2.26204C1.90552 3.11015 1.32458 4.24471 1.32458 5.45668C1.32458 6.61662 1.85711 7.70555 2.8277 8.54048V9.7248C2.30988 9.67644 1.78859 9.65144 1.2652 9.65144C1.06907 9.65144 0.910095 9.81044 0.910095 10.0065C0.910095 10.2027 1.06907 10.3617 1.2652 10.3617C4.10473 10.3617 6.8821 11.113 9.33055 12.5383C8.74395 12.937 8.18368 13.3723 7.65323 13.8411C5.66945 12.8304 3.46525 12.2971 1.2652 12.2971C1.0692 12.2971 0.910095 12.456 0.910095 12.6522C0.910095 12.8483 1.0692 13.0073 1.2652 13.0073C3.26702 13.0073 5.27286 13.4728 7.09518 14.3569C6.55529 14.8791 6.05064 15.4379 5.58497 16.0285C4.20363 15.4493 2.75183 15.1557 1.2652 15.1557C1.0692 15.1557 0.910095 15.3147 0.910095 15.5108C0.910095 15.707 1.0692 15.866 1.2652 15.866C2.59689 15.866 3.89888 16.1184 5.1426 16.6155C4.89721 16.9565 4.66403 17.3068 4.44472 17.6664L3.90359 18.5529C3.80136 18.7202 3.85435 18.9388 4.02164 19.0409C4.07949 19.0763 4.14329 19.0931 4.2064 19.0931C4.32599 19.0931 4.44292 19.0324 4.50978 18.9228L5.05091 18.0363C5.33306 17.574 5.63796 17.1291 5.96297 16.702C5.97573 16.6878 5.98767 16.6727 5.99807 16.6562ZM13.7444 5.1257C13.7444 3.86352 14.3219 2.66792 15.3774 1.73104C16.4328 2.66792 17.0104 3.86352 17.0104 5.1257C17.0104 6.23793 16.5615 7.29869 15.7325 8.17607V5.45668C15.7325 5.26053 15.5735 5.10157 15.3774 5.10157C15.1812 5.10157 15.0223 5.26053 15.0223 5.45668V8.17607C14.1932 7.29869 13.7444 6.23793 13.7444 5.1257ZM2.0348 5.45668C2.0348 4.55086 2.44028 3.69054 3.18282 3.00695C3.92537 3.6904 4.33084 4.55086 4.33084 5.45668C4.33084 6.20533 4.05354 6.92305 3.53793 7.53562V5.17258C3.53793 4.97644 3.37897 4.81748 3.18282 4.81748C2.98681 4.81748 2.8277 4.97644 2.8277 5.17258V7.53562C2.3121 6.92305 2.0348 6.20533 2.0348 5.45668ZM11.8225 8.21463H8.76379L7.48122 6.92443H10.5399L11.8225 8.21463ZM6.62742 7.073L7.76239 8.21463H5.49259L6.62742 7.073ZM4.9939 8.92486H8.26094V11.1832C8.09629 11.1074 7.93066 11.0342 7.76378 10.9639V9.77117C7.76378 9.57517 7.60481 9.41608 7.40867 9.41608H5.84618C5.65017 9.41608 5.49106 9.57517 5.49106 9.77117V10.1934C5.32599 10.1504 5.16036 10.1096 4.9939 10.0716V8.92486ZM7.05356 10.6836C6.77197 10.5799 6.48788 10.4836 6.20129 10.3953V10.1263H7.05356V10.6836ZM8.97117 11.5306V8.92486H12.3212V10.9246C11.7129 11.1766 11.1185 11.4643 10.5423 11.7878C10.3581 11.8912 10.1761 11.9985 9.99619 12.1087C9.66046 11.9036 9.31864 11.7108 8.97117 11.5306Z" fill="black"/>
<path id="Vector_20" d="M15.3767 4.46169C15.47 4.46169 15.5617 4.42368 15.6277 4.35752C15.6938 4.29148 15.7318 4.19994 15.7318 4.10657C15.7318 4.01308 15.6938 3.92153 15.6277 3.8555C15.5617 3.78934 15.47 3.75146 15.3767 3.75146C15.2833 3.75146 15.1916 3.78934 15.1257 3.8555C15.0595 3.92153 15.0215 4.01308 15.0215 4.10657C15.0215 4.19994 15.0595 4.29148 15.1257 4.35752C15.1916 4.42355 15.2833 4.46169 15.3767 4.46169Z" fill="black"/>
<path id="Vector_21" d="M12.2935 13.8805C12.2276 13.9465 12.1895 14.0381 12.1895 14.1315C12.1895 14.2253 12.2275 14.3165 12.2935 14.3825C12.3596 14.4487 12.4512 14.4865 12.5445 14.4865C12.6381 14.4865 12.7296 14.4487 12.7956 14.3825C12.8616 14.3165 12.8997 14.2253 12.8997 14.1315C12.8997 14.0381 12.8616 13.9465 12.7956 13.8805C12.7296 13.8144 12.6381 13.7764 12.5445 13.7764C12.4512 13.7764 12.3596 13.8144 12.2935 13.8805Z" fill="black"/>
</g>
</mask>
<g mask="url(#mask1_495_6161)">
<path id="Vector_22" d="M11.3301 14.8185C11.2203 14.6559 10.9995 14.6132 10.8371 14.723C9.31854 15.7488 8.03615 17.0321 7.02519 18.5375C6.91588 18.7003 6.95916 18.921 7.122 19.0303C7.1829 19.0711 7.25157 19.0907 7.31968 19.0907C7.43398 19.0907 7.54634 19.0355 7.61487 18.9335C8.5745 17.5043 9.79227 16.2857 11.2346 15.3115C11.3971 15.2018 11.4398 14.981 11.3301 14.8185Z" stroke="#35353D" stroke-width="0.181818"/>
</g>
</g>
<g id="Mask group_3">
<mask id="mask2_495_6161" style="mask-type:luminance" maskUnits="userSpaceOnUse" x="0" y="0" width="21" height="21">
<g id="Group_3">
<path id="Vector_23" d="M20.001 0.00146484H0.000976562V20.0015H20.001V0.00146484Z" fill="white"/>
<path id="Vector_24" d="M18.7361 15.1494C15.7704 15.1494 12.8594 16.366 10.7499 18.4871C10.6114 18.6261 10.6122 18.8511 10.7512 18.9892C10.8205 19.0581 10.9109 19.0925 11.0016 19.0925C11.0928 19.0925 11.1839 19.0577 11.2534 18.988C13.2307 16.9999 15.958 15.8596 18.7361 15.8596C18.9322 15.8596 19.0912 15.7007 19.0912 15.5045C19.0912 15.3085 18.9322 15.1494 18.7361 15.1494Z" fill="black"/>
<path id="Vector_25" d="M11.3301 14.8199C11.2203 14.6574 10.9995 14.6147 10.8371 14.7245C9.31854 15.7502 8.03615 17.0336 7.02519 18.5389C6.91588 18.7018 6.95916 18.9225 7.122 19.0318C7.1829 19.0726 7.25157 19.0921 7.31968 19.0921C7.43398 19.0921 7.54634 19.0369 7.61487 18.9349C8.5745 17.5058 9.79227 16.2871 11.2346 15.3129C11.3971 15.2032 11.4398 14.9825 11.3301 14.8199Z" fill="black"/>
<path id="Vector_26" d="M18.7363 12.29C17.1487 12.29 15.5773 12.5613 14.0659 13.0961C13.881 13.1615 13.7842 13.3644 13.8496 13.5493C13.9012 13.6951 14.0382 13.7861 14.1843 13.7861C14.2236 13.7861 14.2636 13.7795 14.3029 13.7656C15.738 13.2578 17.2296 13.0003 18.7363 13.0003C18.9325 13.0003 19.0914 12.8413 19.0914 12.6452C19.0914 12.449 18.9325 12.29 18.7363 12.29Z" fill="black"/>
<path id="Vector_27" d="M5.99807 16.6562C8.33432 13.6102 11.7162 11.4952 15.448 10.7025L15.4499 10.7021C16.5224 10.4744 17.6233 10.3559 18.7368 10.3559C18.9328 10.3559 19.0919 10.1967 19.0919 10.0007C19.0919 9.80462 18.9328 9.64562 18.7368 9.64562C17.7271 9.64562 16.7213 9.73799 15.7325 9.9188V9.15226C17.016 8.06565 17.7205 6.64187 17.7205 5.1257C17.7205 3.55807 16.9675 2.0892 15.5998 0.989592C15.4699 0.885142 15.2847 0.885142 15.1547 0.989592C13.7873 2.0892 13.034 3.55807 13.034 5.1257C13.034 6.64187 13.7387 8.06565 15.0221 9.15226V10.064C14.3474 10.2175 13.6824 10.4133 13.0313 10.649V8.56975C13.0313 8.47209 12.9918 8.38373 12.9281 8.3195L10.9395 6.31894C10.8727 6.25194 10.7821 6.2142 10.6875 6.2142H6.62742C6.53296 6.2142 6.44224 6.25194 6.37565 6.31894L4.38701 8.31937C4.3232 8.38359 4.28368 8.47209 4.28368 8.56988V9.92598C4.0362 9.88062 3.78762 9.84062 3.53793 9.80653V8.54061C4.50853 7.70568 5.04107 6.61676 5.04107 5.45668C5.04107 4.24471 4.46012 3.11029 3.40532 2.26204C3.27535 2.15758 3.0903 2.15758 2.96032 2.26204C1.90552 3.11015 1.32458 4.24471 1.32458 5.45668C1.32458 6.61662 1.85711 7.70555 2.8277 8.54048V9.7248C2.30988 9.67644 1.78859 9.65144 1.2652 9.65144C1.06907 9.65144 0.910095 9.81044 0.910095 10.0065C0.910095 10.2027 1.06907 10.3617 1.2652 10.3617C4.10473 10.3617 6.8821 11.113 9.33055 12.5383C8.74395 12.937 8.18368 13.3723 7.65323 13.8411C5.66945 12.8304 3.46525 12.2971 1.2652 12.2971C1.0692 12.2971 0.910095 12.456 0.910095 12.6522C0.910095 12.8483 1.0692 13.0073 1.2652 13.0073C3.26702 13.0073 5.27286 13.4728 7.09518 14.3569C6.55529 14.8791 6.05064 15.4379 5.58497 16.0285C4.20363 15.4493 2.75183 15.1557 1.2652 15.1557C1.0692 15.1557 0.910095 15.3147 0.910095 15.5108C0.910095 15.707 1.0692 15.866 1.2652 15.866C2.59689 15.866 3.89888 16.1184 5.1426 16.6155C4.89721 16.9565 4.66403 17.3068 4.44472 17.6664L3.90359 18.5529C3.80136 18.7202 3.85435 18.9388 4.02164 19.0409C4.07949 19.0763 4.14329 19.0931 4.2064 19.0931C4.32599 19.0931 4.44292 19.0324 4.50978 18.9228L5.05091 18.0363C5.33306 17.574 5.63796 17.1291 5.96297 16.702C5.97573 16.6878 5.98767 16.6727 5.99807 16.6562ZM13.7444 5.1257C13.7444 3.86352 14.3219 2.66792 15.3774 1.73104C16.4328 2.66792 17.0104 3.86352 17.0104 5.1257C17.0104 6.23793 16.5615 7.29869 15.7325 8.17607V5.45668C15.7325 5.26053 15.5735 5.10157 15.3774 5.10157C15.1812 5.10157 15.0223 5.26053 15.0223 5.45668V8.17607C14.1932 7.29869 13.7444 6.23793 13.7444 5.1257ZM2.0348 5.45668C2.0348 4.55086 2.44028 3.69054 3.18282 3.00695C3.92537 3.6904 4.33084 4.55086 4.33084 5.45668C4.33084 6.20533 4.05354 6.92305 3.53793 7.53562V5.17258C3.53793 4.97644 3.37897 4.81748 3.18282 4.81748C2.98681 4.81748 2.8277 4.97644 2.8277 5.17258V7.53562C2.3121 6.92305 2.0348 6.20533 2.0348 5.45668ZM11.8225 8.21463H8.76379L7.48122 6.92443H10.5399L11.8225 8.21463ZM6.62742 7.073L7.76239 8.21463H5.49259L6.62742 7.073ZM4.9939 8.92486H8.26094V11.1832C8.09629 11.1074 7.93066 11.0342 7.76378 10.9639V9.77117C7.76378 9.57517 7.60481 9.41608 7.40867 9.41608H5.84618C5.65017 9.41608 5.49106 9.57517 5.49106 9.77117V10.1934C5.32599 10.1504 5.16036 10.1096 4.9939 10.0716V8.92486ZM7.05356 10.6836C6.77197 10.5799 6.48788 10.4836 6.20129 10.3953V10.1263H7.05356V10.6836ZM8.97117 11.5306V8.92486H12.3212V10.9246C11.7129 11.1766 11.1185 11.4643 10.5423 11.7878C10.3581 11.8912 10.1761 11.9985 9.99619 12.1087C9.66046 11.9036 9.31864 11.7108 8.97117 11.5306Z" fill="black"/>
<path id="Vector_28" d="M15.3767 4.46169C15.47 4.46169 15.5617 4.42368 15.6277 4.35752C15.6938 4.29148 15.7318 4.19994 15.7318 4.10657C15.7318 4.01308 15.6938 3.92153 15.6277 3.8555C15.5617 3.78934 15.47 3.75146 15.3767 3.75146C15.2833 3.75146 15.1916 3.78934 15.1257 3.8555C15.0595 3.92153 15.0215 4.01308 15.0215 4.10657C15.0215 4.19994 15.0595 4.29148 15.1257 4.35752C15.1916 4.42355 15.2833 4.46169 15.3767 4.46169Z" fill="black"/>
<path id="Vector_29" d="M12.2935 13.8805C12.2276 13.9465 12.1895 14.0381 12.1895 14.1315C12.1895 14.2253 12.2275 14.3165 12.2935 14.3825C12.3596 14.4487 12.4512 14.4865 12.5445 14.4865C12.6381 14.4865 12.7296 14.4487 12.7956 14.3825C12.8616 14.3165 12.8997 14.2253 12.8997 14.1315C12.8997 14.0381 12.8616 13.9465 12.7956 13.8805C12.7296 13.8144 12.6381 13.7764 12.5445 13.7764C12.4512 13.7764 12.3596 13.8144 12.2935 13.8805Z" fill="black"/>
</g>
</mask>
<g mask="url(#mask2_495_6161)">
<path id="Vector_30" d="M18.7363 12.2896C17.1487 12.2896 15.5773 12.5608 14.0659 13.0956C13.881 13.161 13.7842 13.3639 13.8496 13.5488C13.9012 13.6946 14.0382 13.7856 14.1843 13.7856C14.2236 13.7856 14.2636 13.779 14.3029 13.7651C15.738 13.2573 17.2296 12.9998 18.7363 12.9998C18.9325 12.9998 19.0914 12.8408 19.0914 12.6447C19.0914 12.4486 18.9325 12.2896 18.7363 12.2896Z" stroke="#35353D" stroke-width="0.181818"/>
</g>
</g>
<g id="Mask group_4">
<mask id="mask3_495_6161" style="mask-type:luminance" maskUnits="userSpaceOnUse" x="0" y="0" width="21" height="21">
<g id="Group_4">
<path id="Vector_31" d="M20.001 0.00146484H0.000976562V20.0015H20.001V0.00146484Z" fill="white"/>
<path id="Vector_32" d="M18.7361 15.1494C15.7704 15.1494 12.8594 16.366 10.7499 18.4871C10.6114 18.6261 10.6122 18.8511 10.7512 18.9892C10.8205 19.0581 10.9109 19.0925 11.0016 19.0925C11.0928 19.0925 11.1839 19.0577 11.2534 18.988C13.2307 16.9999 15.958 15.8596 18.7361 15.8596C18.9322 15.8596 19.0912 15.7007 19.0912 15.5045C19.0912 15.3085 18.9322 15.1494 18.7361 15.1494Z" fill="black"/>
<path id="Vector_33" d="M11.3301 14.8199C11.2203 14.6574 10.9995 14.6147 10.8371 14.7245C9.31854 15.7502 8.03615 17.0336 7.02519 18.5389C6.91588 18.7018 6.95916 18.9225 7.122 19.0318C7.1829 19.0726 7.25157 19.0921 7.31968 19.0921C7.43398 19.0921 7.54634 19.0369 7.61487 18.9349C8.5745 17.5058 9.79227 16.2871 11.2346 15.3129C11.3971 15.2032 11.4398 14.9825 11.3301 14.8199Z" fill="black"/>
<path id="Vector_34" d="M18.7363 12.29C17.1487 12.29 15.5773 12.5613 14.0659 13.0961C13.881 13.1615 13.7842 13.3644 13.8496 13.5493C13.9012 13.6951 14.0382 13.7861 14.1843 13.7861C14.2236 13.7861 14.2636 13.7795 14.3029 13.7656C15.738 13.2578 17.2296 13.0003 18.7363 13.0003C18.9325 13.0003 19.0914 12.8413 19.0914 12.6452C19.0914 12.449 18.9325 12.29 18.7363 12.29Z" fill="black"/>
<path id="Vector_35" d="M5.99807 16.6562C8.33432 13.6102 11.7162 11.4952 15.448 10.7025L15.4499 10.7021C16.5224 10.4744 17.6233 10.3559 18.7368 10.3559C18.9328 10.3559 19.0919 10.1967 19.0919 10.0007C19.0919 9.80462 18.9328 9.64562 18.7368 9.64562C17.7271 9.64562 16.7213 9.73799 15.7325 9.9188V9.15226C17.016 8.06565 17.7205 6.64187 17.7205 5.1257C17.7205 3.55807 16.9675 2.0892 15.5998 0.989592C15.4699 0.885142 15.2847 0.885142 15.1547 0.989592C13.7873 2.0892 13.034 3.55807 13.034 5.1257C13.034 6.64187 13.7387 8.06565 15.0221 9.15226V10.064C14.3474 10.2175 13.6824 10.4133 13.0313 10.649V8.56975C13.0313 8.47209 12.9918 8.38373 12.9281 8.3195L10.9395 6.31894C10.8727 6.25194 10.7821 6.2142 10.6875 6.2142H6.62742C6.53296 6.2142 6.44224 6.25194 6.37565 6.31894L4.38701 8.31937C4.3232 8.38359 4.28368 8.47209 4.28368 8.56988V9.92598C4.0362 9.88062 3.78762 9.84062 3.53793 9.80653V8.54061C4.50853 7.70568 5.04107 6.61676 5.04107 5.45668C5.04107 4.24471 4.46012 3.11029 3.40532 2.26204C3.27535 2.15758 3.0903 2.15758 2.96032 2.26204C1.90552 3.11015 1.32458 4.24471 1.32458 5.45668C1.32458 6.61662 1.85711 7.70555 2.8277 8.54048V9.7248C2.30988 9.67644 1.78859 9.65144 1.2652 9.65144C1.06907 9.65144 0.910095 9.81044 0.910095 10.0065C0.910095 10.2027 1.06907 10.3617 1.2652 10.3617C4.10473 10.3617 6.8821 11.113 9.33055 12.5383C8.74395 12.937 8.18368 13.3723 7.65323 13.8411C5.66945 12.8304 3.46525 12.2971 1.2652 12.2971C1.0692 12.2971 0.910095 12.456 0.910095 12.6522C0.910095 12.8483 1.0692 13.0073 1.2652 13.0073C3.26702 13.0073 5.27286 13.4728 7.09518 14.3569C6.55529 14.8791 6.05064 15.4379 5.58497 16.0285C4.20363 15.4493 2.75183 15.1557 1.2652 15.1557C1.0692 15.1557 0.910095 15.3147 0.910095 15.5108C0.910095 15.707 1.0692 15.866 1.2652 15.866C2.59689 15.866 3.89888 16.1184 5.1426 16.6155C4.89721 16.9565 4.66403 17.3068 4.44472 17.6664L3.90359 18.5529C3.80136 18.7202 3.85435 18.9388 4.02164 19.0409C4.07949 19.0763 4.14329 19.0931 4.2064 19.0931C4.32599 19.0931 4.44292 19.0324 4.50978 18.9228L5.05091 18.0363C5.33306 17.574 5.63796 17.1291 5.96297 16.702C5.97573 16.6878 5.98767 16.6727 5.99807 16.6562ZM13.7444 5.1257C13.7444 3.86352 14.3219 2.66792 15.3774 1.73104C16.4328 2.66792 17.0104 3.86352 17.0104 5.1257C17.0104 6.23793 16.5615 7.29869 15.7325 8.17607V5.45668C15.7325 5.26053 15.5735 5.10157 15.3774 5.10157C15.1812 5.10157 15.0223 5.26053 15.0223 5.45668V8.17607C14.1932 7.29869 13.7444 6.23793 13.7444 5.1257ZM2.0348 5.45668C2.0348 4.55086 2.44028 3.69054 3.18282 3.00695C3.92537 3.6904 4.33084 4.55086 4.33084 5.45668C4.33084 6.20533 4.05354 6.92305 3.53793 7.53562V5.17258C3.53793 4.97644 3.37897 4.81748 3.18282 4.81748C2.98681 4.81748 2.8277 4.97644 2.8277 5.17258V7.53562C2.3121 6.92305 2.0348 6.20533 2.0348 5.45668ZM11.8225 8.21463H8.76379L7.48122 6.92443H10.5399L11.8225 8.21463ZM6.62742 7.073L7.76239 8.21463H5.49259L6.62742 7.073ZM4.9939 8.92486H8.26094V11.1832C8.09629 11.1074 7.93066 11.0342 7.76378 10.9639V9.77117C7.76378 9.57517 7.60481 9.41608 7.40867 9.41608H5.84618C5.65017 9.41608 5.49106 9.57517 5.49106 9.77117V10.1934C5.32599 10.1504 5.16036 10.1096 4.9939 10.0716V8.92486ZM7.05356 10.6836C6.77197 10.5799 6.48788 10.4836 6.20129 10.3953V10.1263H7.05356V10.6836ZM8.97117 11.5306V8.92486H12.3212V10.9246C11.7129 11.1766 11.1185 11.4643 10.5423 11.7878C10.3581 11.8912 10.1761 11.9985 9.99619 12.1087C9.66046 11.9036 9.31864 11.7108 8.97117 11.5306Z" fill="black"/>
<path id="Vector_36" d="M15.3767 4.46169C15.47 4.46169 15.5617 4.42368 15.6277 4.35752C15.6938 4.29148 15.7318 4.19994 15.7318 4.10657C15.7318 4.01308 15.6938 3.92153 15.6277 3.8555C15.5617 3.78934 15.47 3.75146 15.3767 3.75146C15.2833 3.75146 15.1916 3.78934 15.1257 3.8555C15.0595 3.92153 15.0215 4.01308 15.0215 4.10657C15.0215 4.19994 15.0595 4.29148 15.1257 4.35752C15.1916 4.42355 15.2833 4.46169 15.3767 4.46169Z" fill="black"/>
<path id="Vector_37" d="M12.2935 13.8805C12.2276 13.9465 12.1895 14.0381 12.1895 14.1315C12.1895 14.2253 12.2275 14.3165 12.2935 14.3825C12.3596 14.4487 12.4512 14.4865 12.5445 14.4865C12.6381 14.4865 12.7296 14.4487 12.7956 14.3825C12.8616 14.3165 12.8997 14.2253 12.8997 14.1315C12.8997 14.0381 12.8616 13.9465 12.7956 13.8805C12.7296 13.8144 12.6381 13.7764 12.5445 13.7764C12.4512 13.7764 12.3596 13.8144 12.2935 13.8805Z" fill="black"/>
</g>
</mask>
<g mask="url(#mask3_495_6161)">
<path id="Vector_38" d="M5.99807 16.6547C8.33432 13.6087 11.7162 11.4937 15.448 10.7011L15.4499 10.7006C16.5224 10.473 17.6233 10.3544 18.7368 10.3544C18.9328 10.3544 19.0919 10.1952 19.0919 9.99925C19.0919 9.80316 18.9328 9.64416 18.7368 9.64416C17.7271 9.64416 16.7213 9.73652 15.7325 9.91734V9.15079C17.016 8.06418 17.7205 6.6404 17.7205 5.12424C17.7205 3.5566 16.9675 2.08774 15.5998 0.988128C15.4699 0.883678 15.2847 0.883678 15.1547 0.988128C13.7873 2.08774 13.034 3.5566 13.034 5.12424C13.034 6.6404 13.7387 8.06418 15.0221 9.15079V10.0625C14.3474 10.2161 13.6824 10.4118 13.0313 10.6475V8.56828C13.0313 8.47063 12.9918 8.38227 12.9281 8.31804L10.9395 6.31747C10.8727 6.25047 10.7821 6.21274 10.6875 6.21274H6.62742C6.53296 6.21274 6.44224 6.25047 6.37565 6.31747L4.38701 8.3179C4.3232 8.38213 4.28368 8.47063 4.28368 8.56842V9.92452C4.0362 9.87916 3.78762 9.83916 3.53793 9.80507V8.53915C4.50853 7.70422 5.04107 6.61529 5.04107 5.45521C5.04107 4.24325 4.46012 3.10883 3.40532 2.26057C3.27535 2.15612 3.09029 2.15612 2.96032 2.26057C1.90552 3.10868 1.32458 4.24325 1.32458 5.45521C1.32458 6.61516 1.85711 7.70408 2.8277 8.53901V9.72334C2.30988 9.67497 1.78859 9.64997 1.2652 9.64997C1.06907 9.64997 0.910095 9.80897 0.910095 10.0051C0.910095 10.2012 1.06907 10.3602 1.2652 10.3602C4.10473 10.3602 6.8821 11.1115 9.33055 12.5368C8.74395 12.9355 8.18368 13.3709 7.65323 13.8396C5.66945 12.829 3.46525 12.2956 1.2652 12.2956C1.0692 12.2956 0.910095 12.4545 0.910095 12.6507C0.910095 12.8469 1.0692 13.0058 1.2652 13.0058C3.26702 13.0058 5.27286 13.4713 7.09518 14.3554C6.55529 14.8776 6.05064 15.4364 5.58497 16.0271C4.20363 15.4478 2.75183 15.1542 1.2652 15.1542C1.0692 15.1542 0.910095 15.3132 0.910095 15.5093C0.910095 15.7055 1.0692 15.8645 1.2652 15.8645C2.59689 15.8645 3.89888 16.117 5.1426 16.6141C4.89721 16.9551 4.66403 17.3053 4.44472 17.6649L3.90359 18.5514C3.80136 18.7187 3.85435 18.9373 4.02164 19.0394C4.07949 19.0748 4.14329 19.0916 4.2064 19.0916C4.32599 19.0916 4.44292 19.031 4.50978 18.9213L5.05091 18.0348C5.33306 17.5725 5.63796 17.1276 5.96297 16.7005C5.97573 16.6863 5.98767 16.6713 5.99807 16.6547ZM13.7444 5.12424C13.7444 3.86206 14.3219 2.66646 15.3774 1.72957C16.4328 2.66646 17.0104 3.86206 17.0104 5.12424C17.0104 6.23647 16.5615 7.29723 15.7325 8.1746V5.45521C15.7325 5.25907 15.5735 5.1001 15.3774 5.1001C15.1812 5.1001 15.0223 5.25907 15.0223 5.45521V8.1746C14.1932 7.29723 13.7444 6.23647 13.7444 5.12424ZM2.0348 5.45521C2.0348 4.54939 2.44028 3.68907 3.18282 3.00548C3.92537 3.68894 4.33084 4.54939 4.33084 5.45521C4.33084 6.20387 4.05354 6.92158 3.53793 7.53416V5.17112C3.53793 4.97497 3.37897 4.81601 3.18282 4.81601C2.98681 4.81601 2.8277 4.97497 2.8277 5.17112V7.53416C2.3121 6.92158 2.0348 6.20387 2.0348 5.45521ZM11.8225 8.21316H8.76379L7.48122 6.92297H10.5399L11.8225 8.21316ZM6.62742 7.07154L7.76239 8.21316H5.49259L6.62742 7.07154ZM4.9939 8.92339H8.26094V11.1817C8.09629 11.106 7.93066 11.0327 7.76379 10.9624V9.7697C7.76379 9.5737 7.60481 9.41461 7.40867 9.41461H5.84618C5.65017 9.41461 5.49106 9.5737 5.49106 9.7697V10.192C5.32599 10.149 5.16036 10.1082 4.9939 10.0702V8.92339ZM7.05356 10.6822C6.77197 10.5784 6.48788 10.4822 6.20129 10.3938V10.1248H7.05356V10.6822ZM8.97117 11.5292V8.92339H12.3212V10.9232C11.7129 11.1752 11.1185 11.4629 10.5423 11.7863C10.3581 11.8897 10.1761 11.9971 9.99619 12.1072C9.66046 11.9022 9.31864 11.7093 8.97117 11.5292Z" stroke="#35353D" stroke-width="0.181818"/>
</g>
</g>
<g id="Mask group_5">
<mask id="mask4_495_6161" style="mask-type:luminance" maskUnits="userSpaceOnUse" x="0" y="0" width="21" height="21">
<g id="Group_5">
<path id="Vector_39" d="M20.001 0.00146484H0.000976562V20.0015H20.001V0.00146484Z" fill="white"/>
<path id="Vector_40" d="M18.7361 15.1494C15.7704 15.1494 12.8594 16.366 10.7499 18.4871C10.6114 18.6261 10.6122 18.8511 10.7512 18.9892C10.8205 19.0581 10.9109 19.0925 11.0016 19.0925C11.0928 19.0925 11.1839 19.0577 11.2534 18.988C13.2307 16.9999 15.958 15.8596 18.7361 15.8596C18.9322 15.8596 19.0912 15.7007 19.0912 15.5045C19.0912 15.3085 18.9322 15.1494 18.7361 15.1494Z" fill="black"/>
<path id="Vector_41" d="M11.3301 14.8199C11.2203 14.6574 10.9995 14.6147 10.8371 14.7245C9.31854 15.7502 8.03615 17.0336 7.02519 18.5389C6.91588 18.7018 6.95916 18.9225 7.122 19.0318C7.1829 19.0726 7.25157 19.0921 7.31968 19.0921C7.43398 19.0921 7.54634 19.0369 7.61487 18.9349C8.5745 17.5058 9.79227 16.2871 11.2346 15.3129C11.3971 15.2032 11.4398 14.9825 11.3301 14.8199Z" fill="black"/>
<path id="Vector_42" d="M18.7363 12.29C17.1487 12.29 15.5773 12.5613 14.0659 13.0961C13.881 13.1615 13.7842 13.3644 13.8496 13.5493C13.9012 13.6951 14.0382 13.7861 14.1843 13.7861C14.2236 13.7861 14.2636 13.7795 14.3029 13.7656C15.738 13.2578 17.2296 13.0003 18.7363 13.0003C18.9325 13.0003 19.0914 12.8413 19.0914 12.6452C19.0914 12.449 18.9325 12.29 18.7363 12.29Z" fill="black"/>
<path id="Vector_43" d="M5.99807 16.6562C8.33432 13.6102 11.7162 11.4952 15.448 10.7025L15.4499 10.7021C16.5224 10.4744 17.6233 10.3559 18.7368 10.3559C18.9328 10.3559 19.0919 10.1967 19.0919 10.0007C19.0919 9.80462 18.9328 9.64562 18.7368 9.64562C17.7271 9.64562 16.7213 9.73799 15.7325 9.9188V9.15226C17.016 8.06565 17.7205 6.64187 17.7205 5.1257C17.7205 3.55807 16.9675 2.0892 15.5998 0.989592C15.4699 0.885142 15.2847 0.885142 15.1547 0.989592C13.7873 2.0892 13.034 3.55807 13.034 5.1257C13.034 6.64187 13.7387 8.06565 15.0221 9.15226V10.064C14.3474 10.2175 13.6824 10.4133 13.0313 10.649V8.56975C13.0313 8.47209 12.9918 8.38373 12.9281 8.3195L10.9395 6.31894C10.8727 6.25194 10.7821 6.2142 10.6875 6.2142H6.62742C6.53296 6.2142 6.44224 6.25194 6.37565 6.31894L4.38701 8.31937C4.3232 8.38359 4.28368 8.47209 4.28368 8.56988V9.92598C4.0362 9.88062 3.78762 9.84062 3.53793 9.80653V8.54061C4.50853 7.70568 5.04107 6.61676 5.04107 5.45668C5.04107 4.24471 4.46012 3.11029 3.40532 2.26204C3.27535 2.15758 3.0903 2.15758 2.96032 2.26204C1.90552 3.11015 1.32458 4.24471 1.32458 5.45668C1.32458 6.61662 1.85711 7.70555 2.8277 8.54048V9.7248C2.30988 9.67644 1.78859 9.65144 1.2652 9.65144C1.06907 9.65144 0.910095 9.81044 0.910095 10.0065C0.910095 10.2027 1.06907 10.3617 1.2652 10.3617C4.10473 10.3617 6.8821 11.113 9.33055 12.5383C8.74395 12.937 8.18368 13.3723 7.65323 13.8411C5.66945 12.8304 3.46525 12.2971 1.2652 12.2971C1.0692 12.2971 0.910095 12.456 0.910095 12.6522C0.910095 12.8483 1.0692 13.0073 1.2652 13.0073C3.26702 13.0073 5.27286 13.4728 7.09518 14.3569C6.55529 14.8791 6.05064 15.4379 5.58497 16.0285C4.20363 15.4493 2.75183 15.1557 1.2652 15.1557C1.0692 15.1557 0.910095 15.3147 0.910095 15.5108C0.910095 15.707 1.0692 15.866 1.2652 15.866C2.59689 15.866 3.89888 16.1184 5.1426 16.6155C4.89721 16.9565 4.66403 17.3068 4.44472 17.6664L3.90359 18.5529C3.80136 18.7202 3.85435 18.9388 4.02164 19.0409C4.07949 19.0763 4.14329 19.0931 4.2064 19.0931C4.32599 19.0931 4.44292 19.0324 4.50978 18.9228L5.05091 18.0363C5.33306 17.574 5.63796 17.1291 5.96297 16.702C5.97573 16.6878 5.98767 16.6727 5.99807 16.6562ZM13.7444 5.1257C13.7444 3.86352 14.3219 2.66792 15.3774 1.73104C16.4328 2.66792 17.0104 3.86352 17.0104 5.1257C17.0104 6.23793 16.5615 7.29869 15.7325 8.17607V5.45668C15.7325 5.26053 15.5735 5.10157 15.3774 5.10157C15.1812 5.10157 15.0223 5.26053 15.0223 5.45668V8.17607C14.1932 7.29869 13.7444 6.23793 13.7444 5.1257ZM2.0348 5.45668C2.0348 4.55086 2.44028 3.69054 3.18282 3.00695C3.92537 3.6904 4.33084 4.55086 4.33084 5.45668C4.33084 6.20533 4.05354 6.92305 3.53793 7.53562V5.17258C3.53793 4.97644 3.37897 4.81748 3.18282 4.81748C2.98681 4.81748 2.8277 4.97644 2.8277 5.17258V7.53562C2.3121 6.92305 2.0348 6.20533 2.0348 5.45668ZM11.8225 8.21463H8.76379L7.48122 6.92443H10.5399L11.8225 8.21463ZM6.62742 7.073L7.76239 8.21463H5.49259L6.62742 7.073ZM4.9939 8.92486H8.26094V11.1832C8.09629 11.1074 7.93066 11.0342 7.76378 10.9639V9.77117C7.76378 9.57517 7.60481 9.41608 7.40867 9.41608H5.84618C5.65017 9.41608 5.49106 9.57517 5.49106 9.77117V10.1934C5.32599 10.1504 5.16036 10.1096 4.9939 10.0716V8.92486ZM7.05356 10.6836C6.77197 10.5799 6.48788 10.4836 6.20129 10.3953V10.1263H7.05356V10.6836ZM8.97117 11.5306V8.92486H12.3212V10.9246C11.7129 11.1766 11.1185 11.4643 10.5423 11.7878C10.3581 11.8912 10.1761 11.9985 9.99619 12.1087C9.66046 11.9036 9.31864 11.7108 8.97117 11.5306Z" fill="black"/>
<path id="Vector_44" d="M15.3767 4.46169C15.47 4.46169 15.5617 4.42368 15.6277 4.35752C15.6938 4.29148 15.7318 4.19994 15.7318 4.10657C15.7318 4.01308 15.6938 3.92153 15.6277 3.8555C15.5617 3.78934 15.47 3.75146 15.3767 3.75146C15.2833 3.75146 15.1916 3.78934 15.1257 3.8555C15.0595 3.92153 15.0215 4.01308 15.0215 4.10657C15.0215 4.19994 15.0595 4.29148 15.1257 4.35752C15.1916 4.42355 15.2833 4.46169 15.3767 4.46169Z" fill="black"/>
<path id="Vector_45" d="M12.2935 13.8805C12.2276 13.9465 12.1895 14.0381 12.1895 14.1315C12.1895 14.2253 12.2275 14.3165 12.2935 14.3825C12.3596 14.4487 12.4512 14.4865 12.5445 14.4865C12.6381 14.4865 12.7296 14.4487 12.7956 14.3825C12.8616 14.3165 12.8997 14.2253 12.8997 14.1315C12.8997 14.0381 12.8616 13.9465 12.7956 13.8805C12.7296 13.8144 12.6381 13.7764 12.5445 13.7764C12.4512 13.7764 12.3596 13.8144 12.2935 13.8805Z" fill="black"/>
</g>
</mask>
<g mask="url(#mask4_495_6161)">
<path id="Vector_46" d="M15.3767 4.46169C15.47 4.46169 15.5617 4.42368 15.6277 4.35752C15.6938 4.29148 15.7318 4.19994 15.7318 4.10657C15.7318 4.01308 15.6938 3.92153 15.6277 3.8555C15.5617 3.78934 15.47 3.75146 15.3767 3.75146C15.2833 3.75146 15.1916 3.78934 15.1257 3.8555C15.0595 3.92153 15.0215 4.01308 15.0215 4.10657C15.0215 4.19994 15.0595 4.29148 15.1257 4.35752C15.1916 4.42355 15.2833 4.46169 15.3767 4.46169Z" stroke="#35353D" stroke-width="0.181818"/>
</g>
</g>
<g id="Mask group_6">
<mask id="mask5_495_6161" style="mask-type:luminance" maskUnits="userSpaceOnUse" x="0" y="0" width="21" height="21">
<g id="Group_6">
<path id="Vector_47" d="M20.001 0.00146484H0.000976562V20.0015H20.001V0.00146484Z" fill="white"/>
<path id="Vector_48" d="M18.7361 15.1494C15.7704 15.1494 12.8594 16.366 10.7499 18.4871C10.6114 18.6261 10.6122 18.8511 10.7512 18.9892C10.8205 19.0581 10.9109 19.0925 11.0016 19.0925C11.0928 19.0925 11.1839 19.0577 11.2534 18.988C13.2307 16.9999 15.958 15.8596 18.7361 15.8596C18.9322 15.8596 19.0912 15.7007 19.0912 15.5045C19.0912 15.3085 18.9322 15.1494 18.7361 15.1494Z" fill="black"/>
<path id="Vector_49" d="M11.3301 14.8199C11.2203 14.6574 10.9995 14.6147 10.8371 14.7245C9.31854 15.7502 8.03615 17.0336 7.02519 18.5389C6.91588 18.7018 6.95916 18.9225 7.122 19.0318C7.1829 19.0726 7.25157 19.0921 7.31968 19.0921C7.43398 19.0921 7.54634 19.0369 7.61487 18.9349C8.5745 17.5058 9.79227 16.2871 11.2346 15.3129C11.3971 15.2032 11.4398 14.9825 11.3301 14.8199Z" fill="black"/>
<path id="Vector_50" d="M18.7363 12.29C17.1487 12.29 15.5773 12.5613 14.0659 13.0961C13.881 13.1615 13.7842 13.3644 13.8496 13.5493C13.9012 13.6951 14.0382 13.7861 14.1843 13.7861C14.2236 13.7861 14.2636 13.7795 14.3029 13.7656C15.738 13.2578 17.2296 13.0003 18.7363 13.0003C18.9325 13.0003 19.0914 12.8413 19.0914 12.6452C19.0914 12.449 18.9325 12.29 18.7363 12.29Z" fill="black"/>
<path id="Vector_51" d="M5.99807 16.6562C8.33432 13.6102 11.7162 11.4952 15.448 10.7025L15.4499 10.7021C16.5224 10.4744 17.6233 10.3559 18.7368 10.3559C18.9328 10.3559 19.0919 10.1967 19.0919 10.0007C19.0919 9.80462 18.9328 9.64562 18.7368 9.64562C17.7271 9.64562 16.7213 9.73799 15.7325 9.9188V9.15226C17.016 8.06565 17.7205 6.64187 17.7205 5.1257C17.7205 3.55807 16.9675 2.0892 15.5998 0.989592C15.4699 0.885142 15.2847 0.885142 15.1547 0.989592C13.7873 2.0892 13.034 3.55807 13.034 5.1257C13.034 6.64187 13.7387 8.06565 15.0221 9.15226V10.064C14.3474 10.2175 13.6824 10.4133 13.0313 10.649V8.56975C13.0313 8.47209 12.9918 8.38373 12.9281 8.3195L10.9395 6.31894C10.8727 6.25194 10.7821 6.2142 10.6875 6.2142H6.62742C6.53296 6.2142 6.44224 6.25194 6.37565 6.31894L4.38701 8.31937C4.3232 8.38359 4.28368 8.47209 4.28368 8.56988V9.92598C4.0362 9.88062 3.78762 9.84062 3.53793 9.80653V8.54061C4.50853 7.70568 5.04107 6.61676 5.04107 5.45668C5.04107 4.24471 4.46012 3.11029 3.40532 2.26204C3.27535 2.15758 3.0903 2.15758 2.96032 2.26204C1.90552 3.11015 1.32458 4.24471 1.32458 5.45668C1.32458 6.61662 1.85711 7.70555 2.8277 8.54048V9.7248C2.30988 9.67644 1.78859 9.65144 1.2652 9.65144C1.06907 9.65144 0.910095 9.81044 0.910095 10.0065C0.910095 10.2027 1.06907 10.3617 1.2652 10.3617C4.10473 10.3617 6.8821 11.113 9.33055 12.5383C8.74395 12.937 8.18368 13.3723 7.65323 13.8411C5.66945 12.8304 3.46525 12.2971 1.2652 12.2971C1.0692 12.2971 0.910095 12.456 0.910095 12.6522C0.910095 12.8483 1.0692 13.0073 1.2652 13.0073C3.26702 13.0073 5.27286 13.4728 7.09518 14.3569C6.55529 14.8791 6.05064 15.4379 5.58497 16.0285C4.20363 15.4493 2.75183 15.1557 1.2652 15.1557C1.0692 15.1557 0.910095 15.3147 0.910095 15.5108C0.910095 15.707 1.0692 15.866 1.2652 15.866C2.59689 15.866 3.89888 16.1184 5.1426 16.6155C4.89721 16.9565 4.66403 17.3068 4.44472 17.6664L3.90359 18.5529C3.80136 18.7202 3.85435 18.9388 4.02164 19.0409C4.07949 19.0763 4.14329 19.0931 4.2064 19.0931C4.32599 19.0931 4.44292 19.0324 4.50978 18.9228L5.05091 18.0363C5.33306 17.574 5.63796 17.1291 5.96297 16.702C5.97573 16.6878 5.98767 16.6727 5.99807 16.6562ZM13.7444 5.1257C13.7444 3.86352 14.3219 2.66792 15.3774 1.73104C16.4328 2.66792 17.0104 3.86352 17.0104 5.1257C17.0104 6.23793 16.5615 7.29869 15.7325 8.17607V5.45668C15.7325 5.26053 15.5735 5.10157 15.3774 5.10157C15.1812 5.10157 15.0223 5.26053 15.0223 5.45668V8.17607C14.1932 7.29869 13.7444 6.23793 13.7444 5.1257ZM2.0348 5.45668C2.0348 4.55086 2.44028 3.69054 3.18282 3.00695C3.92537 3.6904 4.33084 4.55086 4.33084 5.45668C4.33084 6.20533 4.05354 6.92305 3.53793 7.53562V5.17258C3.53793 4.97644 3.37897 4.81748 3.18282 4.81748C2.98681 4.81748 2.8277 4.97644 2.8277 5.17258V7.53562C2.3121 6.92305 2.0348 6.20533 2.0348 5.45668ZM11.8225 8.21463H8.76379L7.48122 6.92443H10.5399L11.8225 8.21463ZM6.62742 7.073L7.76239 8.21463H5.49259L6.62742 7.073ZM4.9939 8.92486H8.26094V11.1832C8.09629 11.1074 7.93066 11.0342 7.76378 10.9639V9.77117C7.76378 9.57517 7.60481 9.41608 7.40867 9.41608H5.84618C5.65017 9.41608 5.49106 9.57517 5.49106 9.77117V10.1934C5.32599 10.1504 5.16036 10.1096 4.9939 10.0716V8.92486ZM7.05356 10.6836C6.77197 10.5799 6.48788 10.4836 6.20129 10.3953V10.1263H7.05356V10.6836ZM8.97117 11.5306V8.92486H12.3212V10.9246C11.7129 11.1766 11.1185 11.4643 10.5423 11.7878C10.3581 11.8912 10.1761 11.9985 9.99619 12.1087C9.66046 11.9036 9.31864 11.7108 8.97117 11.5306Z" fill="black"/>
<path id="Vector_52" d="M15.3767 4.46169C15.47 4.46169 15.5617 4.42368 15.6277 4.35752C15.6938 4.29148 15.7318 4.19994 15.7318 4.10657C15.7318 4.01308 15.6938 3.92153 15.6277 3.8555C15.5617 3.78934 15.47 3.75146 15.3767 3.75146C15.2833 3.75146 15.1916 3.78934 15.1257 3.8555C15.0595 3.92153 15.0215 4.01308 15.0215 4.10657C15.0215 4.19994 15.0595 4.29148 15.1257 4.35752C15.1916 4.42355 15.2833 4.46169 15.3767 4.46169Z" fill="black"/>
<path id="Vector_53" d="M12.2935 13.8805C12.2276 13.9465 12.1895 14.0381 12.1895 14.1315C12.1895 14.2253 12.2275 14.3165 12.2935 14.3825C12.3596 14.4487 12.4512 14.4865 12.5445 14.4865C12.6381 14.4865 12.7296 14.4487 12.7956 14.3825C12.8616 14.3165 12.8997 14.2253 12.8997 14.1315C12.8997 14.0381 12.8616 13.9465 12.7956 13.8805C12.7296 13.8144 12.6381 13.7764 12.5445 13.7764C12.4512 13.7764 12.3596 13.8144 12.2935 13.8805Z" fill="black"/>
</g>
</mask>
<g mask="url(#mask5_495_6161)">
<path id="Vector_54" d="M12.2935 13.8805C12.2276 13.9465 12.1895 14.0381 12.1895 14.1315C12.1895 14.2253 12.2275 14.3165 12.2935 14.3825C12.3596 14.4487 12.4512 14.4865 12.5445 14.4865C12.6381 14.4865 12.7296 14.4487 12.7956 14.3825C12.8616 14.3165 12.8997 14.2253 12.8997 14.1315C12.8997 14.0381 12.8616 13.9465 12.7956 13.8805C12.7296 13.8144 12.6381 13.7764 12.5445 13.7764C12.4512 13.7764 12.3596 13.8144 12.2935 13.8805Z" stroke="#35353D" stroke-width="0.181818"/>
</g>
</g>
</g>
<defs>
<clipPath id="clip0_495_6161">
<rect width="20" height="20" fill="white"/>
</clipPath>
</defs>
</svg>
