<svg width="16" height="16" viewBox="0 0 16 16" fill="none" xmlns="http://www.w3.org/2000/svg">
<g id="pencil-simple-line 1">
<path id="Vector" d="M14.2075 4.5856L11.4144 1.7931C11.3215 1.70021 11.2112 1.62653 11.0899 1.57626C10.9686 1.526 10.8385 1.50012 10.7072 1.50012C10.5758 1.50012 10.4458 1.526 10.3244 1.57626C10.2031 1.62653 10.0928 1.70021 9.99998 1.7931L2.29311 9.49997C2.19985 9.59249 2.12591 9.70263 2.07559 9.82398C2.02526 9.94533 1.99957 10.0755 1.99999 10.2068V13C1.99999 13.2652 2.10534 13.5195 2.29288 13.7071C2.48042 13.8946 2.73477 14 2.99999 14H13.5C13.6326 14 13.7598 13.9473 13.8535 13.8535C13.9473 13.7598 14 13.6326 14 13.5C14 13.3674 13.9473 13.2402 13.8535 13.1464C13.7598 13.0527 13.6326 13 13.5 13H7.20749L14.2075 5.99997C14.3004 5.90711 14.374 5.79686 14.4243 5.67552C14.4746 5.55418 14.5005 5.42412 14.5005 5.29278C14.5005 5.16144 14.4746 5.03139 14.4243 4.91005C14.374 4.78871 14.3004 4.67846 14.2075 4.5856ZM5.79311 13H2.99999V10.2068L8.49999 4.70685L11.2931 7.49997L5.79311 13ZM12 6.7931L9.20749 3.99997L10.7075 2.49997L13.5 5.2931L12 6.7931Z" fill="#D94841"/>
</g>
</svg>
