<svg width="16" height="16" viewBox="0 0 16 16" fill="none" xmlns="http://www.w3.org/2000/svg">
<g clip-path="url(#clip0_3957_30990)">
<path d="M15.2934 0.706709C14.8402 0.254173 14.2259 0 13.5854 0C12.9449 0 12.3306 0.254173 11.8774 0.706709L0.00012207 12.584V16H3.41611L15.2934 4.12271C15.7458 3.66939 15.9998 3.05513 15.9998 2.41471C15.9998 1.77429 15.7458 1.16003 15.2934 0.706709ZM2.86678 14.6667H1.33345V13.1334L10.2067 4.26671L11.7401 5.80004L2.86678 14.6667ZM14.3507 3.18004L12.6794 4.85138L11.1494 3.31804L12.8201 1.64938C13.0234 1.44604 13.2992 1.33181 13.5867 1.33181C13.8743 1.33181 14.1501 1.44604 14.3534 1.64938C14.5567 1.85271 14.671 2.12849 14.671 2.41604C14.671 2.7036 14.5567 2.97938 14.3534 3.18271L14.3507 3.18004Z" fill="#6A7185"/>
</g>
<defs>
<clipPath id="clip0_3957_30990">
<rect width="15.9999" height="16" fill="white"/>
</clipPath>
</defs>
</svg>
