<svg width="18" height="19" viewBox="0 0 18 19" fill="none" xmlns="http://www.w3.org/2000/svg">
<g clip-path="url(#clip0_336_2093)">
<path d="M17.205 1.29505C16.6951 0.785945 16.004 0.5 15.2835 0.5C14.563 0.5 13.8719 0.785945 13.362 1.29505L0 14.657V18.5H3.843L17.205 5.13805C17.7139 4.62807 17.9997 3.93702 17.9997 3.21655C17.9997 2.49608 17.7139 1.80503 17.205 1.29505ZM3.225 17H1.5V15.275L11.4825 5.30005L13.2075 7.02505L3.225 17ZM16.1445 4.07755L14.2642 5.9578L12.543 4.2328L14.4225 2.35555C14.6512 2.1268 14.9615 1.99829 15.285 1.99829C15.6085 1.99829 15.9188 2.1268 16.1475 2.35555C16.3762 2.5843 16.5048 2.89455 16.5048 3.21805C16.5048 3.54155 16.3762 3.8518 16.1475 4.08055L16.1445 4.07755Z" fill="#6A7185"/>
</g>
<defs>
<clipPath id="clip0_336_2093">
<rect width="18" height="18" fill="white" transform="translate(0 0.5)"/>
</clipPath>
</defs>
</svg>
