<svg width="80" height="80" viewBox="0 0 80 80" fill="none" xmlns="http://www.w3.org/2000/svg">
<g clip-path="url(#clip0_4861_17468)">
<path d="M40 80C62.0914 80 80 62.0914 80 40C80 17.9086 62.0914 0 40 0C17.9086 0 0 17.9086 0 40C0 62.0914 17.9086 80 40 80Z" fill="#FF6B6B"/>
<path d="M80 40H0C0 62.0914 17.9086 80 40 80C62.0914 80 80 62.0914 80 40Z" fill="#FF1F3D"/>
<path d="M29.0623 62.6562C28.6978 62.6562 28.3322 62.5713 27.9956 62.3991C27.2119 61.9985 26.7188 61.1926 26.7188 60.3124V19.6874C26.7188 18.8073 27.2119 18.0013 27.9955 17.6007C28.7791 17.2001 29.7211 17.2721 30.4347 17.7874L58.5597 38.0999C59.1698 38.5406 59.5312 39.2474 59.5312 39.9999C59.5312 40.7524 59.1698 41.4593 58.5597 41.8999L30.4347 62.2124C30.0277 62.5065 29.5462 62.6562 29.0623 62.6562Z" fill="#F9F9F9"/>
<path d="M26.7188 40V60.3125C26.7188 61.1927 27.2119 61.9986 27.9955 62.3992C28.332 62.5714 28.6978 62.6562 29.0622 62.6562C29.5461 62.6562 30.0277 62.5066 30.4347 62.2125L58.5597 41.9C59.1697 41.4594 59.5312 40.7525 59.5312 40H26.7188Z" fill="#E2DFF4"/>
</g>
<defs>
<clipPath id="clip0_4861_17468">
<rect width="80" height="80" fill="white"/>
</clipPath>
</defs>
</svg>
