<svg width="27" height="28" viewBox="0 0 27 28" fill="none" xmlns="http://www.w3.org/2000/svg">
<path d="M15.9168 17.7912L15.9153 17.6225C15.8797 17.6228 15.3593 17.6234 14.7188 17.6242C14.5012 17.6245 14.2698 17.6248 14.0388 17.6251C13.5837 17.6256 13.1309 17.6262 12.7902 17.6269L12.3769 17.6277L12.2589 17.6282L12.2522 17.6282C12.2339 17.6283 12.2127 17.6284 12.2026 17.6291L12.2026 17.629C12.0506 17.6402 11.9088 17.7098 11.8069 17.823C11.7049 17.9363 11.6507 18.0846 11.6555 18.237C11.6603 18.3893 11.7238 18.5339 11.8327 18.6405C11.9416 18.7471 12.0875 18.8075 12.2399 18.8091V18.8091L12.2419 18.8091L15.3764 18.8045C16.0723 18.8716 16.7193 18.7204 17.1973 18.3576C17.6813 17.9902 17.9755 17.4179 17.9765 16.6837L17.9767 16.6837L17.9764 16.6759C17.9523 16.1441 17.7258 15.6416 17.3432 15.2715C16.9605 14.9013 16.4508 14.6916 15.9185 14.6853L15.9185 14.6851L15.91 14.6854C15.8004 14.6896 14.2947 14.6884 12.7924 14.6871C12.0434 14.6865 11.2976 14.6859 10.7317 14.686C10.4488 14.686 10.2107 14.6862 10.0396 14.6867C9.88533 14.6872 9.77554 14.6878 9.74334 14.6893L9.74334 14.6893C9.14061 14.7154 8.56894 14.9639 8.13873 15.3869L8.13764 15.388C8.13587 15.3897 8.12207 15.4038 8.09786 15.4286C7.93643 15.5937 7.31191 16.2322 6.69985 16.8469C6.34446 17.2038 5.98914 17.5569 5.71917 17.8169C5.5839 17.9471 5.47159 18.0525 5.39195 18.123C5.37515 18.1378 5.36033 18.1507 5.34745 18.1616C5.17966 18.0958 4.99717 18.074 4.81756 18.0993C4.60445 18.1292 4.40567 18.2239 4.2481 18.3705L4.24802 18.3704L4.24361 18.3748C4.24169 18.3767 4.22956 18.3889 4.20887 18.4095C4.10352 18.5148 3.77629 18.8419 3.44638 19.1723C3.05707 19.5621 2.65265 19.9676 2.62591 19.9984L2.62556 19.9988C2.45747 20.1934 2.36797 20.4436 2.37456 20.7006C2.38115 20.9577 2.48336 21.203 2.66121 21.3887L2.66115 21.3887L2.66494 21.3925C2.71091 21.4375 3.48739 22.2153 4.37009 23.0994C4.52904 23.2586 4.69143 23.4213 4.85361 23.5837C5.38465 24.1156 5.91303 24.6448 6.3102 25.0423C6.50878 25.241 6.67459 25.4068 6.79154 25.5237L6.92845 25.6602L6.96597 25.6974L6.96738 25.6988C6.97134 25.7028 6.97981 25.7112 6.98691 25.7175L6.98689 25.7176C7.18112 25.8896 7.43317 25.9819 7.69256 25.9759C7.95194 25.97 8.1995 25.8663 8.38565 25.6855L8.38566 25.6855L8.3875 25.6837L8.40879 25.6624C8.59621 25.4749 9.93879 24.1317 10.0009 24.0648L10.001 24.0648L10.0024 24.0633C10.1531 23.897 10.2435 23.6851 10.2594 23.4615C10.2714 23.4072 10.2652 23.3561 10.2609 23.327C10.2605 23.3246 10.2602 23.3222 10.2598 23.3197C11.0081 23.2164 12.0326 23.0754 13.0425 22.9364C14.606 22.7212 16.1346 22.5108 16.5495 22.4523L16.5495 22.4525L16.5559 22.4513C17.0946 22.354 17.5921 22.0986 17.9851 21.7175L17.9851 21.7175L17.9875 21.7151C18.0434 21.6588 18.8369 20.864 19.8337 19.8655C21.6036 18.0927 24.0144 15.6779 24.0753 15.6147L24.0753 15.6147C24.4372 15.2269 24.636 14.7148 24.6306 14.1845C24.6253 13.6551 24.4168 13.148 24.0484 12.7679C23.8611 12.5621 23.6342 12.3963 23.3812 12.2804C23.1274 12.1642 22.8526 12.1006 22.5734 12.0936C22.2943 12.0866 22.0167 12.1363 21.7573 12.2397C21.4979 12.3431 21.2622 12.498 21.0645 12.6951L21.0641 12.6954L18.6639 15.1012L18.6639 15.1012L18.6615 15.1037C18.5545 15.2153 18.4956 15.3644 18.4973 15.519C18.4991 15.6737 18.5614 15.8214 18.6709 15.9306L18.79 15.8111L18.6709 15.9306C18.7803 16.0398 18.9283 16.1017 19.0829 16.103C19.2375 16.1043 19.3865 16.045 19.4978 15.9376L19.5002 15.9353L21.8981 13.5319C21.8984 13.5316 21.8987 13.5313 21.899 13.531C22.1162 13.3207 22.3506 13.2516 22.5669 13.2685C22.7878 13.2858 23.0026 13.3941 23.1676 13.5603C23.3327 13.7265 23.4399 13.9422 23.4565 14.1633C23.4727 14.3799 23.4031 14.613 23.1943 14.8264C23.1942 14.8266 23.194 14.8268 23.1938 14.827L17.153 20.8792C17.1529 20.8794 17.1528 20.8795 17.1527 20.8796C16.9267 21.1032 16.6346 21.2481 16.3197 21.2927C15.5049 21.4051 14.5844 21.5316 13.6464 21.6606C12.209 21.8581 10.7305 22.0614 9.52858 22.2283L7.32336 20.0227L7.32339 20.0227L7.32059 20.02C7.20884 19.9133 7.05973 19.8546 6.90522 19.8565C6.7507 19.8584 6.60309 19.9207 6.49401 20.0302C6.38494 20.1397 6.32309 20.2875 6.32172 20.442C6.32035 20.5965 6.37957 20.7454 6.4867 20.8568L6.48667 20.8568L6.489 20.8592L9.01344 23.3832L7.66834 24.7301L3.61807 20.6746L4.96273 19.3287L5.00031 19.3664L5.00025 19.3664L5.00423 19.3702C5.11657 19.4757 5.26504 19.5343 5.4192 19.534L5.41881 19.3652L5.4192 19.534C5.5728 19.5336 5.72047 19.4748 5.83219 19.3694C5.91438 19.294 6.68778 18.5163 7.44441 17.7555L7.50145 17.6982C7.86535 17.3322 8.2235 16.9721 8.49937 16.6954C8.64452 16.5498 8.76675 16.4275 8.85501 16.3396C8.89916 16.2956 8.93461 16.2605 8.96008 16.2355C8.97776 16.2181 8.98825 16.208 8.99333 16.2031C8.99539 16.2011 8.99656 16.2 8.99697 16.1995L8.99702 16.1996L9.00158 16.1955C9.22559 15.993 9.51459 15.8773 9.81639 15.8692C9.89721 15.8695 10.7543 15.8689 11.8038 15.8683C12.1657 15.868 12.5505 15.8678 12.9343 15.8676C13.6898 15.8671 14.4415 15.8667 15.0069 15.8666L15.6926 15.8667C15.7983 15.8668 15.8723 15.8669 15.9135 15.867C15.9397 15.8671 15.9527 15.8671 15.9521 15.867L15.9534 15.8671C16.1811 15.8794 16.3951 15.9798 16.5501 16.1471C16.7051 16.3143 16.789 16.5353 16.7841 16.7633C16.7791 16.9913 16.6856 17.2084 16.5235 17.3688C16.3613 17.5291 16.1431 17.6201 15.9151 17.6225L15.9168 17.7912ZM15.9168 17.7912C16.1887 17.7884 16.4488 17.6799 16.6421 17.4888C16.8354 17.2976 16.9468 17.0388 16.9528 16.767C16.9587 16.4952 16.8587 16.2318 16.6739 16.0324C16.4891 15.833 16.234 15.7133 15.9625 15.6986L12.2417 18.6403C12.1328 18.6392 12.0286 18.5961 11.9508 18.5199C11.873 18.4437 11.8276 18.3405 11.8242 18.2316C11.8207 18.1228 11.8595 18.0169 11.9323 17.9359C12.0051 17.855 12.1064 17.8053 12.215 17.7973C12.231 17.796 13.6399 17.7943 14.7152 17.793C15.3573 17.7922 15.8805 17.7915 15.9168 17.7912ZM5.4397 18.203C5.43798 18.2021 5.43625 18.2012 5.43452 18.2004C5.43805 18.202 5.44161 18.2038 5.44517 18.2058L5.4397 18.203Z" fill="#45A845" stroke="#45A845" stroke-width="0.3375"/>
<path d="M7.63594 12.3129L7.63594 12.3127L7.63594 10.6252C7.63594 10.6252 7.63594 10.6252 7.63594 10.6252C7.63592 10.5476 7.65119 10.4708 7.68086 10.3992C7.71053 10.3275 7.75404 10.2624 7.8089 10.2075H7.8089L7.63594 12.3129ZM7.63594 12.3129C7.63635 12.6931 7.78759 13.0577 8.05646 13.3265C8.32533 13.5954 8.68988 13.7466 9.07013 13.7471H9.07031H17.9297H17.9299C18.3101 13.7466 18.6747 13.5954 18.9435 13.3265C19.2124 13.0577 19.3636 12.6931 19.3641 12.3129V12.3127V3.45331V3.45312C19.3636 3.07288 19.2124 2.70833 18.9435 2.43946C18.6747 2.17058 18.3101 2.01935 17.9299 2.01893L17.9296 2.01893C16.4821 2.01975 14.7405 2.01942 13.0281 2.01909C11.6309 2.01883 10.2531 2.01856 9.07026 2.01893L9.07013 2.01893C8.68988 2.01935 8.32533 2.17058 8.05646 2.43945C7.78758 2.70833 7.63635 3.07288 7.63594 3.45312V3.45331V8.51581H7.63591L7.63597 8.51901C7.63891 8.67371 7.70243 8.82108 7.81287 8.92943C7.92331 9.03779 8.07186 9.0985 8.22658 9.09849C8.3813 9.09849 8.52985 9.03778 8.64028 8.92941C8.75072 8.82104 8.81423 8.67368 8.81716 8.51898L8.81719 8.51898V8.51578L8.81719 3.45348C8.81719 3.45344 8.81719 3.45341 8.81719 3.45338C8.81728 3.38626 8.84399 3.32191 8.89145 3.27444C8.93891 3.22698 9.00326 3.20028 9.07038 3.20018C9.07041 3.20018 9.07045 3.20018 9.07048 3.20018L11.4328 3.20018V5.14081L11.4328 5.141C11.4331 5.40939 11.5399 5.66669 11.7296 5.85647C11.9194 6.04625 12.1767 6.153 12.4451 6.15331H12.4453H14.5547L14.5549 6.15331C14.8233 6.153 15.0806 6.04625 15.2704 5.85647C15.4601 5.66669 15.5669 5.40939 15.5672 5.141V5.14081V3.20018L17.9295 3.20018C17.9296 3.20018 17.9296 3.20018 17.9296 3.20018C17.9967 3.20028 18.0611 3.22698 18.1086 3.27444C18.156 3.32193 18.1827 3.38632 18.1828 3.45348V12.3125C18.1827 12.3797 18.156 12.4441 18.1086 12.4915C18.0611 12.539 17.9967 12.5657 17.9295 12.5658H9.07048C9.00332 12.5657 8.93894 12.539 8.89145 12.4915C8.84399 12.4441 8.81728 12.3797 8.81719 12.3126C8.81719 12.3126 8.81719 12.3125 8.81719 12.3125L8.81719 10.6252C8.81719 10.6252 8.81719 10.6252 8.81719 10.6252C8.8172 10.5476 8.80194 10.4708 8.77227 10.3992C8.74259 10.3275 8.69908 10.2624 8.64423 10.2075C8.58938 10.1527 8.52425 10.1092 8.45258 10.0795C8.38094 10.0498 8.30415 10.0345 8.22661 10.0346L7.63594 12.3129ZM14.386 3.20018L14.3863 4.97206H12.6141V3.20018H14.386Z" fill="#45A845" stroke="#45A845" stroke-width="0.3375"/>
</svg>
