<svg width="20" height="20" viewBox="0 0 20 20" fill="none" xmlns="http://www.w3.org/2000/svg">
<g id="procurement 1">
<path id="Vector" d="M11.7904 12.8088L11.7892 12.6838C11.7628 12.6841 11.3774 12.6845 10.903 12.6851C10.7418 12.6853 10.5703 12.6855 10.3992 12.6857L9.47432 12.6871L9.16819 12.6877L9.08074 12.688L9.07581 12.6881C9.06226 12.6881 9.04657 12.6882 9.03908 12.6887L9.03908 12.6887C8.92649 12.697 8.82146 12.7485 8.74594 12.8324C8.67042 12.9163 8.63024 13.0262 8.63381 13.139C8.63738 13.2518 8.68442 13.3589 8.7651 13.4379C8.84577 13.5169 8.95385 13.5616 9.06674 13.5628L9.06818 13.5628L11.3901 13.5594C11.9055 13.6091 12.3848 13.4971 12.7389 13.2283C13.0974 12.9562 13.3153 12.5323 13.3161 11.9885L13.3162 11.9885L13.3159 11.9826C13.2981 11.5887 13.1303 11.2165 12.8469 10.9423C12.5635 10.6682 12.1859 10.5128 11.7916 10.5081L11.7916 10.508L11.7853 10.5082C11.7041 10.5114 10.5888 10.5104 9.47599 10.5095C8.92112 10.509 8.3687 10.5086 7.94954 10.5086C7.73998 10.5087 7.56361 10.5088 7.43686 10.5092C7.32258 10.5095 7.24125 10.51 7.2174 10.5111L7.2174 10.5111C6.77093 10.5304 6.34747 10.7145 6.0288 11.0278L6.02799 11.0286C6.02668 11.0299 6.01645 11.0404 5.99849 11.0588C5.87886 11.1811 5.4163 11.654 4.96296 12.1093C4.69971 12.3737 4.43651 12.6353 4.23653 12.8278C4.13633 12.9243 4.05314 13.0024 3.99414 13.0546C3.9817 13.0656 3.97072 13.0751 3.96118 13.0832C3.83689 13.0344 3.70171 13.0183 3.56867 13.037C3.41081 13.0592 3.26357 13.1293 3.14685 13.2379L3.14679 13.2378L3.14352 13.2411C3.14209 13.2425 3.13301 13.2516 3.11754 13.2671C3.03923 13.3454 2.79709 13.5874 2.55298 13.8318C2.26461 14.1206 1.96503 14.421 1.94523 14.4438L1.94497 14.4441C1.82045 14.5882 1.75416 14.7735 1.75904 14.9639C1.76392 15.1543 1.83963 15.3361 1.97137 15.4736L1.97133 15.4736L1.97414 15.4764C2.00821 15.5098 2.58395 16.0865 3.23823 16.7418C3.35564 16.8594 3.47558 16.9796 3.59538 17.0996C3.98874 17.4936 4.38013 17.8855 4.67433 18.18L5.03088 18.5365L5.13229 18.6377L5.16009 18.6653L5.16115 18.6663C5.1641 18.6693 5.17036 18.6755 5.1756 18.6802L5.17558 18.6802C5.31946 18.8076 5.50616 18.876 5.6983 18.8716C5.89043 18.8672 6.07381 18.7903 6.2117 18.6565L6.21171 18.6565L6.21307 18.6551L6.22965 18.6385C6.37148 18.4966 7.36227 17.5054 7.40822 17.4559L7.40926 17.4548C7.52091 17.3316 7.58787 17.1746 7.59965 17.0091C7.60859 16.9688 7.60398 16.931 7.60078 16.9094C7.60051 16.9076 7.60023 16.9058 7.59995 16.904C8.15418 16.8275 8.91284 16.723 9.66074 16.6201C10.8191 16.4607 11.9516 16.3048 12.259 16.2615L12.259 16.2616L12.2637 16.2607C12.6628 16.1887 13.0313 15.9995 13.3224 15.7172L13.3224 15.7172L13.3242 15.7154C13.3655 15.6737 13.9527 15.0855 14.6906 14.3465C16.0017 13.0332 17.7885 11.2434 17.8336 11.1965L17.8337 11.1966C18.1017 10.9093 18.249 10.53 18.245 10.1371C18.241 9.74499 18.0866 9.36938 17.8137 9.08783C17.675 8.9354 17.5069 8.81258 17.3195 8.72676L17.2675 8.84041L17.3195 8.72676C17.1315 8.64064 16.9279 8.59356 16.7212 8.58837C16.5144 8.58318 16.3088 8.61999 16.1166 8.69658C15.9245 8.77316 15.7499 8.88792 15.6034 9.03392L15.6032 9.03417L13.8252 10.8162L13.8252 10.8162L13.8235 10.818C13.7442 10.9007 13.7005 11.0112 13.7018 11.1257C13.7031 11.2403 13.7493 11.3497 13.8304 11.4306C13.9115 11.5115 14.0211 11.5573 14.1356 11.5583C14.2501 11.5593 14.3605 11.5153 14.443 11.4358L14.443 11.4358L14.4447 11.4341L16.2216 9.65309C16.3824 9.4973 16.5561 9.44612 16.7163 9.45865C16.88 9.47145 17.039 9.55169 17.1613 9.67479C17.2836 9.7979 17.363 9.95772 17.3753 10.1215C17.3873 10.2819 17.3357 10.4545 17.1811 10.6127C17.181 10.6128 17.1808 10.6129 17.1807 10.6131L12.7061 15.0962C12.706 15.0963 12.7059 15.0964 12.7058 15.0965C12.5384 15.2621 12.322 15.3694 12.0888 15.4025C11.4851 15.4858 10.8031 15.5795 10.1082 15.6751C9.04354 15.8214 7.94854 15.9719 7.05832 16.0955L5.42482 14.4618L5.42484 14.4618L5.42276 14.4598C5.33999 14.3807 5.22954 14.3372 5.11508 14.3386C5.00063 14.34 4.89128 14.3862 4.81049 14.4673C4.72969 14.5484 4.68388 14.6579 4.68286 14.7724C4.68185 14.8868 4.72572 14.9971 4.80507 15.0796L4.80505 15.0796L4.80678 15.0814L6.67673 16.951L5.68036 17.9487L2.68016 14.9446L3.6762 13.9477L3.70404 13.9756L3.704 13.9756L3.70694 13.9784C3.79016 14.0566 3.90013 14.1 4.01433 14.0998C4.12811 14.0995 4.2375 14.0559 4.32025 13.9778C4.38113 13.922 4.95402 13.3459 5.51449 12.7824L5.55694 12.7397C5.82643 12.4687 6.09164 12.202 6.29594 11.9971C6.40346 11.8893 6.494 11.7986 6.55937 11.7335C6.59208 11.701 6.61833 11.6749 6.6372 11.6564C6.6503 11.6435 6.65807 11.636 6.66184 11.6324C6.66336 11.6309 6.66423 11.6301 6.66453 11.6298L6.66457 11.6298L6.66795 11.6268C6.83388 11.4768 7.04795 11.3911 7.27151 11.3851C7.33139 11.3853 7.9663 11.3849 8.74364 11.3844C9.01175 11.3842 9.2968 11.3841 9.58105 11.3839C10.1407 11.3836 10.6975 11.3833 11.1164 11.3832L11.6243 11.3833C11.7026 11.3833 11.7573 11.3834 11.7879 11.3835C11.8073 11.3835 11.8169 11.3835 11.8165 11.3835L11.8174 11.3836C11.9861 11.3927 12.1446 11.4671 12.2594 11.5909C12.3743 11.7148 12.4364 11.8785 12.4327 12.0474C12.4291 12.2163 12.3598 12.3771 12.2397 12.4959C12.1196 12.6147 11.958 12.6821 11.7891 12.6838L11.7904 12.8088ZM11.7904 12.8088C11.9917 12.8067 12.1844 12.7264 12.3276 12.5848C12.4708 12.4432 12.5533 12.2515 12.5577 12.0501C12.5621 11.8488 12.488 11.6537 12.3511 11.506C12.2142 11.3583 12.0253 11.2696 11.8242 11.2587L9.06802 13.4378C8.98738 13.437 8.91017 13.405 8.85254 13.3486C8.7949 13.2922 8.7613 13.2157 8.75875 13.135C8.7562 13.0544 8.7849 12.976 8.83885 12.916C8.8928 12.8561 8.96783 12.8193 9.04826 12.8133C9.06008 12.8124 10.1039 12.8111 10.9004 12.8101C11.376 12.8095 11.7634 12.8091 11.7904 12.8088ZM4.02952 13.1138C4.02824 13.1132 4.02695 13.1125 4.02566 13.1119C4.02829 13.1131 4.03093 13.1144 4.03358 13.1159L4.02952 13.1138Z" fill="#D94841" stroke="#D94841" stroke-width="0.25"/>
<path id="Vector_2" d="M5.65723 8.74991L5.65723 8.74977L5.65723 7.4998C5.65723 7.49979 5.65723 7.49978 5.65723 7.49977C5.65722 7.44232 5.66852 7.38543 5.6905 7.33235C5.71248 7.27926 5.74471 7.23102 5.78534 7.19039L5.78534 7.19039C5.82598 7.14975 5.87422 7.11753 5.9273 7.09554C5.98037 7.07357 6.03725 7.06226 6.09469 7.06227L5.65723 8.74991ZM5.65723 8.74991C5.65753 9.03157 5.76956 9.30161 5.96873 9.50077C6.16789 9.69994 6.43793 9.81196 6.71959 9.81227H6.71973M5.65723 8.74991L6.71973 9.81227M6.71973 9.81227H13.2822H13.2824M6.71973 9.81227H13.2824M13.2824 9.81227C13.564 9.81196 13.8341 9.69994 14.0332 9.50077C14.2324 9.30161 14.3444 9.03157 14.3447 8.74991V8.74977M13.2824 9.81227L14.3447 8.74977M14.3447 8.74977V2.18727V2.18713M14.3447 8.74977V2.18713M14.3447 2.18713C14.3444 1.90547 14.2324 1.63543 14.0332 1.43627C13.8341 1.2371 13.564 1.12508 13.2824 1.12477L13.2822 1.12477M14.3447 2.18713L13.2822 1.12477M13.2822 1.12477C12.21 1.12538 10.9199 1.12513 9.6514 1.12489C8.61645 1.12469 7.59586 1.1245 6.71969 1.12477L6.71959 1.12477M13.2822 1.12477L6.71959 1.12477M6.71959 1.12477C6.43793 1.12507 6.16789 1.2371 5.96872 1.43627C5.76956 1.63543 5.65753 1.90547 5.65723 2.18713V2.18727M6.71959 1.12477L5.65723 2.18727M5.65723 2.18727V5.93727H5.6572M5.65723 2.18727L5.6572 5.93727M5.6572 5.93727L5.65725 5.93964M5.6572 5.93727L5.65725 5.93964M5.65725 5.93964C5.65943 6.05423 5.70648 6.16339 5.78829 6.24366M5.65725 5.93964L5.78829 6.24366M8.46973 1.99977L6.71985 1.99977C6.67011 1.99982 6.62241 2.0196 6.58724 2.05478C6.55207 2.08994 6.53229 2.13761 6.53223 2.18734C6.53223 2.18736 6.53223 2.18738 6.53223 2.18739L6.53223 5.93725V5.93962L6.5322 5.93962C6.53003 6.05421 6.48299 6.16337 6.40119 6.24364C6.31938 6.32391 6.20935 6.36888 6.09474 6.36889C5.98013 6.36889 5.87009 6.32393 5.78829 6.24366M8.46973 1.99977L5.78829 6.24366C5.78829 6.24366 5.78829 6.24366 5.78829 6.24366M8.46973 1.99977V3.43727V3.43741C8.46995 3.63622 8.54903 3.82681 8.68961 3.96739C8.83018 4.10797 9.02078 4.18704 9.21958 4.18727H9.21973H10.7822H10.7824C10.9812 4.18704 11.1718 4.10797 11.3123 3.96739C11.4529 3.82681 11.532 3.63622 11.5322 3.43741V3.43727V1.99977L13.2821 1.99977C13.2821 1.99977 13.2821 1.99977 13.2822 1.99977C13.3319 1.99983 13.3796 2.01961 13.4147 2.05478C13.4499 2.08995 13.4697 2.13765 13.4697 2.18739V8.74964C13.4697 8.79939 13.4499 8.84708 13.4147 8.88226C13.3795 8.91744 13.3318 8.93722 13.2821 8.93727H6.71985C6.67011 8.93722 6.62241 8.91744 6.58724 8.88226C6.55206 8.84708 6.53228 8.79939 6.53223 8.74964L6.53223 7.4998C6.53223 7.49979 6.53223 7.49978 6.53223 7.49977C6.53224 7.44232 6.52093 7.38543 6.49895 7.33235C6.47697 7.27926 6.44474 7.23102 6.40411 7.19039C6.36348 7.14975 6.31524 7.11753 6.26215 7.09554C6.20908 7.07357 6.1522 7.06226 6.09476 7.06227L8.46973 1.99977ZM10.6573 1.99977L10.6575 3.31227H9.34473V1.99977H10.6573Z" fill="#D94841" stroke="#D94841" stroke-width="0.25"/>
</g>
</svg>
