<svg width="24" height="24" viewBox="0 0 24 24" fill="none" xmlns="http://www.w3.org/2000/svg">
<path d="M3.2164 17.9341L4.41165 16.7378L4.44506 16.7713L4.44501 16.7713L4.44854 16.7747C4.5484 16.8685 4.68037 16.9206 4.81741 16.9203C4.95394 16.92 5.08521 16.8677 5.18451 16.774C5.25757 16.707 5.94503 16.0157 6.6176 15.3394L6.6689 15.2878C6.99216 14.9628 7.31027 14.6429 7.55533 14.3971C7.68436 14.2677 7.79301 14.1589 7.87146 14.0808C7.91071 14.0417 7.94221 14.0105 7.96486 13.9883C7.98416 13.9693 7.99382 13.9601 7.99678 13.9572C7.9972 13.9568 7.99749 13.9565 7.99765 13.9563L7.99769 13.9564L8.00175 13.9527C8.20086 13.7727 8.45775 13.6699 8.72602 13.6627C8.79789 13.6629 9.55966 13.6625 10.4924 13.6619C10.8142 13.6617 11.1563 13.6615 11.4975 13.6613C12.169 13.6609 12.8372 13.6605 13.3398 13.6604L13.9493 13.6605C14.0433 13.6606 14.109 13.6607 14.1456 13.6607C14.169 13.6608 14.1805 13.6608 14.18 13.6608L14.1811 13.6609C14.3835 13.6718 14.5737 13.761 14.7115 13.9097C14.8493 14.0584 14.9239 14.2548 14.9195 14.4575C14.9151 14.6601 14.832 14.8531 14.6879 14.9957C14.5437 15.1382 14.3498 15.2191 14.1471 15.2212C14.1134 15.2215 13.6513 15.222 13.083 15.2227C12.8898 15.2229 12.6843 15.2232 12.4792 15.2235C12.0747 15.224 11.6722 15.2245 11.3694 15.2251L11.002 15.2259L10.8971 15.2262L10.8912 15.2263C10.8749 15.2263 10.8561 15.2264 10.8471 15.227L10.8471 15.227C10.712 15.237 10.586 15.2988 10.4953 15.3995C10.4047 15.5002 10.3565 15.632 10.3608 15.7674C10.3651 15.9028 10.4215 16.0313 10.5183 16.1261C10.6151 16.2208 10.7448 16.2745 10.8803 16.2759V16.2759L10.882 16.2759L13.6683 16.2719C14.2868 16.3315 14.862 16.1971 15.2869 15.8746C15.717 15.548 15.9785 15.0393 15.9795 14.3867L15.9797 14.3867L15.9793 14.3797C15.958 13.907 15.7566 13.4604 15.4165 13.1314C15.0764 12.8024 14.6233 12.616 14.1501 12.6103L14.1501 12.6101L14.1425 12.6104C14.0451 12.6142 12.7067 12.6131 11.3714 12.612C10.7056 12.6114 10.0427 12.6109 9.53966 12.6109C9.28818 12.611 9.07654 12.6112 8.92444 12.6116C8.7873 12.612 8.68971 12.6125 8.66109 12.6139L8.66109 12.6139C8.12533 12.6371 7.61717 12.858 7.23477 13.234L7.2338 13.2349C7.23222 13.2365 7.21994 13.2491 7.19838 13.2711C7.05479 13.4179 6.49977 13.9854 5.95576 14.5318C5.63986 14.849 5.32402 15.1629 5.08405 15.394C4.96381 15.5097 4.86398 15.6034 4.79318 15.6661C4.77825 15.6793 4.76508 15.6907 4.75363 15.7004C4.60448 15.6419 4.44226 15.6225 4.28261 15.645C4.09318 15.6716 3.91649 15.7558 3.77643 15.886L3.77636 15.886L3.77244 15.8899C3.77071 15.8916 3.75977 15.9026 3.74111 15.9212C3.64698 16.0153 3.35658 16.3056 3.06379 16.5988C2.71774 16.9453 2.35825 17.3058 2.33448 17.3331L2.33417 17.3335C2.18475 17.5064 2.1052 17.7288 2.11106 17.9573C2.11692 18.1858 2.20777 18.4039 2.36586 18.5689L2.3658 18.569L2.36918 18.5723C2.41006 18.6124 3.10118 19.3046 3.88647 20.0912C4.02724 20.2322 4.17104 20.3762 4.31466 20.5201C4.78669 20.9929 5.25637 21.4632 5.60941 21.8165L6.03727 22.2444L6.15896 22.3658L6.19231 22.3989C6.19491 22.4015 6.20372 22.4103 6.21093 22.4168L6.21091 22.4168C6.38356 22.5697 6.6076 22.6518 6.83817 22.6465C7.06873 22.6412 7.28879 22.549 7.45425 22.3883L7.45426 22.3883L7.45589 22.3867L7.47513 22.3675C7.64288 22.1996 8.83486 21.0071 8.89007 20.9477L8.89008 20.9477L8.89132 20.9463C9.0253 20.7985 9.10566 20.6101 9.11979 20.4115C9.13051 20.3632 9.12499 20.3178 9.12115 20.2919C9.12083 20.2897 9.12049 20.2876 9.12015 20.2854C9.78565 20.1935 10.6968 20.0681 11.5949 19.9445C12.9843 19.7532 14.3423 19.5663 14.711 19.5144L14.711 19.5145L14.7167 19.5135C15.1955 19.427 15.6378 19.1999 15.9871 18.8612L15.9871 18.8612L15.9892 18.8591C16.0389 18.809 16.7436 18.1032 17.629 17.2162C19.2024 15.6403 21.3464 13.4928 21.4006 13.4364L21.4006 13.4365C21.7223 13.0918 21.899 12.6366 21.8942 12.1652C21.8895 11.6946 21.7042 11.2438 21.3767 10.906C21.2102 10.7231 21.0085 10.5757 20.7836 10.4727C20.558 10.3694 20.3137 10.3129 20.0656 10.3066C19.8175 10.3004 19.5707 10.3446 19.3402 10.4365C19.1096 10.5284 18.9001 10.6661 18.7243 10.8413L18.724 10.8416L16.5905 12.9801L16.5904 12.9801L16.5884 12.9822C16.4933 13.0814 16.4408 13.214 16.4424 13.3515C16.4439 13.4889 16.4993 13.6202 16.5967 13.7173C16.694 13.8144 16.8255 13.8694 16.9629 13.8705C17.1004 13.8717 17.2328 13.8189 17.3318 13.7235L17.3318 13.7236L17.3338 13.7215L19.4653 11.5851C19.4656 11.5848 19.4659 11.5846 19.4661 11.5843C19.6591 11.3973 19.8675 11.3359 20.0598 11.351C20.2562 11.3663 20.4471 11.4626 20.5938 11.6103C20.7405 11.7581 20.8358 11.9499 20.8505 12.1464C20.8649 12.3389 20.8031 12.5461 20.6175 12.7358C20.6173 12.736 20.6172 12.7361 20.6171 12.7363L15.2475 18.1161C15.2474 18.1162 15.2473 18.1163 15.2472 18.1164C15.0462 18.3152 14.7866 18.4439 14.5068 18.4836C13.7825 18.5835 12.9643 18.696 12.1305 18.8106C10.8528 18.9862 9.53858 19.1668 8.47019 19.3152L6.51 17.3547L6.51002 17.3547L6.50753 17.3523C6.4082 17.2574 6.27566 17.2053 6.13831 17.2069C6.00097 17.2086 5.86975 17.2641 5.7728 17.3614C5.67584 17.4587 5.62086 17.5901 5.61965 17.7274C5.61843 17.8648 5.67107 17.9971 5.76629 18.0961L5.76627 18.0962L5.76834 18.0982L8.01229 20.3418L6.81664 21.539L3.2164 17.9341ZM4.83563 15.7372C4.8341 15.7364 4.83255 15.7356 4.83101 15.7348C4.83416 15.7363 4.83733 15.7379 4.8405 15.7397L4.83563 15.7372Z" fill="#D94841" stroke="#D94841" stroke-width="0.3"/>
<path d="M6.788 10.5003L6.788 10.5002L6.788 9.0002C6.788 9.00019 6.788 9.00017 6.788 9.00016C6.78799 8.93122 6.80156 8.86295 6.82793 8.79926C6.85431 8.73555 6.89298 8.67766 6.94174 8.6289C6.9905 8.58014 7.04839 8.54147 7.1121 8.51509C7.17578 8.48872 7.24404 8.47515 7.31297 8.47516L6.788 10.5003ZM6.788 10.5003C6.78837 10.8383 6.9228 11.1624 7.1618 11.4014C7.4008 11.6404 7.72485 11.7748 8.06284 11.7752H8.063M6.788 10.5003L8.063 11.7752M8.063 11.7752L15.938 11.7752L15.9382 11.7752M8.063 11.7752H15.9382M15.9382 11.7752C16.2762 11.7748 16.6002 11.6404 16.8392 11.4014C17.0782 11.1624 17.2126 10.8383 17.213 10.5003V10.5002M15.9382 11.7752L17.213 10.5002M17.213 10.5002L17.213 2.62516L17.213 2.625M17.213 10.5002V2.625M17.213 2.625C17.2126 2.287 17.0782 1.96296 16.8392 1.72396C16.6002 1.48496 16.2762 1.35053 15.9382 1.35016L15.9379 1.35016M17.213 2.625L15.9379 1.35016M15.9379 1.35016C14.6513 1.35089 13.1032 1.3506 11.581 1.3503C10.3391 1.35007 9.11436 1.34983 8.06296 1.35016L8.06284 1.35016M15.9379 1.35016L8.06284 1.35016M8.06284 1.35016C7.72485 1.35053 7.4008 1.48496 7.1618 1.72396C6.9228 1.96296 6.78837 2.287 6.788 2.625V2.62516M8.06284 1.35016L6.788 2.62516M6.788 2.62516V7.12516H6.78798M6.788 2.62516L6.78798 7.12516M6.78798 7.12516L6.78803 7.12801M6.78798 7.12516L6.78803 7.12801M6.78803 7.12801C6.79064 7.26552 6.8471 7.39651 6.94527 7.49283L6.94527 7.49283M6.78803 7.12801L6.94527 7.49283M6.94527 7.49283C7.04344 7.58915 7.17549 7.64311 7.31302 7.6431C7.45055 7.6431 7.58259 7.58913 7.68075 7.49281C7.77892 7.39648 7.83537 7.26549 7.83798 7.12798L7.838 7.12798M6.94527 7.49283L7.838 7.12798M7.838 7.12798V7.12514M7.838 7.12798V7.12514M7.838 7.12514V2.62521C7.83809 2.56555 7.86183 2.50836 7.90401 2.46617C7.9462 2.42399 8.0034 2.40025 8.06306 2.40016H10.163M7.838 7.12514L10.163 2.40016M10.163 2.40016V4.12516L10.163 4.12533C10.1633 4.3639 10.2582 4.59262 10.4269 4.76131C10.5956 4.93 10.8243 5.02489 11.0628 5.02516H11.063H12.938L12.9382 5.02516C13.1767 5.02489 13.4055 4.93 13.5741 4.76131C13.7428 4.59262 13.8377 4.3639 13.838 4.12533V4.12516V2.40016H15.938C15.9976 2.40025 16.0548 2.42399 16.097 2.46617L16.2031 2.36011L16.097 2.46617C16.1392 2.50838 16.1629 2.56562 16.163 2.62531V10.5C16.1629 10.5597 16.1392 10.6169 16.097 10.6592C16.0548 10.7014 15.9975 10.7251 15.9379 10.7252H8.06315C8.00346 10.7251 7.94623 10.7014 7.90401 10.6592C7.86183 10.617 7.83809 10.5598 7.838 10.5001V9.0002C7.838 9.00019 7.838 9.00017 7.838 9.00016C7.83802 8.93122 7.82445 8.86295 7.79807 8.79926C7.77169 8.73555 7.73302 8.67766 7.68426 8.6289L7.5782 8.73497L7.68426 8.6289C7.6355 8.58014 7.57762 8.54147 7.51391 8.51509C7.45022 8.48872 7.38197 8.47515 7.31304 8.47516L10.163 2.40016ZM12.788 2.40016L12.7883 3.97516H11.213V2.40016H12.788Z" fill="#D94841" stroke="#D94841" stroke-width="0.3"/>
</svg>
