<svg width="16" height="16" viewBox="0 0 16 16" fill="none" xmlns="http://www.w3.org/2000/svg">
<path d="M6.59375 14.25C6.50001 14.25 6.40624 14.25 6.3125 14.1563L0.687507 9.00001C0.593741 8.90624 0.5 8.71876 0.5 8.62499C0.5 8.53123 0.593741 8.34374 0.687507 8.25L6.3125 3.09374C6.40624 3 6.59375 3 6.78125 3C6.96876 3.09374 7.0625 3.28125 7.0625 3.46876V7.21875C7.0625 7.5 6.87499 7.68751 6.59375 7.68751C6.3125 7.68751 6.12499 7.5 6.12499 7.21875V4.50001L1.62499 8.62499L6.12499 12.75V10.0313C6.12499 9.75001 6.3125 9.5625 6.59375 9.5625H11.2813C12.5938 9.5625 13.8125 10.2187 14.5625 11.1563V10.9687C14.5625 9.18749 13.0625 7.68751 11.2813 7.68751H8.46874C8.1875 7.68751 7.99999 7.5 7.99999 7.21875C7.99999 6.9375 8.1875 6.74999 8.46874 6.74999H11.2813C13.625 6.74999 15.5 8.62499 15.5 10.9687V13.7813C15.5 14.0625 15.3125 14.25 15.0312 14.25C14.75 14.25 14.5625 14.0625 14.5625 13.7813C14.5625 12 13.0625 10.5 11.2813 10.5H7.0625V13.7813C7.0625 13.9688 6.96876 14.1562 6.78125 14.25C6.68749 14.25 6.68749 14.25 6.59375 14.25Z" fill="#4A86F7" stroke="#4A86F7" stroke-width="0.4"/>
</svg>
