<svg width="24" height="25" viewBox="0 0 24 25" fill="none" xmlns="http://www.w3.org/2000/svg">
<g clip-path="url(#clip0_4037_28294)">
<path d="M17 10.8333C13.14 10.8333 10 13.9733 10 17.8333C10 21.6933 13.14 24.8333 17 24.8333C20.86 24.8333 24 21.6933 24 17.8333C24 13.9733 20.86 10.8333 17 10.8333ZM17 22.8333C14.24 22.8333 12 20.5933 12 17.8333C12 15.0733 14.24 12.8333 17 12.8333C19.76 12.8333 22 15.0733 22 17.8333C22 20.5933 19.76 22.8333 17 22.8333ZM18.5 15.3333C18.5 16.1633 17.83 16.8333 17 16.8333C16.17 16.8333 15.5 16.1633 15.5 15.3333C15.5 14.5033 16.17 13.8333 17 13.8333C17.83 13.8333 18.5 14.5033 18.5 15.3333ZM18 18.8333V20.8333C18 21.3833 17.55 21.8333 17 21.8333C16.45 21.8333 16 21.3833 16 20.8333V18.8333C16 18.2833 16.45 17.8333 17 17.8333C17.55 17.8333 18 18.2833 18 18.8333ZM9 21.8333C9 22.3833 8.55 22.8333 8 22.8333H5C2.24 22.8333 0 20.5933 0 17.8333V5.83325C0 3.07325 2.24 0.833252 5 0.833252H10.76C11.81 0.833252 12.84 1.26325 13.59 2.00325L16.83 5.24325C17.5 5.91325 17.91 6.80325 17.99 7.74325C18.03 8.29325 17.62 8.77325 17.07 8.82325C17.04 8.82325 17.02 8.82325 16.99 8.82325C16.47 8.82325 16.04 8.42325 15.99 7.90325C15.99 7.87325 15.99 7.85325 15.99 7.82325H13.01C11.91 7.82325 11.01 6.92325 11.01 5.82325V2.85325C10.93 2.85325 10.85 2.83325 10.77 2.83325H5C3.35 2.83325 2 4.18325 2 5.83325V17.8333C2 19.4833 3.35 20.8333 5 20.8333H8C8.55 20.8333 9 21.2833 9 21.8333Z" fill="white"/>
</g>
<defs>
<clipPath id="clip0_4037_28294">
<rect width="24" height="24" fill="white" transform="translate(0 0.833252)"/>
</clipPath>
</defs>
</svg>
