<svg width="18" height="18" viewBox="0 0 18 18" fill="none" xmlns="http://www.w3.org/2000/svg">
<path d="M15.6666 1.00012H10.1249C9.75826 1.00012 9.24588 1.2125 8.98686 1.47133L1.3891 9.06905C0.870319 9.58725 0.870319 10.4368 1.3891 10.9544L7.04625 16.6114C7.56386 17.1296 8.41265 17.1296 8.93104 16.6108L16.5288 9.01424C16.7876 8.75546 17 8.24226 17 7.87644V2.33351C17 1.60031 16.3998 1.00012 15.6666 1.00012ZM12.9998 6.33348C12.2634 6.33348 11.6664 5.73587 11.6664 5.00009C11.6664 4.26311 12.2634 3.6667 12.9998 3.6667C13.7362 3.6667 14.3334 4.26311 14.3334 5.00009C14.3334 5.73587 13.7362 6.33348 12.9998 6.33348Z" fill="white"/>
<path d="M8.63331 1.11778L8.63344 1.11764C8.82299 0.928241 9.07807 0.778666 9.32418 0.676724C9.5703 0.574783 9.85658 0.500122 10.1249 0.500122H15.6666C16.6759 0.500122 17.5 1.32416 17.5 2.33351V7.87644C17.5 8.1444 17.4253 8.4307 17.3234 8.67676C17.2215 8.92281 17.0719 9.17821 16.8824 9.3678L16.8823 9.36782L9.28473 16.9642C9.28467 16.9643 9.28462 16.9643 9.28457 16.9644C8.57105 17.6783 7.40555 17.6786 6.6925 16.9647M8.63331 1.11778L7.04625 16.6114M8.63331 1.11778L1.03575 8.71529M8.63331 1.11778L1.03575 8.71529M6.6925 16.9647L7.04625 16.6114M6.6925 16.9647L6.6927 16.9649L7.04625 16.6114M6.6925 16.9647L1.03596 11.3084M7.04625 16.6114L1.3891 10.9544C0.870319 10.4368 0.870319 9.58725 1.3891 9.06905M1.03596 11.3084L1.3891 10.9544L1.03556 11.308L1.03596 11.3084ZM1.03596 11.3084C0.321314 10.5954 0.321555 9.4289 1.03555 8.71549L1.3891 9.06905M1.3891 9.06905L1.03575 8.71529M1.3891 9.06905L1.03575 8.71529M13.8334 5.00009V5.00012C13.8334 5.45976 13.46 5.83348 12.9998 5.83348C12.5397 5.83348 12.1664 5.45988 12.1664 5.00009C12.1664 4.53939 12.5394 4.1667 12.9998 4.1667C13.4603 4.1667 13.8334 4.53949 13.8334 5.00009Z" stroke="black" stroke-opacity="0.3"/>
</svg>
