<svg width="24" height="25" viewBox="0 0 24 25" fill="none" xmlns="http://www.w3.org/2000/svg">
<path d="M17 10.5C13.14 10.5 10 13.64 10 17.5C10 21.36 13.14 24.5 17 24.5C20.86 24.5 24 21.36 24 17.5C24 13.64 20.86 10.5 17 10.5ZM17 22.5C14.24 22.5 12 20.26 12 17.5C12 14.74 14.24 12.5 17 12.5C19.76 12.5 22 14.74 22 17.5C22 20.26 19.76 22.5 17 22.5ZM18.5 15C18.5 15.83 17.83 16.5 17 16.5C16.17 16.5 15.5 15.83 15.5 15C15.5 14.17 16.17 13.5 17 13.5C17.83 13.5 18.5 14.17 18.5 15ZM18 18.5V20.5C18 21.05 17.55 21.5 17 21.5C16.45 21.5 16 21.05 16 20.5V18.5C16 17.95 16.45 17.5 17 17.5C17.55 17.5 18 17.95 18 18.5ZM9 21.5C9 22.05 8.55 22.5 8 22.5H5C2.24 22.5 0 20.26 0 17.5V5.5C0 2.74 2.24 0.5 5 0.5H10.76C11.81 0.5 12.84 0.93 13.59 1.67L16.83 4.91C17.5 5.58 17.91 6.47 17.99 7.41C18.03 7.96 17.62 8.44 17.07 8.49C17.04 8.49 17.02 8.49 16.99 8.49C16.47 8.49 16.04 8.09 15.99 7.57C15.99 7.54 15.99 7.52 15.99 7.49H13.01C11.91 7.49 11.01 6.59 11.01 5.49V2.52C10.93 2.52 10.85 2.5 10.77 2.5H5C3.35 2.5 2 3.85 2 5.5V17.5C2 19.15 3.35 20.5 5 20.5H8C8.55 20.5 9 20.95 9 21.5Z" fill="#05A155"/>
</svg>
