<svg width="20" height="20" viewBox="0 0 20 20" fill="none" xmlns="http://www.w3.org/2000/svg">
<g clip-path="url(#clip0_4672_21874)">
<path d="M9.10289 18.1987C8.95621 18.3425 8.76265 18.4216 8.55703 18.4216C8.55683 18.4216 8.55664 18.4216 8.55644 18.4216C8.34812 18.4215 8.15234 18.3402 8.00519 18.1928L1.78605 11.9646C1.48281 11.6609 1.48281 11.1666 1.78609 10.8628L11.0528 1.57837H18.4014V8.90809L17.2288 10.0699L18.3264 11.1778L19.961 9.55837V0.0187988H10.4059L0.682299 9.76102C-0.227466 10.6724 -0.227466 12.1552 0.682377 13.0666L6.90164 19.2949C7.3432 19.7371 7.93046 19.9808 8.55535 19.9813C8.55593 19.9813 8.55644 19.9813 8.55703 19.9813C9.18124 19.9813 9.76828 19.7384 10.21 19.2972L11.1669 18.2981L10.0403 17.2196L9.10289 18.1987Z" fill="#D94841"/>
<path d="M16.7249 15.1466V11.8715H15.1654V15.1466H11.8903V16.7061H15.1654V19.9813H16.7249V16.7061H20V15.1466H16.7249Z" fill="#D94841"/>
<path d="M15.1264 5.6332C15.557 5.6332 15.9061 5.28409 15.9061 4.85343C15.9061 4.42278 15.557 4.07367 15.1264 4.07367C14.6957 4.07367 14.3466 4.42278 14.3466 4.85343C14.3466 5.28409 14.6957 5.6332 15.1264 5.6332Z" fill="#D94841"/>
</g>
<defs>
<clipPath id="clip0_4672_21874">
<rect width="20" height="20" fill="white"/>
</clipPath>
</defs>
</svg>
