<svg width="24" height="25" viewBox="0 0 24 25" fill="none" xmlns="http://www.w3.org/2000/svg">
<g clip-path="url(#clip0_328_7467)">
<path d="M12 8.83331C11.2089 8.83331 10.4355 9.06791 9.77772 9.50743C9.11993 9.94696 8.60723 10.5717 8.30448 11.3026C8.00173 12.0335 7.92252 12.8377 8.07686 13.6137C8.2312 14.3896 8.61216 15.1023 9.17157 15.6617C9.73098 16.2212 10.4437 16.6021 11.2196 16.7565C11.9956 16.9108 12.7998 16.8316 13.5307 16.5288C14.2616 16.2261 14.8864 15.7134 15.3259 15.0556C15.7654 14.3978 16 13.6244 16 12.8333C16 11.7724 15.5786 10.755 14.8284 10.0049C14.0783 9.25474 13.0609 8.83331 12 8.83331ZM12 14.8333C11.6044 14.8333 11.2178 14.716 10.8889 14.4963C10.56 14.2765 10.3036 13.9641 10.1522 13.5987C10.0009 13.2332 9.96126 12.8311 10.0384 12.4431C10.1156 12.0552 10.3061 11.6988 10.5858 11.4191C10.8655 11.1394 11.2219 10.9489 11.6098 10.8717C11.9978 10.7946 12.3999 10.8342 12.7654 10.9856C13.1308 11.1369 13.4432 11.3933 13.6629 11.7222C13.8827 12.0511 14 12.4378 14 12.8333C14 13.3637 13.7893 13.8725 13.4142 14.2475C13.0391 14.6226 12.5304 14.8333 12 14.8333Z" fill="#ffffff"/>
<path d="M21.2938 14.7333L20.8498 14.4773C21.0497 13.3898 21.0497 12.2749 20.8498 11.1873L21.2938 10.9313C21.6352 10.7343 21.9345 10.472 22.1746 10.1594C22.4147 9.84672 22.5908 9.48985 22.6929 9.10913C22.7951 8.72841 22.8212 8.3313 22.7699 7.94047C22.7186 7.54964 22.5908 7.17275 22.3938 6.83131C22.1968 6.48988 21.9345 6.19058 21.6219 5.95052C21.3092 5.71045 20.9523 5.53432 20.5716 5.43218C20.1909 5.33003 19.7938 5.30387 19.403 5.3552C19.0121 5.40653 18.6352 5.53433 18.2938 5.73131L17.8488 5.98831C17.0083 5.27023 16.0425 4.71356 14.9998 4.34631V3.83331C14.9998 3.03766 14.6837 2.2746 14.1211 1.71199C13.5585 1.14938 12.7954 0.833313 11.9998 0.833313C11.2041 0.833313 10.4411 1.14938 9.87848 1.71199C9.31587 2.2746 8.9998 3.03766 8.9998 3.83331V4.34631C7.95719 4.71488 6.99165 5.27291 6.1518 5.99231L5.7048 5.73331C5.01524 5.33549 4.19588 5.22788 3.42698 5.43418C2.65808 5.64047 2.00262 6.14375 1.6048 6.83331C1.20697 7.52288 1.09937 8.34223 1.30566 9.11113C1.51195 9.88003 2.01524 10.5355 2.7048 10.9333L3.1488 11.1893C2.94891 12.2769 2.94891 13.3918 3.1488 14.4793L2.7048 14.7353C2.01524 15.1331 1.51195 15.7886 1.30566 16.5575C1.09937 17.3264 1.20697 18.1458 1.6048 18.8353C2.00262 19.5249 2.65808 20.0282 3.42698 20.2345C4.19588 20.4407 5.01524 20.3331 5.7048 19.9353L6.1498 19.6783C6.99056 20.3965 7.95678 20.9532 8.9998 21.3203V21.8333C8.9998 22.629 9.31587 23.392 9.87848 23.9546C10.4411 24.5172 11.2041 24.8333 11.9998 24.8333C12.7954 24.8333 13.5585 24.5172 14.1211 23.9546C14.6837 23.392 14.9998 22.629 14.9998 21.8333V21.3203C16.0424 20.9517 17.008 20.3937 17.8478 19.6743L18.2948 19.9323C18.9844 20.3301 19.8037 20.4377 20.5726 20.2315C21.3415 20.0252 21.997 19.5219 22.3948 18.8323C22.7926 18.1427 22.9002 17.3234 22.6939 16.5545C22.4876 15.7856 21.9844 15.1301 21.2948 14.7323L21.2938 14.7333ZM18.7458 10.9573C19.0844 12.1844 19.0844 13.4802 18.7458 14.7073C18.6867 14.9209 18.7002 15.148 18.7841 15.3531C18.8681 15.5582 19.0178 15.7296 19.2098 15.8403L20.2938 16.4663C20.5236 16.5989 20.6913 16.8174 20.7601 17.0737C20.8288 17.3299 20.7929 17.603 20.6603 17.8328C20.5277 18.0626 20.3092 18.2303 20.053 18.2991C19.7967 18.3678 19.5236 18.3319 19.2938 18.1993L18.2078 17.5713C18.0157 17.46 17.792 17.4159 17.572 17.4457C17.3521 17.4756 17.1483 17.5778 16.9928 17.7363C16.1027 18.645 14.9814 19.2933 13.7498 19.6113C13.5348 19.6666 13.3444 19.7918 13.2084 19.9672C13.0724 20.1427 12.9987 20.3584 12.9988 20.5803V21.8333C12.9988 22.0985 12.8934 22.3529 12.7059 22.5404C12.5184 22.728 12.264 22.8333 11.9988 22.8333C11.7336 22.8333 11.4792 22.728 11.2917 22.5404C11.1042 22.3529 10.9988 22.0985 10.9988 21.8333V20.5813C10.9989 20.3594 10.9252 20.1437 10.7892 19.9682C10.6532 19.7928 10.4628 19.6676 10.2478 19.6123C9.01615 19.293 7.89513 18.6433 7.0058 17.7333C6.85032 17.5748 6.64654 17.4726 6.42655 17.4427C6.20657 17.4129 5.9829 17.457 5.7908 17.5683L4.7068 18.1953C4.59303 18.262 4.46719 18.3055 4.33652 18.3234C4.20586 18.3413 4.07295 18.3331 3.94545 18.2994C3.81795 18.2657 3.69838 18.2071 3.59362 18.127C3.48886 18.0469 3.40098 17.9469 3.33504 17.8326C3.26909 17.7184 3.22639 17.5923 3.2094 17.4615C3.1924 17.3307 3.20144 17.1979 3.23599 17.0706C3.27054 16.9433 3.32993 16.8242 3.41073 16.7199C3.49153 16.6157 3.59215 16.5285 3.7068 16.4633L4.7908 15.8373C4.98275 15.7266 5.13247 15.5552 5.21646 15.3501C5.30044 15.145 5.31393 14.9179 5.2548 14.7043C4.91616 13.4772 4.91616 12.1814 5.2548 10.9543C5.31286 10.7412 5.29873 10.5148 5.21461 10.3106C5.13049 10.1064 4.98111 9.93572 4.7898 9.82531L3.7058 9.19931C3.47599 9.0667 3.30827 8.84824 3.23954 8.59197C3.17081 8.3357 3.20669 8.06262 3.3393 7.83281C3.47191 7.603 3.69038 7.43528 3.94664 7.36655C4.20291 7.29782 4.47599 7.3337 4.7058 7.46631L5.7918 8.09431C5.98338 8.20583 6.20658 8.25052 6.42633 8.22138C6.64607 8.19224 6.84991 8.09091 7.0058 7.93331C7.89589 7.02466 9.01722 6.37633 10.2488 6.05831C10.4644 6.00288 10.6554 5.87707 10.7914 5.70081C10.9275 5.52456 11.0008 5.30795 10.9998 5.08531V3.83331C10.9998 3.5681 11.1052 3.31374 11.2927 3.12621C11.4802 2.93867 11.7346 2.83331 11.9998 2.83331C12.265 2.83331 12.5194 2.93867 12.7069 3.12621C12.8944 3.31374 12.9998 3.5681 12.9998 3.83331V5.08531C12.9997 5.30727 13.0734 5.52296 13.2094 5.69839C13.3454 5.87383 13.5358 5.99905 13.7508 6.05431C14.9828 6.37347 16.1042 7.0232 16.9938 7.93331C17.1493 8.09178 17.3531 8.19401 17.573 8.22388C17.793 8.25375 18.0167 8.20958 18.2088 8.09831L19.2928 7.47131C19.4066 7.40462 19.5324 7.36108 19.6631 7.34321C19.7937 7.32535 19.9266 7.33351 20.0541 7.36721C20.1816 7.40092 20.3012 7.45952 20.406 7.53963C20.5107 7.61974 20.5986 7.71977 20.6646 7.83399C20.7305 7.9482 20.7732 8.07432 20.7902 8.2051C20.8072 8.33588 20.7982 8.46873 20.7636 8.59601C20.7291 8.72328 20.6697 8.84246 20.5889 8.94669C20.5081 9.05091 20.4074 9.13813 20.2928 9.20331L19.2088 9.82931C19.0178 9.94002 18.8689 10.1108 18.7851 10.315C18.7014 10.5192 18.6876 10.7454 18.7458 10.9583V10.9573Z" fill="#ffffff"/>
</g>
<defs>
<clipPath id="clip0_328_7467">
<rect width="24" height="24" fill="white" transform="translate(0 0.833313)"/>
</clipPath>
</defs>
</svg>
