<svg width="34" height="34" viewBox="0 0 34 34" fill="none" xmlns="http://www.w3.org/2000/svg">
<path d="M17 10.7692C15.7676 10.7692 14.563 11.1347 13.5383 11.8193C12.5137 12.504 11.7151 13.4771 11.2435 14.6156C10.7719 15.7541 10.6485 17.0069 10.8889 18.2156C11.1293 19.4242 11.7228 20.5344 12.5941 21.4058C13.4655 22.2772 14.5758 22.8706 15.7844 23.1111C16.9931 23.3515 18.2459 23.2281 19.3844 22.7565C20.5229 22.2849 21.496 21.4863 22.1807 20.4616C22.8653 19.437 23.2307 18.2323 23.2307 17C23.229 15.348 22.572 13.7642 21.4039 12.5961C20.2358 11.428 18.6519 10.771 17 10.7692ZM17 21.1539C16.1784 21.1539 15.3753 20.9102 14.6922 20.4538C14.0091 19.9974 13.4767 19.3486 13.1623 18.5896C12.8479 17.8306 12.7657 16.9954 12.9259 16.1896C13.0862 15.3839 13.4818 14.6437 14.0628 14.0628C14.6437 13.4819 15.3838 13.0863 16.1896 12.926C16.9954 12.7657 17.8306 12.848 18.5896 13.1624C19.3486 13.4768 19.9973 14.0092 20.4538 14.6923C20.9102 15.3754 21.1538 16.1785 21.1538 17C21.1538 18.1017 20.7162 19.1582 19.9372 19.9372C19.1582 20.7162 18.1016 21.1539 17 21.1539ZM31.271 14.3013C31.2421 14.1551 31.182 14.0168 31.0949 13.8958C31.0078 13.7749 30.8956 13.6741 30.7661 13.6003L26.8939 11.3936L26.8783 7.02948C26.8779 6.87918 26.8448 6.73078 26.7813 6.59452C26.7179 6.45825 26.6257 6.33738 26.511 6.24025C25.1064 5.05212 23.4889 4.14161 21.7444 3.55713C21.6071 3.51063 21.4615 3.49342 21.317 3.50661C21.1726 3.5198 21.0326 3.5631 20.9059 3.63371L17 5.81708L13.0902 3.62982C12.9634 3.55881 12.8232 3.51518 12.6785 3.50177C12.5338 3.48835 12.388 3.50544 12.2503 3.55193C10.5072 4.14069 8.89152 5.05467 7.48896 6.24544C7.37442 6.34243 7.28228 6.46309 7.21886 6.59912C7.15544 6.73514 7.12226 6.8833 7.1216 7.03338L7.10213 11.4014L3.22997 13.6081C3.10042 13.6819 2.98827 13.7827 2.90114 13.9036C2.81401 14.0246 2.75394 14.1629 2.72501 14.3091C2.37063 16.0899 2.37063 17.9231 2.72501 19.7039C2.75394 19.8501 2.81401 19.9884 2.90114 20.1094C2.98827 20.2303 3.10042 20.3311 3.22997 20.4049L7.10213 22.6116L7.11771 26.9757C7.11818 27.126 7.15127 27.2744 7.21469 27.4107C7.27812 27.547 7.37036 27.6678 7.48506 27.765C8.88967 28.9531 10.5072 29.8636 12.2516 30.4481C12.389 30.4946 12.5346 30.5118 12.679 30.4986C12.8234 30.4854 12.9635 30.4421 13.0902 30.3715L17 28.1829L20.9098 30.3702C21.0645 30.4564 21.2389 30.5011 21.416 30.5C21.5294 30.5 21.6421 30.4816 21.7496 30.4455C23.4926 29.8575 25.1082 28.9444 26.511 27.7546C26.6255 27.6576 26.7177 27.5369 26.7811 27.4009C26.8445 27.2649 26.8777 27.1167 26.8783 26.9666L26.8978 22.5986L30.77 20.3919C30.8995 20.3181 31.0117 20.2174 31.0988 20.0964C31.1859 19.9755 31.246 19.8372 31.2749 19.6909C31.6273 17.9115 31.626 16.0802 31.271 14.3013ZM29.3239 18.8329L25.6153 20.9423C25.4528 21.0347 25.3183 21.1692 25.2259 21.3317C25.1506 21.4615 25.0714 21.5991 24.9909 21.7289C24.8879 21.8926 24.833 22.082 24.8326 22.2754L24.8131 26.4617C23.8163 27.2445 22.7057 27.8705 21.5199 28.3179L17.7788 26.2332C17.6235 26.1473 17.4488 26.1026 17.2713 26.1034H17.2466C17.0895 26.1034 16.9312 26.1034 16.7741 26.1034C16.5883 26.0988 16.4047 26.1436 16.2419 26.2332L12.4982 28.3231C11.3099 27.8791 10.1963 27.2562 9.19593 26.476L9.18165 22.2962C9.18101 22.1024 9.12615 21.9126 9.02328 21.7484C8.9428 21.6186 8.86362 21.4888 8.78963 21.3512C8.69789 21.1862 8.56336 21.0489 8.40021 20.954L4.68771 18.8394C4.49559 17.6241 4.49559 16.3863 4.68771 15.171L8.38982 13.0578C8.55231 12.9654 8.68685 12.8308 8.77924 12.6683C8.85453 12.5385 8.93372 12.4009 9.0142 12.2711C9.11722 12.1074 9.1721 11.918 9.17256 11.7246L9.19203 7.53833C10.1889 6.75552 11.2994 6.12955 12.4853 5.68208L16.2211 7.76679C16.3837 7.85691 16.5675 7.90174 16.7533 7.8966C16.9104 7.8966 17.0688 7.8966 17.2258 7.8966C17.4116 7.90124 17.5953 7.85644 17.758 7.76679L21.5017 5.67689C22.6901 6.12093 23.8037 6.74383 24.804 7.52405L24.8183 11.7039C24.8189 11.8977 24.8738 12.0874 24.9766 12.2516C25.0571 12.3815 25.1363 12.5113 25.2103 12.6489C25.302 12.8139 25.4366 12.9511 25.5997 13.0461L29.3122 15.1606C29.5069 16.3768 29.5091 17.616 29.3187 18.8329H29.3239Z" fill="black"/>
</svg>
