<svg width="24" height="24" viewBox="0 0 24 24" fill="none" xmlns="http://www.w3.org/2000/svg">
<g clip-path="url(#clip0_4331_901)">
<mask id="mask0_4331_901" style="mask-type:luminance" maskUnits="userSpaceOnUse" x="0" y="0" width="24" height="24">
<path d="M0 1.90735e-06H24V24H0V1.90735e-06Z" fill="white"/>
</mask>
<g mask="url(#mask0_4331_901)">
<path d="M11.9999 8.31252C9.96336 8.31252 8.31237 9.96345 8.31237 12C8.31237 14.0366 9.96336 15.6875 11.9999 15.6875C14.0364 15.6875 15.6874 14.0366 15.6874 12C15.6874 9.96345 14.0364 8.31252 11.9999 8.31252ZM22.35 9.36861L21.3516 10.1905C20.2127 11.1281 20.2127 12.872 21.3516 13.8095L22.35 14.6314C22.7038 14.9227 22.7952 15.4271 22.566 15.824L20.5946 19.2386C20.3654 19.6355 19.883 19.8085 19.4538 19.6477L18.2428 19.1941C16.8614 18.6766 15.3512 19.5485 15.1086 21.0035L14.8961 22.2792C14.8207 22.7312 14.4296 23.0625 13.9714 23.0625H10.0284C9.57017 23.0625 9.17905 22.7312 9.10372 22.2792L8.89109 21.0035C8.64861 19.5485 7.13834 18.6766 5.75698 19.1941L4.54602 19.6477C4.11683 19.8085 3.63434 19.6355 3.40517 19.2386L1.43375 15.824C1.20463 15.4271 1.29598 14.9227 1.6498 14.6314L2.64823 13.8095C3.78706 12.872 3.78706 11.1281 2.64823 10.1905L1.6498 9.36861C1.29598 9.07733 1.20463 8.57295 1.43375 8.17606L3.40517 4.76146C3.63434 4.36456 4.11683 4.1915 4.54602 4.35228L5.75698 4.80594C7.13834 5.32344 8.64861 4.45152 8.89109 2.99647L9.10372 1.72086C9.17905 1.26884 9.57017 0.937532 10.0284 0.937532H13.9714C14.4296 0.937532 14.8207 1.26884 14.8961 1.72086L15.1086 2.99647C15.3512 4.45152 16.8614 5.32344 18.2428 4.80594L19.4538 4.35228C19.883 4.1915 20.3654 4.36456 20.5946 4.76146L22.566 8.17606C22.7952 8.57295 22.7038 9.07733 22.35 9.36861Z" stroke="#6A7185" stroke-width="1.79687" stroke-miterlimit="10" stroke-linecap="round" stroke-linejoin="round"/>
</g>
</g>
<defs>
<clipPath id="clip0_4331_901">
<rect width="24" height="24" fill="white"/>
</clipPath>
</defs>
</svg>
