<svg width="24" height="25" viewBox="0 0 24 25" fill="none" xmlns="http://www.w3.org/2000/svg">
<g clip-path="url(#clip0_328_6690)">
<path d="M21.1549 20.5742C22.9915 18.4131 23.9999 15.6694 23.9999 12.8333C23.9999 9.99713 22.9915 7.2534 21.1549 5.09225L22.0149 4.23225C22.2024 4.04461 22.3077 3.79017 22.3076 3.5249C22.3075 3.25963 22.2021 3.00526 22.0144 2.81775C21.8268 2.63024 21.5724 2.52495 21.3071 2.52505C21.0418 2.52514 20.7874 2.63061 20.5999 2.81825L19.7399 3.67825C17.5788 1.84168 14.8351 0.833313 11.9989 0.833313C9.16282 0.833313 6.41909 1.84168 4.25794 3.67825L3.39794 2.81825C3.20921 2.63622 2.95653 2.5356 2.69433 2.53806C2.43214 2.54053 2.1814 2.64587 1.99612 2.83141C1.81084 3.01695 1.70585 3.26784 1.70376 3.53004C1.70166 3.79224 1.80264 4.04478 1.98494 4.23325L2.84494 5.09325C1.00836 7.2544 0 9.99813 0 12.8343C0 15.6704 1.00836 18.4141 2.84494 20.5753L1.98494 21.4352C1.88949 21.5276 1.81339 21.638 1.76107 21.76C1.70875 21.882 1.68126 22.0133 1.6802 22.1461C1.67914 22.2788 1.70454 22.4105 1.7549 22.5334C1.80527 22.6562 1.8796 22.7678 1.97356 22.8616C2.06752 22.9555 2.17922 23.0296 2.30215 23.0798C2.42508 23.13 2.55678 23.1552 2.68956 23.154C2.82233 23.1527 2.95353 23.1251 3.0755 23.0726C3.19747 23.0201 3.30776 22.9438 3.39994 22.8482L4.25994 21.9883C6.42109 23.8248 9.16482 24.8332 12.0009 24.8332C14.8371 24.8332 17.5808 23.8248 19.7419 21.9883L20.6019 22.8482C20.7907 23.0303 21.0433 23.1309 21.3055 23.1284C21.5677 23.126 21.8185 23.0206 22.0038 22.8351C22.189 22.6495 22.294 22.3987 22.2961 22.1365C22.2982 21.8743 22.1972 21.6217 22.0149 21.4333L21.1549 20.5742ZM21.9999 12.8333C22.0018 15.1397 21.2022 17.3752 19.7379 19.1572L16.1669 15.5863C16.7101 14.7708 16.9999 13.813 16.9999 12.8333C16.9999 11.8535 16.7101 10.8957 16.1669 10.0802L19.7379 6.50925C21.2022 8.29132 22.0018 10.5268 21.9999 12.8333ZM8.99994 12.8333C8.99994 12.2399 9.17588 11.6599 9.50553 11.1665C9.83517 10.6732 10.3037 10.2887 10.8519 10.0616C11.4001 9.83455 12.0033 9.77514 12.5852 9.89089C13.1672 10.0066 13.7017 10.2924 14.1213 10.7119C14.5408 11.1315 14.8265 11.666 14.9423 12.248C15.058 12.8299 14.9986 13.4331 14.7716 13.9813C14.5445 14.5295 14.16 14.998 13.6666 15.3277C13.1733 15.6573 12.5933 15.8333 11.9999 15.8333C11.2043 15.8333 10.4412 15.5172 9.87862 14.9546C9.31601 14.392 8.99994 13.6289 8.99994 12.8333ZM11.9999 2.83325C14.3064 2.83141 16.5419 3.631 18.3239 5.09525L14.7529 8.66625C13.9375 8.12311 12.9797 7.8333 11.9999 7.8333C11.0202 7.8333 10.0623 8.12311 9.24694 8.66625L5.67594 5.09525C7.45801 3.631 9.69347 2.83141 11.9999 2.83325ZM1.99994 12.8333C1.9981 10.5268 2.79769 8.29132 4.26194 6.50925L7.83294 10.0802C7.2898 10.8957 6.99999 11.8535 6.99999 12.8333C6.99999 13.813 7.2898 14.7708 7.83294 15.5863L4.26194 19.1572C2.79769 17.3752 1.9981 15.1397 1.99994 12.8333ZM11.9999 22.8333C9.69347 22.8351 7.45801 22.0355 5.67594 20.5713L9.24694 17.0002C10.0623 17.5434 11.0202 17.8332 11.9999 17.8332C12.9797 17.8332 13.9375 17.5434 14.7529 17.0002L18.3239 20.5713C16.5419 22.0355 14.3064 22.8351 11.9999 22.8333Z" fill="#333333"/>
</g>
<defs>
<clipPath id="clip0_328_6690">
<rect width="24" height="24" fill="white" transform="translate(0 0.833313)"/>
</clipPath>
</defs>
</svg>
