<svg width="24" height="24" viewBox="0 0 24 24" fill="none" xmlns="http://www.w3.org/2000/svg">
<path d="M22.3449 16.8964C22.3449 17.0428 22.2868 17.1831 22.1833 17.2866C22.0798 17.39 21.9395 17.4481 21.7932 17.4481H9.65524C9.50891 17.4481 9.36858 17.39 9.26511 17.2866C9.16164 17.1831 9.10352 17.0428 9.10352 16.8964C9.10352 16.7501 9.16164 16.6098 9.26511 16.5063C9.36858 16.4028 9.50891 16.3447 9.65524 16.3447H21.7932C21.9395 16.3447 22.0798 16.4028 22.1833 16.5063C22.2868 16.6098 22.3449 16.7501 22.3449 16.8964ZM9.65524 13.0344H21.7932C21.9395 13.0344 22.0798 12.9762 22.1833 12.8728C22.2868 12.7693 22.3449 12.629 22.3449 12.4826C22.3449 12.3363 22.2868 12.196 22.1833 12.0925C22.0798 11.989 21.9395 11.9309 21.7932 11.9309H9.65524C9.50891 11.9309 9.36858 11.989 9.26511 12.0925C9.16164 12.196 9.10352 12.3363 9.10352 12.4826C9.10352 12.629 9.16164 12.7693 9.26511 12.8728C9.36858 12.9762 9.50891 13.0344 9.65524 13.0344ZM21.7932 20.7585H9.65524C9.50891 20.7585 9.36858 20.8166 9.26511 20.9201C9.16164 21.0236 9.10352 21.1639 9.10352 21.3102C9.10352 21.4565 9.16164 21.5969 9.26511 21.7003C9.36858 21.8038 9.50891 21.8619 9.65524 21.8619H21.7932C21.9395 21.8619 22.0798 21.8038 22.1833 21.7003C22.2868 21.5969 22.3449 21.4565 22.3449 21.3102C22.3449 21.1639 22.2868 21.0236 22.1833 20.9201C22.0798 20.8166 21.9395 20.7585 21.7932 20.7585Z" fill="#D94841"/>
<path d="M11.5992 3.91505C11.5497 3.87643 11.492 3.8496 11.4305 3.83661C11.369 3.82361 11.3054 3.82479 11.2444 3.84005L8.08254 4.63039L4.90929 3.04351C4.82087 2.99941 4.7196 2.9884 4.62377 3.01247L1.31345 3.84005C1.22393 3.86243 1.14446 3.91408 1.08766 3.98681C1.03087 4.05953 1.00001 4.14916 1 4.24143V11.6897C1.00001 11.7525 1.01435 11.8146 1.04193 11.8711C1.0695 11.9276 1.1096 11.9771 1.15916 12.0158C1.20872 12.0545 1.26645 12.0813 1.32795 12.0944C1.38946 12.1074 1.45314 12.1063 1.51413 12.091L4.67601 11.3007L7.84927 12.8876C7.90688 12.916 7.97021 12.9308 8.03444 12.931C8.06827 12.931 8.10197 12.9268 8.13479 12.9186L11.4451 12.091C11.5346 12.0687 11.6141 12.017 11.6709 11.9443C11.7277 11.8716 11.7585 11.7819 11.7586 11.6897V4.24143C11.7586 4.17849 11.7442 4.11639 11.7166 4.05983C11.689 4.00327 11.6489 3.95376 11.5992 3.91505ZM5.13791 4.08315L7.62065 5.32453V11.8479L5.13791 10.6066V4.08315ZM1.82758 4.5647L4.31033 3.94402V10.5388L1.82758 11.1595V4.5647ZM10.931 11.3664L8.44823 11.9871V5.39228L10.931 4.7716V11.3664Z" fill="#05A155"/>
<rect width="6.62069" height="6.62069" transform="translate(8.27637 8.62061)" fill="white"/>
<path d="M10.6847 9.87094C10.7659 9.7905 10.7665 9.6595 10.686 9.57834C10.6056 9.49718 10.4746 9.4966 10.3934 9.57704L9.99587 9.97106C9.84796 10.1177 9.7246 10.2399 9.63664 10.3494C9.54439 10.4643 9.47421 10.585 9.45547 10.7321C9.43259 10.9116 9.58143 11.0343 9.72567 11.0343H13.5184C13.6327 11.0343 13.7253 10.9417 13.7253 10.8274C13.7253 10.7132 13.6327 10.6205 13.5184 10.6205H9.94977C9.95283 10.6166 9.956 10.6126 9.95927 10.6085C10.0307 10.5195 10.1371 10.4137 10.2956 10.2565L10.6847 9.87094Z" fill="black"/>
<path d="M9.65612 12.8274C9.54185 12.8274 9.44922 12.92 9.44922 13.0343C9.44922 13.1486 9.54185 13.2412 9.65612 13.2412H13.28C13.2769 13.2451 13.2738 13.2491 13.2705 13.2532C13.199 13.3422 13.0927 13.448 12.9341 13.6052L12.5451 13.9908C12.4639 14.0712 12.4633 14.2022 12.5438 14.2834C12.6242 14.3646 12.7552 14.3651 12.8363 14.2847L13.2339 13.8907C13.3818 13.7441 13.5052 13.6218 13.5931 13.5123C13.6854 13.3974 13.7555 13.2767 13.7743 13.1296C13.7751 13.1232 13.7758 13.1168 13.7765 13.1103C13.7934 12.944 13.6567 12.8274 13.5182 12.8274H9.65612Z" fill="black"/>
</svg>
