<svg width="16" height="16" viewBox="0 0 16 16" fill="none" xmlns="http://www.w3.org/2000/svg">
<g clip-path="url(#clip0_4749_5222)">
<path d="M5.1385 6.17069C5.39916 6.43136 5.39916 6.85336 5.1385 7.11336C4.87783 7.37402 4.45583 7.37402 4.19583 7.11336C3.93516 6.85269 3.93516 6.43069 4.19583 6.17069C4.4565 5.91002 4.8785 5.91002 5.1385 6.17069ZM14.3732 10.2274L13.9965 10.604C13.9785 11.426 13.6598 12.242 13.0398 12.87L10.9285 15.0087C10.2998 15.6454 9.46116 15.9974 8.5665 16H8.55516C7.66516 16 6.8285 15.6534 6.19916 15.024L1.25516 10.122C0.821829 9.68936 0.612496 9.09402 0.679163 8.48669L1.18916 3.87602C1.22316 3.57202 1.4585 3.33002 1.76116 3.28869L6.35383 2.66069C6.97516 2.57802 7.6005 2.78936 8.03916 3.22802L13.0225 8.16936C13.2805 8.42736 13.4872 8.71802 13.6432 9.02802C14.1845 8.25069 14.1085 7.16469 13.4152 6.47136L8.3545 1.53469C8.20183 1.38202 7.99116 1.31136 7.78716 1.34002L3.1945 1.96802C2.8285 2.01736 2.49316 1.76202 2.44316 1.39802C2.39383 1.03336 2.64916 0.697356 3.01316 0.647356L7.6065 0.0186895C8.2205 -0.0686439 8.8525 0.146023 9.29183 0.586689L14.3512 5.52336C15.6485 6.82002 15.6558 8.92802 14.3725 10.228L14.3732 10.2274ZM12.0812 9.11402L7.09783 4.17269C6.94916 4.02402 6.7405 3.95536 6.53316 3.98136L2.4565 4.53936L2.00383 8.63269C1.98183 8.83469 2.05116 9.03336 2.19516 9.17669L7.13916 14.0787C7.5185 14.4587 8.0205 14.666 8.5545 14.666H8.56116C9.0985 14.6647 9.60183 14.4534 9.9785 14.0707L12.0898 11.932C12.8598 11.152 12.8558 9.88736 12.0805 9.11269L12.0812 9.11402Z" fill="black"/>
</g>
<defs>
<clipPath id="clip0_4749_5222">
<rect width="16" height="16" fill="white"/>
</clipPath>
</defs>
</svg>
