<svg width="16" height="16" viewBox="0 0 16 16" fill="none" xmlns="http://www.w3.org/2000/svg">
<path d="M3.99976 14.9999C3.92626 14.9999 3.85226 14.9834 3.78276 14.9504C3.61026 14.8669 3.49976 14.6924 3.49976 14.4999V11.9999H1.99976C1.17276 11.9999 0.499756 11.3269 0.499756 10.4999V2.49988C0.499756 1.67288 1.17276 0.999878 1.99976 0.999878H13.9998C14.8268 0.999878 15.4998 1.67288 15.4998 2.49988V10.4999C15.4998 11.3269 14.8268 11.9999 13.9998 11.9999H7.92526L4.31226 14.8904C4.22176 14.9629 4.11126 14.9999 3.99976 14.9999ZM1.99976 1.99988C1.72376 1.99988 1.49976 2.22438 1.49976 2.49988V10.4999C1.49976 10.7754 1.72376 10.9999 1.99976 10.9999H3.99976C4.27626 10.9999 4.49976 11.2234 4.49976 11.4999V13.4599L7.43726 11.1094C7.52626 11.0384 7.63576 10.9999 7.74976 10.9999H13.9998C14.2758 10.9999 14.4998 10.7754 14.4998 10.4999V2.49988C14.4998 2.22438 14.2758 1.99988 13.9998 1.99988H1.99976Z" fill="#05A155"/>
<path d="M11.9995 5.99976H3.99951C3.72301 5.99976 3.49951 5.77576 3.49951 5.49976C3.49951 5.22376 3.72301 4.99976 3.99951 4.99976H11.9995C12.276 4.99976 12.4995 5.22376 12.4995 5.49976C12.4995 5.77576 12.276 5.99976 11.9995 5.99976Z" fill="#05A155"/>
<path d="M7.99951 7.99976H3.99951C3.72301 7.99976 3.49951 7.77576 3.49951 7.49976C3.49951 7.22376 3.72301 6.99976 3.99951 6.99976H7.99951C8.27601 6.99976 8.49951 7.22376 8.49951 7.49976C8.49951 7.77576 8.27601 7.99976 7.99951 7.99976Z" fill="#05A155"/>
</svg>
