<svg width="18" height="18" viewBox="0 0 18 18" fill="none" xmlns="http://www.w3.org/2000/svg">
<g clip-path="url(#clip0_5193_2649)">
<path d="M5.23725 18.0057C4.19755 18.0082 3.18053 17.7019 2.31512 17.1256C1.44972 16.5494 0.774891 15.7292 0.376198 14.769C-0.0224958 13.8087 -0.127103 12.7518 0.0756366 11.732C0.278377 10.7123 0.779334 9.77567 1.515 9.04098L9.465 1.10223C10.1687 0.396985 11.1236 0.000151055 12.1199 -0.000974163C13.1161 -0.00209938 14.072 0.392576 14.7773 1.09623C15.4825 1.79988 15.8793 2.75487 15.8805 3.75111C15.8816 4.74735 15.4869 5.70324 14.7833 6.40848L6.8325 14.3465C6.4025 14.7563 5.83127 14.9849 5.23725 14.9849C4.64324 14.9849 4.072 14.7563 3.642 14.3465C3.4328 14.1375 3.26685 13.8894 3.15362 13.6162C3.04039 13.3431 2.98211 13.0503 2.98211 12.7546C2.98211 12.4589 3.04039 12.1661 3.15362 11.893C3.26685 11.6198 3.4328 11.3717 3.642 11.1627L11.0625 3.75573L12.126 4.81698L4.7055 12.2255C4.5649 12.3661 4.48591 12.5569 4.48591 12.7557C4.48591 12.9546 4.5649 13.1453 4.7055 13.286C4.84878 13.4227 5.03921 13.499 5.23725 13.499C5.43529 13.499 5.62572 13.4227 5.769 13.286L13.725 5.34723C14.1472 4.92404 14.384 4.35047 14.3833 3.7527C14.3826 3.15493 14.1444 2.58192 13.7213 2.15973C13.2981 1.73754 12.7245 1.50075 12.1267 1.50145C11.529 1.50215 10.9559 1.74029 10.5338 2.16348L2.5785 10.1015C1.87475 10.8066 1.47994 11.7625 1.48092 12.7587C1.48191 13.7549 1.87861 14.71 2.58375 15.4137C3.2889 16.1175 4.24472 16.5123 5.24096 16.5113C6.2372 16.5103 7.19225 16.1136 7.896 15.4085L16.9118 6.40848L17.9753 7.46973L8.9595 16.4697C8.47067 16.9581 7.89024 17.3452 7.25149 17.6088C6.61274 17.8724 5.92824 18.0073 5.23725 18.0057Z" fill="#c6c6c6"/>
</g>
<defs>
<clipPath id="clip0_5193_2649">
<rect width="18" height="18" fill="white"/>
</clipPath>
</defs>
</svg>
