<svg width="34" height="34" viewBox="0 0 34 34" fill="none" xmlns="http://www.w3.org/2000/svg">
<path d="M17 17C17.0001 17.1558 16.9651 17.3096 16.8977 17.4501C16.8303 17.5905 16.7322 17.714 16.6106 17.8113L11.4183 21.9652C11.3117 22.0504 11.1894 22.1138 11.0584 22.1518C10.9273 22.1898 10.7901 22.2016 10.6545 22.1865C10.5189 22.1714 10.3876 22.1298 10.2681 22.064C10.1485 21.9982 10.0432 21.9095 9.95793 21.8029C9.8727 21.6964 9.80929 21.5741 9.77131 21.443C9.73334 21.312 9.72155 21.1747 9.73662 21.0391C9.75168 20.9035 9.79331 20.7722 9.85913 20.6527C9.92494 20.5332 10.0137 20.4278 10.1202 20.3426L14.2987 17L10.1202 13.6575C10.0137 13.5722 9.92494 13.4669 9.85913 13.3473C9.79331 13.2278 9.75168 13.0965 9.73662 12.9609C9.72155 12.8253 9.73334 12.6881 9.77131 12.557C9.80929 12.426 9.8727 12.3037 9.95793 12.1971C10.0432 12.0906 10.1485 12.0019 10.2681 11.9361C10.3876 11.8703 10.5189 11.8286 10.6545 11.8136C10.7901 11.7985 10.9273 11.8103 11.0584 11.8483C11.1894 11.8862 11.3117 11.9496 11.4183 12.0349L16.6106 16.1887C16.7322 16.2861 16.8303 16.4096 16.8977 16.55C16.9651 16.6904 17.0001 16.8442 17 17ZM23.2308 20.1154H18.0385C17.763 20.1154 17.4989 20.2248 17.3042 20.4196C17.1094 20.6143 17 20.8785 17 21.1539C17 21.4293 17.1094 21.6934 17.3042 21.8882C17.4989 22.0829 17.763 22.1923 18.0385 22.1923H23.2308C23.5062 22.1923 23.7703 22.0829 23.9651 21.8882C24.1598 21.6934 24.2692 21.4293 24.2692 21.1539C24.2692 20.8785 24.1598 20.6143 23.9651 20.4196C23.7703 20.2248 23.5062 20.1154 23.2308 20.1154ZM30.5 7.65387V26.3462C30.5 26.897 30.2812 27.4253 29.8917 27.8148C29.5022 28.2043 28.9739 28.4231 28.4231 28.4231H5.57692C5.02609 28.4231 4.49782 28.2043 4.10832 27.8148C3.71882 27.4253 3.5 26.897 3.5 26.3462V7.65387C3.5 7.10304 3.71882 6.57477 4.10832 6.18527C4.49782 5.79577 5.02609 5.57695 5.57692 5.57695H28.4231C28.9739 5.57695 29.5022 5.79577 29.8917 6.18527C30.2812 6.57477 30.5 7.10304 30.5 7.65387ZM28.4231 26.3462V7.65387H5.57692V26.3462H28.4231Z" fill="black"/>
</svg>
