<svg width="20" height="20" viewBox="0 0 20 20" fill="none" xmlns="http://www.w3.org/2000/svg">
<g clip-path="url(#clip0_2866_10305)">
<path d="M12.4415 17.4419H7.79036C6.11593 17.4419 2.95312 16.5954 2.95312 13.386C2.95312 10.1767 6.11593 9.3302 7.79036 9.3302H11.9206C12.0601 9.3302 15.3625 9.28369 15.3625 6.66973C15.3625 4.05576 12.0601 4.00925 11.9206 4.00925H7.26943C7.08439 4.00925 6.90693 3.93574 6.77609 3.8049C6.64525 3.67406 6.57175 3.4966 6.57175 3.31157C6.57175 3.12654 6.64525 2.94907 6.77609 2.81824C6.90693 2.6874 7.08439 2.61389 7.26943 2.61389H11.9206C13.595 2.61389 16.7578 3.46041 16.7578 6.66973C16.7578 9.87904 13.595 10.7256 11.9206 10.7256H7.79036C7.65082 10.7256 4.34848 10.7721 4.34848 13.386C4.34848 16 7.65082 16.0465 7.79036 16.0465H12.4415C12.6265 16.0465 12.804 16.12 12.9348 16.2509C13.0657 16.3817 13.1392 16.5592 13.1392 16.7442C13.1392 16.9292 13.0657 17.1067 12.9348 17.2375C12.804 17.3684 12.6265 17.4419 12.4415 17.4419Z" fill="white"/>
<path d="M4.68356 6.56736C4.03532 6.56184 3.40321 6.36459 2.86689 6.00044C2.33057 5.63628 1.91403 5.12152 1.66976 4.52103C1.42549 3.92055 1.36443 3.2612 1.49427 2.62606C1.62411 1.99093 1.93904 1.40843 2.39937 0.951984C2.8597 0.495526 3.44483 0.185543 4.08104 0.0610865C4.71726 -0.06337 5.37607 0.00326283 5.97446 0.252604C6.57287 0.501944 7.08408 0.922821 7.44368 1.46221C7.80328 2.00159 7.99519 2.63535 7.99521 3.28362C7.99521 3.71721 7.90938 4.1465 7.74261 4.54673C7.57585 4.94696 7.33147 5.3102 7.02359 5.6155C6.7157 5.92079 6.3504 6.16208 5.94877 6.32545C5.54714 6.48883 5.11714 6.57105 4.68356 6.56736ZM4.68356 1.39524C4.3156 1.39524 3.9559 1.50435 3.64994 1.70879C3.34399 1.91322 3.10553 2.20379 2.96471 2.54374C2.8239 2.8837 2.78705 3.25777 2.85884 3.61868C2.93063 3.97957 3.10783 4.31107 3.36801 4.57127C3.62821 4.83145 3.95971 5.00866 4.3206 5.08044C4.68151 5.15223 5.05559 5.11538 5.39554 4.97457C5.7355 4.83375 6.02606 4.59529 6.23049 4.28934C6.43493 3.98338 6.54404 3.62368 6.54404 3.25572C6.54404 3.01139 6.49592 2.76946 6.40242 2.54374C6.30892 2.31802 6.17188 2.11292 5.99912 1.94016C5.82636 1.7674 5.62126 1.63036 5.39554 1.53686C5.16982 1.44336 4.92789 1.39524 4.68356 1.39524Z" fill="white"/>
<path d="M15.0274 20C14.3776 20.0018 13.7417 19.8108 13.2005 19.451C12.6593 19.0914 12.237 18.5792 11.987 17.9793C11.7371 17.3795 11.6707 16.7189 11.7963 16.0813C11.922 15.4438 12.234 14.8577 12.6929 14.3976C13.1518 13.9374 13.7368 13.6238 14.3741 13.4963C15.0113 13.3688 15.6721 13.4333 16.2726 13.6815C16.8732 13.9298 17.3866 14.3507 17.7478 14.8909C18.109 15.4311 18.3019 16.0664 18.3019 16.7162C18.3019 17.5855 17.9572 18.4193 17.3433 19.0349C16.7296 19.6505 15.8967 19.9975 15.0274 20ZM15.0274 14.8279C14.6594 14.8279 14.2998 14.937 13.9938 15.1414C13.6879 15.3458 13.4494 15.6364 13.3085 15.9763C13.1678 16.3163 13.131 16.6904 13.2027 17.0513C13.2745 17.4121 13.4517 17.7437 13.7119 18.0039C13.9721 18.2641 14.3036 18.4413 14.6645 18.5131C15.0254 18.5848 15.3994 18.548 15.7394 18.4071C16.0793 18.2664 16.3699 18.0279 16.5743 17.7219C16.7788 17.416 16.8879 17.0563 16.8879 16.6883C16.8879 16.1949 16.6919 15.7216 16.343 15.3728C15.994 15.0239 15.5208 14.8279 15.0274 14.8279Z" fill="white"/>
</g>
<defs>
<clipPath id="clip0_2866_10305">
<rect width="20" height="20" fill="white"/>
</clipPath>
</defs>
</svg>
