<svg width="24" height="25" viewBox="0 0 24 25" fill="none" xmlns="http://www.w3.org/2000/svg">
<g clip-path="url(#clip0_284_1738)">
<path d="M15.2167 21.7635H9.63537C7.62606 21.7635 3.83069 20.7477 3.83069 16.8965C3.83069 13.0453 7.62606 12.0295 9.63537 12.0295H14.5916C14.7591 12.0295 18.7219 11.9737 18.7219 8.83694C18.7219 5.70018 14.7591 5.64437 14.5916 5.64437H9.01025C8.78821 5.64437 8.57525 5.55616 8.41825 5.39915C8.26124 5.24215 8.17304 5.02919 8.17304 4.80715C8.17304 4.58511 8.26124 4.37216 8.41825 4.21515C8.57525 4.05815 8.78821 3.96994 9.01025 3.96994H14.5916C16.6009 3.96994 20.3963 4.98576 20.3963 8.83694C20.3963 12.6881 16.6009 13.7039 14.5916 13.7039H9.63537C9.46793 13.7039 5.50512 13.7598 5.50512 16.8965C5.50512 20.0333 9.46793 20.0891 9.63537 20.0891H15.2167C15.4388 20.0891 15.6518 20.1773 15.8087 20.3343C15.9658 20.4913 16.054 20.7043 16.054 20.9263C16.054 21.1483 15.9658 21.3613 15.8087 21.5183C15.6518 21.6753 15.4388 21.7635 15.2167 21.7635Z" fill="white"/>
<path d="M5.907 8.71415C5.1291 8.70753 4.37058 8.47082 3.72698 8.03384C3.0834 7.59685 2.58355 6.97914 2.29043 6.25855C1.99731 5.53797 1.92404 4.74675 2.07985 3.98458C2.23565 3.22243 2.61357 2.52343 3.16596 1.97569C3.71835 1.42794 4.42052 1.05596 5.18397 0.906617C5.94743 0.757269 6.738 0.837228 7.45608 1.13644C8.17416 1.43565 8.78761 1.9407 9.21914 2.58796C9.65066 3.23522 9.88095 3.99573 9.88097 4.77366C9.88097 5.29396 9.77797 5.80911 9.57785 6.28939C9.37774 6.76967 9.08448 7.20555 8.71502 7.57191C8.34555 7.93826 7.9072 8.22781 7.42524 8.42386C6.94329 8.61991 6.42729 8.71857 5.907 8.71415ZM5.907 2.5076C5.46544 2.5076 5.03379 2.63853 4.66665 2.88386C4.2995 3.12917 4.01335 3.47786 3.84437 3.8858C3.6754 4.29375 3.63118 4.74264 3.71733 5.17572C3.80347 5.6088 4.01611 6.0066 4.32834 6.31883C4.64057 6.63106 5.03837 6.8437 5.47144 6.92984C5.90453 7.01599 6.35342 6.97177 6.76137 6.8028C7.16931 6.63382 7.518 6.34766 7.76331 5.98052C8.00864 5.61337 8.13957 5.18173 8.13957 4.74017C8.13957 4.44698 8.08182 4.15667 7.96962 3.8858C7.85742 3.61494 7.69297 3.36882 7.48567 3.1615C7.27835 2.9542 7.03223 2.78974 6.76137 2.67755C6.4905 2.56535 6.20019 2.5076 5.907 2.5076Z" fill="white"/>
<path d="M18.3201 24.8333C17.5402 24.8355 16.7773 24.6062 16.1278 24.1746C15.4783 23.743 14.9716 23.1284 14.6716 22.4085C14.3717 21.6887 14.292 20.896 14.4428 20.1309C14.5936 19.3658 14.968 18.6626 15.5186 18.1105C16.0693 17.5582 16.7713 17.1818 17.5361 17.0289C18.3008 16.8759 19.0937 16.9533 19.8143 17.2512C20.535 17.5491 21.1511 18.0542 21.5845 18.7024C22.018 19.3507 22.2494 20.113 22.2494 20.8928C22.2494 21.936 21.8358 22.9365 21.0992 23.6751C20.3627 24.4139 19.3632 24.8303 18.3201 24.8333ZM18.3201 18.6267C17.8785 18.6267 17.4469 18.7577 17.0798 19.003C16.7126 19.2483 16.4264 19.597 16.2574 20.0049C16.0885 20.4129 16.0443 20.8618 16.1304 21.2949C16.2165 21.7279 16.4292 22.1257 16.7414 22.438C17.0536 22.7502 17.4515 22.9628 17.8845 23.049C18.3176 23.1351 18.7665 23.0909 19.1745 22.9219C19.5824 22.753 19.9311 22.4668 20.1763 22.0996C20.4217 21.7325 20.5526 21.3009 20.5526 20.8593C20.5526 20.2672 20.3174 19.6993 19.8987 19.2807C19.48 18.8619 18.9122 18.6267 18.3201 18.6267Z" fill="white"/>
</g>
<defs>
<clipPath id="clip0_284_1738">
<rect width="24" height="24" fill="white" transform="translate(0 0.833313)"/>
</clipPath>
</defs>
</svg>
