<svg width="16" height="16" viewBox="0 0 16 16" fill="none" xmlns="http://www.w3.org/2000/svg">
<g clip-path="url(#clip0_645_3587)">
<path d="M7.33333 11.3334H7.26667C7.1818 10.9154 7.01676 10.5179 6.78067 10.1627L6.82933 10.114C6.95077 9.98828 7.01797 9.81988 7.01645 9.64508C7.01493 9.47029 6.94482 9.30308 6.82121 9.17947C6.69761 9.05587 6.5304 8.98575 6.3556 8.98424C6.1808 8.98272 6.0124 9.04991 5.88667 9.17135L5.838 9.22002C5.48268 8.98361 5.0849 8.81834 4.66667 8.73335V8.66668C4.66667 8.48987 4.59643 8.3203 4.4714 8.19528C4.34638 8.07026 4.17681 8.00002 4 8.00002C3.82319 8.00002 3.65362 8.07026 3.5286 8.19528C3.40357 8.3203 3.33333 8.48987 3.33333 8.66668V8.73335C2.91538 8.81822 2.51783 8.98326 2.16267 9.21935L2.114 9.17068C1.98827 9.04925 1.81986 8.98205 1.64507 8.98357C1.47027 8.98509 1.30306 9.0552 1.17945 9.17881C1.05585 9.30241 0.985736 9.46962 0.984217 9.64442C0.982698 9.81922 1.04989 9.98762 1.17133 10.1134L1.22 10.162C0.983591 10.5173 0.818319 10.9151 0.733333 11.3334H0.666667C0.489856 11.3334 0.320286 11.4036 0.195262 11.5286C0.0702379 11.6536 0 11.8232 0 12C0 12.1768 0.0702379 12.3464 0.195262 12.4714C0.320286 12.5964 0.489856 12.6667 0.666667 12.6667H0.733333C0.818197 13.0846 0.983238 13.4822 1.21933 13.8374L1.17067 13.886C1.04923 14.0118 0.982032 14.1802 0.983551 14.355C0.98507 14.5298 1.05518 14.697 1.17879 14.8206C1.30239 14.9442 1.4696 15.0143 1.6444 15.0158C1.8192 15.0173 1.9876 14.9501 2.11333 14.8287L2.162 14.78C2.51732 15.0164 2.9151 15.1817 3.33333 15.2667V15.3334C3.33333 15.5102 3.40357 15.6797 3.5286 15.8048C3.65362 15.9298 3.82319 16 4 16C4.17681 16 4.34638 15.9298 4.4714 15.8048C4.59643 15.6797 4.66667 15.5102 4.66667 15.3334V15.2667C5.08462 15.1818 5.48217 15.0168 5.83733 14.7807L5.886 14.8294C6.01174 14.9508 6.18014 15.018 6.35493 15.0165C6.52973 15.0149 6.69694 14.9448 6.82055 14.8212C6.94415 14.6976 7.01426 14.5304 7.01578 14.3556C7.0173 14.1808 6.95011 14.0124 6.82867 13.8867L6.78 13.838C7.01641 13.4827 7.18168 13.0849 7.26667 12.6667H7.33333C7.51014 12.6667 7.67971 12.5964 7.80474 12.4714C7.92976 12.3464 8 12.1768 8 12C8 11.8232 7.92976 11.6536 7.80474 11.5286C7.67971 11.4036 7.51014 11.3334 7.33333 11.3334ZM4 14C3.46957 14 2.96086 13.7893 2.58579 13.4142C2.21071 13.0392 2 12.5305 2 12C2 11.4696 2.21071 10.9609 2.58579 10.5858C2.96086 10.2107 3.46957 10 4 10C4.53043 10 5.03914 10.2107 5.41421 10.5858C5.78929 10.9609 6 11.4696 6 12C6 12.5305 5.78929 13.0392 5.41421 13.4142C5.03914 13.7893 4.53043 14 4 14ZM16 8.00002C16 7.29277 15.719 6.6145 15.219 6.1144C14.7189 5.6143 14.0406 5.33335 13.3333 5.33335V4.00002C13.3333 3.82321 13.2631 3.65364 13.1381 3.52861C13.013 3.40359 12.8435 3.33335 12.6667 3.33335C12.4899 3.33335 12.3203 3.40359 12.1953 3.52861C12.0702 3.65364 12 3.82321 12 4.00002V5.33335H10.3693L8.01533 1.56668C7.71706 1.086 7.30071 0.689668 6.80592 0.415432C6.31113 0.141196 5.75437 -0.00181474 5.18867 1.73845e-05H4C3.46957 1.73845e-05 2.96086 0.210731 2.58579 0.585804C2.21071 0.960877 2 1.46958 2 2.00002V5.33335C1.46957 5.33335 0.960859 5.54406 0.585786 5.91914C0.210714 6.29421 0 6.80292 0 7.33335C0 7.51016 0.0702379 7.67973 0.195262 7.80476C0.320286 7.92978 0.489856 8.00002 0.666667 8.00002C0.843478 8.00002 1.01305 7.92978 1.13807 7.80476C1.2631 7.67973 1.33333 7.51016 1.33333 7.33335C1.33333 7.15654 1.40357 6.98697 1.5286 6.86195C1.65362 6.73692 1.82319 6.66668 2 6.66668H13.3333C13.5797 6.66959 13.8206 6.74031 14.0294 6.8711C14.2383 7.00188 14.407 7.18766 14.5172 7.40806C14.6274 7.62846 14.6748 7.87496 14.6541 8.12051C14.6334 8.36605 14.5455 8.60116 14.4 8.80002L13.3633 10.182C8.87733 8.84868 7.65733 15.7154 12.3333 16C12.9197 15.9929 13.4913 15.815 13.978 15.488C14.4648 15.161 14.8456 14.6992 15.0739 14.159C15.3021 13.6189 15.3679 13.0239 15.2631 12.4469C15.1584 11.87 14.8876 11.3361 14.484 10.9107L15.4667 9.60002C15.8119 9.13793 15.9989 8.57683 16 8.00002ZM3.33333 2.00002C3.33333 1.82321 3.40357 1.65364 3.5286 1.52861C3.65362 1.40359 3.82319 1.33335 4 1.33335H5.18867C5.52808 1.33228 5.86213 1.41809 6.159 1.58263C6.45587 1.74717 6.70569 1.98496 6.88467 2.27335L8.8 5.33335H3.33333V2.00002ZM12.3333 14.6667C11.8913 14.6667 11.4674 14.4911 11.1548 14.1785C10.8423 13.866 10.6667 13.442 10.6667 13C10.6667 12.558 10.8423 12.1341 11.1548 11.8215C11.4674 11.5089 11.8913 11.3334 12.3333 11.3334C12.7754 11.3334 13.1993 11.5089 13.5118 11.8215C13.8244 12.1341 14 12.558 14 13C14 13.442 13.8244 13.866 13.5118 14.1785C13.1993 14.4911 12.7754 14.6667 12.3333 14.6667Z" fill="url(#paint0_linear_645_3587)"/>
</g>
<defs>
<linearGradient id="paint0_linear_645_3587" x1="0" y1="0" x2="13.4511" y2="17.3276" gradientUnits="userSpaceOnUse">
<stop stop-color="#3462CF"/>
<stop offset="1" stop-color="#2B53BE"/>
</linearGradient>
<clipPath id="clip0_645_3587">
<rect width="16" height="16" fill="white"/>
</clipPath>
</defs>
</svg>
