<svg width="16" height="17" viewBox="0 0 16 17" fill="none" xmlns="http://www.w3.org/2000/svg">
<g clip-path="url(#clip0_336_27374)">
<path d="M7.33333 11.8334H7.26667C7.1818 11.4154 7.01676 11.0179 6.78067 10.6627L6.82933 10.614C6.95077 10.4883 7.01797 10.3199 7.01645 10.1451C7.01493 9.97029 6.94482 9.80308 6.82121 9.67947C6.69761 9.55587 6.5304 9.48575 6.3556 9.48424C6.1808 9.48272 6.0124 9.54991 5.88667 9.67135L5.838 9.72002C5.48268 9.48361 5.0849 9.31834 4.66667 9.23335V9.16668C4.66667 8.98987 4.59643 8.8203 4.4714 8.69528C4.34638 8.57026 4.17681 8.50002 4 8.50002C3.82319 8.50002 3.65362 8.57026 3.5286 8.69528C3.40357 8.8203 3.33333 8.98987 3.33333 9.16668V9.23335C2.91538 9.31822 2.51783 9.48326 2.16267 9.71935L2.114 9.67068C1.98827 9.54925 1.81986 9.48205 1.64507 9.48357C1.47027 9.48509 1.30306 9.5552 1.17945 9.67881C1.05585 9.80241 0.985736 9.96962 0.984217 10.1444C0.982698 10.3192 1.04989 10.4876 1.17133 10.6134L1.22 10.662C0.983591 11.0173 0.818319 11.4151 0.733333 11.8334H0.666667C0.489856 11.8334 0.320286 11.9036 0.195262 12.0286C0.0702379 12.1536 0 12.3232 0 12.5C0 12.6768 0.0702379 12.8464 0.195262 12.9714C0.320286 13.0964 0.489856 13.1667 0.666667 13.1667H0.733333C0.818197 13.5846 0.983238 13.9822 1.21933 14.3374L1.17067 14.386C1.04923 14.5118 0.982032 14.6802 0.983551 14.855C0.98507 15.0298 1.05518 15.197 1.17879 15.3206C1.30239 15.4442 1.4696 15.5143 1.6444 15.5158C1.8192 15.5173 1.9876 15.4501 2.11333 15.3287L2.162 15.28C2.51732 15.5164 2.9151 15.6817 3.33333 15.7667V15.8334C3.33333 16.0102 3.40357 16.1797 3.5286 16.3048C3.65362 16.4298 3.82319 16.5 4 16.5C4.17681 16.5 4.34638 16.4298 4.4714 16.3048C4.59643 16.1797 4.66667 16.0102 4.66667 15.8334V15.7667C5.08462 15.6818 5.48217 15.5168 5.83733 15.2807L5.886 15.3294C6.01174 15.4508 6.18014 15.518 6.35493 15.5165C6.52973 15.5149 6.69694 15.4448 6.82055 15.3212C6.94415 15.1976 7.01426 15.0304 7.01578 14.8556C7.0173 14.6808 6.95011 14.5124 6.82867 14.3867L6.78 14.338C7.01641 13.9827 7.18168 13.5849 7.26667 13.1667H7.33333C7.51014 13.1667 7.67971 13.0964 7.80474 12.9714C7.92976 12.8464 8 12.6768 8 12.5C8 12.3232 7.92976 12.1536 7.80474 12.0286C7.67971 11.9036 7.51014 11.8334 7.33333 11.8334ZM4 14.5C3.46957 14.5 2.96086 14.2893 2.58579 13.9142C2.21071 13.5392 2 13.0305 2 12.5C2 11.9696 2.21071 11.4609 2.58579 11.0858C2.96086 10.7107 3.46957 10.5 4 10.5C4.53043 10.5 5.03914 10.7107 5.41421 11.0858C5.78929 11.4609 6 11.9696 6 12.5C6 13.0305 5.78929 13.5392 5.41421 13.9142C5.03914 14.2893 4.53043 14.5 4 14.5ZM16 8.50002C16 7.79277 15.719 7.1145 15.219 6.6144C14.7189 6.1143 14.0406 5.83335 13.3333 5.83335V4.50002C13.3333 4.32321 13.2631 4.15364 13.1381 4.02861C13.013 3.90359 12.8435 3.83335 12.6667 3.83335C12.4899 3.83335 12.3203 3.90359 12.1953 4.02861C12.0702 4.15364 12 4.32321 12 4.50002V5.83335H10.3693L8.01533 2.06668C7.71706 1.586 7.30071 1.18967 6.80592 0.915432C6.31113 0.641196 5.75437 0.498185 5.18867 0.500017H4C3.46957 0.500017 2.96086 0.710731 2.58579 1.0858C2.21071 1.46088 2 1.96958 2 2.50002V5.83335C1.46957 5.83335 0.960859 6.04406 0.585786 6.41914C0.210714 6.79421 0 7.30292 0 7.83335C0 8.01016 0.0702379 8.17973 0.195262 8.30476C0.320286 8.42978 0.489856 8.50002 0.666667 8.50002C0.843478 8.50002 1.01305 8.42978 1.13807 8.30476C1.2631 8.17973 1.33333 8.01016 1.33333 7.83335C1.33333 7.65654 1.40357 7.48697 1.5286 7.36195C1.65362 7.23692 1.82319 7.16668 2 7.16668H13.3333C13.5797 7.16959 13.8206 7.24031 14.0294 7.3711C14.2383 7.50188 14.407 7.68766 14.5172 7.90806C14.6274 8.12846 14.6748 8.37496 14.6541 8.62051C14.6334 8.86605 14.5455 9.10116 14.4 9.30002L13.3633 10.682C8.87733 9.34868 7.65733 16.2154 12.3333 16.5C12.9197 16.4929 13.4913 16.315 13.978 15.988C14.4648 15.661 14.8456 15.1992 15.0739 14.659C15.3021 14.1189 15.3679 13.5239 15.2631 12.9469C15.1584 12.37 14.8876 11.8361 14.484 11.4107L15.4667 10.1C15.8119 9.63793 15.9989 9.07683 16 8.50002ZM3.33333 2.50002C3.33333 2.32321 3.40357 2.15364 3.5286 2.02861C3.65362 1.90359 3.82319 1.83335 4 1.83335H5.18867C5.52808 1.83228 5.86213 1.91809 6.159 2.08263C6.45587 2.24717 6.70569 2.48496 6.88467 2.77335L8.8 5.83335H3.33333V2.50002ZM12.3333 15.1667C11.8913 15.1667 11.4674 14.9911 11.1548 14.6785C10.8423 14.366 10.6667 13.942 10.6667 13.5C10.6667 13.058 10.8423 12.6341 11.1548 12.3215C11.4674 12.0089 11.8913 11.8334 12.3333 11.8334C12.7754 11.8334 13.1993 12.0089 13.5118 12.3215C13.8244 12.6341 14 13.058 14 13.5C14 13.942 13.8244 14.366 13.5118 14.6785C13.1993 14.9911 12.7754 15.1667 12.3333 15.1667Z" fill="url(#paint0_linear_336_27374)"/>
</g>
<defs>
<linearGradient id="paint0_linear_336_27374" x1="0" y1="0.5" x2="13.4511" y2="17.8276" gradientUnits="userSpaceOnUse">
<stop stop-color="#3462CF"/>
<stop offset="1" stop-color="#2B53BE"/>
</linearGradient>
<clipPath id="clip0_336_27374">
<rect width="16" height="16" fill="white" transform="translate(0 0.5)"/>
</clipPath>
</defs>
</svg>
