<svg width="16" height="16" viewBox="0 0 16 16" fill="none" xmlns="http://www.w3.org/2000/svg">
<g clip-path="url(#clip0_3957_30995)">
<path d="M10.4714 7.80467L8.94272 9.33333L10.4714 10.862C10.732 11.1227 10.732 11.544 10.4714 11.8047C10.3414 11.9347 10.1707 12 10 12C9.82938 12 9.65871 11.9347 9.52871 11.8047L8.00005 10.276L6.47139 11.8047C6.34139 11.9347 6.17073 12 6.00006 12C5.8294 12 5.65873 11.9347 5.52873 11.8047C5.26807 11.544 5.26807 11.1227 5.52873 10.862L7.05739 9.33333L5.52873 7.80467C5.26807 7.544 5.26807 7.12267 5.52873 6.862C5.7894 6.60133 6.21073 6.60133 6.47139 6.862L8.00005 8.39067L9.52871 6.862C9.78938 6.60133 10.2107 6.60133 10.4714 6.862C10.732 7.12267 10.732 7.544 10.4714 7.80467ZM15.3334 3.33333C15.3334 3.702 15.0347 4 14.6667 4H14.0767L13.226 12.9813C13.0627 14.702 11.636 16 9.90738 16H6.0894C4.3634 16 2.93674 14.7047 2.77141 12.986L1.90741 4H1.33408C0.966085 4 0.667419 3.702 0.667419 3.33333C0.667419 2.96467 0.966085 2.66667 1.33408 2.66667H4.06807C4.37807 1.14733 5.72473 0 7.33406 0H8.66738C10.2767 0 11.624 1.14733 11.9334 2.66667H14.6674C15.0354 2.66667 15.3334 2.96467 15.3334 3.33333ZM5.44806 2.66667H10.552C10.2767 1.89067 9.53605 1.33333 8.66672 1.33333H7.33339C6.46406 1.33333 5.7234 1.89067 5.44806 2.66667ZM12.7374 4H3.24674L4.09874 12.858C4.1974 13.8893 5.0534 14.6667 6.0894 14.6667H9.90738C10.9447 14.6667 11.8007 13.888 11.8987 12.8547L12.7374 4Z" fill="#6A7185"/>
</g>
<defs>
<clipPath id="clip0_3957_30995">
<rect width="15.9999" height="16" fill="white"/>
</clipPath>
</defs>
</svg>
