<svg width="18" height="19" viewBox="0 0 18 19" fill="none" xmlns="http://www.w3.org/2000/svg">
<g clip-path="url(#clip0_336_2096)">
<path d="M11.7802 9.28025L10.0605 11L11.7802 12.7197C12.0735 13.013 12.0735 13.487 11.7802 13.7803C11.634 13.9265 11.442 14 11.25 14C11.058 14 10.866 13.9265 10.7197 13.7803L8.99998 12.0605L7.28023 13.7803C7.13398 13.9265 6.94198 14 6.74998 14C6.55798 14 6.36598 13.9265 6.21973 13.7803C5.92648 13.487 5.92648 13.013 6.21973 12.7197L7.93948 11L6.21973 9.28025C5.92648 8.987 5.92648 8.513 6.21973 8.21975C6.51298 7.9265 6.98698 7.9265 7.28023 8.21975L8.99998 9.9395L10.7197 8.21975C11.013 7.9265 11.487 7.9265 11.7802 8.21975C12.0735 8.513 12.0735 8.987 11.7802 9.28025ZM17.25 4.25C17.25 4.66475 16.914 5 16.5 5H15.8362L14.8792 15.104C14.6955 17.0398 13.0905 18.5 11.1457 18.5H6.85048C4.90873 18.5 3.30373 17.0427 3.11773 15.1093L2.14573 5H1.50073C1.08673 5 0.750732 4.66475 0.750732 4.25C0.750732 3.83525 1.08673 3.5 1.50073 3.5H4.57648C4.92523 1.79075 6.44023 0.5 8.25073 0.5H9.75073C11.5612 0.5 13.077 1.79075 13.425 3.5H16.5007C16.9147 3.5 17.25 3.83525 17.25 4.25ZM6.12898 3.5H11.871C11.5612 2.627 10.728 2 9.74998 2H8.24998C7.27198 2 6.43873 2.627 6.12898 3.5ZM14.3295 5H3.65248L4.61098 14.9653C4.72198 16.1255 5.68498 17 6.85048 17H11.1457C12.3127 17 13.2757 16.124 13.386 14.9615L14.3295 5Z" fill="#D94841"/>
</g>
<defs>
<clipPath id="clip0_336_2096">
<rect width="18" height="18" fill="white" transform="translate(0 0.5)"/>
</clipPath>
</defs>
</svg>
