<svg width="24" height="24" viewBox="0 0 24 24" fill="none" xmlns="http://www.w3.org/2000/svg">
<path d="M9.10307 16.1638H7.11168C1.5879 15.9351 1.5894 8.06418 7.11171 7.83624H9.10307C9.29367 7.83403 9.4757 7.75676 9.6097 7.6212C9.7437 7.48563 9.81884 7.30271 9.81884 7.11209C9.81884 6.92148 9.74368 6.73856 9.60968 6.603C9.47569 6.46744 9.29364 6.39018 9.10305 6.38797H7.11168C5.62486 6.3904 4.19977 6.98274 3.14928 8.03495C2.0988 9.08715 1.50879 10.5132 1.50879 12C1.50879 13.4869 2.0988 14.9129 3.14928 15.9651C4.19977 17.0173 5.62486 17.6097 7.11168 17.6121H9.10307C9.29321 17.6092 9.47457 17.5316 9.608 17.3961C9.74143 17.2607 9.81622 17.0781 9.81622 16.888C9.81622 16.6978 9.74143 16.5153 9.608 16.3798C9.47457 16.2443 9.29321 16.1667 9.10307 16.1638Z" fill="white"/>
<path d="M16.8876 6.38797H14.8963C14.7042 6.38797 14.52 6.46426 14.3842 6.60007C14.2484 6.73587 14.1721 6.92006 14.1721 7.11211C14.1721 7.30416 14.2484 7.48835 14.3842 7.62415C14.52 7.75995 14.7042 7.83625 14.8963 7.83625H16.8876C17.4344 7.83625 17.9759 7.94395 18.4811 8.1532C18.9862 8.36245 19.4452 8.66915 19.8319 9.05579C20.2185 9.44244 20.5252 9.90145 20.7345 10.4066C20.9437 10.9118 21.0514 11.4532 21.0514 12C21.0514 12.5468 20.9437 13.0883 20.7345 13.5935C20.5252 14.0986 20.2185 14.5576 19.8319 14.9443C19.4452 15.3309 18.9862 15.6376 18.4811 15.8469C17.9759 16.0561 17.4344 16.1638 16.8876 16.1638H15.1077C14.9171 16.166 14.7351 16.2433 14.6011 16.3789C14.4671 16.5144 14.3919 16.6974 14.3919 16.888C14.3919 17.0786 14.4671 17.2615 14.6011 17.3971C14.7351 17.5326 14.9171 17.6099 15.1077 17.6121H16.8877C24.3328 17.3039 24.3307 6.69504 16.8876 6.38797Z" fill="white"/>
<path d="M5.48267 12C5.48289 12.192 5.55925 12.3761 5.695 12.5118C5.83075 12.6476 6.01481 12.7239 6.20679 12.7242H17.793C17.9851 12.7242 18.1693 12.6479 18.3051 12.5121C18.4409 12.3763 18.5172 12.1921 18.5172 12C18.5172 11.808 18.4409 11.6238 18.3051 11.488C18.1693 11.3522 17.9851 11.2759 17.793 11.2759H6.2068C6.01481 11.2761 5.83075 11.3525 5.695 11.4882C5.55924 11.624 5.48288 11.808 5.48267 12Z" fill="white"/>
</svg>
