<svg width="19" height="14" viewBox="0 0 19 14" fill="none" xmlns="http://www.w3.org/2000/svg">
<path d="M18.6961 6.74688C18.6687 6.68516 18.007 5.21719 16.5359 3.74609C14.5758 1.78594 12.1 0.75 9.37499 0.75C6.64999 0.75 4.17421 1.78594 2.21405 3.74609C0.742961 5.21719 0.0781175 6.6875 0.0538988 6.74688C0.0183622 6.82681 0 6.91331 0 7.00078C0 7.08826 0.0183622 7.17476 0.0538988 7.25469C0.0812425 7.31641 0.742961 8.78359 2.21405 10.2547C4.17421 12.2141 6.64999 13.25 9.37499 13.25C12.1 13.25 14.5758 12.2141 16.5359 10.2547C18.007 8.78359 18.6687 7.31641 18.6961 7.25469C18.7316 7.17476 18.75 7.08826 18.75 7.00078C18.75 6.91331 18.7316 6.82681 18.6961 6.74688ZM9.37499 12C6.9703 12 4.86952 11.1258 3.13046 9.40234C2.4169 8.69273 1.80983 7.88356 1.32812 7C1.8097 6.11636 2.41679 5.30717 3.13046 4.59766C4.86952 2.87422 6.9703 2 9.37499 2C11.7797 2 13.8805 2.87422 15.6195 4.59766C16.3345 5.307 16.9429 6.11619 17.4258 7C16.8625 8.05156 14.4086 12 9.37499 12ZM9.37499 3.25C8.63331 3.25 7.90829 3.46993 7.2916 3.88199C6.67492 4.29404 6.19427 4.87971 5.91044 5.56494C5.62662 6.25016 5.55235 7.00416 5.69705 7.73159C5.84174 8.45902 6.19889 9.1272 6.72334 9.65165C7.24779 10.1761 7.91597 10.5333 8.6434 10.6779C9.37083 10.8226 10.1248 10.7484 10.8101 10.4645C11.4953 10.1807 12.0809 9.70007 12.493 9.08339C12.9051 8.4667 13.125 7.74168 13.125 7C13.124 6.00576 12.7285 5.05253 12.0255 4.34949C11.3225 3.64645 10.3692 3.25103 9.37499 3.25ZM9.37499 9.5C8.88054 9.5 8.39719 9.35338 7.98607 9.07867C7.57494 8.80397 7.25451 8.41352 7.06529 7.95671C6.87607 7.49989 6.82657 6.99723 6.92303 6.51227C7.01949 6.02732 7.25759 5.58186 7.60722 5.23223C7.95686 4.8826 8.40231 4.6445 8.88727 4.54804C9.37222 4.45157 9.87488 4.50108 10.3317 4.6903C10.7885 4.87952 11.179 5.19995 11.4537 5.61107C11.7284 6.0222 11.875 6.50555 11.875 7C11.875 7.66304 11.6116 8.29893 11.1428 8.76777C10.6739 9.23661 10.038 9.5 9.37499 9.5Z" fill="white"/>
</svg>
