<svg width="17" height="5" viewBox="0 0 17 5" fill="none" xmlns="http://www.w3.org/2000/svg">
<path d="M7.73609 3.64327C7.96221 3.79436 8.22805 3.875 8.5 3.875C8.86467 3.875 9.21441 3.73013 9.47227 3.47227C9.73013 3.21441 9.875 2.86467 9.875 2.5C9.875 2.22805 9.79436 1.96221 9.64327 1.73609C9.49218 1.50997 9.27744 1.33374 9.02619 1.22967C8.77494 1.1256 8.49847 1.09837 8.23175 1.15142C7.96503 1.20448 7.72003 1.33543 7.52773 1.52773C7.33543 1.72003 7.20447 1.96503 7.15142 2.23175C7.09836 2.49847 7.12559 2.77494 7.22967 3.02619C7.33374 3.27744 7.50997 3.49218 7.73609 3.64327ZM13.5 2.5C13.5 2.77195 13.5806 3.03779 13.7317 3.26391C13.8828 3.49003 14.0976 3.66626 14.3488 3.77033C14.6001 3.8744 14.8765 3.90163 15.1432 3.84858C15.41 3.79553 15.655 3.66457 15.8473 3.47227C16.0396 3.27997 16.1705 3.03497 16.2236 2.76825C16.2766 2.50153 16.2494 2.22506 16.1453 1.97381C16.0413 1.72256 15.865 1.50782 15.6389 1.35673C15.4128 1.20564 15.1469 1.125 14.875 1.125C14.5103 1.125 14.1606 1.26987 13.9027 1.52773C13.6449 1.78559 13.5 2.13533 13.5 2.5ZM3.5 2.5C3.5 2.22805 3.41936 1.96221 3.26827 1.73609C3.11718 1.50997 2.90244 1.33374 2.65119 1.22967C2.39994 1.1256 2.12348 1.09837 1.85675 1.15142C1.59003 1.20448 1.34503 1.33543 1.15273 1.52773C0.960432 1.72003 0.829474 1.96503 0.77642 2.23175C0.723366 2.49848 0.750595 2.77494 0.854667 3.02619C0.958736 3.27744 1.13497 3.49218 1.36109 3.64327C1.58721 3.79436 1.85305 3.875 2.125 3.875C2.48967 3.875 2.83941 3.73013 3.09727 3.47227C3.35513 3.21441 3.5 2.86467 3.5 2.5Z" fill="#1A582D" stroke="#1A582D" stroke-width="0.5"/>
</svg>
