<svg width="267" height="235" viewBox="0 0 267 235" fill="none" xmlns="http://www.w3.org/2000/svg">
<path d="M260.937 45.1252L50.9115 1.36993C47.9619 0.755429 45.0789 2.67009 44.5012 5.62713L1.34396 226.551C0.705626 229.819 3.12749 232.881 6.45601 232.96C35.3496 233.639 86.4012 233.114 101.25 226.292C116.853 219.123 179.289 227.13 210.809 232.38C212.332 232.634 213.887 232.268 214.865 231.073C229.743 212.882 253.703 108.054 265.131 51.4637C265.719 48.5553 263.842 45.7304 260.937 45.1252Z" fill="#83BF6E" fill-opacity="0.5"/>
<path d="M261.047 44.5958L51.0218 0.840533C47.7772 0.164582 44.6059 2.27071 43.9705 5.52345L0.813232 226.448C0.111769 230.038 2.77397 233.414 6.4433 233.5C20.8983 233.84 40.8985 233.879 59.1464 232.979C68.2699 232.529 76.9632 231.844 84.3101 230.843C91.6412 229.845 97.685 228.525 101.475 226.783C105.263 225.043 111.987 224.197 120.53 224.021C129.044 223.846 139.276 224.338 150.017 225.218C171.497 226.978 194.97 230.29 210.721 232.914C212.373 233.189 214.149 232.803 215.283 231.415C217.19 229.084 219.215 225.403 221.322 220.674C223.432 215.935 225.639 210.111 227.901 203.467C232.424 190.179 237.174 173.588 241.815 155.805C251.097 120.237 259.946 79.872 265.661 51.5707C266.308 48.3688 264.241 45.2612 261.047 44.5958Z" stroke="white" stroke-opacity="0.8" stroke-width="1.08153"/>
</svg>
