<svg width="341" height="253" viewBox="0 0 341 253" fill="none" xmlns="http://www.w3.org/2000/svg">
<path d="M289.016 111.178L339.208 8.80647C341.104 4.93802 337.937 0.519645 333.666 1.08438C322.146 2.60748 302.984 5.19444 289.016 7.35193C271.162 10.1096 243.916 14.9268 241.121 15.422C240.954 15.4516 240.803 15.4703 240.633 15.4841L161.949 21.9074C161.581 21.9374 161.211 21.9297 160.845 21.8844L113.204 15.9907C110.708 15.6819 108.329 17.1346 107.463 19.4958L97.3211 47.1556C97.1379 47.6552 96.882 48.1251 96.5616 48.5499L1.99393 173.955C-0.208736 176.876 1.06406 181.095 4.51452 182.311L202.321 252.005C204.65 252.825 207.239 251.964 208.612 249.912L255.488 179.855L289.016 111.178Z" fill="#83BF6E" fill-opacity="0.5" stroke="white" stroke-opacity="0.8" stroke-width="1.08153"/>
</svg>
