<svg width="18" height="19" viewBox="0 0 18 19" fill="none" xmlns="http://www.w3.org/2000/svg">
<g clip-path="url(#clip0_43_244)">
<path d="M17.4532 7.56427C16.29 5.66977 13.644 2.49127 8.99998 2.49127C4.35598 2.49127 1.70998 5.66977 0.546727 7.56427C0.187123 8.1459 -0.00335693 8.8162 -0.00335693 9.50002C-0.00335693 10.1838 0.187123 10.8541 0.546727 11.4358C1.70998 13.3303 4.35598 16.5088 8.99998 16.5088C13.644 16.5088 16.29 13.3303 17.4532 11.4358C17.8128 10.8541 18.0033 10.1838 18.0033 9.50002C18.0033 8.8162 17.8128 8.1459 17.4532 7.56427ZM16.1745 10.6505C15.1755 12.275 12.9142 15.0088 8.99998 15.0088C5.08573 15.0088 2.82448 12.275 1.82548 10.6505C1.61183 10.3048 1.49867 9.90643 1.49867 9.50002C1.49867 9.09362 1.61183 8.69524 1.82548 8.34952C2.82448 6.72502 5.08573 3.99127 8.99998 3.99127C12.9142 3.99127 15.1755 6.72202 16.1745 8.34952C16.3881 8.69524 16.5013 9.09362 16.5013 9.50002C16.5013 9.90643 16.3881 10.3048 16.1745 10.6505Z" fill="#fff"/>
<path d="M9 5.75C8.25832 5.75 7.5333 5.96993 6.91661 6.38199C6.29993 6.79404 5.81928 7.37971 5.53545 8.06494C5.25162 8.75016 5.17736 9.50416 5.32206 10.2316C5.46675 10.959 5.8239 11.6272 6.34835 12.1517C6.8728 12.6761 7.54098 13.0333 8.26841 13.1779C8.99584 13.3226 9.74984 13.2484 10.4351 12.9645C11.1203 12.6807 11.706 12.2001 12.118 11.5834C12.5301 10.9667 12.75 10.2417 12.75 9.5C12.7488 8.5058 12.3533 7.55267 11.6503 6.84966C10.9473 6.14666 9.9942 5.75119 9 5.75ZM9 11.75C8.55499 11.75 8.11998 11.618 7.74997 11.3708C7.37996 11.1236 7.09157 10.7722 6.92127 10.361C6.75098 9.9499 6.70642 9.4975 6.79323 9.06105C6.88005 8.62459 7.09434 8.22368 7.40901 7.90901C7.72368 7.59434 8.12459 7.38005 8.56105 7.29323C8.99751 7.20642 9.44991 7.25097 9.86104 7.42127C10.2722 7.59157 10.6236 7.87996 10.8708 8.24997C11.118 8.61998 11.25 9.05499 11.25 9.5C11.25 10.0967 11.0129 10.669 10.591 11.091C10.169 11.5129 9.59674 11.75 9 11.75Z" fill="#fff"/>
</g>
<defs>
<linearGradient id="paint0_linear_43_244" x1="-0.00335693" y1="2.49127" x2="10.7658" y2="20.312" gradientUnits="userSpaceOnUse">
<stop stop-color="#fff"/>
<stop offset="1" stop-color="#fff"/>
</linearGradient>
<linearGradient id="paint1_linear_43_244" x1="5.25" y1="5.75" x2="11.5552" y2="13.8723" gradientUnits="userSpaceOnUse">
<stop stop-color="#3462CF"/>
<stop offset="1" stop-color="#fff"/>
</linearGradient>
<clipPath id="clip0_43_244">
<rect width="18" height="18" fill="white" transform="translate(0 0.5)"/>
</clipPath>
</defs>
</svg>
