<svg width="19" height="20" viewBox="0 0 19 20" fill="none" xmlns="http://www.w3.org/2000/svg">
<g clip-path="url(#clip0_4590_882)">
<mask id="mask0_4590_882" style="mask-type:luminance" maskUnits="userSpaceOnUse" x="0" y="0" width="19" height="20">
<path d="M18.9972 0.526367H0.0498047V19.4737H18.9972V0.526367Z" fill="white"/>
</mask>
<g mask="url(#mask0_4590_882)">
<path d="M18.4212 7.96244C17.1968 5.96823 14.4115 2.62244 9.5231 2.62244C4.63467 2.62244 1.84941 5.96823 0.624934 7.96244C0.246404 8.57468 0.0458984 9.28026 0.0458984 10.0001C0.0458984 10.7198 0.246404 11.4254 0.624934 12.0377C1.84941 14.0319 4.63467 17.3777 9.5231 17.3777C14.4115 17.3777 17.1968 14.0319 18.4212 12.0377C18.7997 11.4254 19.0003 10.7198 19.0003 10.0001C19.0003 9.28026 18.7997 8.57468 18.4212 7.96244ZM17.0752 11.2111C16.0236 12.9211 13.6433 15.7988 9.5231 15.7988C5.40283 15.7988 3.02257 12.9211 1.97099 11.2111C1.7461 10.8472 1.62698 10.4279 1.62698 10.0001C1.62698 9.57228 1.7461 9.15293 1.97099 8.78901C3.02257 7.07901 5.40283 4.20138 9.5231 4.20138C13.6433 4.20138 16.0236 7.07586 17.0752 8.78901C17.3001 9.15293 17.4192 9.57228 17.4192 10.0001C17.4192 10.4279 17.3001 10.8472 17.0752 11.2111Z" fill="#05A155"/>
<path d="M9.52354 6.05273C8.74283 6.05273 7.97965 6.28424 7.3305 6.71799C6.68136 7.15172 6.17542 7.76822 5.87665 8.48951C5.57788 9.2108 5.49971 10.0045 5.65203 10.7702C5.80433 11.5359 6.18028 12.2393 6.73233 12.7914C7.28438 13.3434 7.98773 13.7194 8.75345 13.8716C9.51916 14.0239 10.3128 13.9458 11.0342 13.6469C11.7554 13.3482 12.372 12.8423 12.8056 12.1932C13.2394 11.544 13.4709 10.7808 13.4709 10.0001C13.4696 8.95358 13.0533 7.95028 12.3133 7.21027C11.5733 6.47027 10.5701 6.05399 9.52354 6.05273ZM9.52354 12.3685C9.05511 12.3685 8.5972 12.2296 8.20772 11.9694C7.81824 11.7092 7.51467 11.3393 7.3354 10.9064C7.15615 10.4737 7.10925 9.99747 7.20063 9.53805C7.29202 9.07862 7.51758 8.65661 7.84882 8.32538C8.18005 7.99414 8.60206 7.76858 9.06149 7.67719C9.52092 7.58581 9.99713 7.6327 10.4299 7.81197C10.8627 7.99123 11.2326 8.2948 11.4928 8.68428C11.753 9.07377 11.892 9.53167 11.892 10.0001C11.892 10.6282 11.6424 11.2306 11.1983 11.6748C10.7541 12.1189 10.1517 12.3685 9.52354 12.3685Z" fill="#05A155"/>
</g>
</g>
<defs>
<clipPath id="clip0_4590_882">
<rect width="18.9474" height="20" fill="white" transform="translate(0.0498047)"/>
</clipPath>
</defs>
</svg>
