<svg width="24" height="25" viewBox="0 0 24 25" fill="none" xmlns="http://www.w3.org/2000/svg">
<g clip-path="url(#clip0_3257_13265)">
<path d="M23.328 8.92599L20.327 4.424C19.895 3.777 19.289 3.273 18.575 2.966L13.576 0.823995C12.574 0.393995 11.425 0.393995 10.424 0.823995L5.426 2.966C4.711 3.273 4.105 3.777 3.674 4.424L0.672 8.92599C0.233 9.58499 0 10.352 0 11.145V19.5C0 22.257 2.243 24.5 5 24.5H19C21.757 24.5 24 22.257 24 19.5V11.145C24 10.353 23.768 9.58499 23.328 8.92599ZM13.579 18.591L17 15.792V21.39L13.579 18.591ZM15.198 22.5H8.801L12 19.883L15.199 22.5H15.198ZM11.999 17.299L8.578 14.5H15.42L11.999 17.299ZM6.999 15.792L10.42 18.591L6.999 21.39V15.792ZM21.999 19.5C21.999 21.154 20.653 22.5 18.999 22.5V15.5C18.999 13.846 17.653 12.5 15.999 12.5H8C6.346 12.5 5 13.846 5 15.5V22.5C3.346 22.5 2 21.154 2 19.5V11.145C2 10.749 2.116 10.365 2.336 10.036L5.337 5.534C5.553 5.211 5.856 4.958 6.213 4.805L11.212 2.663C11.462 2.556 11.731 2.502 11.999 2.502C12.267 2.502 12.536 2.556 12.787 2.663L17.786 4.805C18.143 4.958 18.447 5.211 18.662 5.534L21.663 10.036C21.883 10.366 21.999 10.749 21.999 11.145V19.5ZM12 4.5C10.346 4.5 9 5.846 9 7.5C9 9.154 10.346 10.5 12 10.5C13.654 10.5 15 9.154 15 7.5C15 5.846 13.654 4.5 12 4.5ZM12 8.5C11.449 8.5 11 8.051 11 7.5C11 6.949 11.449 6.5 12 6.5C12.551 6.5 13 6.949 13 7.5C13 8.051 12.551 8.5 12 8.5Z" fill="#D94841"/>
</g>
<defs>
<clipPath id="clip0_3257_13265">
<rect width="24" height="24" fill="white" transform="translate(0 0.5)"/>
</clipPath>
</defs>
</svg>
