<svg width="16" height="17" viewBox="0 0 16 17" fill="none" xmlns="http://www.w3.org/2000/svg">
<g clip-path="url(#clip0_336_27354)">
<path d="M12.0306 9.12858C12.0203 9.1004 10.9947 6.2944 10.543 4.98018C10.2516 4.13218 9.76293 3.70221 9.09068 3.70221C8.15524 3.70221 7.84383 3.70221 6.90943 3.70221C6.23718 3.70221 5.74852 4.13218 5.45712 4.98018C5.00549 6.2944 3.97986 9.10043 3.96952 9.12858C3.8504 9.45436 4.01793 9.81508 4.34374 9.93418C4.66952 10.0533 5.03024 9.88571 5.14933 9.55996C5.15786 9.53658 5.86108 7.61265 6.36258 6.19605C6.40743 6.3433 6.49915 6.46974 6.61986 6.5594L6.62136 7.47974L5.54096 10.2041C5.48205 10.3527 5.5683 10.5187 5.72327 10.556C5.88455 10.5947 6.09815 10.6475 6.32983 10.7054V15.7462C6.32983 16.1625 6.6673 16.5 7.08358 16.5C7.49986 16.5 7.83733 16.1625 7.83733 15.7462V11.0617C7.94558 11.0713 8.05446 11.0712 8.16274 11.0615V15.7462C8.16274 16.1625 8.50021 16.5 8.91649 16.5C9.33277 16.5 9.67024 16.1625 9.67024 15.7462V10.7047C9.90171 10.6468 10.1151 10.5941 10.2764 10.5555C10.4303 10.5186 10.518 10.3526 10.4589 10.2036L9.37871 7.47971L9.38021 6.55937C9.50096 6.46974 9.59262 6.3433 9.63749 6.19602C10.139 7.61262 10.8422 9.53655 10.8507 9.55993C10.9699 9.88574 11.3306 10.0533 11.6563 9.93415C11.9822 9.81508 12.1497 9.45436 12.0306 9.12858Z" fill="#F2A84C"/>
<path d="M7.99999 3.24362C8.75762 3.24362 9.3718 2.62944 9.3718 1.87181C9.3718 1.11418 8.75762 0.5 7.99999 0.5C7.24235 0.5 6.62817 1.11418 6.62817 1.87181C6.62817 2.62944 7.24235 3.24362 7.99999 3.24362Z" fill="#F2A84C"/>
</g>
<defs>
<clipPath id="clip0_336_27354">
<rect width="16" height="16" fill="white" transform="translate(0 0.5)"/>
</clipPath>
</defs>
</svg>
