<svg width="16" height="17" viewBox="0 0 16 17" fill="none" xmlns="http://www.w3.org/2000/svg">
<g clip-path="url(#clip0_287_4533)">
<path d="M12.0305 9.12858C12.0202 9.1004 10.9946 6.2944 10.5429 4.98018C10.2515 4.13218 9.76287 3.70221 9.09062 3.70221C8.15519 3.70221 7.84378 3.70221 6.90937 3.70221C6.23712 3.70221 5.74847 4.13218 5.45706 4.98018C5.00544 6.2944 3.97981 9.10043 3.96947 9.12858C3.85034 9.45436 4.01787 9.81508 4.34369 9.93418C4.66947 10.0533 5.03019 9.88571 5.14928 9.55996C5.15781 9.53658 5.86103 7.61265 6.36253 6.19605C6.40737 6.3433 6.49909 6.46974 6.61981 6.5594L6.62131 7.47974L5.54091 10.2041C5.482 10.3527 5.56825 10.5187 5.72322 10.556C5.8845 10.5947 6.09809 10.6475 6.32978 10.7054V15.7462C6.32978 16.1625 6.66725 16.5 7.08353 16.5C7.49981 16.5 7.83728 16.1625 7.83728 15.7462V11.0617C7.94553 11.0713 8.05441 11.0712 8.16269 11.0615V15.7462C8.16269 16.1625 8.50015 16.5 8.91644 16.5C9.33272 16.5 9.67019 16.1625 9.67019 15.7462V10.7047C9.90166 10.6468 10.1151 10.5941 10.2764 10.5555C10.4302 10.5186 10.518 10.3526 10.4589 10.2036L9.37866 7.47971L9.38016 6.55937C9.50091 6.46974 9.59256 6.3433 9.63744 6.19602C10.1389 7.61262 10.8422 9.53655 10.8507 9.55993C10.9698 9.88574 11.3305 10.0533 11.6563 9.93415C11.9821 9.81508 12.1497 9.45436 12.0305 9.12858Z" fill="#F2A84C"/>
<path d="M8 3.24362C8.75763 3.24362 9.37181 2.62944 9.37181 1.87181C9.37181 1.11418 8.75763 0.5 8 0.5C7.24237 0.5 6.62819 1.11418 6.62819 1.87181C6.62819 2.62944 7.24237 3.24362 8 3.24362Z" fill="#F2A84C"/>
</g>
<defs>
<clipPath id="clip0_287_4533">
<rect width="16" height="16" fill="white" transform="translate(0 0.5)"/>
</clipPath>
</defs>
</svg>
