<svg width="24" height="24" viewBox="0 0 24 24" fill="none" xmlns="http://www.w3.org/2000/svg">
<path d="M21.9691 4.65692C21.9595 4.49382 21.8905 4.3399 21.7749 4.22437C21.6594 4.10884 21.5054 4.03976 21.3423 4.03023C17.0283 3.78022 13.5644 5.09194 12.0758 7.5487C11.0923 9.17293 11.094 11.1455 12.0625 13.0272C11.5112 13.6834 11.1083 14.451 10.8814 15.2773L9.52538 13.9164C10.1772 12.5556 10.1522 11.1372 9.44204 9.95879C8.34186 8.14289 5.80228 7.16952 2.64927 7.35453C2.48614 7.36405 2.3322 7.43313 2.21666 7.54866C2.10112 7.66419 2.03202 7.81811 2.0225 7.98122C1.83663 11.1338 2.81096 13.6731 4.62709 14.7731C5.22641 15.1393 5.91509 15.333 6.61741 15.3332C7.29911 15.3248 7.97019 15.1633 8.58106 14.8606L10.6647 16.9441V19.3333C10.6647 19.5101 10.735 19.6797 10.86 19.8047C10.9851 19.9298 11.1547 20 11.3315 20C11.5084 20 11.6779 19.9298 11.803 19.8047C11.928 19.6797 11.9983 19.5101 11.9983 19.3333V16.8757C11.9953 15.8151 12.3563 14.7855 13.021 13.9589C13.8786 14.4071 14.8297 14.6469 15.7972 14.659C16.7327 14.662 17.6508 14.4065 18.4502 13.9206C20.9072 12.4339 22.2225 8.97042 21.9691 4.65692ZM5.3147 13.6331C4.03616 12.8589 3.31271 11.0263 3.33021 8.66624C5.69059 8.64624 7.52339 9.3721 8.29769 10.6505C8.70192 11.3172 8.76776 12.0947 8.50272 12.8956L6.46822 10.8613C6.34216 10.7416 6.1743 10.6758 6.00043 10.678C5.82656 10.6802 5.66044 10.7503 5.53748 10.8732C5.41453 10.9962 5.34447 11.1623 5.34225 11.3361C5.34002 11.51 5.4058 11.6778 5.52557 11.8039L7.56007 13.8381C6.7591 14.1031 5.98231 14.0373 5.3147 13.6331ZM17.7592 12.7814C16.6424 13.4573 15.3297 13.5089 13.9961 12.9481L18.471 8.4729C18.5908 8.34685 18.6566 8.17902 18.6543 8.00517C18.6521 7.83132 18.582 7.66522 18.4591 7.54228C18.3361 7.41934 18.17 7.34929 17.9961 7.34707C17.8223 7.34484 17.6544 7.41061 17.5284 7.53037L13.0526 11.9997C12.4892 10.6663 12.54 9.35293 13.2193 8.23706C14.3812 6.32032 17.1366 5.25195 20.6647 5.33445C20.7447 8.86125 19.6779 11.6197 17.7592 12.7814Z" fill="white"/>
<g clip-path="url(#clip0_5446_1580)">
<path d="M23.0328 20.2828C23.1079 20.2078 23.15 20.1061 23.15 20C23.15 19.8939 23.1079 19.7922 23.0328 19.7172C22.9578 19.6421 22.8561 19.6 22.75 19.6H20.4V17.25C20.4 17.1439 20.3579 17.0422 20.2828 16.9672C20.2078 16.8921 20.1061 16.85 20 16.85C19.8939 16.85 19.7922 16.8921 19.7172 16.9672C19.6421 17.0422 19.6 17.1439 19.6 17.25V19.6H17.25C17.1439 19.6 17.0422 19.6421 16.9672 19.7172C16.8921 19.7922 16.85 19.8939 16.85 20C16.85 20.1061 16.8921 20.2078 16.9672 20.2828C17.0422 20.3579 17.1439 20.4 17.25 20.4H19.6V22.75C19.6 22.8561 19.6421 22.9578 19.7172 23.0328C19.7922 23.1079 19.8939 23.15 20 23.15C20.1061 23.15 20.2078 23.1079 20.2828 23.0328C20.3579 22.9578 20.4 22.8561 20.4 22.75V20.4H22.75C22.8561 20.4 22.9578 20.3579 23.0328 20.2828Z" fill="white" stroke="white" stroke-width="0.3"/>
</g>
<defs>
<clipPath id="clip0_5446_1580">
<rect width="8" height="8" fill="white" transform="translate(16 16)"/>
</clipPath>
</defs>
</svg>
