<svg width="24" height="24" viewBox="0 0 24 24" fill="none" xmlns="http://www.w3.org/2000/svg">
<rect x="1" y="5" width="14" height="1.5" rx="0.75" fill="#1A582D"/>
<rect x="1" y="11.5" width="14" height="1.5" rx="0.75" fill="#1A582D"/>
<rect x="1" y="18" width="14" height="1.5" rx="0.75" fill="#1A582D"/>
<path d="M19.3536 4.64645C19.1583 4.45118 18.8417 4.45118 18.6464 4.64645L15.4645 7.82843C15.2692 8.02369 15.2692 8.34027 15.4645 8.53553C15.6597 8.7308 15.9763 8.7308 16.1716 8.53553L19 5.70711L21.8284 8.53553C22.0237 8.7308 22.3403 8.7308 22.5355 8.53553C22.7308 8.34027 22.7308 8.02369 22.5355 7.82843L19.3536 4.64645ZM18.6464 19.3536C18.8417 19.5488 19.1583 19.5488 19.3536 19.3536L22.5355 16.1716C22.7308 15.9763 22.7308 15.6597 22.5355 15.4645C22.3403 15.2692 22.0237 15.2692 21.8284 15.4645L19 18.2929L16.1716 15.4645C15.9763 15.2692 15.6597 15.2692 15.4645 15.4645C15.2692 15.6597 15.2692 15.9763 15.4645 16.1716L18.6464 19.3536ZM18.5 5L18.5 19L19.5 19L19.5 5L18.5 5Z" fill="#1A582D"/>
</svg>
