<svg width="16" height="16" viewBox="0 0 16 16" fill="none" xmlns="http://www.w3.org/2000/svg">
<path d="M5.5 9.5C5.5 9.63261 5.55268 9.75979 5.64645 9.85355C5.74021 9.94732 5.86739 10 6 10H10C10.1326 10 10.2598 9.94732 10.3536 9.85355C10.4473 9.75979 10.5 9.63261 10.5 9.5C10.5 9.36739 10.4473 9.24021 10.3536 9.14645C10.2598 9.05268 10.1326 9 10 9H6C5.86739 9 5.74021 9.05268 5.64645 9.14645C5.55268 9.24021 5.5 9.36739 5.5 9.5ZM6 7H10C10.1326 7 10.2598 7.05268 10.3536 7.14645C10.4473 7.24022 10.5 7.36739 10.5 7.5C10.5 7.63261 10.4473 7.75979 10.3536 7.85355C10.2598 7.94732 10.1326 8 10 8H6C5.86739 8 5.74021 7.94732 5.64645 7.85355C5.55268 7.75979 5.5 7.63261 5.5 7.5C5.5 7.36739 5.55268 7.24022 5.64645 7.14645C5.74021 7.05268 5.86739 7 6 7ZM2.5 3V13.5C2.5 13.7652 2.60536 14.0196 2.79289 14.2071C2.98043 14.3946 3.23478 14.5 3.5 14.5H12.5C12.7652 14.5 13.0196 14.3946 13.2071 14.2071C13.3946 14.0196 13.5 13.7652 13.5 13.5V3C13.5 2.73478 13.3946 2.48043 13.2071 2.29289C13.0196 2.10536 12.7652 2 12.5 2H10.2337C9.95281 1.68545 9.60861 1.43379 9.22367 1.26147C8.83873 1.08916 8.42174 1.00009 8 1.00009C7.57826 1.00009 7.16127 1.08916 6.77633 1.26147C6.3914 1.43379 6.04719 1.68545 5.76625 2H3.5C3.23478 2 2.98043 2.10536 2.79289 2.29289C2.60536 2.48043 2.5 2.73478 2.5 3ZM10 4H6C6 3.46957 6.21071 2.96086 6.58579 2.58579C6.96086 2.21071 7.46957 2 8 2C8.53043 2 9.03914 2.21071 9.41421 2.58579C9.78929 2.96086 10 3.46957 10 4ZM3.5 3H5.17188C5.05814 3.32113 5.00001 3.65932 5 4V4.5C5 4.63261 5.05268 4.75978 5.14645 4.85355C5.24021 4.94732 5.36739 5 5.5 5H10.5C10.6326 5 10.7598 4.94732 10.8536 4.85355C10.9473 4.75978 11 4.63261 11 4.5V4C11 3.65932 10.9419 3.32113 10.8281 3H12.5V13.5H3.5V3Z" fill="#35353D"/>
<g clip-path="url(#clip0_565_1898)">
<rect x="10" y="10" width="5" height="5" rx="2.5" fill="#35353D"/>
<path d="M13.5976 11.787C13.6155 11.8049 13.6297 11.8261 13.6393 11.8494C13.649 11.8728 13.654 11.8978 13.654 11.9231C13.654 11.9483 13.649 11.9734 13.6393 11.9967C13.6297 12.0201 13.6155 12.0413 13.5976 12.0591L12.2514 13.4053C12.2336 13.4232 12.2124 13.4374 12.189 13.447C12.1657 13.4567 12.1407 13.4617 12.1154 13.4617C12.0901 13.4617 12.0651 13.4567 12.0417 13.447C12.0184 13.4374 11.9972 13.4232 11.9793 13.4053L11.4024 12.8284C11.3663 12.7923 11.346 12.7433 11.346 12.6923C11.346 12.6413 11.3663 12.5923 11.4024 12.5562C11.4385 12.5202 11.4874 12.4999 11.5385 12.4999C11.5895 12.4999 11.6384 12.5202 11.6745 12.5562L12.1154 12.9974L13.3255 11.787C13.3433 11.7691 13.3646 11.755 13.3879 11.7453C13.4112 11.7356 13.4363 11.7306 13.4615 11.7306C13.4868 11.7306 13.5118 11.7356 13.5352 11.7453C13.5585 11.755 13.5797 11.7691 13.5976 11.787ZM15 12.5C15 12.9945 14.8534 13.4778 14.5787 13.8889C14.304 14.3 13.9135 14.6205 13.4567 14.8097C12.9999 14.9989 12.4972 15.0484 12.0123 14.952C11.5273 14.8555 11.0819 14.6174 10.7322 14.2678C10.3826 13.9181 10.1445 13.4727 10.048 12.9877C9.95157 12.5028 10.0011 12.0001 10.1903 11.5433C10.3795 11.0865 10.7 10.696 11.1111 10.4213C11.5222 10.1466 12.0055 10 12.5 10C13.1628 10.0007 13.7983 10.2643 14.267 10.733C14.7357 11.2017 14.9993 11.8372 15 12.5ZM14.6154 12.5C14.6154 12.0816 14.4913 11.6726 14.2589 11.3248C14.0264 10.9769 13.6961 10.7057 13.3095 10.5456C12.923 10.3855 12.4977 10.3436 12.0873 10.4253C11.677 10.5069 11.3 10.7084 11.0042 11.0042C10.7084 11.3 10.5069 11.677 10.4253 12.0873C10.3436 12.4977 10.3855 12.923 10.5456 13.3095C10.7057 13.6961 10.9769 14.0264 11.3248 14.2589C11.6726 14.4913 12.0816 14.6154 12.5 14.6154C13.0608 14.6147 13.5985 14.3917 13.9951 13.9951C14.3917 13.5985 14.6147 13.0608 14.6154 12.5Z" fill="#35353D"/>
</g>
<defs>
<clipPath id="clip0_565_1898">
<rect x="10" y="10" width="5" height="5" rx="2.5" fill="white"/>
</clipPath>
</defs>
</svg>
