<svg width="16" height="16" viewBox="0 0 16 16" fill="none" xmlns="http://www.w3.org/2000/svg">
<path d="M13.6769 6.4856L8.67688 1.7681C8.67443 1.76597 8.67213 1.76367 8.67 1.76122C8.48591 1.59381 8.24602 1.50104 7.99719 1.50104C7.74836 1.50104 7.50846 1.59381 7.32438 1.76122L7.3175 1.7681L2.32312 6.4856C2.22125 6.57928 2.13993 6.69309 2.08431 6.81982C2.02869 6.94655 1.99998 7.08345 2 7.22185V13C2 13.2652 2.10536 13.5195 2.29289 13.7071C2.48043 13.8946 2.73478 14 3 14H6C6.26522 14 6.51957 13.8946 6.70711 13.7071C6.89464 13.5195 7 13.2652 7 13V9.99997H9V13C9 13.2652 9.10536 13.5195 9.29289 13.7071C9.48043 13.8946 9.73478 14 10 14H13C13.2652 14 13.5196 13.8946 13.7071 13.7071C13.8946 13.5195 14 13.2652 14 13V7.22185C14 7.08345 13.9713 6.94655 13.9157 6.81982C13.8601 6.69309 13.7788 6.57928 13.6769 6.4856ZM13 13H10V9.99997C10 9.73476 9.89464 9.4804 9.70711 9.29287C9.51957 9.10533 9.26522 8.99997 9 8.99997H7C6.73478 8.99997 6.48043 9.10533 6.29289 9.29287C6.10536 9.4804 6 9.73476 6 9.99997V13H3V7.22185L3.00688 7.2156L8 2.49997L12.9937 7.21435L13.0006 7.2206L13 13Z" fill="#35353D"/>
</svg>
