<svg width="16" height="16" viewBox="0 0 16 16" fill="none" xmlns="http://www.w3.org/2000/svg">
<path fill-rule="evenodd" clip-rule="evenodd" d="M3.80663 2.39503C5.10337 1.42488 6.69638 0.93436 8.31423 1.00706C9.93208 1.07976 11.4747 1.71118 12.6792 2.79373C13.8837 3.87629 14.6755 5.34299 14.9199 6.94394C15.1642 8.54489 14.8458 10.181 14.0191 11.5736C13.9094 11.7582 13.6708 11.8191 13.4862 11.7094C13.3015 11.5998 13.2406 11.3612 13.3503 11.1765C14.0852 9.93869 14.3682 8.48434 14.151 7.06128C13.9338 5.63821 13.2299 4.33447 12.1593 3.37221C11.0886 2.40994 9.71741 1.84868 8.27932 1.78405C6.84123 1.71943 5.42522 2.15545 4.27256 3.01781C3.11991 3.88017 2.30192 5.11552 1.95799 6.51337C1.61405 7.91122 1.76544 9.38508 2.38635 10.6838C3.00727 11.9826 4.05931 13.0258 5.3632 13.6359C6.66709 14.2459 8.14217 14.385 9.53709 14.0294C9.74521 13.9763 9.95694 14.102 10.01 14.3101C10.0631 14.5182 9.93735 14.73 9.72923 14.783C8.15994 15.1831 6.50048 15.0267 5.0336 14.3404C3.56672 13.6541 2.38318 12.4804 1.68465 11.0193C0.986116 9.55821 0.815805 7.90012 1.20274 6.32754C1.58967 4.75496 2.5099 3.36519 3.80663 2.39503ZM8.2592 4.05926C8.47398 4.05926 8.64809 4.23337 8.64809 4.44815V8.64814C8.64809 8.78935 8.57283 8.91298 8.46023 8.98111L6.24356 10.7173C6.07447 10.8497 5.83004 10.82 5.69761 10.6509C5.56518 10.4818 5.59489 10.2374 5.76398 10.1049L7.87032 8.4552V4.44815C7.87032 4.23337 8.04443 4.05926 8.2592 4.05926ZM12.2259 9.16666C12.2259 8.95188 12.0517 8.77777 11.837 8.77777C11.6222 8.77777 11.4481 8.95188 11.4481 9.16666V13.3666C11.4481 13.5814 11.6222 13.7555 11.837 13.7555C12.0517 13.7555 12.2259 13.5814 12.2259 13.3666V9.16666ZM11.837 14.0666C12.0517 14.0666 12.2259 14.2408 12.2259 14.4555V14.4815C12.2259 14.6962 12.0517 14.8703 11.837 14.8703C11.6222 14.8703 11.4481 14.6962 11.4481 14.4815V14.4555C11.4481 14.2408 11.6222 14.0666 11.837 14.0666Z" fill="black"/>
<path d="M8.31423 1.00706L8.30974 1.10696L8.31423 1.00706ZM3.80663 2.39503L3.86654 2.4751L3.86654 2.4751L3.80663 2.39503ZM12.6792 2.79373L12.6123 2.86811L12.6123 2.86811L12.6792 2.79373ZM14.9199 6.94394L14.821 6.95903L14.821 6.95903L14.9199 6.94394ZM14.0191 11.5736L13.9331 11.5225L14.0191 11.5736ZM13.4862 11.7094L13.4351 11.7954L13.4351 11.7954L13.4862 11.7094ZM13.3503 11.1765L13.2643 11.1255L13.2643 11.1255L13.3503 11.1765ZM14.151 7.06128L14.0521 7.07636L14.0521 7.07636L14.151 7.06128ZM12.1593 3.37221L12.0924 3.44658L12.0924 3.44658L12.1593 3.37221ZM8.27932 1.78405L8.28381 1.68415L8.28381 1.68415L8.27932 1.78405ZM4.27256 3.01781L4.21266 2.93773L4.21266 2.93773L4.27256 3.01781ZM1.95799 6.51337L1.86088 6.48948L1.86088 6.48948L1.95799 6.51337ZM2.38635 10.6838L2.47657 10.6407L2.47657 10.6407L2.38635 10.6838ZM5.3632 13.6359L5.40558 13.5453L5.40558 13.5453L5.3632 13.6359ZM9.53709 14.0294L9.5618 14.1263L9.5618 14.1263L9.53709 14.0294ZM10.01 14.3101L9.91309 14.3348L9.91309 14.3348L10.01 14.3101ZM9.72923 14.783L9.75393 14.8799L9.75393 14.8799L9.72923 14.783ZM5.0336 14.3404L5.07598 14.2498L5.07598 14.2498L5.0336 14.3404ZM1.68465 11.0193L1.59443 11.0624L1.68465 11.0193ZM1.20274 6.32754L1.29984 6.35143L1.29984 6.35143L1.20274 6.32754ZM8.46023 8.98111L8.40809 8.89493L8.39857 8.90238L8.46023 8.98111ZM6.24356 10.7173L6.30522 10.796L6.30522 10.796L6.24356 10.7173ZM5.76398 10.1049L5.82564 10.1837L5.82564 10.1837L5.76398 10.1049ZM7.87032 8.4552L7.93198 8.53393L7.97032 8.5039V8.4552H7.87032ZM8.31872 0.907162C6.67776 0.833422 5.06199 1.33095 3.74673 2.31496L3.86654 2.4751C5.14475 1.51881 6.715 1.0353 8.30974 1.10696L8.31872 0.907162ZM12.746 2.71936C11.5243 1.62134 9.95968 0.980901 8.31872 0.907162L8.30974 1.10696C9.90448 1.17862 11.425 1.80102 12.6123 2.86811L12.746 2.71936ZM15.0187 6.92885C14.7709 5.30503 13.9677 3.81738 12.746 2.71936L12.6123 2.86811C13.7996 3.9352 14.5802 5.38095 14.821 6.95903L15.0187 6.92885ZM14.1051 11.6246C14.9436 10.2122 15.2665 8.55267 15.0187 6.92885L14.821 6.95903C15.0618 8.5371 14.748 10.1499 13.9331 11.5225L14.1051 11.6246ZM13.4351 11.7954C13.6673 11.9333 13.9672 11.8568 14.1051 11.6246L13.9331 11.5225C13.8516 11.6597 13.6744 11.7049 13.5372 11.6234L13.4351 11.7954ZM13.2643 11.1255C13.1265 11.3576 13.2029 11.6576 13.4351 11.7954L13.5372 11.6234C13.4 11.542 13.3548 11.3647 13.4363 11.2276L13.2643 11.1255ZM14.0521 7.07636C14.2658 8.47656 13.9874 9.90753 13.2643 11.1255L13.4363 11.2276C14.183 9.96984 14.4705 8.49213 14.2498 7.04619L14.0521 7.07636ZM12.0924 3.44658C13.1459 4.39339 13.8384 5.67617 14.0521 7.07636L14.2498 7.04619C14.0292 5.60026 13.314 4.27556 12.2261 3.29783L12.0924 3.44658ZM8.27483 1.88395C9.6898 1.94754 11.039 2.49978 12.0924 3.44658L12.2261 3.29783C11.1382 2.3201 9.74501 1.74982 8.28381 1.68415L8.27483 1.88395ZM4.33247 3.09788C5.4666 2.24938 6.85985 1.82037 8.27483 1.88395L8.28381 1.68415C6.8226 1.61849 5.38384 2.06151 4.21266 2.93773L4.33247 3.09788ZM2.05509 6.53726C2.3935 5.16187 3.19834 3.94638 4.33247 3.09788L4.21266 2.93773C3.04148 3.81396 2.21035 5.06916 1.86088 6.48948L2.05509 6.53726ZM2.47657 10.6407C1.86563 9.36282 1.71668 7.91264 2.05509 6.53726L1.86088 6.48948C1.51142 7.90979 1.66524 9.40734 2.29614 10.727L2.47657 10.6407ZM5.40558 13.5453C4.12264 12.9451 3.08751 11.9186 2.47657 10.6407L2.29614 10.727C2.92703 12.0466 3.99597 13.1066 5.32082 13.7265L5.40558 13.5453ZM9.51239 13.9325C8.13988 14.2824 6.68851 14.1455 5.40558 13.5453L5.32082 13.7265C6.64567 14.3463 8.14445 14.4876 9.5618 14.1263L9.51239 13.9325ZM10.1069 14.2854C10.0402 14.0238 9.77403 13.8658 9.51239 13.9325L9.5618 14.1263C9.7164 14.0868 9.87368 14.1802 9.91309 14.3348L10.1069 14.2854ZM9.75393 14.8799C10.0156 14.8132 10.1736 14.5471 10.1069 14.2854L9.91309 14.3348C9.95251 14.4894 9.85913 14.6467 9.70452 14.6861L9.75393 14.8799ZM4.99122 14.4309C6.47906 15.127 8.16222 15.2857 9.75393 14.8799L9.70453 14.6861C8.15765 15.0805 6.5219 14.9263 5.07598 14.2498L4.99122 14.4309ZM1.59443 11.0624C2.30294 12.5444 3.50339 13.7348 4.99122 14.4309L5.07598 14.2498C3.63005 13.5733 2.46342 12.4164 1.77487 10.9762L1.59443 11.0624ZM1.10563 6.30365C0.713173 7.89869 0.885917 9.58047 1.59443 11.0624L1.77487 10.9762C1.08631 9.53595 0.918436 7.90155 1.29984 6.35143L1.10563 6.30365ZM3.74673 2.31496C2.43147 3.29898 1.49809 4.7086 1.10563 6.30365L1.29984 6.35143C1.68124 4.80132 2.58833 3.4314 3.86654 2.4751L3.74673 2.31496ZM8.74809 4.44815C8.74809 4.17814 8.52921 3.95926 8.2592 3.95926V4.15926C8.41875 4.15926 8.54809 4.2886 8.54809 4.44815H8.74809ZM8.74809 8.64814V4.44815H8.54809V8.64814H8.74809ZM8.51199 9.06667C8.65329 8.98118 8.74809 8.82578 8.74809 8.64814H8.54809C8.54809 8.75292 8.49237 8.84479 8.40846 8.89555L8.51199 9.06667ZM8.39857 8.90238L6.1819 10.6385L6.30522 10.796L8.52189 9.05984L8.39857 8.90238ZM6.1819 10.6385C6.05629 10.7369 5.87471 10.7148 5.77634 10.5892L5.61888 10.7126C5.78537 10.9251 6.09265 10.9625 6.30522 10.796L6.1819 10.6385ZM5.77634 10.5892C5.67796 10.4636 5.70003 10.282 5.82564 10.1837L5.70232 10.0262C5.48975 10.1927 5.45239 10.5 5.61888 10.7126L5.77634 10.5892ZM5.82564 10.1837L7.93198 8.53393L7.80866 8.37648L5.70232 10.0262L5.82564 10.1837ZM7.77032 4.44815V8.4552H7.97032V4.44815H7.77032ZM8.2592 3.95926C7.9892 3.95926 7.77032 4.17814 7.77032 4.44815H7.97032C7.97032 4.2886 8.09966 4.15926 8.2592 4.15926V3.95926ZM11.837 8.87777C11.9965 8.87777 12.1259 9.00711 12.1259 9.16666H12.3259C12.3259 8.89665 12.107 8.67777 11.837 8.67777V8.87777ZM11.5481 9.16666C11.5481 9.00711 11.6774 8.87777 11.837 8.87777V8.67777C11.567 8.67777 11.3481 8.89665 11.3481 9.16666H11.5481ZM11.5481 13.3666V9.16666H11.3481V13.3666H11.5481ZM11.837 13.6555C11.6774 13.6555 11.5481 13.5262 11.5481 13.3666H11.3481C11.3481 13.6367 11.567 13.8555 11.837 13.8555V13.6555ZM12.1259 13.3666C12.1259 13.5262 11.9965 13.6555 11.837 13.6555V13.8555C12.107 13.8555 12.3259 13.6367 12.3259 13.3666H12.1259ZM12.1259 9.16666V13.3666H12.3259V9.16666H12.1259ZM12.3259 14.4555C12.3259 14.1855 12.107 13.9666 11.837 13.9666V14.1666C11.9965 14.1666 12.1259 14.296 12.1259 14.4555H12.3259ZM12.3259 14.4815V14.4555H12.1259V14.4815H12.3259ZM11.837 14.9703C12.107 14.9703 12.3259 14.7515 12.3259 14.4815H12.1259C12.1259 14.641 11.9965 14.7703 11.837 14.7703V14.9703ZM11.3481 14.4815C11.3481 14.7515 11.567 14.9703 11.837 14.9703V14.7703C11.6774 14.7703 11.5481 14.641 11.5481 14.4815H11.3481ZM11.3481 14.4555V14.4815H11.5481V14.4555H11.3481ZM11.837 13.9666C11.567 13.9666 11.3481 14.1855 11.3481 14.4555H11.5481C11.5481 14.296 11.6774 14.1666 11.837 14.1666V13.9666Z" fill="black"/>
</svg>
