<svg width="16" height="16" viewBox="0 0 16 16" fill="none" xmlns="http://www.w3.org/2000/svg">
<path d="M15.4637 7.3125L14.5887 5.125C14.5145 4.93992 14.3864 4.78139 14.2211 4.66996C14.0557 4.55852 13.8607 4.49931 13.6613 4.5H11.5V4C11.5 3.86739 11.4473 3.74021 11.3536 3.64645C11.2598 3.55268 11.1326 3.5 11 3.5H1.5C1.23478 3.5 0.98043 3.60536 0.792893 3.79289C0.605357 3.98043 0.5 4.23478 0.5 4.5V11.5C0.5 11.7652 0.605357 12.0196 0.792893 12.2071C0.98043 12.3946 1.23478 12.5 1.5 12.5H2.5625C2.67265 12.9302 2.92285 13.3115 3.27366 13.5838C3.62446 13.8561 4.05591 14.0039 4.5 14.0039C4.94409 14.0039 5.37554 13.8561 5.72635 13.5838C6.07715 13.3115 6.32735 12.9302 6.4375 12.5H9.5625C9.67265 12.9302 9.92285 13.3115 10.2737 13.5838C10.6245 13.8561 11.0559 14.0039 11.5 14.0039C11.9441 14.0039 12.3755 13.8561 12.7263 13.5838C13.0771 13.3115 13.3273 12.9302 13.4375 12.5H14.5C14.7652 12.5 15.0196 12.3946 15.2071 12.2071C15.3946 12.0196 15.5 11.7652 15.5 11.5V7.5C15.5002 7.43574 15.4879 7.37206 15.4637 7.3125ZM11.5 5.5H13.6613L14.2612 7H11.5V5.5ZM1.5 4.5H10.5V8.5H1.5V4.5ZM4.5 13C4.30222 13 4.10888 12.9414 3.94443 12.8315C3.77998 12.7216 3.65181 12.5654 3.57612 12.3827C3.50043 12.2 3.48063 11.9989 3.51921 11.8049C3.5578 11.6109 3.65304 11.4327 3.79289 11.2929C3.93275 11.153 4.11093 11.0578 4.30491 11.0192C4.49889 10.9806 4.69996 11.0004 4.88268 11.0761C5.06541 11.1518 5.22159 11.28 5.33147 11.4444C5.44135 11.6089 5.5 11.8022 5.5 12C5.5 12.2652 5.39464 12.5196 5.20711 12.7071C5.01957 12.8946 4.76522 13 4.5 13ZM9.5625 11.5H6.4375C6.32735 11.0698 6.07715 10.6885 5.72635 10.4162C5.37554 10.1439 4.94409 9.99608 4.5 9.99608C4.05591 9.99608 3.62446 10.1439 3.27366 10.4162C2.92285 10.6885 2.67265 11.0698 2.5625 11.5H1.5V9.5H10.5V10.2694C10.2701 10.4023 10.0688 10.5795 9.9079 10.7907C9.74697 11.002 9.62957 11.243 9.5625 11.5ZM11.5 13C11.3022 13 11.1089 12.9414 10.9444 12.8315C10.78 12.7216 10.6518 12.5654 10.5761 12.3827C10.5004 12.2 10.4806 11.9989 10.5192 11.8049C10.5578 11.6109 10.653 11.4327 10.7929 11.2929C10.9327 11.153 11.1109 11.0578 11.3049 11.0192C11.4989 10.9806 11.7 11.0004 11.8827 11.0761C12.0654 11.1518 12.2216 11.28 12.3315 11.4444C12.4414 11.6089 12.5 11.8022 12.5 12C12.5 12.2652 12.3946 12.5196 12.2071 12.7071C12.0196 12.8946 11.7652 13 11.5 13ZM14.5 11.5H13.4375C13.326 11.0708 13.0754 10.6908 12.7247 10.4193C12.3741 10.1479 11.9434 10.0004 11.5 10V8H14.5V11.5Z" fill="#35353D"/>
</svg>
