<svg width="16" height="16" viewBox="0 0 16 16" fill="none" xmlns="http://www.w3.org/2000/svg">
<g clip-path="url(#clip0_8556_1387)">
<path d="M0 15.2833H-0.05V15.3333V16V16.05H0H16H16.05V16V15.3333V15.2833H16H0Z" fill="#45A845" stroke="#45A845" stroke-width="0.1"/>
<path d="M0.333984 12.95H0.283984V13V13.6667V13.7167H0.333984H1.334H1.384V13.6667V13V12.95H1.334H0.333984Z" fill="#45A845" stroke="#45A845" stroke-width="0.1"/>
<path d="M2.33398 12.95H2.28398V13V13.6667V13.7167H2.33398H3.334H3.384V13.6667V13V12.95H3.334H2.33398Z" fill="#45A845" stroke="#45A845" stroke-width="0.1"/>
<path d="M4.33398 12.95H4.28398V13V13.6667V13.7167H4.33398H5.334H5.384V13.6667V13V12.95H5.334H4.33398Z" fill="#45A845" stroke="#45A845" stroke-width="0.1"/>
<path d="M6.33398 12.95H6.28398V13V13.6667V13.7167H6.33398H7.334H7.384V13.6667V13V12.95H7.334H6.33398Z" fill="#45A845" stroke="#45A845" stroke-width="0.1"/>
<path d="M8.33398 12.95H8.28398V13V13.6667V13.7167H8.33398H9.334H9.384V13.6667V13V12.95H9.334H8.33398Z" fill="#45A845" stroke="#45A845" stroke-width="0.1"/>
<path d="M10.334 12.95H10.284V13V13.6667V13.7167H10.334H11.334H11.384V13.6667V13V12.95H11.334H10.334Z" fill="#45A845" stroke="#45A845" stroke-width="0.1"/>
<path d="M12.334 12.95H12.284V13V13.6667V13.7167H12.334H13.334H13.384V13.6667V13V12.95H13.334H12.334Z" fill="#45A845" stroke="#45A845" stroke-width="0.1"/>
<path d="M14.334 12.95H14.284V13V13.6667V13.7167H14.334H15.334H15.384V13.6667V13V12.95H15.334H14.334Z" fill="#45A845" stroke="#45A845" stroke-width="0.1"/>
<path d="M11 4.28331H10.95V4.33331V4.99997V5.04997H11H13H13.05V4.99997V4.33331V4.28331H13H11Z" fill="#45A845" stroke="#45A845" stroke-width="0.1"/>
<path d="M3 4.28331H2.95V4.33331V4.99997V5.04997H3H5H5.05V4.99997V4.33331V4.28331H5H3Z" fill="#45A845" stroke="#45A845" stroke-width="0.1"/>
<path d="M1.90333 11.3833H1.93858L1.95042 11.3501L3.85376 6.01681L3.8776 5.95H3.80667H2.33332H2.28332V6V6.66669V6.71669H2.33332H2.78903L1.39478 10.6167H0H-0.05V10.6667V11.3333V11.3833H0H1.90333Z" fill="#45A845" stroke="#45A845" stroke-width="0.1"/>
<path d="M12.4126 11.3833H12.4744L12.4615 11.3229L11.3181 5.98952L11.3097 5.95H11.2692H9.99924H9.94924V6V6.66669V6.71669H9.99924H10.6888L11.5241 10.6167H4.47444L5.30968 6.71669H5.99925H6.04925V6.66669V6V5.95H5.99925H4.72925H4.68883L4.68036 5.98952L3.53705 11.3229L3.52408 11.3833H3.58594H12.4126Z" fill="#45A845" stroke="#45A845" stroke-width="0.1"/>
<path d="M16 11.3833H16.05V11.3333V10.6667V10.6167H16H14.6052L13.211 6.71669H13.6667H13.7167V6.66669V6V5.95H13.6667H12.1934H12.1224L12.1463 6.01681L14.0496 11.3501L14.0614 11.3833H14.0967H16Z" fill="#45A845" stroke="#45A845" stroke-width="0.1"/>
<path d="M7.96183 7.89487L8.00063 7.94264L8.03944 7.89487L8.29944 7.57486L8.29957 7.57469C8.34851 7.51392 8.95175 6.7611 9.54301 5.78208C9.83863 5.29257 10.1318 4.7456 10.3512 4.19962C10.5704 3.65422 10.7173 3.10659 10.7173 2.61665C10.7173 1.14482 9.49732 -0.05 8.00063 -0.05C6.50395 -0.05 5.28398 1.14482 5.28398 2.61665C5.28398 3.10577 5.43087 3.65278 5.65004 4.19777C5.86945 4.74332 6.16264 5.29009 6.45826 5.7796C7.02426 6.7168 7.60128 7.44751 7.69207 7.56249C7.69613 7.56763 7.69921 7.57153 7.70128 7.57418L7.70128 7.57418L7.70183 7.57486L7.96183 7.89487ZM6.05064 2.61665C6.05064 1.5688 6.9237 0.716654 8.00063 0.716654C9.07757 0.716654 9.95063 1.56883 9.95063 2.61665C9.95063 3.27123 9.60482 4.10397 9.1793 4.87882C8.77366 5.61747 8.30017 6.29551 8.00063 6.70249C7.7011 6.29552 7.22761 5.61748 6.82197 4.87883C6.39645 4.10399 6.05064 3.27125 6.05064 2.61665Z" fill="#45A845" stroke="#45A845" stroke-width="0.1"/>
<path d="M8.28334 2.66663V2.66664C8.28334 2.82237 8.15574 2.94997 8.00001 2.94997C7.84429 2.94997 7.71669 2.82237 7.71669 2.66664C7.71669 2.51091 7.84429 2.38331 8.00001 2.38331C8.15575 2.38331 8.28337 2.51095 8.28334 2.66663ZM6.95 2.66664C6.95 3.24428 7.42241 3.71666 8.00001 3.71666C8.57765 3.71666 9.05003 3.24427 9.05003 2.66664C9.05003 2.08901 8.57765 1.61663 8.00001 1.61663C7.42238 1.61663 6.95 2.08901 6.95 2.66664Z" fill="#45A845" stroke="#45A845" stroke-width="0.1"/>
</g>
<defs>
<clipPath id="clip0_8556_1387">
<rect width="16" height="16" fill="white"/>
</clipPath>
</defs>
</svg>
