<svg width="17" height="16" viewBox="0 0 17 16" fill="none" xmlns="http://www.w3.org/2000/svg">
<path d="M13.5996 2.00015H12.0996V1.50015C12.0996 1.36754 12.0469 1.24037 11.9532 1.1466C11.8594 1.05283 11.7322 1.00015 11.5996 1.00015C11.467 1.00015 11.3398 1.05283 11.2461 1.1466C11.1523 1.24037 11.0996 1.36754 11.0996 1.50015V2.00015H6.09961V1.50015C6.09961 1.36754 6.04693 1.24037 5.95316 1.1466C5.85939 1.05283 5.73222 1.00015 5.59961 1.00015C5.467 1.00015 5.33982 1.05283 5.24606 1.1466C5.15229 1.24037 5.09961 1.36754 5.09961 1.50015V2.00015H3.59961C3.33439 2.00015 3.08004 2.10551 2.8925 2.29305C2.70497 2.48058 2.59961 2.73494 2.59961 3.00015V13.0002C2.59961 13.2654 2.70497 13.5197 2.8925 13.7073C3.08004 13.8948 3.33439 14.0002 3.59961 14.0002H13.5996C13.8648 14.0002 14.1192 13.8948 14.3067 13.7073C14.4943 13.5197 14.5996 13.2654 14.5996 13.0002V3.00015C14.5996 2.73494 14.4943 2.48058 14.3067 2.29305C14.1192 2.10551 13.8648 2.00015 13.5996 2.00015ZM5.09961 3.00015V3.50015C5.09961 3.63276 5.15229 3.75994 5.24606 3.85371C5.33982 3.94747 5.467 4.00015 5.59961 4.00015C5.73222 4.00015 5.85939 3.94747 5.95316 3.85371C6.04693 3.75994 6.09961 3.63276 6.09961 3.50015V3.00015H11.0996V3.50015C11.0996 3.63276 11.1523 3.75994 11.2461 3.85371C11.3398 3.94747 11.467 4.00015 11.5996 4.00015C11.7322 4.00015 11.8594 3.94747 11.9532 3.85371C12.0469 3.75994 12.0996 3.63276 12.0996 3.50015V3.00015H13.5996V5.00015H3.59961V3.00015H5.09961ZM13.5996 13.0002H3.59961V6.00015H13.5996V13.0002Z" fill="black"/>
</svg>
