<svg width="20" height="20" viewBox="0 0 20 20" fill="none" xmlns="http://www.w3.org/2000/svg">
<path d="M19.3211 9.74694C19.2937 9.68522 18.632 8.21725 17.1609 6.74615C15.2008 4.786 12.725 3.75006 9.99999 3.75006C7.27499 3.75006 4.79921 4.786 2.83905 6.74615C1.36796 8.21725 0.703118 9.68756 0.678899 9.74694C0.643362 9.82687 0.625 9.91337 0.625 10.0008C0.625 10.0883 0.643362 10.1748 0.678899 10.2547C0.706243 10.3165 1.36796 11.7837 2.83905 13.2547C4.79921 15.2141 7.27499 16.2501 9.99999 16.2501C12.725 16.2501 15.2008 15.2141 17.1609 13.2547C18.632 11.7837 19.2937 10.3165 19.3211 10.2547C19.3566 10.1748 19.375 10.0883 19.375 10.0008C19.375 9.91337 19.3566 9.82687 19.3211 9.74694ZM9.99999 15.0001C7.5953 15.0001 5.49452 14.1258 3.75546 12.4024C3.0419 11.6928 2.43483 10.8836 1.95312 10.0001C2.4347 9.11642 3.04179 8.30723 3.75546 7.59772C5.49452 5.87428 7.5953 5.00006 9.99999 5.00006C12.4047 5.00006 14.5055 5.87428 16.2445 7.59772C16.9595 8.30706 17.5679 9.11625 18.0508 10.0001C17.4875 11.0516 15.0336 15.0001 9.99999 15.0001ZM9.99999 6.25006C9.25831 6.25006 8.53329 6.47 7.9166 6.88205C7.29992 7.29411 6.81927 7.87978 6.53544 8.565C6.25162 9.25022 6.17735 10.0042 6.32205 10.7316C6.46674 11.4591 6.82389 12.1273 7.34834 12.6517C7.87279 13.1762 8.54097 13.5333 9.2684 13.678C9.99583 13.8227 10.7498 13.7484 11.4351 13.4646C12.1203 13.1808 12.7059 12.7001 13.118 12.0834C13.5301 11.4668 13.75 10.7417 13.75 10.0001C13.749 9.00582 13.3535 8.05259 12.6505 7.34955C11.9475 6.64652 10.9942 6.2511 9.99999 6.25006ZM9.99999 12.5001C9.50554 12.5001 9.02219 12.3534 8.61107 12.0787C8.19994 11.804 7.87951 11.4136 7.69029 10.9568C7.50107 10.5 7.45157 9.99729 7.54803 9.51234C7.64449 9.02738 7.88259 8.58193 8.23222 8.23229C8.58186 7.88266 9.02731 7.64456 9.51227 7.5481C9.99722 7.45163 10.4999 7.50114 10.9567 7.69036C11.4135 7.87958 11.804 8.20001 12.0787 8.61114C12.3534 9.02226 12.5 9.50561 12.5 10.0001C12.5 10.6631 12.2366 11.299 11.7678 11.7678C11.2989 12.2367 10.663 12.5001 9.99999 12.5001Z" fill="black"/>
</svg>
