<svg width="360" height="240" viewBox="0 0 360 240" fill="none" xmlns="http://www.w3.org/2000/svg">
<g clip-path="url(#clip0_5966_970)">
<path fill-rule="evenodd" clip-rule="evenodd" d="M231.792 195.493H121.361C114.811 195.493 109.502 189.606 109.502 182.344C109.502 175.082 114.811 169.195 121.361 169.195H162.996C167.67 169.195 171.46 164.994 171.462 159.812L171.462 159.368C171.464 154.422 167.849 150.41 163.388 150.41H163.025C151.261 150.41 141.773 139.783 141.931 126.741C141.952 124.984 141.952 123.227 141.932 121.469C141.781 108.432 151.266 97.8127 162.988 97.8127H214.242C219.484 97.8127 223.734 93.1007 223.734 87.2883C223.734 78.2795 230.319 70.9775 238.443 70.9775H249.684C257.807 70.9775 264.393 78.2795 264.393 87.2883V116.985C264.393 125.368 270.521 132.162 278.08 132.162H284.722C295.148 132.162 303.6 141.534 303.6 153.094C303.6 164.654 295.148 174.025 284.722 174.025H250.364C245.574 174.025 241.835 178.367 241.971 183.677L241.978 183.964C242.118 190.292 237.501 195.493 231.792 195.493Z" fill="url(#paint0_linear_5966_970)"/>
<path fill-rule="evenodd" clip-rule="evenodd" d="M128.208 65.4844H238.639C245.189 65.4844 250.498 71.3932 250.498 78.682C250.498 85.9708 245.189 91.8796 238.639 91.8796H197.004C192.33 91.8796 188.54 96.0952 188.538 101.297L188.537 101.742C188.536 106.707 192.151 110.733 196.612 110.733H196.974C208.739 110.733 218.226 121.399 218.069 134.489C218.048 136.253 218.048 138.017 218.068 139.781C218.219 152.866 208.734 163.524 197.012 163.524H145.758C140.516 163.524 136.266 168.254 136.266 174.087C136.266 183.129 129.681 190.458 121.557 190.458H110.316C102.193 190.458 95.6072 183.129 95.6072 174.087V144.281C95.6072 135.868 89.4788 129.048 81.9196 129.048H75.2776C64.852 129.048 56.4004 119.642 56.4004 108.04C56.4004 96.4376 64.852 87.0316 75.2776 87.0316H109.636C114.426 87.0316 118.165 82.6736 118.029 77.3444L118.022 77.0564C117.882 70.7048 122.499 65.4844 128.208 65.4844Z" fill="url(#paint1_linear_5966_970)"/>
<path d="M261.601 129.226C257.018 139.006 243.939 145.182 243.939 145.182C243.939 145.182 238.548 130.346 243.131 120.566C247.72 110.786 255.565 104.794 260.666 107.19C265.768 109.577 266.183 119.446 261.601 129.226ZM233.35 140.778C238.459 150.291 235.604 164.468 235.604 164.468C235.604 164.468 220.486 159.945 215.377 150.425C210.268 140.904 210.15 131.035 215.118 128.373C220.078 125.712 228.242 131.265 233.35 140.778ZM227.789 195.684C227.634 197.553 227.426 198.836 227.374 199.162C227.367 199.199 227.367 199.228 227.359 199.243V199.251C227.359 199.251 227.352 199.251 227.352 199.243L227.3 199.236C227.137 199.184 226.648 199.036 225.913 198.791C221.991 197.464 211.166 193.23 206.872 185.585C201.586 176.169 201.289 166.292 206.198 163.541C211.106 160.783 219.374 166.181 224.66 175.598C227.026 179.817 227.819 184.992 227.96 189.434C228.042 191.821 227.938 193.994 227.789 195.684ZM259.161 167.894C248.706 170.6 235.605 164.476 235.605 164.476C235.605 164.476 243.59 150.855 254.045 148.148C264.5 145.442 274.117 147.666 275.533 153.116C276.949 158.574 269.616 165.188 259.161 167.894Z" fill="#E1E4E5"/>
<path d="M249.944 199.732C239.83 203.514 226.165 198.784 226.165 198.784C226.165 198.784 232.69 184.406 242.804 180.625C252.917 176.843 262.719 178.052 264.692 183.331C266.664 188.61 260.065 195.951 249.944 199.732Z" fill="#E1E4E5"/>
<path d="M246.866 141.446C246.778 141.579 238.955 154.696 230.665 191.161C230.057 193.83 229.449 196.633 228.841 199.555L228.663 199.518L227.358 199.243V199.236H227.351L227.299 199.228C227.136 199.176 226.646 199.028 225.912 198.784C226.561 195.657 227.243 192.538 227.959 189.426C236.264 153.205 243.945 140.422 244.286 139.851L246.866 141.446ZM92.1667 54.8861C96.7491 64.6661 109.829 70.8425 109.829 70.8425C109.829 70.8425 115.219 56.0057 110.637 46.2257C106.047 36.4457 98.2023 30.4549 93.1011 32.8497C87.9999 35.2373 87.5847 45.1061 92.1667 54.8861ZM101.891 166.186C110.75 172.365 125.165 171.174 125.165 171.174C125.165 171.174 122.415 155.63 113.557 149.451C104.692 143.276 94.9027 142.01 91.6823 146.635C88.4579 151.253 93.0331 160.008 101.891 166.186ZM135.277 203.937C146.898 201.866 157.119 189.804 157.119 189.804C157.119 189.804 142.98 179.917 131.359 181.988C119.736 184.066 111.192 190.654 112.277 196.717C113.355 202.778 123.656 206.008 135.277 203.937ZM120.418 66.4381C115.309 75.9513 118.164 90.1281 118.164 90.1281C118.164 90.1281 133.282 85.6049 138.391 76.0845C143.5 66.5641 143.618 56.6953 138.65 54.0333C133.69 51.3717 125.526 56.9253 120.418 66.4381ZM125.978 121.344C126.134 123.212 126.342 124.495 126.394 124.821C126.401 124.858 126.401 124.888 126.408 124.903V124.91C126.408 124.91 126.416 124.91 126.416 124.903L126.468 124.895C126.631 124.844 127.12 124.695 127.854 124.45C131.777 123.123 142.602 118.89 146.895 111.245C152.182 101.828 152.478 91.9521 147.57 89.2013C142.662 86.4429 134.394 91.8409 129.108 101.257C126.742 105.476 125.949 110.652 125.808 115.093C125.726 117.481 125.83 119.653 125.978 121.344ZM94.6071 93.5537C105.062 96.2601 118.164 90.1353 118.164 90.1353C118.164 90.1353 110.178 76.5145 99.7231 73.8085C89.2687 71.1021 79.6519 73.3265 78.2355 78.7761C76.8195 84.2333 84.1523 90.8473 94.6071 93.5537Z" fill="#E1E4E5"/>
<path d="M103.824 125.392C113.938 129.174 127.603 124.443 127.603 124.443C127.603 124.443 121.078 110.066 110.964 106.284C100.851 102.503 91.0483 103.712 89.0759 108.991C87.1039 114.27 93.7027 121.611 103.824 125.392Z" fill="#E1E4E5"/>
<path d="M106.901 67.1053C106.99 67.2389 114.813 80.3553 123.103 116.821C123.711 119.49 124.319 122.293 124.927 125.214L125.105 125.177L126.409 124.903V124.895H126.417L126.469 124.888C126.632 124.836 127.121 124.688 127.855 124.443C127.207 121.317 126.525 118.197 125.809 115.086C117.504 78.8653 109.823 66.0821 109.482 65.5113L106.901 67.1053ZM257.553 49.9649C252.523 60.6993 238.168 67.4781 238.168 67.4781C238.168 67.4781 232.251 51.1937 237.281 40.4597C242.318 29.7257 250.928 23.1501 256.527 25.7789C262.126 28.3989 262.582 39.2309 257.553 49.9649ZM226.546 62.6441C232.153 73.0853 229.02 88.6453 229.02 88.6453C229.02 88.6453 212.427 83.6809 206.819 73.2317C201.213 62.7825 201.082 51.9509 206.535 49.0293C211.979 46.1077 220.939 52.2029 226.546 62.6441ZM220.443 122.907C220.272 124.957 220.044 126.365 219.987 126.723C219.979 126.764 219.979 126.797 219.971 126.813V126.821C219.971 126.821 219.963 126.821 219.963 126.813L219.906 126.805C219.727 126.748 219.19 126.585 218.384 126.317C214.079 124.86 202.197 120.213 197.485 111.823C191.683 101.487 191.358 90.6473 196.745 87.6281C202.132 84.6005 211.206 90.5253 217.009 100.861C219.605 105.491 220.475 111.171 220.63 116.046C220.705 118.335 220.643 120.626 220.443 122.907ZM254.874 92.4049C243.4 95.3753 229.02 88.6533 229.02 88.6533C229.02 88.6533 237.785 73.7037 249.259 70.7333C260.734 67.7629 271.289 70.2045 272.843 76.1857C274.397 82.1753 266.349 89.4345 254.874 92.4049Z" fill="#E1E4E5"/>
<path d="M244.759 127.35C233.659 131.5 218.66 126.308 218.66 126.308C218.66 126.308 225.822 110.528 236.922 106.378C248.023 102.228 258.781 103.554 260.946 109.348C263.111 115.143 255.867 123.199 244.759 127.35Z" fill="#E1E4E5"/>
<path d="M241.381 63.3764C241.283 63.5228 232.698 77.9192 223.599 117.942C222.903 121.007 222.236 124.077 221.597 127.154L221.402 127.114L219.97 126.813V126.804H219.962L219.905 126.796C219.726 126.739 219.188 126.577 218.383 126.308C219.094 122.877 219.843 119.453 220.629 116.038C229.744 76.2836 238.174 62.2536 238.549 61.6268L241.381 63.3764Z" fill="#E1E4E5"/>
<path d="M179.999 203.276C221.463 203.276 255.075 169.663 255.075 128.2C255.075 86.7369 221.463 53.1244 179.999 53.1244C138.536 53.1244 104.924 86.7369 104.924 128.2C104.924 169.663 138.536 203.276 179.999 203.276Z" fill="#05A155"/>
<path d="M180.001 144.222V131.612C189.355 131.612 196.938 124.085 196.938 114.8C196.938 105.514 189.355 97.9868 180.001 97.9868C170.646 97.9868 163.062 105.514 163.062 114.8M180.001 165.074C179.773 165.074 179.589 165.269 179.589 165.509C179.589 165.749 179.773 165.944 180.001 165.944C180.228 165.944 180.413 165.749 180.413 165.509C180.413 165.269 180.228 165.074 180.001 165.074Z" stroke="white" stroke-width="11.2108" stroke-linecap="round" stroke-linejoin="round"/>
<path d="M101.314 203.167C103.617 200.951 107.212 200.951 109.342 203.167C111.472 205.382 111.331 208.973 109.028 211.188C106.724 213.404 103.13 213.404 101 211.189C98.8694 208.973 99.0101 205.382 101.314 203.167Z" fill="#D94841"/>
<path d="M283.274 99.6509C280.079 99.5884 277.537 97.0469 277.597 93.9744C277.657 90.9018 280.296 88.4617 283.492 88.5242C286.687 88.5868 289.229 91.1282 289.168 94.2008C289.108 97.2733 286.469 99.7134 283.274 99.6509Z" fill="#D94841"/>
<path d="M80.986 165.63C79.834 166.737 79.7982 168.569 80.9059 169.721C82.0136 170.873 83.8454 170.909 84.9973 169.801C86.1492 168.693 86.185 166.861 85.0773 165.71C83.9696 164.558 82.1379 164.522 80.986 165.63Z" fill="#E1E4E5"/>
<path d="M283.132 146.787C284.73 146.819 286.051 145.549 286.082 143.951C286.113 142.353 284.843 141.033 283.246 141.001C281.648 140.97 280.327 142.24 280.296 143.838C280.265 145.436 281.535 146.756 283.132 146.787Z" fill="#E1E4E5"/>
<path d="M70.5015 99.2777C75.0027 96.795 80.6642 98.4314 83.1468 102.933C85.6295 107.434 83.9931 113.095 79.4919 115.578C74.9907 118.061 69.3292 116.424 66.8466 111.923C64.3639 107.422 66.0003 101.76 70.5015 99.2777Z" fill="#D94841"/>
<path d="M241.128 210.01C236.19 208.583 233.343 203.422 234.771 198.484C236.198 193.546 241.358 190.699 246.297 192.127C251.235 193.554 254.081 198.714 252.654 203.653C251.227 208.591 246.066 211.437 241.128 210.01Z" fill="#D94841"/>
</g>
<defs>
<linearGradient id="paint0_linear_5966_970" x1="202.412" y1="1.16714" x2="204.875" y2="330.971" gradientUnits="userSpaceOnUse">
<stop stop-color="white"/>
<stop offset="1" stop-color="#EEEEEE"/>
</linearGradient>
<linearGradient id="paint1_linear_5966_970" x1="157.588" y1="260.525" x2="155.106" y2="-70.4916" gradientUnits="userSpaceOnUse">
<stop stop-color="white"/>
<stop offset="1" stop-color="#EEEEEE"/>
</linearGradient>
<clipPath id="clip0_5966_970">
<rect width="360" height="240" fill="white"/>
</clipPath>
</defs>
</svg>
