<svg width="360" height="240" viewBox="0 0 360 240" fill="none" xmlns="http://www.w3.org/2000/svg">
<g clip-path="url(#clip0_5966_994)">
<path d="M123.636 34.3064C166.625 31.8112 211.696 44.806 205.071 63.6436C198.445 82.4813 240.491 56.9533 257.269 63.7449C269.215 68.5797 264.44 83.2997 270.219 89.2309C283.469 102.829 297.021 85.7053 313.885 95.9801C330.749 106.255 296.223 202.152 278.605 202.688L77.6613 201.467L63.2413 200.171C63.2413 200.171 23.3533 178.356 51.8869 158.234C71.1801 144.627 57.2981 134.746 55.1997 128.517C52.7905 121.365 47.1693 108.874 71.6625 99.7077C96.1561 90.5413 89.8321 70.5948 89.2293 66.4656C88.6277 62.3344 80.6485 36.8012 123.636 34.3064Z" fill="url(#paint0_linear_5966_994)"/>
<path fill-rule="evenodd" clip-rule="evenodd" d="M130.701 126.485C112.238 119.764 102.717 99.3504 109.437 80.8892C116.156 62.4276 136.571 52.9092 155.035 59.6292C173.499 66.3496 183.019 86.7636 176.299 105.225C169.58 123.687 149.165 133.205 130.701 126.485Z" fill="#E1E4E5"/>
<path fill-rule="evenodd" clip-rule="evenodd" d="M133.599 118.337C119.598 113.241 112.379 97.7616 117.474 83.7628C122.569 69.7636 138.049 62.546 152.05 67.642C166.051 72.7376 173.27 88.2172 168.175 102.216C163.079 116.215 147.599 123.433 133.599 118.337Z" fill="white"/>
<path d="M148.263 126.366C147.317 123.456 148.91 120.33 151.82 119.384C154.73 118.439 157.856 120.031 158.802 122.942L163.127 136.252L152.588 139.676L148.263 126.366Z" fill="#E1E4E5"/>
<path d="M162.051 132.616L150.766 136.282C149.44 136.713 148.714 138.137 149.145 139.463L165.511 189.832C165.942 191.158 167.366 191.883 168.692 191.452L179.976 187.786C181.302 187.355 182.028 185.931 181.597 184.605L165.231 134.236C164.8 132.911 163.376 132.185 162.051 132.616Z" fill="#D94841"/>
<path d="M210 170C208.675 170 207.6 171.075 207.6 172.4C207.6 173.726 208.675 174.8 210 174.8C211.326 174.8 212.4 173.726 212.4 172.4C212.4 171.075 211.326 170 210 170Z" fill="white"/>
<path d="M129.1 199.033C105.259 190.329 88.5827 169.571 78.7923 153.691C68.1619 136.45 63.1235 121.073 63.0739 120.919L62.0215 121.339C62.0711 121.493 67.1451 136.986 77.8415 154.344C87.7263 170.382 104.575 191.352 128.712 200.164L129.1 199.033Z" fill="#05A155"/>
<path d="M64.0065 115.332C66.1753 119.432 66.5537 124.092 65.3925 128.131C61.6029 127.204 58.0882 124.517 55.919 120.417C53.7478 116.316 53.3689 111.656 54.5305 107.617C58.3221 108.545 61.8349 111.231 64.0065 115.332ZM61.6717 131.013C63.6433 131.787 65.4316 132.964 66.922 134.47C68.4124 135.975 69.5721 137.775 70.3269 139.754C66.7693 141.618 62.3934 141.962 58.249 140.33C56.2778 139.555 54.4899 138.377 52.9996 136.872C51.5093 135.367 50.3493 133.567 49.5938 131.589C53.1514 129.722 57.5273 129.381 61.6717 131.013ZM64.9409 155.125C71.0673 154.25 75.7229 151.354 75.3397 148.657C74.9561 145.959 69.679 144.483 63.5526 145.358C57.4262 146.234 52.7705 149.13 53.1537 151.827C53.5373 154.524 58.8145 156.001 64.9409 155.125ZM73.3477 168.837C79.4741 167.962 84.1297 165.066 83.7461 162.369C83.3629 159.672 78.0857 158.195 71.9589 159.071C65.8325 159.946 61.1769 162.842 61.5605 165.539C61.9437 168.236 67.2209 169.713 73.3477 168.837Z" fill="#05A155"/>
<path d="M71.5499 137.679C71.7911 133.351 73.5911 129.443 76.2403 126.775C78.5963 129.353 79.9659 133.204 79.7247 137.532C79.4835 141.86 77.6835 145.768 75.0339 148.436C72.6759 145.858 71.3087 142.007 71.5499 137.679ZM80.3255 151.87C80.5031 147.54 82.2487 143.598 84.8575 140.883C87.2539 143.413 88.6779 147.236 88.5003 151.567C88.3231 155.897 86.5771 159.839 83.9659 162.554C81.5743 160.023 80.1483 156.201 80.3255 151.87ZM86.5563 173.212C88.2499 172.315 90.1115 172.287 91.6819 172.97C91.2019 174.739 90.0287 176.319 88.3375 177.215C86.6435 178.111 84.7819 178.14 83.2115 177.457C83.6891 175.688 84.8627 174.108 86.5563 173.212ZM119.86 200.356C110.593 189.221 108.319 174.194 108.044 163.549C107.744 151.992 109.67 142.958 109.689 142.868L109.049 142.773C109.03 142.863 107.089 151.965 107.387 163.598C107.664 174.349 109.962 189.53 119.344 200.803L119.86 200.356Z" fill="#05A155"/>
<path d="M111.75 140.378C111.644 143.023 110.494 145.432 108.762 147.091C107.158 145.547 106.194 143.213 106.3 140.567C106.405 137.921 107.556 135.512 109.287 133.853C110.893 135.398 111.855 137.731 111.75 140.378ZM106.099 147.446C106.85 148.394 107.395 149.488 107.698 150.658C108.002 151.829 108.058 153.049 107.862 154.243C105.572 154.142 103.314 153.056 101.737 151.062C100.987 150.114 100.443 149.02 100.139 147.85C99.8354 146.679 99.7792 145.459 99.9741 144.265C102.265 144.365 104.523 145.452 106.099 147.446ZM100.795 160.282C104.069 161.608 107.198 161.515 107.782 160.074C108.367 158.633 106.186 156.39 102.912 155.065C99.6377 153.739 96.5093 153.832 95.9249 155.273C95.3401 156.714 97.5209 158.957 100.795 160.282ZM101.009 169.461C104.283 170.786 107.412 170.693 107.996 169.252C108.581 167.811 106.4 165.568 103.126 164.243C99.8517 162.917 96.7233 163.011 96.1389 164.451C95.5545 165.892 97.7349 168.135 101.009 169.461Z" fill="#05A155"/>
<path d="M109.061 153.57C110.421 151.503 112.431 150.091 114.504 149.535C114.927 151.483 114.498 153.776 113.137 155.843C111.776 157.909 109.767 159.321 107.694 159.878C107.27 157.929 107.7 155.636 109.061 153.57ZM109.32 163.09C110.65 161.004 112.642 159.56 114.709 158.969C115.165 160.905 114.771 163.2 113.441 165.286C112.111 167.372 110.119 168.816 108.051 169.407C107.597 167.472 107.99 165.176 109.32 163.09ZM106.272 175.409C107.365 175.452 108.291 175.972 108.871 176.76C108.126 177.495 107.094 177.938 106.002 177.895C104.909 177.852 103.983 177.332 103.403 176.544C104.147 175.808 105.179 175.365 106.272 175.409Z" fill="#05A155"/>
<path d="M147.602 202.471C145.486 199.564 133.711 184.111 125.925 181.345C117.331 178.292 125.185 189.657 125.185 189.657C125.185 189.657 110.283 172.424 104.592 173.774C99.3759 175.011 104.251 185.566 104.251 185.566C104.251 185.566 98.5879 179.637 91.5179 179.432C84.6371 179.233 95.6891 200.522 96.2883 201.634L147.602 202.471ZM268.347 185.645C251.749 167.724 246.572 142.684 245.152 124.836C243.609 105.458 246.039 90.1292 246.063 89.978L244.978 89.8719C244.953 90.0255 242.503 105.466 244.051 124.973C245.483 142.999 250.715 168.294 267.519 186.439L268.347 185.645Z" fill="#05A155"/>
<path d="M249.313 85.626C249.374 90.0776 247.653 94.2136 244.888 97.1444C242.05 94.6848 240.218 90.846 240.159 86.3956C240.097 81.944 241.818 77.808 244.583 74.8772C247.423 77.3348 249.251 81.1748 249.313 85.626ZM240.438 97.9612C241.786 99.4862 242.8 101.276 243.416 103.215C244.032 105.155 244.237 107.202 244.017 109.225C240.153 109.247 236.255 107.612 233.422 104.396C230.589 101.179 229.411 97.0508 229.843 93.134C233.707 93.1104 237.605 94.7448 240.438 97.9612ZM232.662 119.956C238.292 121.909 243.548 121.491 244.403 119.024C245.257 116.556 241.385 112.972 235.756 111.02C230.126 109.067 224.869 109.484 224.015 111.952C223.161 114.42 227.032 118.004 232.662 119.956ZM233.848 135.345C239.478 137.298 244.734 136.88 245.589 134.412C246.443 131.944 242.572 128.361 236.942 126.408C231.312 124.456 226.055 124.873 225.201 127.341C224.347 129.809 228.218 133.392 233.848 135.345Z" fill="#05A155"/>
<path d="M245.971 107.997C248.075 104.414 251.33 101.876 254.769 100.769C255.656 104.004 255.14 107.89 253.035 111.473C250.931 115.056 247.675 117.594 244.237 118.701C243.348 115.465 243.866 111.58 245.971 107.997ZM247.263 123.957C249.314 120.344 252.537 117.754 255.962 116.588C256.904 119.801 256.447 123.686 254.397 127.3C252.346 130.912 249.123 133.503 245.696 134.667C244.757 131.459 245.211 127.572 247.263 123.957ZM243.24 144.892C245.083 144.874 246.69 145.67 247.735 146.944C246.549 148.241 244.851 149.07 243.01 149.089C241.167 149.107 239.56 148.312 238.515 147.037C239.699 145.74 241.397 144.91 243.24 144.892ZM253.902 175.4C253.902 175.4 244.916 155.537 247.92 151.105C252.071 144.979 257.233 163.775 257.486 162.123C259.863 146.521 259.365 126.844 270.487 123.863C276.808 122.168 270.069 138.558 270.853 142.782C271.638 147.004 282.155 131.928 288.631 123.95C295.107 115.974 299.073 120.374 295.319 130.052C291.689 139.409 278.537 150.374 281.481 151.313C284.425 152.251 300.933 139.215 303.421 144.019C306.471 149.91 281.042 160.308 283.594 161.481C286.146 162.654 298.259 157.14 298.259 161.831C298.259 166.523 281.519 167.696 281.955 169.725C282.66 173.01 293.175 164.6 293.996 169.158C294.835 173.82 279.722 174.173 280.25 177.82C280.553 179.915 284.36 177.722 285.048 180.603C286.618 187.172 262.801 196.378 262.801 196.378L253.902 175.4Z" fill="#05A155"/>
<path d="M231.558 178.315C226.621 180.623 227.953 186.355 227.953 186.355C227.953 186.355 214.568 175.923 209.563 182.012C204.558 188.1 207.189 200.034 213.058 201.975C218.927 203.914 269.978 202.554 269.978 202.554C269.978 202.554 235.999 176.239 231.558 178.315Z" fill="#D94841"/>
<path d="M254.036 201.998C254.036 201.998 269.716 181.908 276.269 178.83C283.253 175.549 277.198 186.916 277.198 186.916C277.198 186.916 292.131 172.275 295.638 175.931C299.146 179.586 295.4 183.007 295.4 183.007C295.4 183.007 307.904 180.688 309.728 185.364C312.53 192.548 291.963 196.12 291.963 196.12C291.963 196.12 301.816 193.962 299.844 198.41C296.872 205.116 254.036 201.998 254.036 201.998Z" fill="#05A155"/>
<path d="M269.978 202.504C269.978 202.504 244.994 204.267 240.129 199.802C235.262 195.337 240.089 187.248 240.089 187.248C240.089 187.248 231.516 180.485 231.649 176.068C231.782 171.652 237.368 173.893 237.368 173.893C237.368 173.893 227.902 161.728 230.146 159.414C234.328 155.105 245.273 167.75 245.273 167.75C245.273 167.75 242.025 161.735 245.451 160.78C250.619 159.339 254.421 174.174 254.421 174.174C254.421 174.174 253.456 168.315 257.019 169.094C263.412 170.489 269.978 202.504 269.978 202.504Z" fill="#05A155"/>
<path d="M87.452 108.037C89.543 108.037 91.238 109.733 91.238 111.823C91.238 113.914 89.543 115.609 87.452 115.609C85.3611 115.609 83.666 113.914 83.666 111.823C83.666 109.733 85.3611 108.037 87.452 108.037Z" fill="#05A155"/>
<path d="M159.387 45.3585C158.225 45.3585 157.284 46.3002 157.284 47.4617C157.284 48.6233 158.225 49.5649 159.387 49.5649C160.549 49.5649 161.49 48.6233 161.49 47.4617C161.49 46.3002 160.549 45.3585 159.387 45.3585Z" fill="#E1E4E5"/>
<path d="M259.506 63.4468C258.345 63.4468 257.403 64.3884 257.403 65.55C257.403 66.7116 258.345 67.6532 259.506 67.6532C260.668 67.6532 261.609 66.7116 261.609 65.55C261.609 64.3884 260.668 63.4468 259.506 63.4468Z" fill="#E1E4E5"/>
<path d="M77.5687 74.3839C76.5231 74.3839 75.6755 75.2315 75.6755 76.2771C75.6755 77.3227 76.5231 78.1703 77.5687 78.1703C78.6143 78.1703 79.4619 77.3227 79.4619 76.2771C79.4619 75.2315 78.6143 74.3839 77.5687 74.3839Z" fill="#E1E4E5"/>
<path d="M206.857 50.3998C210.312 51.3256 212.362 54.8771 211.437 58.3322C210.511 61.7874 206.959 63.8378 203.504 62.912C200.049 61.9862 197.999 58.4348 198.924 54.9796C199.85 51.5245 203.402 49.474 206.857 50.3998Z" fill="#05A155"/>
</g>
<defs>
<linearGradient id="paint0_linear_5966_994" x1="185.903" y1="297.264" x2="182.733" y2="-149.542" gradientUnits="userSpaceOnUse">
<stop stop-color="white"/>
<stop offset="1" stop-color="#EEEEEE"/>
</linearGradient>
<clipPath id="clip0_5966_994">
<rect width="360" height="240" fill="white"/>
</clipPath>
</defs>
</svg>
