<svg width="360" height="241" viewBox="0 0 360 241" fill="none" xmlns="http://www.w3.org/2000/svg">
<g clip-path="url(#clip0_6240_16269)">
<path d="M172.128 151.772C145.228 151.772 123.42 129.964 123.42 103.064C123.42 76.1629 145.228 54.3556 172.128 54.3556C199.029 54.3556 220.836 76.1629 220.836 103.064C220.836 129.964 199.029 151.772 172.128 151.772Z" stroke="#D94841" stroke-width="12.4" stroke-linecap="round" stroke-linejoin="round"/>
<path d="M215.908 135.533L241.971 159.184C243.036 160.204 243.885 161.429 244.466 162.785C245.047 164.14 245.349 165.599 245.353 167.074C245.356 168.549 245.063 170.01 244.489 171.369C243.914 172.728 243.072 173.957 242.012 174.982C240.952 176.007 239.695 176.808 238.318 177.337C236.941 177.865 235.472 178.11 233.997 178.057C232.523 178.005 231.075 177.655 229.74 177.029C228.404 176.403 227.208 175.514 226.224 174.415L203.914 148.055" fill="#45A845"/>
<path d="M215.908 135.533L241.971 159.184C243.036 160.204 243.885 161.429 244.466 162.785C245.047 164.14 245.349 165.599 245.353 167.074C245.356 168.549 245.063 170.01 244.489 171.369C243.914 172.728 243.072 173.957 242.012 174.982C240.952 176.007 239.695 176.808 238.318 177.337C236.941 177.865 235.472 178.11 233.997 178.057C232.523 178.005 231.075 177.655 229.74 177.029C228.404 176.403 227.208 175.514 226.224 174.415L203.914 148.055" stroke="#D94841" stroke-width="12.4" stroke-linecap="round" stroke-linejoin="round"/>
<path d="M34 35.9775H143.17M34 176.418H152.496M213.39 35.9775H326.4M34 64.5043H104.768M34 204.944H207.355M34 147.89H109.157M239.174 64.5043H279.77M251.243 93.0311H326.4M61.9784 93.0311H91.0536M263.86 121.558H326.4M66.9156 121.558H91.0536M239.174 204.944H326.4M274.832 176.418H326.4M274.832 145.696H326.4" stroke="#E1E4E5" stroke-width="12.4" stroke-linecap="round" stroke-linejoin="round"/>
</g>
<defs>
<clipPath id="clip0_6240_16269">
<rect width="360" height="240" fill="white" transform="translate(0 0.46875)"/>
</clipPath>
</defs>
</svg>
