<svg width="360" height="240" viewBox="0 0 360 240" fill="none" xmlns="http://www.w3.org/2000/svg">
<g clip-path="url(#clip0_5966_989)">
<path fill-rule="evenodd" clip-rule="evenodd" d="M99.9365 46.2936V146.31C99.9365 151.739 104.283 156.135 109.651 156.135H168.526L194.226 119.503C195.451 117.755 198.515 117.755 199.74 119.503L208.738 132.331L208.808 132.431L208.869 132.342L228.166 104.324C229.5 102.384 232.844 102.384 234.178 104.324L259.735 141.436V146.322V46.2936C259.735 40.8648 255.376 36.4688 250.02 36.4688H109.651C104.283 36.4688 99.9365 40.8648 99.9365 46.2936Z" fill="#05A155"/>
<path d="M145 112.774C131.105 112.774 119.842 101.51 119.842 87.6152C119.842 73.7208 131.105 62.4568 145 62.4568C158.895 62.4568 170.159 73.7208 170.159 87.6152C170.159 101.51 158.895 112.774 145 112.774Z" fill="white"/>
<path d="M179.67 178.385H103.89C100.774 178.385 98.2148 175.826 98.2148 172.71C98.2148 169.557 100.774 166.998 103.89 166.998H179.67C182.823 166.998 185.382 169.557 185.382 172.71C185.382 175.826 182.823 178.385 179.67 178.385ZM255.488 178.386H200.665C197.512 178.386 194.952 175.826 194.952 172.674C194.952 169.521 197.512 166.961 200.665 166.961H255.488C258.641 166.961 261.2 169.521 261.2 172.674C261.2 175.826 258.641 178.386 255.488 178.386ZM136.086 203.423H103.89C100.774 203.423 98.2148 200.864 98.2148 197.748C98.2148 194.595 100.774 192.035 103.89 192.035H136.086C139.239 192.035 141.799 194.595 141.799 197.748C141.799 200.864 139.239 203.423 136.086 203.423ZM255.488 203.424H155.226C152.073 203.424 149.514 200.864 149.514 197.712C149.514 194.559 152.073 191.999 155.226 191.999H255.488C258.641 191.999 261.2 194.559 261.2 197.712C261.2 200.864 258.641 203.424 255.488 203.424Z" fill="#D94841"/>
</g>
<defs>
<clipPath id="clip0_5966_989">
<rect width="360" height="240" fill="white"/>
</clipPath>
</defs>
</svg>
