<svg width="18" height="19" viewBox="0 0 18 19" fill="none" xmlns="http://www.w3.org/2000/svg">
<path d="M9 0.5C4.03725 0.5 0 4.53725 0 9.5C0 14.4628 4.03725 18.5 9 18.5C13.9628 18.5 18 14.4628 18 9.5C18 4.53725 13.9628 0.5 9 0.5ZM9 17C4.8645 17 1.5 13.6355 1.5 9.5C1.5 5.3645 4.8645 2 9 2C13.1355 2 16.5 5.3645 16.5 9.5C16.5 13.6355 13.1355 17 9 17ZM12.75 9.5C12.75 9.914 12.414 10.25 12 10.25H6C5.586 10.25 5.25 9.914 5.25 9.5C5.25 9.086 5.586 8.75 6 8.75H12C12.414 8.75 12.75 9.086 12.75 9.5Z" fill="#6A7185"/>
</svg>
