<svg width="18" height="19" viewBox="0 0 18 19" fill="none" xmlns="http://www.w3.org/2000/svg">
<path d="M12 6.5C11.8593 6.3594 11.6686 6.28041 11.4697 6.28041C11.2708 6.28041 11.0801 6.3594 10.9395 6.5L8.99996 8.4395L7.06046 6.5C6.91901 6.36338 6.72956 6.28779 6.53291 6.2895C6.33626 6.2912 6.14815 6.37008 6.0091 6.50914C5.87004 6.64819 5.79117 6.8363 5.78946 7.03295C5.78775 7.2296 5.86334 7.41905 5.99996 7.5605L7.93946 9.5L5.99996 11.4395C5.86334 11.581 5.78775 11.7704 5.78946 11.9671C5.79117 12.1637 5.87004 12.3518 6.0091 12.4909C6.14815 12.6299 6.33626 12.7088 6.53291 12.7105C6.72956 12.7122 6.91901 12.6366 7.06046 12.5L8.99996 10.5605L10.9395 12.5C11.0809 12.6366 11.2704 12.7122 11.467 12.7105C11.6637 12.7088 11.8518 12.6299 11.9908 12.4909C12.1299 12.3518 12.2088 12.1637 12.2105 11.9671C12.2122 11.7704 12.1366 11.581 12 11.4395L10.0605 9.5L12 7.5605C12.1406 7.41985 12.2196 7.22912 12.2196 7.03025C12.2196 6.83138 12.1406 6.64065 12 6.5Z" fill="#FE0909"/>
<path d="M9 0.5C7.21997 0.5 5.47991 1.02784 3.99987 2.01677C2.51983 3.00571 1.36628 4.41131 0.685088 6.05585C0.00389957 7.70038 -0.17433 9.50998 0.172937 11.2558C0.520204 13.0016 1.37737 14.6053 2.63604 15.864C3.89472 17.1226 5.49836 17.9798 7.24419 18.3271C8.99002 18.6743 10.7996 18.4961 12.4442 17.8149C14.0887 17.1337 15.4943 15.9802 16.4832 14.5001C17.4722 13.0201 18 11.28 18 9.5C17.9974 7.11384 17.0484 4.82616 15.3611 3.13889C13.6738 1.45162 11.3862 0.502581 9 0.5ZM9 17C7.51664 17 6.0666 16.5601 4.83323 15.736C3.59986 14.9119 2.63856 13.7406 2.07091 12.3701C1.50325 10.9997 1.35473 9.49168 1.64411 8.03682C1.9335 6.58197 2.64781 5.24559 3.6967 4.1967C4.7456 3.14781 6.08197 2.4335 7.53683 2.14411C8.99168 1.85472 10.4997 2.00325 11.8701 2.5709C13.2406 3.13856 14.4119 4.09985 15.236 5.33322C16.0601 6.56659 16.5 8.01664 16.5 9.5C16.4978 11.4885 15.7069 13.3948 14.3009 14.8009C12.8948 16.2069 10.9885 16.9978 9 17Z" fill="#FE0909"/>
</svg>
