<svg width="18" height="19" viewBox="0 0 18 19" fill="none" xmlns="http://www.w3.org/2000/svg">
<path d="M9 0.5C4.03725 0.5 0 4.53725 0 9.5C0 14.4628 4.03725 18.5 9 18.5C13.9628 18.5 18 14.4628 18 9.5C18 4.53725 13.9628 0.5 9 0.5ZM9 17C4.8645 17 1.5 13.6355 1.5 9.5C1.5 5.3645 4.8645 2 9 2C13.1355 2 16.5 5.3645 16.5 9.5C16.5 13.6355 13.1355 17 9 17ZM10.0343 5.28425L4.5 10.8185V14H7.6815L13.2157 8.46575C14.0933 7.58825 14.0933 6.16175 13.2157 5.28425C12.3383 4.40675 10.9117 4.40675 10.0343 5.28425ZM7.0605 12.5H6V11.4395L9.252 8.1875L10.3125 9.248L7.0605 12.5ZM12.1553 7.40525L11.373 8.1875L10.3125 7.127L11.0948 6.34475C11.388 6.0515 11.862 6.0515 12.1553 6.34475C12.4485 6.638 12.4478 7.11275 12.1553 7.40525Z" fill="#A05148"/>
</svg>
