<svg width="13" height="12" viewBox="0 0 13 12" fill="none" xmlns="http://www.w3.org/2000/svg">
<g clip-path="url(#clip0_74_3776)">
<path d="M11.6818 4.90909H7.59088V0.818182C7.59088 0.366544 7.22433 0 6.77269 0H6.22727C5.77564 0 5.40909 0.366544 5.40909 0.818182V4.90909H1.31818C0.866544 4.90909 0.5 5.27564 0.5 5.72727V6.27269C0.5 6.72433 0.866544 7.09088 1.31818 7.09088H5.40909V11.1818C5.40909 11.6334 5.77564 12 6.22727 12H6.77269C7.22433 12 7.59088 11.6334 7.59088 11.1818V7.09088H11.6818C12.1334 7.09088 12.5 6.72433 12.5 6.27269V5.72727C12.5 5.27564 12.1334 4.90909 11.6818 4.90909Z" fill="#D94841"/>
</g>
<defs>
<clipPath id="clip0_74_3776">
<rect width="12" height="12" fill="white" transform="translate(0.5)"/>
</clipPath>
</defs>
</svg>
