<svg width="16" height="16" viewBox="0 0 16 16" fill="none" xmlns="http://www.w3.org/2000/svg">
<g clip-path="url(#clip0_7062_16366)">
<path d="M15.5274 6.38208C15.2667 6.12142 14.844 6.12142 14.5833 6.38208L7.31061 13.6862C6.00683 14.9901 3.89287 14.9903 2.5889 13.6865C1.28493 12.3828 1.2848 10.2688 2.58855 8.96479L9.63223 1.89241C10.4207 1.11645 11.689 1.12663 12.465 1.91514C13.232 2.6946 13.2322 3.94518 12.4653 4.72483L5.42166 11.7972C5.15772 12.05 4.74145 12.05 4.47753 11.7972C4.21688 11.5365 4.21688 11.1138 4.47753 10.8531L10.7487 4.55325C11.0048 4.288 10.9975 3.86531 10.7323 3.60912C10.4735 3.3592 10.0633 3.3592 9.80453 3.60912L3.5334 9.90896C2.75106 10.6911 2.75096 11.9595 3.53315 12.7418C3.53325 12.7419 3.53331 12.742 3.5334 12.7421C4.32624 13.4986 5.57365 13.4986 6.36648 12.7421L13.4095 5.66903C14.6965 4.34875 14.6696 2.23507 13.3493 0.948003C12.0526 -0.316126 9.9846 -0.31597 8.6881 0.948285L1.64443 8.02063C-0.180954 9.84601 -0.180954 12.8056 1.64443 14.6309C3.46981 16.4563 6.42936 16.4563 8.25474 14.6309L15.5274 7.3289C15.7889 7.06884 15.79 6.64608 15.53 6.38461C15.5291 6.38377 15.5283 6.38292 15.5274 6.38208Z" fill="#45A845"/>
</g>
<defs>
<clipPath id="clip0_7062_16366">
<rect width="16" height="16" fill="white"/>
</clipPath>
</defs>
</svg>
