<svg width="16" height="17" viewBox="0 0 16 17" fill="none" xmlns="http://www.w3.org/2000/svg">
<g clip-path="url(#clip0_6650_7118)">
<path d="M12.6667 1.83333H12.0001V1.16667C12.0001 0.989856 11.9298 0.820286 11.8048 0.695262C11.6798 0.570238 11.5102 0.5 11.3334 0.5C11.1566 0.5 10.987 0.570238 10.862 0.695262C10.737 0.820286 10.6667 0.989856 10.6667 1.16667V1.83333H5.33339V1.16667C5.33339 0.989856 5.26316 0.820286 5.13813 0.695262C5.01311 0.570238 4.84354 0.5 4.66673 0.5C4.48992 0.5 4.32035 0.570238 4.19532 0.695262C4.0703 0.820286 4.00006 0.989856 4.00006 1.16667V1.83333H3.33339C2.44966 1.83439 1.60243 2.18592 0.977541 2.81081C0.352649 3.43571 0.00111961 4.28294 6.10352e-05 5.16667L6.10352e-05 13.1667C0.00111961 14.0504 0.352649 14.8976 0.977541 15.5225C1.60243 16.1474 2.44966 16.4989 3.33339 16.5H12.6667C13.5505 16.4989 14.3977 16.1474 15.0226 15.5225C15.6475 14.8976 15.999 14.0504 16.0001 13.1667V5.16667C15.999 4.28294 15.6475 3.43571 15.0226 2.81081C14.3977 2.18592 13.5505 1.83439 12.6667 1.83333ZM1.33339 5.16667C1.33339 4.63623 1.54411 4.12753 1.91918 3.75245C2.29425 3.37738 2.80296 3.16667 3.33339 3.16667H12.6667C13.1972 3.16667 13.7059 3.37738 14.0809 3.75245C14.456 4.12753 14.6667 4.63623 14.6667 5.16667V5.83333H1.33339V5.16667ZM12.6667 15.1667H3.33339C2.80296 15.1667 2.29425 14.956 1.91918 14.5809C1.54411 14.2058 1.33339 13.6971 1.33339 13.1667V7.16667H14.6667V13.1667C14.6667 13.6971 14.456 14.2058 14.0809 14.5809C13.7059 14.956 13.1972 15.1667 12.6667 15.1667Z" fill="#35353D"/>
<path d="M8.00014 11.5C8.55242 11.5 9.00014 11.0523 9.00014 10.5C9.00014 9.94776 8.55242 9.50004 8.00014 9.50004C7.44785 9.50004 7.00014 9.94776 7.00014 10.5C7.00014 11.0523 7.44785 11.5 8.00014 11.5Z" fill="#35353D"/>
<path d="M4.66681 11.5C5.21909 11.5 5.66681 11.0523 5.66681 10.5C5.66681 9.94776 5.21909 9.50004 4.66681 9.50004C4.11452 9.50004 3.66681 9.94776 3.66681 10.5C3.66681 11.0523 4.11452 11.5 4.66681 11.5Z" fill="#35353D"/>
<path d="M11.3335 11.5C11.8858 11.5 12.3335 11.0523 12.3335 10.5C12.3335 9.94776 11.8858 9.50004 11.3335 9.50004C10.7812 9.50004 10.3335 9.94776 10.3335 10.5C10.3335 11.0523 10.7812 11.5 11.3335 11.5Z" fill="#35353D"/>
</g>
<defs>
<clipPath id="clip0_6650_7118">
<rect width="16" height="16" fill="white" transform="translate(6.10352e-05 0.5)"/>
</clipPath>
</defs>
</svg>
