<svg width="27" height="26" viewBox="0 0 27 26" fill="none" xmlns="http://www.w3.org/2000/svg">
<rect x="0.928589" y="0.5" width="25" height="25" rx="2.5" fill="white"/>
<rect x="0.928589" y="0.5" width="25" height="25" rx="2.5" stroke="#D0D5DD"/>
<path fill-rule="evenodd" clip-rule="evenodd" d="M13.4284 12.1358L17.8855 7.67876C18.1239 7.44041 18.5113 7.44041 18.7497 7.67876C18.988 7.91711 18.988 8.30457 18.7497 8.54292L14.2926 13L18.7497 17.4571C18.988 17.6954 18.988 18.0829 18.7497 18.3212C18.5113 18.5596 18.1239 18.5596 17.8855 18.3212L13.4284 13.8642L8.97136 18.3212C8.73301 18.5596 8.34554 18.5596 8.1072 18.3212C7.86885 18.0829 7.86885 17.6954 8.1072 17.4571L12.5643 13L8.1072 8.54292C7.86885 8.30457 7.86885 7.91711 8.1072 7.67876C8.34554 7.44041 8.73301 7.44041 8.97136 7.67876L13.4284 12.1358Z" fill="black"/>
</svg>
