<svg width="16" height="16" viewBox="0 0 16 16" fill="none" xmlns="http://www.w3.org/2000/svg">
<path d="M3.25717 3.75141H13.4649L12.6891 13.813C12.6693 14.0691 12.5767 14.284 12.478 14.4031C12.3796 14.5218 12.3097 14.5527 12.2021 14.5527H4.51899C4.41123 14.5527 4.34176 14.5218 4.24312 14.4031C4.14448 14.284 4.05163 14.0691 4.03203 13.813L3.25717 3.75141ZM1.44582 2.30411C0.481031 2.30411 0.481031 3.75141 1.44582 3.75141H1.8052L2.58785 13.9235C2.6286 14.444 2.80606 14.9341 3.12847 15.3256C3.45178 15.7161 3.95767 16 4.51877 16H12.2019C12.7644 16 13.2689 15.7161 13.5924 15.3256C13.916 14.9341 14.0908 14.444 14.1317 13.9235L14.9157 3.75141H15.2764C16.2414 3.75141 16.2414 2.30411 15.2764 2.30411H1.44582Z" fill="white"/>
<path d="M6.78923 -6.10352e-05C5.8231 -6.10352e-05 5.8231 1.44724 6.78923 1.44724H9.93187C10.332 1.44724 10.6555 1.12371 10.6555 0.723143C10.6555 0.323021 10.332 -6.10352e-05 9.93187 -6.10352e-05H6.78923Z" fill="white"/>
</svg>
