<svg width="18" height="16" viewBox="0 0 18 16" fill="none" xmlns="http://www.w3.org/2000/svg">
<path d="M13.5 11.725C15.4848 11.725 17.1 10.1101 17.1 8.12503C17.1 6.16024 15.5179 4.55812 13.5608 4.52554C13.2661 2.27125 11.3336 0.525031 9 0.525031C6.66635 0.525031 4.73388 2.27125 4.43918 4.52554C2.48226 4.55812 0.9 6.16024 0.9 8.12503C0.9 10.1101 2.51515 11.725 4.5 11.725H7C7.33164 11.725 7.6 11.4564 7.6 11.125C7.6 10.7937 7.33164 10.525 7 10.525H4.5C3.17685 10.525 2.1 9.44818 2.1 8.12503C2.1 6.80188 3.17685 5.72503 4.5 5.72503H5C5.33164 5.72503 5.6 5.45635 5.6 5.12503C5.6 3.25039 7.1256 1.72503 9 1.72503C10.8744 1.72503 12.4 3.25039 12.4 5.12503C12.4 5.45635 12.6684 5.72503 13 5.72503H13.5C14.8231 5.72503 15.9 6.80188 15.9 8.12503C15.9 9.44818 14.8231 10.525 13.5 10.525H11C10.6684 10.525 10.4 10.7937 10.4 11.125C10.4 11.4564 10.6684 11.725 11 11.725H13.5ZM10.5758 12.7008L9.6 13.6766V7.62503C9.6 7.29371 9.33164 7.02503 9 7.02503C8.66836 7.02503 8.4 7.29371 8.4 7.62503V13.6766L7.42421 12.7008C7.1898 12.4664 6.81009 12.4664 6.57577 12.7008C6.34154 12.9352 6.34131 13.3149 6.57579 13.5492C6.5758 13.5492 6.5758 13.5493 6.57581 13.5493L8.57579 15.5492C8.6929 15.6664 8.84666 15.725 9 15.725C9.15334 15.725 9.3071 15.6664 9.42421 15.5492L11.4242 13.5492C11.6586 13.3148 11.6587 12.9351 11.4242 12.7008C11.1898 12.4666 10.8101 12.4663 10.5758 12.7008C10.5758 12.7008 10.5758 12.7008 10.5758 12.7008Z" fill="#45A845" stroke="#45A845" stroke-width="0.2"/>
</svg>
