<svg width="16" height="16" viewBox="0 0 16 16" fill="none" xmlns="http://www.w3.org/2000/svg">
<g clip-path="url(#clip0_2521_26049)">
<path d="M0.667414 3.16715H2.49123C2.8512 4.49158 4.21665 5.27344 5.54108 4.91348C6.39172 4.68228 7.05621 4.01779 7.28741 3.16715H15.3326C15.7008 3.16715 15.9992 2.86871 15.9992 2.50056C15.9992 2.13241 15.7008 1.83397 15.3326 1.83397H7.28741C6.92745 0.509511 5.56199 -0.272348 4.23756 0.0876158C3.38692 0.318812 2.72243 0.983308 2.49123 1.83394H0.667414C0.299263 1.83394 0.000823975 2.13238 0.000823975 2.50053C0.000823975 2.86868 0.299263 3.16715 0.667414 3.16715Z" fill="#6A7185"/>
<path d="M15.3326 7.33362H13.5088C13.1495 6.00938 11.7848 5.22708 10.4606 5.5863C9.60927 5.81724 8.94421 6.48227 8.71327 7.33362H0.667414C0.299263 7.33362 0.000823975 7.63206 0.000823975 8.00021C0.000823975 8.36836 0.299263 8.6668 0.667414 8.6668H8.71327C9.07251 9.99104 10.4372 10.7733 11.7615 10.4141C12.6128 10.1832 13.2778 9.51815 13.5088 8.6668H15.3326C15.7008 8.6668 15.9992 8.36836 15.9992 8.00021C15.9992 7.63206 15.7008 7.33362 15.3326 7.33362Z" fill="#6A7185"/>
<path d="M15.3326 12.833H7.28741C6.92745 11.5085 5.56199 10.7267 4.23756 11.0866C3.38692 11.3178 2.72243 11.9823 2.49123 12.833H0.667414C0.299263 12.833 0.000823975 13.1314 0.000823975 13.4996C0.000823975 13.8677 0.299263 14.1661 0.667414 14.1661H2.49123C2.8512 15.4906 4.21665 16.2724 5.54108 15.9125C6.39172 15.6813 7.05621 15.0168 7.28741 14.1661H15.3326C15.7008 14.1661 15.9992 13.8677 15.9992 13.4996C15.9992 13.1314 15.7008 12.833 15.3326 12.833Z" fill="#6A7185"/>
</g>
<defs>
<clipPath id="clip0_2521_26049">
<rect width="16" height="16" fill="white"/>
</clipPath>
</defs>
</svg>
