<svg width="36" height="36" viewBox="0 0 36 36" fill="none" xmlns="http://www.w3.org/2000/svg">
<path d="M31.5001 15.375C31.2017 15.375 30.9155 15.4935 30.7046 15.7045C30.4936 15.9155 30.3751 16.2016 30.3751 16.5V19.785L24.3601 13.77C23.8582 13.2931 23.1924 13.0271 22.5001 13.0271C21.8077 13.0271 21.1419 13.2931 20.6401 13.77L13.5001 20.9085L12.3601 19.77C11.8582 19.2931 11.1924 19.0271 10.5001 19.0271C9.80774 19.0271 9.14189 19.2931 8.64005 19.77L5.62505 22.7835V10.5C5.62505 8.13448 6.63455 7.12498 9.00005 7.12498H21.0001C21.2984 7.12498 21.5846 7.00645 21.7955 6.79547C22.0065 6.5845 22.1251 6.29835 22.1251 5.99998C22.1251 5.70161 22.0065 5.41546 21.7955 5.20448C21.5846 4.9935 21.2984 4.87498 21.0001 4.87498H9.00005C8.24007 4.78689 7.47 4.87179 6.74745 5.12333C6.0249 5.37487 5.36859 5.78653 4.8276 6.32752C4.2866 6.86851 3.87494 7.52483 3.62341 8.24737C3.37187 8.96992 3.28697 9.73999 3.37505 10.5V25.5C3.28697 26.26 3.37187 27.03 3.62341 27.7526C3.87494 28.4751 4.2866 29.1314 4.8276 29.6724C5.36859 30.2134 6.0249 30.6251 6.74745 30.8766C7.47 31.1282 8.24007 31.2131 9.00005 31.125H27.0001C27.76 31.2131 28.5301 31.1282 29.2527 30.8766C29.9752 30.6251 30.6315 30.2134 31.1725 29.6724C31.7135 29.1314 32.1252 28.4751 32.3767 27.7526C32.6282 27.03 32.7131 26.26 32.6251 25.5V16.5C32.6251 16.2016 32.5065 15.9155 32.2955 15.7045C32.0846 15.4935 31.7984 15.375 31.5001 15.375ZM27.0001 28.875H9.00005C6.79205 28.875 5.77805 27.975 5.65055 25.9395L10.2301 21.36C10.2601 21.316 10.3003 21.2801 10.3474 21.2553C10.3944 21.2304 10.4468 21.2174 10.5001 21.2174C10.5533 21.2174 10.6057 21.2304 10.6527 21.2553C10.6998 21.2801 10.74 21.316 10.7701 21.36L12.1786 22.77C12.5356 23.1073 13.0081 23.2953 13.4993 23.2953C13.9905 23.2953 14.463 23.1073 14.8201 22.77L22.2301 15.36C22.2601 15.316 22.3003 15.2801 22.3474 15.2553C22.3944 15.2304 22.4468 15.2174 22.5001 15.2174C22.5533 15.2174 22.6057 15.2304 22.6527 15.2553C22.6998 15.2801 22.74 15.316 22.7701 15.36L30.3751 22.9665V25.5C30.3751 27.8655 29.3656 28.875 27.0001 28.875ZM26.2051 7.54498C26.1006 7.44063 26.0177 7.31671 25.9611 7.18029C25.9045 7.04388 25.8754 6.89765 25.8754 6.74998C25.8754 6.6023 25.9045 6.45608 25.9611 6.31966C26.0177 6.18325 26.1006 6.05933 26.2051 5.95498L28.4551 3.70498C28.6662 3.49467 28.952 3.37659 29.2501 3.37659C29.5481 3.37659 29.8339 3.49467 30.0451 3.70498L32.2951 5.95498C32.4056 6.05797 32.4942 6.18217 32.5557 6.32017C32.6172 6.45817 32.6503 6.60714 32.6529 6.75819C32.6556 6.90925 32.6278 7.05929 32.5712 7.19937C32.5147 7.33946 32.4304 7.46671 32.3236 7.57354C32.2168 7.68036 32.0895 7.76458 31.9494 7.82116C31.8094 7.87774 31.6593 7.90553 31.5083 7.90287C31.3572 7.9002 31.2082 7.86714 31.0702 7.80565C30.9322 7.74416 30.808 7.65551 30.7051 7.54498L30.3751 7.21648V10.5C30.3751 10.7983 30.2565 11.0845 30.0455 11.2955C29.8346 11.5065 29.5484 11.625 29.2501 11.625C28.9517 11.625 28.6655 11.5065 28.4546 11.2955C28.2436 11.0845 28.1251 10.7983 28.1251 10.5V7.21648L27.7951 7.54498C27.6907 7.64947 27.5668 7.73237 27.4304 7.78894C27.294 7.8455 27.1477 7.87461 27.0001 7.87461C26.8524 7.87461 26.7062 7.8455 26.5697 7.78894C26.4333 7.73237 26.3094 7.64947 26.2051 7.54498ZM12.0001 11.625C12.3709 11.625 12.7334 11.7349 13.0417 11.941C13.3501 12.147 13.5904 12.4398 13.7323 12.7824C13.8742 13.1251 13.9114 13.5021 13.839 13.8658C13.7667 14.2295 13.5881 14.5636 13.3259 14.8258C13.0637 15.088 12.7296 15.2666 12.3658 15.339C12.0021 15.4113 11.6251 15.3742 11.2825 15.2323C10.9399 15.0903 10.6471 14.85 10.441 14.5417C10.235 14.2333 10.1251 13.8708 10.1251 13.5C10.1251 13.0027 10.3226 12.5258 10.6742 12.1742C11.0259 11.8225 11.5028 11.625 12.0001 11.625Z" fill="black"/>
</svg>
