<svg width="16" height="16" viewBox="0 0 16 16" fill="none" xmlns="http://www.w3.org/2000/svg">
<g clip-path="url(#clip0_6659_4056)">
<path d="M12.6667 0H3.33339C1.49539 0 6.10352e-05 1.49533 6.10352e-05 3.33333V12.6667C6.10352e-05 14.5047 1.49539 16 3.33339 16H11.0974C11.9554 16 12.7621 15.666 13.3687 15.0593L15.0594 13.3687C15.6574 12.7713 16.0001 11.9427 16.0001 11.0973V3.33333C16.0001 1.49533 14.5047 0 12.6667 0ZM1.33339 12.6667V3.33333C1.33339 2.23067 2.23073 1.33333 3.33339 1.33333H12.6667C13.7694 1.33333 14.6667 2.23067 14.6667 3.33333V10H12.0001C10.8974 10 10.0001 10.8973 10.0001 12V14.6667H3.33339C2.23073 14.6667 1.33339 13.7693 1.33339 12.6667ZM12.4261 14.1167C12.1274 14.4153 11.7461 14.6 11.3334 14.6513V12C11.3334 11.632 11.6327 11.3333 12.0001 11.3333H14.6507C14.5981 11.7433 14.4101 12.132 14.1161 12.426L12.4261 14.1167ZM3.33339 4.33333C3.33339 3.78133 3.78139 3.33333 4.33339 3.33333C4.88539 3.33333 5.33339 3.78133 5.33339 4.33333C5.33339 4.88533 4.88539 5.33333 4.33339 5.33333C3.78139 5.33333 3.33339 4.88533 3.33339 4.33333ZM5.33339 8C5.33339 8.552 4.88539 9 4.33339 9C3.78139 9 3.33339 8.552 3.33339 8C3.33339 7.448 3.78139 7 4.33339 7C4.88539 7 5.33339 7.448 5.33339 8ZM5.33339 11.6667C5.33339 12.2187 4.88539 12.6667 4.33339 12.6667C3.78139 12.6667 3.33339 12.2187 3.33339 11.6667C3.33339 11.1147 3.78139 10.6667 4.33339 10.6667C4.88539 10.6667 5.33339 11.1147 5.33339 11.6667Z" fill="#D94841"/>
</g>
<defs>
<clipPath id="clip0_6659_4056">
<rect width="16" height="16" fill="white"/>
</clipPath>
</defs>
</svg>
