<svg width="180" height="121" viewBox="0 0 180 121" fill="none" xmlns="http://www.w3.org/2000/svg">
<g clip-path="url(#clip0_7054_12687)">
<path d="M46.9375 68.1609C46.4671 69.0003 45.4369 69.1157 43.7863 68.9563C42.5451 68.8359 41.4131 68.7429 40.1717 68.0661C39.3029 67.5927 38.6151 66.9523 38.1131 66.3303C37.5691 65.6563 36.8097 64.8873 37.1819 64.1231C37.6935 63.0735 40.6515 62.1895 43.5239 63.6351C46.6793 65.2237 47.3977 67.3403 46.9375 68.1609Z" fill="url(#paint0_linear_7054_12687)"/>
<path d="M141.254 62.6231C139.331 64.0575 136.278 63.2205 136.278 63.2205C136.278 63.2205 136.346 60.0581 138.271 58.6249C140.194 57.1905 143.245 58.0263 143.245 58.0263C143.245 58.0263 143.177 61.1887 141.254 62.6231Z" fill="url(#paint1_linear_7054_12687)"/>
<path d="M43.224 35.3725C45.0522 37.4885 48.7364 37.3031 48.7364 37.3031C48.7364 37.3031 49.4542 33.6871 47.624 31.5721C45.7958 29.4561 42.1134 29.6403 42.1134 29.6403C42.1134 29.6403 41.3958 33.2565 43.224 35.3725Z" fill="url(#paint2_linear_7054_12687)"/>
<path d="M87.9771 102.655C87.1058 102.655 86.3995 101.948 86.3995 101.077C86.3995 100.206 87.1058 99.4995 87.9771 99.4995C88.8484 99.4995 89.5547 100.206 89.5547 101.077C89.5547 101.948 88.8484 102.655 87.9771 102.655Z" fill="#E1E4E5"/>
<path d="M101.735 89.7682C100.777 89.7682 100 88.9918 100 88.034C100 87.0762 100.777 86.2998 101.735 86.2998C102.692 86.2998 103.469 87.0762 103.469 88.034C103.469 88.9918 102.692 89.7682 101.735 89.7682Z" fill="#E1E4E5"/>
<path d="M135.8 36.6276C135.027 36.6276 134.4 36.0008 134.4 35.2276C134.4 34.4544 135.027 33.8276 135.8 33.8276C136.573 33.8276 137.2 34.4544 137.2 35.2276C137.2 36.0008 136.573 36.6276 135.8 36.6276Z" fill="#E1E4E5"/>
<path d="M38.3925 42.5721C38.64 43.4957 38.0919 44.4451 37.1683 44.6926C36.2446 44.9401 35.2952 44.3919 35.0477 43.4683C34.8002 42.5447 35.3484 41.5953 36.272 41.3478C37.1957 41.1003 38.145 41.6484 38.3925 42.5721Z" fill="#E1E4E5"/>
<path d="M64.304 27.7069C63.0319 27.7069 62.0006 26.6756 62.0006 25.4035C62.0006 24.1314 63.0319 23.1001 64.304 23.1001C65.5762 23.1001 66.6074 24.1314 66.6074 25.4035C66.6074 26.6756 65.5762 27.7069 64.304 27.7069Z" fill="#E1E4E5"/>
<path d="M148.89 82.4383C147.912 82.4383 147.119 81.8037 147.119 81.0209C147.119 80.2381 147.912 79.6035 148.89 79.6035C149.869 79.6035 150.662 80.2381 150.662 81.0209C150.662 81.8037 149.869 82.4383 148.89 82.4383Z" fill="#E1E4E5"/>
<path d="M46.6896 94.8448C46.6896 96.2504 45.5502 97.3898 44.1446 97.3898C42.739 97.3898 41.5996 96.2504 41.5996 94.8448C41.5996 93.4392 42.739 92.2998 44.1446 92.2998C45.5502 92.2998 46.6896 93.4392 46.6896 94.8448Z" fill="#E1E4E5"/>
<path d="M131.905 78.896H131.951C132.225 82.785 135.118 82.845 135.118 82.845C135.118 82.845 131.928 82.9072 131.928 87.4008C131.928 82.9072 128.739 82.845 128.739 82.845C128.739 82.845 131.63 82.785 131.905 78.896Z" fill="#E1E4E5"/>
<path d="M61.9104 95.5756H122.014C126.756 95.5756 130.6 91.7314 130.6 86.9894V26.886C130.6 22.144 126.756 18.2998 122.014 18.2998H79.0828C74.3408 18.2998 70.4966 22.144 70.4966 26.886V86.9894C70.4966 91.7314 66.6524 95.5756 61.9104 95.5756ZM61.9104 95.5756C57.1682 95.5756 53.3242 91.7314 53.3242 86.9894V39.7654C53.3242 35.0232 57.1682 31.1792 61.9104 31.1792H70.4966M85.5226 35.4724H115.574M85.5226 52.6448H115.574M85.5226 69.8176H115.574" stroke="#45A845" stroke-width="1.5" stroke-linecap="round" stroke-linejoin="round"/>
<path fill-rule="evenodd" clip-rule="evenodd" d="M54.334 62.8082C54.334 72.7678 62.4072 80.841 72.3668 80.841C82.3262 80.841 90.3994 72.7678 90.3994 62.8082C90.3994 52.8488 82.3262 44.7754 72.3668 44.7754C62.4072 44.7754 54.334 52.8488 54.334 62.8082Z" fill="white" stroke="#45A845" stroke-width="4.0164" stroke-linecap="round" stroke-linejoin="round"/>
<path d="M50.3994 84.7758L58.1044 77.0708" stroke="#45A845" stroke-width="4.0164" stroke-linecap="round" stroke-linejoin="round"/>
<path fill-rule="evenodd" clip-rule="evenodd" d="M108.2 84.6414V76.3276C108.2 74.9534 108.561 73.6032 109.246 72.4118C109.931 71.2204 110.916 70.2295 112.104 69.538L119.96 64.9656C121.16 64.2676 122.524 63.8999 123.912 63.8999C125.3 63.8999 126.664 64.2676 127.864 64.9656L135.72 69.538C136.908 70.2292 137.894 71.22 138.579 72.4114C139.265 73.6028 139.625 74.9532 139.625 76.3276V84.6414C139.625 86.0157 139.265 87.3658 138.58 88.5572C137.895 89.7486 136.909 90.7395 135.722 91.431L127.865 96.0034C126.665 96.7015 125.302 97.0692 123.914 97.0692C122.525 97.0692 121.162 96.7015 119.962 96.0034L112.106 91.431C110.918 90.7399 109.932 89.7491 109.246 88.5577C108.561 87.3663 108.2 86.0159 108.2 84.6414Z" fill="#D94841"/>
<path d="M123.913 80.4843V72.6279M123.911 86.5947C123.854 86.5946 123.797 86.6059 123.744 86.6278C123.691 86.6498 123.643 86.682 123.603 86.7225C123.563 86.7631 123.531 86.8113 123.509 86.8643C123.487 86.9173 123.476 86.9741 123.477 87.0313C123.477 87.1178 123.502 87.2022 123.55 87.2741C123.598 87.3459 123.667 87.4019 123.747 87.4349C123.826 87.4679 123.914 87.4764 123.999 87.4594C124.084 87.4424 124.162 87.4006 124.223 87.3393C124.284 87.2781 124.325 87.2001 124.342 87.1153C124.358 87.0304 124.349 86.9426 124.316 86.8629C124.283 86.7831 124.226 86.7151 124.154 86.6673C124.082 86.6196 123.998 86.5943 123.911 86.5947Z" stroke="white" stroke-width="2.6188" stroke-linecap="round" stroke-linejoin="round"/>
</g>
<defs>
<linearGradient id="paint0_linear_7054_12687" x1="43.7685" y1="73.6017" x2="39.5757" y2="54.7611" gradientUnits="userSpaceOnUse">
<stop stop-color="white"/>
<stop offset="1" stop-color="#EEEEEE"/>
</linearGradient>
<linearGradient id="paint1_linear_7054_12687" x1="133.731" y1="67.3751" x2="148.656" y2="50.4003" gradientUnits="userSpaceOnUse">
<stop stop-color="white"/>
<stop offset="1" stop-color="#EEEEEE"/>
</linearGradient>
<linearGradient id="paint2_linear_7054_12687" x1="50.5916" y1="42.6721" x2="37.8726" y2="19.6011" gradientUnits="userSpaceOnUse">
<stop stop-color="white"/>
<stop offset="1" stop-color="#EEEEEE"/>
</linearGradient>
<clipPath id="clip0_7054_12687">
<rect width="180" height="120" fill="white" transform="translate(0 0.5)"/>
</clipPath>
</defs>
</svg>
