<svg width="17" height="16" viewBox="0 0 17 16" fill="#05A155" xmlns="http://www.w3.org/2000/svg">
<path fill-rule="evenodd" clip-rule="evenodd" d="M8.72205 2C8.99819 2 9.22205 2.22386 9.22205 2.5V7.5H14.222C14.4982 7.5 14.722 7.72386 14.722 8C14.722 8.27614 14.4982 8.5 14.222 8.5H9.22205V13.5C9.22205 13.7761 8.99819 14 8.72205 14C8.4459 14 8.22205 13.7761 8.22205 13.5V8.5H3.22205C2.9459 8.5 2.72205 8.27614 2.72205 8C2.72205 7.72386 2.9459 7.5 3.22205 7.5H8.22205V2.5C8.22205 2.22386 8.4459 2 8.72205 2Z" fill="#05A155"/>
</svg>
