<svg width="16" height="16" viewBox="0 0 16 16" fill="none" xmlns="http://www.w3.org/2000/svg">
<g clip-path="url(#clip0_7157_493)">
<path d="M15.5274 6.38208C15.2667 6.12143 14.844 6.12143 14.5833 6.38208L7.31061 13.6862C6.00683 14.9901 3.89287 14.9903 2.5889 13.6865C1.28493 12.3828 1.2848 10.2688 2.58855 8.9648L9.63223 1.89242C10.4207 1.11646 11.689 1.12663 12.465 1.91514C13.232 2.69461 13.2322 3.94519 12.4653 4.72484L5.42166 11.7972C5.15772 12.0501 4.74145 12.0501 4.47753 11.7972C4.21688 11.5365 4.21688 11.1138 4.47753 10.8531L10.7487 4.55326C11.0048 4.288 10.9975 3.86531 10.7323 3.60913C10.4735 3.35921 10.0633 3.35921 9.80453 3.60913L3.5334 9.90896C2.75106 10.6912 2.75096 11.9595 3.53315 12.7418C3.53325 12.7419 3.53331 12.742 3.5334 12.7421C4.32624 13.4986 5.57365 13.4986 6.36648 12.7421L13.4095 5.66903C14.6965 4.34876 14.6696 2.23508 13.3493 0.94801C12.0526 -0.316119 9.9846 -0.315962 8.6881 0.948292L1.64443 8.02064C-0.180954 9.84602 -0.180954 12.8056 1.64443 14.631C3.46981 16.4563 6.42936 16.4563 8.25474 14.631L15.5274 7.32891C15.7889 7.06884 15.79 6.64609 15.53 6.38462C15.5291 6.38377 15.5283 6.38293 15.5274 6.38208Z" fill="#A05148"/>
</g>
<defs>
<clipPath id="clip0_7157_493">
<rect width="16" height="16" fill="white"/>
</clipPath>
</defs>
</svg>
