<svg width="24" height="25" viewBox="0 0 24 25" fill="none" xmlns="http://www.w3.org/2000/svg">
<path d="M21.0004 12.4998C21.0004 12.6987 20.9214 12.8895 20.7807 13.0302C20.6401 13.1708 20.4493 13.2498 20.2504 13.2498H12.0004C11.8015 13.2498 11.6107 13.1708 11.4701 13.0302C11.3294 12.8895 11.2504 12.6987 11.2504 12.4998C11.2504 12.3009 11.3294 12.1102 11.4701 11.9695C11.6107 11.8288 11.8015 11.7498 12.0004 11.7498H20.2504C20.4493 11.7498 20.6401 11.8288 20.7807 11.9695C20.9214 12.1102 21.0004 12.3009 21.0004 12.4998ZM12.0004 7.24983H20.2504C20.4493 7.24983 20.6401 7.17081 20.7807 7.03016C20.9214 6.88951 21.0004 6.69874 21.0004 6.49983C21.0004 6.30092 20.9214 6.11015 20.7807 5.9695C20.6401 5.82885 20.4493 5.74983 20.2504 5.74983H12.0004C11.8015 5.74983 11.6107 5.82885 11.4701 5.9695C11.3294 6.11015 11.2504 6.30092 11.2504 6.49983C11.2504 6.69874 11.3294 6.88951 11.4701 7.03016C11.6107 7.17081 11.8015 7.24983 12.0004 7.24983ZM20.2504 17.7498H12.0004C11.8015 17.7498 11.6107 17.8288 11.4701 17.9695C11.3294 18.1102 11.2504 18.3009 11.2504 18.4998C11.2504 18.6987 11.3294 18.8895 11.4701 19.0302C11.6107 19.1708 11.8015 19.2498 12.0004 19.2498H20.2504C20.4493 19.2498 20.6401 19.1708 20.7807 19.0302C20.9214 18.8895 21.0004 18.6987 21.0004 18.4998C21.0004 18.3009 20.9214 18.1102 20.7807 17.9695C20.6401 17.8288 20.4493 17.7498 20.2504 17.7498ZM7.71979 4.4692L5.25042 6.93952L4.28104 5.9692C4.14031 5.82847 3.94944 5.74941 3.75042 5.74941C3.55139 5.74941 3.36052 5.82847 3.21979 5.9692C3.07906 6.10994 3 6.30081 3 6.49983C3 6.69885 3.07906 6.88972 3.21979 7.03045L4.71979 8.53045C4.78945 8.60019 4.87216 8.65551 4.96321 8.69325C5.05426 8.73099 5.15186 8.75042 5.25042 8.75042C5.34898 8.75042 5.44657 8.73099 5.53762 8.69325C5.62867 8.65551 5.71139 8.60019 5.78104 8.53045L8.78104 5.53045C8.92177 5.38972 9.00083 5.19885 9.00083 4.99983C9.00083 4.80081 8.92177 4.60994 8.78104 4.4692C8.64031 4.32847 8.44944 4.24941 8.25042 4.24941C8.05139 4.24941 7.86052 4.32847 7.71979 4.4692ZM7.71979 10.4692L5.25042 12.9395L4.28104 11.9692C4.14031 11.8285 3.94944 11.7494 3.75042 11.7494C3.55139 11.7494 3.36052 11.8285 3.21979 11.9692C3.07906 12.1099 3 12.3008 3 12.4998C3 12.5984 3.01941 12.696 3.05712 12.787C3.09483 12.878 3.15011 12.9608 3.21979 13.0305L4.71979 14.5305C4.78945 14.6002 4.87216 14.6555 4.96321 14.6932C5.05426 14.731 5.15186 14.7504 5.25042 14.7504C5.34898 14.7504 5.44657 14.731 5.53762 14.6932C5.62867 14.6555 5.71139 14.6002 5.78104 14.5305L8.78104 11.5305C8.92177 11.3897 9.00083 11.1989 9.00083 10.9998C9.00083 10.8008 8.92177 10.6099 8.78104 10.4692C8.64031 10.3285 8.44944 10.2494 8.25042 10.2494C8.05139 10.2494 7.86052 10.3285 7.71979 10.4692ZM7.71979 16.4692L5.25042 18.9395L4.28104 17.9692C4.21136 17.8995 4.12863 17.8442 4.03759 17.8065C3.94654 17.7688 3.84896 17.7494 3.75042 17.7494C3.65187 17.7494 3.55429 17.7688 3.46324 17.8065C3.3722 17.8442 3.28947 17.8995 3.21979 17.9692C3.15011 18.0389 3.09483 18.1216 3.05712 18.2127C3.01941 18.3037 3 18.4013 3 18.4998C3 18.5984 3.01941 18.696 3.05712 18.787C3.09483 18.878 3.15011 18.9608 3.21979 19.0305L4.71979 20.5305C4.78945 20.6002 4.87216 20.6555 4.96321 20.6933C5.05426 20.731 5.15186 20.7504 5.25042 20.7504C5.34898 20.7504 5.44657 20.731 5.53762 20.6933C5.62867 20.6555 5.71139 20.6002 5.78104 20.5305L8.78104 17.5305C8.92177 17.3897 9.00083 17.1989 9.00083 16.9998C9.00083 16.8008 8.92177 16.6099 8.78104 16.4692C8.64031 16.3285 8.44944 16.2494 8.25042 16.2494C8.05139 16.2494 7.86052 16.3285 7.71979 16.4692Z" fill="#333333"/>
</svg>
