<svg width="20" height="20" viewBox="0 0 20 20" fill="none" xmlns="http://www.w3.org/2000/svg">
<g clip-path="url(#clip0_6059_1688)">
<path d="M7.14844 11.0658V9.74609H5.42969V10.5032L7.14844 11.0658Z" fill="#D94841"/>
<path d="M4.2215 18.6341C5.4689 16.5901 7.08817 14.8504 8.96194 13.4792C6.3829 12.0187 3.44482 11.1932 0.390625 11.1404V19.6092H3.62625L4.2215 18.6341Z" fill="#D94841"/>
<path d="M5.11719 19.6092H19.6094V11.5303C13.7518 11.7076 8.34564 14.7235 5.11719 19.6092Z" fill="#D94841"/>
<path d="M10 12.5C10.8001 12.8245 10.7758 11.2874 11.5 12C11.9339 11.494 12.5301 11.0568 13 10.6939V8H8V12C8.11635 12.0546 9.88501 12.4368 10 12.5Z" fill="#D94841"/>
<path d="M4.10156 8.4241L6.28906 6.22363L8.47656 8.4241H4.10156Z" fill="#D94841"/>
<path d="M8.08496 6.22363L10.1559 8.30692H12.826L10.7549 6.22363H8.08496Z" fill="#D94841"/>
<path d="M17.4534 2.18887C17.258 1.98486 17.0442 1.78848 16.8116 1.60156C14.5611 3.4111 14.048 6.08826 15.2714 8.29376C15.4669 8.49792 15.6807 8.69415 15.9132 8.88123C18.1637 7.07153 18.6767 4.39438 17.4534 2.18887Z" fill="#D94841"/>
<path d="M3.86919 3.57318C3.66671 3.32996 3.43218 3.09863 3.16485 2.88379C1.60524 4.13791 1.14931 5.94318 1.79644 7.51971C1.99892 7.76309 2.2336 7.99426 2.50078 8.20926C4.06054 6.95514 4.51647 5.14987 3.86919 3.57318Z" fill="#D94841"/>
<path d="M7.43088 14.6696C5.28595 13.5384 2.87079 12.915 0.390625 12.915V16.0596C2.09 16.0596 3.75076 16.4291 5.26779 17.1089" fill="#D94841"/>
<path d="M7.05176 19.6089C9.83755 15.4604 14.5901 12.9082 19.6085 12.9082V16.0527C16.3987 16.0527 13.3263 17.3711 11.1007 19.6089H7.05176Z" fill="#D94841"/>
<path d="M19.6095 15.6621C16.3472 15.6621 13.1452 17.0003 10.8247 19.3335C10.6724 19.4866 10.6732 19.7339 10.8261 19.8859C10.9024 19.9617 11.0018 19.9996 11.1016 19.9996C11.2019 19.9996 11.3021 19.9613 11.3786 19.8845C13.5536 17.6976 16.5536 16.4434 19.6095 16.4434C19.8252 16.4434 20.0001 16.2685 20.0001 16.0527C20.0001 15.8371 19.8252 15.6621 19.6095 15.6621Z" fill="#D94841"/>
<path d="M11.4629 15.3004C11.3421 15.1216 11.0993 15.0746 10.9206 15.1955C9.25024 16.3237 7.83957 17.7354 6.72751 19.3913C6.60727 19.5705 6.65488 19.8132 6.83401 19.9335C6.901 19.9783 6.97653 19.9998 7.05145 19.9998C7.17718 19.9998 7.30078 19.9391 7.37616 19.827C8.43176 18.2548 9.77133 16.9144 11.3579 15.8427C11.5366 15.722 11.5836 15.4793 11.4629 15.3004Z" fill="#D94841"/>
<path d="M19.6088 12.5176C17.8624 12.5176 16.1339 12.8159 14.4713 13.4043C14.2679 13.4761 14.1614 13.6994 14.2334 13.9028C14.2901 14.0631 14.4408 14.1632 14.6016 14.1632C14.6448 14.1632 14.6888 14.1559 14.732 14.1407C16.3106 13.582 17.9514 13.2988 19.6088 13.2988C19.8246 13.2988 19.9994 13.124 19.9994 12.9082C19.9994 12.6924 19.8246 12.5176 19.6088 12.5176Z" fill="#D94841"/>
<path d="M5.59677 17.3197C8.16666 13.969 11.8867 11.6425 15.9917 10.7706L15.9938 10.7702C17.1735 10.5198 18.3846 10.3892 19.6094 10.3892C19.825 10.3892 20 10.2143 20 9.99868C20 9.78292 19.825 9.60806 19.6094 9.60806C18.4987 9.60806 17.3923 9.70968 16.3046 9.9085V9.0653C17.7165 7.87008 18.4915 6.30392 18.4915 4.63613C18.4915 2.91174 17.6631 1.29598 16.1588 0.0864182C16.0158 -0.0284805 15.8121 -0.0284805 15.6691 0.0864182C14.1649 1.29598 13.3363 2.91174 13.3363 4.63613C13.3363 6.30392 14.1115 7.87008 15.5232 9.0653V10.0683C14.781 10.2372 14.0495 10.4525 13.3333 10.7117V8.42458C13.3333 8.31716 13.2899 8.21996 13.2198 8.14932L11.0323 5.94869C10.9589 5.87499 10.8592 5.83349 10.7552 5.83349H6.28906C6.18515 5.83349 6.08536 5.87499 6.01212 5.94869L3.82462 8.14916C3.75443 8.21981 3.71094 8.31716 3.71094 8.42474V9.91644C3.43872 9.86654 3.16528 9.82259 2.89062 9.78506V8.39254C3.95828 7.47411 4.54407 6.2763 4.54407 5.00021C4.54407 3.66705 3.90503 2.41918 2.74475 1.48611C2.60178 1.37121 2.39822 1.37121 2.25525 1.48611C1.09497 2.41903 0.455933 3.66705 0.455933 5.00021C0.455933 6.27615 1.04172 7.47396 2.10938 8.39239V9.69518C1.53976 9.64193 0.966339 9.61446 0.390625 9.61446C0.174866 9.61446 0 9.78933 0 10.0051C0 10.2208 0.174866 10.3957 0.390625 10.3957C3.5141 10.3957 6.56921 11.2221 9.26254 12.79C8.61725 13.2285 8.00095 13.7075 7.41745 14.2231C5.23529 13.1113 2.81067 12.5246 0.390625 12.5246C0.175018 12.5246 0 12.6995 0 12.9152C0 13.131 0.175018 13.3059 0.390625 13.3059C2.59262 13.3059 4.79904 13.818 6.80359 14.7904C6.20972 15.3649 5.6546 15.9795 5.14236 16.6292C3.62289 15.992 2.02591 15.6692 0.390625 15.6692C0.175018 15.6692 0 15.844 0 16.0598C0 16.2755 0.175018 16.4504 0.390625 16.4504C1.85547 16.4504 3.28766 16.7281 4.65576 17.275C4.38583 17.65 4.12933 18.0353 3.88809 18.4308L3.29285 19.406C3.18039 19.5901 3.23868 19.8305 3.4227 19.9428C3.48633 19.9817 3.55652 20.0002 3.62595 20.0002C3.75748 20.0002 3.88611 19.9335 3.95966 19.813L4.5549 18.8378C4.86526 18.3292 5.20065 17.8399 5.55817 17.3701C5.5722 17.3545 5.58533 17.3379 5.59677 17.3197ZM14.1177 4.63613C14.1177 3.24773 14.753 1.93258 15.914 0.902C17.075 1.93258 17.7103 3.24773 17.7103 4.63613C17.7103 5.85958 17.2165 7.02642 16.3046 7.99154V5.00021C16.3046 4.78445 16.1298 4.60958 15.914 4.60958C15.6982 4.60958 15.5234 4.78445 15.5234 5.00021V7.99154C14.6114 7.02642 14.1177 5.85958 14.1177 4.63613ZM1.23718 5.00021C1.23718 4.00381 1.6832 3.05746 2.5 2.3055C3.3168 3.0573 3.76282 4.00381 3.76282 5.00021C3.76282 5.82372 3.45779 6.61321 2.89062 7.28704V4.68771C2.89062 4.47195 2.71576 4.29708 2.5 4.29708C2.28439 4.29708 2.10938 4.47195 2.10938 4.68771V7.28704C1.54221 6.61321 1.23718 5.82372 1.23718 5.00021ZM12.0036 8.03396H8.63907L7.22824 6.61474H10.5928L12.0036 8.03396ZM6.28906 6.77816L7.53754 8.03396H5.04074L6.28906 6.77816ZM4.49219 8.81521H8.08594V11.2993C7.90482 11.216 7.72263 11.1355 7.53906 11.0581V9.74615C7.53906 9.53054 7.3642 9.35552 7.14844 9.35552H5.42969C5.21408 9.35552 5.03906 9.53054 5.03906 9.74615V10.2106C4.85748 10.1633 4.67529 10.1185 4.49219 10.0767V8.81521ZM6.75781 10.7499C6.44806 10.6357 6.13556 10.5298 5.82031 10.4326V10.1368H6.75781V10.7499ZM8.86719 11.6816V8.81521H12.5522V11.0149C11.8831 11.2922 11.2292 11.6086 10.5954 11.9645C10.3928 12.0781 10.1926 12.1963 9.99466 12.3174C9.6254 12.0919 9.24942 11.8798 8.86719 11.6816Z" fill="#D94841"/>
<path d="M15.9141 3.90625C16.0168 3.90625 16.1176 3.86444 16.1902 3.79166C16.2629 3.71902 16.3047 3.61832 16.3047 3.51562C16.3047 3.41278 16.263 3.31207 16.1902 3.23944C16.1176 3.16666 16.0168 3.125 15.9141 3.125C15.8114 3.125 15.7105 3.16666 15.638 3.23944C15.5652 3.31207 15.5234 3.41278 15.5234 3.51562C15.5234 3.61832 15.5652 3.71902 15.638 3.79166C15.7105 3.86429 15.8114 3.90625 15.9141 3.90625Z" fill="#D94841"/>
<path d="M12.5226 14.2684C12.4502 14.341 12.4082 14.4417 12.4082 14.5444C12.4082 14.6476 12.45 14.748 12.5226 14.8206C12.5954 14.8934 12.6961 14.9351 12.7988 14.9351C12.9017 14.9351 13.0024 14.8934 13.075 14.8206C13.1476 14.748 13.1895 14.6476 13.1895 14.5444C13.1895 14.4417 13.1476 14.341 13.075 14.2684C13.0024 14.1956 12.9017 14.1538 12.7988 14.1538C12.6961 14.1538 12.5954 14.1956 12.5226 14.2684Z" fill="#D94841"/>
</g>
<defs>
<clipPath id="clip0_6059_1688">
<rect width="20" height="20" fill="white"/>
</clipPath>
</defs>
</svg>
