<svg width="20" height="20" viewBox="0 0 20 20" fill="none" xmlns="http://www.w3.org/2000/svg">
<g clip-path="url(#clip0_6059_1220)">
<path d="M11.414 19.9198L11.414 19.9198C13.5797 17.7422 16.567 16.4934 19.6095 16.4934C19.8529 16.4934 20.0501 16.2961 20.0501 16.0527C20.0501 15.8095 19.8529 15.6121 19.6095 15.6121C16.3337 15.6121 13.1191 16.9557 10.7892 19.2983C10.6175 19.4709 10.6183 19.7499 10.7908 19.9214C10.8768 20.0069 10.9892 20.0496 11.1016 20.0496C11.2146 20.0496 11.3278 20.0064 11.414 19.9198Z" fill="green" stroke="green" stroke-width="0.1"/>
<path d="M11.5044 15.2725L11.5043 15.2724C11.3681 15.0708 11.0942 15.0177 10.8926 15.154C9.21697 16.2858 7.80169 17.7022 6.686 19.3634L6.68599 19.3635C6.55038 19.5655 6.60405 19.8393 6.80615 19.975L6.80619 19.975C6.88162 20.0255 6.96688 20.0498 7.05145 20.0498C7.19314 20.0498 7.33261 19.9814 7.41766 19.8549L7.41767 19.8548C8.46964 18.2881 9.8046 16.9522 11.3859 15.8842C11.5875 15.748 11.6405 15.4742 11.5044 15.2725Z" fill="green" stroke="green" stroke-width="0.1"/>
<path d="M14.7486 14.1878L14.7486 14.1878C14.7001 14.2049 14.6505 14.2132 14.6016 14.2132C14.4203 14.2132 14.2502 14.1004 14.1863 13.9195L14.7486 14.1878ZM14.7486 14.1878C16.322 13.631 17.9571 13.3488 19.6088 13.3488C19.8522 13.3488 20.0494 13.1516 20.0494 12.9082C20.0494 12.6648 19.8522 12.4676 19.6088 12.4676C17.8567 12.4676 16.1226 12.7669 14.4547 13.3571M14.7486 14.1878L14.4547 13.3571M14.4547 13.3571C14.2252 13.4382 14.1051 13.69 14.1863 13.9194L14.4547 13.3571Z" fill="green" stroke="green" stroke-width="0.1"/>
<path d="M16.1901 0.0471996L16.1901 0.0472074C17.7046 1.26498 18.5415 2.89441 18.5415 4.63589C18.5415 6.31314 17.7651 7.88657 16.3546 9.08819V9.84839C17.4262 9.65607 18.5157 9.55781 19.6094 9.55781C19.8526 9.55781 20.05 9.75505 20.05 9.99844C20.05 10.2417 19.8526 10.4391 19.6094 10.4391C18.3881 10.4391 17.1805 10.5691 16.0042 10.8188L16.0021 10.8193C11.9094 11.6886 8.20031 14.0079 5.63779 17.3481C5.62523 17.3678 5.61123 17.3855 5.59672 17.4017C5.24068 17.8697 4.90667 18.3571 4.59758 18.8636L4.5549 18.8375L4.59758 18.8636L4.00234 19.8388C3.91934 19.9748 3.77419 20.05 3.62594 20.05C3.5476 20.05 3.46835 20.0291 3.39665 19.9853C3.39664 19.9853 3.39663 19.9853 3.39661 19.9852L3.4227 19.9426C3.23868 19.8303 3.18039 19.5898 3.29285 19.4058L16.1901 0.0471996ZM16.1901 0.0471996C16.0288 -0.0823999 15.799 -0.0823999 15.6378 0.0471996L15.6378 0.047209C14.1233 1.26498 13.2863 2.89441 13.2863 4.63589C13.2863 6.31314 14.0629 7.88657 15.4732 9.08819L16.1901 0.0471996ZM8.91718 11.651C9.28218 11.841 9.64146 12.0437 9.99462 12.2586C10.1845 12.1427 10.3766 12.0297 10.5709 11.9206M8.91718 11.651L10.5954 11.9642M8.91718 11.651V8.86496V11.651ZM10.5709 11.9206L10.5954 11.9642M10.5709 11.9206C10.5709 11.9206 10.5709 11.9206 10.5709 11.9206L10.5954 11.9642M10.5709 11.9206C11.1968 11.5693 11.8421 11.2562 12.5022 10.9813M10.5954 11.9642C11.2292 11.6084 11.8831 11.2919 12.5522 11.0147M12.5022 10.9813V11.0147H12.5522M12.5022 10.9813C12.5125 10.977 12.5227 10.9727 12.533 10.9685L12.5522 11.0147M12.5022 10.9813L12.5522 11.0147M3.8454 18.4046L3.25018 19.3797L11.0323 5.94845C10.9589 5.87475 10.8592 5.83324 10.7552 5.83324H6.28906C6.18515 5.83324 6.08536 5.87475 6.01211 5.94845L5.97665 5.9132L5.97665 5.9132L3.78915 8.11367L3.77461 8.12829V8.12917C3.70409 8.20724 3.66094 8.31075 3.66094 8.42449V9.85629C3.42179 9.81324 3.18169 9.77478 2.94062 9.74123V8.41518C4.00697 7.49037 4.59407 6.28534 4.59407 4.99996C4.59407 3.64975 3.9466 2.3882 2.77608 1.4469L2.77607 1.44689C2.6148 1.31729 2.3852 1.31729 2.22393 1.44689L2.22392 1.4469C1.0534 2.38805 0.405932 3.64976 0.405932 4.99996C0.405932 6.28519 0.993033 7.49022 2.05937 8.41502V9.64013C1.50623 9.59003 0.949518 9.56422 0.390625 9.56422C0.147251 9.56422 -0.05 9.76147 -0.05 10.0048C-0.05 10.2482 0.147251 10.4455 0.390625 10.4455C3.47876 10.4455 6.49986 11.2556 9.16877 12.7932C8.55491 13.2143 7.9675 13.6719 7.40983 14.1629C5.22861 13.0576 2.80747 12.4744 0.390625 12.4744C0.147417 12.4744 -0.05 12.6716 -0.05 12.915C-0.05 13.1584 0.147417 13.3556 0.390625 13.3556C2.56141 13.3556 4.73676 13.8551 6.71743 14.8041C6.15034 15.357 5.61887 15.9465 5.12664 16.5682C3.6116 15.9382 2.02003 15.6189 0.390625 15.6189C0.147417 15.6189 -0.05 15.8161 -0.05 16.0595C-0.05 16.3029 0.147417 16.5002 0.390625 16.5002C1.82787 16.5002 3.23353 16.7687 4.57782 17.2976C4.32085 17.6572 4.07618 18.0262 3.84541 18.4045C3.84541 18.4045 3.84541 18.4046 3.8454 18.4046ZM14.1677 4.63589C14.1677 3.27689 14.7833 1.98669 15.914 0.96882C17.0447 1.98669 17.6603 3.27689 17.6603 4.63589C17.6603 5.80614 17.2034 6.9254 16.3546 7.86357V4.99996C16.3546 4.75659 16.1574 4.55934 15.914 4.55934C15.6706 4.55934 15.4734 4.75659 15.4734 4.99996V7.86359C14.6245 6.92541 14.1677 5.80616 14.1677 4.63589ZM1.28718 4.99996C1.28718 4.03313 1.71369 3.11208 2.5 2.37353C3.28631 3.11194 3.71282 4.03313 3.71282 4.99996C3.71282 5.76695 3.44414 6.50499 2.94062 7.14608V4.68746C2.94062 4.44409 2.74337 4.24684 2.5 4.24684C2.25679 4.24684 2.05937 4.44408 2.05937 4.68746V7.14608C1.55586 6.50499 1.28718 5.76695 1.28718 4.99996ZM10.572 6.66449L11.8834 7.98371H8.65986L7.34844 6.66449H10.572ZM6.28906 6.84884L7.41732 7.98371H5.16094L6.28906 6.84884ZM4.54219 8.86496H8.03593V11.2212C7.8878 11.1538 7.73889 11.0882 7.58906 11.0247V9.7459C7.58906 9.50269 7.39182 9.30528 7.14843 9.30528H5.42969C5.18646 9.30528 4.98906 9.50268 4.98906 9.7459V10.1458C4.84063 10.1076 4.69172 10.0711 4.54219 10.0366V8.86496ZM5.87031 10.3955V10.1865H6.70781V10.6781C6.43085 10.5772 6.15168 10.4829 5.87031 10.3955ZM12.5522 8.81496V8.86496H12.5022V8.81496H12.5522ZM8.86718 8.81496H8.91718L8.86718 8.86496V8.81496Z" fill="green" stroke="green" stroke-width="0.1"/>
<path d="M16.2256 3.82701C16.1436 3.90917 16.03 3.95625 15.9141 3.95625C15.7981 3.95625 15.6845 3.909 15.6027 3.82701M16.2256 3.82701C16.2256 3.82701 16.2256 3.827 16.2256 3.82699M16.2256 3.82701C16.2256 3.82701 16.2256 3.827 16.2256 3.82699M15.6027 3.82701C15.6027 3.827 15.6027 3.82699 15.6026 3.82697L15.638 3.79166L15.6027 3.82705C15.6027 3.82704 15.6027 3.82702 15.6027 3.82701ZM15.6027 3.82701C15.5205 3.74502 15.4734 3.6316 15.4734 3.51562C15.4734 3.39949 15.5205 3.28605 15.6027 3.20405L15.638 3.23944L15.6026 3.20416C15.6845 3.1219 15.7982 3.075 15.9141 3.075C16.03 3.075 16.1436 3.1219 16.2256 3.20412L16.1902 3.23944L16.2256 3.20405C16.3078 3.28609 16.3547 3.39954 16.3547 3.51562C16.3547 3.6316 16.3076 3.74501 16.2256 3.82699" fill="green" stroke="green" stroke-width="0.1"/>
<path d="M13.075 14.2684L13.1104 14.2331C13.0284 14.1509 12.915 14.1038 12.7988 14.1038C12.6828 14.1038 12.5694 14.1509 12.4873 14.233L12.4873 14.2331C12.4055 14.315 12.3582 14.4284 12.3582 14.5444C12.3582 14.6609 12.4053 14.774 12.4873 14.856C12.5695 14.9381 12.6829 14.9851 12.7988 14.9851C12.9149 14.9851 13.0283 14.9382 13.1104 14.856M13.075 14.2684L13.1104 14.233C13.1924 14.315 13.2395 14.4284 13.2395 14.5444C13.2395 14.6609 13.1924 14.774 13.1104 14.856M13.075 14.2684C13.0024 14.1956 12.9017 14.1538 12.7988 14.1538C12.6961 14.1538 12.5954 14.1956 12.5226 14.2684L13.075 14.8206C13.1476 14.748 13.1895 14.6476 13.1895 14.5444C13.1895 14.4417 13.1476 14.341 13.075 14.2684ZM13.1104 14.856C13.1104 14.856 13.1104 14.856 13.1104 14.856M13.1104 14.856C13.1104 14.856 13.1104 14.856 13.1104 14.856M13.1104 14.856L13.1104 14.856" fill="green" stroke="green" stroke-width="0.1"/>
</g>
<defs>
<clipPath id="clip0_6059_1220">
<rect width="20" height="20" fill="white"/>
</clipPath>
</defs>
</svg>
