<svg width="24" height="24" viewBox="0 0 24 24" fill="none" xmlns="http://www.w3.org/2000/svg">
<path d="M3.21737 17.9341L4.41261 16.7378L4.44602 16.7713L4.44597 16.7713L4.4495 16.7747C4.54937 16.8685 4.68133 16.9206 4.81837 16.9203C4.9549 16.92 5.08617 16.8677 5.18547 16.774C5.25853 16.707 5.946 16.0157 6.61856 15.3394L6.66986 15.2878C6.99312 14.9628 7.31123 14.6429 7.55629 14.3971C7.68532 14.2677 7.79397 14.1589 7.87242 14.0808C7.91167 14.0417 7.94317 14.0105 7.96582 13.9883C7.98512 13.9693 7.99478 13.9601 7.99774 13.9572C7.99817 13.9568 7.99845 13.9565 7.99861 13.9563L7.99865 13.9564L8.00271 13.9527C8.20183 13.7727 8.45872 13.6699 8.72699 13.6627C8.79885 13.6629 9.56063 13.6625 10.4933 13.6619C10.8151 13.6617 11.1573 13.6615 11.4984 13.6613C12.17 13.6609 12.8381 13.6605 13.3408 13.6604L13.9503 13.6605C14.0442 13.6606 14.1099 13.6607 14.1466 13.6607C14.1699 13.6608 14.1814 13.6608 14.1809 13.6608L14.1821 13.6609C14.3845 13.6718 14.5747 13.761 14.7125 13.9097C14.8503 14.0584 14.9249 14.2548 14.9205 14.4575C14.916 14.6601 14.833 14.8531 14.6888 14.9957C14.5447 15.1382 14.3507 15.2191 14.148 15.2212C14.1144 15.2215 13.6523 15.222 13.084 15.2227C12.8908 15.2229 12.6853 15.2232 12.4802 15.2235C12.0757 15.224 11.6732 15.2245 11.3703 15.2251L11.003 15.2259L10.8981 15.2262L10.8921 15.2263C10.8759 15.2263 10.8571 15.2264 10.8481 15.227L10.8481 15.227C10.713 15.237 10.5869 15.2988 10.4963 15.3995C10.4057 15.5002 10.3575 15.632 10.3617 15.7674C10.366 15.9028 10.4225 16.0313 10.5193 16.1261C10.6161 16.2208 10.7458 16.2745 10.8813 16.2759V16.2759L10.883 16.2759L13.6693 16.2719C14.2878 16.3315 14.8629 16.1971 15.2878 15.8746C15.718 15.548 15.9795 15.0393 15.9804 14.3867L15.9806 14.3867L15.9803 14.3797C15.9589 13.907 15.7576 13.4604 15.4175 13.1314C15.0773 12.8024 14.6243 12.616 14.1511 12.6103L14.1511 12.6101L14.1435 12.6104C14.0461 12.6142 12.7077 12.6131 11.3724 12.612C10.7065 12.6114 10.0436 12.6109 9.54062 12.6109C9.28914 12.611 9.0775 12.6112 8.9254 12.6116C8.78827 12.612 8.69067 12.6125 8.66205 12.6139L8.66205 12.6139C8.12629 12.6371 7.61813 12.858 7.23573 13.234L7.23476 13.2349C7.23318 13.2365 7.2209 13.2491 7.19934 13.2711C7.05575 13.4179 6.50073 13.9854 5.95672 14.5318C5.64082 14.849 5.32498 15.1629 5.08501 15.394C4.96477 15.5097 4.86494 15.6034 4.79415 15.6661C4.77922 15.6793 4.76604 15.6907 4.75459 15.7004C4.60544 15.6419 4.44323 15.6225 4.28358 15.645C4.09414 15.6716 3.91745 15.7558 3.77739 15.886L3.77732 15.886L3.7734 15.8899C3.77168 15.8916 3.76073 15.9026 3.74207 15.9212C3.64794 16.0153 3.35754 16.3056 3.06475 16.5988C2.7187 16.9453 2.35921 17.3058 2.33544 17.3331L2.33513 17.3335C2.18572 17.5064 2.10616 17.7288 2.11202 17.9573C2.11788 18.1858 2.20873 18.4039 2.36682 18.5689L2.36677 18.569L2.37014 18.5723C2.41102 18.6124 3.10215 19.3046 3.88743 20.0912C4.0282 20.2322 4.172 20.3762 4.31562 20.5201C4.78766 20.9929 5.25733 21.4632 5.61037 21.8165L6.03823 22.2444L6.15992 22.3658L6.19328 22.3989C6.19587 22.4015 6.20468 22.4103 6.21189 22.4168L6.21187 22.4168C6.38452 22.5697 6.60857 22.6518 6.83913 22.6465C7.06969 22.6412 7.28975 22.549 7.45521 22.3883L7.45522 22.3883L7.45685 22.3867L7.47609 22.3675C7.64384 22.1996 8.83582 21.0071 8.89103 20.9477L8.89104 20.9477L8.89229 20.9463C9.02626 20.7985 9.10662 20.6101 9.12075 20.4115C9.13147 20.3632 9.12595 20.3178 9.12211 20.2919C9.12179 20.2897 9.12145 20.2876 9.12111 20.2854C9.78661 20.1935 10.6978 20.0681 11.5958 19.9445C12.9852 19.7532 14.3433 19.5663 14.7119 19.5144L14.712 19.5145L14.7177 19.5135C15.1965 19.427 15.6388 19.1999 15.9881 18.8612L15.9881 18.8612L15.9902 18.8591C16.0398 18.809 16.7445 18.1032 17.63 17.2162C19.2033 15.6403 21.3473 13.4928 21.4015 13.4364L21.4016 13.4365C21.7232 13.0918 21.9 12.6366 21.8952 12.1652C21.8904 11.6946 21.7051 11.2438 21.3776 10.906C21.2112 10.7231 21.0095 10.5757 20.7846 10.4727C20.559 10.3694 20.3147 10.3129 20.0666 10.3066C19.8185 10.3004 19.5717 10.3446 19.3411 10.4365C19.1106 10.5284 18.9011 10.6661 18.7253 10.8413L18.725 10.8416L16.5914 12.9801L16.5914 12.9801L16.5893 12.9822C16.4942 13.0814 16.4418 13.214 16.4434 13.3515C16.4449 13.4889 16.5003 13.6202 16.5976 13.7173C16.6949 13.8144 16.8264 13.8694 16.9639 13.8705C17.1013 13.8717 17.2338 13.8189 17.3327 13.7235L17.3327 13.7236L17.3348 13.7215L19.4663 11.5851C19.4665 11.5848 19.4668 11.5846 19.4671 11.5843C19.6601 11.3973 19.8685 11.3359 20.0608 11.351C20.2572 11.3663 20.448 11.4626 20.5947 11.6103C20.7415 11.7581 20.8368 11.9499 20.8515 12.1464C20.8659 12.3389 20.804 12.5461 20.6185 12.7358C20.6183 12.736 20.6182 12.7361 20.618 12.7363L15.2485 18.1161C15.2483 18.1162 15.2482 18.1163 15.2481 18.1164C15.0472 18.3152 14.7876 18.4439 14.5078 18.4836C13.7835 18.5835 12.9652 18.696 12.1314 18.8106C10.8537 18.9862 9.53955 19.1668 8.47115 19.3152L6.51096 17.3547L6.51099 17.3547L6.50849 17.3523C6.40916 17.2574 6.27662 17.2053 6.13927 17.2069C6.00193 17.2086 5.87071 17.2641 5.77376 17.3614C5.6768 17.4587 5.62182 17.5901 5.62061 17.7274C5.61939 17.8648 5.67203 17.9971 5.76725 18.0961L5.76723 18.0962L5.7693 18.0982L8.01325 20.3418L6.8176 21.539L3.21737 17.9341ZM4.8366 15.7372C4.83506 15.7364 4.83352 15.7356 4.83197 15.7348C4.83512 15.7363 4.83829 15.7379 4.84146 15.7397L4.8366 15.7372Z" fill="#05A155" stroke="#05A155" stroke-width="0.3"/>
<path d="M6.7875 10.5003L6.7875 10.5002L6.7875 9.0002C6.7875 9.00019 6.7875 9.00017 6.7875 9.00016C6.78749 8.93122 6.80106 8.86295 6.82743 8.79926C6.85381 8.73555 6.89248 8.67766 6.94124 8.6289C6.99 8.58014 7.04789 8.54147 7.11159 8.51509C7.17528 8.48872 7.24353 8.47515 7.31246 8.47516L6.7875 10.5003ZM6.7875 10.5003C6.78787 10.8383 6.9223 11.1624 7.1613 11.4014C7.4003 11.6404 7.72434 11.7748 8.06234 11.7752H8.0625M6.7875 10.5003L8.0625 11.7752M8.0625 11.7752L15.9375 11.7752L15.9377 11.7752M8.0625 11.7752H15.9377M15.9377 11.7752C16.2757 11.7748 16.5997 11.6404 16.8387 11.4014C17.0777 11.1624 17.2121 10.8383 17.2125 10.5003V10.5002M15.9377 11.7752L17.2125 10.5002M17.2125 10.5002L17.2125 2.62516L17.2125 2.625M17.2125 10.5002V2.625M17.2125 2.625C17.2121 2.287 17.0777 1.96296 16.8387 1.72396C16.5997 1.48496 16.2757 1.35053 15.9377 1.35016L15.9374 1.35016M17.2125 2.625L15.9374 1.35016M15.9374 1.35016C14.6508 1.35089 13.1027 1.3506 11.5805 1.3503C10.3386 1.35007 9.11386 1.34983 8.06245 1.35016L8.06234 1.35016M15.9374 1.35016L8.06234 1.35016M8.06234 1.35016C7.72434 1.35053 7.4003 1.48496 7.1613 1.72396C6.9223 1.96296 6.78787 2.287 6.7875 2.625V2.62516M8.06234 1.35016L6.7875 2.62516M6.7875 2.62516V7.12516H6.78747M6.7875 2.62516L6.78747 7.12516M6.78747 7.12516L6.78753 7.12801M6.78747 7.12516L6.78753 7.12801M6.78753 7.12801C6.79014 7.26552 6.8466 7.39651 6.94477 7.49283L6.94477 7.49283M6.78753 7.12801L6.94477 7.49283M6.94477 7.49283C7.04294 7.58915 7.17498 7.64311 7.31252 7.6431C7.45005 7.6431 7.58209 7.58913 7.68025 7.49281C7.77842 7.39648 7.83487 7.26549 7.83747 7.12798L7.8375 7.12798M6.94477 7.49283L7.8375 7.12798M7.8375 7.12798V7.12514M7.8375 7.12798V7.12514M7.8375 7.12514V2.62521C7.83759 2.56555 7.86132 2.50836 7.90351 2.46617C7.9457 2.42399 8.00289 2.40025 8.06255 2.40016H10.1625M7.8375 7.12514L10.1625 2.40016M10.1625 2.40016V4.12516L10.1625 4.12533C10.1628 4.3639 10.2577 4.59262 10.4264 4.76131C10.595 4.93 10.8238 5.02489 11.0623 5.02516H11.0625H12.9375L12.9377 5.02516C13.1762 5.02489 13.405 4.93 13.5736 4.76131C13.7423 4.59262 13.8372 4.3639 13.8375 4.12533V4.12516V2.40016H15.9374C15.9971 2.40025 16.0543 2.42399 16.0965 2.46617L16.2026 2.36011L16.0965 2.46617C16.1387 2.50838 16.1624 2.56562 16.1625 2.62531V10.5C16.1624 10.5597 16.1387 10.6169 16.0965 10.6592C16.0543 10.7014 15.997 10.7251 15.9374 10.7252H8.06265C8.00296 10.7251 7.94572 10.7014 7.90351 10.6592C7.86132 10.617 7.83759 10.5598 7.8375 10.5001V9.0002C7.8375 9.00019 7.8375 9.00017 7.8375 9.00016C7.83751 8.93122 7.82394 8.86295 7.79757 8.79926C7.77119 8.73555 7.73252 8.67766 7.68376 8.6289L7.57769 8.73497L7.68376 8.6289C7.635 8.58014 7.57711 8.54147 7.51341 8.51509C7.44972 8.48872 7.38147 8.47515 7.31254 8.47516L10.1625 2.40016ZM12.7875 2.40016L12.7878 3.97516H11.2125V2.40016H12.7875Z" fill="#05A155" stroke="#05A155" stroke-width="0.3"/>
</svg>
