<svg width="20" height="20" viewBox="0 0 20 20" fill="red" xmlns="http://www.w3.org/2000/svg">
<path d="M7.31718 8.30779C7.37529 8.36584 7.42139 8.43477 7.45285 8.51064C7.4843 8.58652 7.50049 8.66785 7.50049 8.74998C7.50049 8.83212 7.4843 8.91345 7.45285 8.98932C7.42139 9.06519 7.37529 9.13412 7.31718 9.19217L4.81718 11.6922C4.75914 11.7503 4.69021 11.7964 4.61433 11.8278C4.53846 11.8593 4.45713 11.8755 4.375 11.8755C4.29286 11.8755 4.21153 11.8593 4.13566 11.8278C4.05979 11.7964 3.99085 11.7503 3.93281 11.6922L2.68281 10.4422C2.62474 10.3841 2.57868 10.3152 2.54725 10.2393C2.51582 10.1634 2.49965 10.0821 2.49965 9.99998C2.49965 9.83413 2.56553 9.67507 2.68281 9.55779C2.80008 9.44052 2.95914 9.37463 3.125 9.37463C3.29085 9.37463 3.44991 9.44052 3.56718 9.55779L4.375 10.3664L6.43281 8.30779C6.49085 8.24968 6.55979 8.20358 6.63566 8.17213C6.71153 8.14068 6.79286 8.12449 6.875 8.12449C6.95713 8.12449 7.03846 8.14068 7.11433 8.17213C7.19021 8.20358 7.25914 8.24968 7.31718 8.30779ZM6.43281 3.30779L4.375 5.36639L3.56718 4.55779C3.44991 4.44052 3.29085 4.37463 3.125 4.37463C2.95914 4.37463 2.80008 4.44052 2.68281 4.55779C2.56553 4.67507 2.49965 4.83413 2.49965 4.99998C2.49965 5.16583 2.56553 5.32489 2.68281 5.44217L3.93281 6.69217C3.99085 6.75028 4.05979 6.79638 4.13566 6.82783C4.21153 6.85928 4.29286 6.87547 4.375 6.87547C4.45713 6.87547 4.53846 6.85928 4.61433 6.82783C4.69021 6.79638 4.75914 6.75028 4.81718 6.69217L7.31718 4.19217C7.43446 4.07489 7.50034 3.91583 7.50034 3.74998C7.50034 3.58413 7.43446 3.42507 7.31718 3.30779C7.19991 3.19052 7.04085 3.12463 6.875 3.12463C6.70914 3.12463 6.55008 3.19052 6.43281 3.30779ZM6.43281 13.3078L4.375 15.3664L3.56718 14.5578C3.50912 14.4997 3.44018 14.4537 3.36431 14.4222C3.28844 14.3908 3.20712 14.3746 3.125 14.3746C3.04287 14.3746 2.96156 14.3908 2.88569 14.4222C2.80982 14.4537 2.74088 14.4997 2.68281 14.5578C2.62474 14.6159 2.57868 14.6848 2.54725 14.7607C2.51582 14.8365 2.49965 14.9179 2.49965 15C2.49965 15.0821 2.51582 15.1634 2.54725 15.2393C2.57868 15.3152 2.62474 15.3841 2.68281 15.4422L3.93281 16.6922C3.99085 16.7503 4.05979 16.7964 4.13566 16.8278C4.21153 16.8593 4.29286 16.8755 4.375 16.8755C4.45713 16.8755 4.53846 16.8593 4.61433 16.8278C4.69021 16.7964 4.75914 16.7503 4.81718 16.6922L7.31718 14.1922C7.43446 14.0749 7.50034 13.9158 7.50034 13.75C7.50034 13.5841 7.43446 13.4251 7.31718 13.3078C7.19991 13.1905 7.04085 13.1246 6.875 13.1246C6.70914 13.1246 6.55008 13.1905 6.43281 13.3078ZM16.875 3.74998H10C9.83424 3.74998 9.67527 3.81583 9.55805 3.93304C9.44084 4.05025 9.375 4.20922 9.375 4.37498V5.62498C9.375 5.79074 9.44084 5.94971 9.55805 6.06692C9.67527 6.18413 9.83424 6.24998 10 6.24998H16.875C17.0408 6.24998 17.1997 6.18413 17.3169 6.06692C17.4341 5.94971 17.5 5.79074 17.5 5.62498V4.37498C17.5 4.20922 17.4341 4.05025 17.3169 3.93304C17.1997 3.81583 17.0408 3.74998 16.875 3.74998ZM16.875 13.75H10C9.83424 13.75 9.67527 13.8158 9.55805 13.933C9.44084 14.0502 9.375 14.2092 9.375 14.375V15.625C9.375 15.7907 9.44084 15.9497 9.55805 16.0669C9.67527 16.1841 9.83424 16.25 10 16.25H16.875C17.0408 16.25 17.1997 16.1841 17.3169 16.0669C17.4341 15.9497 17.5 15.7907 17.5 15.625V14.375C17.5 14.2092 17.4341 14.0502 17.3169 13.933C17.1997 13.8158 17.0408 13.75 16.875 13.75ZM16.875 8.74998H10C9.83424 8.74998 9.67527 8.81583 9.55805 8.93304C9.44084 9.05025 9.375 9.20922 9.375 9.37498V10.625C9.375 10.7907 9.44084 10.9497 9.55805 11.0669C9.67527 11.1841 9.83424 11.25 10 11.25H16.875C17.0408 11.25 17.1997 11.1841 17.3169 11.0669C17.4341 10.9497 17.5 10.7907 17.5 10.625V9.37498C17.5 9.20922 17.4341 9.05025 17.3169 8.93304C17.1997 8.81583 17.0408 8.74998 16.875 8.74998Z" fill="red"/>
</svg>
