<svg width="371" height="150" viewBox="0 0 371 150" fill="none" xmlns="http://www.w3.org/2000/svg">
<g style="mix-blend-mode:multiply" opacity="0.23">
<path d="M46 97.9419C46 96.8673 37.269 96 26.5 96C15.731 96 7 96.8673 7 97.9419C7 99.0164 15.731 99.8838 26.5 99.8838H26.6468C25.8458 100.206 25.3677 100.613 25.3677 101.058C25.3677 102.125 28.1921 103 31.6769 103C35.1618 103 37.9861 102.125 37.9861 101.058C37.9861 100.498 37.2187 99.9912 35.99 99.6382C41.9616 99.3081 46 98.6711 46 97.9419Z" fill="#42323D"/>
</g>
<path d="M20.6361 68.9686C24.3989 80.6872 24.2327 88.0454 23.9607 91.2854C23.8121 93.4066 23.1255 95.4546 21.9659 97.2356C21.5428 97.8866 24.142 97.9169 25.215 98.0078C26.5265 98.1375 27.8476 98.1375 29.1592 98.0078C29.7485 97.8563 28.5094 95.3733 28.192 93.6019C28.1095 89.2924 28.4232 84.9845 29.1289 80.7326C29.7183 77.2958 34.2367 69.0443 34.2367 69.0443L33.1185 68.0148C33.1185 68.0148 30.3681 72.9657 29.3103 75.2216C28.7919 76.2471 28.3377 77.3039 27.9502 78.3859C27.9502 78.3859 27.8595 74.5705 27.8444 71.4516C27.8293 68.3327 27.6178 64.9564 27.6178 64.9564L25.0639 65.3501C25.0639 65.3501 25.2754 69.2714 25.7288 73.2382C26.0048 75.163 26.111 77.1085 26.0461 79.0521C25.0716 75.6601 23.8597 72.3412 22.4193 69.12C21.8708 68.1169 21.2495 67.1554 20.5605 66.2434L20.6361 68.9686Z" fill="#FF7B4F"/>
<path d="M26.4693 65.1685L25.0639 65.3804C25.0639 65.3804 25.2754 69.3018 25.7288 73.2685C25.8043 73.8439 25.8497 74.3586 25.895 74.7826L26.7715 74.4646L27.3911 79.4912C27.3911 79.4912 27.6026 78.5525 27.9049 77.5532C27.9049 76.2814 27.8293 73.6924 27.8142 71.4971C27.7991 69.3018 27.6933 66.8793 27.6178 65.7286L26.439 65.1836L26.4693 65.1685ZM20.5605 66.2737L20.6361 68.999C21.2255 70.8461 21.7242 72.5721 22.1473 74.1921C22.8122 74.1013 23.326 73.9801 23.326 73.9801L25.6381 80.0363C25.7841 79.9157 25.8998 79.7624 25.9759 79.5889C26.0521 79.4153 26.0865 79.2263 26.0764 79.037C26.0728 79.0925 26.0728 79.1481 26.0764 79.2035C25.0948 75.8139 23.883 72.4955 22.4495 69.2715C21.901 68.2683 21.2798 67.3069 20.5908 66.3948L20.5605 66.2737ZM32.9824 68.1965C32.6802 68.7416 31.0481 71.7242 29.9601 73.965L30.3077 74.5857C28.9715 77.6344 28.0221 80.8389 27.4818 84.1242C27.1408 87.6206 27.0096 91.1344 27.0888 94.6467C27.0727 95.4302 26.775 96.1817 26.2503 96.763C25.7256 97.3443 25.0092 97.7164 24.2327 97.811C24.0999 97.8325 23.9686 97.8628 23.8398 97.9018L25.351 98.0078C26.6625 98.1376 27.9836 98.1376 29.2952 98.0078C29.8845 97.8564 28.6454 95.3734 28.328 93.602C28.2455 89.2925 28.5592 84.9846 29.2649 80.7327C29.7939 77.5684 33.6323 70.4222 34.2518 69.2866C33.943 68.8742 33.5583 68.5247 33.1185 68.2571L32.9824 68.1965Z" fill="#FF5E35"/>
<path d="M3.62019 59.8694C3.62019 59.8694 -0.203098 59.5212 0.0084673 63.0943C-0.00391519 63.5281 0.0902646 63.9584 0.282728 64.3472C0.47519 64.736 0.760043 65.0715 1.11225 65.3242C1.46445 65.5769 1.87321 65.739 2.30261 65.7964C2.73201 65.8537 3.16889 65.8045 3.57485 65.653C3.53614 66.4215 3.76298 67.1799 4.21716 67.8004C4.67134 68.4209 5.32509 68.8656 6.0683 69.0596C6.69471 69.3506 7.39172 69.4539 8.07539 69.3572C8.75907 69.2605 9.40028 68.9679 9.92181 68.5145C9.92181 68.5145 10.5112 72.557 13.9415 73.2686C14.9711 73.4542 16.0306 73.3782 17.0232 73.0476C18.0159 72.717 18.9099 72.1423 19.6236 71.3761C19.6236 71.3761 20.4245 73.3897 22.0566 73.4806C23.6887 73.5714 24.4594 71.2246 24.4594 71.2246C24.3817 71.5264 24.3696 71.8413 24.4237 72.1482C24.4778 72.455 24.597 72.7467 24.7731 73.0035C24.9492 73.2604 25.1783 73.4764 25.4448 73.637C25.7113 73.7976 26.0091 73.8992 26.3181 73.9347C28.7058 74.3133 29.5218 71.3761 29.5218 71.3761C29.5218 71.3761 29.7636 75.6456 35.1132 75.7516C36.5987 75.8023 38.0615 75.3756 39.2878 74.5338C40.514 73.6921 41.4394 72.4795 41.9286 71.0732C42.3469 71.6823 42.9134 72.1744 43.5745 72.503C44.2356 72.8315 44.9694 72.9856 45.7066 72.9506C48.472 72.9506 48.5627 69.9226 48.5627 69.9226C49.3975 70.5112 50.4014 70.8105 51.4216 70.775C52.4418 70.7395 53.4225 70.371 54.2145 69.7257C57.5089 67.5304 56.5266 62.1556 53.3078 60.6415C50.089 59.1275 48.5022 60.0208 48.5022 60.0208C48.5087 58.8906 48.1993 57.7811 47.6091 56.8178C47.0189 55.8546 46.1714 55.0761 45.1625 54.5703C44.2996 54.0857 43.337 53.8063 42.3492 53.7538C41.3613 53.7013 40.3746 53.8771 39.4654 54.2675C39.4654 54.2675 41.2788 47.848 34.7203 47.0758C28.1618 46.3037 28.9929 52.4809 28.9929 52.4809C28.9286 51.805 28.6134 51.1779 28.1097 50.7238C27.6059 50.2696 26.9504 50.0213 26.2728 50.0282C23.6282 49.9071 24.6105 52.8292 24.6105 52.8292C24.6105 52.8292 23.4015 50.1947 17.5835 50.7701C16.8407 50.7798 16.1073 50.9374 15.4258 51.2335C14.7444 51.5297 14.1284 51.9586 13.6138 52.4953C13.0992 53.032 12.6962 53.6658 12.4282 54.3599C12.1602 55.054 12.0325 55.7946 12.0526 56.5385C12.0526 56.5385 10.8436 53.6921 6.74833 55.4181C2.65303 57.1441 3.62019 59.9602 3.62019 59.9602V59.8694Z" fill="#99B147"/>
<path d="M34.0251 47C37.2137 49.0137 36.9417 53.2984 36.307 54.7064C35.7376 55.8508 34.9034 56.8423 33.874 57.5982C34.4114 57.5404 34.9548 57.6166 35.4557 57.82C35.9566 58.0234 36.3996 58.3477 36.7452 58.764C37.7275 60.1721 35.7327 60.702 35.7327 60.702C35.7327 60.702 38.7551 59.6876 39.0725 61.7467C39.1971 62.3898 39.1712 63.0532 38.9969 63.6846C39.4275 62.9282 40.0496 62.2989 40.8005 61.8603C41.5513 61.4217 42.4044 61.1893 43.2735 61.1865C44.1408 61.1896 44.9839 61.4726 45.678 61.9934C46.3721 62.5143 46.8802 63.2454 47.127 64.0783C47.127 64.0783 49.7263 61.8526 51.2375 63.5484C52.7486 65.2441 51.4188 68.3327 49.5903 68.9081C47.8614 69.1393 46.1023 68.9418 44.4674 68.3327C43.0223 69.4888 41.5083 70.5556 39.9338 71.5273C38.0297 72.6174 33.5113 70.195 33.5113 70.195C33.5113 70.195 33.7531 71.3002 31.7886 70.5129C30.096 69.8468 28.9173 65.7891 29.5822 63.6544C28.5698 65.6832 28.9627 66.425 27.5119 67.394C26.0612 68.363 23.3562 66.7581 23.3562 66.7581C23.3562 66.7581 23.2806 69.8922 21.981 70.2253C20.6814 70.5583 19.6085 68.4538 19.6085 68.4538C19.2503 67.7999 19.1343 67.0402 19.2808 66.3089C19.4274 65.5776 19.8271 64.9216 20.4094 64.4568C20.902 64.0247 21.4785 63.6994 22.1027 63.5014C22.7268 63.3033 23.3852 63.2369 24.0362 63.3061C24.0362 63.3061 23.6282 62.6854 24.8674 61.2016C25.7414 60.3069 26.9147 59.7676 28.1617 59.6876C28.1617 59.6876 27.5573 58.1736 25.1394 59.3394C23.7438 59.9777 22.5816 61.0362 21.8148 62.3674C21.107 62.2842 20.3897 62.346 19.7065 62.549C19.0233 62.752 18.3884 63.092 17.8404 63.5484C15.3772 65.1684 14.818 69.014 14.818 69.014C14.0485 67.5938 13.0704 66.2975 11.9165 65.1684C11.1454 64.5849 10.5664 63.7833 10.2543 62.8671C9.98609 63.4979 9.5493 64.0424 8.99201 64.4404C8.43473 64.8385 7.77859 65.0747 7.09589 65.123C4.69311 65.3349 4.33043 62.2312 4.33043 62.2312C4.33043 62.2312 3.5295 65.017 0.0991211 63.7452C0.643146 66.5613 3.57484 65.6832 3.57484 65.6832C3.53612 66.4516 3.76296 67.21 4.21714 67.8305C4.67132 68.451 5.32508 68.8957 6.06828 69.0897C6.69568 69.3806 7.39393 69.4825 8.07808 69.383C8.76223 69.2836 9.40278 68.9871 9.92179 68.5295C9.92179 68.5295 10.5112 72.5871 13.9415 73.2987C14.971 73.4843 16.0306 73.4084 17.0232 73.0777C18.0158 72.7471 18.9099 72.1724 19.6236 71.4062C19.6236 71.4062 20.4245 73.4199 22.0566 73.5107C23.6886 73.6015 24.4593 71.2245 24.4593 71.2245C24.3817 71.5263 24.3695 71.8412 24.4237 72.1481C24.4778 72.4549 24.5969 72.7466 24.7731 73.0034C24.9492 73.2602 25.1783 73.4763 25.4448 73.6369C25.7113 73.7975 26.0091 73.899 26.3181 73.9346C28.7058 74.3131 29.5218 71.3759 29.5218 71.3759C29.5218 71.3759 29.7636 75.6455 35.1132 75.7515C36.5987 75.8022 38.0615 75.3754 39.2878 74.5337C40.514 73.692 41.4393 72.4794 41.9286 71.0731C42.3469 71.6822 42.9134 72.1743 43.5745 72.5028C44.2356 72.8314 44.9694 72.9854 45.7065 72.9505C48.472 72.9505 48.5627 69.9225 48.5627 69.9225C49.3975 70.5111 50.4013 70.8104 51.4216 70.7749C52.4418 70.7393 53.4225 70.3709 54.2145 69.7256C57.5089 67.5303 56.5266 62.1555 53.3078 60.6414C50.089 59.1274 48.5022 60.0207 48.5022 60.0207C48.5087 58.8904 48.1993 57.781 47.6091 56.8177C47.0189 55.8545 46.1714 55.0759 45.1625 54.5702C44.2996 54.0846 43.3361 53.806 42.3477 53.7561C41.3592 53.7062 40.3727 53.8864 39.4654 54.2825C39.4654 54.2825 41.2788 47.8479 34.7203 47.0757H34.0251V47ZM29.4916 63.6544C29.6276 63.3818 29.7787 63.079 29.9752 62.7611C29.7681 63.0227 29.6234 63.3282 29.552 63.6544H29.4916ZM38.9365 63.6544C38.7751 63.8975 38.6287 64.1503 38.4982 64.4114C38.7343 64.2129 38.9076 63.9499 38.9969 63.6544H38.9365Z" fill="#7C9045"/>
<g clip-path="url(#clip0_5090_13156)">
<g style="mix-blend-mode:multiply" opacity="0.23">
<path d="M364.162 140.023C364.162 137.903 301.236 136.192 223.622 136.192C146.008 136.192 83.082 137.903 83.082 140.023C83.082 142.142 146.008 143.853 223.622 143.853H224.68C218.907 144.489 215.461 145.291 215.461 146.169C215.461 148.274 235.817 150 260.933 150C286.049 150 306.404 148.274 306.404 146.169C306.404 145.064 300.873 144.065 292.018 143.369C335.056 142.717 364.162 141.461 364.162 140.023Z" fill="#42323D"/>
</g>
<path d="M189.56 86.9406C184.099 86.9406 178.761 88.5628 174.221 91.6023C169.681 94.6418 166.142 98.9619 164.052 104.016C161.962 109.071 161.416 114.633 162.481 119.998C163.546 125.364 166.176 130.293 170.037 134.161C173.898 138.03 178.818 140.664 184.173 141.732C189.529 142.799 195.08 142.251 200.125 140.158C205.17 138.064 209.482 134.519 212.516 129.97C215.55 125.421 217.169 120.073 217.169 114.602C217.169 107.266 214.26 100.23 209.082 95.0424C203.905 89.8549 196.882 86.9406 189.56 86.9406ZM189.56 132.846C185.976 132.831 182.478 131.753 179.506 129.747C176.533 127.742 174.221 124.899 172.86 121.578C171.499 118.257 171.151 114.606 171.859 111.087C172.567 107.568 174.3 104.337 176.839 101.804C179.378 99.2708 182.61 97.5479 186.125 96.853C189.641 96.1581 193.283 96.5223 196.592 97.8996C199.901 99.2769 202.729 101.606 204.718 104.592C206.708 107.578 207.769 111.087 207.769 114.678C207.769 117.07 207.298 119.439 206.382 121.648C205.466 123.857 204.123 125.863 202.431 127.551C200.739 129.24 198.731 130.576 196.523 131.485C194.314 132.393 191.947 132.856 189.56 132.846Z" fill="#422F2A"/>
<path d="M190.708 88.924H188.411V140.28H190.708V88.924Z" fill="#422F2A"/>
<path d="M215.189 115.753V113.451H163.93V115.753H215.189Z" fill="#422F2A"/>
<path d="M208.504 97.2571L206.879 95.6298L170.634 131.944L172.258 133.571L208.504 97.2571Z" fill="#422F2A"/>
<path d="M206.872 133.582L208.496 131.954L172.25 95.6401L170.626 97.2674L206.872 133.582Z" fill="#422F2A"/>
<path d="M213.68 105.815L212.798 103.691L165.468 123.41L166.35 125.535L213.68 105.815Z" fill="#422F2A"/>
<path d="M198.345 138.768L200.466 137.884L180.784 90.465L178.663 91.3487L198.345 138.768Z" fill="#422F2A"/>
<path d="M212.791 125.52L213.673 123.395L166.343 103.676L165.461 105.801L212.791 125.52Z" fill="#422F2A"/>
<path d="M200.457 91.3424L198.336 90.4587L178.654 137.878L180.775 138.762L200.457 91.3424Z" fill="#422F2A"/>
<path d="M194.228 119.287C196.807 116.703 196.807 112.514 194.228 109.93C191.649 107.346 187.468 107.346 184.889 109.93C182.31 112.514 182.31 116.703 184.889 119.287C187.468 121.87 191.649 121.87 194.228 119.287Z" fill="#422F2A"/>
<path d="M189.56 117.857C188.917 117.857 188.289 117.666 187.755 117.309C187.22 116.951 186.804 116.442 186.558 115.848C186.312 115.253 186.248 114.598 186.373 113.967C186.499 113.335 186.808 112.755 187.262 112.3C187.717 111.845 188.296 111.535 188.926 111.409C189.556 111.284 190.209 111.348 190.803 111.595C191.397 111.841 191.904 112.258 192.261 112.793C192.618 113.329 192.809 113.958 192.809 114.602C192.809 115.465 192.467 116.293 191.857 116.904C191.248 117.514 190.422 117.857 189.56 117.857Z" fill="#422F2A"/>
<path d="M189.56 91.8005C185.059 91.8005 180.659 93.1378 176.916 95.6433C173.173 98.1487 170.256 101.71 168.534 105.876C166.811 110.043 166.361 114.627 167.239 119.05C168.117 123.473 170.284 127.536 173.467 130.725C176.65 133.914 180.705 136.085 185.12 136.965C189.535 137.845 194.111 137.393 198.269 135.668C202.428 133.942 205.982 131.019 208.483 127.27C210.984 123.52 212.318 119.112 212.318 114.602C212.318 108.555 209.921 102.755 205.653 98.4789C201.384 94.2028 195.596 91.8005 189.56 91.8005ZM189.56 132.846C185.977 132.831 182.478 131.753 179.506 129.747C176.534 127.742 174.221 124.899 172.86 121.578C171.499 118.257 171.151 114.606 171.859 111.087C172.567 107.568 174.3 104.337 176.839 101.804C179.378 99.2707 182.61 97.5479 186.125 96.8529C189.641 96.158 193.283 96.5222 196.592 97.8995C199.902 99.2769 202.729 101.606 204.719 104.592C206.708 107.578 207.77 111.087 207.77 114.678C207.77 117.07 207.298 119.439 206.382 121.648C205.466 123.857 204.123 125.863 202.432 127.551C200.74 129.239 198.732 130.576 196.523 131.485C194.314 132.393 191.948 132.856 189.56 132.846Z" fill="#422F2A"/>
<path d="M214.463 62.1443L110.874 87.2141L119.961 124.904L223.55 99.8347L214.463 62.1443Z" fill="#422F2A"/>
<path d="M220.631 87.7246L117.042 112.794L118.099 117.18L221.688 92.1103L220.631 87.7246Z" fill="#855C54"/>
<path d="M195.333 30.7851C194.758 32.2991 193.942 33.2984 193.519 33.1318C193.096 32.9653 193.202 31.6178 193.776 30.1038C194.35 28.5897 195.166 27.5753 195.589 27.7419C196.013 27.9084 195.907 29.3165 195.333 30.7851Z" fill="#FF9E00"/>
<path d="M167.164 35.8268C166.59 37.3408 165.774 38.3552 165.351 38.1887C164.928 38.0222 165.049 36.6747 165.623 35.1606C166.197 33.6466 166.998 32.6322 167.436 32.7987C167.874 32.9653 167.708 34.3582 167.164 35.8268Z" fill="#FF9E00"/>
<path d="M164.006 37.7345C164.807 39.0972 165.139 40.3841 164.746 40.6263C164.353 40.8686 163.386 39.945 162.585 38.5975C161.784 37.25 161.437 35.948 161.845 35.7057C162.253 35.4635 163.175 36.3568 164.006 37.7345Z" fill="#FF9E00"/>
<path d="M215.93 39.6876C214.736 37.9767 210.369 37.795 210.369 37.795C204.324 30.452 199.791 35.1909 199.791 35.1909C194.305 31.7692 194.743 37.5074 194.743 37.5074C190.21 31.2847 182.442 38.764 182.442 38.764C173.375 32.1174 163.341 42.64 163.341 42.64C162.404 36.5838 156.238 39.7027 156.238 39.7027C153.428 33.904 146.929 38.8246 146.929 38.8246C134.251 26.1067 127.163 36.5687 127.163 36.5687C124.141 34.2068 121.768 36.0691 120.212 38.2341C120.212 38.2341 103.377 36.1145 106.218 46.5764C106.218 46.5764 96.8641 49.2109 102.44 53.8287C102.44 53.8287 86.6787 60.2936 94.144 68.2725C95.8597 70.15 97.8648 71.7397 100.083 72.9812C94.5218 73.7685 89.5046 75.9335 94.4915 80.2788C97.1509 82.7232 100.485 84.3063 104.057 84.8209C101.171 87.4553 99.1006 90.877 102.44 90.983C108.364 91.1496 109.513 87.425 109.513 87.425L126.136 83.428C126.136 83.428 126.287 87.637 127.314 87.4705C128.07 87.3493 128.826 85.0934 128.826 84.0336C129.687 84.8966 132.392 86.3501 133.359 84.942C134.145 83.8065 132.891 82.9435 132.059 82.5498C133.571 82.8375 137.107 82.8829 138.406 81.8534C139.706 80.8239 139.298 80.2334 139.298 80.2334L177.501 70.9826C177.501 70.9826 175.763 73.8593 178.06 73.3143C180.357 72.7692 179.722 71.0129 179.722 71.0129C179.722 71.0129 181.46 73.8593 182.246 72.527C183.032 71.1946 181.445 70.0439 181.445 70.0439L192.431 67.3792L204.521 64.4723C204.521 64.4723 220.992 60.8992 213.195 51.6484L212.469 50.8309C216.353 48.5447 218.952 44.0026 215.93 39.6876Z" fill="#FF9E00"/>
<path d="M126.075 83.64C126.054 83.6506 126.031 83.6562 126.007 83.6562C125.984 83.6562 125.96 83.6506 125.939 83.64C123.02 78.5683 120.664 73.1918 118.912 67.6064C116.328 59.2641 114.379 47.3941 120.091 38.219C120.122 38.1903 120.162 38.1743 120.204 38.1743C120.246 38.1743 120.287 38.1903 120.318 38.219C120.346 38.2499 120.362 38.2904 120.362 38.3326C120.362 38.3747 120.346 38.4153 120.318 38.4461C114.726 47.5303 116.615 59.2641 119.184 67.5458C120.93 73.1091 123.276 78.4651 126.181 83.5189C126.21 83.5497 126.226 83.5903 126.226 83.6324C126.226 83.6746 126.21 83.7152 126.181 83.746L126.075 83.64Z" fill="black"/>
<path d="M142.018 79.87C141.979 79.868 141.943 79.8537 141.913 79.8292C141.883 79.8047 141.861 79.7712 141.852 79.7337C139.887 68.5148 143.877 58.2042 147.579 51.5122C149.944 47.2031 152.821 43.197 156.148 39.5816C156.179 39.5636 156.216 39.5564 156.252 39.5613C156.288 39.5662 156.322 39.5828 156.347 39.6086C156.373 39.6344 156.39 39.6679 156.395 39.7041C156.399 39.7402 156.392 39.777 156.374 39.8087C153.063 43.4097 150.201 47.4007 147.851 51.6939C144.194 58.3253 140.295 68.5602 142.184 79.6732C142.189 79.6942 142.189 79.7159 142.184 79.7369C142.179 79.7579 142.17 79.7776 142.157 79.7948C142.144 79.812 142.128 79.8262 142.109 79.8366C142.09 79.8469 142.07 79.8532 142.048 79.8549L142.018 79.87Z" fill="black"/>
<path d="M192.401 67.5911H192.31C181.611 59.6425 182.291 38.9911 182.291 38.8245C182.291 38.8033 182.295 38.7823 182.304 38.7629C182.312 38.7434 182.325 38.726 182.34 38.7117C182.356 38.6975 182.375 38.6866 182.395 38.68C182.415 38.6733 182.436 38.671 182.457 38.6731C182.501 38.6731 182.543 38.6907 182.575 38.7219C182.606 38.7531 182.623 38.7955 182.623 38.8397C182.623 39.0516 181.943 59.5365 192.506 67.364C192.531 67.3996 192.544 67.4418 192.544 67.4852C192.544 67.5285 192.531 67.5707 192.506 67.6063C192.47 67.6098 192.434 67.6046 192.401 67.5911Z" fill="black"/>
<path d="M369.028 79.9155C366.262 76.524 364.116 64.336 364.086 63.3671C364.086 61.853 361.955 60.339 360.414 59.1429C358.286 57.7468 355.856 56.8799 353.326 56.6145C351.483 56.6145 350.863 58.4767 343.005 60.7932C335.147 63.1097 334.074 60.1725 334.074 60.1725C334.225 52.6023 330.069 48.4387 325.763 46.743C321.456 45.0473 318.675 49.0595 316.363 53.0716C314.051 57.0838 312.51 57.0838 297.579 58.4767C282.649 59.8697 262.308 56.6145 260.464 56.6145C258.621 56.6145 254.299 59.4003 248.602 61.5654C242.905 63.7304 242.905 72.6935 244.778 83.2917C246.652 93.89 256.339 94.7832 270.196 98.0233C280.148 100.576 290.455 101.446 300.692 100.597H301.402C301.402 100.597 307.447 103.277 317.557 107.213C327.667 111.15 335.147 100.506 338.381 97.9476C341.615 95.3888 341.736 93.4055 342.31 89.3933C342.337 88.6147 342.583 87.8596 343.018 87.2143C343.454 86.569 344.062 86.0596 344.773 85.7445C344.862 85.722 344.956 85.722 345.045 85.7445C350.561 87.6976 348.884 83.8671 350.893 83.3372C352.903 82.8072 357.21 83.7157 358.132 83.3372C359.054 82.9586 363.058 86.0321 366.141 85.7142C369.224 85.3963 371.808 83.2917 369.028 79.9155Z" fill="#EFEFEF"/>
<path d="M359.205 60.5812C359.27 60.5319 359.324 60.4679 359.361 60.3943C359.397 60.3207 359.416 60.2396 359.416 60.1573C359.416 60.0751 359.397 59.9939 359.361 59.9203C359.324 59.8468 359.27 59.7828 359.205 59.7334C358.59 59.3972 358.048 58.9414 357.611 58.3925C357.175 57.8437 356.852 57.2129 356.662 56.5374C356.472 55.8618 356.418 55.1549 356.505 54.4584C356.591 53.7618 356.815 53.0896 357.165 52.4812C359.809 47.4697 364.071 47.6968 363.572 47.4243C363.073 47.1518 356.651 45.668 353.885 51.164C353.179 52.6449 352.937 54.3052 353.191 55.9266C353.444 57.548 354.182 59.0545 355.306 60.2482C355.768 60.7189 356.371 61.0254 357.023 61.1211C357.675 61.2167 358.34 61.0963 358.918 60.7781L359.205 60.5812Z" fill="black"/>
<path d="M318.343 123.368C319.313 123.227 320.256 122.936 321.138 122.505C323.45 121.43 329.918 117.963 328.377 115.722C326.835 113.482 317.27 103.413 314.202 101.672C311.134 99.9309 310.832 95.3434 310.832 95.3434L329.299 94.2684C329.299 94.2684 326.533 100.749 329.299 105.23C332.064 109.712 335.343 116.949 333.923 118.19C332.502 119.432 325.445 124.973 323.904 126.517C322.362 128.062 319.295 127.592 319.295 127.592" fill="#EFEFEF"/>
<path d="M281.258 91.6492C281.258 91.6492 272.781 89.4992 270.015 100.915C267.25 112.331 268.156 120.492 271.708 123.898C275.165 127.711 278.356 131.758 281.258 136.01C281.258 136.01 284.643 137.857 285.097 139.856C285.097 139.856 280.488 140.78 278.024 139.856C278.024 139.856 260.313 116.101 259.996 115.177C259.679 114.254 261.688 100.976 257.85 98.5229C254.012 96.0701 246.395 92.0277 245.217 85.3054C244.038 78.5831 281.258 91.6492 281.258 91.6492Z" fill="#EFEFEF"/>
<path d="M234.442 107.516C234.442 107.516 236.437 105.821 238.975 99.9461C241.514 94.0717 237.132 80.0366 237.902 75.873C238.673 71.7094 246.365 65.8501 246.365 65.8501V69.0901C246.365 69.0901 239.958 73.6322 239.731 76.9177C239.504 80.2031 246.018 98.7803 234.442 107.516Z" fill="#EFEFEF"/>
<path d="M361.215 77.3416C361.117 77.3396 361.022 77.3079 360.943 77.2507C354.564 72.4836 348.852 66.8824 343.957 60.5964C343.919 60.5482 343.891 60.4928 343.875 60.4335C343.859 60.3742 343.855 60.3123 343.863 60.2514C343.872 60.1906 343.892 60.132 343.924 60.0794C343.956 60.0268 343.998 59.9812 344.048 59.9453C344.096 59.9072 344.151 59.8792 344.21 59.863C344.269 59.8469 344.331 59.8429 344.392 59.8514C344.453 59.8599 344.511 59.8807 344.564 59.9124C344.616 59.9442 344.662 59.9863 344.697 60.0362C349.554 66.214 355.199 71.7267 361.487 76.4332C361.586 76.5059 361.653 76.615 361.673 76.7369C361.693 76.8588 361.664 76.9835 361.592 77.0842C361.559 77.1577 361.506 77.2207 361.44 77.2661C361.373 77.3115 361.295 77.3376 361.215 77.3416Z" fill="#BF9779"/>
<path d="M369.103 84.5938C369.103 84.5938 368.136 84.5938 367.955 84.0033C367.773 83.4128 368.121 79.8397 368.756 80.7027C370.07 82.5347 370.161 82.0502 370.161 82.0502C370.27 82.5317 370.227 83.0354 370.037 83.4912C369.848 83.9471 369.521 84.3324 369.103 84.5938Z" fill="black"/>
<path d="M319.597 97.9778C319.597 97.9778 319.446 114.011 319.597 116.646C319.748 119.28 319.295 131.15 320.987 133.149C322.68 135.147 324.01 135.465 325.294 139.008C325.294 139.008 321.924 139.175 319.536 139.008C319.536 139.008 316.831 136.692 316.68 134.466C316.529 132.24 316.68 125.669 315.592 122.581C314.504 119.492 313.749 117.645 313.431 116.721C313.114 115.798 310.832 96.5092 310.832 96.5092L319.597 97.9778Z" fill="#EFEFEF"/>
<path d="M259.074 88.8634C259.074 88.8634 254.903 114.011 255.054 116.6C255.206 119.189 254.752 131.105 256.445 133.103C258.137 135.102 259.467 135.42 260.752 138.963C260.752 138.963 257.382 139.129 254.979 138.963C254.979 138.963 252.289 136.646 252.123 134.421C251.956 132.195 252.123 125.624 251.05 122.535C249.977 119.447 249.206 117.6 248.889 116.676C248.571 115.753 244.219 79.6732 244.219 79.6732L259.074 88.8634Z" fill="#EFEFEF"/>
<path d="M358.736 83.4734H358.631C358.268 83.1858 349.79 76.5846 349.095 75.4188C348.4 74.253 349.095 69.9229 349.095 69.7412C349.097 69.7178 349.103 69.6951 349.115 69.6744C349.126 69.6538 349.141 69.6357 349.16 69.6215C349.178 69.6072 349.199 69.597 349.222 69.5915C349.245 69.586 349.269 69.5854 349.292 69.5898C349.337 69.5972 349.378 69.6217 349.406 69.6583C349.434 69.6948 349.447 69.7407 349.443 69.7866C349.246 70.9978 348.884 74.3287 349.443 75.2371C352.431 78.0776 355.59 80.7322 358.903 83.1858C358.92 83.2027 358.933 83.2227 358.942 83.2448C358.951 83.2669 358.956 83.2906 358.956 83.3145C358.956 83.3384 358.951 83.3621 358.942 83.3842C358.933 83.4062 358.92 83.4263 358.903 83.4432C358.879 83.4603 358.852 83.4719 358.823 83.4771C358.794 83.4824 358.765 83.4811 358.736 83.4734Z" fill="black"/>
<path d="M237.585 103.489C237.585 103.489 239.187 107.123 236.074 112.119C234.411 114.486 233.254 117.171 232.674 120.007L233.021 113.603C233.021 113.603 232.266 116.192 231.903 117.297C231.416 115.773 231.253 114.164 231.424 112.573C231.596 110.982 232.099 109.445 232.9 108.061C235.711 103.655 237.585 103.489 237.585 103.489Z" fill="black"/>
<path d="M352.994 63.897C352.994 63.897 343.791 72.527 345 72.8146C346.209 73.1023 350.621 70.4376 351.181 69.62C351.913 67.7556 352.519 65.8435 352.994 63.897Z" fill="#D49985"/>
<path d="M344.939 72.3755C345.151 70.6646 352.692 58.9915 352.692 58.9915L352.767 64.1089L344.939 72.3755Z" fill="#EFEFEF"/>
<path d="M344.939 72.5572C344.894 72.5497 344.853 72.5252 344.825 72.4887C344.797 72.4521 344.784 72.4063 344.788 72.3604C345.015 70.6192 352.344 59.3851 352.571 58.9006C352.582 58.8778 352.598 58.8576 352.618 58.8415C352.638 58.8253 352.661 58.8135 352.685 58.8068C352.71 58.8002 352.736 58.7988 352.761 58.8027C352.786 58.8067 352.81 58.816 352.832 58.8299C352.853 58.8438 352.871 58.8621 352.885 58.8836C352.899 58.905 352.908 58.9292 352.912 58.9544C352.916 58.9796 352.914 59.0054 352.908 59.0301C352.901 59.0547 352.889 59.0777 352.873 59.0974C350.274 63.1096 345.317 71.0734 345.136 72.4058C345.128 72.4513 345.104 72.4922 345.067 72.5204C345.031 72.5485 344.985 72.5616 344.939 72.5572Z" fill="black"/>
<path d="M270.891 98.3109C270.891 98.3109 264.56 96.706 256.777 94.4349C256.756 94.4281 256.737 94.4172 256.72 94.4028C256.703 94.3884 256.69 94.3708 256.68 94.3511C256.67 94.3314 256.664 94.3099 256.663 94.2879C256.661 94.2659 256.664 94.2439 256.671 94.223C256.676 94.2007 256.686 94.1797 256.7 94.1613C256.713 94.1429 256.731 94.1275 256.751 94.1162C256.77 94.1048 256.792 94.0977 256.815 94.0952C256.838 94.0927 256.861 94.095 256.883 94.1019C264.65 96.3729 270.922 97.9475 270.982 97.9626C271.004 97.9678 271.025 97.9776 271.044 97.9913C271.062 98.005 271.077 98.0223 271.089 98.0422C271.1 98.0621 271.107 98.0841 271.11 98.1069C271.112 98.1297 271.11 98.1527 271.103 98.1746C271.1 98.1983 271.091 98.2209 271.078 98.2411C271.065 98.2612 271.048 98.2783 271.028 98.2912C271.008 98.3041 270.986 98.3126 270.962 98.316C270.938 98.3194 270.914 98.3176 270.891 98.3109Z" fill="black"/>
<path d="M329.299 105.397C329.277 105.395 329.255 105.388 329.236 105.378C329.216 105.368 329.199 105.354 329.185 105.337C329.171 105.32 329.161 105.301 329.154 105.28C329.148 105.259 329.145 105.237 329.147 105.215C329.297 102.802 329.14 100.381 328.679 98.0081C328.419 95.6014 328.666 93.1669 329.404 90.8618C329.913 89.09 330.222 87.267 330.326 85.4265C330.326 85.3808 330.343 85.3367 330.374 85.303C330.405 85.2694 330.447 85.2486 330.492 85.2448C330.54 85.2448 330.587 85.2639 330.621 85.298C330.655 85.3321 330.674 85.3783 330.674 85.4265C330.575 87.2935 330.26 89.1429 329.737 90.9375C329.004 93.1864 328.737 95.5613 328.951 97.9172C329.42 100.325 329.578 102.782 329.419 105.23C329.418 105.267 329.406 105.302 329.385 105.332C329.363 105.362 329.333 105.384 329.299 105.397Z" fill="black"/>
<path d="M321.138 108.182C318.143 107.731 315.227 106.855 312.479 105.578C312.445 105.556 312.419 105.523 312.405 105.484C312.392 105.445 312.393 105.402 312.407 105.363C312.421 105.325 312.448 105.292 312.483 105.27C312.518 105.249 312.559 105.24 312.6 105.245C315.264 106.458 318.073 107.323 320.957 107.819C319.824 106.744 315.985 103.035 315.139 102.49L314.716 102.232C313.643 101.687 312.716 100.892 312.012 99.9153C311.307 98.9383 310.846 97.8069 310.666 96.6153C310.66 96.5696 310.671 96.5233 310.695 96.4846C310.72 96.4459 310.758 96.4171 310.802 96.4033C310.826 96.399 310.85 96.3995 310.874 96.4048C310.897 96.4101 310.92 96.4201 310.939 96.4342C310.959 96.4483 310.976 96.4663 310.989 96.487C311.001 96.5077 311.01 96.5307 311.013 96.5547C311.182 97.6972 311.624 98.7821 312.3 99.7177C312.976 100.653 313.867 101.412 314.897 101.93L315.32 102.187C316.348 102.853 321.289 107.668 321.501 107.865C321.518 107.894 321.527 107.928 321.527 107.963C321.527 107.997 321.518 108.031 321.501 108.061C321.491 108.093 321.471 108.121 321.443 108.14C321.416 108.159 321.383 108.169 321.35 108.167L321.138 108.182Z" fill="black"/>
<path d="M321.849 134.118C320.096 135.965 316.801 135.359 316.801 135.359C317.413 136.762 318.333 138.009 319.491 139.008C321.879 139.175 325.249 139.008 325.249 139.008C324.628 137.075 323.444 135.371 321.849 134.118Z" fill="black"/>
<path d="M281.258 135.935C279.368 136.472 277.386 136.606 275.44 136.328L278.024 139.78C280.488 140.704 285.097 139.78 285.097 139.78C284.643 137.797 281.258 135.935 281.258 135.935Z" fill="black"/>
<path d="M257.079 133.845C256.294 134.194 255.445 134.374 254.586 134.374C253.727 134.374 252.878 134.194 252.093 133.845C252.093 134.103 252.093 134.345 252.093 134.542C252.259 136.707 254.949 139.084 254.949 139.084C257.351 139.25 260.721 139.084 260.721 139.084C260.055 137.013 258.787 135.189 257.079 133.845Z" fill="black"/>
<path d="M319.672 123.065C318.905 123.331 318.096 123.454 317.285 123.429C315.547 125.952 313.987 128.592 312.615 131.332C313.926 131.371 315.223 131.067 316.381 130.451C317.539 129.836 318.517 128.929 319.219 127.819L319.295 127.592C319.295 127.592 318.539 124.655 319.672 123.065Z" fill="black"/>
<path d="M358.736 83.7762C358.624 83.7736 358.517 83.7309 358.434 83.6559C358.351 83.5809 358.297 83.4786 358.283 83.3675C357.815 80.2334 359.794 76.9631 361.033 76.4483C364.056 75.1311 367.864 77.2659 368.03 77.3567C368.138 77.421 368.217 77.5257 368.248 77.6478C368.279 77.7699 368.26 77.8993 368.196 78.0078C368.132 78.1162 368.028 78.1946 367.906 78.2259C367.784 78.2571 367.655 78.2386 367.547 78.1743C367.547 78.1743 364.071 76.1758 361.396 77.3113C360.59 78.0546 359.971 78.9786 359.591 80.0075C359.21 81.0365 359.078 82.1412 359.205 83.2312C359.216 83.292 359.214 83.3544 359.2 83.4146C359.185 83.4747 359.159 83.5313 359.122 83.5809C359.085 83.6305 359.039 83.6721 358.986 83.7031C358.932 83.7341 358.873 83.7538 358.812 83.7611L358.736 83.7762Z" fill="#BF9779"/>
<path d="M361.275 66.9099C361.441 67.4701 361.849 67.8486 362.212 67.7426C362.575 67.6366 362.726 67.1067 362.575 66.5314C362.424 65.9561 362 65.6078 361.638 65.6987C361.275 65.7895 361.139 66.3497 361.275 66.9099Z" fill="black"/>
<path d="M281.455 101.157C281.455 101.157 278.976 91.5583 281.878 76.4785" stroke="#422F2A" stroke-width="4.88282" stroke-miterlimit="10" stroke-linecap="round"/>
<path d="M182.956 89.2268C177.495 89.2268 172.157 90.8491 167.617 93.8886C163.077 96.9281 159.538 101.248 157.448 106.303C155.359 111.357 154.812 116.919 155.877 122.285C156.943 127.65 159.572 132.579 163.433 136.448C167.294 140.316 172.214 142.951 177.57 144.018C182.925 145.085 188.477 144.538 193.522 142.444C198.566 140.35 202.878 136.805 205.912 132.256C208.946 127.707 210.565 122.359 210.565 116.888C210.565 109.552 207.656 102.516 202.479 97.3286C197.301 92.1411 190.278 89.2268 182.956 89.2268ZM182.956 135.132C179.355 135.129 175.836 134.057 172.843 132.05C169.851 130.044 167.519 127.193 166.143 123.859C164.767 120.525 164.409 116.858 165.113 113.32C165.817 109.782 167.553 106.532 170.1 103.982C172.647 101.432 175.892 99.6963 179.424 98.9935C182.956 98.2908 186.617 98.653 189.943 100.034C193.27 101.416 196.113 103.754 198.113 106.754C200.113 109.754 201.181 113.28 201.181 116.888C201.181 119.285 200.709 121.659 199.793 123.873C198.877 126.088 197.534 128.1 195.842 129.794C194.149 131.488 192.14 132.832 189.929 133.748C187.718 134.664 185.349 135.134 182.956 135.132Z" fill="#855C54"/>
<path d="M184.12 91.2101H181.823V142.566H184.12V91.2101Z" fill="#855C54"/>
<path d="M208.601 118.039V115.737H157.341V118.039H208.601Z" fill="#855C54"/>
<path d="M201.903 99.5398L200.279 97.9125L164.033 134.227L165.658 135.854L201.903 99.5398Z" fill="#855C54"/>
<path d="M200.287 135.856L201.911 134.229L165.665 97.9146L164.041 99.5419L200.287 135.856Z" fill="#855C54"/>
<path d="M207.073 108.094L206.191 105.969L158.861 125.688L159.743 127.813L207.073 108.094Z" fill="#855C54"/>
<path d="M191.749 141.036L193.87 140.152L174.187 92.7327L172.067 93.6164L191.749 141.036Z" fill="#855C54"/>
<path d="M206.192 127.799L207.074 125.674L159.744 105.955L158.862 108.08L206.192 127.799Z" fill="#855C54"/>
<path d="M193.861 93.623L191.74 92.7394L172.058 140.159L174.179 141.042L193.861 93.623Z" fill="#855C54"/>
<path d="M188.573 120.389C190.491 117.281 189.53 113.204 186.428 111.282C183.325 109.361 179.256 110.324 177.338 113.432C175.421 116.54 176.381 120.617 179.484 122.538C182.586 124.46 186.656 123.497 188.573 120.389Z" fill="#422F2A"/>
<path d="M182.956 120.143C182.313 120.143 181.685 119.952 181.151 119.595C180.617 119.237 180.2 118.729 179.954 118.134C179.708 117.539 179.644 116.884 179.769 116.253C179.895 115.622 180.204 115.042 180.659 114.586C181.113 114.131 181.692 113.821 182.322 113.695C182.952 113.57 183.606 113.634 184.199 113.881C184.793 114.127 185.301 114.544 185.658 115.08C186.015 115.615 186.205 116.244 186.205 116.888C186.205 117.316 186.121 117.739 185.958 118.134C185.795 118.529 185.555 118.888 185.253 119.19C184.952 119.492 184.594 119.732 184.199 119.895C183.805 120.059 183.383 120.143 182.956 120.143Z" fill="#855C54"/>
<path d="M182.956 94.0868C178.455 94.0898 174.057 95.4296 170.316 97.9369C166.576 100.444 163.661 104.006 161.941 108.173C160.22 112.34 159.772 116.924 160.652 121.346C161.532 125.768 163.7 129.829 166.884 133.016C170.067 136.204 174.122 138.374 178.537 139.252C182.951 140.131 187.526 139.679 191.684 137.952C195.841 136.226 199.395 133.304 201.895 129.554C204.395 125.805 205.729 121.397 205.729 116.888C205.729 113.893 205.14 110.926 203.996 108.159C202.851 105.392 201.173 102.877 199.058 100.76C196.943 98.6423 194.433 96.9631 191.67 95.8181C188.907 94.6731 185.946 94.0848 182.956 94.0868ZM182.956 135.132C179.355 135.129 175.836 134.057 172.843 132.05C169.851 130.044 167.519 127.193 166.143 123.859C164.767 120.525 164.409 116.858 165.113 113.32C165.817 109.782 167.553 106.532 170.1 103.982C172.647 101.432 175.892 99.6962 179.424 98.9935C182.956 98.2907 186.617 98.6529 189.943 100.034C193.27 101.416 196.113 103.754 198.113 106.754C200.113 109.754 201.181 113.28 201.181 116.888C201.181 119.285 200.709 121.659 199.793 123.873C198.877 126.088 197.534 128.1 195.842 129.794C194.149 131.488 192.14 132.832 189.929 133.748C187.718 134.664 185.349 135.134 182.956 135.132Z" fill="#422F2A"/>
<path d="M228.986 62.0953C228.911 62.1089 228.835 62.1089 228.76 62.0953C228.652 62.0347 228.572 61.9339 228.538 61.8148C228.504 61.6957 228.519 61.5679 228.578 61.4594C230.401 58.5069 232.777 55.9362 235.575 53.8892C242.138 49.0567 250.331 46.9964 258.394 48.1511C265.983 49.277 273.497 50.8595 280.895 52.89C298.395 57.2807 320.186 62.7312 344.274 59.9756C344.335 59.9672 344.397 59.9712 344.456 59.9874C344.515 60.0036 344.571 60.0316 344.619 60.0698C344.667 60.1081 344.706 60.1557 344.736 60.2097C344.765 60.2638 344.783 60.3232 344.788 60.3844C344.797 60.4462 344.793 60.5089 344.777 60.5691C344.761 60.6293 344.733 60.6857 344.695 60.7351C344.657 60.7844 344.61 60.8256 344.556 60.8564C344.501 60.8872 344.442 60.9069 344.38 60.9143C339.914 61.4135 335.424 61.6612 330.931 61.6562C312.026 61.6562 294.934 57.3866 280.669 53.8135C273.313 51.777 265.839 50.1994 258.288 49.0898C250.493 47.9307 242.554 49.8823 236.18 54.5251C233.48 56.5209 231.179 59.0066 229.394 61.853C229.357 61.9284 229.298 61.9913 229.226 62.0342C229.154 62.0772 229.07 62.0984 228.986 62.0953Z" fill="#BF9779"/>
<path d="M344.335 60.3844L198.566 95.3586" stroke="#422F2A" stroke-width="4.88282" stroke-miterlimit="10" stroke-linecap="round"/>
<path d="M227.173 91.5886L228.684 97.9778L228.17 101.854C228.135 102.122 228.162 102.395 228.25 102.65C228.337 102.906 228.482 103.139 228.674 103.329C228.865 103.52 229.098 103.663 229.354 103.749C229.61 103.834 229.883 103.859 230.15 103.822L239.565 102.58L241.741 101.884C241.917 101.825 242.079 101.731 242.218 101.607C242.357 101.483 242.469 101.333 242.548 101.164C242.627 100.996 242.671 100.813 242.678 100.627C242.685 100.441 242.654 100.256 242.587 100.082C242.544 99.9654 242.461 99.8671 242.354 99.8038C242.247 99.7404 242.121 99.7158 241.998 99.7341L240.759 99.9006C240.099 99.9801 239.43 99.897 238.809 99.6584L233.792 97.7204L232.855 91.3009L227.173 91.5886Z" fill="#DA6A5A"/>
<path d="M235.5 91.952L226.1 93.1481L220.781 70.1045C212.545 67.682 204.868 65.2596 201.135 61.3382C192.643 52.254 205.926 45.5317 205.926 45.5317L219.874 52.5417C219.874 52.5417 229.682 56.8113 232.9 61.7925C233.836 63.3332 234.417 65.0639 234.6 66.8582C234.783 68.6524 234.564 70.465 233.958 72.1636C233.958 72.1636 237.132 74.6314 235.243 80.1122C236.089 83.7459 236.346 85.8807 234.986 87.9246C235.458 89.2111 235.634 90.5879 235.5 91.952Z" fill="white"/>
<path d="M220.781 70.1045C224.192 71.0449 227.745 71.3578 231.268 71.0281C231.268 71.0281 225.224 73.0872 221.31 72.3907L220.781 70.1045Z" fill="#E5D3C9"/>
<path d="M227.823 66.0166C219.632 66.0166 207.422 63.4882 202.269 60.3088C202.234 60.2721 202.214 60.2233 202.214 60.1725C202.214 60.1217 202.234 60.0729 202.269 60.0362C202.286 60.0193 202.306 60.0058 202.328 59.9967C202.35 59.9875 202.373 59.9828 202.397 59.9828C202.421 59.9828 202.445 59.9875 202.467 59.9967C202.489 60.0058 202.509 60.0193 202.526 60.0362C208.918 63.9878 226.327 66.9251 233.052 65.1839C233.075 65.1745 233.101 65.1706 233.126 65.1727C233.152 65.1747 233.177 65.1827 233.199 65.1959C233.22 65.209 233.239 65.2271 233.253 65.2487C233.267 65.2703 233.275 65.2947 233.278 65.3202C233.292 65.3704 233.286 65.4241 233.26 65.4695C233.235 65.5149 233.192 65.5483 233.142 65.5624C231.395 65.9335 229.608 66.0861 227.823 66.0166Z" fill="black"/>
<path d="M233.127 79.8246C226.735 79.8246 222.549 73.7685 222.549 73.6625C222.521 73.6183 222.511 73.5648 222.523 73.5137C222.534 73.4626 222.565 73.4181 222.609 73.39C222.653 73.3619 222.707 73.3525 222.758 73.3638C222.809 73.3752 222.853 73.4064 222.881 73.4506C222.881 73.4506 227.324 79.9912 234.004 79.4007C234.055 79.4002 234.105 79.4183 234.143 79.4517C234.182 79.4851 234.208 79.5316 234.215 79.5824C234.217 79.6083 234.214 79.6343 234.206 79.6589C234.198 79.6836 234.185 79.7065 234.169 79.7262C234.152 79.7459 234.131 79.762 234.108 79.7737C234.085 79.7854 234.06 79.7924 234.034 79.7944C233.732 79.8201 233.43 79.8302 233.127 79.8246Z" fill="black"/>
<path d="M231.178 75.1159C225.556 75.1159 222.987 72.3301 222.881 72.209C222.862 72.1905 222.846 72.1683 222.835 72.1435C222.825 72.1188 222.819 72.0921 222.819 72.0651C222.819 72.0382 222.825 72.0115 222.835 71.9867C222.846 71.962 222.862 71.9397 222.881 71.9213C222.92 71.8893 222.968 71.8717 223.017 71.8717C223.067 71.8717 223.115 71.8893 223.153 71.9213C223.153 71.9213 226.176 75.2067 232.674 74.6465C232.7 74.6445 232.726 74.6476 232.75 74.6556C232.775 74.6636 232.798 74.6764 232.817 74.6933C232.837 74.7102 232.853 74.7308 232.865 74.754C232.877 74.7771 232.884 74.8024 232.885 74.8282C232.886 74.8796 232.868 74.9294 232.835 74.9684C232.801 75.0073 232.755 75.0329 232.704 75.0402C232.236 75.1008 231.722 75.1159 231.178 75.1159Z" fill="black"/>
<path d="M222.216 5.24334C224.12 4.47119 223.924 1.82163 222.609 0.701245C221.914 0.204857 221.054 -0.00298067 220.209 0.121169C219.364 0.245319 218.6 0.69185 218.076 1.36742C217.365 1.08958 216.579 1.07745 215.86 1.33324C215.141 1.58904 214.538 2.09565 214.162 2.76033C213.824 2.6613 213.469 2.63463 213.12 2.68205C212.771 2.72946 212.436 2.84991 212.137 3.03556C211.838 3.22121 211.581 3.46789 211.383 3.75957C211.185 4.05126 211.051 4.38142 210.988 4.72858C209.976 4.97082 209.477 6.34859 209.9 7.46897C210.323 8.58936 211.411 9.52806 212.137 9.33124L214.313 12.3593L219.088 11.8294L222.216 5.24334Z" fill="black"/>
<path d="M216.293 11.3146C215.776 11.9172 215.065 12.3191 214.283 12.4501L212.771 15.8113L217.804 18.7485L220.358 13.7976L216.293 11.3146Z" fill="#DA6A5A"/>
<path d="M216.837 12.1322C216.816 12.9896 216.984 13.8409 217.329 14.6259C217.674 15.4109 218.187 16.1102 218.831 16.6743L220.343 13.8582L216.837 12.1322Z" fill="#C03838"/>
<path d="M216.293 11.3146C215.524 11.2214 214.821 10.8366 214.328 10.2396C214.119 10.0536 213.983 9.8003 213.941 9.52369C213.9 9.24708 213.956 8.96467 214.101 8.72557C214.262 8.44926 214.526 8.24799 214.835 8.16572C215.143 8.08346 215.472 8.12688 215.748 8.2865L216.247 8.57417L216.837 11.1632C216.944 11.1639 217.051 11.14 217.148 11.0933C217.245 11.0466 217.331 10.9784 217.398 10.8938C217.465 10.8091 217.512 10.7104 217.535 10.6049C217.558 10.4994 217.557 10.39 217.532 10.285L217.245 8.93754C217.176 8.6415 217.179 8.33348 217.253 8.03873C217.326 7.74398 217.468 7.47087 217.668 7.24182C217.884 7.01966 218.042 6.74676 218.126 6.44795C218.211 6.14915 218.219 5.83392 218.151 5.53096C219.98 5.19788 220.63 5.87919 222.216 5.19788L222.851 7.13584C222.938 7.3751 223.083 7.5886 223.274 7.75659L224.785 8.93754C224.832 8.97631 224.866 9.02694 224.886 9.08402C224.906 9.14109 224.91 9.20246 224.897 9.26156C224.885 9.32066 224.857 9.37527 224.816 9.41953C224.775 9.4638 224.722 9.49606 224.664 9.51287L223.758 9.75512L223.984 12.5409C224.007 12.8237 223.972 13.1082 223.88 13.3766C223.788 13.6449 223.641 13.8913 223.45 14.1003C223.258 14.3092 223.026 14.4763 222.766 14.591C222.507 14.7056 222.228 14.7654 221.944 14.7666H221.582C220.689 14.7732 219.809 14.5599 219.019 14.1454C218.228 13.7309 217.551 13.1279 217.048 12.3895L216.293 11.3146Z" fill="#DA6A5A"/>
<path opacity="0.45" d="M218.922 10.7393C218.919 11.0131 218.998 11.2815 219.148 11.5104C219.298 11.7393 219.512 11.9182 219.764 12.0243C220.016 12.1305 220.294 12.1591 220.562 12.1064C220.83 12.0537 221.076 11.9222 221.27 11.7286C221.463 11.535 221.594 11.2881 221.647 11.0195C221.699 10.7508 221.671 10.4725 221.565 10.2202C221.459 9.96779 221.28 9.75278 221.052 9.60255C220.823 9.45232 220.556 9.37368 220.282 9.37667C219.922 9.37667 219.576 9.52023 219.321 9.77577C219.065 10.0313 218.922 10.3779 218.922 10.7393Z" fill="#CB2323"/>
<path d="M221.098 11.2087C221.098 10.2851 222.005 9.69462 222.609 9.52807C222.7 9.48774 222.801 9.47628 222.898 9.49523C222.995 9.51419 223.084 9.56265 223.153 9.63406C223.238 9.70566 223.338 9.75769 223.445 9.78647C223.552 9.81526 223.664 9.82008 223.773 9.8006C224.241 9.67948 224.362 10.4214 223.773 10.4971C223.184 10.5728 221.098 11.2087 221.098 11.2087Z" fill="black"/>
<path d="M221.415 8.37733C221.707 8.37733 221.944 8.14008 221.944 7.84741C221.944 7.55475 221.707 7.3175 221.415 7.3175C221.123 7.3175 220.886 7.55475 220.886 7.84741C220.886 8.14008 221.123 8.37733 221.415 8.37733Z" fill="black"/>
<path d="M216.066 9.83083H215.975L215.235 9.33119C215.182 9.30184 215.12 9.29333 215.061 9.30734C215.003 9.32135 214.951 9.35686 214.917 9.40689L214.751 9.61885C214.736 9.63535 214.717 9.6485 214.696 9.65748C214.675 9.66646 214.653 9.6711 214.63 9.6711C214.608 9.6711 214.585 9.66646 214.564 9.65748C214.544 9.6485 214.525 9.63535 214.509 9.61885C214.48 9.58554 214.463 9.54243 214.463 9.49774C214.463 9.45305 214.48 9.40992 214.509 9.37661L214.555 9.10409C214.64 8.98193 214.769 8.89684 214.915 8.86594C215.061 8.83503 215.213 8.86062 215.34 8.93754L216.096 9.45232C216.126 9.48563 216.142 9.52874 216.142 9.57343C216.142 9.61812 216.126 9.66125 216.096 9.69456C216.102 9.74209 216.091 9.79013 216.066 9.83083Z" fill="black"/>
<path d="M220.312 7.27212L220.01 6.89361C220.562 6.5262 221.224 6.36047 221.884 6.42426V6.90875C221.334 6.84732 220.78 6.97548 220.312 7.27212Z" fill="black"/>
<path d="M219.406 20.6108L220.161 17.9158L211.91 13.7673L210.731 15.6296C206.999 17.4313 201.151 27.1817 198.808 38.7791C196.466 50.3766 196.179 53.9195 196.179 53.9195L195.015 58.8249C195.015 58.8249 201.498 60.7023 205.593 57.0989C208.305 54.9092 210.308 51.9643 211.351 48.6355L221.219 53.1776C220.619 50.8557 219.352 48.7609 217.577 47.1517L218.272 42.4431L222.473 44.9413L227.793 37.3711L225.722 36.1902C225.656 35.8441 225.499 35.5217 225.268 35.2558C225.037 34.9899 224.741 34.7899 224.408 34.6761C224.408 34.6761 220.887 26.8637 220.297 24.9257C219.902 23.5095 219.604 22.0678 219.406 20.6108Z" fill="#CB2323"/>
<path d="M227.778 37.3409L222.458 44.9111L220.947 43.9875C221.824 42.9428 227.294 37.0078 227.294 37.0078L227.778 37.3409Z" fill="black"/>
<path d="M213.497 43.5938H213.406C208.374 40.49 205.85 31.9054 205.669 31.4815C205.662 31.4586 205.66 31.4346 205.662 31.4108C205.664 31.387 205.671 31.3639 205.682 31.3428C205.694 31.3217 205.709 31.3031 205.727 31.2879C205.746 31.2727 205.767 31.2613 205.79 31.2544C205.834 31.2447 205.88 31.2517 205.919 31.2741C205.958 31.2965 205.988 31.3326 206.002 31.3755C206.002 31.4664 208.661 40.2023 213.557 43.2304C213.584 43.265 213.599 43.3076 213.599 43.3515C213.599 43.3954 213.584 43.4381 213.557 43.4726C213.556 43.496 213.55 43.5188 213.54 43.5396C213.53 43.5605 213.515 43.579 213.497 43.5938Z" fill="black"/>
<path d="M218.257 42.4129C217.489 41.8846 216.865 41.1713 216.444 40.3386L210.883 29.4982C210.883 29.4982 211.487 35.1001 213.074 36.8261C212.938 40.9594 214.887 44.6233 217.743 45.9103L218.257 42.4129Z" fill="black"/>
<path d="M220.6 40.278C220.556 40.2957 220.507 40.2957 220.464 40.278C220.447 40.2624 220.434 40.2436 220.425 40.2228C220.416 40.202 220.411 40.1796 220.411 40.1569C220.411 40.1342 220.416 40.1117 220.425 40.0909C220.434 40.0701 220.447 40.0513 220.464 40.0358L224.997 36.4475C225.015 36.4336 225.035 36.4233 225.057 36.4173C225.079 36.4113 225.102 36.4097 225.124 36.4125C225.147 36.4153 225.168 36.4225 225.188 36.4337C225.208 36.4449 225.225 36.4599 225.239 36.4778C225.253 36.4957 225.263 36.5161 225.269 36.538C225.275 36.5598 225.277 36.5827 225.274 36.6052C225.271 36.6277 225.264 36.6494 225.253 36.6691C225.241 36.6888 225.226 36.7061 225.209 36.72L220.675 40.3083C220.647 40.3061 220.621 40.2956 220.6 40.278Z" fill="black"/>
<path d="M217.577 37.4771C217.54 37.4785 217.503 37.4673 217.473 37.4453C217.443 37.4234 217.421 37.3919 217.411 37.356C217.396 37.3117 217.399 37.2635 217.418 37.2212C217.438 37.1789 217.473 37.1458 217.517 37.1288L223.818 34.9486C223.841 34.9416 223.865 34.9392 223.889 34.9415C223.913 34.9438 223.936 34.9508 223.957 34.962C223.978 34.9733 223.996 34.9886 224.012 35.0071C224.027 35.0256 224.038 35.0469 224.045 35.0698C224.06 35.114 224.057 35.1622 224.037 35.2045C224.018 35.2468 223.982 35.2799 223.939 35.2969L217.622 37.4619L217.577 37.4771Z" fill="black"/>
<path d="M217.577 20.2322C217.285 20.2335 217 20.1435 216.761 19.9749L211.321 16.0838C211.304 16.0682 211.291 16.0495 211.282 16.0286C211.273 16.0078 211.269 15.9854 211.269 15.9627C211.269 15.94 211.273 15.9175 211.282 15.8967C211.291 15.8759 211.304 15.8571 211.321 15.8416C211.354 15.8118 211.397 15.7953 211.442 15.7953C211.486 15.7953 211.529 15.8118 211.563 15.8416L216.943 19.7023C217.056 19.7891 217.187 19.8518 217.325 19.8866C217.464 19.9215 217.609 19.9278 217.75 19.9052C217.891 19.8825 218.026 19.8314 218.147 19.7549C218.268 19.6784 218.373 19.5781 218.454 19.4601L219.3 18.2791C219.336 18.2482 219.381 18.2312 219.428 18.2312C219.476 18.2312 219.521 18.2482 219.557 18.2791C219.574 18.296 219.587 18.3161 219.596 18.3382C219.605 18.3603 219.61 18.3839 219.61 18.4078C219.61 18.4317 219.605 18.4554 219.596 18.4775C219.587 18.4996 219.574 18.5197 219.557 18.5365L218.711 19.7023C218.576 19.8732 218.404 20.0102 218.207 20.1022C218.01 20.1942 217.794 20.2388 217.577 20.2322Z" fill="black"/>
<path d="M221.37 27.7116C220.428 25.3024 219.033 23.0972 217.26 21.2164C217.225 21.1861 217.202 21.1448 217.195 21.0994C217.188 21.0541 217.197 21.0077 217.22 20.9682C217.243 20.9286 217.28 20.8985 217.323 20.883C217.366 20.8675 217.413 20.8676 217.456 20.8833C218.333 21.1677 219.113 21.6921 219.708 22.3973C219.854 23.2199 220.046 24.0336 220.282 24.8349C220.463 25.3951 220.871 26.4398 221.37 27.651V27.7116Z" fill="black"/>
<path d="M209.341 25.6525C209.297 25.6525 209.255 25.635 209.224 25.6038C209.193 25.5725 209.175 25.5302 209.175 25.486C209.077 24.6878 209.183 23.8778 209.481 23.1313C209.78 22.3849 210.262 21.7261 210.883 21.2164C211.607 20.6528 212.458 20.2754 213.362 20.1171C214.265 19.9587 215.194 20.0243 216.066 20.308C216.088 20.314 216.108 20.3242 216.126 20.3381C216.144 20.3519 216.159 20.3692 216.17 20.3889C216.182 20.4086 216.189 20.4303 216.192 20.4528C216.194 20.4753 216.193 20.4981 216.187 20.52C216.181 20.5418 216.171 20.5623 216.157 20.5802C216.143 20.5982 216.126 20.6132 216.106 20.6244C216.087 20.6357 216.065 20.6429 216.042 20.6458C216.02 20.6487 215.997 20.6471 215.975 20.6411C215.156 20.3622 214.281 20.2895 213.427 20.4295C212.573 20.5694 211.767 20.9177 211.079 21.4435C210.51 21.9307 210.074 22.5539 209.81 23.2553C209.545 23.9567 209.462 24.7136 209.568 25.4557C209.57 25.4796 209.567 25.5036 209.56 25.5265C209.553 25.5493 209.541 25.5705 209.526 25.5888C209.51 25.6071 209.491 25.6221 209.47 25.6331C209.449 25.644 209.426 25.6506 209.402 25.6525H209.341Z" fill="black"/>
<path d="M228.397 38.2947L242.391 46.4856L245.02 47.4243C245.25 47.5067 245.455 47.6479 245.614 47.8337C245.773 48.0196 245.881 48.2437 245.927 48.4841L246.274 50.3464C246.312 50.5484 246.272 50.7572 246.163 50.9311C246.054 51.1051 245.883 51.2315 245.685 51.2851L243.237 51.9513C243.039 52.0044 242.831 52.0028 242.634 51.9469C242.437 51.8909 242.259 51.7825 242.119 51.6333L241.605 51.0731L242.391 50.8763C242.391 50.8763 240.623 50.1193 240.169 49.014L224.498 44.9716L228.397 38.2947Z" fill="#DA6A5A"/>
<path d="M245.504 51.1488C245.46 51.1494 245.418 51.1345 245.385 51.1067C245.352 51.079 245.33 51.0402 245.322 50.9974L244.778 48.469C244.771 48.447 244.769 48.4236 244.773 48.4008C244.776 48.3779 244.785 48.3562 244.798 48.3372C244.811 48.3182 244.829 48.3025 244.849 48.2912C244.869 48.2799 244.891 48.2734 244.914 48.2722C244.937 48.2654 244.961 48.2637 244.985 48.2671C245.008 48.2705 245.031 48.2789 245.051 48.2918C245.071 48.3048 245.088 48.3219 245.101 48.342C245.114 48.3621 245.122 48.3848 245.126 48.4084L245.655 50.8915C245.664 50.9375 245.655 50.9854 245.629 51.0249C245.604 51.0644 245.564 51.0926 245.519 51.1034L245.504 51.1488Z" fill="black"/>
<path d="M244.597 51.376C244.556 51.3731 244.518 51.3566 244.488 51.3292C244.458 51.3017 244.438 51.2648 244.431 51.2246L243.993 49.1806C243.986 49.1577 243.984 49.1336 243.988 49.1099C243.991 49.0862 243.999 49.0636 244.012 49.0435C244.025 49.0234 244.042 49.0063 244.062 48.9934C244.082 48.9805 244.105 48.972 244.129 48.9687C244.174 48.963 244.22 48.9735 244.259 48.9984C244.298 49.0233 244.326 49.061 244.34 49.1049L244.778 51.1489C244.788 51.195 244.778 51.2428 244.753 51.2823C244.728 51.3218 244.688 51.35 244.642 51.3608L244.597 51.376Z" fill="black"/>
<path d="M243.705 51.6031C243.663 51.6009 243.622 51.585 243.589 51.5577C243.557 51.5304 243.534 51.4932 243.524 51.4517L243.146 49.6651C243.137 49.619 243.146 49.5712 243.172 49.5317C243.197 49.4921 243.237 49.464 243.282 49.4532C243.328 49.4475 243.374 49.458 243.413 49.4829C243.451 49.5078 243.48 49.5455 243.494 49.5894L243.872 51.3911C243.879 51.4131 243.88 51.4365 243.877 51.4593C243.874 51.4822 243.865 51.5039 243.852 51.5229C243.839 51.5419 243.821 51.5577 243.801 51.5689C243.781 51.5802 243.759 51.5867 243.736 51.5879L243.705 51.6031Z" fill="black"/>
<path d="M229.274 38.8094L227.989 45.88L224.498 44.9716L229.274 38.8094Z" fill="black"/>
<path d="M215.401 46.0768L205.14 41.1713C205.115 41.1629 205.093 41.1492 205.074 41.1312C205.055 41.1131 205.04 41.0912 205.03 41.0668C205.02 41.0424 205.016 41.0162 205.017 40.99C205.018 40.9638 205.025 40.9381 205.038 40.9149C205.05 40.8916 205.067 40.8713 205.088 40.8553C205.108 40.8392 205.132 40.8279 205.158 40.8221C205.183 40.8162 205.21 40.816 205.235 40.8214C205.261 40.8268 205.285 40.8377 205.306 40.8534L215.552 45.7588C215.581 45.7897 215.597 45.8302 215.597 45.8724C215.597 45.9145 215.581 45.9551 215.552 45.9859C215.54 46.015 215.518 46.0394 215.491 46.0557C215.464 46.072 215.433 46.0794 215.401 46.0768Z" fill="black"/>
<path d="M209.674 44.699L202.949 43.5937C202.925 43.5901 202.902 43.5816 202.881 43.5689C202.861 43.5562 202.843 43.5395 202.829 43.5197C202.815 43.5 202.805 43.4776 202.799 43.4539C202.794 43.4302 202.794 43.4057 202.798 43.3818C202.801 43.3597 202.809 43.3386 202.821 43.3198C202.833 43.3009 202.849 43.2846 202.867 43.2719C202.886 43.2592 202.906 43.2503 202.928 43.2458C202.95 43.2412 202.972 43.2412 202.994 43.2455L209.719 44.3508C209.742 44.3525 209.765 44.3591 209.786 44.3702C209.806 44.3814 209.824 44.3967 209.839 44.4153C209.853 44.4339 209.863 44.4553 209.868 44.4781C209.874 44.5009 209.874 44.5245 209.87 44.5476C209.863 44.5931 209.838 44.634 209.802 44.6621C209.765 44.6903 209.719 44.7034 209.674 44.699Z" fill="black"/>
<path d="M227.642 36.5081L221.567 45.0775L225.496 46.9852L229.712 37.8556L227.642 36.5081Z" fill="#CB2323"/>
</g>
<defs>
<clipPath id="clip0_5090_13156">
<rect width="295" height="150" fill="white" transform="translate(75.2542)"/>
</clipPath>
</defs>
</svg>
