<svg width="361" height="89" viewBox="0 0 361 89" fill="none" xmlns="http://www.w3.org/2000/svg">
<path d="M68.0635 88.5405C78.5211 88.5405 86.9986 80.047 86.9986 69.5697C86.9986 59.0924 78.5211 50.5989 68.0635 50.5989C57.6059 50.5989 49.1284 59.0924 49.1284 69.5697C49.1284 80.047 57.6059 88.5405 68.0635 88.5405Z" fill="#FFE98A"/>
<path d="M42.6909 65.7393C41.3558 67.0461 40.1836 68.5103 39.2001 70.0997C38.2537 71.6158 37.6502 73.3212 37.432 75.096C37.46 75.2968 37.4073 75.5005 37.2855 75.6623C37.1636 75.8242 36.9826 75.9309 36.7822 75.959C36.6829 75.9729 36.5819 75.9671 36.485 75.9419C36.388 75.9167 36.2969 75.8727 36.2169 75.8122C36.0554 75.6901 35.9488 75.5087 35.9208 75.3079C35.5687 74.5341 35.0998 73.8191 34.5305 73.1883C34.0147 72.5246 33.3386 72.0035 32.566 71.6743C31.7764 71.3832 30.9169 71.3409 30.1027 71.5531C29.664 71.6601 29.2345 71.8018 28.8182 71.9771L27.564 72.5827C27.8964 72.2647 28.2289 71.9165 28.6067 71.6137C28.9954 71.3155 29.4161 71.0615 29.861 70.8567C30.8016 70.4031 31.8716 70.2959 32.8833 70.5539C33.8985 70.7984 34.8251 71.3229 35.5581 72.0679C36.275 72.8013 36.8626 73.6511 37.296 74.5812L35.7848 74.8083C36.0117 72.7871 36.8143 70.8739 38.0969 69.2972C39.3389 67.7774 40.9099 66.5607 42.6909 65.7393Z" fill="#1C1716"/>
<path d="M0 63.5289C1.08173 63.0396 2.22605 62.7033 3.40016 62.5296C4.04801 62.4315 4.70968 62.4833 5.33447 62.681C5.7159 62.8096 6.0566 63.037 6.322 63.3402C6.5874 63.6433 6.76806 64.0114 6.84565 64.407L5.41003 64.2253C5.74482 63.6897 6.12395 63.1833 6.54341 62.7113C6.94019 62.2509 7.38048 61.8301 7.85814 61.4546C8.78401 60.6924 9.92622 60.2421 11.1223 60.1677C10.036 60.4726 9.07674 61.1204 8.38705 62.0148C8.03068 62.437 7.71684 62.8934 7.45012 63.3775C7.18842 63.8635 6.96607 64.3698 6.7852 64.8915C6.74106 65.0545 6.64167 65.1969 6.50409 65.2944C6.36652 65.392 6.19935 65.4384 6.03129 65.4259C5.86323 65.4134 5.70477 65.3426 5.58313 65.2257C5.46148 65.1089 5.38425 64.9532 5.36469 64.7855V64.6795C5.37927 64.4976 5.34145 64.3154 5.25574 64.1543C5.17002 63.9933 5.04001 63.8603 4.88111 63.7711C4.41623 63.5162 3.89933 63.3712 3.36993 63.3472C2.24359 63.2546 1.10992 63.3158 0 63.5289Z" fill="#1C1716"/>
<path d="M54.8558 75.2928C53.8307 75.932 52.8465 76.6349 51.909 77.3974C51.4964 77.7384 51.1395 78.142 50.8512 78.5934C50.6189 78.9516 50.5224 79.3813 50.5792 79.8047C50.5896 79.9022 50.5807 80.0008 50.5528 80.0948C50.525 80.1888 50.4788 80.2764 50.417 80.3524C50.3551 80.4285 50.2789 80.4915 50.1926 80.5378C50.1063 80.5841 50.0117 80.6128 49.9143 80.6222C49.8111 80.636 49.7062 80.6268 49.607 80.5954C49.5077 80.564 49.4166 80.5111 49.34 80.4406C48.9981 80.1436 48.6287 79.88 48.2368 79.6533C47.8421 79.4201 47.4274 79.2225 46.9977 79.0628C46.5534 78.9112 46.0909 78.8196 45.6225 78.7903C45.115 78.7692 44.6069 78.815 44.1113 78.9265C44.5154 78.5477 45.0017 78.2679 45.5318 78.1089C46.084 77.9621 46.6613 77.9363 47.2244 78.0333C47.7945 78.0934 48.351 78.2469 48.8715 78.4875C49.42 78.7083 49.9301 79.0149 50.3827 79.3959L49.1587 80.0923C49.0161 79.3128 49.1843 78.5083 49.6271 77.8516C50.0286 77.287 50.5433 76.8125 51.1383 76.4587C52.2644 75.7729 53.5404 75.3727 54.8558 75.2928Z" fill="#1C1716"/>
<path d="M66.2351 10.2804C64.234 9.08136 61.9216 8.50718 59.5932 8.63123C57.2648 8.75529 55.0262 9.57194 53.1634 10.9769C46.499 15.9126 49.1436 21.5751 49.1436 21.5751C49.1436 21.5751 47.0884 20.379 45.8341 21.242C44.5799 22.105 45.4714 24.1792 45.4714 24.1792C45.4714 24.1792 41.4668 19.8945 35.135 23.6039C28.8031 27.3133 31.8406 34.2021 31.8406 34.2021C31.8406 34.2021 28.3951 31.4769 26.1586 33.5662C25.547 34.0191 25.0542 34.6139 24.7226 35.2995C24.3909 35.9851 24.2303 36.7412 24.2545 37.5027C24.2545 37.5027 20.0685 36.5489 18.2098 37.9872C16.351 39.4255 16.6986 41.8328 18.4364 42.4233C20.1743 43.0138 76.2693 42.4233 87.8147 42.4233C99.3601 42.4233 111.087 43.4529 111.661 39.7283C112.235 36.0038 107.022 34.7472 107.022 34.7472C107.676 33.6819 107.956 32.4278 107.816 31.1849C107.676 29.9419 107.125 28.7815 106.251 27.8886C103.229 24.5426 99.5415 27.6615 99.5415 27.6615C100.547 25.6941 100.934 23.4674 100.651 21.2753C100.367 19.0832 99.4273 17.0287 97.9547 15.3827C97.374 14.5959 96.6244 13.9496 95.7613 13.4916C94.8981 13.0336 93.9434 12.7754 92.9674 12.7362C91.9914 12.697 91.0191 12.8777 90.1221 13.2649C89.2251 13.6522 88.4263 14.2362 87.7845 14.9739C87.7845 14.9739 91.2602 2.05922 80.1379 0.30294C69.0156 -1.45334 66.6582 5.14784 66.2351 10.2956V10.2804Z" fill="#FFF9F2"/>
<path d="M76.3599 0C75.831 0 75.3323 -4.62497e-07 74.8487 0.105982C83.402 2.8918 83.0393 10.038 81.3317 13.7323C80.6409 14.9992 79.6874 16.1033 78.5353 16.9703C77.3832 17.8373 76.0592 18.4472 74.6523 18.7589C75.8159 18.5015 79.6996 17.8504 80.9388 20.2729C81.3685 21.1617 81.6129 22.1289 81.6571 23.1155C81.7013 24.1021 81.5443 25.0873 81.1957 26.0111C81.1957 26.0111 84.082 19.9549 88.7516 23.6946C93.4211 27.4343 92.0309 31.6433 88.4191 32.264C86.5217 32.6665 84.5544 32.5937 82.6918 32.0521C82.6918 32.0521 88.0262 33.9446 84.9132 36.7456C81.8002 39.5465 77.72 35.7917 77.72 35.7917C73.0317 38.735 67.5408 40.1328 62.0188 39.7888C53.2842 39.0166 50.3374 34.9742 50.3374 34.9742C50.3374 34.9742 43.7184 39.925 39.1547 39.6071C36.5613 39.4952 34.1148 38.3702 32.3392 36.473C32.0464 37.1844 31.6029 37.8237 31.0393 38.3465C30.4757 38.8693 29.8055 39.2633 29.0751 39.5011C27.6822 39.8983 26.2064 39.8983 24.8136 39.5011C24.0015 40.0801 23.0802 40.4874 22.106 40.6982C21.1317 40.9091 20.1248 40.919 19.1466 40.7275C18.4193 40.5224 17.7031 40.2798 17.0008 40.0007C16.9335 40.5136 17.0478 41.0339 17.324 41.471C17.6001 41.9081 18.0205 42.2343 18.5119 42.3929C20.2196 42.9834 76.3448 42.3929 87.8902 42.3929C99.4356 42.3929 111.162 43.4225 111.737 39.6979C112.311 35.9734 107.097 34.7168 107.097 34.7168C107.734 33.6464 107.997 32.3938 107.844 31.1571C107.691 29.9204 107.13 28.7702 106.251 27.8885C103.229 24.5425 99.5414 27.6614 99.5414 27.6614C100.547 25.6939 100.934 23.4673 100.65 21.2752C100.367 19.0831 99.4272 17.0285 97.9547 15.3826C97.3739 14.5957 96.6244 13.9495 95.7612 13.4915C94.898 13.0334 93.9433 12.7753 92.9674 12.7361C91.9914 12.6968 91.0191 12.8775 90.1221 13.2648C89.2251 13.6521 88.4262 14.2361 87.7844 14.9738C87.7844 14.9738 91.2601 2.05909 80.1379 0.302808C78.8894 0.0960515 77.6252 -0.000209497 76.3599 0.0151407V0Z" fill="#FFE8DF"/>
<path d="M360.809 22.1C359.811 22.3876 358.875 22.6147 358.043 22.9327C357.656 23.062 357.293 23.2566 356.97 23.508C356.723 23.6829 356.546 23.9407 356.472 24.2347V24.3256C356.409 24.5127 356.277 24.6681 356.102 24.7586C355.927 24.8491 355.723 24.8676 355.535 24.8101C355.345 24.7457 355.188 24.61 355.097 24.4316C354.94 24.1211 354.752 23.827 354.537 23.5534C354.325 23.2654 354.087 22.9969 353.827 22.751C353.251 22.2319 352.547 21.8765 351.787 21.7214C352.206 21.5346 352.662 21.4458 353.12 21.4615C353.578 21.4772 354.027 21.5972 354.432 21.8123C354.848 22.0269 355.23 22.3025 355.565 22.6299C355.912 22.959 356.203 23.3425 356.426 23.7654L355.036 23.9622C355.1 23.6252 355.233 23.305 355.425 23.0212C355.617 22.7373 355.865 22.496 356.154 22.3119C356.641 21.9969 357.195 21.8 357.771 21.7366C358.798 21.587 359.846 21.7124 360.809 22.1Z" fill="#1C1716"/>
<path d="M321.972 14.4995C321.972 14.4995 326.611 5.30936 317.347 1.08521C308.537 -2.94211 304.789 5.53647 304.789 5.53647C304.312 4.98762 303.66 4.62131 302.944 4.49986C302.227 4.37841 301.491 4.50931 300.86 4.87029C298.261 6.00582 299.757 9.09445 299.757 9.09445C299.757 9.09445 292.005 5.62731 288.061 10.6085C284.117 15.5896 284.857 17.8153 284.857 17.8153C284.857 17.8153 281.049 18.4209 280.067 21.0402C279.64 22.2362 279.693 23.5514 280.214 24.7092C280.735 25.8669 281.685 26.7769 282.862 27.2477C284.167 27.627 285.562 27.5359 286.806 26.9903C287.887 28.7621 289.403 30.2259 291.211 31.2414C293.018 32.2568 295.056 32.7898 297.128 32.7891C304.412 32.7891 305.666 27.7322 305.666 27.7322C305.666 27.7322 305.862 30.2001 309.368 30.7602C310.07 30.9776 310.827 30.9315 311.497 30.6306C312.167 30.3296 312.705 29.7945 313.01 29.1251C313.228 29.6204 313.597 30.0339 314.064 30.3059C314.531 30.578 315.072 30.6946 315.61 30.6391C316.154 30.6777 316.692 30.5039 317.112 30.154C317.532 29.8041 317.8 29.3053 317.861 28.7617C317.861 28.7617 336.781 37.3463 338.141 24.371C339.335 12.2588 326.052 15.6199 326.052 15.6199C326.07 15.2092 325.976 14.8013 325.779 14.4408C325.582 14.0803 325.289 13.7811 324.933 13.576C323.589 12.6978 321.972 14.4995 321.972 14.4995Z" fill="#FFF9F2"/>
<path d="M315.065 0.2677C316.78 1.35496 318.029 3.04187 318.571 5.00056C319.112 6.95926 318.908 9.04981 317.997 10.8659C317.642 11.9617 316.962 12.923 316.048 13.6215C316.56 13.4924 317.098 13.5105 317.601 13.6739C318.103 13.8372 318.55 14.1392 318.889 14.545C319.163 14.9576 319.309 15.4422 319.309 15.9379C319.309 16.4336 319.163 16.9182 318.889 17.3308C318.889 17.3308 320.974 15.2566 323.105 16.1499C323.572 16.361 323.966 16.7073 324.235 17.1445C324.505 17.5816 324.637 18.0894 324.616 18.6026C324.763 17.4815 325.236 16.4286 325.976 15.5746C325.98 15.1788 325.878 14.7892 325.682 14.4459C325.485 14.1026 325.201 13.818 324.858 13.6215C323.558 12.7433 321.941 14.545 321.941 14.545C321.941 14.545 326.581 5.35485 317.317 1.1307C316.585 0.783496 315.821 0.509637 315.035 0.313119L315.065 0.2677ZM324.646 18.5269C324.551 19.0259 324.506 19.533 324.51 20.041C324.624 19.5448 324.67 19.0355 324.646 18.5269ZM304.412 14.106C304.412 14.106 305.288 24.7042 296.372 25.5672C287.456 26.4302 286.444 21.0251 286.444 21.0251C286.444 21.0251 285.96 24.356 282.892 24.4165C281.842 24.4175 280.806 24.1684 279.87 23.6898C280.041 24.4763 280.408 25.2066 280.936 25.8129C281.465 26.4191 282.138 26.8815 282.892 27.1569C284.197 27.5362 285.593 27.4451 286.837 26.8995C287.917 28.6713 289.433 30.1352 291.241 31.1506C293.048 32.1661 295.086 32.699 297.158 32.6983C304.442 32.6983 305.696 27.6414 305.696 27.6414C305.696 27.6414 305.893 30.1093 309.399 30.6695C310.1 30.8868 310.857 30.8407 311.527 30.5398C312.197 30.2388 312.735 29.7037 313.041 29.0343C313.258 29.5297 313.627 29.9431 314.094 30.2152C314.561 30.4872 315.102 30.6039 315.64 30.5483C316.166 30.5811 316.685 30.4162 317.096 30.0858C317.506 29.7553 317.779 29.2832 317.861 28.7618C317.861 28.7618 336.781 37.3464 338.141 24.3711C338.746 18.315 335.738 16.1348 332.58 15.4534C335.179 16.9675 337.114 19.723 335.527 23.0236C333.018 28.1108 327.2 27.8231 324.042 26.2182C322.103 25.2236 320.304 23.9763 318.692 22.5088C318.692 22.5088 318.587 26.839 315.67 27.0509C312.753 27.2629 312.149 23.069 312.149 23.069C312.262 23.9235 312.09 24.7915 311.657 25.5368C311.225 26.2822 310.558 26.8627 309.761 27.1872C309.008 27.5062 308.162 27.5273 307.394 27.2464C306.625 26.9655 305.992 26.4033 305.621 25.6732C306.333 24.7178 306.836 23.6224 307.097 22.4587C307.357 21.295 307.369 20.0893 307.132 18.9206C306.796 17.0927 305.891 15.418 304.548 14.1362L304.412 14.106Z" fill="#FFE8DF"/>
</svg>
