<svg width="20" height="20" viewBox="0 0 20 20" fill="none" xmlns="http://www.w3.org/2000/svg">
<mask id="path-1-outside-1_785_793" maskUnits="userSpaceOnUse" x="0" y="2" width="20" height="16" fill="#fff">
<rect fill="white" y="2" width="20" height="16"/>
<path d="M14.3492 9.67818C14.2416 9.55964 14.1111 9.46416 13.9656 9.39751C13.8201 9.33086 13.6626 9.29443 13.5025 9.29041C13.3425 9.2864 13.1834 9.31488 13.0347 9.37415C12.886 9.43342 12.7509 9.52224 12.6375 9.63523L11.139 11.1372C11.0913 11.187 11.065 11.2535 11.0658 11.3224C11.0666 11.3914 11.0943 11.4573 11.1432 11.506C11.192 11.5547 11.258 11.5823 11.3269 11.5828C11.3959 11.5834 11.4623 11.557 11.512 11.5091L13.0102 10.0074C13.637 9.3991 14.5728 10.3474 13.9678 10.9653L10.1953 14.7449C10.038 14.9006 9.83471 15.0015 9.61557 15.0325C8.30902 15.2128 6.56766 15.451 5.32374 15.6238L3.90994 14.2098C3.8601 14.1622 3.7936 14.136 3.72469 14.1369C3.65578 14.1377 3.58994 14.1655 3.54129 14.2143C3.49265 14.2632 3.46506 14.3291 3.46445 14.398C3.46384 14.4669 3.49026 14.5333 3.53803 14.583L5.18852 16.2332L4.19981 17.2232L1.52229 14.5422L2.51074 13.5529L2.60873 13.6511C2.65927 13.6986 2.72606 13.725 2.79541 13.7248C2.86477 13.7247 2.93143 13.698 2.98176 13.6503C3.06546 13.5747 4.91428 11.7074 4.96152 11.6678C5.12043 11.5241 5.32557 11.4422 5.53972 11.4368C5.64256 11.4374 9.35107 11.4341 9.37792 11.4357C9.5474 11.4449 9.70666 11.5196 9.82204 11.6441C9.93742 11.7686 9.99986 11.933 9.99616 12.1027C9.99246 12.2724 9.9229 12.434 9.80221 12.5533C9.68151 12.6727 9.51914 12.7404 9.34942 12.7421C9.28866 12.7427 7.05424 12.7446 7.03834 12.746C6.97055 12.751 6.90731 12.782 6.86184 12.8325C6.81637 12.883 6.79218 12.9492 6.79433 13.0171C6.79648 13.085 6.8248 13.1495 6.87338 13.1971C6.92195 13.2446 6.98702 13.2716 7.05499 13.2723C7.08908 13.2722 8.38889 13.2703 9.0171 13.2694C9.84936 13.3517 10.5287 12.9064 10.53 12.0506C10.5162 11.7454 10.3862 11.4571 10.1666 11.2448C9.9471 11.0324 9.65464 10.9121 9.34921 10.9084C9.20683 10.914 5.57346 10.9052 5.49982 10.9108C5.14955 10.926 4.81734 11.0704 4.56734 11.3162C4.54435 11.3392 2.79917 13.1295 2.76074 13.0931C2.66019 13.0421 2.54639 13.0231 2.43471 13.0388C2.32303 13.0545 2.21886 13.1041 2.13629 13.1809C2.12196 13.1953 1.15831 14.1582 1.13128 14.1892C1.04348 14.2909 0.996734 14.4216 1.00018 14.5558C1.00362 14.6901 1.05701 14.8182 1.1499 14.9152C1.2187 14.9827 3.82888 17.5991 3.84423 17.6118C3.9456 17.7016 4.07714 17.7497 4.21252 17.7466C4.34789 17.7435 4.47709 17.6894 4.57424 17.595C4.59254 17.5767 5.53927 16.6297 5.5789 16.5871C5.65926 16.4984 5.7066 16.3848 5.71292 16.2653C5.73267 16.2077 5.65954 16.0898 5.73978 16.0981C6.91001 15.9363 9.29586 15.6089 9.72967 15.5478C10.0454 15.4908 10.337 15.3411 10.5673 15.1177C10.6672 15.0169 14.3418 11.3376 14.3658 11.3114C14.5733 11.0891 14.6873 10.7955 14.6842 10.4915C14.6811 10.1874 14.5611 9.89622 14.3492 9.67818Z"/>
<path d="M4.54904 8.00434C4.51445 8.00433 4.4802 8.01113 4.44824 8.02437C4.41628 8.0376 4.38724 8.057 4.36278 8.08146C4.33832 8.10592 4.31892 8.13496 4.30569 8.16691C4.29246 8.19887 4.28565 8.23313 4.28566 8.26772V9.32124C4.28589 9.53072 4.36921 9.73157 4.51734 9.8797C4.66547 10.0278 4.86631 10.1111 5.0758 10.1114H10.6068C10.8163 10.1111 11.0171 10.0278 11.1652 9.8797C11.3134 9.73157 11.3967 9.53072 11.3969 9.32124V3.79025C11.3967 3.58077 11.3134 3.37992 11.1652 3.23179C11.0171 3.08366 10.8163 3.00034 10.6068 3.00011C8.96592 3.00104 6.71903 2.9996 5.0758 3.00011C4.86631 3.00034 4.66547 3.08366 4.51734 3.23179C4.36921 3.37992 4.28589 3.58077 4.28566 3.79025V6.95082C4.28697 7.0198 4.3153 7.08552 4.36455 7.13385C4.4138 7.18217 4.48005 7.20924 4.54905 7.20924C4.61805 7.20924 4.68429 7.18216 4.73354 7.13383C4.78279 7.08551 4.81111 7.01979 4.81242 6.9508V3.79025C4.81249 3.72042 4.84026 3.65347 4.88964 3.60409C4.93902 3.55472 5.00597 3.52694 5.0758 3.52687H6.65608V4.84377C6.65624 4.98343 6.71179 5.11732 6.81054 5.21607C6.90929 5.31483 7.04318 5.37038 7.18284 5.37054H8.49974C8.6394 5.37038 8.77329 5.31483 8.87204 5.21607C8.97079 5.11732 9.02634 4.98343 9.0265 4.84377V3.52687H10.6068C10.6766 3.52694 10.7436 3.55472 10.7929 3.60409C10.8423 3.65347 10.8701 3.72042 10.8702 3.79025V9.32124C10.8701 9.39107 10.8423 9.45802 10.7929 9.5074C10.7436 9.55678 10.6766 9.58455 10.6068 9.58462H5.0758C5.00597 9.58455 4.93902 9.55678 4.88964 9.5074C4.84026 9.45802 4.81249 9.39107 4.81242 9.32124V8.26772C4.81243 8.23313 4.80562 8.19887 4.79239 8.16691C4.77916 8.13496 4.75976 8.10592 4.7353 8.08146C4.71084 8.057 4.6818 8.0376 4.64984 8.02437C4.61788 8.01113 4.58363 8.00433 4.54904 8.00434ZM8.5 4.84377H7.18284V3.52687H8.49974L8.5 4.84377Z"/>
<path d="M19 6C19 6.0663 18.9737 6.12989 18.9268 6.17678C18.8799 6.22366 18.8163 6.25 18.75 6.25H16.25V8.75C16.25 8.8163 16.2237 8.87989 16.1768 8.92678C16.1299 8.97366 16.0663 9 16 9C15.9337 9 15.8701 8.97366 15.8232 8.92678C15.7763 8.87989 15.75 8.8163 15.75 8.75V6.25H13.25C13.1837 6.25 13.1201 6.22366 13.0732 6.17678C13.0263 6.12989 13 6.0663 13 6C13 5.9337 13.0263 5.87011 13.0732 5.82322C13.1201 5.77634 13.1837 5.75 13.25 5.75H15.75V3.25C15.75 3.1837 15.7763 3.12011 15.8232 3.07322C15.8701 3.02634 15.9337 3 16 3C16.0663 3 16.1299 3.02634 16.1768 3.07322C16.2237 3.12011 16.25 3.1837 16.25 3.25V5.75H18.75C18.8163 5.75 18.8799 5.77634 18.9268 5.82322C18.9737 5.87011 19 5.9337 19 6Z"/>
</mask>
<path d="M14.3492 9.67818C14.2416 9.55964 14.1111 9.46416 13.9656 9.39751C13.8201 9.33086 13.6626 9.29443 13.5025 9.29041C13.3425 9.2864 13.1834 9.31488 13.0347 9.37415C12.886 9.43342 12.7509 9.52224 12.6375 9.63523L11.139 11.1372C11.0913 11.187 11.065 11.2535 11.0658 11.3224C11.0666 11.3914 11.0943 11.4573 11.1432 11.506C11.192 11.5547 11.258 11.5823 11.3269 11.5828C11.3959 11.5834 11.4623 11.557 11.512 11.5091L13.0102 10.0074C13.637 9.3991 14.5728 10.3474 13.9678 10.9653L10.1953 14.7449C10.038 14.9006 9.83471 15.0015 9.61557 15.0325C8.30902 15.2128 6.56766 15.451 5.32374 15.6238L3.90994 14.2098C3.8601 14.1622 3.7936 14.136 3.72469 14.1369C3.65578 14.1377 3.58994 14.1655 3.54129 14.2143C3.49265 14.2632 3.46506 14.3291 3.46445 14.398C3.46384 14.4669 3.49026 14.5333 3.53803 14.583L5.18852 16.2332L4.19981 17.2232L1.52229 14.5422L2.51074 13.5529L2.60873 13.6511C2.65927 13.6986 2.72606 13.725 2.79541 13.7248C2.86477 13.7247 2.93143 13.698 2.98176 13.6503C3.06546 13.5747 4.91428 11.7074 4.96152 11.6678C5.12043 11.5241 5.32557 11.4422 5.53972 11.4368C5.64256 11.4374 9.35107 11.4341 9.37792 11.4357C9.5474 11.4449 9.70666 11.5196 9.82204 11.6441C9.93742 11.7686 9.99986 11.933 9.99616 12.1027C9.99246 12.2724 9.9229 12.434 9.80221 12.5533C9.68151 12.6727 9.51914 12.7404 9.34942 12.7421C9.28866 12.7427 7.05424 12.7446 7.03834 12.746C6.97055 12.751 6.90731 12.782 6.86184 12.8325C6.81637 12.883 6.79218 12.9492 6.79433 13.0171C6.79648 13.085 6.8248 13.1495 6.87338 13.1971C6.92195 13.2446 6.98702 13.2716 7.05499 13.2723C7.08908 13.2722 8.38889 13.2703 9.0171 13.2694C9.84936 13.3517 10.5287 12.9064 10.53 12.0506C10.5162 11.7454 10.3862 11.4571 10.1666 11.2448C9.9471 11.0324 9.65464 10.9121 9.34921 10.9084C9.20683 10.914 5.57346 10.9052 5.49982 10.9108C5.14955 10.926 4.81734 11.0704 4.56734 11.3162C4.54435 11.3392 2.79917 13.1295 2.76074 13.0931C2.66019 13.0421 2.54639 13.0231 2.43471 13.0388C2.32303 13.0545 2.21886 13.1041 2.13629 13.1809C2.12196 13.1953 1.15831 14.1582 1.13128 14.1892C1.04348 14.2909 0.996734 14.4216 1.00018 14.5558C1.00362 14.6901 1.05701 14.8182 1.1499 14.9152C1.2187 14.9827 3.82888 17.5991 3.84423 17.6118C3.9456 17.7016 4.07714 17.7497 4.21252 17.7466C4.34789 17.7435 4.47709 17.6894 4.57424 17.595C4.59254 17.5767 5.53927 16.6297 5.5789 16.5871C5.65926 16.4984 5.7066 16.3848 5.71292 16.2653C5.73267 16.2077 5.65954 16.0898 5.73978 16.0981C6.91001 15.9363 9.29586 15.6089 9.72967 15.5478C10.0454 15.4908 10.337 15.3411 10.5673 15.1177C10.6672 15.0169 14.3418 11.3376 14.3658 11.3114C14.5733 11.0891 14.6873 10.7955 14.6842 10.4915C14.6811 10.1874 14.5611 9.89622 14.3492 9.67818Z" fill="#fff"/>
<path d="M4.54904 8.00434C4.51445 8.00433 4.4802 8.01113 4.44824 8.02437C4.41628 8.0376 4.38724 8.057 4.36278 8.08146C4.33832 8.10592 4.31892 8.13496 4.30569 8.16691C4.29246 8.19887 4.28565 8.23313 4.28566 8.26772V9.32124C4.28589 9.53072 4.36921 9.73157 4.51734 9.8797C4.66547 10.0278 4.86631 10.1111 5.0758 10.1114H10.6068C10.8163 10.1111 11.0171 10.0278 11.1652 9.8797C11.3134 9.73157 11.3967 9.53072 11.3969 9.32124V3.79025C11.3967 3.58077 11.3134 3.37992 11.1652 3.23179C11.0171 3.08366 10.8163 3.00034 10.6068 3.00011C8.96592 3.00104 6.71903 2.9996 5.0758 3.00011C4.86631 3.00034 4.66547 3.08366 4.51734 3.23179C4.36921 3.37992 4.28589 3.58077 4.28566 3.79025V6.95082C4.28697 7.0198 4.3153 7.08552 4.36455 7.13385C4.4138 7.18217 4.48005 7.20924 4.54905 7.20924C4.61805 7.20924 4.68429 7.18216 4.73354 7.13383C4.78279 7.08551 4.81111 7.01979 4.81242 6.9508V3.79025C4.81249 3.72042 4.84026 3.65347 4.88964 3.60409C4.93902 3.55472 5.00597 3.52694 5.0758 3.52687H6.65608V4.84377C6.65624 4.98343 6.71179 5.11732 6.81054 5.21607C6.90929 5.31483 7.04318 5.37038 7.18284 5.37054H8.49974C8.6394 5.37038 8.77329 5.31483 8.87204 5.21607C8.97079 5.11732 9.02634 4.98343 9.0265 4.84377V3.52687H10.6068C10.6766 3.52694 10.7436 3.55472 10.7929 3.60409C10.8423 3.65347 10.8701 3.72042 10.8702 3.79025V9.32124C10.8701 9.39107 10.8423 9.45802 10.7929 9.5074C10.7436 9.55678 10.6766 9.58455 10.6068 9.58462H5.0758C5.00597 9.58455 4.93902 9.55678 4.88964 9.5074C4.84026 9.45802 4.81249 9.39107 4.81242 9.32124V8.26772C4.81243 8.23313 4.80562 8.19887 4.79239 8.16691C4.77916 8.13496 4.75976 8.10592 4.7353 8.08146C4.71084 8.057 4.6818 8.0376 4.64984 8.02437C4.61788 8.01113 4.58363 8.00433 4.54904 8.00434ZM8.5 4.84377H7.18284V3.52687H8.49974L8.5 4.84377Z" fill="#fff"/>
<path d="M19 6C19 6.0663 18.9737 6.12989 18.9268 6.17678C18.8799 6.22366 18.8163 6.25 18.75 6.25H16.25V8.75C16.25 8.8163 16.2237 8.87989 16.1768 8.92678C16.1299 8.97366 16.0663 9 16 9C15.9337 9 15.8701 8.97366 15.8232 8.92678C15.7763 8.87989 15.75 8.8163 15.75 8.75V6.25H13.25C13.1837 6.25 13.1201 6.22366 13.0732 6.17678C13.0263 6.12989 13 6.0663 13 6C13 5.9337 13.0263 5.87011 13.0732 5.82322C13.1201 5.77634 13.1837 5.75 13.25 5.75H15.75V3.25C15.75 3.1837 15.7763 3.12011 15.8232 3.07322C15.8701 3.02634 15.9337 3 16 3C16.0663 3 16.1299 3.02634 16.1768 3.07322C16.2237 3.12011 16.25 3.1837 16.25 3.25V5.75H18.75C18.8163 5.75 18.8799 5.77634 18.9268 5.82322C18.9737 5.87011 19 5.9337 19 6Z" fill="#fff"/>
<path d="M14.3492 9.67818C14.2416 9.55964 14.1111 9.46416 13.9656 9.39751C13.8201 9.33086 13.6626 9.29443 13.5025 9.29041C13.3425 9.2864 13.1834 9.31488 13.0347 9.37415C12.886 9.43342 12.7509 9.52224 12.6375 9.63523L11.139 11.1372C11.0913 11.187 11.065 11.2535 11.0658 11.3224C11.0666 11.3914 11.0943 11.4573 11.1432 11.506C11.192 11.5547 11.258 11.5823 11.3269 11.5828C11.3959 11.5834 11.4623 11.557 11.512 11.5091L13.0102 10.0074C13.637 9.3991 14.5728 10.3474 13.9678 10.9653L10.1953 14.7449C10.038 14.9006 9.83471 15.0015 9.61557 15.0325C8.30902 15.2128 6.56766 15.451 5.32374 15.6238L3.90994 14.2098C3.8601 14.1622 3.7936 14.136 3.72469 14.1369C3.65578 14.1377 3.58994 14.1655 3.54129 14.2143C3.49265 14.2632 3.46506 14.3291 3.46445 14.398C3.46384 14.4669 3.49026 14.5333 3.53803 14.583L5.18852 16.2332L4.19981 17.2232L1.52229 14.5422L2.51074 13.5529L2.60873 13.6511C2.65927 13.6986 2.72606 13.725 2.79541 13.7248C2.86477 13.7247 2.93143 13.698 2.98176 13.6503C3.06546 13.5747 4.91428 11.7074 4.96152 11.6678C5.12043 11.5241 5.32557 11.4422 5.53972 11.4368C5.64256 11.4374 9.35107 11.4341 9.37792 11.4357C9.5474 11.4449 9.70666 11.5196 9.82204 11.6441C9.93742 11.7686 9.99986 11.933 9.99616 12.1027C9.99246 12.2724 9.9229 12.434 9.80221 12.5533C9.68151 12.6727 9.51914 12.7404 9.34942 12.7421C9.28866 12.7427 7.05424 12.7446 7.03834 12.746C6.97055 12.751 6.90731 12.782 6.86184 12.8325C6.81637 12.883 6.79218 12.9492 6.79433 13.0171C6.79648 13.085 6.8248 13.1495 6.87338 13.1971C6.92195 13.2446 6.98702 13.2716 7.05499 13.2723C7.08908 13.2722 8.38889 13.2703 9.0171 13.2694C9.84936 13.3517 10.5287 12.9064 10.53 12.0506C10.5162 11.7454 10.3862 11.4571 10.1666 11.2448C9.9471 11.0324 9.65464 10.9121 9.34921 10.9084C9.20683 10.914 5.57346 10.9052 5.49982 10.9108C5.14955 10.926 4.81734 11.0704 4.56734 11.3162C4.54435 11.3392 2.79917 13.1295 2.76074 13.0931C2.66019 13.0421 2.54639 13.0231 2.43471 13.0388C2.32303 13.0545 2.21886 13.1041 2.13629 13.1809C2.12196 13.1953 1.15831 14.1582 1.13128 14.1892C1.04348 14.2909 0.996734 14.4216 1.00018 14.5558C1.00362 14.6901 1.05701 14.8182 1.1499 14.9152C1.2187 14.9827 3.82888 17.5991 3.84423 17.6118C3.9456 17.7016 4.07714 17.7497 4.21252 17.7466C4.34789 17.7435 4.47709 17.6894 4.57424 17.595C4.59254 17.5767 5.53927 16.6297 5.5789 16.5871C5.65926 16.4984 5.7066 16.3848 5.71292 16.2653C5.73267 16.2077 5.65954 16.0898 5.73978 16.0981C6.91001 15.9363 9.29586 15.6089 9.72967 15.5478C10.0454 15.4908 10.337 15.3411 10.5673 15.1177C10.6672 15.0169 14.3418 11.3376 14.3658 11.3114C14.5733 11.0891 14.6873 10.7955 14.6842 10.4915C14.6811 10.1874 14.5611 9.89622 14.3492 9.67818Z" stroke="#fff" stroke-width="0.32" mask="url(#path-1-outside-1_785_793)"/>
<path d="M4.54904 8.00434C4.51445 8.00433 4.4802 8.01113 4.44824 8.02437C4.41628 8.0376 4.38724 8.057 4.36278 8.08146C4.33832 8.10592 4.31892 8.13496 4.30569 8.16691C4.29246 8.19887 4.28565 8.23313 4.28566 8.26772V9.32124C4.28589 9.53072 4.36921 9.73157 4.51734 9.8797C4.66547 10.0278 4.86631 10.1111 5.0758 10.1114H10.6068C10.8163 10.1111 11.0171 10.0278 11.1652 9.8797C11.3134 9.73157 11.3967 9.53072 11.3969 9.32124V3.79025C11.3967 3.58077 11.3134 3.37992 11.1652 3.23179C11.0171 3.08366 10.8163 3.00034 10.6068 3.00011C8.96592 3.00104 6.71903 2.9996 5.0758 3.00011C4.86631 3.00034 4.66547 3.08366 4.51734 3.23179C4.36921 3.37992 4.28589 3.58077 4.28566 3.79025V6.95082C4.28697 7.0198 4.3153 7.08552 4.36455 7.13385C4.4138 7.18217 4.48005 7.20924 4.54905 7.20924C4.61805 7.20924 4.68429 7.18216 4.73354 7.13383C4.78279 7.08551 4.81111 7.01979 4.81242 6.9508V3.79025C4.81249 3.72042 4.84026 3.65347 4.88964 3.60409C4.93902 3.55472 5.00597 3.52694 5.0758 3.52687H6.65608V4.84377C6.65624 4.98343 6.71179 5.11732 6.81054 5.21607C6.90929 5.31483 7.04318 5.37038 7.18284 5.37054H8.49974C8.6394 5.37038 8.77329 5.31483 8.87204 5.21607C8.97079 5.11732 9.02634 4.98343 9.0265 4.84377V3.52687H10.6068C10.6766 3.52694 10.7436 3.55472 10.7929 3.60409C10.8423 3.65347 10.8701 3.72042 10.8702 3.79025V9.32124C10.8701 9.39107 10.8423 9.45802 10.7929 9.5074C10.7436 9.55678 10.6766 9.58455 10.6068 9.58462H5.0758C5.00597 9.58455 4.93902 9.55678 4.88964 9.5074C4.84026 9.45802 4.81249 9.39107 4.81242 9.32124V8.26772C4.81243 8.23313 4.80562 8.19887 4.79239 8.16691C4.77916 8.13496 4.75976 8.10592 4.7353 8.08146C4.71084 8.057 4.6818 8.0376 4.64984 8.02437C4.61788 8.01113 4.58363 8.00433 4.54904 8.00434ZM8.5 4.84377H7.18284V3.52687H8.49974L8.5 4.84377Z" stroke="#fff" stroke-width="0.32" mask="url(#path-1-outside-1_785_793)"/>
<path d="M19 6C19 6.0663 18.9737 6.12989 18.9268 6.17678C18.8799 6.22366 18.8163 6.25 18.75 6.25H16.25V8.75C16.25 8.8163 16.2237 8.87989 16.1768 8.92678C16.1299 8.97366 16.0663 9 16 9C15.9337 9 15.8701 8.97366 15.8232 8.92678C15.7763 8.87989 15.75 8.8163 15.75 8.75V6.25H13.25C13.1837 6.25 13.1201 6.22366 13.0732 6.17678C13.0263 6.12989 13 6.0663 13 6C13 5.9337 13.0263 5.87011 13.0732 5.82322C13.1201 5.77634 13.1837 5.75 13.25 5.75H15.75V3.25C15.75 3.1837 15.7763 3.12011 15.8232 3.07322C15.8701 3.02634 15.9337 3 16 3C16.0663 3 16.1299 3.02634 16.1768 3.07322C16.2237 3.12011 16.25 3.1837 16.25 3.25V5.75H18.75C18.8163 5.75 18.8799 5.77634 18.9268 5.82322C18.9737 5.87011 19 5.9337 19 6Z" stroke="#fff" stroke-width="0.32" mask="url(#path-1-outside-1_785_793)"/>
</svg>
