<svg width="20" height="20" viewBox="0 0 20 20" fill="none" xmlns="http://www.w3.org/2000/svg">
<path d="M13.5672 7.68281C13.6253 7.74086 13.6714 7.80979 13.7028 7.88566C13.7343 7.96154 13.7505 8.04287 13.7505 8.125C13.7505 8.20713 13.7343 8.28846 13.7028 8.36434C13.6714 8.44021 13.6253 8.50914 13.5672 8.56719L9.19216 12.9422C9.13412 13.0003 9.06518 13.0464 8.98931 13.0779C8.91344 13.1093 8.83211 13.1255 8.74997 13.1255C8.66784 13.1255 8.58651 13.1093 8.51064 13.0779C8.43476 13.0464 8.36583 13.0003 8.30779 12.9422L6.43279 11.0672C6.31551 10.9499 6.24963 10.7909 6.24963 10.625C6.24963 10.4591 6.31551 10.3001 6.43279 10.1828C6.55006 10.0655 6.70912 9.99965 6.87497 9.99965C7.04083 9.99965 7.19989 10.0655 7.31716 10.1828L8.74997 11.6164L12.6828 7.68281C12.7408 7.6247 12.8098 7.5786 12.8856 7.54715C12.9615 7.5157 13.0428 7.49951 13.125 7.49951C13.2071 7.49951 13.2884 7.5157 13.3643 7.54715C13.4402 7.5786 13.5091 7.6247 13.5672 7.68281ZM18.125 10C18.125 11.607 17.6484 13.1779 16.7557 14.514C15.8629 15.8502 14.5939 16.8916 13.1093 17.5065C11.6246 18.1215 9.99096 18.2824 8.41486 17.9689C6.83877 17.6554 5.39103 16.8815 4.25473 15.7452C3.11843 14.6089 2.3446 13.1612 2.03109 11.5851C1.71759 10.009 1.87849 8.37535 2.49345 6.8907C3.10841 5.40605 4.14982 4.1371 5.48596 3.24431C6.82211 2.35152 8.393 1.875 9.99997 1.875C12.1542 1.87727 14.2195 2.73403 15.7427 4.25727C17.2659 5.78051 18.1227 7.84581 18.125 10ZM16.875 10C16.875 8.64025 16.4718 7.31104 15.7163 6.18045C14.9609 5.04987 13.8872 4.16868 12.6309 3.64833C11.3747 3.12798 9.99235 2.99183 8.65873 3.2571C7.32511 3.52237 6.1001 4.17716 5.13861 5.13864C4.17713 6.10013 3.52235 7.32513 3.25707 8.65875C2.9918 9.99237 3.12795 11.3747 3.6483 12.6309C4.16865 13.8872 5.04984 14.9609 6.18043 15.7164C7.31102 16.4718 8.64023 16.875 9.99997 16.875C11.8227 16.8729 13.5702 16.1479 14.859 14.8591C16.1479 13.5702 16.8729 11.8227 16.875 10Z" fill="#45A845"/>
</svg>
