<svg width="22" height="22" viewBox="0 0 22 22" fill="none" xmlns="http://www.w3.org/2000/svg">
<rect x="0.5" y="0.5" width="21" height="21" rx="2.5" fill="white"/>
<rect x="0.5" y="0.5" width="21" height="21" rx="2.5" stroke="black"/>
<path d="M11.7772 10.4103L11.6004 10.5871L11.7772 10.4103C11.5545 10.1876 11.2524 10.0625 10.9375 10.0625C10.7026 10.0625 10.473 10.1321 10.2778 10.2626L10.4167 10.4705L10.2778 10.2626C10.0825 10.3931 9.93027 10.5786 9.84039 10.7956C9.75051 11.0126 9.727 11.2513 9.77282 11.4817C9.81864 11.712 9.93174 11.9236 10.0978 12.0897L10.2738 11.9137L10.0978 12.0897C10.2639 12.2558 10.4755 12.3689 10.7058 12.4147C10.9362 12.4605 11.1749 12.437 11.3919 12.3471C11.6089 12.2572 11.7944 12.105 11.9249 11.9097L11.717 11.7708L11.9249 11.9097C12.0554 11.7145 12.125 11.4849 12.125 11.25C12.125 10.9351 11.9999 10.633 11.7772 10.4103ZM10.9375 7.125C11.1724 7.125 11.402 7.05536 11.5972 6.92487C11.7925 6.79439 11.9447 6.60892 12.0346 6.39194C12.1245 6.17495 12.148 5.93618 12.1022 5.70583C12.0564 5.47548 11.9433 5.26389 11.7772 5.09781C11.6111 4.93174 11.3995 4.81864 11.1692 4.77282C10.9388 4.727 10.7001 4.75051 10.4831 4.84039C10.2661 4.93027 10.0806 5.08248 9.95013 5.27776C9.81965 5.47304 9.75 5.70264 9.75 5.9375C9.75 6.25245 9.87511 6.55449 10.0978 6.77719C10.3205 6.99989 10.6226 7.125 10.9375 7.125ZM11.9249 17.2222L11.717 17.0833L11.9249 17.2222C12.0554 17.027 12.125 16.7974 12.125 16.5625C12.125 16.2476 11.9999 15.9455 11.7772 15.7228C11.5545 15.5001 11.2524 15.375 10.9375 15.375C10.7026 15.375 10.473 15.4446 10.2778 15.5751C10.0825 15.7056 9.93027 15.8911 9.84039 16.1081C9.75051 16.3251 9.727 16.5638 9.77282 16.7942C9.81864 17.0245 9.93174 17.2361 10.0978 17.4022C10.2639 17.5683 10.4755 17.6814 10.7058 17.7272C10.9362 17.773 11.1749 17.7495 11.3919 17.6596C11.6089 17.5697 11.7944 17.4175 11.9249 17.2222Z" fill="black" stroke="black" stroke-width="0.5"/>
</svg>
